<svg id="Primary_Color" xmlns="http://www.w3.org/2000/svg" viewBox="0 0 518.7 743.8"><defs><clipPath id="clippath"><path class="cls-2" d="M446.4 254.8h-2.1c-9.8 0-43.5-2.3-65.8-31.5-25.9-34-27.4-91.3-4.5-170.4l.2-.5h-.4l-27.1-7.8h-.3v.2c-1.6 36.5-12.2 63.8-31.5 80.9-20 17.8-44 19.2-50.9 19.2h-2.4c-43.7-2.1-64.7-30-74.5-52.9-9.6-22.4-10.9-44.7-11-49v-.3l-30.7 9.8h-.4l-.6-.4 1 2.8c22.2 77.7 20.5 134.3-5 168.1-22.4 29.6-56.4 31.9-66.2 31.9h-2.1l.2.3c.3 1.7.3 133.3 0 391.2h.4c1.5-8.1 5.6-27.9 10.3-36.7 6.1-11.4 9-22.2 9.7-28.4v-.2l-5.6-.2c-.4 0-.7-.3-.6-.7 0-.3.3-.7.7-.7l7.1.2c.4 0 .7.3.6.7 0 .4-.3.7-.7.7h-1.1v.2c-.7 6.3-3.6 17.1-9.8 28.7-1.5 2.8-3 6.8-4.6 12.1v.4c-.1 0 .2-.1.2-.1l15 47.7h.1c3.8 1.1 38.7 10.3 94.3 15.1 18.6 1.6 40.8 2.8 66 2.8 47.8 0 106.1-4.2 170-17.8h.1l15-47.7h.4c0 .1-.1-.3-.1-.3-1.5-5.3-3.1-9.4-4.6-12.1-6.1-11.5-9.1-22.4-9.8-28.7v-.2h-1.7c-.4 0-.7-.3-.7-.7 0-.4.3-.7.6-.7l7.1-.2c.4 0 .7.3.7.7 0 .4-.3.7-.6.7l-5 .2v.2c.7 6.2 3.6 17 9.7 28.4 4.3 8 8 25 9.8 34.4h.5V255.4l.5-.6Z"/></clipPath><clipPath id="clippath-1"><path class="cls-2" d="M446.5 240.9c-24.6-.5-43.2-9.3-55.3-26.1-14.5-20.2-19.6-51.7-15.2-93.6 3.4-32.2 11.3-59.2 12.9-64.3l.2-.8-14.4-4.9-.8 2.1c-22.9 79.1-21.6 136.2 4.3 170.3 22.1 29 55 31.6 65.9 31.6h3.1v-14.1h-.9Z"/></clipPath><clipPath id="clippath-2"><path class="cls-2" d="M72.3 240.9c24.6-.5 43.2-9.3 55.3-26.1 14.5-20.2 19.6-51.7 15.2-93.6-3.4-32.2-11.3-59.2-12.9-64.3l-.2-.8 14.4-4.9.8 2.1c22.9 79.1 21.6 136.2-4.3 170.3-22.1 29-55 31.6-65.9 31.6h-3.1v-14.1h.9Z"/></clipPath><clipPath id="clippath-3"><path class="cls-2" d="M346.1 44.1c-4.2 107-84.6 100.6-84.6 100.6-84.4-4.1-85.4-102.6-85.4-102.6l.5-1.5 14.1-2.9s.2 27.2 13.5 54.1c0 0 17.1 36.2 54.4 38.5 0 0 40 5 60.8-40 6.4-13.8 11.8-30.5 12.4-51.9l13.4 4.4.8 1.3Z"/></clipPath><clipPath id="clippath-4"><path class="cls-2" d="M192 40.8c1.6 3.9 5.4 11.2 12.1 16.9l.3.3-8.7 12-.2-.9c-2.4-8.7-3.9-18.2-4.3-28.1v-2.5c-.1 0 .9 2.3.9 2.3Z"/></clipPath><clipPath id="clippath-5"><path class="cls-2" d="M330.8 41c-1.6 3.9-5.4 11.2-12.2 17l-.3.3 8.8 12.1.2-.9c2.4-8.8 3.9-18.3 4.4-28.3v-2.6c.1 0-.9 2.4-.9 2.4Z"/></clipPath><clipPath id="clippath-6"><path class="cls-2" d="m318.2 58.3-.4.2c-17 9.8-35.5 14.7-54.9 14.7-31.7 0-55.7-13.2-58.3-14.7l-.3-.2-7.2 9.5.4.3c1.7 1 17.1 9.7 39.2 14.1 7.5 1.5 16.3 2.6 26 2.6 18.4 0 40-3.9 62-16.6l.4-.2-7-9.6Z"/></clipPath><style>.cls-10,.cls-12,.cls-2,.cls-3,.cls-4,.cls-5,.cls-6{fill:none}.cls-14,.cls-17,.cls-18,.cls-2{stroke-width:0}.cls-10,.cls-3,.cls-4,.cls-5{stroke:#000}.cls-3,.cls-5{stroke-width:0}.cls-10,.cls-3,.cls-5{stroke-miterlimit:10}.cls-4{stroke-width:.6px}.cls-4,.cls-6{stroke-linejoin:round}.cls-4{stroke-linecap:round}.cls-5{stroke-dasharray:0 0 0 .2}.cls-6{stroke-width:3.7px}.cls-12,.cls-6{stroke:#a9a9a9}.cls-14{isolation:isolate;opacity:.3}.cls-10{stroke-width:.3px}.cls-17{fill:#d3d3d3}.cls-18{fill:#a9a9a9}</style></defs><path d="M446.4 254.8h-2.1c-9.8 0-43.5-2.3-65.8-31.5-25.9-34-27.4-91.3-4.5-170.4l.2-.5h-.4l-27.1-7.8h-.3v.2c-1.6 36.5-12.2 63.8-31.5 80.9-20 17.8-44 19.2-50.9 19.2h-2.4c-43.7-2.1-64.7-30-74.5-52.9-9.6-22.4-10.9-44.7-11-49v-.3l-30.7 9.8h-.4l-.6-.4 1 2.8c22.2 77.7 20.5 134.3-5 168.1-22.4 29.6-56.4 31.9-66.2 31.9h-2.1l.2.3c.3 1.7.3 133.3 0 391.2h.4c1.5-8.1 5.6-27.9 10.3-36.7 6.1-11.4 9-22.2 9.7-28.4v-.2l-5.6-.2c-.4 0-.7-.3-.6-.7 0-.3.3-.7.7-.7l7.1.2c.4 0 .7.3.6.7 0 .4-.3.7-.7.7h-1.1v.2c-.7 6.3-3.6 17.1-9.8 28.7-1.5 2.8-3 6.8-4.6 12.1v.4c-.1 0 .2-.1.2-.1l15 47.7h.1c3.8 1.1 38.7 10.3 94.3 15.1 18.6 1.6 40.8 2.8 66 2.8 47.8 0 106.1-4.2 170-17.8h.1l15-47.7h.4c0 .1-.1-.3-.1-.3-1.5-5.3-3.1-9.4-4.6-12.1-6.1-11.5-9.1-22.4-9.8-28.7v-.2h-1.7c-.4 0-.7-.3-.7-.7 0-.4.3-.7.6-.7l7.1-.2c.4 0 .7.3.7.7 0 .4-.3.7-.6.7l-5 .2v.2c.7 6.2 3.6 17 9.7 28.4 4.3 8 8 25 9.8 34.4h.5V255.4l.5-.6Z" fill="gray" stroke-width="0"/><g clip-path="url(#clippath)"><path class="cls-17" d="M76.9 228.6h4.7v458.5h-4.7z"/><path class="cls-18" d="M72.1 228.6h4.7v458.5h-4.7zM81.6 228.6h4.7v458.5h-4.7z"/><path class="cls-17" d="M86.3 228.6H91v458.5h-4.7zM437 228.6h4.7v458.5H437z"/><path class="cls-18" d="M441.7 228.6h4.7v458.5h-4.7zM432.3 228.6h4.7v458.5h-4.7z"/><path class="cls-17" d="M427.6 228.6h4.7v458.5h-4.7z"/></g><g clip-path="url(#clippath-1)" id="R"><path class="cls-17" d="M446.5 240.9c-24.6-.5-43.2-9.3-55.3-26.1-14.5-20.2-19.6-51.7-15.2-93.6 3.4-32.2 11.3-59.2 12.9-64.3l.2-.8-14.4-4.9-.8 2.1c-22.9 79.1-21.6 136.2 4.3 170.3 22.1 29 55 31.6 65.9 31.6h3.1v-14.1h-.9Z"/><path class="cls-17" d="M454.2 237.3c-25.2-.5-44.3-9.1-56.7-25.6-14.9-19.8-20.1-50.6-15.6-91.7 3.5-31.5 11.6-58 13.2-62.9l.3-.8-14.8-4.8-.8 2c-23.5 77.5-22.2 135.8 4.4 169.1 22.6 28.4 56.4 27 67.6 27h.9l2.3-1.6v-10.6h-.9Z"/><path class="cls-17" d="M458.8 235c-25.2-.5-44.3-9-56.7-25.3-14.9-19.6-20.1-50.1-15.6-90.7 3.5-31.2 11.6-57.3 13.2-62.3l.3-.8-14.8-4.8-.8 2c-23.5 76.6-22.2 134.3 4.4 167.3 22.6 28.1 56.4 25.2 67.6 25.2h3.2V235h-.9Z"/></g><g clip-path="url(#clippath-2)" id="L"><path class="cls-17" d="M72.3 240.9c24.6-.5 43.2-9.3 55.3-26.1 14.5-20.2 19.6-51.7 15.2-93.6-3.4-32.2-11.3-59.2-12.9-64.3l-.2-.8 14.4-4.9.8 2.1c22.9 79.1 21.6 136.2-4.3 170.3-22.1 29-55 31.6-65.9 31.6h-3.1v-14.1h.9Z"/><path class="cls-17" d="M64.6 237.3c25.2-.5 44.3-9.1 56.7-25.6 14.9-19.8 20.1-50.6 15.6-91.7-3.5-31.5-11.6-58-13.2-62.9l-.3-.8 14.8-4.8.8 2c23.5 77.5 22.2 135.8-4.4 169.1-22.6 28.4-56.4 27-67.6 27h-.9l-2.3-1.6v-10.6h.9Z"/><path class="cls-17" d="M59.9 235c25.2-.5 44.3-9 56.7-25.3 14.9-19.6 20.1-50.1 15.6-90.7-3.5-31.2-11.6-57.3-13.2-62.3l-.3-.8 14.8-4.8.8 2c23.5 76.6 22.2 134.3-4.4 167.3-22.6 28.1-56.4 25.2-67.6 25.2h-3.2V235h.9Z"/></g><g clip-path="url(#clippath-3)" id="front"><path class="cls-17" d="M346.1 44.1c-4.2 107-84.6 100.6-84.6 100.6-84.4-4.1-85.4-102.6-85.4-102.6l.5-1.5 14.1-2.9s.2 27.2 13.5 54.1c0 0 17.1 36.2 54.4 38.5 0 0 40 5 60.8-40 6.4-13.8 11.8-30.5 12.4-51.9l13.4 4.4.8 1.3Z"/><path class="cls-17" d="M342.4 38c-4 108.8-80.8 102.3-80.8 102.3C180.9 136.1 180.1 36 180.1 36l.5-1.5 13.5-2.9s.2 27.6 12.9 55c0 0 16.3 36.9 52 39.1 0 0 38.2 5.1 58-40.7 6.1-14 11.3-31 11.9-52.7l12.8 4.4.7 1.3Z"/><path class="cls-17" d="M337.8 33.4c-3.8 108.8-76.2 102.3-76.2 102.3-76.1-4.2-76.9-104.3-76.9-104.3l.5-1.5 12.7-2.9s.2 27.6 12.2 55c0 0 15.4 36.9 49.1 39.1 0 0 36.1 5.1 54.8-40.7 5.7-14 10.6-31 11.2-52.7l12.1 4.4.7 1.3Z"/></g><g clip-path="url(#clippath-4)" id="L_back"><path class="cls-17" d="M192 40.8c1.6 3.9 5.4 11.2 12.1 16.9l.3.3-8.7 12-.2-.9c-2.4-8.7-3.9-18.2-4.3-28.1v-2.5c-.1 0 .9 2.3.9 2.3Z"/><path class="cls-17" d="M201 65.5c-6.5-3.3-11.6-11.2-15.5-18.3V36.7l30.8 16.2L201 65.4Z"/><path class="cls-17" d="M202.4 61.5c-6.5-3.4-11.5-11.2-15.5-18.4V32.6L217.7 49l-15.3 12.5Z"/></g><g clip-path="url(#clippath-5)" id="R_back"><path class="cls-17" d="M330.8 41c-1.6 3.9-5.4 11.2-12.2 17l-.3.3 8.8 12.1.2-.9c2.4-8.8 3.9-18.3 4.4-28.3v-2.6c.1 0-.9 2.4-.9 2.4Z"/><path class="cls-17" d="M321.7 65.9c6.6-3.4 11.6-11.2 15.6-18.4V37l-31 16.3 15.4 12.6Z"/><path class="cls-17" d="M320.3 61.8c6.5-3.4 11.6-11.3 15.5-18.5V32.8l-31 16.4 15.4 12.5Z"/></g><g id="back"><path d="m318.2 58.3-.4.2c-17 9.8-35.5 14.7-54.9 14.7-31.7 0-55.7-13.2-58.3-14.7l-.3-.2-7.2 9.5.4.3c1.7 1 17.1 9.7 39.2 14.1 7.5 1.5 16.3 2.6 26 2.6 18.4 0 40-3.9 62-16.6l.4-.2-7-9.6Z" fill="#d0b787" stroke-width="0"/><g clip-path="url(#clippath-6)"><path class="cls-17" d="m318.2 58.3-.4.2c-17 9.8-35.5 14.7-54.9 14.7-31.7 0-55.7-13.2-58.3-14.7l-.3-.2-7.2 9.5.4.3c1.7 1 17.1 9.7 39.2 14.1 7.5 1.5 16.3 2.6 26 2.6 18.4 0 40-3.9 62-16.6l.4-.2-7-9.6Z"/><path class="cls-17" d="m317.8 54.4-.4.2c-16.9 9.8-35.2 14.7-54.5 14.7-31.5 0-55.3-13.2-57.9-14.7l-.3-.2-7.2 9.5.4.3c1.7 1 16.9 9.7 39 14.1 7.4 1.5 16.2 2.6 25.8 2.6 18.2 0 39.7-3.9 61.6-16.6l.4-.2-7-9.6Z"/><path class="cls-17" d="m317.8 48.7-.4.2c-16.9 10.6-35.2 15.9-54.5 15.9-31.5 0-55.3-14.3-57.9-15.9l-.3-.2-7.2 10.3.4.3c1.7 1.1 16.9 10.5 39 15.3 7.4 1.6 16.2 2.8 25.8 2.8 18.2 0 39.7-4.2 61.6-17.9l.4-.3-7-10.4Z"/></g></g><path class="cls-18" d="M446.1 648.9c-.8-4.4-2.9-15.7-5.7-25.6 0-.2-.2-.3-.4-.3s-.4.1-.4.3l-14.7 46.9c-55.6 11.9-112.9 17.9-170.3 17.9s-44.6-.9-66-2.8c-58-5-94.2-15-94.6-15.1l-14.7-46.9c0-.2-.2-.3-.4-.3s-.4.1-.4.3c-3.4 11.9-5.8 25.9-6.1 27.8V673c.1.8.8 4.9 3.4 8 0 0 .1.1.2.1 3.9 1.5 40.4 14.3 100.5 20.9 20 2.2 44 3.8 71.4 3.8 52.1 0 116.3-5.9 188-24.8l7.4-1.6c.1 0 .2 0 .2-.2 2.5-3.2 2.9-7.5 2.9-7.6v-22.8Z"/><path d="M325.1 68.3h-.2C305.7 79.4 284.8 85 262.7 85s-17.5-.9-26.1-2.6c-22.4-4.5-37.7-13.2-39.4-14.2h-.2c0-.1-.9 1-.9 1 2.2 8.1 5 15.6 8.4 22.4.2.4 17.4 36 54.1 38.2.1 0 1.3.1 3.3.1 9.9 0 39.6-3.1 56.6-39s.4-.9.4-.9c3.1-6.7 5.5-13.2 7.4-19.8 0-.1-1.4-2.1-1.4-2.1Z" fill="#e6e7e8" stroke-width="0"/><path class="cls-10" d="M71.4 254.5h2.7c18.5 0 125.7-8 71.1-199.6l-1.4-3.8M374.8 51.4l-.5 1.6c-56.7 195.9 54.1 201.8 70.9 201.6h2.1"/><path d="M190.9 37.8s3.6 12 13.6 20.4c0 0 55.6 33.7 113.6 0 10.1-8.4 13.9-19.7 13.9-19.7" stroke-width=".4" stroke-miterlimit="10" stroke="#000" fill="none"/><path class="cls-10" d="M197.3 68s62.6 37.9 128 0M195.9 69.4l8.6-11.2"/><path class="cls-5" d="m195.2 68.6 8.6-11.3"/><path class="cls-10" d="m318.1 58.2 9.2 12.6"/><path class="cls-5" d="m318.9 57.6 8.9 12.2"/><path class="cls-10" d="M72.2 651.1s4.9-29.8 11.1-41.4c6.2-11.6 9.3-23 9.8-29.5"/><path class="cls-10" d="m78.9 622.1 15.1 48s141.9 40.3 330.9 0l15.1-48"/><path class="cls-10" d="M446.5 651.1s-4.9-29.8-11.1-41.4-9.3-23-9.8-29.5"/><path class="cls-5" d="m79.6 619.6 16.5 51M439.3 619.6l-16.5 51"/><path d="M426.8 664.2c-57.3 13.5-112.1 17.5-162.2 17.5-99.5 0-171.6-17.4-172.7-17.7" stroke-width=".2" stroke-dasharray="0 0 0 .2" stroke-miterlimit="10" stroke="#000" fill="none"/><path d="M91.2 660.3c1.6.4 166.4 40 336.5 0" stroke-width=".2" stroke-dasharray="0 0 0 .2" stroke-miterlimit="10" stroke="#000" fill="none"/><path class="cls-5" d="M446.6 253.1H444c-18.1 0-122.5-7.9-69.2-196.9l1.3-3.7"/><path class="cls-3" d="M73.4 672.6c-.2.5-.5.8-.7.7-.2 0-.3-.5-.1-1 .2-.5.5-.8.7-.7.2 0 .3.5.1 1Z"/><path class="cls-3" d="M73.1 673.6c-.2.5-.5.8-.7.7-.2 0-.3-.5-.1-1 .2-.5.5-.8.7-.7.2 0 .3.5.1 1ZM74.7 673c-.2.5-.5.8-.7.7-.2 0-.3-.5-.1-1s.5-.8.7-.7c.2 0 .3.5.1 1Z"/><path class="cls-3" d="M74.3 674c-.2.5-.5.8-.7.7-.2 0-.3-.5-.1-1s.5-.8.7-.7c.2 0 .3.5.1 1ZM75.9 673.4c-.1.5-.5.8-.7.7s-.3-.5-.1-1c.2-.5.5-.8.7-.7.2 0 .3.5.1 1Z"/><path class="cls-3" d="M75.5 674.4c-.1.5-.5.8-.7.7s-.3-.5-.1-1c.2-.5.5-.8.7-.7.2 0 .3.5.1 1ZM77.1 673.8c-.1.5-.5.8-.7.7-.2 0-.3-.5-.1-1 .1-.5.5-.8.7-.7.2 0 .3.5.1 1Z"/><path class="cls-3" d="M76.8 674.8c-.1.5-.5.8-.7.7s-.3-.5-.1-1c.1-.5.5-.8.7-.7s.3.5.1 1ZM78.3 674.2c-.1.5-.5.8-.7.7-.2 0-.3-.5-.2-1s.5-.8.7-.7c.2 0 .3.5.2 1Z"/><path class="cls-3" d="M78 675.2c-.1.5-.5.8-.7.7-.2 0-.3-.5-.2-1s.5-.8.7-.7c.2 0 .3.5.2 1ZM79.6 674.6c-.1.5-.5.8-.7.7s-.3-.5-.2-1 .5-.8.7-.7c.2 0 .3.5.2 1Z"/><path class="cls-3" d="M79.2 675.6c-.1.5-.5.8-.7.7-.2 0-.3-.5-.2-1s.5-.8.7-.7c.2 0 .3.5.2 1ZM80.8 675c-.1.5-.5.8-.7.7-.2 0-.3-.5-.2-1 .1-.5.5-.8.7-.7.2 0 .3.5.2 1Z"/><path class="cls-3" d="M80.5 676c-.1.5-.5.8-.7.7-.2 0-.3-.5-.2-1 .1-.5.5-.8.7-.7.2 0 .3.5.2 1ZM82 675.3c-.1.5-.4.8-.7.7-.2 0-.3-.5-.2-1 .1-.5.4-.8.7-.7.2 0 .3.5.2 1Z"/><path class="cls-3" d="M81.7 676.4c-.1.5-.4.8-.7.7-.2 0-.3-.5-.2-1 .1-.5.5-.8.7-.7.2 0 .3.5.2 1ZM83.3 675.7c-.1.5-.4.8-.7.7s-.3-.5-.2-1c.1-.5.4-.8.7-.7s.3.5.2 1Z"/><path class="cls-3" d="M82.9 676.7c-.1.5-.4.8-.7.7s-.3-.5-.2-1c.1-.5.4-.8.7-.7s.3.5.2 1ZM84.5 676.1c-.1.5-.4.8-.7.7s-.3-.5-.2-1c.1-.5.4-.8.7-.7s.3.5.2 1Z"/><path class="cls-3" d="M84.2 677.1c-.1.5-.4.8-.7.7s-.3-.5-.2-1c.1-.5.4-.8.7-.7s.3.5.2 1ZM85.7 676.4c-.1.5-.4.8-.7.7-.2 0-.3-.5-.2-1 .1-.5.4-.8.7-.7.2 0 .3.5.2 1Z"/><path class="cls-3" d="M85.4 677.5c-.1.5-.4.8-.7.7-.2 0-.3-.5-.2-1s.4-.8.7-.7.3.5.2 1ZM87 676.8c-.1.5-.4.8-.7.7-.2 0-.3-.5-.2-1 .1-.5.4-.8.7-.7.2 0 .3.5.2 1Z"/><path class="cls-3" d="M86.7 677.8c-.1.5-.4.8-.7.7-.2 0-.3-.5-.2-1 .1-.5.4-.8.7-.7.2 0 .3.5.2 1ZM88.2 677.1c-.1.5-.4.8-.7.8-.2 0-.3-.5-.2-1 .1-.5.4-.8.7-.8.2 0 .3.5.2 1Z"/><path class="cls-3" d="M87.9 678.2c-.1.5-.4.8-.7.7-.2 0-.3-.5-.2-1s.4-.8.7-.7c.2 0 .3.5.2 1ZM89.4 677.5c-.1.5-.4.8-.7.8-.2 0-.3-.5-.2-1 .1-.5.4-.8.7-.8.2 0 .3.5.2 1Z"/><path class="cls-3" d="M89.2 678.5c-.1.5-.4.8-.7.8-.2 0-.3-.5-.2-1 .1-.5.4-.8.7-.8.2 0 .3.5.2 1ZM90.7 677.8c-.1.5-.4.8-.7.8s-.3-.5-.2-1 .4-.8.7-.8.3.5.2 1Z"/><path class="cls-3" d="M90.4 678.8c-.1.5-.4.8-.7.8-.2 0-.3-.5-.2-1s.4-.8.7-.8c.2 0 .3.5.2 1ZM91.9 678.2c-.1.5-.4.8-.7.8s-.3-.5-.2-1 .4-.8.7-.8.3.5.2 1Z"/><path class="cls-3" d="M91.6 679.2c-.1.5-.4.8-.7.8s-.3-.5-.2-1 .4-.8.7-.8.3.5.2 1ZM93.2 678.5c-.1.5-.4.8-.7.8s-.3-.5-.2-1 .4-.8.7-.8c.2 0 .3.5.2 1Z"/><path class="cls-3" d="M92.9 679.5c-.1.5-.4.8-.7.8s-.3-.5-.2-1 .4-.8.7-.8.3.5.2 1ZM94.4 678.8c-.1.5-.4.8-.7.8s-.3-.5-.2-1 .4-.8.7-.8.3.5.2 1Z"/><path class="cls-3" d="M94.1 679.9c-.1.5-.4.8-.7.8s-.3-.5-.2-1 .4-.8.7-.8.3.5.2 1ZM95.7 679.1c-.1.5-.4.8-.7.8-.2 0-.3-.5-.2-1 .1-.5.4-.8.7-.8.2 0 .3.5.2 1Z"/><path class="cls-3" d="M95.4 680.2c-.1.5-.4.8-.7.8-.2 0-.3-.5-.2-1 .1-.5.4-.8.7-.8s.3.5.2 1ZM96.9 679.5c-.1.5-.4.8-.7.8s-.3-.5-.2-1c.1-.5.4-.8.7-.8s.3.5.2 1Z"/><path class="cls-3" d="M96.6 680.5c-.1.5-.4.8-.7.8s-.3-.5-.2-1c.1-.5.4-.8.7-.8s.3.5.2 1ZM98.2 679.8c-.1.5-.4.8-.7.8s-.3-.5-.2-1c.1-.5.4-.8.7-.8s.3.5.2 1Z"/><path class="cls-3" d="M97.9 680.8c-.1.5-.4.8-.7.8s-.3-.5-.2-1c.1-.5.4-.8.7-.8s.3.5.2 1ZM99.4 680.1c-.1.5-.4.8-.7.8-.2 0-.3-.5-.2-1 .1-.5.4-.8.7-.8s.3.5.2 1Z"/><path class="cls-3" d="M99.1 681.1c-.1.5-.4.8-.7.8-.2 0-.3-.5-.2-1 .1-.5.4-.8.7-.8s.3.5.2 1ZM100.6 680.4c-.1.5-.4.8-.7.8-.2 0-.3-.5-.2-1 .1-.5.4-.8.7-.8.2 0 .3.5.2 1Z"/><path class="cls-3" d="M100.4 681.5c-.1.5-.4.8-.7.8-.2 0-.3-.5-.2-1 .1-.5.4-.8.7-.8.2 0 .3.5.2 1ZM101.9 680.7c-.1.5-.4.8-.6.8-.2 0-.3-.5-.2-1s.4-.8.6-.8c.2 0 .3.5.2 1Z"/><path class="cls-3" d="M101.6 681.8c-.1.5-.4.8-.7.8-.2 0-.3-.5-.2-1s.4-.8.7-.8c.2 0 .3.5.2 1ZM103.1 681c-.1.5-.4.8-.6.8-.2 0-.3-.5-.2-1s.4-.8.6-.8c.2 0 .3.5.2 1Z"/><path class="cls-3" d="M102.9 682.1c-.1.5-.4.8-.6.8-.2 0-.3-.5-.2-1s.4-.8.6-.8c.2 0 .3.5.2 1ZM104.4 681.3c-.1.5-.4.8-.6.8-.2 0-.3-.5-.2-1 .1-.5.4-.8.6-.8.2 0 .3.5.2 1Z"/><path class="cls-3" d="M104.2 682.4c-.1.5-.4.8-.6.8-.2 0-.3-.5-.2-1 .1-.5.4-.8.6-.8.2 0 .3.5.2 1ZM105.7 681.6c-.1.5-.4.8-.6.8-.2 0-.3-.5-.2-1 .1-.5.4-.8.6-.8.2 0 .3.5.2 1Z"/><path class="cls-3" d="M105.4 682.7c-.1.5-.4.8-.6.8-.2 0-.4-.5-.2-1 .1-.5.4-.8.6-.8.2 0 .3.5.2 1ZM106.9 681.9c-.1.5-.4.8-.6.8-.2 0-.4-.5-.2-1 .1-.5.4-.8.6-.8.2 0 .3.5.2 1Z"/><path class="cls-3" d="M106.7 683c-.1.5-.4.8-.6.8s-.4-.5-.2-1c.1-.5.4-.8.6-.8.2 0 .4.5.2 1ZM108.2 682.2c-.1.5-.4.8-.6.8s-.4-.5-.2-1c.1-.5.4-.8.6-.8s.4.5.2 1Z"/><path class="cls-3" d="M107.9 683.3c-.1.5-.4.8-.6.8s-.4-.5-.2-1 .4-.8.6-.8.4.5.2 1ZM109.4 682.5c-.1.5-.4.8-.6.8-.2 0-.4-.5-.2-1s.4-.8.6-.8c.2 0 .4.5.2 1Z"/><path class="cls-3" d="M109.2 683.6c-.1.5-.4.8-.6.8-.2 0-.4-.5-.2-1s.4-.8.6-.8c.2 0 .4.5.2 1ZM110.7 682.8c-.1.5-.4.8-.6.8-.2 0-.4-.5-.2-1s.4-.8.6-.8c.2 0 .4.5.2 1Z"/><path class="cls-3" d="M110.4 683.8c-.1.5-.4.8-.6.8-.2 0-.4-.5-.2-1s.4-.8.6-.8c.2 0 .4.5.2 1ZM111.9 683.1c-.1.5-.4.8-.6.8-.2 0-.4-.5-.2-1s.4-.8.6-.8c.2 0 .4.5.2 1Z"/><path class="cls-3" d="M111.7 684.1c-.1.5-.4.8-.6.8-.2 0-.4-.5-.2-1s.4-.8.6-.8c.2 0 .4.5.2 1ZM113.2 683.4c-.1.5-.4.8-.6.8-.2 0-.4-.5-.2-1s.4-.8.6-.8c.2 0 .4.5.2 1Z"/><path class="cls-3" d="M112.9 684.4c-.1.5-.4.8-.6.8-.2 0-.4-.5-.2-1s.4-.8.6-.8c.2 0 .4.5.2 1ZM114.4 683.6c-.1.5-.4.8-.6.8-.2 0-.4-.5-.2-1s.4-.8.6-.8c.2 0 .4.5.2 1Z"/><path class="cls-3" d="M114.2 684.7c-.1.5-.4.8-.6.8-.2 0-.4-.5-.2-1 .1-.5.4-.8.6-.8.2 0 .4.5.2 1ZM115.7 683.9c-.1.5-.4.8-.6.8-.2 0-.4-.5-.2-1 .1-.5.4-.8.6-.8s.4.5.2 1Z"/><path class="cls-3" d="M115.5 685c-.1.5-.4.8-.6.8-.2 0-.4-.5-.2-1 .1-.5.4-.8.6-.8.2 0 .4.5.2 1ZM117 684.2c-.1.5-.4.8-.6.8-.2 0-.4-.5-.2-1s.4-.8.6-.8c.2 0 .4.5.2 1Z"/><path class="cls-3" d="M116.7 685.3c-.1.5-.4.8-.6.8-.2 0-.4-.5-.2-1s.4-.8.6-.8c.2 0 .4.5.2 1ZM118.2 684.5c-.1.5-.4.8-.6.8-.2 0-.4-.5-.2-1 .1-.5.4-.8.6-.8.2 0 .4.5.2 1Z"/><path class="cls-3" d="M118 685.5c-.1.5-.4.8-.6.8-.2 0-.4-.5-.2-1 .1-.5.4-.8.6-.8.2 0 .4.5.2 1ZM119.5 684.7c-.1.5-.4.8-.6.8-.2 0-.4-.5-.2-1 .1-.5.4-.8.6-.8.2 0 .4.5.2 1Z"/><path class="cls-3" d="M119.3 685.8c-.1.5-.4.8-.6.8-.2 0-.4-.5-.2-1 .1-.5.4-.8.6-.8.2 0 .4.5.2 1ZM120.7 685c-.1.5-.4.8-.6.8s-.4-.5-.3-1 .4-.8.6-.8c.2 0 .4.5.3 1Z"/><path class="cls-3" d="M120.5 686c-.1.5-.4.8-.6.8s-.4-.5-.3-1 .4-.8.6-.8c.2 0 .4.5.3 1ZM122 685.3c-.1.5-.4.8-.6.8-.2 0-.4-.5-.3-1s.4-.8.6-.8c.2 0 .4.5.3 1Z"/><path class="cls-3" d="M121.8 686.3c-.1.5-.4.8-.6.8-.2 0-.4-.5-.3-1s.4-.8.6-.8c.2 0 .4.5.3 1ZM123.3 685.5c-.1.5-.4.8-.6.8-.2 0-.4-.5-.3-1s.4-.8.6-.8c.2 0 .4.5.3 1Z"/><path class="cls-3" d="M123 686.6c-.1.5-.4.8-.6.8-.2 0-.4-.5-.3-1s.4-.8.6-.8c.2 0 .4.5.3 1ZM124.5 685.8c-.1.5-.4.8-.6.8-.2 0-.4-.5-.3-1s.4-.8.6-.8.4.5.3 1Z"/><path class="cls-3" d="M124.3 686.8c-.1.5-.4.8-.6.8-.2 0-.4-.5-.3-1s.4-.8.6-.8c.2 0 .4.5.3 1ZM125.8 686c-.1.5-.4.8-.6.8-.2 0-.4-.5-.3-1s.4-.8.6-.8c.2 0 .4.5.3 1Z"/><path class="cls-3" d="M125.6 687.1c-.1.5-.4.8-.6.8-.2 0-.4-.5-.3-1s.4-.8.6-.8c.2 0 .4.5.3 1ZM127 686.3c-.1.5-.4.8-.6.8-.2 0-.4-.5-.3-1 .1-.5.4-.8.6-.8.2 0 .4.5.3 1Z"/><path class="cls-3" d="M126.8 687.3c-.1.5-.4.8-.6.8s-.4-.5-.3-1c.1-.5.4-.8.6-.8.2 0 .4.5.3 1ZM128.3 686.5c-.1.5-.4.8-.6.8-.2 0-.4-.5-.3-1 .1-.5.4-.8.6-.8.2 0 .4.5.3 1Z"/><path class="cls-3" d="M128.1 687.6c-.1.5-.4.8-.6.8s-.4-.5-.3-1c.1-.5.4-.8.6-.8.2 0 .4.5.3 1ZM129.6 686.8c0 .5-.4.8-.6.8s-.4-.5-.3-1c.1-.5.4-.8.6-.8s.4.5.3 1Z"/><path class="cls-3" d="M129.4 687.8c0 .5-.4.8-.6.8-.2 0-.4-.5-.3-1 .1-.5.4-.8.6-.8s.4.5.3 1ZM130.8 687c0 .5-.4.8-.6.8s-.4-.5-.3-1c0-.5.4-.8.6-.8s.4.5.3 1Z"/><path class="cls-3" d="M130.6 688.1c0 .5-.4.8-.6.8-.2 0-.4-.5-.3-1 0-.5.4-.8.6-.8s.4.5.3 1ZM132.1 687.2c0 .5-.4.8-.6.8s-.4-.5-.3-1 .4-.8.6-.8.4.5.3 1Z"/><path class="cls-3" d="M131.9 688.3c0 .5-.4.8-.6.8s-.4-.5-.3-1 .4-.8.6-.8.4.5.3 1ZM133.4 687.5c0 .5-.4.8-.6.8-.2 0-.4-.5-.3-1s.4-.8.6-.8c.2 0 .4.5.3 1Z"/><path class="cls-3" d="M133.2 688.5c0 .5-.4.8-.6.8s-.4-.5-.3-1 .4-.8.6-.8c.2 0 .4.5.3 1ZM134.6 687.7c0 .5-.4.8-.6.8-.2 0-.4-.5-.3-1s.4-.8.6-.8c.2 0 .4.5.3 1Z"/><path class="cls-3" d="M134.4 688.8c0 .5-.4.8-.6.8s-.4-.5-.3-1 .4-.8.6-.8c.2 0 .4.5.3 1ZM135.9 688c0 .5-.4.8-.6.8s-.4-.5-.3-1c0-.5.4-.8.6-.8.2 0 .4.5.3 1Z"/><path class="cls-3" d="M135.7 689c0 .5-.4.8-.6.8s-.4-.5-.3-1c0-.5.4-.8.6-.8s.4.5.3 1ZM137.2 688.2c0 .5-.4.8-.6.8-.2 0-.4-.5-.3-1s.4-.8.6-.8.4.5.3 1Z"/><path class="cls-3" d="M137 689.2c0 .5-.4.8-.6.8-.2 0-.4-.5-.3-1s.4-.8.6-.8c.2 0 .4.5.3 1ZM138.4 688.4c0 .5-.4.8-.6.8s-.4-.5-.3-1c0-.5.4-.8.6-.8s.4.5.3 1Z"/><path class="cls-3" d="M138.3 689.5c0 .5-.4.8-.6.8-.2 0-.4-.5-.3-1 0-.5.4-.8.6-.8.2 0 .4.5.3 1ZM139.7 688.6c0 .5-.4.8-.6.8s-.4-.5-.3-1c0-.5.4-.8.6-.8s.4.5.3 1Z"/><path class="cls-3" d="M139.5 689.7c0 .5-.4.8-.6.8s-.4-.5-.3-1c0-.5.4-.8.6-.8.2 0 .4.5.3 1ZM141 688.8c0 .5-.4.9-.6.8s-.4-.5-.3-1c0-.5.4-.9.6-.8.2 0 .4.5.3 1Z"/><path class="cls-3" d="M140.8 689.9c0 .5-.4.9-.6.8-.2 0-.4-.5-.3-1 0-.5.4-.8.6-.8s.4.5.3 1ZM142.2 689.1c0 .5-.4.9-.6.8s-.4-.5-.3-1c0-.5.4-.9.6-.8.2 0 .4.5.3 1Z"/><path class="cls-3" d="M142.1 690.1c0 .5-.4.9-.6.8-.2 0-.4-.5-.3-1 0-.5.4-.9.6-.8.2 0 .4.5.3 1ZM143.5 689.3c0 .5-.4.9-.6.8-.2 0-.4-.5-.3-1s.4-.9.6-.8c.2 0 .4.5.3 1Z"/><path class="cls-3" d="M143.3 690.3c0 .5-.4.9-.6.8-.2 0-.4-.5-.3-1 0-.5.4-.9.6-.8.2 0 .4.5.3 1ZM144.8 689.5c0 .5-.4.9-.6.8s-.4-.5-.3-1 .4-.9.6-.8c.2 0 .4.5.3 1Z"/><path class="cls-3" d="M144.6 690.6c0 .5-.4.9-.6.8-.2 0-.4-.5-.3-1s.4-.9.6-.8c.2 0 .4.5.3 1ZM146.1 689.7c0 .5-.4.9-.6.8-.2 0-.4-.5-.3-1 0-.5.4-.9.6-.8.2 0 .4.5.3 1Z"/><path class="cls-3" d="M145.9 690.8c0 .5-.4.9-.6.8-.2 0-.4-.5-.3-1 0-.5.4-.9.6-.8.2 0 .4.5.3 1ZM147.3 689.9c0 .5-.3.9-.6.8s-.4-.5-.3-1c0-.5.3-.9.6-.8s.4.5.3 1Z"/><path class="cls-3" d="M147.2 691c0 .5-.3.9-.6.8s-.4-.5-.3-1c0-.5.4-.9.6-.8.2 0 .4.5.3 1ZM148.6 690.1c0 .5-.3.9-.6.8s-.4-.5-.3-1c0-.5.3-.9.6-.8s.4.5.3 1Z"/><path class="cls-3" d="M148.4 691.2c0 .5-.3.9-.6.8s-.4-.5-.3-1c0-.5.3-.9.6-.8s.4.5.3 1ZM149.9 690.3c0 .5-.3.9-.6.8s-.4-.5-.3-1c0-.5.3-.9.6-.8s.4.5.3 1Z"/><path class="cls-3" d="M149.7 691.4c0 .5-.3.9-.6.8s-.4-.5-.3-1c0-.5.3-.9.6-.8s.4.5.3 1ZM151.1 690.5c0 .5-.3.9-.6.8-.2 0-.4-.5-.3-1 0-.5.3-.9.6-.8.2 0 .4.5.3 1Z"/><path class="cls-3" d="M151 691.6c0 .5-.3.9-.6.8s-.4-.5-.3-1c0-.5.3-.9.6-.8s.4.5.3 1ZM152.4 690.7c0 .5-.3.9-.6.8-.2 0-.4-.5-.3-1s.3-.9.6-.8c.2 0 .4.5.3 1Z"/><path class="cls-3" d="M152.3 691.8c0 .5-.3.9-.6.8-.2 0-.4-.5-.3-1 0-.5.3-.9.6-.8.2 0 .4.5.3 1ZM153.7 690.9c0 .5-.3.9-.6.8s-.4-.5-.3-1c0-.5.3-.9.6-.8.2 0 .4.5.3 1Z"/><path class="cls-3" d="M153.5 692c0 .5-.3.9-.6.8-.2 0-.4-.5-.3-1 0-.5.3-.9.6-.8.2 0 .4.5.3 1ZM155 691.1c0 .5-.3.9-.6.8s-.4-.5-.3-1c0-.5.3-.9.6-.8s.4.5.3 1Z"/><path class="cls-3" d="M154.8 692.2c0 .5-.3.9-.6.8s-.4-.5-.3-1c0-.5.3-.9.6-.8s.4.5.3 1ZM156.2 691.3c0 .5-.3.9-.6.8s-.4-.5-.3-1c0-.5.3-.9.6-.8s.4.5.3 1Z"/><path class="cls-3" d="M156.1 692.4c0 .5-.3.9-.6.8s-.4-.5-.3-1c0-.5.3-.9.6-.8s.4.5.3 1ZM157.5 691.5c0 .5-.3.9-.6.8-.2 0-.4-.5-.3-1 0-.5.3-.9.6-.8.2 0 .4.5.3 1Z"/><path class="cls-3" d="M157.4 692.5c0 .5-.3.9-.6.8-.2 0-.4-.5-.3-1 0-.5.3-.9.6-.8.2 0 .4.5.3 1ZM158.8 691.7c0 .5-.3.9-.6.8-.2 0-.4-.5-.3-1s.3-.9.6-.8c.2 0 .4.5.3 1Z"/><path class="cls-3" d="M158.6 692.7c0 .5-.3.9-.6.8-.2 0-.4-.5-.3-1 0-.5.3-.9.6-.8.2 0 .4.5.3 1ZM160.1 691.8c0 .5-.3.9-.6.8-.2 0-.4-.5-.3-1 0-.5.3-.9.6-.8.2 0 .4.5.3 1Z"/><path class="cls-3" d="M159.9 692.9c0 .5-.3.9-.6.8-.2 0-.4-.5-.3-1 0-.5.3-.9.6-.8.2 0 .4.5.3 1ZM161.3 692c0 .5-.3.9-.6.8-.2 0-.4-.5-.3-1 0-.5.3-.9.6-.8.2 0 .4.5.3 1Z"/><path class="cls-3" d="M161.2 693.1c0 .5-.3.9-.6.8-.2 0-.4-.5-.3-1 0-.5.3-.9.6-.8.2 0 .4.5.3 1ZM162.6 692.2c0 .5-.3.9-.6.8-.2 0-.4-.5-.3-1 0-.5.3-.9.6-.8.2 0 .4.5.3 1Z"/><path class="cls-3" d="M162.5 693.2c0 .5-.3.9-.6.8-.2 0-.4-.5-.3-1 0-.5.3-.9.6-.8.2 0 .4.5.3 1ZM163.9 692.4c0 .5-.3.9-.6.8-.2 0-.4-.5-.3-1 0-.5.3-.9.6-.8.2 0 .4.5.3 1Z"/><path class="cls-3" d="M163.7 693.4c0 .5-.3.9-.6.8-.2 0-.4-.5-.3-1s.3-.9.6-.8c.2 0 .4.5.3 1ZM165.2 692.5c0 .5-.3.9-.6.8-.2 0-.4-.5-.3-1 0-.5.3-.9.6-.8.2 0 .4.5.3 1Z"/><path class="cls-3" d="M165 693.6c0 .5-.3.9-.6.8-.2 0-.4-.5-.3-1 0-.5.3-.9.6-.8.2 0 .4.5.3 1ZM166.4 692.7c0 .5-.3.9-.6.8s-.4-.5-.3-1c0-.5.3-.9.6-.8.2 0 .4.5.3 1Z"/><path class="cls-3" d="M166.3 693.8c0 .5-.3.9-.6.8-.2 0-.4-.5-.3-1 0-.5.3-.9.6-.8.2 0 .4.5.3 1ZM167.7 692.9c0 .5-.3.9-.6.8-.2 0-.4-.5-.3-1 0-.5.3-.9.6-.8.2 0 .4.5.3 1Z"/><path class="cls-3" d="M167.6 693.9c0 .5-.3.9-.6.8-.2 0-.4-.5-.3-1 0-.5.3-.9.6-.8.2 0 .4.5.3 1ZM169 693c0 .5-.3.9-.6.8-.2 0-.4-.5-.3-1 0-.5.3-.9.6-.8.2 0 .4.5.3 1Z"/><path class="cls-3" d="M168.9 694.1c0 .5-.3.9-.6.8-.2 0-.4-.5-.3-1 0-.5.3-.9.6-.8.2 0 .4.5.3 1ZM170.3 693.2c0 .5-.3.9-.6.8-.2 0-.4-.5-.3-1 0-.5.3-.9.6-.8.2 0 .4.5.3 1Z"/><path class="cls-3" d="M170.1 694.3c0 .5-.3.9-.6.8-.2 0-.4-.5-.3-1 0-.5.3-.9.6-.8.2 0 .4.5.3 1ZM171.6 693.3c0 .5-.3.9-.6.8-.2 0-.4-.5-.3-1 0-.5.3-.9.6-.8.2 0 .4.5.3 1Z"/><path class="cls-3" d="M171.4 694.4c0 .5-.3.9-.6.8-.2 0-.4-.5-.3-1 0-.5.3-.9.6-.8.2 0 .4.5.3 1ZM172.8 693.5c0 .5-.3.9-.6.8-.2 0-.4-.5-.3-1 0-.5.3-.9.6-.8.2 0 .4.5.3 1Z"/><path class="cls-3" d="M172.7 694.6c0 .5-.3.9-.6.8-.2 0-.4-.5-.3-1 0-.5.3-.9.6-.8.2 0 .4.5.3 1ZM174.1 693.7c0 .5-.3.9-.6.8-.2 0-.4-.5-.3-1s.3-.9.6-.8c.2 0 .4.5.3 1Z"/><path class="cls-3" d="M174 694.7c0 .5-.3.9-.6.8-.2 0-.4-.5-.3-1 0-.5.3-.9.6-.8s.4.5.3 1ZM175.4 693.8c0 .5-.3.9-.6.8-.2 0-.4-.5-.3-1 0-.5.3-.9.6-.8.2 0 .4.5.3 1Z"/><path class="cls-3" d="M175.3 694.9c0 .5-.3.9-.6.8-.2 0-.4-.5-.3-1 0-.5.3-.9.6-.8.2 0 .4.5.3 1ZM176.7 694c0 .5-.3.9-.6.8s-.4-.5-.3-1c0-.5.3-.9.6-.8.2 0 .4.5.3 1Z"/><path class="cls-3" d="M176.5 695c0 .5-.3.9-.6.8-.2 0-.4-.5-.3-1s.3-.9.6-.8.4.5.3 1ZM177.9 694.1c0 .5-.3.9-.6.8-.2 0-.4-.5-.4-1s.3-.9.6-.8c.2 0 .4.5.4 1Z"/><path class="cls-3" d="M177.8 695.2c0 .5-.3.9-.6.8-.2 0-.4-.5-.4-1s.3-.9.6-.8c.2 0 .4.5.4 1ZM179.2 694.3c0 .5-.3.9-.6.8-.2 0-.4-.5-.4-1s.3-.9.6-.8c.2 0 .4.5.4 1Z"/><path class="cls-3" d="M179.1 695.3c0 .5-.3.9-.6.8-.2 0-.4-.5-.4-1s.3-.9.6-.8c.2 0 .4.5.4 1ZM180.5 694.4c0 .5-.3.9-.6.8s-.4-.5-.4-1 .3-.9.6-.8c.2 0 .4.5.4 1Z"/><path class="cls-3" d="M180.4 695.5c0 .5-.3.9-.6.8s-.4-.5-.4-1 .3-.9.6-.8c.2 0 .4.5.4 1ZM181.8 694.5c0 .5-.3.9-.6.8s-.4-.5-.4-.9c0-.5.3-.9.6-.8.2 0 .4.5.4.9Z"/><path class="cls-3" d="M181.7 695.6c0 .5-.3.9-.6.8-.2 0-.4-.5-.4-.9 0-.5.3-.9.6-.8.2 0 .4.5.4.9ZM183.1 694.7c0 .5-.3.9-.5.8-.2 0-.4-.5-.4-.9 0-.5.3-.9.5-.8.2 0 .4.5.4.9Z"/><path class="cls-3" d="M183 695.7c0 .5-.3.9-.5.8-.2 0-.4-.5-.4-.9 0-.5.3-.9.5-.8.2 0 .4.5.4.9ZM184.3 694.8c0 .5-.3.9-.5.8s-.4-.5-.4-.9c0-.5.3-.9.5-.8.2 0 .4.5.4.9Z"/><path class="cls-3" d="M184.2 695.9c0 .5-.3.9-.5.8s-.4-.5-.4-.9c0-.5.3-.9.5-.8.2 0 .4.5.4.9ZM185.6 694.9c0 .5-.3.9-.5.8-.2 0-.4-.5-.4-.9 0-.5.3-.9.5-.8.2 0 .4.5.4.9Z"/><path class="cls-3" d="M185.5 696c0 .5-.3.9-.5.8s-.4-.5-.4-.9c0-.5.3-.9.5-.8.2 0 .4.5.4.9ZM186.9 695.1c0 .5-.3.9-.5.8-.2 0-.4-.5-.4-.9 0-.5.3-.9.5-.8.2 0 .4.5.4.9Z"/><path class="cls-3" d="M186.8 696.1c0 .5-.3.9-.5.8-.2 0-.4-.5-.4-.9 0-.5.3-.9.5-.8.2 0 .4.5.4.9ZM188.2 695.2c0 .5-.3.9-.5.8-.2 0-.4-.5-.4-.9 0-.5.3-.9.5-.8.2 0 .4.5.4.9Z"/><path class="cls-3" d="M188.1 696.2c0 .5-.3.9-.5.8-.2 0-.4-.5-.4-.9 0-.5.3-.9.5-.8.2 0 .4.5.4.9ZM189.5 695.3c0 .5-.3.9-.5.8-.2 0-.4-.5-.4-.9 0-.5.3-.9.5-.8.2 0 .4.5.4.9Z"/><path class="cls-3" d="M189.4 696.4c0 .5-.3.9-.5.8s-.4-.5-.4-.9c0-.5.3-.9.5-.8.2 0 .4.5.4.9ZM190.8 695.4c0 .5-.3.9-.5.8-.2 0-.4-.5-.4-.9 0-.5.3-.9.5-.8.2 0 .4.5.4.9Z"/><path class="cls-3" d="M190.7 696.5c0 .5-.3.9-.5.8-.2 0-.4-.5-.4-.9 0-.5.3-.9.5-.8.2 0 .4.5.4.9ZM192 695.6c0 .5-.3.9-.5.8-.2 0-.4-.5-.4-.9 0-.5.3-.9.5-.8.2 0 .4.5.4.9Z"/><path class="cls-3" d="M191.9 696.6c0 .5-.3.9-.5.8-.2 0-.4-.5-.4-.9 0-.5.3-.9.5-.8.2 0 .4.5.4.9ZM193.3 695.7c0 .5-.3.9-.5.9s-.4-.5-.4-.9c0-.5.3-.9.5-.8s.4.4.4.9Z"/><path class="cls-3" d="M193.2 696.8c0 .5-.3.9-.5.9s-.4-.5-.4-.9c0-.5.3-.9.5-.8s.4.4.4.9ZM194.6 695.8c0 .5-.3.9-.5.9s-.4-.4-.4-.9.3-.9.5-.9.4.4.4.9Z"/><path class="cls-3" d="M194.5 696.9c0 .5-.3.9-.5.9s-.4-.4-.4-.9.3-.9.5-.9.4.4.4.9ZM195.9 695.9c0 .5-.3.9-.5.9s-.4-.4-.4-.9.3-.9.5-.9.4.4.4.9Z"/><path class="cls-3" d="M195.8 697c0 .5-.3.9-.5.9s-.4-.4-.4-.9.3-.9.5-.9.4.4.4.9ZM197.2 696c0 .5-.3.9-.5.9s-.4-.4-.4-.9.3-.9.5-.9.4.4.4.9Z"/><path class="cls-3" d="M197.1 697.1c0 .5-.3.9-.5.9s-.4-.4-.4-.9.3-.9.5-.9.4.4.4.9ZM198.5 696.1c0 .5-.3.9-.5.9s-.4-.4-.4-.9.3-.9.5-.9.4.4.4.9Z"/><path class="cls-3" d="M198.4 697.2c0 .5-.3.9-.5.9s-.4-.4-.4-.9.3-.9.5-.9.4.4.4.9ZM199.7 696.2c0 .5-.3.9-.5.9s-.4-.4-.4-.9.3-.9.5-.9.4.4.4.9Z"/><path class="cls-3" d="M199.7 697.3c0 .5-.3.9-.5.9s-.4-.4-.4-.9.3-.9.5-.9.4.4.4.9ZM201 696.3c0 .5-.3.9-.5.9s-.4-.4-.4-.9.3-.9.5-.9.4.4.4.9Z"/><path class="cls-3" d="M200.9 697.4c0 .5-.3.9-.5.9s-.4-.4-.4-.9.3-.9.5-.9.4.4.4.9ZM202.3 696.4c0 .5-.3.9-.5.9s-.4-.4-.4-.9.3-.9.5-.9.4.4.4.9Z"/><path class="cls-3" d="M202.2 697.5c0 .5-.3.9-.5.9s-.4-.4-.4-.9.3-.9.5-.9.4.4.4.9ZM203.6 696.5c0 .5-.3.9-.5.9s-.4-.4-.4-.9.3-.9.5-.9.4.4.4.9Z"/><path class="cls-3" d="M203.5 697.6c0 .5-.3.9-.5.9s-.4-.4-.4-.9.3-.9.5-.9.4.4.4.9ZM204.9 696.6c0 .5-.3.9-.5.9s-.4-.4-.4-.9.3-.9.5-.9.4.4.4.9Z"/><path class="cls-3" d="M204.8 697.7c0 .5-.3.9-.5.9s-.4-.4-.4-.9.3-.9.5-.9.4.4.4.9ZM206.2 696.7c0 .5-.3.9-.5.9s-.4-.4-.4-.9.3-.9.5-.9.4.4.4.9Z"/><path class="cls-3" d="M206.1 697.8c0 .5-.3.9-.5.9s-.4-.4-.4-.9.3-.9.5-.9.4.4.4.9ZM207.4 696.8c0 .5-.3.9-.5.9s-.4-.4-.4-.9.3-.9.5-.9.4.4.4.9Z"/><path class="cls-3" d="M207.4 697.9c0 .5-.3.9-.5.9s-.4-.4-.4-.9.3-.9.5-.9.4.4.4.9ZM208.7 696.9c0 .5-.3.9-.5.9s-.4-.4-.4-.9.3-.9.5-.9.4.4.4.9Z"/><path class="cls-3" d="M208.7 698c0 .5-.3.9-.5.9s-.4-.4-.4-.9.3-.9.5-.9.4.4.4.9ZM210 697c0 .5-.3.9-.5.9s-.4-.4-.4-.9.3-.9.5-.9.4.4.4.9Z"/><path class="cls-3" d="M209.9 698c0 .5-.3.9-.5.9s-.4-.4-.4-.9.3-.9.5-.9.4.4.4.9ZM211.3 697c0 .5-.3.9-.5.9s-.4-.4-.4-.9.3-.9.5-.9.4.4.4.9Z"/><path class="cls-3" d="M211.2 698.1c0 .5-.3.9-.5.9s-.4-.4-.4-.9.3-.9.5-.9.4.4.4.9ZM212.6 697.1c0 .5-.3.9-.5.9s-.4-.4-.4-.9.3-.9.5-.9.4.4.4.9Z"/><path class="cls-3" d="M212.5 698.2c0 .5-.3.9-.5.9s-.4-.4-.4-.9.3-.9.5-.9.4.4.4.9ZM213.9 697.2c0 .5-.3.9-.5.9s-.4-.4-.4-.9.3-.9.5-.9.4.4.4.9Z"/><path class="cls-3" d="M213.8 698.3c0 .5-.3.9-.5.9s-.4-.4-.4-.9.3-.9.5-.9.4.4.4.9ZM215.2 697.3c0 .5-.2.9-.5.9-.2 0-.4-.4-.4-.9s.2-.9.5-.9c.2 0 .4.4.4.9Z"/><path class="cls-3" d="M215.1 698.3c0 .5-.2.9-.5.9-.2 0-.4-.4-.4-.9s.3-.9.5-.9.4.4.4.9ZM216.4 697.4c0 .5-.2.9-.5.9-.2 0-.4-.4-.4-.9s.2-.9.5-.9c.2 0 .4.4.4.9Z"/><path class="cls-3" d="M216.4 698.4c0 .5-.2.9-.5.9s-.4-.4-.4-.9.2-.9.5-.9c.2 0 .4.4.4.9ZM217.7 697.4c0 .5-.2.9-.5.9s-.4-.4-.4-.9.2-.9.5-.9c.2 0 .4.4.4.9Z"/><path class="cls-3" d="M217.7 698.5c0 .5-.2.9-.5.9-.2 0-.4-.4-.4-.9s.2-.9.5-.9.4.4.4.9ZM219 697.5c0 .5-.2.9-.5.9-.2 0-.4-.4-.4-.9s.2-.9.5-.9c.2 0 .4.4.4.9Z"/><path class="cls-3" d="M219 698.6c0 .5-.2.9-.5.9-.2 0-.4-.4-.4-.9s.2-.9.5-.9c.2 0 .4.4.4.9ZM220.3 697.6c0 .5-.2.9-.5.9s-.4-.4-.4-.9.2-.9.5-.9c.2 0 .4.4.4.9Z"/><path class="cls-3" d="M220.2 698.7c0 .5-.2.9-.5.9-.2 0-.4-.4-.4-.9s.2-.9.5-.9c.2 0 .4.4.4.9ZM221.6 697.6c0 .5-.2.9-.5.9-.2 0-.4-.4-.4-.9s.2-.9.5-.9c.2 0 .4.4.4.9Z"/><path class="cls-3" d="M221.5 698.7c0 .5-.2.9-.5.9-.2 0-.4-.4-.4-.9s.2-.9.5-.9c.2 0 .4.4.4.9ZM222.9 697.7c0 .5-.2.9-.5.9-.2 0-.4-.4-.4-.9s.2-.9.5-.9c.2 0 .4.4.4.9Z"/><path class="cls-3" d="M222.8 698.8c0 .5-.2.9-.5.9s-.4-.4-.4-.9.2-.9.5-.9c.2 0 .4.4.4.9ZM224.2 697.8c0 .5-.2.9-.5.9-.2 0-.4-.4-.4-.9s.2-.9.5-.9c.2 0 .4.4.4.9Z"/><path class="cls-3" d="M224.1 698.8c0 .5-.2.9-.5.9-.2 0-.4-.4-.4-.9s.2-.9.5-.9c.2 0 .4.4.4.9ZM225.4 697.8c0 .5-.2.9-.5.9-.2 0-.4-.4-.4-.9s.2-.9.5-.9c.2 0 .4.4.4.9Z"/><path class="cls-3" d="M225.4 698.9c0 .5-.2.9-.5.9-.2 0-.4-.4-.4-.9s.2-.9.5-.9c.2 0 .4.4.4.9ZM226.7 697.9c0 .5-.2.9-.5.9-.2 0-.4-.4-.4-.9s.2-.9.5-.9c.2 0 .4.4.4.9Z"/><path class="cls-3" d="M226.7 698.9c0 .5-.2.9-.5.9-.2 0-.4-.4-.4-.9s.2-.9.5-.9c.2 0 .4.4.4.9ZM228 697.9c0 .5-.2.9-.5.9-.2 0-.4-.4-.4-.9s.2-.9.5-.9c.2 0 .4.4.4.9Z"/><path class="cls-3" d="M228 699c0 .5-.2.9-.5.9-.2 0-.4-.4-.4-.9s.2-.9.5-.9c.2 0 .4.4.4.9ZM229.3 698c0 .5-.2.9-.5.9-.2 0-.4-.4-.4-.9s.2-.9.5-.9c.2 0 .4.4.4.9Z"/><path class="cls-3" d="M229.3 699c0 .5-.2.9-.5.9s-.4-.4-.4-.9.2-.9.5-.9c.2 0 .4.4.4.9ZM230.6 698c0 .5-.2.9-.5.9-.2 0-.4-.4-.4-.9s.2-.9.5-.9c.2 0 .4.4.4.9Z"/><path class="cls-3" d="M230.6 699.1c0 .5-.2.9-.5.9-.2 0-.4-.4-.4-.9s.2-.9.5-.9c.2 0 .4.4.4.9ZM231.9 698.1c0 .5-.2.9-.5.9-.2 0-.4-.4-.4-.9s.2-.9.5-.9c.2 0 .4.4.4.9Z"/><path class="cls-3" d="M231.8 699.1c0 .5-.2.9-.5.9-.2 0-.4-.4-.4-.9s.2-.9.5-.9c.2 0 .4.4.4.9ZM233.2 698.1c0 .5-.2.9-.5.9-.2 0-.4-.4-.4-.9s.2-.9.5-.9c.2 0 .4.4.4.9Z"/><path class="cls-3" d="M233.1 699.2c0 .5-.2.9-.5.9-.2 0-.4-.4-.4-.9s.2-.9.5-.9c.2 0 .4.4.4.9ZM234.5 698.2c0 .5-.2.9-.5.9-.2 0-.4-.4-.4-.9s.2-.9.5-.9c.2 0 .4.4.4.9Z"/><path class="cls-3" d="M234.4 699.2c0 .5-.2.9-.5.9-.2 0-.4-.4-.4-.9s.2-.9.5-.9c.2 0 .4.4.4.9ZM235.7 698.2c0 .5-.2.9-.5.9-.2 0-.4-.4-.4-.9s.2-.9.5-.9.4.4.4.9Z"/><path class="cls-3" d="M235.7 699.3c0 .5-.2.9-.5.9-.2 0-.4-.4-.4-.9s.2-.9.5-.9.4.4.4.9ZM237 698.2c0 .5-.2.9-.5.9-.2 0-.4-.4-.4-.9s.2-.9.5-.9c.2 0 .4.4.4.9Z"/><path class="cls-3" d="M237 699.3c0 .5-.2.9-.5.9-.2 0-.4-.4-.4-.9s.2-.9.5-.9c.2 0 .4.4.4.9ZM238.3 698.2c0 .5-.2.9-.5.9-.2 0-.4-.4-.4-.9s.2-.9.5-.9c.2 0 .4.4.4.9Z"/><path class="cls-3" d="M238.3 699.3c0 .5-.2.9-.5.9-.2 0-.4-.4-.4-.9s.2-.9.5-.9c.2 0 .4.4.4.9ZM239.6 698.3c0 .5-.2.9-.5.9-.2 0-.4-.4-.4-.9s.2-.9.5-.9.4.4.4.9Z"/><path class="cls-3" d="M239.6 699.3c0 .5-.2.9-.5.9-.2 0-.4-.4-.4-.9s.2-.9.5-.9c.2 0 .4.4.4.9ZM240.9 698.3c0 .5-.2.9-.5.9-.2 0-.4-.4-.4-.9s.2-.9.5-.9.4.4.4.9Z"/><path class="cls-3" d="M240.9 699.4c0 .5-.2.9-.5.9-.2 0-.4-.4-.4-.9s.2-.9.5-.9c.2 0 .4.4.4.9ZM242.2 698.3c0 .5-.2.9-.5.9-.2 0-.4-.4-.4-.9s.2-.9.5-.9.4.4.4.9Z"/><path class="cls-3" d="M242.2 699.4c0 .5-.2.9-.5.9-.2 0-.4-.4-.4-.9s.2-.9.5-.9c.2 0 .4.4.4.9ZM243.5 698.3c0 .5-.2.9-.5.9-.2 0-.4-.4-.4-.9s.2-.9.5-.9c.2 0 .4.4.4.9Z"/><path class="cls-3" d="M243.5 699.4c0 .5-.2.9-.5.9s-.4-.4-.4-.9.2-.9.5-.9c.2 0 .4.4.4.9ZM244.8 698.4c0 .5-.2.9-.5.9-.2 0-.4-.4-.4-.9s.2-.9.5-.9c.2 0 .4.4.4.9Z"/><path class="cls-3" d="M244.7 699.4c0 .5-.2.9-.5.9-.2 0-.5-.4-.4-.9 0-.5.2-.9.5-.9.2 0 .4.4.4.9ZM246 698.4c0 .5-.2.9-.5.9-.2 0-.5-.4-.4-.9 0-.5.2-.9.5-.9.2 0 .4.4.4.9Z"/><path class="cls-3" d="M246 699.5c0 .5-.2.9-.5.9s-.5-.4-.4-.9c0-.5.2-.9.5-.9s.4.4.4.9ZM247.3 698.4c0 .5-.2.9-.5.9-.2 0-.5-.4-.4-.9 0-.5.2-.9.5-.9.2 0 .4.4.4.9Z"/><path class="cls-3" d="M247.3 699.5c0 .5-.2.9-.5.9-.2 0-.5-.4-.4-.9 0-.5.2-.9.5-.9s.5.4.4.9ZM248.6 698.4c0 .5-.2.9-.5.9-.2 0-.5-.4-.4-.9 0-.5.2-.9.5-.9.2 0 .5.4.4.9Z"/><path class="cls-3" d="M248.6 699.5c0 .5-.2.9-.5.9-.2 0-.5-.4-.4-.9 0-.5.2-.9.5-.9.2 0 .5.4.4.9ZM249.9 698.5c0 .5-.2.9-.5.9-.2 0-.5-.4-.4-.9 0-.5.2-.9.5-.9.2 0 .5.4.4.9Z"/><path class="cls-3" d="M249.9 699.5c0 .5-.2.9-.5.9-.2 0-.5-.4-.4-.9 0-.5.2-.9.5-.9.2 0 .5.4.4.9ZM251.2 698.5c0 .5-.2.9-.5.9s-.5-.4-.4-.9c0-.5.2-.9.5-.9s.5.4.4.9Z"/><path class="cls-3" d="M251.2 699.5c0 .5-.2.9-.5.9s-.5-.4-.5-.9.2-.9.5-.9.5.4.5.9ZM252.5 698.5c0 .5-.2.9-.5.9s-.5-.4-.5-.9.2-.9.5-.9.5.4.5.9Z"/><path class="cls-3" d="M252.5 699.5c0 .5-.2.9-.5.9s-.5-.4-.5-.9.2-.9.5-.9.5.4.5.9ZM253.8 698.5c0 .5-.2.9-.5.9s-.5-.4-.5-.9.2-.9.5-.9.5.4.5.9Z"/><path class="cls-3" d="M253.8 699.5c0 .5-.2.9-.5.9s-.5-.4-.5-.9.2-.9.5-.9.5.4.5.9ZM255.1 698.4c0 .5-.2.9-.5.9s-.5-.4-.5-.9.2-.9.5-.9.5.4.5.9Z"/><path class="cls-3" d="M255.1 699.5c0 .5-.2.9-.5.9s-.5-.4-.5-.9.2-.9.5-.9.5.4.5.9ZM256.3 698.4c0 .5-.2.9-.5.9s-.5-.4-.5-.9.2-.9.5-.9.5.4.5.9Z"/><path class="cls-3" d="M256.4 699.5c0 .5-.2.9-.5.9s-.5-.4-.5-.9.2-.9.5-.9.5.4.5.9ZM257.6 698.4c0 .5-.2.9-.5.9s-.5-.4-.5-.9.2-.9.5-.9.5.4.5.9Z"/><path class="cls-3" d="M257.6 699.5c0 .5-.2.9-.5.9s-.5-.4-.5-.9.2-.9.5-.9.5.4.5.9ZM258.9 698.4c0 .5-.2.9-.5.9s-.5-.4-.5-.9.2-.9.5-.9.5.4.5.9Z"/><path class="cls-3" d="M258.9 699.5c0 .5-.2.9-.5.9s-.5-.4-.5-.9.2-.9.5-.9.5.4.5.9ZM260.2 698.4c0 .5-.2.9-.5.9s-.5-.4-.5-.9.2-.9.5-.9.5.4.5.9Z"/><path class="cls-3" d="M260.2 699.5c0 .5-.2.9-.5.9s-.5-.4-.5-.9.2-.9.5-.9.5.4.5.9ZM261.5 698.4c0 .5-.2.9-.4.9s-.5-.4-.5-.9.2-.9.4-.9.5.4.5.9Z"/><path class="cls-3" d="M261.5 699.5c0 .5-.2.9-.4.9s-.5-.4-.5-.9.2-.9.4-.9.5.4.5.9ZM262.8 698.4c0 .5-.2.9-.4.9s-.5-.4-.5-.9.2-.9.4-.9.5.4.5.9Z"/><path class="cls-3" d="M262.8 699.5c0 .5-.2.9-.4.9s-.5-.4-.5-.9.2-.9.4-.9.5.4.5.9ZM264.1 698.4c0 .5-.2.9-.4.9s-.5-.4-.5-.9.2-.9.4-.9.5.4.5.9Z"/><path class="cls-3" d="M264.1 699.5c0 .5-.2.9-.4.9s-.5-.4-.5-.9.2-.9.4-.9.5.4.5.9ZM265.4 698.4c0 .5-.2.9-.4.9s-.5-.4-.5-.9.2-.9.4-.9.5.4.5.9Z"/><path class="cls-3" d="M265.4 699.5c0 .5-.2.9-.4.9s-.5-.4-.5-.9.2-.9.4-.9.5.4.5.9ZM266.7 698.4c0 .5-.2.9-.4.9s-.5-.4-.5-.9.2-.9.4-.9.5.4.5.9Z"/><path class="cls-3" d="M266.7 699.5c0 .5-.2.9-.4.9s-.5-.4-.5-.9.2-.9.4-.9.5.4.5.9ZM267.9 698.4c0 .5-.2.9-.4.9s-.5-.4-.5-.9.2-.9.4-.9.5.4.5.9Z"/><path class="cls-3" d="M268 699.4c0 .5-.2.9-.4.9s-.5-.4-.5-.9.2-.9.4-.9.5.4.5.9ZM269.2 698.3c0 .5-.2.9-.4.9s-.5-.4-.5-.9.2-.9.4-.9.5.4.5.9Z"/><path class="cls-3" d="M269.2 699.4c0 .5-.2.9-.4.9s-.5-.4-.5-.9.2-.9.4-.9.5.4.5.9ZM270.5 698.3c0 .5-.2.9-.4.9s-.5-.4-.5-.9.2-.9.4-.9.5.4.5.9Z"/><path class="cls-3" d="M270.5 699.4c0 .5-.2.9-.4.9s-.5-.4-.5-.9.2-.9.4-.9.5.4.5.9ZM271.8 698.3c0 .5-.2.9-.4.9s-.5-.4-.5-.9.2-.9.4-.9.5.4.5.9Z"/><path class="cls-3" d="M271.8 699.3c0 .5-.2.9-.4.9s-.5-.4-.5-.9.2-.9.4-.9.5.4.5.9ZM273.1 698.2c0 .5-.2.9-.4.9s-.5-.4-.5-.9.2-.9.4-.9.5.4.5.9Z"/><path class="cls-3" d="M273.1 699.3c0 .5-.2.9-.4.9s-.5-.4-.5-.9.2-.9.4-.9.5.4.5.9ZM274.4 698.2c0 .5-.2.9-.4.9s-.5-.4-.5-.9.2-.9.4-.9.5.4.5.9Z"/><path class="cls-3" d="M274.4 699.3c0 .5-.2.9-.4.9s-.5-.4-.5-.9.2-.9.4-.9.5.4.5.9ZM275.7 698.2c0 .5-.2.9-.4.9s-.5-.4-.5-.9.2-.9.4-.9.5.4.5.9Z"/><path class="cls-3" d="M275.7 699.2c0 .5-.2.9-.4.9s-.5-.4-.5-.9.2-.9.4-.9.5.4.5.9ZM277 698.1c0 .5-.2.9-.4.9s-.5-.4-.5-.9.2-.9.4-.9.5.4.5.9Z"/><path class="cls-3" d="M277 699.2c0 .5-.2.9-.4.9s-.5-.4-.5-.9.2-.9.4-.9.5.4.5.9ZM278.2 698.1c0 .5-.2.9-.4.9s-.5-.4-.5-.9.2-.9.4-.9.5.4.5.9Z"/><path class="cls-3" d="M278.3 699.2c0 .5-.2.9-.4.9s-.5-.4-.5-.9.2-.9.4-.9.5.4.5.9ZM279.5 698.1c0 .5-.2.9-.4.9s-.5-.4-.5-.9.2-.9.4-.9.5.4.5.9Z"/><path class="cls-3" d="M279.6 699.1c0 .5-.2.9-.4.9s-.5-.4-.5-.9.2-.9.4-.9.5.4.5.9ZM280.8 698c0 .5-.2.9-.4.9s-.5-.4-.5-.9.2-.9.4-.9.5.4.5.9Z"/><path class="cls-3" d="M280.9 699.1c0 .5-.2.9-.4.9s-.5-.4-.5-.9.2-.9.4-.9.5.4.5.9ZM282.1 698c0 .5-.2.9-.4.9s-.5-.4-.5-.9.2-.9.4-.9.5.4.5.9Z"/><path class="cls-3" d="M282.1 699.1c0 .5-.2.9-.4.9s-.5-.4-.5-.9.2-.9.4-.9.5.4.5.9ZM283.4 697.9c0 .5-.2.9-.4.9s-.5-.4-.5-.9.2-.9.4-.9.5.4.5.9Z"/><path class="cls-3" d="M283.4 699c0 .5-.2.9-.4.9s-.5-.4-.5-.9.2-.9.4-.9.5.4.5.9ZM284.7 697.9c0 .5-.2.9-.4.9s-.5-.4-.5-.9.2-.9.4-.9.5.4.5.9Z"/><path class="cls-3" d="M284.7 698.9c0 .5-.2.9-.4.9s-.5-.4-.5-.9.2-.9.4-.9.5.4.5.9ZM286 697.8c0 .5-.2.9-.4.9s-.5-.4-.5-.9.2-.9.4-.9.5.4.5.9Z"/><path class="cls-3" d="M286 698.9c0 .5-.2.9-.4.9s-.5-.4-.5-.9.2-.9.4-.9.5.4.5.9ZM287.2 697.7c0 .5-.2.9-.4.9s-.5-.4-.5-.9.2-.9.4-.9.5.4.5.9Z"/><path class="cls-3" d="M287.3 698.8c0 .5-.2.9-.4.9s-.5-.4-.5-.9.2-.9.4-.9.5.4.5.9ZM288.5 697.7c0 .5-.2.9-.4.9s-.5-.4-.5-.9.2-.9.4-.9.5.4.5.9Z"/><path class="cls-3" d="M288.6 698.7c0 .5-.2.9-.4.9s-.5-.4-.5-.9.2-.9.4-.9.5.4.5.9ZM289.8 697.6c0 .5-.2.9-.4.9s-.5-.4-.5-.9.2-.9.4-.9.5.4.5.9Z"/><path class="cls-3" d="M289.9 698.7c0 .5-.2.9-.4.9s-.5-.4-.5-.9.2-.9.4-.9.5.4.5.9ZM291.1 697.5c0 .5-.2.9-.4.9s-.5-.4-.5-.9.2-.9.4-.9.5.4.5.9Z"/><path class="cls-3" d="M291.2 698.6c0 .5-.2.9-.4.9s-.5-.4-.5-.9.2-.9.4-.9.5.4.5.9ZM292.4 697.5c0 .5-.1.9-.4.9s-.5-.4-.5-.9.2-.9.4-.9.5.4.5.9Z"/><path class="cls-3" d="M292.5 698.5c0 .5-.1.9-.4.9s-.5-.4-.5-.9.2-.9.4-.9.5.4.5.9ZM293.7 697.4c0 .5-.1.9-.4.9s-.5-.4-.5-.9.1-.9.4-.9.5.4.5.9Z"/><path class="cls-3" d="M293.7 698.5c0 .5-.1.9-.4.9s-.5-.4-.5-.9.1-.9.4-.9.5.4.5.9ZM295 697.3c0 .5-.1.9-.4.9s-.5-.4-.5-.9.1-.9.4-.9.5.4.5.9Z"/><path class="cls-3" d="M295 698.4c0 .5-.1.9-.4.9s-.5-.4-.5-.9.1-.9.4-.9.5.4.5.9ZM296.3 697.3c0 .5-.1.9-.4.9s-.5-.4-.5-.9.1-.9.4-.9.5.4.5.9Z"/><path class="cls-3" d="M296.3 698.3c0 .5-.1.9-.4.9s-.5-.4-.5-.9.1-.9.4-.9.5.4.5.9ZM297.5 697.2c0 .5-.1.9-.4.9s-.5-.4-.5-.9.1-.9.4-.9.5.4.5.9Z"/><path class="cls-3" d="M297.6 698.3c0 .5-.1.9-.4.9s-.5-.4-.5-.9.1-.9.4-.9.5.4.5.9ZM298.8 697.2c0 .5-.1.9-.4.9s-.5-.4-.5-.9.1-.9.4-.9.5.4.5.9Z"/><path class="cls-3" d="M298.9 698.2c0 .5-.1.9-.4.9s-.5-.4-.5-.9.1-.9.4-.9.5.4.5.9ZM300.1 697.1c0 .5-.1.9-.4.9-.2 0-.5-.4-.5-.9s.1-.9.4-.9c.2 0 .5.4.5.9Z"/><path class="cls-3" d="M300.2 698.1c0 .5-.1.9-.4.9-.2 0-.5-.4-.5-.9s.1-.9.4-.9c.2 0 .5.4.5.9ZM301.4 697c0 .5-.1.9-.4.9-.2 0-.5-.4-.5-.9s.1-.9.4-.9c.2 0 .5.4.5.9Z"/><path class="cls-3" d="M301.5 698c0 .5-.1.9-.4.9-.2 0-.5-.4-.5-.9s.1-.9.4-.9c.2 0 .5.4.5.9ZM302.7 696.9c0 .5-.1.9-.4.9s-.5-.4-.5-.9.1-.9.4-.9c.2 0 .5.4.5.9Z"/><path class="cls-3" d="M302.8 697.9c0 .5-.1.9-.4.9-.2 0-.5-.4-.5-.9s.1-.9.4-.9c.2 0 .5.4.5.9ZM304 696.8c0 .5-.1.9-.4.9-.2 0-.5-.4-.5-.9s.1-.9.4-.9c.2 0 .5.4.5.9Z"/><path class="cls-3" d="M304 697.8c0 .5-.1.9-.4.9-.2 0-.5-.4-.5-.9s.1-.9.4-.9c.2 0 .5.4.5.9ZM305.2 696.7c0 .5-.1.9-.4.9-.2 0-.5-.4-.5-.9s.1-.9.4-.9c.2 0 .5.4.5.9Z"/><path class="cls-3" d="M305.3 697.7c0 .5-.1.9-.4.9-.2 0-.5-.4-.5-.9s.1-.9.4-.9c.2 0 .5.4.5.9ZM306.5 696.6c0 .5-.1.9-.4.9-.2 0-.5-.4-.5-.9s.1-.9.4-.9c.2 0 .5.4.5.9Z"/><path class="cls-3" d="M306.6 697.7c0 .5-.1.9-.4.9-.2 0-.5-.4-.5-.9s.1-.9.4-.9c.2 0 .5.4.5.9ZM307.8 696.5c0 .5-.1.9-.4.9-.2 0-.5-.4-.5-.9s.1-.9.4-.9c.2 0 .5.4.5.9Z"/><path class="cls-3" d="M307.9 697.6c0 .5-.1.9-.4.9-.2 0-.5-.4-.5-.9s.1-.9.4-.9c.2 0 .5.4.5.9ZM309.1 696.4c0 .5-.1.9-.4.9s-.5-.4-.5-.9.1-.9.4-.9c.2 0 .5.4.5.9Z"/><path class="cls-3" d="M309.2 697.5c0 .5-.1.9-.4.9-.2 0-.5-.4-.5-.9s.1-.9.4-.9c.2 0 .5.4.5.9ZM310.4 696.3c0 .5-.1.9-.4.9s-.5-.4-.5-.9.1-.9.4-.9c.2 0 .5.4.5.9Z"/><path class="cls-3" d="M310.5 697.4c0 .5-.1.9-.4.9s-.5-.4-.5-.9.1-.9.4-.9.5.4.5.9ZM311.7 696.2c0 .5-.1.9-.4.9s-.5-.4-.5-.9.1-.9.4-.9.5.4.5.9Z"/><path class="cls-3" d="M311.8 697.3c0 .5-.1.9-.4.9s-.5-.4-.5-.9.1-.9.4-.9.5.4.5.9ZM313 696.1c0 .5-.1.9-.4.9s-.5-.4-.5-.9.1-.9.4-.9.5.4.5.9Z"/><path class="cls-3" d="M313 697.2c0 .5-.1.9-.4.9s-.5-.4-.5-.9.1-.9.4-.9.5.4.5.9ZM314.2 696c0 .5-.1.9-.4.9-.2 0-.5-.4-.5-.9s.1-.9.4-.9c.2 0 .5.4.5.9Z"/><path class="cls-3" d="M314.3 697.1c0 .5-.1.9-.4.9s-.5-.4-.5-.9.1-.9.4-.9.5.4.5.9ZM315.5 695.9c0 .5-.1.9-.4.9s-.5-.4-.5-.9.1-.9.4-.9c.2 0 .5.4.5.9Z"/><path class="cls-3" d="M315.6 697c0 .5-.1.9-.4.9s-.5-.4-.5-.9.1-.9.4-.9.5.4.5.9ZM316.8 695.8c0 .5-.1.9-.4.9s-.5-.4-.5-.9.1-.9.4-.9.5.4.5.9Z"/><path class="cls-3" d="M316.9 696.9c0 .5-.1.9-.4.9s-.5-.4-.5-.9.1-.9.4-.9.5.4.5.9ZM318.1 695.7c0 .5-.1.9-.4.9s-.5-.4-.5-.9.1-.9.4-.9.5.4.5.8Z"/><path class="cls-3" d="M318.2 696.7c0 .5-.1.9-.4.9s-.5-.4-.5-.9.1-.9.4-.9.5.4.5.8ZM319.4 695.5c0 .5-.1.9-.4.9s-.5-.4-.5-.9.1-.9.4-.9.5.4.5.8Z"/><path class="cls-3" d="M319.5 696.6c0 .5-.1.9-.4.9s-.5-.4-.5-.8.1-.9.4-.9.5.4.5.8ZM320.7 695.4c0 .5-.1.9-.4.9s-.5-.4-.5-.8c0-.5.1-.9.4-.9s.5.4.5.8Z"/><path class="cls-3" d="M320.8 696.5c0 .5-.1.9-.4.9s-.5-.4-.5-.8c0-.5.1-.9.4-.9s.5.4.5.8ZM321.9 695.3c0 .5-.1.9-.4.9-.2 0-.5-.4-.5-.8 0-.5.1-.9.4-.9.2 0 .5.4.5.8Z"/><path class="cls-3" d="M322 696.4c0 .5-.1.9-.4.9-.2 0-.5-.4-.5-.8 0-.5.1-.9.4-.9.2 0 .5.4.5.8ZM323.2 695.2c0 .5-.1.9-.4.9s-.5-.4-.5-.8c0-.5.1-.9.4-.9s.5.4.5.8Z"/><path class="cls-3" d="M323.3 696.2c0 .5-.1.9-.4.9s-.5-.4-.5-.8c0-.5.1-.9.4-.9.2 0 .5.4.5.8ZM324.5 695c0 .5-.1.9-.4.9s-.5-.4-.5-.8c0-.5.1-.9.4-.9s.5.4.5.8Z"/><path class="cls-3" d="M324.6 696.1c0 .5-.1.9-.4.9s-.5-.4-.5-.8c0-.5.1-.9.4-.9s.5.4.5.8ZM325.8 694.9c0 .5-.1.9-.4.9s-.5-.4-.5-.8c0-.5.1-.9.4-.9s.5.4.5.8Z"/><path class="cls-3" d="M325.9 696c0 .5-.1.9-.4.9s-.5-.4-.5-.8c0-.5.1-.9.4-.9s.5.4.5.8ZM327.1 694.8c0 .5-.1.9-.4.9s-.5-.4-.5-.8c0-.5.1-.9.4-.9s.5.4.5.8Z"/><path class="cls-3" d="M327.2 695.9c0 .5-.1.9-.4.9s-.5-.4-.5-.8.1-.9.4-.9.5.4.5.8ZM328.3 694.7c0 .5-.1.9-.4.9s-.5-.4-.5-.8c0-.5.1-.9.4-.9s.5.4.5.8Z"/><path class="cls-3" d="M328.5 695.7c0 .5-.1.9-.4.9s-.5-.4-.5-.8c0-.5.1-.9.4-.9s.5.4.5.8ZM329.6 694.5c0 .5-.1.9-.4.9-.2 0-.5-.4-.5-.8 0-.5.1-.9.4-.9.2 0 .5.4.5.8Z"/><path class="cls-3" d="M329.7 695.6c0 .5-.1.9-.4.9-.2 0-.5-.4-.5-.8 0-.5.1-.9.4-.9.2 0 .5.4.5.8ZM330.9 694.4c0 .5-.1.9-.4.9s-.5-.4-.5-.8c0-.5.1-.9.4-.9.2 0 .5.4.5.8Z"/><path class="cls-3" d="M331 695.5c0 .5-.1.9-.4.9s-.5-.4-.5-.8c0-.5.1-.9.4-.9.2 0 .5.4.5.8ZM332.2 694.3c0 .5-.1.9-.4.9s-.5-.4-.5-.8.1-.9.4-.9.5.4.5.8Z"/><path class="cls-3" d="M332.3 695.3c0 .5-.1.9-.4.9s-.5-.4-.5-.8c0-.5.1-.9.4-.9s.5.4.5.8ZM333.5 694.2c0 .5-.1.9-.4.9s-.5-.4-.5-.8c0-.5.1-.9.4-.9s.5.4.5.8Z"/><path class="cls-3" d="M333.6 695.2c0 .5-.1.9-.4.9s-.5-.4-.5-.8c0-.5.1-.9.4-.9s.5.4.5.8ZM334.7 694c0 .5-.1.9-.4 1s-.5-.3-.5-.8.1-.9.4-1 .5.3.5.8Z"/><path class="cls-3" d="M334.9 695.1c0 .5-.1.9-.4 1s-.5-.3-.5-.8.1-.9.4-1 .5.3.5.8ZM336 693.8c0 .5-.1.9-.3 1-.2 0-.5-.3-.5-.8s.1-.9.3-1c.2 0 .5.3.5.8Z"/><path class="cls-3" d="M336.2 694.9c0 .5-.1.9-.4 1s-.5-.3-.5-.8.1-.9.4-1 .5.3.5.8ZM337.3 693.7c0 .5-.1.9-.3 1-.2 0-.5-.3-.5-.8s.1-.9.3-1c.2 0 .5.3.5.8Z"/><path class="cls-3" d="M337.4 694.7c0 .5-.1.9-.3 1-.2 0-.5-.3-.5-.8s.1-.9.3-1c.2 0 .5.3.5.8ZM338.6 693.5c0 .5 0 .9-.3 1s-.5-.3-.5-.8 0-.9.3-1 .5.3.5.8Z"/><path class="cls-3" d="M338.7 694.6c0 .5 0 .9-.3 1s-.5-.3-.5-.8.1-.9.3-1c.2 0 .5.3.5.8ZM339.9 693.4c0 .5 0 .9-.3 1s-.5-.3-.5-.8 0-.9.3-1 .5.3.5.8Z"/><path class="cls-3" d="M340 694.4c0 .5 0 .9-.3 1s-.5-.3-.6-.8c0-.5 0-.9.3-1s.5.3.6.8ZM341.1 693.2c0 .5 0 .9-.3 1s-.5-.3-.6-.8c0-.5 0-.9.3-1s.5.3.6.8Z"/><path class="cls-3" d="M341.3 694.3c0 .5 0 .9-.3 1s-.5-.3-.6-.8c0-.5 0-.9.3-1s.5.3.6.8ZM342.4 693c0 .5 0 .9-.3 1s-.5-.3-.6-.8c0-.5 0-.9.3-1s.5.3.6.8Z"/><path class="cls-3" d="M342.6 694.1c0 .5 0 .9-.3 1s-.5-.3-.6-.8c0-.5 0-.9.3-1s.5.3.6.8ZM343.7 692.9c0 .5 0 .9-.3 1-.2 0-.5-.3-.6-.8s0-.9.3-1c.2 0 .5.3.6.8Z"/><path class="cls-3" d="M343.8 693.9c0 .5 0 .9-.3 1s-.5-.3-.6-.8c0-.5 0-.9.3-1s.5.3.6.8ZM345 692.7c0 .5 0 .9-.3 1-.2 0-.5-.3-.6-.8 0-.5 0-.9.3-1 .2 0 .5.3.6.8Z"/><path class="cls-3" d="M345.1 693.8c0 .5 0 .9-.3 1s-.5-.3-.6-.8c0-.5 0-.9.3-1 .2 0 .5.3.6.8ZM346.3 692.6c0 .5 0 .9-.3 1s-.5-.3-.6-.8c0-.5 0-.9.3-1s.5.3.6.8Z"/><path class="cls-3" d="M346.4 693.6c0 .5 0 .9-.3 1s-.5-.3-.6-.8c0-.5 0-.9.3-1 .2 0 .5.3.6.8ZM347.5 692.4c0 .5 0 .9-.3 1s-.5-.3-.6-.8c0-.5 0-.9.3-1s.5.3.6.8Z"/><path class="cls-3" d="M347.7 693.5c0 .5 0 .9-.3 1s-.5-.3-.6-.8c0-.5 0-.9.3-1s.5.3.6.8ZM348.8 692.3c0 .5 0 .9-.3 1s-.5-.3-.6-.8c0-.5 0-.9.3-1s.5.3.6.8Z"/><path class="cls-3" d="M349 693.3c0 .5 0 .9-.3 1s-.5-.3-.6-.8c0-.5 0-.9.3-1s.5.3.6.8ZM350.1 692.1c0 .5 0 .9-.3 1s-.5-.3-.6-.8c0-.5 0-.9.3-1s.5.3.6.8Z"/><path class="cls-3" d="M350.2 693.2c0 .5 0 .9-.3 1s-.5-.3-.6-.8c0-.5 0-.9.3-1s.5.3.6.8ZM351.4 691.9c0 .5 0 .9-.3 1-.2 0-.5-.3-.6-.8 0-.5 0-.9.3-1 .2 0 .5.3.6.8Z"/><path class="cls-3" d="M351.5 693c0 .5 0 .9-.3 1s-.5-.3-.6-.8c0-.5 0-.9.3-1s.5.3.6.8ZM352.6 691.7c0 .5 0 .9-.3 1-.2 0-.5-.3-.6-.8 0-.5 0-.9.3-1 .2 0 .5.3.6.8Z"/><path class="cls-3" d="M352.8 692.8c0 .5 0 .9-.3 1-.2 0-.5-.3-.6-.8 0-.5 0-.9.3-1 .2 0 .5.3.6.8ZM353.9 691.5c0 .5 0 .9-.3 1-.2 0-.5-.3-.6-.8 0-.5 0-.9.3-1 .2 0 .5.3.6.8Z"/><path class="cls-3" d="M354.1 692.6c0 .5 0 .9-.3 1-.2 0-.5-.3-.6-.8 0-.5 0-.9.3-1 .2 0 .5.3.6.8ZM355.2 691.4c0 .5 0 .9-.3 1-.2 0-.5-.3-.6-.8 0-.5 0-.9.3-1 .2 0 .5.3.6.8Z"/><path class="cls-3" d="M355.3 692.4c0 .5 0 .9-.3 1-.2 0-.5-.3-.6-.8 0-.5 0-.9.3-1 .2 0 .5.3.6.8ZM356.5 691.2c0 .5 0 .9-.3 1-.2 0-.5-.3-.6-.8 0-.5 0-.9.3-1 .2 0 .5.3.6.8Z"/><path class="cls-3" d="M356.6 692.2c0 .5 0 .9-.3 1-.2 0-.5-.3-.6-.8 0-.5 0-.9.3-1 .2 0 .5.3.6.8ZM357.7 691c0 .5 0 .9-.3 1-.2 0-.5-.3-.6-.8 0-.5 0-.9.3-1 .2 0 .5.3.6.8Z"/><path class="cls-3" d="M357.9 692c0 .5 0 .9-.3 1-.2 0-.5-.3-.6-.8 0-.5 0-.9.3-1 .2 0 .5.3.6.8ZM359 690.8c0 .5 0 .9-.3 1-.2 0-.5-.3-.6-.8 0-.5 0-.9.3-1 .2 0 .5.3.6.8Z"/><path class="cls-3" d="M359.2 691.8c0 .5 0 .9-.3 1-.2 0-.5-.3-.6-.8 0-.5 0-.9.3-1 .2 0 .5.3.6.8ZM360.3 690.6c0 .5 0 .9-.3 1-.2 0-.5-.3-.6-.8 0-.5 0-.9.3-1 .2 0 .5.3.6.8Z"/><path class="cls-3" d="M360.4 691.6c0 .5 0 .9-.3 1-.2 0-.5-.3-.6-.8 0-.5 0-.9.3-1 .2 0 .5.3.6.8ZM361.6 690.4c0 .5 0 .9-.3 1-.2 0-.5-.3-.6-.8 0-.5 0-.9.3-1 .2 0 .5.3.6.8Z"/><path class="cls-3" d="M361.7 691.5c0 .5 0 .9-.3 1-.2 0-.5-.3-.6-.8 0-.5 0-.9.3-1 .2 0 .5.3.6.8ZM362.8 690.2c0 .5 0 .9-.3 1-.2 0-.5-.3-.6-.8 0-.5 0-.9.3-1 .2 0 .5.3.6.8Z"/><path class="cls-3" d="M363 691.3c0 .5 0 .9-.3 1-.2 0-.5-.3-.6-.8 0-.5 0-.9.3-1 .2 0 .5.3.6.8ZM364.1 690c0 .5 0 .9-.3 1-.2 0-.5-.3-.6-.8 0-.5 0-.9.3-1 .2 0 .5.3.6.8Z"/><path class="cls-3" d="M364.3 691.1c0 .5 0 .9-.3 1-.2 0-.5-.3-.6-.8 0-.5 0-.9.3-1 .2 0 .5.3.6.8ZM365.4 689.8c0 .5 0 .9-.3 1-.2 0-.5-.3-.6-.8s0-.9.3-1c.2 0 .5.3.6.8Z"/><path class="cls-3" d="M365.5 690.9c0 .5 0 .9-.3 1-.2 0-.5-.3-.6-.8s0-.9.3-1c.2 0 .5.3.6.8ZM366.6 689.6c0 .5 0 .9-.3 1-.2 0-.5-.3-.6-.8s0-.9.3-1c.2 0 .5.3.6.8Z"/><path class="cls-3" d="M366.8 690.7c0 .5 0 .9-.3 1-.2 0-.5-.3-.6-.8s0-.9.3-1c.2 0 .5.3.6.8ZM367.9 689.4c0 .5 0 .9-.3 1-.2 0-.5-.3-.6-.8s0-.9.3-1c.2 0 .5.3.6.8Z"/><path class="cls-3" d="M368.1 690.5c0 .5 0 .9-.3 1-.2 0-.5-.3-.6-.8s0-.9.3-1c.2 0 .5.3.6.8ZM369.2 689.2c0 .5 0 .9-.3 1-.2 0-.5-.3-.6-.8s0-.9.3-1c.2 0 .5.3.6.8Z"/><path class="cls-3" d="M369.4 690.3c0 .5 0 .9-.3 1-.2 0-.5-.3-.6-.8s0-.9.3-1c.2 0 .5.3.6.8ZM370.5 689c0 .5 0 .9-.3 1s-.5-.3-.6-.8 0-.9.3-1c.2 0 .5.3.6.8Z"/><path class="cls-3" d="M370.6 690.1c0 .5 0 .9-.3 1s-.5-.3-.6-.8 0-.9.3-1 .5.3.6.8ZM371.7 688.8c0 .5 0 .9-.3 1s-.5-.3-.6-.8 0-.9.3-1c.2 0 .5.3.6.8Z"/><path class="cls-3" d="M371.9 689.9c0 .5 0 .9-.3 1s-.5-.3-.6-.8 0-.9.3-1 .5.3.6.8ZM373 688.6c0 .5 0 .9-.3 1-.2 0-.5-.3-.6-.8s0-.9.3-1c.2 0 .5.3.6.8Z"/><path class="cls-3" d="M373.2 689.6c0 .5 0 .9-.3 1-.2 0-.5-.3-.6-.8s0-.9.3-1c.2 0 .5.3.6.8ZM374.3 688.4c0 .5 0 .9-.3 1-.2 0-.5-.3-.6-.8s0-.9.3-1c.2 0 .5.3.6.8Z"/><path class="cls-3" d="M374.5 689.4c0 .5 0 .9-.3 1-.2 0-.5-.3-.6-.8 0-.5 0-.9.3-1 .2 0 .5.3.6.8ZM375.5 688.1c0 .5 0 .9-.3 1-.2 0-.5-.3-.6-.8 0-.5 0-.9.3-1 .2 0 .5.3.6.8Z"/><path class="cls-3" d="M375.7 689.2c0 .5 0 .9-.3 1-.2 0-.5-.3-.6-.8 0-.5 0-.9.3-1 .2 0 .5.3.6.8ZM376.8 687.9c0 .5 0 .9-.3 1-.2 0-.5-.3-.6-.8s0-.9.3-1c.2 0 .5.3.6.8Z"/><path class="cls-3" d="M377 689c0 .5 0 .9-.3 1-.2 0-.5-.3-.6-.8 0-.5 0-.9.3-1 .2 0 .5.3.6.8ZM378.1 687.7c0 .5 0 .9-.3 1-.2 0-.5-.3-.6-.8s0-.9.3-1c.2 0 .5.3.6.8Z"/><path class="cls-3" d="M378.3 688.7c0 .5 0 .9-.3 1-.2 0-.5-.3-.6-.8s0-.9.3-1c.2 0 .5.3.6.8ZM379.3 687.5c0 .5 0 .9-.3 1-.2 0-.5-.3-.6-.8s0-.9.3-1c.2 0 .5.3.6.8Z"/><path class="cls-3" d="M379.5 688.5c0 .5 0 .9-.3 1-.2 0-.5-.3-.6-.8 0-.5 0-.9.3-1 .2 0 .5.3.6.8ZM380.6 687.2c0 .5 0 .9-.3 1-.2 0-.5-.3-.6-.8 0-.5 0-.9.3-1 .2 0 .5.3.6.8Z"/><path class="cls-3" d="M380.8 688.3c0 .5 0 .9-.3 1-.2 0-.5-.3-.6-.8 0-.5 0-.9.3-1 .2 0 .5.3.6.8ZM381.9 687c0 .5 0 .9-.3 1-.2 0-.5-.3-.6-.8 0-.5 0-.9.3-1 .2 0 .5.3.6.8Z"/><path class="cls-3" d="M382.1 688.1c0 .5 0 .9-.3 1-.2 0-.5-.3-.6-.8s0-.9.3-1c.2 0 .5.3.6.8ZM383.1 686.8c0 .5 0 .9-.3 1-.2 0-.5-.3-.6-.8s0-.9.3-1c.2 0 .5.3.6.8Z"/><path class="cls-3" d="M383.3 687.8c0 .5 0 .9-.3 1-.2 0-.5-.3-.6-.8s0-.9.3-1c.2 0 .5.3.6.8ZM384.4 686.6c0 .5 0 .9-.3 1-.2 0-.5-.3-.6-.8s0-.9.3-1c.2 0 .5.3.6.8Z"/><path class="cls-3" d="M384.6 687.6c0 .5 0 .9-.3 1-.2 0-.5-.3-.6-.8s0-.9.3-1c.2 0 .5.3.6.8ZM385.7 686.3c0 .5 0 .9-.3 1-.2 0-.5-.3-.6-.8s0-.9.3-1c.2 0 .5.3.6.8Z"/><path class="cls-3" d="M385.9 687.4c0 .5 0 .9-.3 1-.2 0-.5-.3-.6-.8s0-.9.3-1c.2 0 .5.3.6.8ZM387 686.1c0 .5 0 .9-.3 1-.2 0-.5-.3-.6-.8s0-.9.3-1c.2 0 .5.3.6.8Z"/><path class="cls-3" d="M387.2 687.2c0 .5 0 .9-.3 1-.2 0-.5-.3-.6-.8s0-.9.3-1c.2 0 .5.3.6.8ZM388.2 685.9c0 .5 0 .9-.3 1-.2 0-.5-.3-.6-.8s0-.9.3-1c.2 0 .5.3.6.8Z"/><path class="cls-3" d="M388.4 686.9c0 .5 0 .9-.3 1-.2 0-.5-.3-.6-.8s0-.9.3-1c.2 0 .5.3.6.8ZM389.5 685.6c0 .5 0 .9-.3 1s-.5-.3-.6-.8 0-.9.3-1 .5.3.6.8Z"/><path class="cls-3" d="M389.7 686.7c0 .5 0 .9-.3 1s-.5-.3-.6-.8 0-.9.3-1 .5.3.6.8ZM390.7 685.4c.1.5 0 .9-.3 1-.2 0-.5-.3-.6-.8s0-.9.3-1 .5.3.6.8Z"/><path class="cls-3" d="M390.9 686.4c.1.5 0 .9-.3 1-.2 0-.5-.3-.6-.8s0-.9.3-1 .5.3.6.8ZM392 685.1c.1.5 0 .9-.3 1-.2 0-.5-.3-.6-.8-.1-.5 0-.9.3-1 .2 0 .5.3.6.8Z"/><path class="cls-3" d="M392.2 686.1c.1.5 0 .9-.3 1-.2 0-.5-.3-.6-.8-.1-.5 0-.9.3-1 .2 0 .5.3.6.8ZM393.3 684.8c.1.5 0 .9-.3 1-.2 0-.5-.3-.6-.8-.1-.5 0-.9.3-1s.5.3.6.8Z"/><path class="cls-3" d="M393.5 685.9c.1.5 0 .9-.3 1-.2 0-.5-.3-.6-.8-.1-.5 0-.9.3-1 .2 0 .5.3.6.8ZM394.5 684.6c.1.5 0 .9-.3 1-.2 0-.5-.3-.6-.8-.1-.5 0-.9.3-1 .2 0 .5.3.6.8Z"/><path class="cls-3" d="M394.7 685.6c.1.5 0 .9-.3 1s-.5-.3-.6-.8c-.1-.5 0-.9.3-1 .2 0 .5.3.6.8ZM395.8 684.3c.1.5 0 .9-.3 1-.2 0-.5-.3-.6-.8-.1-.5 0-.9.3-1 .2 0 .5.3.6.8Z"/><path class="cls-3" d="M396 685.4c.1.5 0 .9-.3 1-.2 0-.5-.3-.6-.8s0-.9.3-1c.2 0 .5.3.6.8ZM397.1 684.1c.1.5 0 .9-.3 1-.2 0-.5-.3-.6-.8-.1-.5 0-.9.3-1 .2 0 .5.3.6.8Z"/><path class="cls-3" d="M397.3 685.1c.1.5 0 .9-.3 1s-.5-.3-.6-.8 0-.9.3-1c.2 0 .5.3.6.8ZM398.3 683.8c.1.5 0 .9-.3 1-.2 0-.5-.3-.6-.8-.1-.5 0-.9.3-1 .2 0 .5.3.6.8Z"/><path class="cls-3" d="M398.5 684.8c.1.5 0 .9-.3 1-.2 0-.5-.3-.6-.8s0-.9.3-1c.2 0 .5.3.6.8ZM399.6 683.5c.1.5 0 .9-.3 1s-.5-.3-.6-.8c-.1-.5 0-.9.3-1 .2 0 .5.3.6.8Z"/><path class="cls-3" d="M399.8 684.6c.1.5 0 .9-.3 1-.2 0-.5-.3-.6-.8-.1-.5 0-.9.3-1 .2 0 .5.3.6.8ZM400.8 683.3c.1.5 0 .9-.3 1-.2 0-.5-.3-.6-.8-.1-.5 0-.9.3-1 .2 0 .5.3.6.8Z"/><path class="cls-3" d="M401.1 684.3c.1.5 0 .9-.3 1-.2 0-.5-.3-.6-.8s0-.9.3-1c.2 0 .5.3.6.8ZM402.1 683c.1.5 0 .9-.2 1s-.5-.3-.6-.8 0-.9.2-1 .5.3.6.8Z"/><path class="cls-3" d="M402.3 684.1c.1.5 0 .9-.2 1s-.5-.3-.6-.8 0-.9.2-1 .5.3.6.8ZM403.4 682.8c.1.5 0 .9-.2 1-.2 0-.5-.3-.6-.8s0-.9.2-1c.2 0 .5.3.6.8Z"/><path class="cls-3" d="M403.6 683.8c.1.5 0 .9-.2 1-.2 0-.5-.3-.6-.8s0-.9.2-1c.2 0 .5.3.6.8ZM404.6 682.5c.1.5 0 .9-.2 1-.2 0-.5-.3-.6-.8s0-.9.2-1c.2 0 .5.3.6.8Z"/><path class="cls-3" d="M404.8 683.5c.1.5 0 .9-.2 1-.2 0-.5-.3-.6-.8s0-.9.2-1c.2 0 .5.3.6.8ZM405.9 682.2c.1.5 0 .9-.2 1-.2 0-.5-.3-.6-.8-.1-.5 0-.9.2-1 .2 0 .5.3.6.8Z"/><path class="cls-3" d="M406.1 683.3c.1.5 0 .9-.2 1-.2 0-.5-.3-.6-.8-.1-.5 0-.9.2-1 .2 0 .5.3.6.8ZM407.1 682c.1.5 0 .9-.2 1-.2 0-.5-.3-.6-.8-.1-.5 0-.9.2-1 .2 0 .5.3.6.8Z"/><path class="cls-3" d="M407.4 683c.1.5 0 .9-.2 1-.2 0-.5-.3-.6-.8-.1-.5 0-.9.2-1 .2 0 .5.3.6.8ZM408.4 681.7c.1.5 0 .9-.2 1-.2 0-.5-.3-.6-.8-.1-.5 0-.9.2-1 .2 0 .5.3.6.8Z"/><path class="cls-3" d="M408.6 682.7c.1.5 0 .9-.2 1-.2 0-.5-.3-.6-.8-.1-.5 0-.9.2-1 .2 0 .5.3.6.8ZM409.7 681.4c.1.5 0 .9-.2 1-.2 0-.5-.3-.6-.8-.1-.5 0-.9.2-1 .2 0 .5.3.6.8Z"/><path class="cls-3" d="M409.9 682.4c.1.5 0 .9-.2 1-.2 0-.5-.3-.6-.8-.1-.5 0-.9.2-1 .2 0 .5.3.6.8ZM410.9 681.1c.1.5 0 .9-.2 1-.2 0-.5-.3-.6-.8-.1-.5 0-.9.2-1 .2 0 .5.3.6.8Z"/><path class="cls-3" d="M411.1 682.1c.1.5 0 .9-.2 1-.2 0-.5-.3-.6-.8-.1-.5 0-.9.2-1 .2 0 .5.3.6.8ZM412.2 680.8c.1.5 0 .9-.2 1-.2 0-.5-.3-.6-.8-.1-.5 0-.9.2-1 .2 0 .5.3.6.8Z"/><path class="cls-3" d="M412.4 681.8c.1.5 0 .9-.2 1-.2 0-.5-.3-.6-.8-.1-.5 0-.9.2-1 .2 0 .5.3.6.8ZM413.4 680.5c.1.5 0 .9-.2 1-.2 0-.5-.3-.6-.8-.1-.5 0-.9.2-1 .2 0 .5.3.6.8Z"/><path class="cls-3" d="M413.7 681.6c.1.5 0 .9-.2 1-.2 0-.5-.3-.6-.8-.1-.5 0-.9.2-1 .2 0 .5.3.6.8ZM414.7 680.2c.1.5 0 .9-.2 1-.2 0-.5-.3-.6-.8-.1-.5 0-.9.2-1 .2 0 .5.3.6.8Z"/><path class="cls-3" d="M414.9 681.3c.1.5 0 .9-.2 1-.2 0-.5-.3-.6-.8-.1-.5 0-.9.2-1 .2 0 .5.3.6.8ZM415.9 679.9c.1.5 0 .9-.2 1-.2 0-.5-.3-.6-.8s0-.9.2-1c.2 0 .5.3.6.8Z"/><path class="cls-3" d="M416.2 681c.1.5 0 .9-.2 1-.2 0-.5-.3-.6-.8-.1-.5 0-.9.2-1 .2 0 .5.3.6.8ZM417.2 679.6c.1.5 0 .9-.2 1-.2 0-.5-.3-.6-.8-.1-.5 0-.9.2-1 .2 0 .5.3.6.8Z"/><path class="cls-3" d="M417.4 680.7c.1.5 0 .9-.2 1-.2 0-.5-.3-.6-.8-.1-.5 0-.9.2-1 .2 0 .5.3.6.8ZM418.4 679.3c.1.5 0 .9-.2 1-.2 0-.5-.3-.6-.8-.1-.5 0-.9.2-1 .2 0 .5.3.6.8Z"/><path class="cls-3" d="M418.7 680.4c.1.5 0 .9-.2 1-.2 0-.5-.3-.6-.8-.1-.5 0-.9.2-1 .2 0 .5.3.6.8ZM419.7 679c.1.5 0 .9-.2 1-.2 0-.5-.3-.6-.8-.1-.5 0-.9.2-1 .2 0 .5.3.6.8Z"/><path class="cls-3" d="M419.9 680.1c.1.5 0 .9-.2 1-.2 0-.5-.3-.6-.8-.1-.5 0-.9.2-1 .2 0 .5.3.6.8ZM420.9 678.7c.1.5 0 .9-.2 1-.2 0-.5-.3-.6-.8-.1-.5 0-.9.2-1 .2 0 .5.3.6.8Z"/><path class="cls-3" d="M421.2 679.8c.1.5 0 .9-.2 1-.2 0-.5-.3-.6-.8-.1-.5 0-.9.2-1 .2 0 .5.3.6.8ZM422.2 678.4c.1.5 0 .9-.2 1-.2 0-.5-.3-.6-.8-.1-.5 0-.9.2-1 .2 0 .5.3.6.8Z"/><path class="cls-3" d="M422.4 679.5c.1.5 0 .9-.2 1-.2 0-.5-.3-.6-.8-.1-.5 0-.9.2-1 .2 0 .5.3.6.8ZM423.4 678.2c.1.5 0 .9-.2 1s-.5-.3-.6-.8c-.1-.5 0-.9.2-1s.5.3.6.8Z"/><path class="cls-3" d="M423.7 679.2c.1.5 0 .9-.2 1-.2 0-.5-.3-.6-.8-.1-.5 0-.9.2-1 .2 0 .5.3.6.8ZM424.7 677.9c.1.5 0 .9-.2 1s-.5-.3-.6-.8c-.1-.5 0-.9.2-1s.5.3.6.8Z"/><path class="cls-3" d="M425 678.9c.1.5 0 .9-.2 1s-.5-.3-.7-.8c-.1-.5 0-.9.2-1s.5.3.7.8ZM426 677.6c.1.5 0 .9-.2 1s-.5-.3-.7-.8c-.1-.5 0-.9.2-1s.5.3.7.8Z"/><path class="cls-3" d="M426.2 678.6c.1.5 0 .9-.2 1s-.5-.3-.7-.8c-.1-.5 0-.9.2-1s.5.3.7.8ZM427.2 677.2c.1.5 0 .9-.2 1-.2 0-.5-.3-.7-.8-.1-.5 0-.9.2-1 .2 0 .5.3.6.8Z"/><path class="cls-3" d="M427.5 678.3c.1.5 0 .9-.2 1-.2 0-.5-.3-.7-.8-.1-.5 0-.9.2-1 .2 0 .5.3.7.8ZM428.4 676.9c.1.5 0 .9-.2 1-.2 0-.5-.3-.7-.8-.1-.5 0-.9.2-1s.5.3.7.8Z"/><path class="cls-3" d="M428.7 678c.1.5 0 .9-.2 1-.2 0-.5-.3-.7-.8s0-.9.2-1c.2 0 .5.3.7.8ZM429.7 676.6c.1.5 0 .9-.2 1s-.5-.3-.7-.8 0-.9.2-1 .5.3.7.8Z"/><path class="cls-3" d="M430 677.6c.1.5 0 .9-.2 1s-.5-.3-.7-.8 0-.9.2-1 .5.3.7.8ZM430.9 676.3c.1.5 0 .9-.2 1s-.5-.3-.7-.8 0-.9.2-1 .5.3.7.8Z"/><path class="cls-3" d="M431.2 677.3c.1.5 0 .9-.2 1s-.5-.3-.7-.8 0-.9.2-1 .5.3.7.8ZM432.2 675.9c.1.5 0 .9-.2 1s-.5-.3-.7-.8 0-.9.2-1 .5.3.7.8Z"/><path class="cls-3" d="M432.4 677c.1.5 0 .9-.2 1s-.5-.3-.7-.8 0-.9.2-1 .5.3.7.8ZM433.4 675.6c.1.5 0 .9-.2 1s-.5-.3-.7-.8 0-.9.2-1 .5.3.7.8Z"/><path class="cls-3" d="M433.7 676.6c.1.5 0 .9-.2 1s-.5-.3-.7-.8c-.1-.5 0-.9.2-1s.5.3.7.8ZM434.7 675.3c.1.5 0 .9-.2 1s-.5-.3-.7-.8 0-.9.2-1 .5.3.7.8Z"/><path class="cls-3" d="M434.9 676.3c.1.5 0 .9-.2 1s-.5-.3-.7-.8c-.1-.5 0-.9.2-1s.5.3.7.8ZM435.9 674.9c.1.5 0 .9-.2 1-.2 0-.5-.3-.7-.8s0-.9.2-1c.2 0 .5.3.7.8Z"/><path class="cls-3" d="M436.2 676c.1.5 0 .9-.2 1s-.5-.3-.7-.8 0-.9.2-1c.2 0 .5.3.7.8ZM437.2 674.6c.1.5 0 .9-.2 1-.2 0-.5-.3-.7-.8s0-.9.2-1c.2 0 .5.3.7.8Z"/><path class="cls-3" d="M437.4 675.6c.1.5 0 .9-.2 1-.2 0-.5-.3-.7-.8-.1-.5 0-.9.2-1 .2 0 .5.3.7.8ZM438.4 674.3c.1.5 0 .9-.2 1s-.5-.3-.7-.8c-.1-.5 0-.9.2-1 .2 0 .5.3.7.8Z"/><path class="cls-3" d="M438.7 675.3c.1.5 0 .9-.2 1-.2 0-.5-.3-.7-.8-.1-.5 0-.9.2-1 .2 0 .5.3.7.8ZM439.7 673.9c.1.5 0 .9-.2 1-.2 0-.5-.3-.7-.8-.1-.5 0-.9.2-1 .2 0 .5.3.7.8Z"/><path class="cls-3" d="M439.9 675c.1.5 0 .9-.2 1s-.5-.3-.7-.8c-.1-.5 0-.9.2-1 .2 0 .5.3.7.8ZM440.9 673.6c.1.5 0 .9-.2 1-.2 0-.5-.3-.7-.8-.1-.5 0-.9.2-1 .2 0 .5.3.7.8Z"/><path class="cls-3" d="M441.2 674.7c.1.5 0 .9-.2 1-.2 0-.5-.3-.7-.8-.1-.5 0-.9.2-1 .2 0 .5.3.7.8ZM442.1 673.3c.1.5 0 .9-.2 1-.2 0-.5-.3-.7-.8-.1-.5 0-.9.2-1 .2 0 .5.3.7.8Z"/><path class="cls-3" d="M442.4 674.3c.1.5 0 .9-.2 1s-.5-.3-.7-.8c-.1-.5 0-.9.2-1 .2 0 .5.3.7.8ZM443.4 673c.1.5 0 .9-.2 1-.2 0-.5-.3-.7-.8-.1-.5 0-.9.2-1 .2 0 .5.3.7.8Z"/><path class="cls-3" d="M443.7 674c.1.5 0 .9-.2 1s-.5-.3-.7-.8c-.1-.5 0-.9.2-1 .2 0 .5.3.7.8ZM444.6 672.6c.1.5 0 .9-.2 1-.2 0-.5-.3-.7-.8-.1-.5 0-.9.2-1 .2 0 .5.3.7.8Z"/><path class="cls-3" d="M444.9 673.7c.1.5 0 .9-.2 1-.2 0-.5-.3-.7-.8-.1-.5 0-.9.2-1 .2 0 .5.3.7.8ZM445.9 672.3c.1.5 0 .9-.2 1-.2 0-.5-.3-.7-.8-.1-.5 0-.9.2-1 .2 0 .5.3.7.8Z"/><path class="cls-3" d="M446.2 673.3c.1.5 0 .9-.2 1-.2 0-.5-.3-.7-.8s0-.9.2-1c.2 0 .5.3.7.8Z"/><path class="cls-5" d="M197.5 66.9s62.6 37.9 128 0"/><path class="cls-4" d="m87.2 580.1 7.1.2M430.9 580.1l-7.1.2"/><path d="M319.6 90.4c6.4-13.8 11.8-30.5 12.4-51.9l13.4 4.3.8 1.3 27.7 8 .9-.9 14.1 5.1s-58.6 183.1 58.3 184.9v13.4l-.8 1.1v415.9s-.4 4.6-3.1 7.9l-7.6 1.7c-211.7 56-360.1 0-360.1 0-3-3.6-3.6-8.4-3.6-8.4s.3-416.7 0-417.4-.4-.8-.4-.8v-13.4c116.9-1.8 58.3-184.9 58.3-184.9l14.1-5.1 1.4.9 31-9.9.5-1.5 14.1-2.9s.2 27.2 13.5 54.1c0 0 17.1 36.2 54.5 38.5 0 0 40 5 60.8-40h0Z" stroke-width=".4" stroke-linecap="round" stroke-linejoin="round" stroke="#000" fill="none"/><path class="cls-10" d="M176.2 42.2s.9 98.4 85.4 102.6c0 0 80.3 6.4 84.6-100.6"/><path class="cls-5" d="M178.1 40.7s.9 98 83.4 102.1c0 0 78.5 6.4 82.7-100.1"/><path class="cls-10" d="M446.4 254.8h-2.1c-9.8 0-43.5-2.3-65.8-31.5-25.9-34-27.4-91.3-4.5-170.4l.2-.5h-.4l-27.1-7.8h-.3v.2c-1.6 36.5-12.2 63.8-31.5 80.9-20 17.8-44 19.2-50.9 19.2h-2.4c-43.7-2.1-64.7-30-74.5-52.9-9.6-22.4-10.9-44.7-11-49v-.3l-30.7 9.8h-.4l-.6-.4 1 2.8c22.2 77.7 20.5 134.3-5 168.1-22.4 29.6-56.4 31.9-66.2 31.9h-2.1l.2.3c.3 1.7.3 133.3 0 391.2h.4c1.5-8.1 5.6-27.9 10.3-36.7 6.1-11.4 9-22.2 9.7-28.4v-.2l-5.6-.2c-.4 0-.7-.3-.6-.7 0-.3.3-.7.7-.7l7.1.2c.4 0 .7.3.6.7 0 .4-.3.7-.7.7h-1.1v.2c-.7 6.3-3.6 17.1-9.8 28.7-1.5 2.8-3 6.8-4.6 12.1v.4c-.1 0 .2-.1.2-.1l15 47.7h.1c3.8 1.1 38.7 10.3 94.3 15.1 18.6 1.6 40.8 2.8 66 2.8 47.8 0 106.1-4.2 170-17.8h.1l15-47.7h.4c0 .1-.1-.3-.1-.3-1.5-5.3-3.1-9.4-4.6-12.1-6.1-11.5-9.1-22.4-9.8-28.7v-.2h-1.7c-.4 0-.7-.3-.7-.7 0-.4.3-.7.6-.7l7.1-.2c.4 0 .7.3.7.7 0 .4-.3.7-.6.7l-5 .2v.2c.7 6.2 3.6 17 9.7 28.4 4.3 8 8 25 9.8 34.4h.5V255.4l.5-.6Z"/><path class="cls-5" d="M72.2 253.1h2.6c18.1 0 122.5-7.9 69.2-196.9l-1.3-3.7"/><path class="cls-14" d="M92.9 581.7s-2.6 19.8-9.4 34.7-7.8 39.6-11.3 56.3l.3-25.5s6.7-30.8 9.5-35.2c0 0 10.1-18 10.9-30.3ZM425.6 581.7s2.5 19.8 9.4 34.7c6.9 15 7.8 39.6 11.3 56.3l-.3-25.5s-6.6-30.8-9.5-35.2c0 0-10.1-18-10.9-30.3ZM82.6 635.2s8.7 37.2 9.2 38.6c.5 1.4 7.1 3.9 12.1 5s37.2 4.8 50.7 8.9c13.5 4.1 54.6 10.7 62.2 10.7s72.6-2.7 87.1-4.3c14.6-1.6 52.5-11.9 52.5-11.9s-69.2 10-167.7 3.2c0 0-68.1-6.8-95-15.1 0 0-9.9-33.9-11.2-35ZM324.6 78.2c5.9-22 1.5-28.5 1.5-28.5l.4-.7c3.2-4.6 4.9-8.6 5.4-10 0 .6 0 1.1.1 1.7-.7 14.5-3.5 26.8-7.4 37.5ZM196 48s.2 18.2 3 16.8c0 0-.6 2.8 2.4 5.1 0 0 8.9 4 16.2 6.7 7.3 2.8 39.4 13.7 77.2 4 0 0-37.8 16-91.9-8.3 0 0-2.2-1.4.7 7.6 2.9 8.8 19.1 50 62.1 50l-8.8.2s-48.5-3.4-61.6-63.6c0 0-4.4-19.2-4-26.5 0 0 4.4 7.3 4.6 7.9Z"/><path class="cls-12" d="M314.2 149.5c.4 1.3.8 2.5 1.2 3.8h-2.7c-.4-1.2-.7-2.3-1.1-3.5h-.8c-.2 1.2-.4 2.3-.5 3.5h-2.5c.6-3.2 1.1-6.3 1.7-9.5h3.9c.5 0 .9 0 1.3.2.6.2 1 .6 1.2 1.2v.8c0 .5-.2 1.1-.3 1.6-.1.6-.4 1-.8 1.4-.2.1-.3.3-.5.4Zm-3.1-1.4h1.2c.5 0 .8-.3.9-.8v-.9c-.1-.4-.4-.6-.8-.6h-1.1c-.1.8-.2 1.5-.3 2.2ZM320.1 150.2h2.4v.2c0 .5.1.9.7 1 .4.1.9.1 1.3 0h.2c.5-.2.5-.8.2-1.1l-.3-.3c-.3-.2-.7-.3-1.1-.5-.4-.1-.8-.3-1.2-.4s-.8-.4-1-.7c-.4-.4-.5-.9-.5-1.4s0-.8.2-1.2c.3-.8.9-1.4 1.6-1.7.5-.2.9-.3 1.4-.3h1.6c.5 0 1 .1 1.4.4.6.3 1 .7 1.1 1.4s0 1.2-.3 1.8h-2.3v-.1c.2-.3.2-.6.2-.9 0-.2-.2-.4-.4-.5-.2-.1-.4-.1-.7-.1h-.7s-.2 0-.3.1c-.5.3-.6.9-.1 1.3.3.2.6.3.9.4.4.1.9.2 1.3.4.4.1.8.3 1.1.6.5.4.7.9.7 1.5 0 .5 0 1-.2 1.5-.3.8-.9 1.3-1.6 1.6-.5.2-1 .3-1.6.3h-1.4c-.4 0-1-.1-1.4-.3-.8-.3-1.1-.9-1.2-1.6v-1.3ZM327.9 153.3c.6-3.2 1.1-6.3 1.7-9.5h6.6c-.1.7-.2 1.4-.4 2.1h-4.2l-.3 1.8h3.5c-.1.7-.2 1.4-.4 2.1h-3.5c0 .5-.2 1-.3 1.5h4.2c-.1.7-.2 1.4-.4 2.1h-6.6ZM337.3 143.7h2.4c0 .3-.1.6-.1.9-.2 1-.4 2-.5 2.9-.1.7-.3 1.4-.4 2.2v.8c0 .5.2.8.8.9h.9c.3-.1.6-.3.8-.6.2-.3.2-.7.3-1 .2-1.1.4-2.2.6-3.4.1-.8.3-1.6.4-2.4v-.2h2.1c-.5.7-.9 1.4-1.4 2.2.4 0 .8.1 1.3.2v.1c-.2 1.3-.4 2.6-.7 3.8 0 .4-.2.9-.4 1.3-.5 1-1.2 1.6-2.2 1.9-.7.2-1.4.2-2.1.2-.4 0-.9-.1-1.3-.2-.8-.3-1.3-.9-1.4-1.8v-1.6c.2-1 .4-2 .5-3 .2-1 .3-1.9.5-2.9v-.1ZM347.1 150.4c-.2 1-.3 1.9-.5 2.9h-2.4c.4-2.3.8-4.7 1.2-7 .4 0 .9.1 1.3.2-.3-.9-.6-1.7-.9-2.6H350c.4 0 .9 0 1.3.2.7.3 1.1.8 1.1 1.6v1c0 .4-.2.8-.2 1.2-.1.8-.6 1.4-1.2 1.9-.5.4-1.1.6-1.7.6h-2.1Zm.4-2.1h1.4c.5 0 .8-.3.9-.8 0-.3.1-.6.2-.9v-.3c-.1-.3-.4-.4-.7-.4H348c-.1.8-.3 1.6-.4 2.4ZM318.6 153.3h-2.4c.6-3.2 1.1-6.3 1.7-9.5h2.4c-.5 3.2-1.1 6.3-1.7 9.5Z"/><path class="cls-17" d="M314.2 149.5c.4 1.3.8 2.5 1.2 3.8h-2.7c-.4-1.2-.7-2.3-1.1-3.5h-.8c-.2 1.2-.4 2.3-.5 3.5h-2.5c.6-3.2 1.1-6.3 1.7-9.5h3.9c.5 0 .9 0 1.3.2.6.2 1 .6 1.2 1.2v.8c0 .5-.2 1.1-.3 1.6-.1.6-.4 1-.8 1.4-.2.1-.3.3-.5.4Zm-3.1-1.4h1.2c.5 0 .8-.3.9-.8v-.9c-.1-.4-.4-.6-.8-.6h-1.1c-.1.8-.2 1.5-.3 2.2ZM320.1 150.2h2.4v.2c0 .5.1.9.7 1 .4.1.9.1 1.3 0h.2c.5-.2.5-.8.2-1.1l-.3-.3c-.3-.2-.7-.3-1.1-.5-.4-.1-.8-.3-1.2-.4s-.8-.4-1-.7c-.4-.4-.5-.9-.5-1.4s0-.8.2-1.2c.3-.8.9-1.4 1.6-1.7.5-.2.9-.3 1.4-.3h1.6c.5 0 1 .1 1.4.4.6.3 1 .7 1.1 1.4s0 1.2-.3 1.8h-2.3v-.1c.2-.3.2-.6.2-.9 0-.2-.2-.4-.4-.5-.2-.1-.4-.1-.7-.1h-.7s-.2 0-.3.1c-.5.3-.6.9-.1 1.3.3.2.6.3.9.4.4.1.9.2 1.3.4.4.1.8.3 1.1.6.5.4.7.9.7 1.5 0 .5 0 1-.2 1.5-.3.8-.9 1.3-1.6 1.6-.5.2-1 .3-1.6.3h-1.4c-.4 0-1-.1-1.4-.3-.8-.3-1.1-.9-1.2-1.6v-1.3ZM327.9 153.3c.6-3.2 1.1-6.3 1.7-9.5h6.6c-.1.7-.2 1.4-.4 2.1h-4.2l-.3 1.8h3.5c-.1.7-.2 1.4-.4 2.1h-3.5c0 .5-.2 1-.3 1.5h4.2c-.1.7-.2 1.4-.4 2.1h-6.6ZM337.3 143.7h2.4c0 .3-.1.6-.1.9-.2 1-.4 2-.5 2.9-.1.7-.3 1.4-.4 2.2v.8c0 .5.2.8.8.9h.9c.3-.1.6-.3.8-.6.2-.3.2-.7.3-1 .2-1.1.4-2.2.6-3.4.1-.8.3-1.6.4-2.4v-.2h2.1c-.5.7-.9 1.4-1.4 2.2.4 0 .8.1 1.3.2v.1c-.2 1.3-.4 2.6-.7 3.8 0 .4-.2.9-.4 1.3-.5 1-1.2 1.6-2.2 1.9-.7.2-1.4.2-2.1.2-.4 0-.9-.1-1.3-.2-.8-.3-1.3-.9-1.4-1.8v-1.6c.2-1 .4-2 .5-3 .2-1 .3-1.9.5-2.9v-.1ZM347.1 150.4c-.2 1-.3 1.9-.5 2.9h-2.4c.4-2.3.8-4.7 1.2-7 .4 0 .9.1 1.3.2-.3-.9-.6-1.7-.9-2.6H350c.4 0 .9 0 1.3.2.7.3 1.1.8 1.1 1.6v1c0 .4-.2.8-.2 1.2-.1.8-.6 1.4-1.2 1.9-.5.4-1.1.6-1.7.6h-2.1Zm.4-2.1h1.4c.5 0 .8-.3.9-.8 0-.3.1-.6.2-.9v-.3c-.1-.3-.4-.4-.7-.4H348c-.1.8-.3 1.6-.4 2.4ZM318.6 153.3h-2.4c.6-3.2 1.1-6.3 1.7-9.5h2.4c-.5 3.2-1.1 6.3-1.7 9.5Z"/><path class="cls-17" d="M314.2 149.5c.4 1.3.8 2.5 1.2 3.8h-2.7c-.4-1.2-.7-2.3-1.1-3.5h-.8c-.2 1.2-.4 2.3-.5 3.5h-2.5c.6-3.2 1.1-6.3 1.7-9.5h3.9c.5 0 .9 0 1.3.2.6.2 1 .6 1.2 1.2v.8c0 .5-.2 1.1-.3 1.6-.1.6-.4 1-.8 1.4-.2.1-.3.3-.5.4Zm-3.1-1.4h1.2c.5 0 .8-.3.9-.8v-.9c-.1-.4-.4-.6-.8-.6h-1.1c-.1.8-.2 1.5-.3 2.2ZM320.1 150.2h2.4v.2c0 .5.1.9.7 1 .4.1.9.1 1.3 0h.2c.5-.2.5-.8.2-1.1l-.3-.3c-.3-.2-.7-.3-1.1-.5-.4-.1-.8-.3-1.2-.4s-.8-.4-1-.7c-.4-.4-.5-.9-.5-1.4s0-.8.2-1.2c.3-.8.9-1.4 1.6-1.7.5-.2.9-.3 1.4-.3h1.6c.5 0 1 .1 1.4.4.6.3 1 .7 1.1 1.4s0 1.2-.3 1.8h-2.3v-.1c.2-.3.2-.6.2-.9 0-.2-.2-.4-.4-.5-.2-.1-.4-.1-.7-.1h-.7s-.2 0-.3.1c-.5.3-.6.9-.1 1.3.3.2.6.3.9.4.4.1.9.2 1.3.4.4.1.8.3 1.1.6.5.4.7.9.7 1.5 0 .5 0 1-.2 1.5-.3.8-.9 1.3-1.6 1.6-.5.2-1 .3-1.6.3h-1.4c-.4 0-1-.1-1.4-.3-.8-.3-1.1-.9-1.2-1.6v-1.3ZM327.9 153.3c.6-3.2 1.1-6.3 1.7-9.5h6.6c-.1.7-.2 1.4-.4 2.1h-4.2l-.3 1.8h3.5c-.1.7-.2 1.4-.4 2.1h-3.5c0 .5-.2 1-.3 1.5h4.2c-.1.7-.2 1.4-.4 2.1h-6.6ZM337.3 143.7h2.4c0 .3-.1.6-.1.9-.2 1-.4 2-.5 2.9-.1.7-.3 1.4-.4 2.2v.8c0 .5.2.8.8.9h.9c.3-.1.6-.3.8-.6.2-.3.2-.7.3-1 .2-1.1.4-2.2.6-3.4.1-.8.3-1.6.4-2.4v-.2h2.1c-.5.7-.9 1.4-1.4 2.2.4 0 .8.1 1.3.2v.1c-.2 1.3-.4 2.6-.7 3.8 0 .4-.2.9-.4 1.3-.5 1-1.2 1.6-2.2 1.9-.7.2-1.4.2-2.1.2-.4 0-.9-.1-1.3-.2-.8-.3-1.3-.9-1.4-1.8v-1.6c.2-1 .4-2 .5-3 .2-1 .3-1.9.5-2.9v-.1ZM347.1 150.4c-.2 1-.3 1.9-.5 2.9h-2.4c.4-2.3.8-4.7 1.2-7 .4 0 .9.1 1.3.2-.3-.9-.6-1.7-.9-2.6H350c.4 0 .9 0 1.3.2.7.3 1.1.8 1.1 1.6v1c0 .4-.2.8-.2 1.2-.1.8-.6 1.4-1.2 1.9-.5.4-1.1.6-1.7.6h-2.1Zm.4-2.1h1.4c.5 0 .8-.3.9-.8 0-.3.1-.6.2-.9v-.3c-.1-.3-.4-.4-.7-.4H348c-.1.8-.3 1.6-.4 2.4ZM318.6 153.3h-2.4c.6-3.2 1.1-6.3 1.7-9.5h2.4c-.5 3.2-1.1 6.3-1.7 9.5Z"/><path class="cls-12" d="m196.1 150.9.1-.1c1.3-1.8 2.2-3.8 2.7-6v-.5c0-.1.1-.2.3-.2.1 0 .2 0 .3.2v.2c.1.6.3 1.2.3 1.7.1 1 .2 1.9.1 2.9 0 1.3-.3 2.6-.8 3.9-.4 1.3-1 2.5-1.8 3.6 0 .1-.2.2-.3.3-1.4.8-2.9 1.4-4.5 1.8-.6.1-1.3.2-1.9.3h-1 .3c1.1.2 2.2.2 3.3.2h1c.1 0 .3 0 .3.2v.3l-.1.1c-.8.6-1.6 1.2-2.6 1.6-.3.2-.6.3-1 .5h-.4c-.6-.1-1.2-.3-1.9-.4h-.2v.1l.3.6v.2c0 .1-.1.2-.3.3-.2 0-.3 0-.5.1-.8.2-1.6.2-2.4.3h-.1c-.2 0-.3 0-.3-.2v-.5.4c0 .2-.2.2-.3.2h-.5c-.5 0-1 0-1.4-.1-.4 0-.7-.1-1.1-.2h-.1c-.1 0-.2-.2-.2-.4v-.2l.3-.6h-.2c-.5.1-1.1.3-1.6.4-.6.1-.4.1-.9-.1-1.2-.5-2.3-1.2-3.3-2l-.1-.1c-.1-.1-.1-.2 0-.4 0-.1.2-.2.3-.2h.2c.8.1 1.6.1 2.4 0 .6 0 1.3-.1 1.9-.2h-.8c-1 0-2-.3-2.9-.6-1.3-.4-2.5-.9-3.7-1.6-.2 0-.3-.2-.4-.4-1-1.4-1.7-3-2.1-4.7-.2-.8-.3-1.6-.4-2.4v-2.4c0-.9.2-1.8.4-2.7v-.1c0-.1.2-.2.3-.2.1 0 .2 0 .3.2v.4c.4 1.9 1.1 3.7 2.2 5.4.2.2.3.5.5.7v.1-.2c-.4-.6-.7-1.3-1-1.9-.5-1.2-.8-2.4-1-3.6-.2-1.1-.2-2.2-.2-3.3v-.9c0-.1 0-.3.1-.4 1.9-3.2 4.6-5.4 8.1-6.6h.2c.1 0 .2 0 .3.1v.4c-.9.9-1.5 1.9-2 3s-.9 2.3-1.1 3.5c-.2 1.2-.3 2.5-.3 3.7 0 1.2.2 2.4.5 3.5s.7 2.2 1.3 3.3c.5.8 1 1.5 1.7 2.2.6.6 1.4 1.2 2.2 1.5.7.3 1.4.5 2.2.5.9 0 1.7-.2 2.5-.6.8-.4 1.6-1 2.2-1.6.7-.8 1.3-1.7 1.8-2.6.5-1.1.9-2.1 1.1-3.3.3-1.3.4-2.6.4-3.9 0-.6 0-1.2-.1-1.8-.3-2-.9-3.9-2-5.7-.4-.6-.8-1.1-1.3-1.6l-.1-.1v-.4c0-.1.2-.2.3-.1h.2c1.6.5 3.1 1.3 4.4 2.4 1.5 1.2 2.8 2.6 3.7 4.2 0 .1.1.2.1.4 0 .4 0 .8.1 1.3v1.9c-.2 1.9-.7 3.7-1.5 5.4l-.6 1.2V150.8v-.1Z"/><path class="cls-17" d="m196.1 150.9.1-.1c1.3-1.8 2.2-3.8 2.7-6v-.5c0-.1.1-.2.3-.2.1 0 .2 0 .3.2v.2c.1.6.3 1.2.3 1.7.1 1 .2 1.9.1 2.9 0 1.3-.3 2.6-.8 3.9-.4 1.3-1 2.5-1.8 3.6 0 .1-.2.2-.3.3-1.4.8-2.9 1.4-4.5 1.8-.6.1-1.3.2-1.9.3h-1 .3c1.1.2 2.2.2 3.3.2h1c.1 0 .3 0 .3.2v.3l-.1.1c-.8.6-1.6 1.2-2.6 1.6-.3.2-.6.3-1 .5h-.4c-.6-.1-1.2-.3-1.9-.4h-.2v.1l.3.6v.2c0 .1-.1.2-.3.3-.2 0-.3 0-.5.1-.8.2-1.6.2-2.4.3h-.1c-.2 0-.3 0-.3-.2v-.5.4c0 .2-.2.2-.3.2h-.5c-.5 0-1 0-1.4-.1-.4 0-.7-.1-1.1-.2h-.1c-.1 0-.2-.2-.2-.4v-.2l.3-.6h-.2c-.5.1-1.1.3-1.6.4-.6.1-.4.1-.9-.1-1.2-.5-2.3-1.2-3.3-2l-.1-.1c-.1-.1-.1-.2 0-.4 0-.1.2-.2.3-.2h.2c.8.1 1.6.1 2.4 0 .6 0 1.3-.1 1.9-.2h-.8c-1 0-2-.3-2.9-.6-1.3-.4-2.5-.9-3.7-1.6-.2 0-.3-.2-.4-.4-1-1.4-1.7-3-2.1-4.7-.2-.8-.3-1.6-.4-2.4v-2.4c0-.9.2-1.8.4-2.7v-.1c0-.1.2-.2.3-.2.1 0 .2 0 .3.2v.4c.4 1.9 1.1 3.7 2.2 5.4.2.2.3.5.5.7v.1-.2c-.4-.6-.7-1.3-1-1.9-.5-1.2-.8-2.4-1-3.6-.2-1.1-.2-2.2-.2-3.3v-.9c0-.1 0-.3.1-.4 1.9-3.2 4.6-5.4 8.1-6.6h.2c.1 0 .2 0 .3.1v.4c-.9.9-1.5 1.9-2 3s-.9 2.3-1.1 3.5c-.2 1.2-.3 2.5-.3 3.7 0 1.2.2 2.4.5 3.5s.7 2.2 1.3 3.3c.5.8 1 1.5 1.7 2.2.6.6 1.4 1.2 2.2 1.5.7.3 1.4.5 2.2.5.9 0 1.7-.2 2.5-.6.8-.4 1.6-1 2.2-1.6.7-.8 1.3-1.7 1.8-2.6.5-1.1.9-2.1 1.1-3.3.3-1.3.4-2.6.4-3.9 0-.6 0-1.2-.1-1.8-.3-2-.9-3.9-2-5.7-.4-.6-.8-1.1-1.3-1.6l-.1-.1v-.4c0-.1.2-.2.3-.1h.2c1.6.5 3.1 1.3 4.4 2.4 1.5 1.2 2.8 2.6 3.7 4.2 0 .1.1.2.1.4 0 .4 0 .8.1 1.3v1.9c-.2 1.9-.7 3.7-1.5 5.4l-.6 1.2V150.8v-.1Z"/><path d="m283.3 292.9 11 10.8v49.7l-47 14.1v19.7h47v21.3h-69.9V351l47-14.3v-22.5h-47v-21.3h58.9Z" stroke-width="5" stroke="#a9a9a9" fill="none"/><path class="cls-18" d="m283.3 292.9 11 10.8v49.7l-47 14.1v19.7h47v21.3h-69.9V351l47-14.3v-22.5h-47v-21.3h58.9Z"/><path class="cls-17" d="m283.3 292.9 11 10.8v49.7l-47 14.1v19.7h47v21.3h-69.9V351l47-14.3v-22.5h-47v-21.3h58.9Z"/><path class="cls-18" d="M164.4 234.3c5.2-2.3 10.5-4.4 15.8-6.4 1.3 1.1 2.5 2.3 3.8 3.5v25.4l-3.3 1.2c1.7 5 3.4 9.9 5.2 14.9-3 1-5.9 2-8.9 3.1l-5.1-14.7c-2.1.9-4.3 1.8-6.4 2.7v16.7c-2.9 1.3-5.8 2.6-8.6 4v-41.8c-1.1-1.2-2.1-2.4-3.2-3.5 1.1-.5 2.1-1.1 3.2-1.6.6-.3 1.3-.6 1.9-.9l5.7-2.7Zm1 19.1c3.2-1.4 6.4-2.7 9.7-4v-8.7c-3.3 1.3-6.5 2.6-9.7 4v8.7ZM202.1 221.3c.3 0 .7-.2 1.1-.3v46.9c-3 .7-6.1 1.5-9.1 2.4v-41.8c-1.1-1.4-2.2-2.7-3.4-4.1 1.1-.3 2.2-.7 3.4-1 .7-.2 1.4-.4 2-.6 2-.6 4-1.1 6-1.6ZM235.1 215.7h-.2l3.3-.3v14.4c-3.2.3-6.3.6-9.5 1v-3.6c-2.7.3-5.4.7-8 1.1v5.3c5.8 1.6 11.7 3.4 17.5 5.4v23.3c-9 .7-17.9 2-26.7 3.8v-14.4c3.1-.6 6.3-1.2 9.5-1.7v3.6c2.7-.4 5.3-.8 8-1.1v-5.2c-5.9-1.8-11.7-3.3-17.5-4.6v-18.5c-1.1-1.5-2.2-2.9-3.4-4.3 8.9-2 17.9-3.4 27-4.3ZM270.4 215.1c1 0 2.1.1 3.2.2v10.9c-5.9-.4-11.7-.6-17.6-.6v7.1c5.9 0 11.7.2 17.6.6v10.6c-5.9-.4-11.7-.6-17.6-.6v7.6c5.9 0 11.8.2 17.6.6v10.7c-9-.7-17.9-.8-26.9-.4V220c-1.1-1.6-2.3-3.3-3.5-4.9 1.1 0 2.3-.1 3.5-.2 3.2-.1 6.3-.2 9.5-.2 4.8 0 9.5.1 14.3.4ZM304.4 219.7c.5.1.9.2 1.4.3v36c3.3.7 6.7 1.5 10 2.4v-36c3 .8 6 1.7 9 2.6v46.9c-8.1-2.5-16.3-4.6-24.5-6.2-1.2-1.9-2.4-3.7-3.6-5.6v-36.9c-1.1-1.9-2.3-3.8-3.4-5.7 1.1.2 2.3.4 3.4.6.6.1 1.3.2 1.9.4 2 .4 3.9.7 5.9 1.1ZM340.7 230.7c5.3 2.1 10.5 4.4 15.7 6.9l3.6 6.6v20.6l-3.6 3c-4.8-2.4-9.7-4.5-14.6-6.5V278c-2.9-1.2-5.9-2.3-8.8-3.4v-41.8l-3.3-6.3 3.3 1.2c.7.2 1.3.5 2 .7 2 .7 3.9 1.4 5.8 2.2Zm1 20c3.2 1.3 6.5 2.7 9.7 4.2v-8.7c-3.2-1.5-6.4-2.9-9.7-4.2v8.7Z"/><path class="cls-6" d="M164.4 234.3c5.2-2.3 10.5-4.4 15.8-6.4 1.3 1.1 2.5 2.3 3.8 3.5v25.4l-3.3 1.2c1.7 5 3.4 9.9 5.2 14.9-3 1-5.9 2-8.9 3.1l-5.1-14.7c-2.1.9-4.3 1.8-6.4 2.7v16.7c-2.9 1.3-5.8 2.6-8.6 4v-41.8c-1.1-1.2-2.1-2.4-3.2-3.5 1.1-.5 2.1-1.1 3.2-1.6.6-.3 1.3-.6 1.9-.9l5.7-2.7Zm1 19.1c3.2-1.4 6.4-2.7 9.7-4v-8.7c-3.3 1.3-6.5 2.6-9.7 4v8.7ZM202.1 221.3c.3 0 .7-.2 1.1-.3v46.9c-3 .7-6.1 1.5-9.1 2.4v-41.8c-1.1-1.4-2.2-2.7-3.4-4.1 1.1-.3 2.2-.7 3.4-1 .7-.2 1.4-.4 2-.6 2-.6 4-1.1 6-1.6ZM235.1 215.7h-.2l3.3-.3v14.4c-3.2.3-6.3.6-9.5 1v-3.6c-2.7.3-5.4.7-8 1.1v5.3c5.8 1.6 11.7 3.4 17.5 5.4v23.3c-9 .7-17.9 2-26.7 3.8v-14.4c3.1-.6 6.3-1.2 9.5-1.7v3.6c2.7-.4 5.3-.8 8-1.1v-5.2c-5.9-1.8-11.7-3.3-17.5-4.6v-18.5c-1.1-1.5-2.2-2.9-3.4-4.3 8.9-2 17.9-3.4 27-4.3ZM270.4 215.1c1 0 2.1.1 3.2.2v10.9c-5.9-.4-11.7-.6-17.6-.6v7.1c5.9 0 11.7.2 17.6.6v10.6c-5.9-.4-11.7-.6-17.6-.6v7.6c5.9 0 11.8.2 17.6.6v10.7c-9-.7-17.9-.8-26.9-.4V220c-1.1-1.6-2.3-3.3-3.5-4.9 1.1 0 2.3-.1 3.5-.2 3.2-.1 6.3-.2 9.5-.2 4.8 0 9.5.1 14.3.4ZM304.4 219.7c.5.1.9.2 1.4.3v36c3.3.7 6.7 1.5 10 2.4v-36c3 .8 6 1.7 9 2.6v46.9c-8.1-2.5-16.3-4.6-24.5-6.2-1.2-1.9-2.4-3.7-3.6-5.6v-36.9c-1.1-1.9-2.3-3.8-3.4-5.7 1.1.2 2.3.4 3.4.6.6.1 1.3.2 1.9.4 2 .4 3.9.7 5.9 1.1ZM340.7 230.7c5.3 2.1 10.5 4.4 15.7 6.9l3.6 6.6v20.6l-3.6 3c-4.8-2.4-9.7-4.5-14.6-6.5V278c-2.9-1.2-5.9-2.3-8.8-3.4v-41.8l-3.3-6.3 3.3 1.2c.7.2 1.3.5 2 .7 2 .7 3.9 1.4 5.8 2.2Zm1 20c3.2 1.3 6.5 2.7 9.7 4.2v-8.7c-3.2-1.5-6.4-2.9-9.7-4.2v8.7Z"/><path class="cls-17" d="M164.4 234.3c5.2-2.3 10.5-4.4 15.8-6.4 1.3 1.1 2.5 2.3 3.8 3.5v25.4l-3.3 1.2c1.7 5 3.4 9.9 5.2 14.9-3 1-5.9 2-8.9 3.1l-5.1-14.7c-2.1.9-4.3 1.8-6.4 2.7v16.7c-2.9 1.3-5.8 2.6-8.6 4v-41.8c-1.1-1.2-2.1-2.4-3.2-3.5 1.1-.5 2.1-1.1 3.2-1.6.6-.3 1.3-.6 1.9-.9l5.7-2.7Zm1 19.1c3.2-1.4 6.4-2.7 9.7-4v-8.7c-3.3 1.3-6.5 2.6-9.7 4v8.7ZM202.1 221.3c.3 0 .7-.2 1.1-.3v46.9c-3 .7-6.1 1.5-9.1 2.4v-41.8c-1.1-1.4-2.2-2.7-3.4-4.1 1.1-.3 2.2-.7 3.4-1 .7-.2 1.4-.4 2-.6 2-.6 4-1.1 6-1.6ZM235.1 215.7h-.2l3.3-.3v14.4c-3.2.3-6.3.6-9.5 1v-3.6c-2.7.3-5.4.7-8 1.1v5.3c5.8 1.6 11.7 3.4 17.5 5.4v23.3c-9 .7-17.9 2-26.7 3.8v-14.4c3.1-.6 6.3-1.2 9.5-1.7v3.6c2.7-.4 5.3-.8 8-1.1v-5.2c-5.9-1.8-11.7-3.3-17.5-4.6v-18.5c-1.1-1.5-2.2-2.9-3.4-4.3 8.9-2 17.9-3.4 27-4.3ZM270.4 215.1c1 0 2.1.1 3.2.2v10.9c-5.9-.4-11.7-.6-17.6-.6v7.1c5.9 0 11.7.2 17.6.6v10.6c-5.9-.4-11.7-.6-17.6-.6v7.6c5.9 0 11.8.2 17.6.6v10.7c-9-.7-17.9-.8-26.9-.4V220c-1.1-1.6-2.3-3.3-3.5-4.9 1.1 0 2.3-.1 3.5-.2 3.2-.1 6.3-.2 9.5-.2 4.8 0 9.5.1 14.3.4ZM304.4 219.7c.5.1.9.2 1.4.3v36c3.3.7 6.7 1.5 10 2.4v-36c3 .8 6 1.7 9 2.6v46.9c-8.1-2.5-16.3-4.6-24.5-6.2-1.2-1.9-2.4-3.7-3.6-5.6v-36.9c-1.1-1.9-2.3-3.8-3.4-5.7 1.1.2 2.3.4 3.4.6.6.1 1.3.2 1.9.4 2 .4 3.9.7 5.9 1.1ZM340.7 230.7c5.3 2.1 10.5 4.4 15.7 6.9l3.6 6.6v20.6l-3.6 3c-4.8-2.4-9.7-4.5-14.6-6.5V278c-2.9-1.2-5.9-2.3-8.8-3.4v-41.8l-3.3-6.3 3.3 1.2c.7.2 1.3.5 2 .7 2 .7 3.9 1.4 5.8 2.2Zm1 20c3.2 1.3 6.5 2.7 9.7 4.2v-8.7c-3.2-1.5-6.4-2.9-9.7-4.2v8.7Z"/></svg>