<?xml version="1.0" encoding="UTF-8"?><svg id="Primary_Color" xmlns="http://www.w3.org/2000/svg" xmlns:xlink="http://www.w3.org/1999/xlink" viewBox="0 0 518.7 743.8"><defs><style>.cls-1{stroke-width:.3px;}.cls-1,.cls-2,.cls-3,.cls-4,.cls-5,.cls-6,.cls-7,.cls-8,.cls-9,.cls-10{fill:none;}.cls-1,.cls-3,.cls-5,.cls-7,.cls-8,.cls-9,.cls-10{stroke:#000;}.cls-1,.cls-3,.cls-5,.cls-7,.cls-9{stroke-miterlimit:10;}.cls-11{clip-path:url(#clippath);}.cls-2,.cls-12,.cls-13,.cls-14,.cls-15,.cls-16{stroke-width:0px;}.cls-3,.cls-8{stroke-width:.4px;}.cls-4{stroke-width:3px;}.cls-4,.cls-6{stroke:#d3d3d3;}.cls-4,.cls-6,.cls-8,.cls-10{stroke-linejoin:round;}.cls-17{clip-path:url(#clippath-1);}.cls-18{clip-path:url(#clippath-4);}.cls-19{clip-path:url(#clippath-3);}.cls-20{clip-path:url(#clippath-2);}.cls-21{clip-path:url(#clippath-6);}.cls-22{clip-path:url(#clippath-5);}.cls-5,.cls-7{stroke-dasharray:0 0 0 .2;}.cls-5,.cls-9{stroke-width:0px;}.cls-6{stroke-width:5px;}.cls-7{stroke-width:.1px;}.cls-12{isolation:isolate;opacity:.3;}.cls-8,.cls-10{stroke-linecap:round;}.cls-13{fill:gray;}.cls-14{fill:#d3d3d3;}.cls-15{fill:#a9a9a9;}.cls-16{fill:#e5e6e6;}.cls-10{stroke-width:.6px;}</style><clipPath id="clippath"><path class="cls-2" d="m446.8,254.6h-1.3c-.2,0-.5,0-.8,0-9.8,0-43.6-2.3-65.9-31.6-25.9-34.1-27.5-91.5-4.5-170.7l.2-.5h-.4l-27.2-7.8h-.3c0,0,0,.2,0,.2-1.6,36.6-12.2,63.9-31.6,81.1-20.1,17.8-44.1,19.2-51,19.2s-2.3,0-2.4,0c-43.8-2.1-64.8-30-74.7-53.1-9.6-22.4-10.9-44.8-11-49.1v-.3l-30.8,9.8c-.1,0-.3,0-.4,0l-.6-.4,1,2.8c22.2,77.9,20.5,134.5-5,168.4-22.4,29.7-56.5,32-66.4,32h-1.7s-.4,0-.4,0l.2.3c.3,1.7.3,133.6,0,391.9h.4c1.5-8.1,5.6-27.9,10.3-36.8,6.1-11.5,9-22.2,9.7-28.5v-.2s-5.6-.2-5.6-.2c-.4,0-.7-.3-.6-.7,0-.3.3-.7.7-.7h0l7.1.2c.4,0,.7.3.6.7,0,.4-.3.7-.7.7h-1.1s0,.2,0,.2c-.7,6.3-3.6,17.2-9.8,28.7-1.5,2.8-3,6.9-4.6,12.1v.4c-.1,0,.2-.1.2-.1l15,47.7h.1c3.8,1.1,38.8,10.4,94.5,15.1,18.6,1.6,40.9,2.8,66.1,2.8,47.9,0,106.3-4.2,170.3-17.8h.1s15-47.8,15-47.8h.4c0,.1-.1-.3-.1-.3-1.5-5.3-3.1-9.4-4.6-12.1-6.2-11.5-9.1-22.4-9.8-28.7v-.2s-1.7,0-1.7,0c-.4,0-.7-.3-.7-.7,0-.4.3-.7.6-.7l7.1-.2c.4,0,.7.3.7.7,0,.4-.3.7-.6.7l-5,.2v.2c.7,6.3,3.6,17,9.8,28.5,4.3,8.1,8,25,9.8,34.4h.5V255.5c0,0,0-.2,0-.3l.5-.6h0Z"/></clipPath><clipPath id="clippath-1"><path class="cls-2" d="m446.8,240.7c-24.7-.5-43.3-9.3-55.4-26.1-14.5-20.2-19.6-51.8-15.2-93.8,3.4-32.2,11.3-59.3,12.9-64.4l.2-.8-14.4-4.9-.8,2.1c-23,79.2-21.7,136.5,4.3,170.6,22.1,29.1,55.1,31.7,66,31.7h3.1v-14.2h-.9s0,0,0,0Z"/></clipPath><clipPath id="clippath-2"><path class="cls-2" d="m71.9,240.7c24.7-.5,43.3-9.3,55.4-26.1,14.5-20.2,19.6-51.8,15.2-93.8-3.4-32.2-11.3-59.3-12.9-64.4l-.2-.8,14.4-4.9.8,2.1c22.9,79.2,21.7,136.5-4.3,170.6-22.1,29.1-55.1,31.7-66,31.7h-3.1v-14.2h.9s0,0,0,0Z"/></clipPath><clipPath id="clippath-3"><path class="cls-2" d="m346.3,43.5c-4.2,107.2-84.7,100.8-84.7,100.8-84.6-4.1-85.5-102.7-85.5-102.7l.5-1.5,14.1-2.9s.2,27.2,13.5,54.2c0,0,17.1,36.3,54.5,38.6,0,0,40.1,5,60.9-40.1,6.4-13.8,11.8-30.6,12.5-52l13.4,4.4.8,1.3h0Z"/></clipPath><clipPath id="clippath-4"><path class="cls-2" d="m191.8,40.2c1.6,3.9,5.4,11.2,12.2,17l.3.3-8.5,11.7-.2-.9c-2.4-8.7-4.1-17.9-4.6-27.8v-2.5c-.1,0,.9,2.3.9,2.3h0Z"/></clipPath><clipPath id="clippath-5"><path class="cls-2" d="m330.9,40.4c-1.6,3.9-5.4,11.2-12.2,17.1l-.3.3,8.8,12.1.2-.9c2.4-8.8,3.9-18.3,4.4-28.3v-2.6c.1,0-.9,2.4-.9,2.4h0Z"/></clipPath><clipPath id="clippath-6"><path class="cls-2" d="m318.3,57.7l-.4.2c-17,9.8-35.5,14.7-55,14.7-31.7,0-55.8-13.2-58.4-14.7l-.3-.2-7.2,9.5.4.3c1.7,1,17.1,9.7,39.3,14.1,7.5,1.5,16.3,2.6,26.1,2.6,18.4,0,40.1-3.9,62.1-16.6l.4-.2-7-9.7h0Z"/></clipPath></defs><path class="cls-13" d="m446.8,254.6h-1.3c-.2,0-.5,0-.8,0-9.8,0-43.6-2.3-65.9-31.6-25.9-34.1-27.5-91.5-4.5-170.7l.2-.5h-.4l-27.2-7.8h-.3c0,0,0,.2,0,.2-1.6,36.6-12.2,63.9-31.6,81.1-20.1,17.8-44.1,19.2-51,19.2s-2.3,0-2.4,0c-43.8-2.1-64.8-30-74.7-53.1-9.6-22.4-10.9-44.8-11-49.1v-.3l-30.8,9.8c-.1,0-.3,0-.4,0l-.6-.4,1,2.8c22.2,77.9,20.5,134.5-5,168.4-22.4,29.7-56.5,32-66.4,32h-1.7s-.4,0-.4,0l.2.3c.3,1.7.3,133.6,0,391.9h.4c1.5-8.1,5.6-27.9,10.3-36.8,6.1-11.5,9-22.2,9.7-28.5v-.2s-5.6-.2-5.6-.2c-.4,0-.7-.3-.6-.7,0-.3.3-.7.7-.7h0l7.1.2c.4,0,.7.3.6.7,0,.4-.3.7-.7.7h-1.1s0,.2,0,.2c-.7,6.3-3.6,17.2-9.8,28.7-1.5,2.8-3,6.9-4.6,12.1v.4c-.1,0,.2-.1.2-.1l15,47.7h.1c3.8,1.1,38.8,10.4,94.5,15.1,18.6,1.6,40.9,2.8,66.1,2.8,47.9,0,106.3-4.2,170.3-17.8h.1s15-47.8,15-47.8h.4c0,.1-.1-.3-.1-.3-1.5-5.3-3.1-9.4-4.6-12.1-6.2-11.5-9.1-22.4-9.8-28.7v-.2s-1.7,0-1.7,0c-.4,0-.7-.3-.7-.7,0-.4.3-.7.6-.7l7.1-.2c.4,0,.7.3.7.7,0,.4-.3.7-.6.7l-5,.2v.2c.7,6.3,3.6,17,9.8,28.5,4.3,8.1,8,25,9.8,34.4h.5V255.5c0,0,0-.2,0-.3l.5-.6h0Z"/><g class="cls-11"><rect class="cls-15" x="71.8" y="241" width="24.6" height="452.1"/><rect class="cls-14" x="96.3" y="241" width="3.9" height="451.4"/><rect class="cls-14" x="71.8" y="241" width="3.9" height="451.4"/><rect class="cls-15" x="422.2" y="241" width="24.6" height="452.1"/><rect class="cls-14" x="418.4" y="241" width="3.9" height="451.4"/><rect class="cls-14" x="442.9" y="241" width="3.9" height="451.4"/></g><path class="cls-2" d="m446.1,256.4l-.5.6c0,0,0,.2,0,.3v387.6h-.4c-1.8-9.3-5.5-26.2-9.8-34.3-6.1-11.4-9-22.2-9.7-28.4v-.2s5-.2,5-.2c.4,0,.7-.3.6-.7,0-.4-.3-.7-.7-.7l-7.1.2c-.4,0-.7.3-.6.7,0,.4.3.7.7.7h1.7c0,0,0,.2,0,.2.7,6.3,3.6,17.1,9.8,28.6,1.5,2.8,3,6.8,4.5,12.1v.4c.1,0-.2-.1-.2-.1l-14.9,47.5h-.1c-63.7,13.6-122,17.8-169.6,17.8s-47.3-1.2-65.9-2.8c-55.5-4.7-90.4-14-94.2-15h-.1s-14.9-47.6-14.9-47.6h-.4c0,.1.1-.3.1-.3,1.6-5.3,3.1-9.3,4.6-12.1,6.1-11.5,9.1-22.3,9.7-28.6v-.2s1.1,0,1.1,0c.4,0,.7-.3.7-.7,0-.4-.3-.7-.6-.7l-7.1-.2h0c-.4,0-.7.3-.7.7,0,.4.3.7.7.7l5.6.2v.2c-.7,6.2-3.6,17-9.7,28.4-4.7,8.8-8.7,28.6-10.2,36.7h-.4c.2-257.5.2-388.9,0-390.5l-.2-.3h.4s1.7,0,1.7,0c9.9,0,43.8-2.3,66.1-31.9,25.5-33.7,27.1-90.2,5-167.8l-1-2.7.6.4c.1,0,.2,0,.4,0l23.7-7.5,3.6-1.2h.1s.2,0,.2,0h.2c0,0,2.3-.8,2.3-.8h0l.5-.2v.3h6.9c0,0,.6,0,.6,0h4.1s5.2,0,5.2,0h2.9c20.4,9.7,42.7,14.8,65.4,14.8s43-4.6,62.6-13.4h2.9s5.3,0,5.3,0h2.9s2.7,0,2.7,0h8.4c0,0,.1-2.2.1-2.2l.8.2h.2c0,0,.2.1.2.1l1.2.4h.2c0,0,.2.1.2.1l.6,2.4v-2.2c0,0,3.3,1.5,3.3,1.5h0s20.4,7.6,20.4,7.6h.4v.5c-23,78.9-21.5,136.1,4.4,170,22.2,29.2,55.9,31.5,65.6,31.5h2.1s0,0,0,0Z"/><path class="cls-6" d="m313.3,283.1l-17.8,65.7h-14.1l14.2-54.6h-7.9l2.1-6.9,14.2-4.2h9.2,0Z"/><path class="cls-6" d="m360.6,283.1l-2.6,10.6h-21.2l-4.1,14.6h15.8l8.3,10-5,19.5-13.6,11h-19.9l-8.4-10.1,1.9-8.8h15.2l-1.9,7.9h11.3l4.9-18.4h-13l-10.3-10.9,7.3-25.4h35.2Z"/><path class="cls-15" d="m313.3,283.1l-17.8,65.7h-14.1l14.2-54.6h-7.9l2.1-6.9,14.2-4.2h9.2,0Z"/><path class="cls-15" d="m360.6,283.1l-2.6,10.6h-21.2l-4.1,14.6h15.8l8.3,10-5,19.5-13.6,11h-19.9l-8.4-10.1,1.9-8.8h15.2l-1.9,7.9h11.3l4.9-18.4h-13l-10.3-10.9,7.3-25.4h35.2Z"/><path class="cls-15" d="m313.3,283.1l-17.8,65.7h-14.1l14.2-54.6h-7.9l2.1-6.9,14.2-4.2h9.2,0Z"/><path class="cls-15" d="m360.6,283.1l-2.6,10.6h-21.2l-4.1,14.6h15.8l8.3,10-5,19.5-13.6,11h-19.9l-8.4-10.1,1.9-8.8h15.2l-1.9,7.9h11.3l4.9-18.4h-13l-10.3-10.9,7.3-25.4h35.2Z"/><path class="cls-4" d="m187.7,221.2l4.2,6.8-3.6,14.5-5.1,5.2,1.4,10.3h-9.1l-1.9-14.8h5.5l3.6-14.8h-8.2l-7.2,29.5h-9.2l9.1-36.9h20.7Z"/><path class="cls-4" d="m210.2,221.2l-9,36.9h-9.3l9.1-36.9h9.2Z"/><path class="cls-4" d="m251.4,209.7c.9,1.2,1.3,2.4,1.1,3.6-.3,1.7-1.7,3.1-4.3,4.3-1.5.7-2.5,1.7-3,3-.2.5-.5,1.8-.7,3.6-.2,1.4-.6,2.5-1.2,3-.8.9-2.3,1.3-4.5,1.3h-11.9l-.8,3.3,12.3,11.8-1.5,6.3-8,8.1h-18.7l1.8-7.3h15.3l.9-3.8-12.4-11.6,1.6-6.6,7.9-7.6h12.3c2.2,0,3.8-.4,4.6-1.1.6-.5,1-1.3,1.1-2.4.1-1.7.2-2.6.2-2.6.2-.9.9-1.4,2-1.6,2-.4,3.3-.8,4.1-1.2,1-.6,1.6-1.4,1.8-2.6h0Z"/><path class="cls-4" d="m286.2,209.7c.9,1.2,1.2,2.4,1.1,3.6-.3,1.7-1.7,3.1-4.3,4.3-1.5.7-2.5,1.7-3,3-.2.5-.4,1.8-.7,3.6-.2,1.4-.6,2.5-1.2,3-.9.9-2.3,1.3-4.5,1.3h-12.1l-1.8,7.4h13.3l-1.8,7.3h-13.3l-1.8,7.4h13.3l-1.8,7.4h-22.5l9.1-36.9h18.4c2.2,0,3.7-.4,4.6-1.1.6-.5,1-1.4,1.1-2.4.1-1.7.2-2.6.2-2.6.2-.9.9-1.4,2-1.6,1.9-.4,3.3-.8,4.1-1.2,1-.6,1.6-1.4,1.8-2.6h0Z"/><path class="cls-4" d="m326.6,221.2l-7.1,28.8-8,8.1h-14.5l-4.2-7.3,7.3-29.6h9.2l-7.2,29.6h8.2l7.2-29.6h9.1,0Z"/><path class="cls-4" d="m356.4,221.2l4.2,6.8-3.6,14.6-8,8h-11.3l-1.8,7.4h-9.2l9.1-36.9h20.7,0Zm-16.9,22.1h8.2l3.6-14.8h-8.2l-3.6,14.8Z"/><path class="cls-15" d="m187.7,221.2l4.2,6.8-3.6,14.5-5.1,5.2,1.4,10.3h-9.1l-1.9-14.8h5.5l3.6-14.8h-8.2l-7.2,29.5h-9.2l9.1-36.9h20.7Z"/><path class="cls-15" d="m210.2,221.2l-9,36.9h-9.3l9.1-36.9h9.2Z"/><path class="cls-15" d="m251.4,209.7c.9,1.2,1.3,2.4,1.1,3.6-.3,1.7-1.7,3.1-4.3,4.3-1.5.7-2.5,1.7-3,3-.2.5-.5,1.8-.7,3.6-.2,1.4-.6,2.5-1.2,3-.8.9-2.3,1.3-4.5,1.3h-11.9l-.8,3.3,12.3,11.8-1.5,6.3-8,8.1h-18.7l1.8-7.3h15.3l.9-3.8-12.4-11.6,1.6-6.6,7.9-7.6h12.3c2.2,0,3.8-.4,4.6-1.1.6-.5,1-1.3,1.1-2.4.1-1.7.2-2.6.2-2.6.2-.9.9-1.4,2-1.6,2-.4,3.3-.8,4.1-1.2,1-.6,1.6-1.4,1.8-2.6h0Z"/><path class="cls-15" d="m286.2,209.7c.9,1.2,1.2,2.4,1.1,3.6-.3,1.7-1.7,3.1-4.3,4.3-1.5.7-2.5,1.7-3,3-.2.5-.4,1.8-.7,3.6-.2,1.4-.6,2.5-1.2,3-.9.9-2.3,1.3-4.5,1.3h-12.1l-1.8,7.4h13.3l-1.8,7.3h-13.3l-1.8,7.4h13.3l-1.8,7.4h-22.5l9.1-36.9h18.4c2.2,0,3.7-.4,4.6-1.1.6-.5,1-1.4,1.1-2.4.1-1.7.2-2.6.2-2.6.2-.9.9-1.4,2-1.6,1.9-.4,3.3-.8,4.1-1.2,1-.6,1.6-1.4,1.8-2.6h0Z"/><path class="cls-15" d="m326.6,221.2l-7.1,28.8-8,8.1h-14.5l-4.2-7.3,7.3-29.6h9.2l-7.2,29.6h8.2l7.2-29.6h9.1,0Z"/><path class="cls-15" d="m356.4,221.2l4.2,6.8-3.6,14.6-8,8h-11.3l-1.8,7.4h-9.2l9.1-36.9h20.7,0Zm-16.9,22.1h8.2l3.6-14.8h-8.2l-3.6,14.8Z"/><path class="cls-15" d="m187.7,221.2l4.2,6.8-3.6,14.5-5.1,5.2,1.4,10.3h-9.1l-1.9-14.8h5.5l3.6-14.8h-8.2l-7.2,29.5h-9.2l9.1-36.9h20.7Z"/><path class="cls-15" d="m210.2,221.2l-9,36.9h-9.3l9.1-36.9h9.2Z"/><path class="cls-15" d="m251.4,209.7c.9,1.2,1.3,2.4,1.1,3.6-.3,1.7-1.7,3.1-4.3,4.3-1.5.7-2.5,1.7-3,3-.2.5-.5,1.8-.7,3.6-.2,1.4-.6,2.5-1.2,3-.8.9-2.3,1.3-4.5,1.3h-11.9l-.8,3.3,12.3,11.8-1.5,6.3-8,8.1h-18.7l1.8-7.3h15.3l.9-3.8-12.4-11.6,1.6-6.6,7.9-7.6h12.3c2.2,0,3.8-.4,4.6-1.1.6-.5,1-1.3,1.1-2.4.1-1.7.2-2.6.2-2.6.2-.9.9-1.4,2-1.6,2-.4,3.3-.8,4.1-1.2,1-.6,1.6-1.4,1.8-2.6h0Z"/><path class="cls-15" d="m286.2,209.7c.9,1.2,1.2,2.4,1.1,3.6-.3,1.7-1.7,3.1-4.3,4.3-1.5.7-2.5,1.7-3,3-.2.5-.4,1.8-.7,3.6-.2,1.4-.6,2.5-1.2,3-.9.9-2.3,1.3-4.5,1.3h-12.1l-1.8,7.4h13.3l-1.8,7.3h-13.3l-1.8,7.4h13.3l-1.8,7.4h-22.5l9.1-36.9h18.4c2.2,0,3.7-.4,4.6-1.1.6-.5,1-1.4,1.1-2.4.1-1.7.2-2.6.2-2.6.2-.9.9-1.4,2-1.6,1.9-.4,3.3-.8,4.1-1.2,1-.6,1.6-1.4,1.8-2.6h0Z"/><path class="cls-15" d="m326.6,221.2l-7.1,28.8-8,8.1h-14.5l-4.2-7.3,7.3-29.6h9.2l-7.2,29.6h8.2l7.2-29.6h9.1,0Z"/><path class="cls-15" d="m356.4,221.2l4.2,6.8-3.6,14.6-8,8h-11.3l-1.8,7.4h-9.2l9.1-36.9h20.7,0Zm-16.9,22.1h8.2l3.6-14.8h-8.2l-3.6,14.8Z"/><g id="R"><g class="cls-17"><path class="cls-15" d="m446.8,240.7c-24.7-.5-43.3-9.3-55.4-26.1-14.5-20.2-19.6-51.8-15.2-93.8,3.4-32.2,11.3-59.3,12.9-64.4l.2-.8-14.4-4.9-.8,2.1c-23,79.2-21.7,136.5,4.3,170.6,22.1,29.1,55.1,31.7,66,31.7h3.1v-14.2h-.9s0,0,0,0Z"/><path class="cls-14" d="m456.8,237c-25.3-.5-44.4-9.1-56.8-25.6-14.9-19.8-20.1-50.7-15.6-91.9,3.5-31.6,11.6-58.1,13.2-63.1l.3-.8-14.8-4.8-.8,2c-23.5,77.6-21.4,135.4,5.2,168.8,22.7,28.5,55.8,26.2,66.9,26.2s.6,1.5.9,1.5l2.3-1.6v-10.6h-.9s0,0,0,0Z"/></g></g><g id="L"><g class="cls-20"><path class="cls-15" d="m71.9,240.7c24.7-.5,43.3-9.3,55.4-26.1,14.5-20.2,19.6-51.8,15.2-93.8-3.4-32.2-11.3-59.3-12.9-64.4l-.2-.8,14.4-4.9.8,2.1c22.9,79.2,21.7,136.5-4.3,170.6-22.1,29.1-55.1,31.7-66,31.7h-3.1v-14.2h.9s0,0,0,0Z"/><path class="cls-14" d="m61.9,235.5c25.3-.5,44.4-9.1,56.8-25.6,14.9-19.8,20.1-50.7,15.6-91.9-3.5-31.6-11.6-58.1-13.2-63.1l-.3-.8,14.8-4.8.8,2c23.5,77.6,22.2,136-4.4,169.4-22.7,28.5-56.5,27.1-67.7,27.1h-.9l-2.3-1.6v-10.6h.9s0,0,0,0Z"/></g></g><g id="front"><g class="cls-19"><path class="cls-15" d="m346.3,43.5c-4.2,107.2-84.7,100.8-84.7,100.8-84.6-4.1-85.5-102.7-85.5-102.7l.5-1.5,14.1-2.9s.2,27.2,13.5,54.2c0,0,17.1,36.3,54.5,38.6,0,0,40.1,5,60.9-40.1,6.4-13.8,11.8-30.6,12.5-52l13.4,4.4.8,1.3h0Z"/><path class="cls-14" d="m340.4,35.1c-3.9,109-78.8,102.5-78.8,102.5-78.7-4.2-79.5-104.5-79.5-104.5l.5-1.6,13.2-2.9s.2,27.7,12.6,55.1c0,0,15.9,36.9,50.7,39.2,0,0,37.3,5.1,56.6-40.8,5.9-14.1,11-31.1,11.6-52.8l12.5,4.4.7,1.3h0Z"/></g></g><g id="L_back"><g class="cls-18"><path class="cls-15" d="m191.8,40.2c1.6,3.9,5.4,11.2,12.2,17l.3.3-8.8,12-.2-.9c-2.4-8.7-3.9-18.2-4.4-28.2v-2.5c-.1,0,.9,2.3.9,2.3h0Z"/><path class="cls-14" d="m200.9,63.4c-6.5-3.3-11.6-11.2-15.6-18.4v-10.5l30.9,16.3-15.3,12.6h0Z"/></g></g><g id="R_back"><g class="cls-22"><path class="cls-15" d="m330.9,40.4c-1.6,3.9-5.4,11.2-12.2,17.1l-.3.3,8.8,12.1.2-.9c2.4-8.8,3.9-18.3,4.4-28.3v-2.6c.1,0-.9,2.4-.9,2.4h0Z"/><path class="cls-14" d="m321.8,63.7c6.6-3.4,11.6-11.3,15.6-18.4v-10.5l-31,16.4,15.4,12.6h0Z"/></g></g><g id="back"><g class="cls-21"><path class="cls-15" d="m318.3,57.7l-.4.2c-17,9.8-35.5,14.7-55,14.7-31.7,0-55.8-13.2-58.4-14.7l-.3-.2-7.2,9.5.4.3c1.7,1,17.1,9.7,39.3,14.1,7.5,1.5,16.3,2.6,26.1,2.6,18.4,0,40.1-3.9,62.1-16.6l.4-.2-7-9.7h0Z"/><path class="cls-14" d="m317.9,52.3l-.4.2c-16.9,9.8-35.3,14.7-54.6,14.7-31.5,0-55.4-13.2-58-14.7l-.3-.2-7.2,9.5.4.3c1.7,1,17,9.7,39,14.1,7.4,1.5,16.2,2.6,25.9,2.6,18.3,0,39.8-3.9,61.7-16.6l.4-.2-7-9.7h0Z"/></g></g><path class="cls-13" d="m446.4,649.4c-.8-4.4-2.9-15.7-5.8-25.7,0-.2-.2-.3-.4-.3h0c-.2,0-.4.1-.4.3l-14.8,47h0c-55.7,11.9-113.1,17.9-170.6,17.9s-44.7-.9-66.1-2.8c-58.1-5-94.4-15-94.8-15.2l-14.8-47c0-.2-.2-.3-.4-.3h0c-.2,0-.4.1-.4.3-3.4,11.9-5.8,25.9-6.1,27.8,0,0,0,.2,0,.3v21.6s0,0,0,0c.1.8.8,4.9,3.4,8,0,0,.1.1.2.1,4,1.5,40.4,14.3,100.7,21,20,2.2,44.1,3.8,71.5,3.8,52.2,0,116.5-5.9,188.3-24.9l7.4-1.6c.1,0,.2,0,.2-.2,2.5-3.2,2.9-7.5,3-7.6h0v-22.9h0Z"/><path class="cls-16" d="m325.3,67.7h-.2c-19.2,11.2-40.2,16.8-62.3,16.8s-17.5-.9-26.2-2.6c-22.4-4.5-37.8-13.2-39.4-14.2h-.2c0-.1-.9,1-.9,1h0c2.2,8.1,5,15.6,8.4,22.5.2.4,17.4,36.1,54.2,38.3.1,0,1.3.1,3.3.1,9.9,0,39.7-3.2,56.7-39.1h0s.4-.9.4-.9c3.1-6.7,5.5-13.2,7.5-19.9h0c0-.1-1.4-2.1-1.4-2.1h0Z"/><path class="cls-1" d="m71.1,254.3h2.7c18.6,0,126-8,71.2-200l-1.4-3.8"/><path class="cls-1" d="m375,50.8l-.5,1.6c-56.8,196.3,54.2,202.2,71,201.9h2.1"/><path class="cls-3" d="m190.7,37.1s3.6,12.1,13.6,20.4c0,0,55.7,33.8,113.8,0,10.1-8.4,13.9-19.7,13.9-19.7"/><path class="cls-1" d="m197.2,67.4s62.7,38,128.2,0"/><line class="cls-1" x1="195.8" y1="68.8" x2="204.4" y2="57.6"/><line class="cls-5" x1="195.4" y1="67.6" x2="203.7" y2="56.7"/><line class="cls-1" x1="318.2" y1="57.6" x2="327.4" y2="70.2"/><line class="cls-5" x1="319" y1="57" x2="328" y2="69.2"/><path class="cls-1" d="m71.8,651.6s4.9-29.8,11.1-41.5c6.2-11.7,9.3-23.1,9.8-29.5"/><path class="cls-1" d="m78.5,622.6l15.1,48.1s142.2,40.4,331.5,0l15.1-48.1"/><path class="cls-1" d="m446.9,651.6s-4.9-29.8-11.1-41.5c-6.2-11.7-9.3-23.1-9.8-29.5"/><line class="cls-5" x1="79.3" y1="620" x2="95.8" y2="671.1"/><line class="cls-5" x1="439.6" y1="620" x2="423.1" y2="671.1"/><path class="cls-7" d="m427.1,664.8c-57.4,13.5-112.3,17.6-162.5,17.6-99.7,0-172-17.4-173.1-17.7"/><path class="cls-7" d="m90.9,660.9c1.6.4,166.8,40.1,337.2,0"/><path class="cls-5" d="m447,252.8h-2.6c-18.1,0-122.7-7.9-69.4-197.3l1.3-3.7"/><path class="cls-9" d="m73.1,673.2c-.2.5-.5.8-.7.7-.2,0-.3-.5-.1-1,.2-.5.5-.8.7-.7.2,0,.3.5.1,1Z"/><path class="cls-9" d="m72.7,674.2c-.2.5-.5.8-.7.7-.2,0-.3-.5-.1-1,.2-.5.5-.8.7-.7.2,0,.3.5.1,1h0Z"/><path class="cls-9" d="m74.3,673.6c-.2.5-.5.8-.7.7s-.3-.5-.1-1,.5-.8.7-.7c.2,0,.3.5.1,1h0Z"/><path class="cls-9" d="m74,674.6c-.2.5-.5.8-.7.7-.2,0-.3-.5-.1-1s.5-.8.7-.7c.2,0,.3.5.1,1h0Z"/><path class="cls-9" d="m75.5,674c-.1.5-.5.8-.7.7-.2,0-.3-.5-.2-1,.2-.5.5-.8.7-.7.2,0,.3.5.1,1h0Z"/><path class="cls-9" d="m75.2,675c-.1.5-.5.8-.7.7s-.3-.5-.2-1c.2-.5.5-.8.7-.7.2,0,.3.5.1,1Z"/><path class="cls-9" d="m76.8,674.4c-.1.5-.5.8-.7.7s-.3-.5-.1-1c.1-.5.5-.8.7-.7.2,0,.3.5.1,1h0Z"/><path class="cls-9" d="m76.4,675.4c-.1.5-.5.8-.7.7-.2,0-.3-.5-.1-1,.1-.5.5-.8.7-.7.2,0,.3.5.2,1h0Z"/><path class="cls-9" d="m78,674.8c-.1.5-.5.8-.7.7-.2,0-.3-.5-.2-1s.5-.8.7-.7c.2,0,.3.5.2,1Z"/><path class="cls-9" d="m77.7,675.8c-.1.5-.5.8-.7.7-.2,0-.3-.5-.2-1s.5-.8.7-.7c.2,0,.3.5.2,1Z"/><path class="cls-9" d="m79.2,675.2c-.1.5-.5.8-.7.7s-.3-.5-.2-1,.5-.8.7-.7c.2,0,.3.5.2,1Z"/><path class="cls-9" d="m78.9,676.2c-.1.5-.5.8-.7.7-.2,0-.3-.5-.2-1s.5-.8.7-.7c.2,0,.3.5.2,1Z"/><path class="cls-9" d="m80.5,675.5c-.1.5-.5.8-.7.7-.2,0-.3-.5-.2-1,.1-.5.5-.8.7-.7.2,0,.3.5.2,1Z"/><path class="cls-9" d="m80.1,676.6c-.1.5-.5.8-.7.7-.2,0-.3-.5-.2-1,.1-.5.5-.8.7-.7.2,0,.3.5.2,1Z"/><path class="cls-9" d="m81.7,675.9c-.1.5-.4.8-.7.7s-.3-.5-.2-1c.1-.5.5-.8.7-.7.2,0,.3.5.2,1Z"/><path class="cls-9" d="m81.4,676.9c-.1.5-.4.8-.7.7s-.3-.5-.2-1c.1-.5.5-.8.7-.7.2,0,.3.5.2,1Z"/><path class="cls-9" d="m82.9,676.3c-.1.5-.4.8-.7.7s-.3-.5-.2-1c.1-.5.4-.8.7-.7s.3.5.2,1Z"/><path class="cls-9" d="m82.6,677.3c-.1.5-.4.8-.7.7s-.3-.5-.2-1c.1-.5.4-.8.7-.7s.3.5.2,1Z"/><path class="cls-9" d="m84.2,676.6c-.1.5-.4.8-.7.7s-.3-.5-.2-1c.1-.5.4-.8.7-.7s.3.5.2,1Z"/><path class="cls-9" d="m83.9,677.7c-.1.5-.4.8-.7.7s-.3-.5-.2-1c.1-.5.4-.8.7-.7s.3.5.2,1h0Z"/><path class="cls-9" d="m85.4,677c-.1.5-.4.8-.7.7-.2,0-.3-.5-.2-1,.1-.5.4-.8.7-.7s.3.5.2,1Z"/><path class="cls-9" d="m85.1,678c-.1.5-.4.8-.7.7s-.3-.5-.2-1,.4-.8.7-.7.3.5.2,1Z"/><path class="cls-9" d="m86.6,677.3c-.1.5-.4.8-.7.8-.2,0-.3-.5-.2-1,.1-.5.4-.8.7-.8.2,0,.3.5.2,1Z"/><path class="cls-9" d="m86.3,678.4c-.1.5-.4.8-.7.8-.2,0-.3-.5-.2-1,.1-.5.4-.8.7-.8.2,0,.3.5.2,1Z"/><path class="cls-9" d="m87.9,677.7c-.1.5-.4.8-.7.8-.2,0-.3-.5-.2-1,.1-.5.4-.8.7-.8.2,0,.3.5.2,1Z"/><path class="cls-9" d="m87.6,678.7c-.1.5-.4.8-.7.8-.2,0-.3-.5-.2-1s.4-.8.7-.8c.2,0,.3.5.2,1Z"/><path class="cls-9" d="m89.1,678c-.1.5-.4.8-.7.8-.2,0-.3-.5-.2-1,.1-.5.4-.8.7-.8.2,0,.3.5.2,1Z"/><path class="cls-9" d="m88.8,679.1c-.1.5-.4.8-.7.8-.2,0-.3-.5-.2-1,.1-.5.4-.8.7-.8.2,0,.3.5.2,1Z"/><path class="cls-9" d="m90.4,678.4c-.1.5-.4.8-.7.8-.2,0-.3-.5-.2-1s.4-.8.7-.8c.2,0,.3.5.2,1Z"/><path class="cls-9" d="m90.1,679.4c-.1.5-.4.8-.7.8-.2,0-.3-.5-.2-1s.4-.8.7-.8c.2,0,.3.5.2,1Z"/><path class="cls-9" d="m91.6,678.7c-.1.5-.4.8-.7.8s-.3-.5-.2-1,.4-.8.7-.8.3.5.2,1Z"/><path class="cls-9" d="m91.3,679.8c-.1.5-.4.8-.7.8s-.3-.5-.2-1,.4-.8.7-.8.3.5.2,1Z"/><path class="cls-9" d="m92.9,679.1c-.1.5-.4.8-.7.8-.2,0-.3-.5-.2-1s.4-.8.7-.8.3.5.2,1Z"/><path class="cls-9" d="m92.6,680.1c-.1.5-.4.8-.7.8-.2,0-.3-.5-.2-1s.4-.8.7-.8c.2,0,.3.5.2,1Z"/><path class="cls-9" d="m94.1,679.4c-.1.5-.4.8-.7.8-.2,0-.3-.5-.2-1s.4-.8.7-.8c.2,0,.3.5.2,1Z"/><path class="cls-9" d="m93.8,680.4c-.1.5-.4.8-.7.8-.2,0-.3-.5-.2-1s.4-.8.7-.8c.2,0,.3.5.2,1Z"/><path class="cls-9" d="m95.4,679.7c-.1.5-.4.8-.7.8-.2,0-.3-.5-.2-1,.1-.5.4-.8.7-.8s.3.5.2,1Z"/><path class="cls-9" d="m95.1,680.8c-.1.5-.4.8-.7.8s-.3-.5-.2-1c.1-.5.4-.8.7-.8s.3.5.2,1Z"/><path class="cls-9" d="m96.6,680c-.1.5-.4.8-.7.8-.2,0-.3-.5-.2-1,.1-.5.4-.8.7-.8.2,0,.3.5.2,1Z"/><path class="cls-9" d="m96.3,681.1c-.1.5-.4.8-.7.8-.2,0-.3-.5-.2-1,.1-.5.4-.8.7-.8.2,0,.3.5.2,1Z"/><path class="cls-9" d="m97.9,680.4c-.1.5-.4.8-.7.8-.2,0-.3-.5-.2-1,.1-.5.4-.8.7-.8.2,0,.3.5.2,1Z"/><path class="cls-9" d="m97.6,681.4c-.1.5-.4.8-.7.8-.2,0-.3-.5-.2-1,.1-.5.4-.8.7-.8.2,0,.3.5.2,1Z"/><path class="cls-9" d="m99.1,680.7c-.1.5-.4.8-.7.8-.2,0-.3-.5-.2-1,.1-.5.4-.8.7-.8.2,0,.3.5.2,1Z"/><path class="cls-9" d="m98.8,681.7c-.1.5-.4.8-.7.8-.2,0-.3-.5-.2-1,.1-.5.4-.8.7-.8.2,0,.3.5.2,1Z"/><path class="cls-9" d="m100.4,681c-.1.5-.4.8-.7.8-.2,0-.3-.5-.2-1,.1-.5.4-.8.7-.8s.3.5.2,1Z"/><path class="cls-9" d="m100.1,682c-.1.5-.4.8-.7.8s-.3-.5-.2-1c.1-.5.4-.8.7-.8s.3.5.2,1Z"/><path class="cls-9" d="m101.6,681.3c-.1.5-.4.8-.7.8-.2,0-.3-.5-.2-1s.4-.8.7-.8c.2,0,.3.5.2,1Z"/><path class="cls-9" d="m101.3,682.3c-.1.5-.4.8-.7.8-.2,0-.3-.5-.2-1,.1-.5.4-.8.7-.8.2,0,.3.5.2,1h0Z"/><path class="cls-9" d="m102.9,681.6c-.1.5-.4.8-.6.8-.2,0-.3-.5-.2-1,.1-.5.4-.8.6-.8.2,0,.3.5.2,1Z"/><path class="cls-9" d="m102.6,682.6c-.1.5-.4.8-.6.8-.2,0-.3-.5-.2-1s.4-.8.6-.8c.2,0,.3.5.2,1Z"/><path class="cls-9" d="m104.1,681.9c-.1.5-.4.8-.6.8-.2,0-.3-.5-.2-1,.1-.5.4-.8.6-.8.2,0,.3.5.2,1Z"/><path class="cls-9" d="m103.9,682.9c-.1.5-.4.8-.6.8-.2,0-.3-.5-.2-1,.1-.5.4-.8.6-.8.2,0,.3.5.2,1Z"/><path class="cls-9" d="m105.4,682.2c-.1.5-.4.8-.6.8-.2,0-.4-.5-.2-1,.1-.5.4-.8.6-.8.2,0,.3.5.2,1Z"/><path class="cls-9" d="m105.1,683.2c-.1.5-.4.8-.6.8-.2,0-.4-.5-.2-1,.1-.5.4-.8.6-.8.2,0,.3.5.2,1Z"/><path class="cls-9" d="m106.6,682.5c-.1.5-.4.8-.6.8-.2,0-.4-.5-.2-1,.1-.5.4-.8.6-.8.2,0,.3.5.2,1Z"/><path class="cls-9" d="m106.4,683.6c-.1.5-.4.8-.6.8s-.4-.5-.2-1c.1-.5.4-.8.6-.8.2,0,.4.5.2,1Z"/><path class="cls-9" d="m107.9,682.8c-.1.5-.4.8-.6.8-.2,0-.4-.5-.2-1,.1-.5.4-.8.6-.8.2,0,.4.5.2,1Z"/><path class="cls-9" d="m107.6,683.9c-.1.5-.4.8-.6.8-.2,0-.4-.5-.2-1,.1-.5.4-.8.6-.8.2,0,.4.5.2,1h0Z"/><path class="cls-9" d="m109.1,683.1c-.1.5-.4.8-.6.8-.2,0-.4-.5-.2-1s.4-.8.6-.8c.2,0,.4.5.2,1Z"/><path class="cls-9" d="m108.9,684.1c-.1.5-.4.8-.6.8-.2,0-.4-.5-.2-1s.4-.8.6-.8c.2,0,.4.5.2,1Z"/><path class="cls-9" d="m110.4,683.4c-.1.5-.4.8-.6.8-.2,0-.4-.5-.2-1s.4-.8.6-.8c.2,0,.4.5.2,1Z"/><path class="cls-9" d="m110.2,684.4c-.1.5-.4.8-.6.8-.2,0-.4-.5-.2-1s.4-.8.6-.8c.2,0,.4.5.2,1Z"/><path class="cls-9" d="m111.7,683.7c-.1.5-.4.8-.6.8-.2,0-.4-.5-.2-1s.4-.8.6-.8c.2,0,.4.5.2,1Z"/><path class="cls-9" d="m111.4,684.7c-.1.5-.4.8-.6.8-.2,0-.4-.5-.2-1s.4-.8.6-.8c.2,0,.4.5.2,1Z"/><path class="cls-9" d="m112.9,683.9c-.1.5-.4.8-.6.8-.2,0-.4-.5-.2-1s.4-.8.6-.8c.2,0,.4.5.2,1Z"/><path class="cls-9" d="m112.7,685c-.1.5-.4.8-.6.8-.2,0-.4-.5-.2-1s.4-.8.6-.8c.2,0,.4.5.2,1Z"/><path class="cls-9" d="m114.2,684.2c-.1.5-.4.8-.6.8-.2,0-.4-.5-.2-1s.4-.8.6-.8c.2,0,.4.5.2,1Z"/><path class="cls-9" d="m113.9,685.3c-.1.5-.4.8-.6.8-.2,0-.4-.5-.2-1,.1-.5.4-.8.6-.8.2,0,.4.5.2,1Z"/><path class="cls-9" d="m115.4,684.5c-.1.5-.4.8-.6.8-.2,0-.4-.5-.2-1,.1-.5.4-.8.6-.8s.4.5.2,1Z"/><path class="cls-9" d="m115.2,685.6c-.1.5-.4.8-.6.8-.2,0-.4-.5-.2-1s.4-.8.6-.8c.2,0,.4.5.2,1Z"/><path class="cls-9" d="m116.7,684.8c-.1.5-.4.8-.6.8-.2,0-.4-.5-.2-1s.4-.8.6-.8c.2,0,.4.5.2,1Z"/><path class="cls-9" d="m116.5,685.8c-.1.5-.4.8-.6.8-.2,0-.4-.5-.2-1s.4-.8.6-.8c.2,0,.4.5.2,1h0Z"/><path class="cls-9" d="m117.9,685c-.1.5-.4.8-.6.8-.2,0-.4-.5-.2-1,.1-.5.4-.8.6-.8.2,0,.4.5.2,1Z"/><path class="cls-9" d="m117.7,686.1c-.1.5-.4.8-.6.8-.2,0-.4-.5-.2-1,.1-.5.4-.8.6-.8.2,0,.4.5.2,1Z"/><path class="cls-9" d="m119.2,685.3c-.1.5-.4.8-.6.8-.2,0-.4-.5-.2-1,.1-.5.4-.8.6-.8.2,0,.4.5.2,1Z"/><path class="cls-9" d="m119,686.4c-.1.5-.4.8-.6.8-.2,0-.4-.5-.3-1s.4-.8.6-.8c.2,0,.4.5.3,1Z"/><path class="cls-9" d="m120.5,685.6c-.1.5-.4.8-.6.8s-.4-.5-.3-1,.4-.8.6-.8c.2,0,.4.5.3,1Z"/><path class="cls-9" d="m120.3,686.6c-.1.5-.4.8-.6.8s-.4-.5-.3-1,.4-.8.6-.8c.2,0,.4.5.3,1Z"/><path class="cls-9" d="m121.7,685.8c-.1.5-.4.8-.6.8-.2,0-.4-.5-.3-1s.4-.8.6-.8c.2,0,.4.5.3,1Z"/><path class="cls-9" d="m121.5,686.9c-.1.5-.4.8-.6.8-.2,0-.4-.5-.3-1s.4-.8.6-.8c.2,0,.4.5.3,1Z"/><path class="cls-9" d="m123,686.1c-.1.5-.4.8-.6.8-.2,0-.4-.5-.3-1s.4-.8.6-.8c.2,0,.4.5.3,1Z"/><path class="cls-9" d="m122.8,687.1c-.1.5-.4.8-.6.8-.2,0-.4-.5-.3-1s.4-.8.6-.8c.2,0,.4.5.3,1Z"/><path class="cls-9" d="m124.3,686.4c-.1.5-.4.8-.6.8-.2,0-.4-.5-.3-1s.4-.8.6-.8.4.5.3,1Z"/><path class="cls-9" d="m124.1,687.4c-.1.5-.4.8-.6.8-.2,0-.4-.5-.3-1s.4-.8.6-.8c.2,0,.4.5.3,1Z"/><path class="cls-9" d="m125.5,686.6c-.1.5-.4.8-.6.8-.2,0-.4-.5-.3-1s.4-.8.6-.8c.2,0,.4.5.3,1h0Z"/><path class="cls-9" d="m125.3,687.7c-.1.5-.4.8-.6.8-.2,0-.4-.5-.3-1,.1-.5.4-.8.6-.8.2,0,.4.5.3,1Z"/><path class="cls-9" d="m126.8,686.9c-.1.5-.4.8-.6.8s-.4-.5-.3-1c.1-.5.4-.8.6-.8.2,0,.4.5.3,1Z"/><path class="cls-9" d="m126.6,687.9c-.1.5-.4.8-.6.8s-.4-.5-.3-1c.1-.5.4-.8.6-.8.2,0,.4.5.3,1Z"/><path class="cls-9" d="m128.1,687.1c-.1.5-.4.8-.6.8s-.4-.5-.3-1c.1-.5.4-.8.6-.8.2,0,.4.5.3,1Z"/><path class="cls-9" d="m127.9,688.2c-.1.5-.4.8-.6.8s-.4-.5-.3-1c.1-.5.4-.8.6-.8.2,0,.4.5.3,1Z"/><path class="cls-9" d="m129.3,687.3c0,.5-.4.8-.6.8-.2,0-.4-.5-.3-1,.1-.5.4-.8.6-.8s.4.5.3,1Z"/><path class="cls-9" d="m129.1,688.4c0,.5-.4.8-.6.8s-.4-.5-.3-1c.1-.5.4-.8.6-.8.2,0,.4.5.3,1Z"/><path class="cls-9" d="m130.6,687.6c0,.5-.4.8-.6.8-.2,0-.4-.5-.3-1,0-.5.4-.8.6-.8s.4.5.3,1Z"/><path class="cls-9" d="m130.4,688.6c0,.5-.4.8-.6.8-.2,0-.4-.5-.3-1,0-.5.4-.8.6-.8s.4.5.3,1Z"/><path class="cls-9" d="m131.9,687.8c0,.5-.4.8-.6.8s-.4-.5-.3-1,.4-.8.6-.8.4.5.3,1Z"/><path class="cls-9" d="m131.7,688.9c0,.5-.4.8-.6.8s-.4-.5-.3-1,.4-.8.6-.8.4.5.3,1Z"/><path class="cls-9" d="m133.1,688.1c0,.5-.4.8-.6.8s-.4-.5-.3-1,.4-.8.6-.8c.2,0,.4.5.3,1Z"/><path class="cls-9" d="m132.9,689.1c0,.5-.4.8-.6.8s-.4-.5-.3-1,.4-.8.6-.8c.2,0,.4.5.3,1Z"/><path class="cls-9" d="m134.4,688.3c0,.5-.4.8-.6.8s-.4-.5-.3-1,.4-.8.6-.8c.2,0,.4.5.3,1Z"/><path class="cls-9" d="m134.2,689.4c0,.5-.4.8-.6.8s-.4-.5-.3-1,.4-.8.6-.8c.2,0,.4.5.3,1Z"/><path class="cls-9" d="m135.7,688.5c0,.5-.4.9-.6.8-.2,0-.4-.5-.3-1s.4-.8.6-.8.4.5.3,1Z"/><path class="cls-9" d="m135.5,689.6c0,.5-.4.9-.6.8-.2,0-.4-.5-.3-1s.4-.8.6-.8.4.5.3,1Z"/><path class="cls-9" d="m136.9,688.8c0,.5-.4.9-.6.8-.2,0-.4-.5-.3-1s.4-.9.6-.8c.2,0,.4.5.3,1Z"/><path class="cls-9" d="m136.8,689.8c0,.5-.4.9-.6.8-.2,0-.4-.5-.3-1,0-.5.4-.9.6-.8.2,0,.4.5.3,1Z"/><path class="cls-9" d="m138.2,689c0,.5-.4.9-.6.8s-.4-.5-.3-1c0-.5.4-.9.6-.8.2,0,.4.5.3,1Z"/><path class="cls-9" d="m138,690c0,.5-.4.9-.6.8-.2,0-.4-.5-.3-1,0-.5.4-.9.6-.8.2,0,.4.5.3,1Z"/><path class="cls-9" d="m139.5,689.2c0,.5-.4.9-.6.8-.2,0-.4-.5-.3-1,0-.5.4-.9.6-.8.2,0,.4.5.3,1Z"/><path class="cls-9" d="m139.3,690.3c0,.5-.4.9-.6.8-.2,0-.4-.5-.3-1,0-.5.4-.9.6-.8.2,0,.4.5.3,1Z"/><path class="cls-9" d="m140.8,689.4c0,.5-.4.9-.6.8s-.4-.5-.3-1c0-.5.4-.9.6-.8.2,0,.4.5.3,1Z"/><path class="cls-9" d="m140.6,690.5c0,.5-.4.9-.6.8-.2,0-.4-.5-.3-1,0-.5.4-.9.6-.8.2,0,.4.5.3,1Z"/><path class="cls-9" d="m142,689.6c0,.5-.4.9-.6.8s-.4-.5-.3-1c0-.5.4-.9.6-.8.2,0,.4.5.3,1Z"/><path class="cls-9" d="m141.8,690.7c0,.5-.4.9-.6.8-.2,0-.4-.5-.3-1,0-.5.4-.9.6-.8.2,0,.4.5.3,1Z"/><path class="cls-9" d="m143.3,689.9c0,.5-.4.9-.6.8-.2,0-.4-.5-.3-1,0-.5.4-.9.6-.8.2,0,.4.5.3,1Z"/><path class="cls-9" d="m143.1,690.9c0,.5-.4.9-.6.8-.2,0-.4-.5-.3-1,0-.5.4-.9.6-.8.2,0,.4.5.3,1Z"/><path class="cls-9" d="m144.6,690.1c0,.5-.4.9-.6.8s-.4-.5-.3-1,.4-.9.6-.8c.2,0,.4.5.3,1Z"/><path class="cls-9" d="m144.4,691.1c0,.5-.4.9-.6.8-.2,0-.4-.5-.3-1s.4-.9.6-.8c.2,0,.4.5.3,1Z"/><path class="cls-9" d="m145.8,690.3c0,.5-.4.9-.6.8-.2,0-.4-.5-.3-1,0-.5.4-.9.6-.8.2,0,.4.5.3,1h0Z"/><path class="cls-9" d="m145.7,691.4c0,.5-.4.9-.6.8-.2,0-.4-.5-.3-1,0-.5.4-.9.6-.8.2,0,.4.5.3,1h0Z"/><path class="cls-9" d="m147.1,690.5c0,.5-.3.9-.6.8s-.4-.5-.3-1c0-.5.4-.9.6-.8.2,0,.4.5.3,1Z"/><path class="cls-9" d="m146.9,691.6c0,.5-.3.9-.6.8s-.4-.5-.3-1c0-.5.4-.9.6-.8.2,0,.4.5.3,1Z"/><path class="cls-9" d="m148.4,690.7c0,.5-.3.9-.6.8s-.4-.5-.3-1c0-.5.3-.9.6-.8s.4.5.3,1Z"/><path class="cls-9" d="m148.2,691.8c0,.5-.3.9-.6.8s-.4-.5-.3-1c0-.5.3-.9.6-.8s.4.5.3,1Z"/><path class="cls-9" d="m149.7,690.9c0,.5-.3.9-.6.8s-.4-.5-.3-1c0-.5.3-.9.6-.8s.4.5.3,1Z"/><path class="cls-9" d="m149.5,692c0,.5-.3.9-.6.8s-.4-.5-.3-1c0-.5.3-.9.6-.8s.4.5.3,1Z"/><path class="cls-9" d="m150.9,691.1c0,.5-.3.9-.6.8s-.4-.5-.3-1c0-.5.3-.9.6-.8s.4.5.3,1Z"/><path class="cls-9" d="m150.8,692.2c0,.5-.3.9-.6.8s-.4-.5-.3-1c0-.5.3-.9.6-.8s.4.5.3,1Z"/><path class="cls-9" d="m152.2,691.3c0,.5-.3.9-.6.8-.2,0-.4-.5-.3-1,0-.5.3-.9.6-.8.2,0,.4.5.3,1Z"/><path class="cls-9" d="m152.1,692.4c0,.5-.3.9-.6.8-.2,0-.4-.5-.3-1,0-.5.3-.9.6-.8.2,0,.4.5.3,1Z"/><path class="cls-9" d="m153.5,691.5c0,.5-.3.9-.6.8-.2,0-.4-.5-.3-1,0-.5.3-.9.6-.8.2,0,.4.5.3,1Z"/><path class="cls-9" d="m153.3,692.6c0,.5-.3.9-.6.8-.2,0-.4-.5-.3-1,0-.5.3-.9.6-.8.2,0,.4.5.3,1Z"/><path class="cls-9" d="m154.8,691.7c0,.5-.3.9-.6.8s-.4-.5-.3-1c0-.5.3-.9.6-.8s.4.5.3,1Z"/><path class="cls-9" d="m154.6,692.8c0,.5-.3.9-.6.8s-.4-.5-.3-1c0-.5.3-.9.6-.8s.4.5.3,1Z"/><path class="cls-9" d="m156,691.9c0,.5-.3.9-.6.8-.2,0-.4-.5-.3-1,0-.5.3-.9.6-.8.2,0,.4.5.3,1Z"/><path class="cls-9" d="m155.9,693c0,.5-.3.9-.6.8s-.4-.5-.3-1c0-.5.3-.9.6-.8s.4.5.3,1Z"/><path class="cls-9" d="m157.3,692.1c0,.5-.3.9-.6.8-.2,0-.4-.5-.3-1,0-.5.3-.9.6-.8.2,0,.4.5.3,1Z"/><path class="cls-9" d="m157.2,693.1c0,.5-.3.9-.6.8-.2,0-.4-.5-.3-1,0-.5.3-.9.6-.8.2,0,.4.5.3,1Z"/><path class="cls-9" d="m158.6,692.2c0,.5-.3.9-.6.8-.2,0-.4-.5-.3-1,0-.5.3-.9.6-.8.2,0,.4.5.3,1Z"/><path class="cls-9" d="m158.4,693.3c0,.5-.3.9-.6.8-.2,0-.4-.5-.3-1,0-.5.3-.9.6-.8.2,0,.4.5.3,1Z"/><path class="cls-9" d="m159.9,692.4c0,.5-.3.9-.6.8-.2,0-.4-.5-.3-1,0-.5.3-.9.6-.8.2,0,.4.5.3,1Z"/><path class="cls-9" d="m159.7,693.5c0,.5-.3.9-.6.8-.2,0-.4-.5-.3-1,0-.5.3-.9.6-.8.2,0,.4.5.3,1Z"/><path class="cls-9" d="m161.2,692.6c0,.5-.3.9-.6.8-.2,0-.4-.5-.3-1,0-.5.3-.9.6-.8.2,0,.4.5.3,1Z"/><path class="cls-9" d="m161,693.7c0,.5-.3.9-.6.8-.2,0-.4-.5-.3-1,0-.5.3-.9.6-.8.2,0,.4.5.3,1Z"/><path class="cls-9" d="m162.4,692.8c0,.5-.3.9-.6.8-.2,0-.4-.5-.3-1,0-.5.3-.9.6-.8.2,0,.4.5.3,1Z"/><path class="cls-9" d="m162.3,693.8c0,.5-.3.9-.6.8-.2,0-.4-.5-.3-1,0-.5.3-.9.6-.8.2,0,.4.5.3,1Z"/><path class="cls-9" d="m163.7,693c0,.5-.3.9-.6.8-.2,0-.4-.5-.3-1,0-.5.3-.9.6-.8.2,0,.4.5.3,1Z"/><path class="cls-9" d="m163.6,694c0,.5-.3.9-.6.8-.2,0-.4-.5-.3-1s.3-.9.6-.8c.2,0,.4.5.3,1Z"/><path class="cls-9" d="m165,693.1c0,.5-.3.9-.6.8-.2,0-.4-.5-.3-1,0-.5.3-.9.6-.8.2,0,.4.5.3,1Z"/><path class="cls-9" d="m164.8,694.2c0,.5-.3.9-.6.8-.2,0-.4-.5-.3-1,0-.5.3-.9.6-.8.2,0,.4.5.3,1Z"/><path class="cls-9" d="m166.3,693.3c0,.5-.3.9-.6.8s-.4-.5-.3-1c0-.5.3-.9.6-.8.2,0,.4.5.3,1h0Z"/><path class="cls-9" d="m166.1,694.4c0,.5-.3.9-.6.8-.2,0-.4-.5-.3-1,0-.5.3-.9.6-.8.2,0,.4.5.3,1Z"/><path class="cls-9" d="m167.5,693.5c0,.5-.3.9-.6.8-.2,0-.4-.5-.3-1,0-.5.3-.9.6-.8.2,0,.4.5.3,1Z"/><path class="cls-9" d="m167.4,694.5c0,.5-.3.9-.6.8-.2,0-.4-.5-.3-1,0-.5.3-.9.6-.8.2,0,.4.5.3,1Z"/><path class="cls-9" d="m168.8,693.6c0,.5-.3.9-.6.8-.2,0-.4-.5-.3-1,0-.5.3-.9.6-.8.2,0,.4.5.3,1Z"/><path class="cls-9" d="m168.7,694.7c0,.5-.3.9-.6.8-.2,0-.4-.5-.3-1,0-.5.3-.9.6-.8.2,0,.4.5.3,1Z"/><path class="cls-9" d="m170.1,693.8c0,.5-.3.9-.6.8-.2,0-.4-.5-.3-1,0-.5.3-.9.6-.8.2,0,.4.5.3,1Z"/><path class="cls-9" d="m170,694.9c0,.5-.3.9-.6.8-.2,0-.4-.5-.3-1,0-.5.3-.9.6-.8.2,0,.4.5.3,1Z"/><path class="cls-9" d="m171.4,693.9c0,.5-.3.9-.6.8-.2,0-.4-.5-.3-1,0-.5.3-.9.6-.8.2,0,.4.5.3,1Z"/><path class="cls-9" d="m171.3,695c0,.5-.3.9-.6.8-.2,0-.4-.5-.3-1,0-.5.3-.9.6-.8.2,0,.4.5.3,1Z"/><path class="cls-9" d="m172.7,694.1c0,.5-.3.9-.6.8-.2,0-.4-.5-.3-1,0-.5.3-.9.6-.8.2,0,.4.5.3,1Z"/><path class="cls-9" d="m172.5,695.2c0,.5-.3.9-.6.8-.2,0-.4-.5-.3-1s.3-.9.6-.8c.2,0,.4.5.3,1Z"/><path class="cls-9" d="m174,694.2c0,.5-.3.9-.6.8-.2,0-.4-.5-.3-1,0-.5.3-.9.6-.8.2,0,.4.5.3,1Z"/><path class="cls-9" d="m173.8,695.3c0,.5-.3.9-.6.8-.2,0-.4-.5-.3-1,0-.5.3-.9.6-.8s.4.5.3,1Z"/><path class="cls-9" d="m175.2,694.4c0,.5-.3.9-.6.8-.2,0-.4-.5-.3-1,0-.5.3-.9.6-.8.2,0,.4.5.3,1Z"/><path class="cls-9" d="m175.1,695.5c0,.5-.3.9-.6.8-.2,0-.4-.5-.3-1,0-.5.3-.9.6-.8.2,0,.4.5.3,1h0Z"/><path class="cls-9" d="m176.5,694.6c0,.5-.3.9-.6.8s-.4-.5-.3-1c0-.5.3-.9.6-.8.2,0,.4.5.3,1h0Z"/><path class="cls-9" d="m176.4,695.6c0,.5-.3.9-.6.8-.2,0-.4-.5-.3-1s.3-.9.6-.8.4.5.3,1Z"/><path class="cls-9" d="m177.8,694.7c0,.5-.3.9-.6.8-.2,0-.4-.5-.4-1,0-.5.3-.9.6-.8.2,0,.4.5.4,1Z"/><path class="cls-9" d="m177.7,695.8c0,.5-.3.9-.6.8-.2,0-.4-.5-.4-1,0-.5.3-.9.6-.8.2,0,.4.5.4,1Z"/><path class="cls-9" d="m179.1,694.9c0,.5-.3.9-.6.8-.2,0-.4-.5-.4-1,0-.5.3-.9.6-.8.2,0,.4.5.4,1Z"/><path class="cls-9" d="m179,695.9c0,.5-.3.9-.6.8-.2,0-.4-.5-.4-1,0-.5.3-.9.6-.8.2,0,.4.5.4,1Z"/><path class="cls-9" d="m180.4,695c0,.5-.3.9-.6.8s-.4-.5-.4-1c0-.5.3-.9.6-.8.2,0,.4.5.4,1Z"/><path class="cls-9" d="m180.2,696.1c0,.5-.3.9-.6.8s-.4-.5-.4-1c0-.5.3-.9.6-.8.2,0,.4.5.4,1Z"/><path class="cls-9" d="m181.6,695.1c0,.5-.3.9-.6.8s-.4-.5-.4-.9c0-.5.3-.9.6-.8.2,0,.4.5.4.9Z"/><path class="cls-9" d="m181.5,696.2c0,.5-.3.9-.6.8-.2,0-.4-.5-.4-.9,0-.5.3-.9.6-.8.2,0,.4.5.4.9Z"/><path class="cls-9" d="m182.9,695.3c0,.5-.3.9-.5.8-.2,0-.4-.5-.4-.9,0-.5.3-.9.6-.8.2,0,.4.5.4.9h0Z"/><path class="cls-9" d="m182.8,696.3c0,.5-.3.9-.6.8-.2,0-.4-.5-.4-.9,0-.5.3-.9.6-.8.2,0,.4.5.4.9Z"/><path class="cls-9" d="m184.2,695.4c0,.5-.3.9-.5.8s-.4-.5-.4-.9c0-.5.3-.9.5-.8.2,0,.4.5.4.9Z"/><path class="cls-9" d="m184.1,696.5c0,.5-.3.9-.5.8s-.4-.5-.4-.9c0-.5.3-.9.5-.8.2,0,.4.5.4.9Z"/><path class="cls-9" d="m185.5,695.5c0,.5-.3.9-.5.8-.2,0-.4-.5-.4-.9,0-.5.3-.9.5-.8.2,0,.4.5.4.9Z"/><path class="cls-9" d="m185.4,696.6c0,.5-.3.9-.5.8s-.4-.5-.4-.9c0-.5.3-.9.5-.8.2,0,.4.5.4.9Z"/><path class="cls-9" d="m186.8,695.7c0,.5-.3.9-.5.8-.2,0-.4-.5-.4-.9,0-.5.3-.9.5-.8.2,0,.4.5.4.9Z"/><path class="cls-9" d="m186.7,696.7c0,.5-.3.9-.5.8-.2,0-.4-.5-.4-1s.3-.9.5-.8c.2,0,.4.5.4.9h0Z"/><path class="cls-9" d="m188.1,695.8c0,.5-.3.9-.5.8-.2,0-.4-.5-.4-1s.3-.9.5-.8c.2,0,.4.5.4,1Z"/><path class="cls-9" d="m188,696.8c0,.5-.3.9-.5.8-.2,0-.4-.5-.4-1s.3-.9.5-.8c.2,0,.4.5.4,1Z"/><path class="cls-9" d="m189.3,695.9c0,.5-.3.9-.5.9s-.4-.5-.4-1,.3-.9.5-.9.4.5.4,1Z"/><path class="cls-9" d="m189.2,697c0,.5-.3.9-.5.9-.2,0-.4-.5-.4-1s.3-.9.5-.9.4.5.4,1Z"/><path class="cls-9" d="m190.6,696c0,.5-.3.9-.5.9-.2,0-.4-.5-.4-1s.3-.9.5-.9c.2,0,.4.5.4,1Z"/><path class="cls-9" d="m190.5,697.1c0,.5-.3.9-.5.9s-.4-.5-.4-1,.3-.9.5-.9.4.5.4,1Z"/><path class="cls-9" d="m191.9,696.2c0,.5-.3.9-.5.9s-.4-.5-.4-1c0-.5.3-.9.5-.9.2,0,.4.5.4,1Z"/><path class="cls-9" d="m191.8,697.2c0,.5-.3.9-.5.9s-.4-.5-.4-1c0-.5.3-.9.5-.9.2,0,.4.5.4,1Z"/><path class="cls-9" d="m193.2,696.3c0,.5-.3.9-.5.9-.2,0-.4-.5-.4-1,0-.5.3-.9.5-.9.2,0,.4.4.4.9h0Z"/><path class="cls-9" d="m193.1,697.4c0,.5-.3.9-.5.9-.2,0-.4-.5-.4-1,0-.5.3-.9.5-.9.2,0,.4.4.4.9h0Z"/><path class="cls-9" d="m194.5,696.4c0,.5-.3.9-.5.9s-.4-.4-.4-.9c0-.5.3-.9.5-.9s.4.4.4.9Z"/><path class="cls-9" d="m194.4,697.5c0,.5-.3.9-.5.9s-.4-.4-.4-.9c0-.5.3-.9.5-.9s.4.4.4.9Z"/><path class="cls-9" d="m195.8,696.5c0,.5-.3.9-.5.9s-.4-.4-.4-.9c0-.5.3-.9.5-.9s.4.4.4.9Z"/><path class="cls-9" d="m195.7,697.6c0,.5-.3.9-.5.9s-.4-.4-.4-.9c0-.5.3-.9.5-.9s.4.4.4.9Z"/><path class="cls-9" d="m197.1,696.6c0,.5-.3.9-.5.9s-.4-.4-.4-.9c0-.5.3-.9.5-.9s.4.4.4.9h0Z"/><path class="cls-9" d="m197,697.7c0,.5-.3.9-.5.9s-.4-.4-.4-.9c0-.5.3-.9.5-.9s.4.4.4.9Z"/><path class="cls-9" d="m198.3,696.7c0,.5-.3.9-.5.9s-.4-.4-.4-.9c0-.5.3-.9.5-.9s.4.4.4.9Z"/><path class="cls-9" d="m198.3,697.8c0,.5-.3.9-.5.9s-.4-.4-.4-.9.3-.9.5-.9.4.4.4.9h0Z"/><path class="cls-9" d="m199.6,696.8c0,.5-.3.9-.5.9s-.4-.4-.4-.9.3-.9.5-.9c.2,0,.4.4.4.9Z"/><path class="cls-9" d="m199.5,697.9c0,.5-.3.9-.5.9s-.4-.4-.4-.9.3-.9.5-.9c.2,0,.4.4.4.9Z"/><path class="cls-9" d="m200.9,696.9c0,.5-.3.9-.5.9s-.4-.4-.4-.9.3-.9.5-.9.4.4.4.9Z"/><path class="cls-9" d="m200.8,698c0,.5-.3.9-.5.9s-.4-.4-.4-.9.3-.9.5-.9.4.4.4.9Z"/><path class="cls-9" d="m202.2,697c0,.5-.3.9-.5.9s-.4-.4-.4-.9.3-.9.5-.9.4.4.4.9Z"/><path class="cls-9" d="m202.1,698.1c0,.5-.3.9-.5.9s-.4-.4-.4-.9.3-.9.5-.9.4.4.4.9Z"/><path class="cls-9" d="m203.5,697.1c0,.5-.3.9-.5.9s-.4-.4-.4-.9.3-.9.5-.9.4.4.4.9Z"/><path class="cls-9" d="m203.4,698.2c0,.5-.3.9-.5.9s-.4-.4-.4-.9.3-.9.5-.9.4.4.4.9Z"/><path class="cls-9" d="m204.8,697.2c0,.5-.3.9-.5.9s-.4-.4-.4-.9.3-.9.5-.9.4.4.4.9Z"/><path class="cls-9" d="m204.7,698.3c0,.5-.3.9-.5.9s-.4-.4-.4-.9.3-.9.5-.9.4.4.4.9Z"/><path class="cls-9" d="m206.1,697.3c0,.5-.3.9-.5.9-.2,0-.4-.4-.4-.9s.3-.9.5-.9c.2,0,.4.4.4.9Z"/><path class="cls-9" d="m206,698.4c0,.5-.3.9-.5.9s-.4-.4-.4-.9c0-.5.3-.9.5-.9s.4.4.4.9Z"/><path class="cls-9" d="m207.3,697.4c0,.5-.3.9-.5.9s-.4-.4-.4-.9c0-.5.3-.9.5-.9.2,0,.4.4.4.9Z"/><path class="cls-9" d="m207.3,698.5c0,.5-.3.9-.5.9-.2,0-.4-.4-.4-.9,0-.5.3-.9.5-.9.2,0,.4.4.4.9Z"/><path class="cls-9" d="m208.6,697.5c0,.5-.3.9-.5.9s-.4-.4-.4-.9.3-.9.5-.9.4.4.4.9Z"/><path class="cls-9" d="m208.6,698.6c0,.5-.3.9-.5.9-.2,0-.4-.4-.4-.9s.3-.9.5-.9.4.4.4.9h0Z"/><path class="cls-9" d="m209.9,697.6c0,.5-.3.9-.5.9-.2,0-.4-.4-.4-.9s.3-.9.5-.9.4.4.4.9Z"/><path class="cls-9" d="m209.9,698.6c0,.5-.3.9-.5.9-.2,0-.4-.4-.4-.9s.3-.9.5-.9.4.4.4.9Z"/><path class="cls-9" d="m211.2,697.6c0,.5-.3.9-.5.9s-.4-.4-.4-.9.3-.9.5-.9.4.4.4.9Z"/><path class="cls-9" d="m211.1,698.7c0,.5-.3.9-.5.9s-.4-.4-.4-.9c0-.5.3-.9.5-.9.2,0,.4.4.4.9Z"/><path class="cls-9" d="m212.5,697.7c0,.5-.3.9-.5.9-.2,0-.4-.4-.4-.9,0-.5.3-.9.5-.9.2,0,.4.4.4.9Z"/><path class="cls-9" d="m212.4,698.8c0,.5-.3.9-.5.9-.2,0-.4-.4-.4-.9,0-.5.3-.9.5-.9.2,0,.4.4.4.9Z"/><path class="cls-9" d="m213.8,697.8c0,.5-.3.9-.5.9-.2,0-.4-.4-.4-.9s.3-.9.5-.9.4.4.4.9Z"/><path class="cls-9" d="m213.7,698.9c0,.5-.3.9-.5.9s-.4-.4-.4-.9.3-.9.5-.9.4.4.4.9Z"/><path class="cls-9" d="m215.1,697.9c0,.5-.2.9-.5.9s-.4-.4-.4-.9.3-.9.5-.9c.2,0,.4.4.4.9Z"/><path class="cls-9" d="m215,699c0,.5-.2.9-.5.9s-.4-.4-.4-.9.3-.9.5-.9c.2,0,.4.4.4.9Z"/><path class="cls-9" d="m216.4,698c0,.5-.2.9-.5.9s-.4-.4-.4-.9.2-.9.5-.9.4.4.4.9Z"/><path class="cls-9" d="m216.3,699c0,.5-.2.9-.5.9-.2,0-.4-.4-.4-.9s.2-.9.5-.9.4.4.4.9Z"/><path class="cls-9" d="m217.7,698c0,.5-.2.9-.5.9-.2,0-.4-.4-.4-.9s.2-.9.5-.9.4.4.4.9Z"/><path class="cls-9" d="m217.6,699.1c0,.5-.2.9-.5.9s-.4-.4-.4-.9.2-.9.5-.9c.2,0,.4.4.4.9Z"/><path class="cls-9" d="m218.9,698.1c0,.5-.2.9-.5.9s-.4-.4-.4-.9.2-.9.5-.9.4.4.4.9Z"/><path class="cls-9" d="m218.9,699.2c0,.5-.2.9-.5.9s-.4-.4-.4-.9.2-.9.5-.9.4.4.4.9Z"/><path class="cls-9" d="m220.2,698.2c0,.5-.2.9-.5.9-.2,0-.4-.4-.4-.9s.2-.9.5-.9.4.4.4.9Z"/><path class="cls-9" d="m220.2,699.3c0,.5-.2.9-.5.9s-.4-.4-.4-.9.2-.9.5-.9.4.4.4.9h0Z"/><path class="cls-9" d="m221.5,698.3c0,.5-.2.9-.5.9-.2,0-.4-.4-.4-.9,0-.5.2-.9.5-.9.2,0,.4.4.4.9Z"/><path class="cls-9" d="m221.5,699.3c0,.5-.2.9-.5.9-.2,0-.4-.4-.4-.9,0-.5.2-.9.5-.9.2,0,.4.4.4.9Z"/><path class="cls-9" d="m222.8,698.3c0,.5-.2.9-.5.9-.2,0-.4-.4-.4-.9s.2-.9.5-.9c.2,0,.4.4.4.9Z"/><path class="cls-9" d="m222.8,699.4c0,.5-.2.9-.5.9s-.4-.4-.4-.9.2-.9.5-.9c.2,0,.4.4.4.9Z"/><path class="cls-9" d="m224.1,698.4c0,.5-.2.9-.5.9-.2,0-.4-.4-.4-.9s.2-.9.5-.9c.2,0,.4.4.4.9Z"/><path class="cls-9" d="m224,699.4c0,.5-.2.9-.5.9-.2,0-.4-.4-.4-.9s.2-.9.5-.9c.2,0,.4.4.4.9Z"/><path class="cls-9" d="m225.4,698.4c0,.5-.2.9-.5.9-.2,0-.4-.4-.4-.9s.2-.9.5-.9c.2,0,.4.4.4.9Z"/><path class="cls-9" d="m225.3,699.5c0,.5-.2.9-.5.9-.2,0-.4-.4-.4-.9s.2-.9.5-.9c.2,0,.4.4.4.9Z"/><path class="cls-9" d="m226.7,698.5c0,.5-.2.9-.5.9-.2,0-.4-.4-.4-.9s.2-.9.5-.9c.2,0,.4.4.4.9Z"/><path class="cls-9" d="m226.6,699.5c0,.5-.2.9-.5.9-.2,0-.4-.4-.4-.9,0-.5.2-.9.5-.9.2,0,.4.4.4.9Z"/><path class="cls-9" d="m228,698.5c0,.5-.2.9-.5.9-.2,0-.4-.4-.4-.9,0-.5.2-.9.5-.9.2,0,.4.4.4.9Z"/><path class="cls-9" d="m227.9,699.6c0,.5-.2.9-.5.9-.2,0-.4-.4-.4-.9s.2-.9.5-.9c.2,0,.4.4.4.9Z"/><path class="cls-9" d="m229.3,698.6c0,.5-.2.9-.5.9-.2,0-.4-.4-.4-.9s.2-.9.5-.9c.2,0,.4.4.4.9Z"/><path class="cls-9" d="m229.2,699.6c0,.5-.2.9-.5.9s-.4-.4-.4-.9.2-.9.5-.9c.2,0,.4.4.4.9Z"/><path class="cls-9" d="m230.5,698.6c0,.5-.2.9-.5.9-.2,0-.4-.4-.4-.9s.2-.9.5-.9c.2,0,.4.4.4.9Z"/><path class="cls-9" d="m230.5,699.7c0,.5-.2.9-.5.9-.2,0-.4-.4-.4-.9s.2-.9.5-.9c.2,0,.4.4.4.9Z"/><path class="cls-9" d="m231.8,698.7c0,.5-.2.9-.5.9-.2,0-.4-.4-.4-.9s.2-.9.5-.9c.2,0,.4.4.4.9Z"/><path class="cls-9" d="m231.8,699.7c0,.5-.2.9-.5.9-.2,0-.4-.4-.4-.9s.2-.9.5-.9c.2,0,.4.4.4.9Z"/><path class="cls-9" d="m233.1,698.7c0,.5-.2.9-.5.9-.2,0-.4-.4-.4-.9s.2-.9.5-.9c.2,0,.4.4.4.9Z"/><path class="cls-9" d="m233.1,699.8c0,.5-.2.9-.5.9-.2,0-.4-.4-.4-.9s.2-.9.5-.9c.2,0,.4.4.4.9Z"/><path class="cls-9" d="m234.4,698.8c0,.5-.2.9-.5.9-.2,0-.4-.4-.4-.9s.2-.9.5-.9c.2,0,.4.4.4.9Z"/><path class="cls-9" d="m234.4,699.8c0,.5-.2.9-.5.9-.2,0-.4-.4-.4-.9s.2-.9.5-.9c.2,0,.4.4.4.9Z"/><path class="cls-9" d="m235.7,698.8c0,.5-.2.9-.5.9s-.4-.4-.4-.9c0-.5.2-.9.5-.9.2,0,.4.4.4.9h0Z"/><path class="cls-9" d="m235.7,699.9c0,.5-.2.9-.5.9s-.4-.4-.4-.9.2-.9.5-.9c.2,0,.4.4.4.9Z"/><path class="cls-9" d="m237,698.8c0,.5-.2.9-.5.9s-.4-.4-.4-.9.2-.9.5-.9.4.4.4.9Z"/><path class="cls-9" d="m237,699.9c0,.5-.2.9-.5.9s-.4-.4-.4-.9.2-.9.5-.9.4.4.4.9Z"/><path class="cls-9" d="m238.3,698.8c0,.5-.2.9-.5.9s-.4-.4-.4-.9.2-.9.5-.9.4.4.4.9Z"/><path class="cls-9" d="m238.3,699.9c0,.5-.2.9-.5.9s-.4-.4-.4-.9.2-.9.5-.9.4.4.4.9h0Z"/><path class="cls-9" d="m239.6,698.9c0,.5-.2.9-.5.9s-.4-.4-.4-.9.2-.9.5-.9.4.4.4.9Z"/><path class="cls-9" d="m239.5,699.9c0,.5-.2.9-.5.9s-.4-.4-.4-.9.2-.9.5-.9.4.4.4.9Z"/><path class="cls-9" d="m240.9,698.9c0,.5-.2.9-.5.9s-.4-.4-.4-.9.2-.9.5-.9.4.4.4.9Z"/><path class="cls-9" d="m240.8,700c0,.5-.2.9-.5.9s-.4-.4-.4-.9.2-.9.5-.9.4.4.4.9Z"/><path class="cls-9" d="m242.2,698.9c0,.5-.2.9-.5.9s-.4-.4-.4-.9.2-.9.5-.9.4.4.4.9Z"/><path class="cls-9" d="m242.1,700c0,.5-.2.9-.5.9s-.4-.4-.4-.9.2-.9.5-.9.4.4.4.9Z"/><path class="cls-9" d="m243.4,698.9c0,.5-.2.9-.5.9s-.4-.4-.4-.9.2-.9.5-.9.4.4.4.9Z"/><path class="cls-9" d="m243.4,700c0,.5-.2.9-.5.9s-.5-.4-.4-.9c0-.5.2-.9.5-.9s.4.4.4.9Z"/><path class="cls-9" d="m244.7,699c0,.5-.2.9-.5.9s-.5-.4-.4-.9c0-.5.2-.9.5-.9s.4.4.4.9Z"/><path class="cls-9" d="m244.7,700c0,.5-.2.9-.5.9s-.5-.4-.4-.9c0-.5.2-.9.5-.9s.5.4.4.9Z"/><path class="cls-9" d="m246,699c0,.5-.2.9-.5.9s-.5-.4-.4-.9c0-.5.2-.9.5-.9s.5.4.4.9Z"/><path class="cls-9" d="m246,700.1c0,.5-.2.9-.5.9s-.5-.4-.4-.9c0-.5.2-.9.5-.9s.5.4.4.9h0Z"/><path class="cls-9" d="m247.3,699c0,.5-.2.9-.5.9s-.5-.4-.4-.9c0-.5.2-.9.5-.9s.5.4.4.9Z"/><path class="cls-9" d="m247.3,700.1c0,.5-.2.9-.5.9s-.5-.4-.4-.9c0-.5.2-.9.5-.9s.5.4.4.9Z"/><path class="cls-9" d="m248.6,699c0,.5-.2.9-.5.9s-.5-.4-.4-.9c0-.5.2-.9.5-.9s.5.4.4.9Z"/><path class="cls-9" d="m248.6,700.1c0,.5-.2.9-.5.9s-.5-.4-.4-.9c0-.5.2-.9.5-.9s.5.4.4.9Z"/><path class="cls-9" d="m249.9,699.1c0,.5-.2.9-.5.9s-.5-.4-.4-.9c0-.5.2-.9.5-.9s.5.4.4.9Z"/><path class="cls-9" d="m249.9,700.1c0,.5-.2.9-.5.9s-.5-.4-.4-.9c0-.5.2-.9.5-.9s.5.4.4.9Z"/><path class="cls-9" d="m251.2,699.1c0,.5-.2.9-.5.9s-.5-.4-.5-.9.2-.9.5-.9.5.4.5.9Z"/><path class="cls-9" d="m251.2,700.1c0,.5-.2.9-.5.9s-.5-.4-.5-.9.2-.9.5-.9.5.4.5.9Z"/><path class="cls-9" d="m252.5,699.1c0,.5-.2.9-.5.9s-.5-.4-.5-.9.2-.9.5-.9.5.4.5.9Z"/><path class="cls-9" d="m252.5,700.1c0,.5-.2.9-.5.9s-.5-.4-.5-.9.2-.9.5-.9.5.4.5.9Z"/><path class="cls-9" d="m253.8,699.1c0,.5-.2.9-.5.9s-.5-.4-.5-.9.2-.9.5-.9.5.4.5.9Z"/><path class="cls-9" d="m253.8,700.1c0,.5-.2.9-.5.9s-.5-.4-.5-.9.2-.9.5-.9.5.4.5.9Z"/><path class="cls-9" d="m255.1,699.1c0,.5-.2.9-.5.9s-.5-.4-.5-.9.2-.9.5-.9.5.4.5.9Z"/><path class="cls-9" d="m255.1,700.1c0,.5-.2.9-.5.9s-.5-.4-.5-.9.2-.9.5-.9.5.4.5.9Z"/><path class="cls-9" d="m256.3,699c0,.5-.2.9-.5.9s-.5-.4-.5-.9.2-.9.5-.9.5.4.5.9Z"/><path class="cls-9" d="m256.3,700.1c0,.5-.2.9-.5.9s-.5-.4-.5-.9.2-.9.5-.9.5.4.5.9Z"/><path class="cls-9" d="m257.6,699c0,.5-.2.9-.5.9s-.5-.4-.5-.9.2-.9.5-.9.5.4.5.9Z"/><path class="cls-9" d="m257.6,700.1c0,.5-.2.9-.5.9s-.5-.4-.5-.9.2-.9.5-.9.5.4.5.9Z"/><path class="cls-9" d="m258.9,699c0,.5-.2.9-.5.9s-.5-.4-.5-.9c0-.5.2-.9.5-.9s.5.4.5.9Z"/><path class="cls-9" d="m258.9,700.1c0,.5-.2.9-.5.9s-.5-.4-.5-.9c0-.5.2-.9.5-.9s.5.4.5.9Z"/><path class="cls-9" d="m260.2,699c0,.5-.2.9-.5.9s-.5-.4-.5-.9c0-.5.2-.9.5-.9s.5.4.5.9Z"/><path class="cls-9" d="m260.2,700.1c0,.5-.2.9-.5.9s-.5-.4-.5-.9.2-.9.5-.9.5.4.5.9Z"/><path class="cls-9" d="m261.5,699c0,.5-.2.9-.4.9s-.5-.4-.5-.9.2-.9.4-.9.5.4.5.9Z"/><path class="cls-9" d="m261.5,700.1c0,.5-.2.9-.5.9s-.5-.4-.5-.9.2-.9.5-.9.5.4.5.9Z"/><path class="cls-9" d="m262.8,699c0,.5-.2.9-.4.9s-.5-.4-.5-.9.2-.9.4-.9.5.4.5.9Z"/><path class="cls-9" d="m262.8,700.1c0,.5-.2.9-.4.9s-.5-.4-.5-.9.2-.9.4-.9.5.4.5.9Z"/><path class="cls-9" d="m264.1,699c0,.5-.2.9-.4.9s-.5-.4-.5-.9.2-.9.4-.9.5.4.5.9Z"/><path class="cls-9" d="m264.1,700.1c0,.5-.2.9-.4.9s-.5-.4-.5-.9.2-.9.4-.9.5.4.5.9Z"/><path class="cls-9" d="m265.4,699c0,.5-.2.9-.4.9s-.5-.4-.5-.9.2-.9.4-.9.5.4.5.9Z"/><path class="cls-9" d="m265.4,700.1c0,.5-.2.9-.4.9s-.5-.4-.5-.9.2-.9.4-.9.5.4.5.9Z"/><path class="cls-9" d="m266.7,699c0,.5-.2.9-.4.9-.2,0-.5-.4-.5-.9,0-.5.2-.9.4-.9.2,0,.5.4.5.9Z"/><path class="cls-9" d="m266.7,700.1c0,.5-.2.9-.4.9-.2,0-.5-.4-.5-.9,0-.5.2-.9.4-.9.2,0,.5.4.5.9Z"/><path class="cls-9" d="m268,699c0,.5-.2.9-.4.9-.2,0-.5-.4-.5-.9,0-.5.2-.9.4-.9.2,0,.5.4.5.9Z"/><path class="cls-9" d="m268,700c0,.5-.2.9-.4.9-.2,0-.5-.4-.5-.9s.2-.9.4-.9c.2,0,.5.4.5.9Z"/><path class="cls-9" d="m269.2,698.9c0,.5-.2.9-.4.9-.2,0-.5-.4-.5-.9,0-.5.2-.9.4-.9.2,0,.5.4.5.9Z"/><path class="cls-9" d="m269.3,700c0,.5-.2.9-.4.9-.2,0-.5-.4-.5-.9,0-.5.2-.9.4-.9.2,0,.5.4.5.9Z"/><path class="cls-9" d="m270.5,698.9c0,.5-.2.9-.4.9-.2,0-.5-.4-.5-.9,0-.5.2-.9.4-.9.2,0,.5.4.5.9Z"/><path class="cls-9" d="m270.6,700c0,.5-.2.9-.4.9-.2,0-.5-.4-.5-.9,0-.5.2-.9.4-.9.2,0,.5.4.5.9Z"/><path class="cls-9" d="m271.8,698.9c0,.5-.2.9-.4.9-.2,0-.5-.4-.5-.9s.2-.9.4-.9c.2,0,.5.4.5.9Z"/><path class="cls-9" d="m271.9,699.9c0,.5-.2.9-.4.9-.2,0-.5-.4-.5-.9s.2-.9.4-.9c.2,0,.5.4.5.9Z"/><path class="cls-9" d="m273.1,698.8c0,.5-.2.9-.4.9-.2,0-.5-.4-.5-.9s.2-.9.4-.9c.2,0,.5.4.5.9Z"/><path class="cls-9" d="m273.1,699.9c0,.5-.2.9-.4.9-.2,0-.5-.4-.5-.9s.2-.9.4-.9c.2,0,.5.4.5.9Z"/><path class="cls-9" d="m274.4,698.8c0,.5-.2.9-.4.9-.2,0-.5-.4-.5-.9,0-.5.2-.9.4-.9.2,0,.5.4.5.9h0Z"/><path class="cls-9" d="m274.4,699.9c0,.5-.2.9-.4.9-.2,0-.5-.4-.5-.9,0-.5.2-.9.4-.9.2,0,.5.4.5.9Z"/><path class="cls-9" d="m275.7,698.8c0,.5-.2.9-.4.9-.2,0-.5-.4-.5-.9,0-.5.2-.9.4-.9.2,0,.5.4.5.9Z"/><path class="cls-9" d="m275.7,699.8c0,.5-.2.9-.4.9-.2,0-.5-.4-.5-.9,0-.5.2-.9.4-.9.2,0,.5.4.5.9Z"/><path class="cls-9" d="m277,698.7c0,.5-.2.9-.4.9-.2,0-.5-.4-.5-.9,0-.5.2-.9.4-.9.2,0,.5.4.5.9Z"/><path class="cls-9" d="m277,699.8c0,.5-.2.9-.4.9-.2,0-.5-.4-.5-.9,0-.5.2-.9.4-.9.2,0,.5.4.5.9h0Z"/><path class="cls-9" d="m278.3,698.7c0,.5-.2.9-.4.9-.2,0-.5-.4-.5-.9,0-.5.2-.9.4-.9.2,0,.5.4.5.9Z"/><path class="cls-9" d="m278.3,699.8c0,.5-.2.9-.4.9-.2,0-.5-.4-.5-.9,0-.5.2-.9.4-.9.2,0,.5.4.5.9Z"/><path class="cls-9" d="m279.6,698.7c0,.5-.2.9-.4.9-.2,0-.5-.4-.5-.9,0-.5.2-.9.4-.9.2,0,.5.4.5.9Z"/><path class="cls-9" d="m279.6,699.7c0,.5-.2.9-.4.9-.2,0-.5-.4-.5-.9,0-.5.2-.9.4-.9.2,0,.5.4.5.9Z"/><path class="cls-9" d="m280.9,698.6c0,.5-.2.9-.4.9-.2,0-.5-.4-.5-.9,0-.5.2-.9.4-.9.2,0,.5.4.5.9Z"/><path class="cls-9" d="m280.9,699.7c0,.5-.2.9-.4.9-.2,0-.5-.4-.5-.9,0-.5.2-.9.4-.9.2,0,.5.4.5.9Z"/><path class="cls-9" d="m282.1,698.6c0,.5-.2.9-.4.9-.2,0-.5-.4-.5-.9,0-.5.2-.9.4-.9.2,0,.5.4.5.9Z"/><path class="cls-9" d="m282.2,699.7c0,.5-.2.9-.4.9-.2,0-.5-.4-.5-.9s.2-.9.4-.9c.2,0,.5.4.5.9Z"/><path class="cls-9" d="m283.4,698.5c0,.5-.2.9-.4.9-.2,0-.5-.4-.5-.9s.2-.9.4-.9c.2,0,.5.4.5.9Z"/><path class="cls-9" d="m283.5,699.6c0,.5-.2.9-.4.9-.2,0-.5-.4-.5-.9s.2-.9.4-.9c.2,0,.5.4.5.9Z"/><path class="cls-9" d="m284.7,698.5c0,.5-.2.9-.4.9-.2,0-.5-.4-.5-.9s.2-.9.4-.9c.2,0,.5.4.5.9Z"/><path class="cls-9" d="m284.8,699.5c0,.5-.2.9-.4.9-.2,0-.5-.4-.5-.9s.2-.9.4-.9c.2,0,.5.4.5.9Z"/><path class="cls-9" d="m286,698.4c0,.5-.2.9-.4.9-.2,0-.5-.4-.5-.9s.2-.9.4-.9c.2,0,.5.4.5.9Z"/><path class="cls-9" d="m286.1,699.5c0,.5-.2.9-.4.9-.2,0-.5-.4-.5-.9s.2-.9.4-.9c.2,0,.5.4.5.9Z"/><path class="cls-9" d="m287.3,698.3c0,.5-.2.9-.4.9-.2,0-.5-.4-.5-.9s.2-.9.4-.9c.2,0,.5.4.5.9Z"/><path class="cls-9" d="m287.3,699.4c0,.5-.2.9-.4.9-.2,0-.5-.4-.5-.9s.2-.9.4-.9.5.4.5.9Z"/><path class="cls-9" d="m288.6,698.3c0,.5-.2.9-.4.9-.2,0-.5-.4-.5-.9s.2-.9.4-.9c.2,0,.5.4.5.9Z"/><path class="cls-9" d="m288.6,699.3c0,.5-.2.9-.4.9-.2,0-.5-.4-.5-.9s.2-.9.4-.9c.2,0,.5.4.5.9Z"/><path class="cls-9" d="m289.9,698.2c0,.5-.2.9-.4.9-.2,0-.5-.4-.5-.9s.2-.9.4-.9c.2,0,.5.4.5.9Z"/><path class="cls-9" d="m289.9,699.3c0,.5-.2.9-.4.9-.2,0-.5-.4-.5-.9,0-.5.2-.9.4-.9.2,0,.5.4.5.9Z"/><path class="cls-9" d="m291.2,698.1c0,.5-.2.9-.4.9-.2,0-.5-.4-.5-.9,0-.5.2-.9.4-.9.2,0,.5.4.5.9Z"/><path class="cls-9" d="m291.2,699.2c0,.5-.2.9-.4.9-.2,0-.5-.4-.5-.9,0-.5.2-.9.4-.9.2,0,.5.4.5.9Z"/><path class="cls-9" d="m292.5,698.1c0,.5-.1.9-.4.9s-.5-.4-.5-.9.2-.9.4-.9c.2,0,.5.4.5.9Z"/><path class="cls-9" d="m292.5,699.1c0,.5-.1.9-.4.9-.2,0-.5-.4-.5-.9s.2-.9.4-.9.5.4.5.9Z"/><path class="cls-9" d="m293.7,698c0,.5-.1.9-.4.9s-.5-.4-.5-.9.1-.9.4-.9c.2,0,.5.4.5.9Z"/><path class="cls-9" d="m293.8,699.1c0,.5-.1.9-.4.9-.2,0-.5-.4-.5-.9s.1-.9.4-.9c.2,0,.5.4.5.9Z"/><path class="cls-9" d="m295,697.9c0,.5-.1.9-.4.9-.2,0-.5-.4-.5-.9s.1-.9.4-.9c.2,0,.5.4.5.9Z"/><path class="cls-9" d="m295.1,699c0,.5-.1.9-.4.9-.2,0-.5-.4-.5-.9s.1-.9.4-.9c.2,0,.5.4.5.9Z"/><path class="cls-9" d="m296.3,697.9c0,.5-.1.9-.4.9-.2,0-.5-.4-.5-.9s.1-.9.4-.9c.2,0,.5.4.5.9Z"/><path class="cls-9" d="m296.4,699c0,.5-.1.9-.4.9-.2,0-.5-.4-.5-.9,0-.5.1-.9.4-.9.2,0,.5.4.5.9Z"/><path class="cls-9" d="m297.6,697.8c0,.5-.1.9-.4.9-.2,0-.5-.4-.5-.9,0-.5.1-.9.4-.9.2,0,.5.4.5.9Z"/><path class="cls-9" d="m297.7,698.9c0,.5-.1.9-.4.9-.2,0-.5-.4-.5-.9,0-.5.1-.9.4-.9.2,0,.5.4.5.9h0Z"/><path class="cls-9" d="m298.9,697.8c0,.5-.1.9-.4.9-.2,0-.5-.4-.5-.9s.1-.9.4-.9c.2,0,.5.4.5.9Z"/><path class="cls-9" d="m299,698.8c0,.5-.1.9-.4.9-.2,0-.5-.4-.5-.9s.1-.9.4-.9c.2,0,.5.4.5.9Z"/><path class="cls-9" d="m300.2,697.7c0,.5-.1.9-.4.9s-.5-.4-.5-.9.1-.9.4-.9c.2,0,.5.4.5.9Z"/><path class="cls-9" d="m300.3,698.7c0,.5-.1.9-.4.9s-.5-.4-.5-.9.1-.9.4-.9c.2,0,.5.4.5.9Z"/><path class="cls-9" d="m301.5,697.6c0,.5-.1.9-.4.9s-.5-.4-.5-.9.1-.9.4-.9.5.4.5.9Z"/><path class="cls-9" d="m301.5,698.6c0,.5-.1.9-.4.9s-.5-.4-.5-.9.1-.9.4-.9.5.4.5.9Z"/><path class="cls-9" d="m302.8,697.5c0,.5-.1.9-.4.9s-.5-.4-.5-.9.1-.9.4-.9.5.4.5.9Z"/><path class="cls-9" d="m302.8,698.5c0,.5-.1.9-.4.9s-.5-.4-.5-.9.1-.9.4-.9.5.4.5.9Z"/><path class="cls-9" d="m304,697.4c0,.5-.1.9-.4.9s-.5-.4-.5-.9.1-.9.4-.9.5.4.5.9Z"/><path class="cls-9" d="m304.1,698.4c0,.5-.1.9-.4.9s-.5-.4-.5-.9.1-.9.4-.9.5.4.5.9Z"/><path class="cls-9" d="m305.3,697.3c0,.5-.1.9-.4.9s-.5-.4-.5-.9.1-.9.4-.9.5.4.5.9Z"/><path class="cls-9" d="m305.4,698.3c0,.5-.1.9-.4.9s-.5-.4-.5-.9.1-.9.4-.9.5.4.5.9Z"/><path class="cls-9" d="m306.6,697.2c0,.5-.1.9-.4.9s-.5-.4-.5-.9c0-.5.1-.9.4-.9s.5.4.5.9Z"/><path class="cls-9" d="m306.7,698.3c0,.5-.1.9-.4.9s-.5-.4-.5-.9c0-.5.1-.9.4-.9s.5.4.5.9Z"/><path class="cls-9" d="m307.9,697.1c0,.5-.1.9-.4.9s-.5-.4-.5-.9c0-.5.1-.9.4-.9.2,0,.5.4.5.9Z"/><path class="cls-9" d="m308,698.2c0,.5-.1.9-.4.9s-.5-.4-.5-.9c0-.5.1-.9.4-.9.2,0,.5.4.5.9Z"/><path class="cls-9" d="m309.2,697c0,.5-.1.9-.4.9s-.5-.4-.5-.9c0-.5.1-.9.4-.9s.5.4.5.9Z"/><path class="cls-9" d="m309.3,698.1c0,.5-.1.9-.4.9s-.5-.4-.5-.9c0-.5.1-.9.4-.9s.5.4.5.9Z"/><path class="cls-9" d="m310.5,696.9c0,.5-.1.9-.4.9s-.5-.4-.5-.9c0-.5.1-.9.4-.9s.5.4.5.9Z"/><path class="cls-9" d="m310.6,698c0,.5-.1.9-.4.9s-.5-.4-.5-.9c0-.5.1-.9.4-.9s.5.4.5.9Z"/><path class="cls-9" d="m311.8,696.8c0,.5-.1.9-.4.9-.2,0-.5-.4-.5-.9,0-.5.1-.9.4-.9.2,0,.5.4.5.9Z"/><path class="cls-9" d="m311.9,697.9c0,.5-.1.9-.4.9-.2,0-.5-.4-.5-.9,0-.5.1-.9.4-.9.2,0,.5.4.5.9Z"/><path class="cls-9" d="m313.1,696.7c0,.5-.1.9-.4.9-.2,0-.5-.4-.5-.9,0-.5.1-.9.4-.9.2,0,.5.4.5.9Z"/><path class="cls-9" d="m313.1,697.8c0,.5-.1.9-.4.9-.2,0-.5-.4-.5-.9,0-.5.1-.9.4-.9.2,0,.5.4.5.9Z"/><path class="cls-9" d="m314.3,696.6c0,.5-.1.9-.4.9-.2,0-.5-.4-.5-.9,0-.5.1-.9.4-.9.2,0,.5.4.5.9Z"/><path class="cls-9" d="m314.4,697.7c0,.5-.1.9-.4.9-.2,0-.5-.4-.5-.9,0-.5.1-.9.4-.9.2,0,.5.4.5.9Z"/><path class="cls-9" d="m315.6,696.5c0,.5-.1.9-.4.9s-.5-.4-.5-.9c0-.5.1-.9.4-.9.2,0,.5.4.5.9Z"/><path class="cls-9" d="m315.7,697.6c0,.5-.1.9-.4.9-.2,0-.5-.4-.5-.9s.1-.9.4-.9.5.4.5.9Z"/><path class="cls-9" d="m316.9,696.4c0,.5-.1.9-.4,1-.2,0-.5-.4-.5-.9,0-.5.1-.9.4-1,.2,0,.5.4.5.9Z"/><path class="cls-9" d="m317,697.5c0,.5-.1.9-.4,1-.2,0-.5-.4-.5-.9s.1-.9.4-1c.2,0,.5.4.5.9Z"/><path class="cls-9" d="m318.2,696.3c0,.5-.1.9-.4,1-.2,0-.5-.4-.5-.9s.1-.9.4-1c.2,0,.5.4.5.9Z"/><path class="cls-9" d="m318.3,697.3c0,.5-.1.9-.4,1-.2,0-.5-.4-.5-.9s.1-.9.4-1c.2,0,.5.4.5.9Z"/><path class="cls-9" d="m319.5,696.1c0,.5-.1.9-.4,1-.2,0-.5-.4-.5-.9s.1-.9.4-.9.5.4.5.9h0Z"/><path class="cls-9" d="m319.6,697.2c0,.5-.1.9-.4,1-.2,0-.5-.4-.5-.9s.1-.9.4-1c.2,0,.5.4.5.9Z"/><path class="cls-9" d="m320.8,696c0,.5-.1.9-.4.9s-.5-.4-.5-.9c0-.5.1-.9.4-1,.2,0,.5.4.5.9h0Z"/><path class="cls-9" d="m320.9,697.1c0,.5-.1.9-.4.9s-.5-.4-.5-.9c0-.5.1-.9.4-.9s.5.4.5.9Z"/><path class="cls-9" d="m322.1,695.9c0,.5-.1.9-.4.9-.2,0-.5-.4-.5-.9,0-.5.1-.9.4-.9.2,0,.5.4.5.9Z"/><path class="cls-9" d="m322.2,697c0,.5-.1.9-.4.9s-.5-.4-.5-.9c0-.5.1-.9.4-.9s.5.4.5.9Z"/><path class="cls-9" d="m323.3,695.8c0,.5-.1.9-.4.9s-.5-.4-.5-.9c0-.5.1-.9.4-.9.2,0,.5.4.5.9Z"/><path class="cls-9" d="m323.4,696.8c0,.5-.1.9-.4.9s-.5-.4-.5-.9c0-.5.1-.9.4-.9.2,0,.5.4.5.9Z"/><path class="cls-9" d="m324.6,695.6c0,.5-.1.9-.4.9s-.5-.4-.5-.9c0-.5.1-.9.4-.9s.5.4.5.9Z"/><path class="cls-9" d="m324.7,696.7c0,.5-.1.9-.4.9s-.5-.4-.5-.9c0-.5.1-.9.4-.9s.5.4.5.9Z"/><path class="cls-9" d="m325.9,695.5c0,.5-.1.9-.4.9s-.5-.4-.5-.9c0-.5.1-.9.4-.9s.5.4.5.9Z"/><path class="cls-9" d="m326,696.6c0,.5-.1.9-.4.9s-.5-.4-.5-.9c0-.5.1-.9.4-.9s.5.4.5.9Z"/><path class="cls-9" d="m327.2,695.4c0,.5-.1.9-.4.9s-.5-.4-.5-.9c0-.5.1-.9.4-.9s.5.4.5.9Z"/><path class="cls-9" d="m327.3,696.5c0,.5-.1.9-.4.9s-.5-.4-.5-.9.1-.9.4-.9.5.4.5.9Z"/><path class="cls-9" d="m328.5,695.3c0,.5-.1.9-.4.9s-.5-.4-.5-.9c0-.5.1-.9.4-.9s.5.4.5.9Z"/><path class="cls-9" d="m328.6,696.3c0,.5-.1.9-.4.9s-.5-.4-.5-.9c0-.5.1-.9.4-.9s.5.4.5.9Z"/><path class="cls-9" d="m329.8,695.1c0,.5-.1.9-.4.9-.2,0-.5-.4-.5-.9,0-.5.1-.9.4-.9.2,0,.5.4.5.9Z"/><path class="cls-9" d="m329.9,696.2c0,.5-.1.9-.4.9s-.5-.4-.5-.9c0-.5.1-.9.4-.9s.5.4.5.9Z"/><path class="cls-9" d="m331,695c0,.5-.1.9-.4.9s-.5-.4-.5-.9c0-.5.1-.9.4-.9.2,0,.5.4.5.8h0Z"/><path class="cls-9" d="m331.2,696.1c0,.5-.1.9-.4.9s-.5-.4-.5-.9c0-.5.1-.9.4-.9.2,0,.5.4.5.9Z"/><path class="cls-9" d="m332.3,694.9c0,.5-.1.9-.4.9s-.5-.4-.5-.8.1-.9.4-.9.5.4.5.8Z"/><path class="cls-9" d="m332.4,695.9c0,.5-.1.9-.4.9s-.5-.4-.5-.8c0-.5.1-.9.4-.9s.5.4.5.8Z"/><path class="cls-9" d="m333.6,694.8c0,.5-.1.9-.4,1-.2,0-.5-.4-.5-.8,0-.5.1-.9.4-.9s.5.4.5.8h0Z"/><path class="cls-9" d="m333.7,695.8c0,.5-.1.9-.4,1-.2,0-.5-.4-.5-.8,0-.5.1-.9.4-.9s.5.4.5.8h0Z"/><path class="cls-9" d="m334.9,694.6c0,.5-.1.9-.4,1s-.5-.3-.5-.8c0-.5.1-.9.4-1s.5.3.5.8Z"/><path class="cls-9" d="m335,695.7c0,.5-.1.9-.4,1s-.5-.3-.5-.8c0-.5.1-.9.4-1s.5.3.5.8Z"/><path class="cls-9" d="m336.2,694.4c0,.5-.1.9-.4,1s-.5-.3-.5-.8c0-.5.1-.9.4-1s.5.3.5.8Z"/><path class="cls-9" d="m336.3,695.5c0,.5-.1.9-.4,1s-.5-.3-.5-.8c0-.5.1-.9.4-1s.5.3.5.8Z"/><path class="cls-9" d="m337.5,694.3c0,.5-.1.9-.3,1-.2,0-.5-.3-.5-.8,0-.5.1-.9.3-1,.2,0,.5.3.5.8Z"/><path class="cls-9" d="m337.6,695.3c0,.5-.1.9-.3,1-.2,0-.5-.3-.5-.8,0-.5.1-.9.3-1,.2,0,.5.3.5.8Z"/><path class="cls-9" d="m338.7,694.1c0,.5,0,.9-.3,1s-.5-.3-.5-.8c0-.5,0-.9.3-1s.5.3.5.8Z"/><path class="cls-9" d="m338.9,695.2c0,.5,0,.9-.3,1s-.5-.3-.5-.8c0-.5.1-.9.3-1,.2,0,.5.3.5.8Z"/><path class="cls-9" d="m340,694c0,.5,0,.9-.3,1s-.5-.3-.6-.8c0-.5,0-.9.3-1s.5.3.6.8Z"/><path class="cls-9" d="m340.1,695c0,.5,0,.9-.3,1s-.5-.3-.6-.8c0-.5,0-.9.3-1s.5.3.6.8Z"/><path class="cls-9" d="m341.3,693.8c0,.5,0,.9-.3,1s-.5-.3-.6-.8c0-.5,0-.9.3-1s.5.3.6.8Z"/><path class="cls-9" d="m341.4,694.9c0,.5,0,.9-.3,1s-.5-.3-.6-.8c0-.5,0-.9.3-1s.5.3.6.8Z"/><path class="cls-9" d="m342.6,693.6c0,.5,0,.9-.3,1s-.5-.3-.6-.8c0-.5,0-.9.3-1s.5.3.6.8Z"/><path class="cls-9" d="m342.7,694.7c0,.5,0,.9-.3,1s-.5-.3-.6-.8c0-.5,0-.9.3-1s.5.3.6.8Z"/><path class="cls-9" d="m343.9,693.5c0,.5,0,.9-.3,1s-.5-.3-.6-.8,0-.9.3-1,.5.3.6.8Z"/><path class="cls-9" d="m344,694.5c0,.5,0,.9-.3,1s-.5-.3-.6-.8c0-.5,0-.9.3-1s.5.3.6.8Z"/><path class="cls-9" d="m345.1,693.3c0,.5,0,.9-.3,1-.2,0-.5-.3-.6-.8,0-.5,0-.9.3-1,.2,0,.5.3.6.8Z"/><path class="cls-9" d="m345.3,694.4c0,.5,0,.9-.3,1s-.5-.3-.6-.8c0-.5,0-.9.3-1,.2,0,.5.3.6.8Z"/><path class="cls-9" d="m346.4,693.2c0,.5,0,.9-.3,1s-.5-.3-.6-.8c0-.5,0-.9.3-1,.2,0,.5.3.6.8Z"/><path class="cls-9" d="m346.6,694.2c0,.5,0,.9-.3,1s-.5-.3-.6-.8c0-.5,0-.9.3-1,.2,0,.5.3.6.8Z"/><path class="cls-9" d="m347.7,693c0,.5,0,.9-.3,1s-.5-.3-.6-.8c0-.5,0-.9.3-1s.5.3.6.8Z"/><path class="cls-9" d="m347.8,694.1c0,.5,0,.9-.3,1s-.5-.3-.6-.8c0-.5,0-.9.3-1s.5.3.6.8Z"/><path class="cls-9" d="m349,692.8c0,.5,0,.9-.3,1s-.5-.3-.6-.8c0-.5,0-.9.3-1s.5.3.6.8Z"/><path class="cls-9" d="m349.1,693.9c0,.5,0,.9-.3,1s-.5-.3-.6-.8c0-.5,0-.9.3-1s.5.3.6.8Z"/><path class="cls-9" d="m350.3,692.7c0,.5,0,.9-.3,1s-.5-.3-.6-.8c0-.5,0-.9.3-1s.5.3.6.8Z"/><path class="cls-9" d="m350.4,693.7c0,.5,0,.9-.3,1s-.5-.3-.6-.8c0-.5,0-.9.3-1s.5.3.6.8Z"/><path class="cls-9" d="m351.5,692.5c0,.5,0,.9-.3,1s-.5-.3-.6-.8c0-.5,0-.9.3-1s.5.3.6.8Z"/><path class="cls-9" d="m351.7,693.6c0,.5,0,.9-.3,1s-.5-.3-.6-.8c0-.5,0-.9.3-1s.5.3.6.8Z"/><path class="cls-9" d="m352.8,692.3c0,.5,0,.9-.3,1-.2,0-.5-.3-.6-.8,0-.5,0-.9.3-1,.2,0,.5.3.6.8Z"/><path class="cls-9" d="m353,693.4c0,.5,0,.9-.3,1-.2,0-.5-.3-.6-.8,0-.5,0-.9.3-1,.2,0,.5.3.6.8Z"/><path class="cls-9" d="m354.1,692.1c0,.5,0,.9-.3,1-.2,0-.5-.3-.6-.8,0-.5,0-.9.3-1,.2,0,.5.3.6.8Z"/><path class="cls-9" d="m354.2,693.2c0,.5,0,.9-.3,1-.2,0-.5-.3-.6-.8,0-.5,0-.9.3-1,.2,0,.5.3.6.8Z"/><path class="cls-9" d="m355.4,691.9c0,.5,0,.9-.3,1-.2,0-.5-.3-.6-.8,0-.5,0-.9.3-1,.2,0,.5.3.6.8Z"/><path class="cls-9" d="m355.5,693c0,.5,0,.9-.3,1-.2,0-.5-.3-.6-.8,0-.5,0-.9.3-1,.2,0,.5.3.6.8Z"/><path class="cls-9" d="m356.6,691.8c0,.5,0,.9-.3,1-.2,0-.5-.3-.6-.8,0-.5,0-.9.3-1,.2,0,.5.3.6.8Z"/><path class="cls-9" d="m356.8,692.8c0,.5,0,.9-.3,1-.2,0-.5-.3-.6-.8,0-.5,0-.9.3-1,.2,0,.5.3.6.8Z"/><path class="cls-9" d="m357.9,691.6c0,.5,0,.9-.3,1-.2,0-.5-.3-.6-.8,0-.5,0-.9.3-1,.2,0,.5.3.6.8Z"/><path class="cls-9" d="m358.1,692.6c0,.5,0,.9-.3,1-.2,0-.5-.3-.6-.8,0-.5,0-.9.3-1,.2,0,.5.3.6.8Z"/><path class="cls-9" d="m359.2,691.4c0,.5,0,.9-.3,1-.2,0-.5-.3-.6-.8,0-.5,0-.9.3-1,.2,0,.5.3.6.8Z"/><path class="cls-9" d="m359.4,692.4c0,.5,0,.9-.3,1-.2,0-.5-.3-.6-.8,0-.5,0-.9.3-1,.2,0,.5.3.6.8Z"/><path class="cls-9" d="m360.5,691.2c0,.5,0,.9-.3,1-.2,0-.5-.3-.6-.8,0-.5,0-.9.3-1,.2,0,.5.3.6.8Z"/><path class="cls-9" d="m360.6,692.2c0,.5,0,.9-.3,1-.2,0-.5-.3-.6-.8,0-.5,0-.9.3-1,.2,0,.5.3.6.8Z"/><path class="cls-9" d="m361.7,691c0,.5,0,.9-.3,1-.2,0-.5-.3-.6-.8,0-.5,0-.9.3-1,.2,0,.5.3.6.8Z"/><path class="cls-9" d="m361.9,692c0,.5,0,.9-.3,1-.2,0-.5-.3-.6-.8,0-.5,0-.9.3-1,.2,0,.5.3.6.8Z"/><path class="cls-9" d="m363,690.8c0,.5,0,.9-.3,1-.2,0-.5-.3-.6-.8,0-.5,0-.9.3-1,.2,0,.5.3.6.8Z"/><path class="cls-9" d="m363.2,691.9c0,.5,0,.9-.3,1-.2,0-.5-.3-.6-.8,0-.5,0-.9.3-1,.2,0,.5.3.6.8Z"/><path class="cls-9" d="m364.3,690.6c0,.5,0,.9-.3,1-.2,0-.5-.3-.6-.8,0-.5,0-.9.3-1,.2,0,.5.3.6.8Z"/><path class="cls-9" d="m364.5,691.7c0,.5,0,.9-.3,1-.2,0-.5-.3-.6-.8,0-.5,0-.9.3-1,.2,0,.5.3.6.8Z"/><path class="cls-9" d="m365.6,690.4c0,.5,0,.9-.3,1-.2,0-.5-.3-.6-.8,0-.5,0-.9.3-1,.2,0,.5.3.6.8Z"/><path class="cls-9" d="m365.7,691.5c0,.5,0,.9-.3,1-.2,0-.5-.3-.6-.8,0-.5,0-.9.3-1,.2,0,.5.3.6.8Z"/><path class="cls-9" d="m366.8,690.2c0,.5,0,.9-.3,1-.2,0-.5-.3-.6-.8,0-.5,0-.9.3-1,.2,0,.5.3.6.8Z"/><path class="cls-9" d="m367,691.3c0,.5,0,.9-.3,1-.2,0-.5-.3-.6-.8,0-.5,0-.9.3-1,.2,0,.5.3.6.8Z"/><path class="cls-9" d="m368.1,690c0,.5,0,.9-.3,1-.2,0-.5-.3-.6-.8s0-.9.3-1c.2,0,.5.3.6.8Z"/><path class="cls-9" d="m368.3,691.1c0,.5,0,.9-.3,1-.2,0-.5-.3-.6-.8,0-.5,0-.9.3-1,.2,0,.5.3.6.8Z"/><path class="cls-9" d="m369.4,689.8c0,.5,0,.9-.3,1-.2,0-.5-.3-.6-.8,0-.5,0-.9.3-1,.2,0,.5.3.6.8Z"/><path class="cls-9" d="m369.6,690.9c0,.5,0,.9-.3,1-.2,0-.5-.3-.6-.8,0-.5,0-.9.3-1,.2,0,.5.3.6.8Z"/><path class="cls-9" d="m370.7,689.6c0,.5,0,.9-.3,1s-.5-.3-.6-.8,0-.9.3-1c.2,0,.5.3.6.8Z"/><path class="cls-9" d="m370.8,690.7c0,.5,0,.9-.3,1s-.5-.3-.6-.8,0-.9.3-1,.5.3.6.8Z"/><path class="cls-9" d="m371.9,689.4c0,.5,0,.9-.3,1s-.5-.3-.6-.8,0-.9.3-1c.2,0,.5.3.6.8Z"/><path class="cls-9" d="m372.1,690.5c0,.5,0,.9-.3,1s-.5-.3-.6-.8,0-.9.3-1,.5.3.6.8Z"/><path class="cls-9" d="m373.2,689.2c0,.5,0,.9-.3,1-.2,0-.5-.3-.6-.8s0-.9.3-1c.2,0,.5.3.6.8Z"/><path class="cls-9" d="m373.4,690.2c0,.5,0,.9-.3,1-.2,0-.5-.3-.6-.8,0-.5,0-.9.3-1,.2,0,.5.3.6.8Z"/><path class="cls-9" d="m374.5,688.9c0,.5,0,.9-.3,1-.2,0-.5-.3-.6-.8s0-.9.3-1c.2,0,.5.3.6.8Z"/><path class="cls-9" d="m374.7,690c0,.5,0,.9-.3,1-.2,0-.5-.3-.6-.8,0-.5,0-.9.3-1,.2,0,.5.3.6.8Z"/><path class="cls-9" d="m375.8,688.7c0,.5,0,.9-.3,1-.2,0-.5-.3-.6-.8,0-.5,0-.9.3-1,.2,0,.5.3.6.8Z"/><path class="cls-9" d="m375.9,689.8c0,.5,0,.9-.3,1-.2,0-.5-.3-.6-.8,0-.5,0-.9.3-1,.2,0,.5.3.6.8Z"/><path class="cls-9" d="m377,688.5c0,.5,0,.9-.3,1s-.5-.3-.6-.8,0-.9.3-1,.5.3.6.8Z"/><path class="cls-9" d="m377.2,689.5c0,.5,0,.9-.3,1s-.5-.3-.6-.8c0-.5,0-.9.3-1s.5.3.6.8Z"/><path class="cls-9" d="m378.3,688.3c0,.5,0,.9-.3,1s-.5-.3-.6-.8c0-.5,0-.9.3-1,.2,0,.5.3.6.8Z"/><path class="cls-9" d="m378.5,689.3c0,.5,0,.9-.3,1s-.5-.3-.6-.8c0-.5,0-.9.3-1s.5.3.6.8Z"/><path class="cls-9" d="m379.6,688c0,.5,0,.9-.3,1s-.5-.3-.6-.8c0-.5,0-.9.3-1s.5.3.6.8Z"/><path class="cls-9" d="m379.8,689.1c0,.5,0,.9-.3,1s-.5-.3-.6-.8c0-.5,0-.9.3-1s.5.3.6.8Z"/><path class="cls-9" d="m380.8,687.8c0,.5,0,.9-.3,1-.2,0-.5-.3-.6-.8,0-.5,0-.9.3-1,.2,0,.5.3.6.8Z"/><path class="cls-9" d="m381,688.9c0,.5,0,.9-.3,1s-.5-.3-.6-.8,0-.9.3-1,.5.3.6.8Z"/><path class="cls-9" d="m382.1,687.6c0,.5,0,.9-.3,1-.2,0-.5-.3-.6-.8s0-.9.3-1c.2,0,.5.3.6.8Z"/><path class="cls-9" d="m382.3,688.6c0,.5,0,.9-.3,1-.2,0-.5-.3-.6-.8s0-.9.3-1c.2,0,.5.3.6.8Z"/><path class="cls-9" d="m383.4,687.4c0,.5,0,.9-.3,1-.2,0-.5-.3-.6-.8s0-.9.3-1c.2,0,.5.3.6.8Z"/><path class="cls-9" d="m383.6,688.4c0,.5,0,.9-.3,1-.2,0-.5-.3-.6-.8s0-.9.3-1c.2,0,.5.3.6.8Z"/><path class="cls-9" d="m384.6,687.1c0,.5,0,.9-.3,1-.2,0-.5-.3-.6-.8s0-.9.3-1c.2,0,.5.3.6.8Z"/><path class="cls-9" d="m384.8,688.2c0,.5,0,.9-.3,1-.2,0-.5-.3-.6-.8s0-.9.3-1c.2,0,.5.3.6.8Z"/><path class="cls-9" d="m385.9,686.9c0,.5,0,.9-.3,1-.2,0-.5-.3-.6-.8s0-.9.3-1c.2,0,.5.3.6.8Z"/><path class="cls-9" d="m386.1,688c0,.5,0,.9-.3,1-.2,0-.5-.3-.6-.8s0-.9.3-1c.2,0,.5.3.6.8Z"/><path class="cls-9" d="m387.2,686.7c0,.5,0,.9-.3,1-.2,0-.5-.3-.6-.8s0-.9.3-1c.2,0,.5.3.6.8Z"/><path class="cls-9" d="m387.4,687.7c0,.5,0,.9-.3,1-.2,0-.5-.3-.6-.8s0-.9.3-1c.2,0,.5.3.6.8Z"/><path class="cls-9" d="m388.5,686.5c0,.5,0,.9-.3,1-.2,0-.5-.3-.6-.8s0-.9.3-1c.2,0,.5.3.6.8Z"/><path class="cls-9" d="m388.7,687.5c0,.5,0,.9-.3,1-.2,0-.5-.3-.6-.8s0-.9.3-1c.2,0,.5.3.6.8Z"/><path class="cls-9" d="m389.7,686.2c0,.5,0,.9-.3,1s-.5-.3-.6-.8,0-.9.3-1,.5.3.6.8Z"/><path class="cls-9" d="m389.9,687.2c.1.5,0,.9-.3,1s-.5-.3-.6-.8,0-.9.3-1,.5.3.6.8Z"/><path class="cls-9" d="m391,685.9c.1.5,0,.9-.3,1-.2,0-.5-.3-.6-.8s0-.9.3-1,.5.3.6.8Z"/><path class="cls-9" d="m391.2,687c.1.5,0,.9-.3,1-.2,0-.5-.3-.6-.8s0-.9.3-1,.5.3.6.8Z"/><path class="cls-9" d="m392.3,685.7c.1.5,0,.9-.3,1-.2,0-.5-.3-.6-.8s0-.9.3-1c.2,0,.5.3.6.8Z"/><path class="cls-9" d="m392.5,686.7c.1.5,0,.9-.3,1-.2,0-.5-.3-.6-.8s0-.9.3-1c.2,0,.5.3.6.8Z"/><path class="cls-9" d="m393.5,685.4c.1.5,0,.9-.3,1-.2,0-.5-.3-.6-.8s0-.9.3-1c.2,0,.5.3.6.8Z"/><path class="cls-9" d="m393.7,686.5c.1.5,0,.9-.3,1-.2,0-.5-.3-.6-.8s0-.9.3-1c.2,0,.5.3.6.8Z"/><path class="cls-9" d="m394.8,685.2c.1.5,0,.9-.3,1-.2,0-.5-.3-.6-.8s0-.9.3-1c.2,0,.5.3.6.8Z"/><path class="cls-9" d="m395,686.2c.1.5,0,.9-.3,1s-.5-.3-.6-.8,0-.9.3-1c.2,0,.5.3.6.8Z"/><path class="cls-9" d="m396,684.9c.1.5,0,.9-.3,1-.2,0-.5-.3-.6-.8s0-.9.3-1c.2,0,.5.3.6.8Z"/><path class="cls-9" d="m396.3,685.9c.1.5,0,.9-.3,1-.2,0-.5-.3-.6-.8s0-.9.3-1c.2,0,.5.3.6.8Z"/><path class="cls-9" d="m397.3,684.6c.1.5,0,.9-.3,1-.2,0-.5-.3-.6-.8s0-.9.3-1c.2,0,.5.3.6.8Z"/><path class="cls-9" d="m397.5,685.7c.1.5,0,.9-.3,1s-.5-.3-.6-.8c-.1-.5,0-.9.3-1,.2,0,.5.3.6.8Z"/><path class="cls-9" d="m398.6,684.4c.1.5,0,.9-.3,1-.2,0-.5-.3-.6-.8s0-.9.3-1c.2,0,.5.3.6.8Z"/><path class="cls-9" d="m398.8,685.4c.1.5,0,.9-.3,1-.2,0-.5-.3-.6-.8-.1-.5,0-.9.3-1,.2,0,.5.3.6.8Z"/><path class="cls-9" d="m399.8,684.1c.1.5,0,.9-.3,1s-.5-.3-.6-.8c-.1-.5,0-.9.3-1,.2,0,.5.3.6.8Z"/><path class="cls-9" d="m400.1,685.2c.1.5,0,.9-.3,1-.2,0-.5-.3-.6-.8-.1-.5,0-.9.3-1,.2,0,.5.3.6.8Z"/><path class="cls-9" d="m401.1,683.9c.1.5,0,.9-.3,1-.2,0-.5-.3-.6-.8-.1-.5,0-.9.3-1,.2,0,.5.3.6.8Z"/><path class="cls-9" d="m401.3,684.9c.1.5,0,.9-.3,1-.2,0-.5-.3-.6-.8-.1-.5,0-.9.3-1,.2,0,.5.3.6.8Z"/><path class="cls-9" d="m402.4,683.6c.1.5,0,.9-.2,1s-.5-.3-.6-.8,0-.9.2-1,.5.3.6.8Z"/><path class="cls-9" d="m402.6,684.6c.1.5,0,.9-.3,1s-.5-.3-.6-.8,0-.9.3-1c.2,0,.5.3.6.8Z"/><path class="cls-9" d="m403.6,683.3c.1.5,0,.9-.2,1-.2,0-.5-.3-.6-.8s0-.9.2-1c.2,0,.5.3.6.8Z"/><path class="cls-9" d="m403.9,684.4c.1.5,0,.9-.2,1-.2,0-.5-.3-.6-.8s0-.9.2-1c.2,0,.5.3.6.8Z"/><path class="cls-9" d="m404.9,683.1c.1.5,0,.9-.2,1-.2,0-.5-.3-.6-.8-.1-.5,0-.9.2-1,.2,0,.5.3.6.8Z"/><path class="cls-9" d="m405.1,684.1c.1.5,0,.9-.2,1-.2,0-.5-.3-.6-.8s0-.9.2-1c.2,0,.5.3.6.8Z"/><path class="cls-9" d="m406.2,682.8c.1.5,0,.9-.2,1-.2,0-.5-.3-.6-.8-.1-.5,0-.9.2-1,.2,0,.5.3.6.8Z"/><path class="cls-9" d="m406.4,683.9c.1.5,0,.9-.2,1-.2,0-.5-.3-.6-.8-.1-.5,0-.9.2-1,.2,0,.5.3.6.8h0Z"/><path class="cls-9" d="m407.4,682.6c.1.5,0,.9-.2,1-.2,0-.5-.3-.6-.8-.1-.5,0-.9.2-1,.2,0,.5.3.6.8Z"/><path class="cls-9" d="m407.6,683.6c.1.5,0,.9-.2,1-.2,0-.5-.3-.6-.8-.1-.5,0-.9.2-1,.2,0,.5.3.6.8Z"/><path class="cls-9" d="m408.7,682.3c.1.5,0,.9-.2,1s-.5-.3-.6-.8c-.1-.5,0-.9.2-1s.5.3.6.8h0Z"/><path class="cls-9" d="m408.9,683.3c.1.5,0,.9-.2,1s-.5-.3-.6-.8c-.1-.5,0-.9.2-1s.5.3.6.8Z"/><path class="cls-9" d="m409.9,682c.1.5,0,.9-.2,1s-.5-.3-.6-.8c-.1-.5,0-.9.2-1s.5.3.6.8Z"/><path class="cls-9" d="m410.2,683c.1.5,0,.9-.2,1s-.5-.3-.6-.8c-.1-.5,0-.9.2-1s.5.3.6.8Z"/><path class="cls-9" d="m411.2,681.7c.1.5,0,.9-.2,1s-.5-.3-.6-.8c-.1-.5,0-.9.2-1s.5.3.6.8Z"/><path class="cls-9" d="m411.4,682.7c.1.5,0,.9-.2,1s-.5-.3-.6-.8c-.1-.5,0-.9.2-1s.5.3.6.8Z"/><path class="cls-9" d="m412.4,681.4c.1.5,0,.9-.2,1s-.5-.3-.6-.8c-.1-.5,0-.9.2-1s.5.3.6.8Z"/><path class="cls-9" d="m412.7,682.4c.1.5,0,.9-.2,1s-.5-.3-.6-.8c-.1-.5,0-.9.2-1s.5.3.6.8Z"/><path class="cls-9" d="m413.7,681.1c.1.5,0,.9-.2,1s-.5-.3-.6-.8c-.1-.5,0-.9.2-1,.2,0,.5.3.6.8h0Z"/><path class="cls-9" d="m413.9,682.1c.1.5,0,.9-.2,1s-.5-.3-.6-.8c-.1-.5,0-.9.2-1s.5.3.6.8Z"/><path class="cls-9" d="m415,680.8c.1.5,0,.9-.2,1-.2,0-.5-.3-.6-.8-.1-.5,0-.9.2-1,.2,0,.5.3.6.8Z"/><path class="cls-9" d="m415.2,681.8c.1.5,0,.9-.2,1-.2,0-.5-.3-.6-.8-.1-.5,0-.9.2-1,.2,0,.5.3.6.8Z"/><path class="cls-9" d="m416.2,680.5c.1.5,0,.9-.2,1-.2,0-.5-.3-.6-.8s0-.9.2-1c.2,0,.5.3.6.8Z"/><path class="cls-9" d="m416.5,681.5c.1.5,0,.9-.2,1-.2,0-.5-.3-.6-.8-.1-.5,0-.9.2-1,.2,0,.5.3.6.8Z"/><path class="cls-9" d="m417.5,680.2c.1.5,0,.9-.2,1-.2,0-.5-.3-.6-.8-.1-.5,0-.9.2-1,.2,0,.5.3.6.8Z"/><path class="cls-9" d="m417.7,681.2c.1.5,0,.9-.2,1-.2,0-.5-.3-.6-.8-.1-.5,0-.9.2-1,.2,0,.5.3.6.8Z"/><path class="cls-9" d="m418.7,679.9c.1.5,0,.9-.2,1-.2,0-.5-.3-.6-.8-.1-.5,0-.9.2-1,.2,0,.5.3.6.8Z"/><path class="cls-9" d="m419,680.9c.1.5,0,.9-.2,1-.2,0-.5-.3-.6-.8-.1-.5,0-.9.2-1,.2,0,.5.3.6.8Z"/><path class="cls-9" d="m420,679.6c.1.5,0,.9-.2,1-.2,0-.5-.3-.6-.8-.1-.5,0-.9.2-1,.2,0,.5.3.6.8Z"/><path class="cls-9" d="m420.2,680.6c.1.5,0,.9-.2,1-.2,0-.5-.3-.6-.8-.1-.5,0-.9.2-1,.2,0,.5.3.6.8Z"/><path class="cls-9" d="m421.2,679.3c.1.5,0,.9-.2,1-.2,0-.5-.3-.6-.8-.1-.5,0-.9.2-1,.2,0,.5.3.6.8Z"/><path class="cls-9" d="m421.5,680.3c.1.5,0,.9-.2,1-.2,0-.5-.3-.6-.8-.1-.5,0-.9.2-1,.2,0,.5.3.6.8Z"/><path class="cls-9" d="m422.5,679c.1.5,0,.9-.2,1-.2,0-.5-.3-.6-.8-.1-.5,0-.9.2-1,.2,0,.5.3.6.8Z"/><path class="cls-9" d="m422.7,680.1c.1.5,0,.9-.2,1-.2,0-.5-.3-.6-.8-.1-.5,0-.9.2-1,.2,0,.5.3.6.8Z"/><path class="cls-9" d="m423.7,678.7c.1.5,0,.9-.2,1s-.5-.3-.6-.8c-.1-.5,0-.9.2-1s.5.3.6.8Z"/><path class="cls-9" d="m424,679.8c.1.5,0,.9-.2,1-.2,0-.5-.3-.6-.8-.1-.5,0-.9.2-1,.2,0,.5.3.6.8Z"/><path class="cls-9" d="m425,678.4c.1.5,0,.9-.2,1s-.5-.3-.7-.8c-.1-.5,0-.9.2-1s.5.3.7.8h0Z"/><path class="cls-9" d="m425.3,679.5c.1.5,0,.9-.2,1s-.5-.3-.7-.8c-.1-.5,0-.9.2-1s.5.3.7.8Z"/><path class="cls-9" d="m426.3,678.1c.1.5,0,.9-.2,1s-.5-.3-.7-.8,0-.9.2-1,.5.3.7.8Z"/><path class="cls-9" d="m426.5,679.2c.1.5,0,.9-.2,1s-.5-.3-.7-.8c-.1-.5,0-.9.2-1s.5.3.7.8Z"/><path class="cls-9" d="m427.5,677.8c.1.5,0,.9-.2,1-.2,0-.5-.3-.7-.8-.1-.5,0-.9.2-1,.2,0,.5.3.7.8h0Z"/><path class="cls-9" d="m427.8,678.9c.1.5,0,.9-.2,1-.2,0-.5-.3-.7-.8-.1-.5,0-.9.2-1,.2,0,.5.3.7.8h0Z"/><path class="cls-9" d="m428.8,677.5c.1.5,0,.9-.2,1-.2,0-.5-.3-.7-.8s0-.9.2-1c.2,0,.5.3.7.8Z"/><path class="cls-9" d="m429,678.5c.1.5,0,.9-.2,1-.2,0-.5-.3-.7-.8s0-.9.2-1c.2,0,.5.3.7.8Z"/><path class="cls-9" d="m430,677.2c.1.5,0,.9-.2,1s-.5-.3-.7-.8,0-.9.2-1,.5.3.7.8Z"/><path class="cls-9" d="m430.3,678.2c.1.5,0,.9-.2,1s-.5-.3-.7-.8,0-.9.2-1,.5.3.7.8Z"/><path class="cls-9" d="m431.3,676.8c.1.5,0,.9-.2,1s-.5-.3-.7-.8,0-.9.2-1,.5.3.7.8Z"/><path class="cls-9" d="m431.5,677.9c.1.5,0,.9-.2,1s-.5-.3-.7-.8,0-.9.2-1,.5.3.7.8Z"/><path class="cls-9" d="m432.5,676.5c.1.5,0,.9-.2,1s-.5-.3-.7-.8,0-.9.2-1,.5.3.7.8Z"/><path class="cls-9" d="m432.8,677.5c.1.5,0,.9-.2,1s-.5-.3-.7-.8,0-.9.2-1,.5.3.7.8Z"/><path class="cls-9" d="m433.7,676.2c.1.5,0,.9-.2,1s-.5-.3-.7-.8c-.1-.5,0-.9.2-1s.5.3.7.8Z"/><path class="cls-9" d="m434,677.2c.1.5,0,.9-.2,1s-.5-.3-.7-.8c-.1-.5,0-.9.2-1s.5.3.7.8Z"/><path class="cls-9" d="m435,675.8c.1.5,0,.9-.2,1s-.5-.3-.7-.8,0-.9.2-1,.5.3.7.8Z"/><path class="cls-9" d="m435.3,676.9c.1.5,0,.9-.2,1s-.5-.3-.7-.8,0-.9.2-1,.5.3.7.8Z"/><path class="cls-9" d="m436.2,675.5c.1.5,0,.9-.2,1-.2,0-.5-.3-.7-.8s0-.9.2-1,.5.3.7.8Z"/><path class="cls-9" d="m436.5,676.5c.1.5,0,.9-.2,1s-.5-.3-.7-.8,0-.9.2-1,.5.3.7.8Z"/><path class="cls-9" d="m437.5,675.2c.1.5,0,.9-.2,1-.2,0-.5-.3-.7-.8s0-.9.2-1c.2,0,.5.3.7.8Z"/><path class="cls-9" d="m437.8,676.2c.1.5,0,.9-.2,1-.2,0-.5-.3-.7-.8s0-.9.2-1c.2,0,.5.3.7.8Z"/><path class="cls-9" d="m438.7,674.8c.1.5,0,.9-.2,1s-.5-.3-.7-.8,0-.9.2-1c.2,0,.5.3.7.8Z"/><path class="cls-9" d="m439,675.9c.1.5,0,.9-.2,1-.2,0-.5-.3-.7-.8s0-.9.2-1c.2,0,.5.3.7.8Z"/><path class="cls-9" d="m440,674.5c.1.5,0,.9-.2,1-.2,0-.5-.3-.7-.8s0-.9.2-1c.2,0,.5.3.7.8Z"/><path class="cls-9" d="m440.3,675.5c.1.5,0,.9-.2,1s-.5-.3-.7-.8,0-.9.2-1c.2,0,.5.3.7.8Z"/><path class="cls-9" d="m441.2,674.2c.1.5,0,.9-.2,1-.2,0-.5-.3-.7-.8s0-.9.2-1c.2,0,.5.3.7.8Z"/><path class="cls-9" d="m441.5,675.2c.1.5,0,.9-.2,1-.2,0-.5-.3-.7-.8-.1-.5,0-.9.2-1,.2,0,.5.3.7.8Z"/><path class="cls-9" d="m442.5,673.8c.1.5,0,.9-.2,1-.2,0-.5-.3-.7-.8-.1-.5,0-.9.2-1,.2,0,.5.3.7.8h0Z"/><path class="cls-9" d="m442.8,674.9c.1.5,0,.9-.2,1s-.5-.3-.7-.8c-.1-.5,0-.9.2-1,.2,0,.5.3.7.8Z"/><path class="cls-9" d="m443.7,673.5c.1.5,0,.9-.2,1-.2,0-.5-.3-.7-.8-.1-.5,0-.9.2-1,.2,0,.5.3.7.8Z"/><path class="cls-9" d="m444,674.5c.1.5,0,.9-.2,1s-.5-.3-.7-.8c-.1-.5,0-.9.2-1,.2,0,.5.3.7.8Z"/><path class="cls-9" d="m445,673.2c.1.5,0,.9-.2,1-.2,0-.5-.3-.7-.8-.1-.5,0-.9.2-1,.2,0,.5.3.7.8Z"/><path class="cls-9" d="m445.3,674.2c.1.5,0,.9-.2,1-.2,0-.5-.3-.7-.8-.1-.5,0-.9.2-1,.2,0,.5.3.7.8Z"/><path class="cls-9" d="m446.2,672.9c.1.5,0,.9-.2,1-.2,0-.5-.3-.7-.8-.1-.5,0-.9.2-1,.2,0,.5.3.7.8Z"/><path class="cls-9" d="m446.5,673.9c.1.5,0,.9-.2,1-.2,0-.5-.3-.7-.8-.1-.5,0-.9.2-1,.2,0,.5.3.7.8Z"/><path class="cls-5" d="m197.4,66.3s62.7,38,128.2,0"/><line class="cls-10" x1="86.9" y1="580.5" x2="94" y2="580.7"/><line class="cls-10" x1="431.2" y1="580.5" x2="424.1" y2="580.7"/><path class="cls-8" d="m319.7,89.8c6.4-13.8,11.8-30.6,12.5-52l13.4,4.4.8,1.3,27.8,8,.9-.9,14.1,5.1s-58.7,183.5,58.4,185.3v13.4l-.8,1.1v416.7s-.4,4.6-3.1,7.9l-7.6,1.7c-212.1,56.1-360.8,0-360.8,0-3-3.6-3.6-8.4-3.6-8.4,0,0,.3-417.5,0-418.2-.3-.7-.4-.8-.4-.8v-13.4c117.1-1.8,58.4-185.3,58.4-185.3l14.1-5.1,1.4.9,31.1-9.9.5-1.5,14.1-2.9s.2,27.2,13.5,54.2c0,0,17.1,36.3,54.5,38.6,0,0,40.1,5,60.9-40.1h0Z"/><path class="cls-1" d="m176.1,41.6s.9,98.6,85.5,102.7c0,0,80.5,6.4,84.7-100.8"/><path class="cls-5" d="m177.9,40.1s.9,98.2,83.6,102.3c0,0,78.7,6.4,82.8-100.3"/><path class="cls-1" d="m446.8,254.6h-1.3c-.2,0-.5,0-.8,0-9.8,0-43.6-2.3-65.9-31.6-25.9-34.1-27.5-91.5-4.5-170.7l.2-.5h-.4l-27.2-7.8h-.3c0,0,0,.2,0,.2-1.6,36.6-12.2,63.9-31.6,81.1-20.1,17.8-44.1,19.2-51,19.2s-2.3,0-2.4,0c-43.8-2.1-64.8-30-74.7-53.1-9.6-22.4-10.9-44.8-11-49.1v-.3l-30.8,9.8c-.1,0-.3,0-.4,0l-.6-.4,1,2.8c22.2,77.9,20.5,134.5-5,168.4-22.4,29.7-56.5,32-66.4,32h-1.7s-.4,0-.4,0l.2.3c.3,1.7.3,133.6,0,391.9h.4c1.5-8.1,5.6-27.9,10.3-36.8,6.1-11.5,9-22.2,9.7-28.5v-.2s-5.6-.2-5.6-.2c-.4,0-.7-.3-.6-.7,0-.3.3-.7.7-.7h0l7.1.2c.4,0,.7.3.6.7,0,.4-.3.7-.7.7h-1.1s0,.2,0,.2c-.7,6.3-3.6,17.2-9.8,28.7-1.5,2.8-3,6.9-4.6,12.1v.4c-.1,0,.2-.1.2-.1l15,47.7h.1c3.8,1.1,38.8,10.4,94.5,15.1,18.6,1.6,40.9,2.8,66.1,2.8,47.9,0,106.3-4.2,170.3-17.8h.1s15-47.8,15-47.8h.4c0,.1-.1-.3-.1-.3-1.5-5.3-3.1-9.4-4.6-12.1-6.2-11.5-9.1-22.4-9.8-28.7v-.2s-1.7,0-1.7,0c-.4,0-.7-.3-.7-.7,0-.4.3-.7.6-.7l7.1-.2c.4,0,.7.3.7.7,0,.4-.3.7-.6.7l-5,.2v.2c.7,6.3,3.6,17,9.8,28.5,4.3,8.1,8,25,9.8,34.4h.5V255.5c0,0,0-.2,0-.3l.5-.6h0Z"/><path class="cls-5" d="m71.9,252.8h2.6c18.1,0,122.7-7.9,69.4-197.3l-1.3-3.7"/><path class="cls-12" d="m92.6,582.1s-2.6,19.8-9.4,34.8-7.9,39.6-11.3,56.4l.3-25.5s6.7-30.8,9.5-35.3c0,0,10.1-18,10.9-30.4h0Z"/><path class="cls-12" d="m425.9,582.1s2.5,19.8,9.4,34.8,7.9,39.6,11.3,56.4l-.3-25.5s-6.7-30.8-9.5-35.3c0,0-10.1-18-10.9-30.4h0Z"/><path class="cls-12" d="m82.3,635.7s8.7,37.2,9.3,38.7c.5,1.4,7.1,3.9,12.1,5,5,1.1,37.2,4.8,50.8,8.9s54.7,10.7,62.4,10.7,72.7-2.7,87.3-4.3c14.6-1.6,52.6-11.9,52.6-11.9,0,0-69.3,10-168,3.2,0,0-68.2-6.8-95.1-15.1,0,0-9.9-34-11.2-35.1h0Z"/><path class="cls-12" d="m324.7,77.6c5.9-22.1,1.5-28.5,1.5-28.5l.4-.7c3.2-4.6,4.9-8.6,5.4-10,0,.6,0,1.1.1,1.7-.7,14.5-3.5,26.8-7.4,37.5h0Z"/><path class="cls-12" d="m195.9,47.4s.2,18.2,3,16.9c0,0-.6,2.8,2.4,5.2,0,0,8.9,4,16.3,6.7,7.3,2.8,39.5,13.7,77.4,4,0,0-37.9,16.1-92-8.3,0,0-2.2-1.4.7,7.6,2.9,8.9,19.2,50.1,62.2,50.1l-8.8.2s-48.6-3.4-61.7-63.7c0,0-4.4-19.2-4-26.6,0,0,4.4,7.3,4.6,7.9h0Z"/><path class="cls-13" d="m314.6,151.3c.4,1.2.8,2.5,1.2,3.8h-2.7c-.4-1.2-.7-2.3-1.1-3.5h-.8c-.2,1.2-.4,2.3-.5,3.5h-2.5c.6-3.2,1.1-6.3,1.7-9.5h3.9c.5,0,.9,0,1.3.2.6.2,1,.6,1.2,1.2,0,.3,0,.6,0,.8,0,.5-.2,1.1-.3,1.6-.1.6-.4,1-.8,1.4-.1.1-.3.3-.5.4h0Zm-3.1-1.4s0,0,0,0c.4,0,.8,0,1.2,0,.5,0,.8-.3.9-.8,0-.3,0-.6,0-.9-.1-.4-.4-.6-.8-.6h-1s0,0-.1,0c-.1.8-.2,1.5-.3,2.2h0Z"/><path class="cls-13" d="m320.5,152h2.4c0,0,0,.1,0,.2,0,.5.1.9.7,1,.4.1.9.1,1.3,0,0,0,.1,0,.2,0,.5-.2.5-.8.2-1.1-.1-.1-.2-.2-.3-.3-.3-.2-.7-.3-1.1-.5-.4-.1-.8-.3-1.2-.4s-.7-.4-1-.7c-.4-.4-.5-.9-.5-1.4s0-.8.2-1.2c.3-.8.9-1.4,1.6-1.7.5-.2.9-.3,1.4-.3.5,0,1.1,0,1.6,0,.5,0,1,.1,1.4.4.6.3.9.7,1,1.4s0,1.2-.3,1.8c0,0,0,0,0,0h-2.3c0,0,0-.1,0-.1.2-.3.2-.6.2-.9,0-.2-.2-.4-.4-.5-.2-.1-.4-.1-.7-.1s-.5,0-.7,0c0,0-.2,0-.3.1-.5.3-.6.9-.1,1.3.3.2.6.3.9.4.4.1.9.2,1.3.4.4.1.8.3,1.1.6.5.4.7.9.7,1.5,0,.5,0,1-.2,1.5-.3.8-.9,1.3-1.6,1.6-.5.2-1,.3-1.6.3-.5,0-1,0-1.4,0s-1-.1-1.4-.3c-.8-.3-1.1-.9-1.2-1.6,0-.4,0-.9,0-1.3,0,0,0,0,0,0h0s0,0,0,0Z"/><path class="cls-13" d="m328.2,155.1c.6-3.1,1.1-6.3,1.7-9.5h6.6c-.1.7-.2,1.4-.4,2.1h-4.2c-.1.6-.2,1.2-.3,1.8h3.5c-.1.7-.2,1.4-.4,2.1h-3.5c0,.5-.2,1-.3,1.5h4.2c-.1.7-.2,1.4-.4,2.1h-6.6Z"/><path class="cls-13" d="m337.6,145.6h2.4c0,.3-.1.6-.1.9-.2,1-.4,1.9-.5,2.9-.1.7-.3,1.4-.4,2.2,0,.2,0,.5,0,.8,0,.5.2.8.8.9.3,0,.6,0,.9,0,.3-.1.6-.3.8-.6.2-.3.2-.7.3-1,.2-1.1.4-2.2.6-3.4.1-.8.3-1.6.4-2.4,0,0,0-.1,0-.2h2.1c-.5.7-.9,1.4-1.4,2.2.4,0,.8.1,1.3.1,0,0,0,.1,0,.1-.2,1.3-.4,2.6-.7,3.8,0,.4-.2.9-.4,1.3-.5,1-1.2,1.6-2.2,1.9-.7.2-1.4.2-2.1.2-.4,0-.9-.1-1.3-.2-.8-.3-1.3-.9-1.4-1.8,0-.5,0-1.1,0-1.6.2-1,.4-2,.5-3,.2-1,.3-1.9.5-2.9,0,0,0,0,0-.1h0Z"/><path class="cls-13" d="m347.4,152.3c-.2,1-.3,1.9-.5,2.9h-2.4c.4-2.3.8-4.7,1.2-7,.4,0,.9.1,1.3.1-.3-.9-.6-1.7-.9-2.6,0,0,.1,0,.1,0h4c.4,0,.9,0,1.3.2.7.3,1.1.8,1.1,1.6,0,.3,0,.7,0,1,0,.4-.1.8-.2,1.2-.1.8-.6,1.4-1.2,1.9-.5.4-1.1.6-1.7.6-.3,0-.6,0-.9,0h-1.2,0Zm.4-2.1s0,0,0,0c.5,0,.9,0,1.4,0,.5,0,.8-.3.9-.8,0-.3.1-.6.1-.9,0-.1,0-.2,0-.3-.1-.3-.4-.4-.7-.4h-1.3s0,0,0,0c-.1.8-.3,1.6-.4,2.4h0Z"/><path class="cls-13" d="m318.9,155.1h-2.4c.6-3.2,1.1-6.3,1.7-9.5h2.4c-.5,3.2-1.1,6.3-1.7,9.5h0Z"/><path class="cls-15" d="m314.6,151.3c.4,1.2.8,2.5,1.2,3.8h-2.7c-.4-1.2-.7-2.3-1.1-3.5h-.8c-.2,1.2-.4,2.3-.5,3.5h-2.5c.6-3.2,1.1-6.3,1.7-9.5h3.9c.5,0,.9,0,1.3.2.6.2,1,.6,1.2,1.2,0,.3,0,.6,0,.8,0,.5-.2,1.1-.3,1.6-.1.6-.4,1-.8,1.4-.1.1-.3.3-.5.4h0Zm-3.1-1.4s0,0,0,0c.4,0,.8,0,1.2,0,.5,0,.8-.3.9-.8,0-.3,0-.6,0-.9-.1-.4-.4-.6-.8-.6h-1s0,0-.1,0c-.1.8-.2,1.5-.3,2.2h0Z"/><path class="cls-15" d="m320.5,152h2.4c0,0,0,.1,0,.2,0,.5.1.9.7,1,.4.1.9.1,1.3,0,0,0,.1,0,.2,0,.5-.2.5-.8.2-1.1-.1-.1-.2-.2-.3-.3-.3-.2-.7-.3-1.1-.5-.4-.1-.8-.3-1.2-.4s-.7-.4-1-.7c-.4-.4-.5-.9-.5-1.4s0-.8.2-1.2c.3-.8.9-1.4,1.6-1.7.5-.2.9-.3,1.4-.3.5,0,1.1,0,1.6,0,.5,0,1,.1,1.4.4.6.3.9.7,1,1.4s0,1.2-.3,1.8c0,0,0,0,0,0h-2.3c0,0,0-.1,0-.1.2-.3.2-.6.2-.9,0-.2-.2-.4-.4-.5-.2-.1-.4-.1-.7-.1s-.5,0-.7,0c0,0-.2,0-.3.1-.5.3-.6.9-.1,1.3.3.2.6.3.9.4.4.1.9.2,1.3.4.4.1.8.3,1.1.6.5.4.7.9.7,1.5,0,.5,0,1-.2,1.5-.3.8-.9,1.3-1.6,1.6-.5.2-1,.3-1.6.3-.5,0-1,0-1.4,0s-1-.1-1.4-.3c-.8-.3-1.1-.9-1.2-1.6,0-.4,0-.9,0-1.3,0,0,0,0,0,0h0s0,0,0,0Z"/><path class="cls-15" d="m328.2,155.1c.6-3.1,1.1-6.3,1.7-9.5h6.6c-.1.7-.2,1.4-.4,2.1h-4.2c-.1.6-.2,1.2-.3,1.8h3.5c-.1.7-.2,1.4-.4,2.1h-3.5c0,.5-.2,1-.3,1.5h4.2c-.1.7-.2,1.4-.4,2.1h-6.6Z"/><path class="cls-15" d="m337.6,145.6h2.4c0,.3-.1.6-.1.9-.2,1-.4,1.9-.5,2.9-.1.7-.3,1.4-.4,2.2,0,.2,0,.5,0,.8,0,.5.2.8.8.9.3,0,.6,0,.9,0,.3-.1.6-.3.8-.6.2-.3.2-.7.3-1,.2-1.1.4-2.2.6-3.4.1-.8.3-1.6.4-2.4,0,0,0-.1,0-.2h2.1c-.5.7-.9,1.4-1.4,2.2.4,0,.8.1,1.3.1,0,0,0,.1,0,.1-.2,1.3-.4,2.6-.7,3.8,0,.4-.2.9-.4,1.3-.5,1-1.2,1.6-2.2,1.9-.7.2-1.4.2-2.1.2-.4,0-.9-.1-1.3-.2-.8-.3-1.3-.9-1.4-1.8,0-.5,0-1.1,0-1.6.2-1,.4-2,.5-3,.2-1,.3-1.9.5-2.9,0,0,0,0,0-.1h0Z"/><path class="cls-15" d="m347.4,152.3c-.2,1-.3,1.9-.5,2.9h-2.4c.4-2.3.8-4.7,1.2-7,.4,0,.9.1,1.3.1-.3-.9-.6-1.7-.9-2.6,0,0,.1,0,.1,0h4c.4,0,.9,0,1.3.2.7.3,1.1.8,1.1,1.6,0,.3,0,.7,0,1,0,.4-.1.8-.2,1.2-.1.8-.6,1.4-1.2,1.9-.5.4-1.1.6-1.7.6-.3,0-.6,0-.9,0h-1.2,0Zm.4-2.1s0,0,0,0c.5,0,.9,0,1.4,0,.5,0,.8-.3.9-.8,0-.3.1-.6.1-.9,0-.1,0-.2,0-.3-.1-.3-.4-.4-.7-.4h-1.3s0,0,0,0c-.1.8-.3,1.6-.4,2.4h0Z"/><path class="cls-15" d="m318.9,155.1h-2.4c.6-3.2,1.1-6.3,1.7-9.5h2.4c-.5,3.2-1.1,6.3-1.7,9.5h0Z"/><path class="cls-15" d="m196.7,152.7s0,0,.1-.1c1.3-1.8,2.2-3.8,2.7-6,0-.1,0-.2,0-.3,0,0,0-.1,0-.2,0-.1.1-.2.3-.2.1,0,.2,0,.3.2,0,0,0,.1,0,.2.1.6.3,1.1.3,1.7.1,1,.2,1.9.1,2.9,0,1.3-.3,2.6-.8,3.9-.4,1.3-1,2.5-1.8,3.6,0,.1-.2.2-.3.3-1.4.8-2.9,1.4-4.5,1.8-.6.1-1.2.2-1.9.3-.2,0-.5,0-.7,0,0,0-.2,0-.3,0,.1,0,.2,0,.3,0,1.1.2,2.2.2,3.2.2.2,0,.5,0,.7,0,.1,0,.2,0,.3,0,.1,0,.3,0,.3.2,0,.1,0,.2,0,.3,0,0,0,0-.1.1-.8.6-1.6,1.2-2.6,1.6-.3.2-.6.3-1,.5-.1,0-.3,0-.4,0-.6-.1-1.2-.3-1.9-.4,0,0-.1,0-.2,0,0,0,0,0,0,0,0,0,0,0,0,.1.1.2.2.4.3.6s0,.1,0,.2c0,.1-.1.2-.3.3-.2,0-.3,0-.5.1-.8.2-1.6.2-2.4.3h-.1c-.2,0-.3,0-.3-.2,0,0,0-.2,0-.3,0,0,0,0,0-.2,0,0,0,0,0,.1,0,.1,0,.2,0,.3,0,.2-.2.2-.3.2s-.3,0-.5,0c-.5,0-1,0-1.4-.1-.4,0-.7-.1-1.1-.2,0,0,0,0-.1,0-.1,0-.2-.2-.2-.4,0,0,0-.1,0-.2l.3-.6c0,0-.1,0-.2,0-.5.1-1.1.3-1.6.4-.6.1-.4.1-.9-.1-1.2-.5-2.3-1.2-3.3-2,0,0,0,0-.1-.1-.1-.1-.1-.2,0-.4,0-.1.2-.2.3-.2s.1,0,.2,0c.8.1,1.6.1,2.4,0,.6,0,1.3-.1,1.9-.2,0,0-.1,0-.2,0-.2,0-.4,0-.6,0-1,0-2-.3-2.9-.6-1.3-.4-2.5-.9-3.7-1.6-.2,0-.3-.2-.4-.4-1-1.4-1.7-3-2.1-4.7-.2-.8-.3-1.6-.4-2.4,0-.8,0-1.6,0-2.4,0-.9.2-1.8.4-2.7,0,0,0,0,0-.1,0-.1.2-.2.3-.2.1,0,.2,0,.3.2,0,.1,0,.2,0,.4.4,1.9,1.1,3.7,2.2,5.4.2.2.3.5.5.7,0,0,0,0,0,.1,0,0,0-.1,0-.2-.4-.6-.7-1.3-1-1.9-.5-1.2-.8-2.4-1-3.6-.2-1.1-.2-2.2-.2-3.2,0-.3,0-.6,0-.9,0-.1,0-.3.1-.4,1.9-3.2,4.6-5.4,8.1-6.6,0,0,.1,0,.2,0,.1,0,.2,0,.3.1,0,.1,0,.2,0,.4,0,0,0,0,0,0-.9.9-1.5,1.9-2,3-.5,1.1-.9,2.3-1.1,3.5-.2,1.2-.3,2.5-.3,3.7,0,1.2.2,2.4.5,3.5.3,1.1.7,2.2,1.3,3.3.5.8,1,1.5,1.7,2.2.6.6,1.4,1.1,2.2,1.5.7.3,1.4.5,2.2.5.9,0,1.7-.2,2.5-.6.8-.4,1.5-1,2.2-1.6.7-.8,1.3-1.7,1.8-2.6.5-1.1.9-2.1,1.1-3.3.3-1.3.4-2.6.4-3.9,0-.6,0-1.2-.1-1.8-.3-2-.9-3.9-2-5.7-.4-.6-.8-1.1-1.3-1.6,0,0,0,0-.1-.1,0-.1,0-.2,0-.4,0-.1.2-.2.3-.1,0,0,.1,0,.2,0,1.6.5,3.1,1.3,4.4,2.4,1.5,1.2,2.7,2.6,3.7,4.2,0,.1.1.2.1.4,0,.4,0,.8.1,1.2,0,.6,0,1.2,0,1.9-.2,1.9-.6,3.7-1.5,5.4-.2.4-.4.8-.6,1.1,0,0,0,.1,0,.2,0,0,0,0,0,.1,0,0,0,0,0-.1h0Z"/></svg>