<?xml version="1.0" encoding="UTF-8"?><svg id="Primary_Color" xmlns="http://www.w3.org/2000/svg" xmlns:xlink="http://www.w3.org/1999/xlink" viewBox="0 0 518.7 743.8"><defs><style>.cls-1{stroke-width:3.8px;}.cls-1,.cls-2,.cls-3,.cls-4,.cls-5,.cls-6,.cls-7,.cls-8,.cls-9,.cls-10,.cls-11,.cls-12,.cls-13,.cls-14{fill:none;}.cls-1,.cls-4,.cls-6,.cls-11{stroke-linejoin:round;}.cls-1,.cls-8{stroke:#d3d3d3;}.cls-2{stroke-width:3px;}.cls-2,.cls-4,.cls-9{stroke:#a9a9a9;}.cls-2,.cls-5,.cls-7,.cls-8,.cls-9,.cls-10,.cls-12,.cls-13,.cls-14{stroke-miterlimit:10;}.cls-15{clip-path:url(#clippath);}.cls-3,.cls-16,.cls-17,.cls-18,.cls-19,.cls-20,.cls-21,.cls-22{stroke-width:0px;}.cls-4{stroke-width:2.1px;}.cls-5,.cls-6,.cls-7,.cls-10,.cls-11,.cls-12,.cls-13,.cls-14{stroke:#000;}.cls-5,.cls-7{stroke-width:0px;}.cls-6{stroke-width:.6px;}.cls-6,.cls-11{stroke-linecap:round;}.cls-7,.cls-10,.cls-14{stroke-dasharray:0 0 0 .2;}.cls-23{clip-path:url(#clippath-1);}.cls-24{clip-path:url(#clippath-4);}.cls-25{clip-path:url(#clippath-3);}.cls-26{clip-path:url(#clippath-2);}.cls-27{clip-path:url(#clippath-6);}.cls-28{clip-path:url(#clippath-5);}.cls-8,.cls-9{stroke-width:2px;}.cls-10{stroke-width:.2px;}.cls-11,.cls-13{stroke-width:.4px;}.cls-16{isolation:isolate;opacity:.3;}.cls-12{stroke-width:.3px;}.cls-17{fill:gray;}.cls-18{fill:#d1d3d4;}.cls-19{fill:#d0b787;}.cls-20{fill:#d3d3d3;}.cls-21{fill:#a9a9a9;}.cls-22{fill:#e6e7e8;}.cls-14{stroke-width:.2px;}</style><clipPath id="clippath"><path class="cls-3" d="m446.5,261.5h-1.3c-.2,0-.5,0-.8,0-9.8,0-43.5-2.3-65.8-31.5-25.9-34-27.4-91.3-4.5-170.4l.2-.5h-.4l-27.1-7.8h-.3c0,0,0,.2,0,.2-1.6,36.5-12.2,63.8-31.5,80.9-20,17.8-44,19.2-50.9,19.2s-2.3,0-2.4,0c-43.7-2.1-64.7-30-74.5-52.9-9.6-22.4-10.9-44.7-11-49v-.3l-30.7,9.8c-.1,0-.3,0-.4,0l-.6-.4,1,2.8c22.2,77.7,20.5,134.3-5,168.1-22.4,29.6-56.4,31.9-66.2,31.9h-1.7s-.4,0-.4,0l.2.3c.3,1.7.3,133.3,0,391.2h.4c1.5-8.1,5.6-27.9,10.3-36.7,6.1-11.4,9-22.2,9.7-28.4v-.2s-5.6-.2-5.6-.2c-.4,0-.7-.3-.6-.7,0-.3.3-.7.7-.7h0l7.1.2c.4,0,.7.3.6.7,0,.4-.3.7-.7.7h-1.1s0,.2,0,.2c-.7,6.3-3.6,17.1-9.8,28.7-1.5,2.8-3,6.8-4.6,12.1v.4c-.1,0,.2-.1.2-.1l15,47.7h.1c3.8,1.1,38.7,10.3,94.3,15.1,18.6,1.6,40.8,2.8,66,2.8,47.8,0,106.1-4.2,170-17.8h.1s15-47.7,15-47.7h.4c0,.1-.1-.3-.1-.3-1.5-5.3-3.1-9.4-4.6-12.1-6.1-11.5-9.1-22.4-9.8-28.7v-.2s-1.7,0-1.7,0c-.4,0-.7-.3-.7-.7,0-.4.3-.7.6-.7l7.1-.2c.4,0,.7.3.7.7,0,.4-.3.7-.6.7l-5,.2v.2c.7,6.2,3.6,17,9.7,28.4,4.3,8,8,25,9.8,34.4h.5v-388.3c0,0,0-.2,0-.3l.5-.6h0Z"/></clipPath><clipPath id="clippath-1"><path class="cls-3" d="m445.2,237.6c-24.6-.5-43.2-9.3-55.3-26.1-14.5-20.2-19.6-51.7-15.2-93.6,3.4-32.2,11.3-59.2,12.9-64.3l.2-.8-14.4-4.9-.8,2.1c-22.9,79.1-21.6,136.2,4.3,170.3,22.1,29,55,31.6,65.9,31.6h3.1v-14.1h-.9s0,0,0,0Z"/></clipPath><clipPath id="clippath-2"><path class="cls-3" d="m71,237.6c24.6-.5,43.2-9.3,55.3-26.1,14.5-20.2,19.6-51.7,15.2-93.6-3.4-32.2-11.3-59.2-12.9-64.3l-.2-.8,14.4-4.9.8,2.1c22.9,79.1,21.6,136.2-4.3,170.3-22.1,29-55,31.6-65.9,31.6h-3.1v-14.1h.9s0,0,0,0Z"/></clipPath><clipPath id="clippath-3"><path class="cls-3" d="m344.9,40.9c-4.2,107-84.6,100.6-84.6,100.6-84.4-4.1-85.4-102.6-85.4-102.6l.5-1.5,14.1-2.9s.2,27.2,13.5,54.1c0,0,17.1,36.2,54.4,38.5,0,0,40,5,60.8-40,6.4-13.8,11.8-30.5,12.4-51.9l13.4,4.4.8,1.3h0Z"/></clipPath><clipPath id="clippath-4"><path class="cls-3" d="m190.7,37.5c1.6,3.9,5.4,11.2,12.1,16.9l.3.3-8.7,12-.2-.9c-2.4-8.7-3.9-18.2-4.3-28.1v-2.5c-.1,0,.9,2.3.9,2.3h0Z"/></clipPath><clipPath id="clippath-5"><path class="cls-3" d="m329.5,37.8c-1.6,3.9-5.4,11.2-12.2,17l-.3.3,8.8,12.1.2-.9c2.4-8.8,3.9-18.3,4.4-28.3v-2.6c.1,0-.9,2.4-.9,2.4h0Z"/></clipPath><clipPath id="clippath-6"><path class="cls-3" d="m316.9,55l-.4.2c-17,9.8-35.5,14.7-54.9,14.7-31.7,0-55.7-13.2-58.3-14.7l-.3-.2-7.2,9.5.4.3c1.7,1,17.1,9.7,39.2,14.1,7.5,1.5,16.3,2.6,26,2.6,18.4,0,40-3.9,62-16.6l.4-.2-7-9.6h0Z"/></clipPath></defs><path class="cls-17" d="m445.2,251.5h-1.3c-.2,0-.5,0-.8,0-9.8,0-43.5-2.3-65.8-31.5-25.9-34-27.4-91.3-4.5-170.4l.2-.5h-.4l-27.1-7.8h-.3c0,0,0,.2,0,.2-1.6,36.5-12.2,63.8-31.5,80.9-20,17.8-44,19.2-50.9,19.2s-2.3,0-2.4,0c-43.7-2.1-64.7-30-74.5-52.9-9.6-22.4-10.9-44.7-11-49v-.3l-30.7,9.8c-.1,0-.3,0-.4,0l-.6-.4,1,2.8c22.2,77.7,20.5,134.3-5,168.1-22.4,29.6-56.4,31.9-66.2,31.9h-1.7s-.4,0-.4,0l.2.3c.3,1.7.3,133.3,0,391.2h.4c1.5-8.1,5.6-27.9,10.3-36.7,6.1-11.4,9-22.2,9.7-28.4v-.2s-5.6-.2-5.6-.2c-.4,0-.7-.3-.6-.7,0-.3.3-.7.7-.7h0l7.1.2c.4,0,.7.3.6.7,0,.4-.3.7-.7.7h-1.1s0,.2,0,.2c-.7,6.3-3.6,17.1-9.8,28.7-1.5,2.8-3,6.8-4.6,12.1v.4c-.1,0,.2-.1.2-.1l15,47.7h.1c3.8,1.1,38.7,10.3,94.3,15.1,18.6,1.6,40.8,2.8,66,2.8,47.8,0,106.1-4.2,170-17.8h.1s15-47.7,15-47.7h.4c0,.1-.1-.3-.1-.3-1.5-5.3-3.1-9.4-4.6-12.1-6.1-11.5-9.1-22.4-9.8-28.7v-.2s-1.7,0-1.7,0c-.4,0-.7-.3-.7-.7,0-.4.3-.7.6-.7l7.1-.2c.4,0,.7.3.7.7,0,.4-.3.7-.6.7l-5,.2v.2c.7,6.2,3.6,17,9.7,28.4,4.3,8,8,25,9.8,34.4h.5V252.4c0,0,0-.2,0-.3l.5-.6h0Z"/><g class="cls-15"><line class="cls-8" x1="76.7" y1="29.8" x2="76.7" y2="721"/><line class="cls-8" x1="97" y1="29.8" x2="97" y2="721"/><line class="cls-8" x1="117.3" y1="29.8" x2="117.3" y2="721"/><line class="cls-8" x1="137.6" y1="29.8" x2="137.6" y2="721"/><line class="cls-8" x1="157.9" y1="29.8" x2="157.9" y2="721"/><line class="cls-8" x1="178.2" y1="29.8" x2="178.2" y2="721"/><line class="cls-8" x1="198.5" y1="29.8" x2="198.5" y2="721"/><line class="cls-8" x1="218.8" y1="29.8" x2="218.8" y2="721"/><line class="cls-8" x1="239.1" y1="29.8" x2="239.1" y2="721"/><line class="cls-8" x1="259.5" y1="29.8" x2="259.5" y2="721"/><line class="cls-8" x1="279.8" y1="29.8" x2="279.8" y2="721"/><line class="cls-8" x1="300.1" y1="29.8" x2="300.1" y2="721"/><line class="cls-8" x1="320.4" y1="29.8" x2="320.4" y2="721"/><line class="cls-8" x1="340.7" y1="29.8" x2="340.7" y2="721"/><line class="cls-8" x1="361" y1="29.8" x2="361" y2="721"/><line class="cls-8" x1="381.3" y1="29.8" x2="381.3" y2="721"/><line class="cls-8" x1="401.6" y1="29.8" x2="401.6" y2="721"/><line class="cls-8" x1="421.9" y1="29.8" x2="421.9" y2="721"/><line class="cls-8" x1="442.2" y1="29.8" x2="442.2" y2="721"/></g><g id="R"><g class="cls-23"><path class="cls-20" d="m445.2,237.6c-24.6-.5-43.2-9.3-55.3-26.1-14.5-20.2-19.6-51.7-15.2-93.6,3.4-32.2,11.3-59.2,12.9-64.3l.2-.8-14.4-4.9-.8,2.1c-22.9,79.1-21.6,136.2,4.3,170.3,22.1,29,55,31.6,65.9,31.6h3.1v-14.1h-.9s0,0,0,0Z"/><path class="cls-21" d="m452.9,234c-25.2-.5-44.3-9.1-56.7-25.6-14.9-19.8-20.1-50.6-15.6-91.7,3.5-31.5,11.6-58,13.2-62.9l.3-.8-14.8-4.8-.8,2c-23.5,77.5-22.2,135.8,4.4,169.1,22.6,28.4,56.4,27,67.6,27h.9l2.3-1.6v-10.6h-.9s0,0,0,0Z"/><path class="cls-20" d="m457.6,231.7c-25.2-.5-44.3-9-56.7-25.3-14.9-19.6-20.1-50.1-15.6-90.7,3.5-31.2,11.6-57.3,13.2-62.3l.3-.8-14.8-4.8-.8,2c-23.5,76.6-22.2,134.3,4.4,167.3,22.6,28.1,56.4,25.2,67.6,25.2h3.2v-10.6h-.9s0,0,0,0Z"/></g></g><g id="L"><g class="cls-26"><path class="cls-20" d="m71,237.6c24.6-.5,43.2-9.3,55.3-26.1,14.5-20.2,19.6-51.7,15.2-93.6-3.4-32.2-11.3-59.2-12.9-64.3l-.2-.8,14.4-4.9.8,2.1c22.9,79.1,21.6,136.2-4.3,170.3-22.1,29-55,31.6-65.9,31.6h-3.1v-14.1h.9s0,0,0,0Z"/><path class="cls-21" d="m63.3,234c25.2-.5,44.3-9.1,56.7-25.6,14.9-19.8,20.1-50.6,15.6-91.7-3.5-31.5-11.6-58-13.2-62.9l-.3-.8,14.8-4.8.8,2c23.5,77.5,22.2,135.8-4.4,169.1-22.6,28.4-56.4,27-67.6,27h-.9l-2.3-1.6v-10.6h.9s0,0,0,0Z"/><path class="cls-20" d="m58.7,231.7c25.2-.5,44.3-9,56.7-25.3,14.9-19.6,20.1-50.1,15.6-90.7-3.5-31.2-11.6-57.3-13.2-62.3l-.3-.8,14.8-4.8.8,2c23.5,76.6,22.2,134.3-4.4,167.3-22.6,28.1-56.4,25.2-67.6,25.2h-3.2v-10.6h.9s0,0,0,0Z"/></g></g><g id="front"><g class="cls-25"><path class="cls-20" d="m344.9,40.9c-4.2,107-84.6,100.6-84.6,100.6-84.4-4.1-85.4-102.6-85.4-102.6l.5-1.5,14.1-2.9s.2,27.2,13.5,54.1c0,0,17.1,36.2,54.4,38.5,0,0,40,5,60.8-40,6.4-13.8,11.8-30.5,12.4-51.9l13.4,4.4.8,1.3h0Z"/><path class="cls-21" d="m341.1,34.8c-4,108.8-80.8,102.3-80.8,102.3-80.7-4.2-81.5-104.3-81.5-104.3l.5-1.5,13.5-2.9s.2,27.6,12.9,55c0,0,16.3,36.9,52,39.1,0,0,38.2,5.1,58-40.7,6.1-14,11.3-31,11.9-52.7l12.8,4.4.7,1.3h0Z"/><path class="cls-20" d="m336.6,30.1c-3.8,108.8-76.2,102.3-76.2,102.3-76.1-4.2-76.9-104.3-76.9-104.3l.5-1.5,12.7-2.9s.2,27.6,12.2,55c0,0,15.4,36.9,49.1,39.1,0,0,36.1,5.1,54.8-40.7,5.7-14,10.6-31,11.2-52.7l12.1,4.4.7,1.3h0Z"/></g></g><g id="L_back"><g class="cls-24"><path class="cls-20" d="m190.7,37.5c1.6,3.9,5.4,11.2,12.1,16.9l.3.3-8.7,12-.2-.9c-2.4-8.7-3.9-18.2-4.3-28.1v-2.5c-.1,0,.9,2.3.9,2.3h0Z"/><path class="cls-20" d="m199.7,62.2c-6.5-3.3-11.6-11.2-15.5-18.3v-10.5l30.8,16.2-15.3,12.5h0Z"/><path class="cls-20" d="m201.1,58.2c-6.5-3.4-11.5-11.2-15.5-18.4v-10.5s30.8,16.4,30.8,16.4l-15.3,12.5h0Z"/></g></g><g id="R_back"><g class="cls-28"><path class="cls-20" d="m329.5,37.8c-1.6,3.9-5.4,11.2-12.2,17l-.3.3,8.8,12.1.2-.9c2.4-8.8,3.9-18.3,4.4-28.3v-2.6c.1,0-.9,2.4-.9,2.4h0Z"/><path class="cls-20" d="m320.4,62.6c6.6-3.4,11.6-11.2,15.6-18.4v-10.5l-31,16.3,15.4,12.6Z"/><path class="cls-20" d="m319.1,58.5c6.5-3.4,11.6-11.3,15.5-18.5v-10.5s-31,16.4-31,16.4l15.4,12.5h0Z"/></g></g><g id="back"><path class="cls-19" d="m316.9,55l-.4.2c-17,9.8-35.5,14.7-54.9,14.7-31.7,0-55.7-13.2-58.3-14.7l-.3-.2-7.2,9.5.4.3c1.7,1,17.1,9.7,39.2,14.1,7.5,1.5,16.3,2.6,26,2.6,18.4,0,40-3.9,62-16.6l.4-.2-7-9.6h0Z"/><g class="cls-27"><path class="cls-20" d="m316.9,55l-.4.2c-17,9.8-35.5,14.7-54.9,14.7-31.7,0-55.7-13.2-58.3-14.7l-.3-.2-7.2,9.5.4.3c1.7,1,17.1,9.7,39.2,14.1,7.5,1.5,16.3,2.6,26,2.6,18.4,0,40-3.9,62-16.6l.4-.2-7-9.6h0Z"/><path class="cls-20" d="m316.6,51.2l-.4.2c-16.9,9.8-35.2,14.7-54.5,14.7-31.5,0-55.3-13.2-57.9-14.7l-.3-.2-7.2,9.5.4.3c1.7,1,16.9,9.7,39,14.1,7.4,1.5,16.2,2.6,25.8,2.6,18.2,0,39.7-3.9,61.6-16.6l.4-.2-7-9.6h0Z"/><path class="cls-20" d="m316.6,45.4l-.4.2c-16.9,10.6-35.2,15.9-54.5,15.9-31.5,0-55.3-14.3-57.9-15.9l-.3-.2-7.2,10.3.4.3c1.7,1.1,16.9,10.5,39,15.3,7.4,1.6,16.2,2.8,25.8,2.8,18.2,0,39.7-4.2,61.6-17.9l.4-.3-7-10.4h0Z"/></g></g><path class="cls-17" d="m444.8,645.6c-.8-4.4-2.9-15.7-5.7-25.6,0-.2-.2-.3-.4-.3h0c-.2,0-.4.1-.4.3l-14.7,46.9h0c-55.6,11.9-112.9,17.9-170.3,17.9s-44.6-.9-66-2.8c-58-5-94.2-15-94.6-15.1l-14.7-46.9c0-.2-.2-.3-.4-.3h0c-.2,0-.4.1-.4.3-3.4,11.9-5.8,25.9-6.1,27.8,0,0,0,.2,0,.3v21.6s0,0,0,0c.1.8.8,4.9,3.4,8,0,0,.1.1.2.1,3.9,1.5,40.4,14.3,100.5,20.9,20,2.2,44,3.8,71.4,3.8,52.1,0,116.3-5.9,188-24.8l7.4-1.6c.1,0,.2,0,.2-.2,2.5-3.2,2.9-7.5,2.9-7.6h0v-22.8h0Z"/><path class="cls-22" d="m323.9,65h-.2c-19.2,11.1-40.1,16.7-62.2,16.7s-17.5-.9-26.1-2.6c-22.4-4.5-37.7-13.2-39.4-14.2h-.2c0-.1-.9,1-.9,1h0c2.2,8.1,5,15.6,8.4,22.4.2.4,17.4,36,54.1,38.2.1,0,1.3.1,3.3.1,9.9,0,39.6-3.1,56.6-39h0s.4-.9.4-.9c3.1-6.7,5.5-13.2,7.4-19.8h0c0-.1-1.4-2.1-1.4-2.1h0Z"/><path class="cls-12" d="m70.2,251.3h2.7c18.5,0,125.7-8,71.1-199.6l-1.4-3.8"/><path class="cls-12" d="m373.5,48.1l-.5,1.6c-56.7,195.9,54.1,201.8,70.9,201.6h2.1"/><path class="cls-13" d="m189.6,34.5s3.6,12,13.6,20.4c0,0,55.6,33.7,113.6,0,10.1-8.4,13.9-19.7,13.9-19.7"/><path class="cls-12" d="m196.1,64.7s62.6,37.9,128,0"/><line class="cls-12" x1="194.7" y1="66.1" x2="203.2" y2="54.9"/><line class="cls-7" x1="193.9" y1="65.3" x2="202.5" y2="54"/><line class="cls-12" x1="316.8" y1="54.9" x2="326" y2="67.5"/><line class="cls-7" x1="317.7" y1="54.3" x2="326.6" y2="66.5"/><path class="cls-12" d="m70.9,647.9s4.9-29.8,11.1-41.4c6.2-11.6,9.3-23,9.8-29.5"/><path class="cls-12" d="m77.6,618.8l15.1,48s141.9,40.3,330.9,0l15.1-48"/><path class="cls-12" d="m445.3,647.9s-4.9-29.8-11.1-41.4-9.3-23-9.8-29.5"/><line class="cls-7" x1="78.3" y1="616.3" x2="94.9" y2="667.3"/><line class="cls-7" x1="438" y1="616.3" x2="421.5" y2="667.3"/><path class="cls-10" d="m425.5,661c-57.3,13.5-112.1,17.5-162.2,17.5-99.5,0-171.6-17.4-172.7-17.7"/><path class="cls-14" d="m89.9,657.1c1.6.4,166.4,40,336.5,0"/><path class="cls-7" d="m445.4,249.8h-2.6c-18.1,0-122.5-7.9-69.2-196.9l1.3-3.7"/><path class="cls-5" d="m72.2,669.4c-.2.5-.5.8-.7.7-.2,0-.3-.5-.1-1,.2-.5.5-.8.7-.7.2,0,.3.5.1,1Z"/><path class="cls-5" d="m71.8,670.4c-.2.5-.5.8-.7.7-.2,0-.3-.5-.1-1,.2-.5.5-.8.7-.7.2,0,.3.5.1,1h0Z"/><path class="cls-5" d="m73.4,669.8c-.2.5-.5.8-.7.7-.2,0-.3-.5-.1-1s.5-.8.7-.7c.2,0,.3.5.1,1h0Z"/><path class="cls-5" d="m73,670.8c-.2.5-.5.8-.7.7-.2,0-.3-.5-.1-1s.5-.8.7-.7c.2,0,.3.5.1,1Z"/><path class="cls-5" d="m74.6,670.2c-.1.5-.5.8-.7.7s-.3-.5-.1-1c.2-.5.5-.8.7-.7.2,0,.3.5.1,1Z"/><path class="cls-5" d="m74.3,671.2c-.1.5-.5.8-.7.7s-.3-.5-.1-1c.2-.5.5-.8.7-.7.2,0,.3.5.1,1Z"/><path class="cls-5" d="m75.8,670.6c-.1.5-.5.8-.7.7-.2,0-.3-.5-.1-1,.1-.5.5-.8.7-.7.2,0,.3.5.1,1h0Z"/><path class="cls-5" d="m75.5,671.6c-.1.5-.5.8-.7.7s-.3-.5-.1-1c.1-.5.5-.8.7-.7s.3.5.1,1Z"/><path class="cls-5" d="m77.1,670.9c-.1.5-.5.8-.7.7-.2,0-.3-.5-.2-1s.5-.8.7-.7c.2,0,.3.5.2,1Z"/><path class="cls-5" d="m76.7,672c-.1.5-.5.8-.7.7-.2,0-.3-.5-.2-1s.5-.8.7-.7c.2,0,.3.5.2,1Z"/><path class="cls-5" d="m78.3,671.3c-.1.5-.5.8-.7.7s-.3-.5-.2-1,.5-.8.7-.7c.2,0,.3.5.2,1Z"/><path class="cls-5" d="m78,672.4c-.1.5-.5.8-.7.7-.2,0-.3-.5-.2-1s.5-.8.7-.7c.2,0,.3.5.2,1Z"/><path class="cls-5" d="m79.5,671.7c-.1.5-.5.8-.7.7-.2,0-.3-.5-.2-1,.1-.5.5-.8.7-.7.2,0,.3.5.2,1Z"/><path class="cls-5" d="m79.2,672.7c-.1.5-.5.8-.7.7-.2,0-.3-.5-.2-1,.1-.5.5-.8.7-.7.2,0,.3.5.2,1Z"/><path class="cls-5" d="m80.8,672.1c-.1.5-.4.8-.7.7-.2,0-.3-.5-.2-1,.1-.5.4-.8.7-.7.2,0,.3.5.2,1Z"/><path class="cls-5" d="m80.4,673.1c-.1.5-.4.8-.7.7-.2,0-.3-.5-.2-1,.1-.5.5-.8.7-.7.2,0,.3.5.2,1Z"/><path class="cls-5" d="m82,672.4c-.1.5-.4.8-.7.7s-.3-.5-.2-1c.1-.5.4-.8.7-.7s.3.5.2,1h0Z"/><path class="cls-5" d="m81.7,673.5c-.1.5-.4.8-.7.7s-.3-.5-.2-1c.1-.5.4-.8.7-.7s.3.5.2,1Z"/><path class="cls-5" d="m83.2,672.8c-.1.5-.4.8-.7.7s-.3-.5-.2-1c.1-.5.4-.8.7-.7s.3.5.2,1Z"/><path class="cls-5" d="m82.9,673.8c-.1.5-.4.8-.7.7s-.3-.5-.2-1c.1-.5.4-.8.7-.7s.3.5.2,1Z"/><path class="cls-5" d="m84.5,673.2c-.1.5-.4.8-.7.7-.2,0-.3-.5-.2-1,.1-.5.4-.8.7-.7.2,0,.3.5.2,1Z"/><path class="cls-5" d="m84.2,674.2c-.1.5-.4.8-.7.7-.2,0-.3-.5-.2-1s.4-.8.7-.7.3.5.2,1h0Z"/><path class="cls-5" d="m85.7,673.5c-.1.5-.4.8-.7.7-.2,0-.3-.5-.2-1,.1-.5.4-.8.7-.7.2,0,.3.5.2,1Z"/><path class="cls-5" d="m85.4,674.5c-.1.5-.4.8-.7.7-.2,0-.3-.5-.2-1,.1-.5.4-.8.7-.7.2,0,.3.5.2,1Z"/><path class="cls-5" d="m86.9,673.9c-.1.5-.4.8-.7.8-.2,0-.3-.5-.2-1,.1-.5.4-.8.7-.8.2,0,.3.5.2,1Z"/><path class="cls-5" d="m86.6,674.9c-.1.5-.4.8-.7.7-.2,0-.3-.5-.2-1s.4-.8.7-.7c.2,0,.3.5.2,1Z"/><path class="cls-5" d="m88.2,674.2c-.1.5-.4.8-.7.8-.2,0-.3-.5-.2-1,.1-.5.4-.8.7-.8.2,0,.3.5.2,1Z"/><path class="cls-5" d="m87.9,675.2c-.1.5-.4.8-.7.8-.2,0-.3-.5-.2-1,.1-.5.4-.8.7-.8.2,0,.3.5.2,1Z"/><path class="cls-5" d="m89.4,674.5c-.1.5-.4.8-.7.8s-.3-.5-.2-1,.4-.8.7-.8.3.5.2,1Z"/><path class="cls-5" d="m89.1,675.6c-.1.5-.4.8-.7.8-.2,0-.3-.5-.2-1s.4-.8.7-.8c.2,0,.3.5.2,1Z"/><path class="cls-5" d="m90.7,674.9c-.1.5-.4.8-.7.8s-.3-.5-.2-1,.4-.8.7-.8.3.5.2,1Z"/><path class="cls-5" d="m90.4,675.9c-.1.5-.4.8-.7.8s-.3-.5-.2-1,.4-.8.7-.8.3.5.2,1Z"/><path class="cls-5" d="m91.9,675.2c-.1.5-.4.8-.7.8s-.3-.5-.2-1,.4-.8.7-.8c.2,0,.3.5.2,1Z"/><path class="cls-5" d="m91.6,676.3c-.1.5-.4.8-.7.8s-.3-.5-.2-1,.4-.8.7-.8.3.5.2,1Z"/><path class="cls-5" d="m93.1,675.6c-.1.5-.4.8-.7.8s-.3-.5-.2-1,.4-.8.7-.8.3.5.2,1Z"/><path class="cls-5" d="m92.9,676.6c-.1.5-.4.8-.7.8s-.3-.5-.2-1,.4-.8.7-.8.3.5.2,1Z"/><path class="cls-5" d="m94.4,675.9c-.1.5-.4.8-.7.8-.2,0-.3-.5-.2-1,.1-.5.4-.8.7-.8.2,0,.3.5.2,1h0Z"/><path class="cls-5" d="m94.1,676.9c-.1.5-.4.8-.7.8-.2,0-.3-.5-.2-1,.1-.5.4-.8.7-.8s.3.5.2,1Z"/><path class="cls-5" d="m95.6,676.2c-.1.5-.4.8-.7.8s-.3-.5-.2-1c.1-.5.4-.8.7-.8s.3.5.2,1Z"/><path class="cls-5" d="m95.4,677.2c-.1.5-.4.8-.7.8s-.3-.5-.2-1c.1-.5.4-.8.7-.8s.3.5.2,1Z"/><path class="cls-5" d="m96.9,676.5c-.1.5-.4.8-.7.8s-.3-.5-.2-1c.1-.5.4-.8.7-.8s.3.5.2,1Z"/><path class="cls-5" d="m96.6,677.6c-.1.5-.4.8-.7.8s-.3-.5-.2-1c.1-.5.4-.8.7-.8s.3.5.2,1Z"/><path class="cls-5" d="m98.1,676.8c-.1.5-.4.8-.7.8-.2,0-.3-.5-.2-1,.1-.5.4-.8.7-.8s.3.5.2,1Z"/><path class="cls-5" d="m97.9,677.9c-.1.5-.4.8-.7.8-.2,0-.3-.5-.2-1,.1-.5.4-.8.7-.8s.3.5.2,1Z"/><path class="cls-5" d="m99.4,677.2c-.1.5-.4.8-.7.8-.2,0-.3-.5-.2-1,.1-.5.4-.8.7-.8.2,0,.3.5.2,1Z"/><path class="cls-5" d="m99.1,678.2c-.1.5-.4.8-.7.8-.2,0-.3-.5-.2-1,.1-.5.4-.8.7-.8.2,0,.3.5.2,1Z"/><path class="cls-5" d="m100.6,677.5c-.1.5-.4.8-.6.8-.2,0-.3-.5-.2-1s.4-.8.6-.8c.2,0,.3.5.2,1Z"/><path class="cls-5" d="m100.4,678.5c-.1.5-.4.8-.7.8-.2,0-.3-.5-.2-1s.4-.8.7-.8c.2,0,.3.5.2,1Z"/><path class="cls-5" d="m101.9,677.8c-.1.5-.4.8-.6.8-.2,0-.3-.5-.2-1s.4-.8.6-.8c.2,0,.3.5.2,1Z"/><path class="cls-5" d="m101.6,678.8c-.1.5-.4.8-.6.8-.2,0-.3-.5-.2-1s.4-.8.6-.8c.2,0,.3.5.2,1Z"/><path class="cls-5" d="m103.1,678.1c-.1.5-.4.8-.6.8-.2,0-.3-.5-.2-1,.1-.5.4-.8.6-.8.2,0,.3.5.2,1Z"/><path class="cls-5" d="m102.9,679.1c-.1.5-.4.8-.6.8-.2,0-.3-.5-.2-1,.1-.5.4-.8.6-.8.2,0,.3.5.2,1Z"/><path class="cls-5" d="m104.4,678.4c-.1.5-.4.8-.6.8-.2,0-.3-.5-.2-1,.1-.5.4-.8.6-.8.2,0,.3.5.2,1Z"/><path class="cls-5" d="m104.1,679.4c-.1.5-.4.8-.6.8-.2,0-.4-.5-.2-1,.1-.5.4-.8.6-.8.2,0,.3.5.2,1Z"/><path class="cls-5" d="m105.6,678.7c-.1.5-.4.8-.6.8-.2,0-.4-.5-.2-1,.1-.5.4-.8.6-.8.2,0,.3.5.2,1Z"/><path class="cls-5" d="m105.4,679.7c-.1.5-.4.8-.6.8s-.4-.5-.2-1c.1-.5.4-.8.6-.8.2,0,.4.5.2,1Z"/><path class="cls-5" d="m106.9,679c-.1.5-.4.8-.6.8s-.4-.5-.2-1c.1-.5.4-.8.6-.8s.4.5.2,1Z"/><path class="cls-5" d="m106.6,680c-.1.5-.4.8-.6.8s-.4-.5-.2-1,.4-.8.6-.8.4.5.2,1Z"/><path class="cls-5" d="m108.1,679.3c-.1.5-.4.8-.6.8-.2,0-.4-.5-.2-1s.4-.8.6-.8c.2,0,.4.5.2,1Z"/><path class="cls-5" d="m107.9,680.3c-.1.5-.4.8-.6.8-.2,0-.4-.5-.2-1s.4-.8.6-.8c.2,0,.4.5.2,1Z"/><path class="cls-5" d="m109.4,679.5c-.1.5-.4.8-.6.8-.2,0-.4-.5-.2-1s.4-.8.6-.8c.2,0,.4.5.2,1Z"/><path class="cls-5" d="m109.2,680.6c-.1.5-.4.8-.6.8-.2,0-.4-.5-.2-1s.4-.8.6-.8c.2,0,.4.5.2,1Z"/><path class="cls-5" d="m110.7,679.8c-.1.5-.4.8-.6.8-.2,0-.4-.5-.2-1s.4-.8.6-.8c.2,0,.4.5.2,1Z"/><path class="cls-5" d="m110.4,680.9c-.1.5-.4.8-.6.8-.2,0-.4-.5-.2-1s.4-.8.6-.8c.2,0,.4.5.2,1Z"/><path class="cls-5" d="m111.9,680.1c-.1.5-.4.8-.6.8-.2,0-.4-.5-.2-1s.4-.8.6-.8c.2,0,.4.5.2,1Z"/><path class="cls-5" d="m111.7,681.1c-.1.5-.4.8-.6.8-.2,0-.4-.5-.2-1s.4-.8.6-.8c.2,0,.4.5.2,1Z"/><path class="cls-5" d="m113.2,680.4c-.1.5-.4.8-.6.8-.2,0-.4-.5-.2-1s.4-.8.6-.8c.2,0,.4.5.2,1Z"/><path class="cls-5" d="m112.9,681.4c-.1.5-.4.8-.6.8-.2,0-.4-.5-.2-1,.1-.5.4-.8.6-.8.2,0,.4.5.2,1Z"/><path class="cls-5" d="m114.4,680.7c-.1.5-.4.8-.6.8-.2,0-.4-.5-.2-1,.1-.5.4-.8.6-.8s.4.5.2,1Z"/><path class="cls-5" d="m114.2,681.7c-.1.5-.4.8-.6.8-.2,0-.4-.5-.2-1,.1-.5.4-.8.6-.8.2,0,.4.5.2,1Z"/><path class="cls-5" d="m115.7,680.9c-.1.5-.4.8-.6.8-.2,0-.4-.5-.2-1s.4-.8.6-.8c.2,0,.4.5.2,1h0Z"/><path class="cls-5" d="m115.5,682c-.1.5-.4.8-.6.8-.2,0-.4-.5-.2-1s.4-.8.6-.8c.2,0,.4.5.2,1h0Z"/><path class="cls-5" d="m116.9,681.2c-.1.5-.4.8-.6.8-.2,0-.4-.5-.2-1,.1-.5.4-.8.6-.8.2,0,.4.5.2,1Z"/><path class="cls-5" d="m116.7,682.2c-.1.5-.4.8-.6.8-.2,0-.4-.5-.2-1,.1-.5.4-.8.6-.8.2,0,.4.5.2,1Z"/><path class="cls-5" d="m118.2,681.5c-.1.5-.4.8-.6.8-.2,0-.4-.5-.2-1,.1-.5.4-.8.6-.8.2,0,.4.5.2,1Z"/><path class="cls-5" d="m118,682.5c-.1.5-.4.8-.6.8-.2,0-.4-.5-.2-1,.1-.5.4-.8.6-.8.2,0,.4.5.2,1Z"/><path class="cls-5" d="m119.5,681.7c-.1.5-.4.8-.6.8s-.4-.5-.3-1,.4-.8.6-.8c.2,0,.4.5.3,1Z"/><path class="cls-5" d="m119.2,682.8c-.1.5-.4.8-.6.8s-.4-.5-.3-1,.4-.8.6-.8c.2,0,.4.5.3,1Z"/><path class="cls-5" d="m120.7,682c-.1.5-.4.8-.6.8-.2,0-.4-.5-.3-1s.4-.8.6-.8c.2,0,.4.5.3,1Z"/><path class="cls-5" d="m120.5,683c-.1.5-.4.8-.6.8-.2,0-.4-.5-.3-1s.4-.8.6-.8c.2,0,.4.5.3,1Z"/><path class="cls-5" d="m122,682.2c-.1.5-.4.8-.6.8-.2,0-.4-.5-.3-1s.4-.8.6-.8c.2,0,.4.5.3,1Z"/><path class="cls-5" d="m121.8,683.3c-.1.5-.4.8-.6.8-.2,0-.4-.5-.3-1s.4-.8.6-.8c.2,0,.4.5.3,1Z"/><path class="cls-5" d="m123.2,682.5c-.1.5-.4.8-.6.8-.2,0-.4-.5-.3-1s.4-.8.6-.8.4.5.3,1Z"/><path class="cls-5" d="m123,683.6c-.1.5-.4.8-.6.8-.2,0-.4-.5-.3-1s.4-.8.6-.8c.2,0,.4.5.3,1Z"/><path class="cls-5" d="m124.5,682.8c-.1.5-.4.8-.6.8-.2,0-.4-.5-.3-1s.4-.8.6-.8c.2,0,.4.5.3,1h0Z"/><path class="cls-5" d="m124.3,683.8c-.1.5-.4.8-.6.8-.2,0-.4-.5-.3-1s.4-.8.6-.8c.2,0,.4.5.3,1h0Z"/><path class="cls-5" d="m125.8,683c-.1.5-.4.8-.6.8-.2,0-.4-.5-.3-1,.1-.5.4-.8.6-.8.2,0,.4.5.3,1Z"/><path class="cls-5" d="m125.6,684.1c-.1.5-.4.8-.6.8s-.4-.5-.3-1c.1-.5.4-.8.6-.8.2,0,.4.5.3,1Z"/><path class="cls-5" d="m127,683.3c-.1.5-.4.8-.6.8-.2,0-.4-.5-.3-1,.1-.5.4-.8.6-.8.2,0,.4.5.3,1Z"/><path class="cls-5" d="m126.8,684.3c-.1.5-.4.8-.6.8s-.4-.5-.3-1c.1-.5.4-.8.6-.8.2,0,.4.5.3,1Z"/><path class="cls-5" d="m128.3,683.5c0,.5-.4.8-.6.8s-.4-.5-.3-1c.1-.5.4-.8.6-.8s.4.5.3,1Z"/><path class="cls-5" d="m128.1,684.5c0,.5-.4.8-.6.8-.2,0-.4-.5-.3-1,.1-.5.4-.8.6-.8s.4.5.3,1Z"/><path class="cls-5" d="m129.6,683.7c0,.5-.4.8-.6.8s-.4-.5-.3-1c0-.5.4-.8.6-.8s.4.5.3,1Z"/><path class="cls-5" d="m129.4,684.8c0,.5-.4.8-.6.8-.2,0-.4-.5-.3-1,0-.5.4-.8.6-.8s.4.5.3,1Z"/><path class="cls-5" d="m130.8,684c0,.5-.4.8-.6.8s-.4-.5-.3-1,.4-.8.6-.8.4.5.3,1Z"/><path class="cls-5" d="m130.6,685c0,.5-.4.8-.6.8s-.4-.5-.3-1,.4-.8.6-.8.4.5.3,1Z"/><path class="cls-5" d="m132.1,684.2c0,.5-.4.8-.6.8-.2,0-.4-.5-.3-1s.4-.8.6-.8c.2,0,.4.5.3,1Z"/><path class="cls-5" d="m131.9,685.3c0,.5-.4.8-.6.8s-.4-.5-.3-1,.4-.8.6-.8c.2,0,.4.5.3,1Z"/><path class="cls-5" d="m133.4,684.5c0,.5-.4.8-.6.8-.2,0-.4-.5-.3-1s.4-.8.6-.8c.2,0,.4.5.3,1Z"/><path class="cls-5" d="m133.2,685.5c0,.5-.4.8-.6.8s-.4-.5-.3-1,.4-.8.6-.8c.2,0,.4.5.3,1Z"/><path class="cls-5" d="m134.6,684.7c0,.5-.4.8-.6.8s-.4-.5-.3-1c0-.5.4-.8.6-.8.2,0,.4.5.3,1Z"/><path class="cls-5" d="m134.4,685.7c0,.5-.4.8-.6.8s-.4-.5-.3-1c0-.5.4-.8.6-.8s.4.5.3,1Z"/><path class="cls-5" d="m135.9,684.9c0,.5-.4.8-.6.8-.2,0-.4-.5-.3-1s.4-.8.6-.8.4.5.3,1Z"/><path class="cls-5" d="m135.7,686c0,.5-.4.8-.6.8-.2,0-.4-.5-.3-1s.4-.8.6-.8c.2,0,.4.5.3,1h0Z"/><path class="cls-5" d="m137.2,685.1c0,.5-.4.8-.6.8s-.4-.5-.3-1c0-.5.4-.8.6-.8s.4.5.3,1Z"/><path class="cls-5" d="m137,686.2c0,.5-.4.8-.6.8-.2,0-.4-.5-.3-1,0-.5.4-.8.6-.8.2,0,.4.5.3,1Z"/><path class="cls-5" d="m138.4,685.3c0,.5-.4.8-.6.8s-.4-.5-.3-1c0-.5.4-.8.6-.8s.4.5.3,1Z"/><path class="cls-5" d="m138.3,686.4c0,.5-.4.8-.6.8s-.4-.5-.3-1c0-.5.4-.8.6-.8.2,0,.4.5.3,1Z"/><path class="cls-5" d="m139.7,685.6c0,.5-.4.9-.6.8s-.4-.5-.3-1c0-.5.4-.9.6-.8.2,0,.4.5.3,1Z"/><path class="cls-5" d="m139.5,686.6c0,.5-.4.9-.6.8-.2,0-.4-.5-.3-1,0-.5.4-.8.6-.8s.4.5.3,1Z"/><path class="cls-5" d="m141,685.8c0,.5-.4.9-.6.8s-.4-.5-.3-1c0-.5.4-.9.6-.8.2,0,.4.5.3,1Z"/><path class="cls-5" d="m140.8,686.8c0,.5-.4.9-.6.8-.2,0-.4-.5-.3-1,0-.5.4-.9.6-.8.2,0,.4.5.3,1Z"/><path class="cls-5" d="m142.2,686c0,.5-.4.9-.6.8-.2,0-.4-.5-.3-1s.4-.9.6-.8c.2,0,.4.5.3,1Z"/><path class="cls-5" d="m142.1,687.1c0,.5-.4.9-.6.8-.2,0-.4-.5-.3-1,0-.5.4-.9.6-.8.2,0,.4.5.3,1Z"/><path class="cls-5" d="m143.5,686.2c0,.5-.4.9-.6.8s-.4-.5-.3-1,.4-.9.6-.8c.2,0,.4.5.3,1Z"/><path class="cls-5" d="m143.3,687.3c0,.5-.4.9-.6.8-.2,0-.4-.5-.3-1s.4-.9.6-.8c.2,0,.4.5.3,1Z"/><path class="cls-5" d="m144.8,686.4c0,.5-.4.9-.6.8-.2,0-.4-.5-.3-1,0-.5.4-.9.6-.8.2,0,.4.5.3,1Z"/><path class="cls-5" d="m144.6,687.5c0,.5-.4.9-.6.8-.2,0-.4-.5-.3-1,0-.5.4-.9.6-.8.2,0,.4.5.3,1Z"/><path class="cls-5" d="m146.1,686.6c0,.5-.3.9-.6.8s-.4-.5-.3-1c0-.5.3-.9.6-.8s.4.5.3,1Z"/><path class="cls-5" d="m145.9,687.7c0,.5-.3.9-.6.8s-.4-.5-.3-1c0-.5.4-.9.6-.8.2,0,.4.5.3,1Z"/><path class="cls-5" d="m147.3,686.8c0,.5-.3.9-.6.8s-.4-.5-.3-1c0-.5.3-.9.6-.8s.4.5.3,1Z"/><path class="cls-5" d="m147.2,687.9c0,.5-.3.9-.6.8s-.4-.5-.3-1c0-.5.3-.9.6-.8s.4.5.3,1Z"/><path class="cls-5" d="m148.6,687c0,.5-.3.9-.6.8s-.4-.5-.3-1c0-.5.3-.9.6-.8s.4.5.3,1Z"/><path class="cls-5" d="m148.4,688.1c0,.5-.3.9-.6.8s-.4-.5-.3-1c0-.5.3-.9.6-.8s.4.5.3,1Z"/><path class="cls-5" d="m149.9,687.2c0,.5-.3.9-.6.8-.2,0-.4-.5-.3-1,0-.5.3-.9.6-.8.2,0,.4.5.3,1Z"/><path class="cls-5" d="m149.7,688.3c0,.5-.3.9-.6.8s-.4-.5-.3-1c0-.5.3-.9.6-.8s.4.5.3,1Z"/><path class="cls-5" d="m151.1,687.4c0,.5-.3.9-.6.8-.2,0-.4-.5-.3-1s.3-.9.6-.8c.2,0,.4.5.3,1Z"/><path class="cls-5" d="m151,688.5c0,.5-.3.9-.6.8-.2,0-.4-.5-.3-1,0-.5.3-.9.6-.8.2,0,.4.5.3,1Z"/><path class="cls-5" d="m152.4,687.6c0,.5-.3.9-.6.8s-.4-.5-.3-1c0-.5.3-.9.6-.8.2,0,.4.5.3,1Z"/><path class="cls-5" d="m152.3,688.7c0,.5-.3.9-.6.8-.2,0-.4-.5-.3-1,0-.5.3-.9.6-.8.2,0,.4.5.3,1Z"/><path class="cls-5" d="m153.7,687.8c0,.5-.3.9-.6.8s-.4-.5-.3-1c0-.5.3-.9.6-.8s.4.5.3,1Z"/><path class="cls-5" d="m153.5,688.9c0,.5-.3.9-.6.8s-.4-.5-.3-1c0-.5.3-.9.6-.8s.4.5.3,1Z"/><path class="cls-5" d="m155,688c0,.5-.3.9-.6.8s-.4-.5-.3-1c0-.5.3-.9.6-.8s.4.5.3,1Z"/><path class="cls-5" d="m154.8,689.1c0,.5-.3.9-.6.8s-.4-.5-.3-1c0-.5.3-.9.6-.8s.4.5.3,1Z"/><path class="cls-5" d="m156.2,688.2c0,.5-.3.9-.6.8-.2,0-.4-.5-.3-1,0-.5.3-.9.6-.8.2,0,.4.5.3,1Z"/><path class="cls-5" d="m156.1,689.3c0,.5-.3.9-.6.8-.2,0-.4-.5-.3-1,0-.5.3-.9.6-.8.2,0,.4.5.3,1Z"/><path class="cls-5" d="m157.5,688.4c0,.5-.3.9-.6.8-.2,0-.4-.5-.3-1s.3-.9.6-.8c.2,0,.4.5.3,1Z"/><path class="cls-5" d="m157.4,689.4c0,.5-.3.9-.6.8-.2,0-.4-.5-.3-1,0-.5.3-.9.6-.8.2,0,.4.5.3,1Z"/><path class="cls-5" d="m158.8,688.6c0,.5-.3.9-.6.8-.2,0-.4-.5-.3-1,0-.5.3-.9.6-.8.2,0,.4.5.3,1Z"/><path class="cls-5" d="m158.6,689.6c0,.5-.3.9-.6.8-.2,0-.4-.5-.3-1,0-.5.3-.9.6-.8.2,0,.4.5.3,1Z"/><path class="cls-5" d="m160.1,688.7c0,.5-.3.9-.6.8-.2,0-.4-.5-.3-1,0-.5.3-.9.6-.8.2,0,.4.5.3,1Z"/><path class="cls-5" d="m159.9,689.8c0,.5-.3.9-.6.8-.2,0-.4-.5-.3-1,0-.5.3-.9.6-.8.2,0,.4.5.3,1Z"/><path class="cls-5" d="m161.3,688.9c0,.5-.3.9-.6.8-.2,0-.4-.5-.3-1,0-.5.3-.9.6-.8.2,0,.4.5.3,1Z"/><path class="cls-5" d="m161.2,690c0,.5-.3.9-.6.8-.2,0-.4-.5-.3-1,0-.5.3-.9.6-.8.2,0,.4.5.3,1Z"/><path class="cls-5" d="m162.6,689.1c0,.5-.3.9-.6.8-.2,0-.4-.5-.3-1,0-.5.3-.9.6-.8.2,0,.4.5.3,1Z"/><path class="cls-5" d="m162.5,690.1c0,.5-.3.9-.6.8-.2,0-.4-.5-.3-1s.3-.9.6-.8c.2,0,.4.5.3,1Z"/><path class="cls-5" d="m163.9,689.3c0,.5-.3.9-.6.8-.2,0-.4-.5-.3-1,0-.5.3-.9.6-.8.2,0,.4.5.3,1Z"/><path class="cls-5" d="m163.8,690.3c0,.5-.3.9-.6.8-.2,0-.4-.5-.3-1,0-.5.3-.9.6-.8.2,0,.4.5.3,1Z"/><path class="cls-5" d="m165.2,689.4c0,.5-.3.9-.6.8s-.4-.5-.3-1c0-.5.3-.9.6-.8.2,0,.4.5.3,1Z"/><path class="cls-5" d="m165,690.5c0,.5-.3.9-.6.8-.2,0-.4-.5-.3-1,0-.5.3-.9.6-.8.2,0,.4.5.3,1Z"/><path class="cls-5" d="m166.4,689.6c0,.5-.3.9-.6.8-.2,0-.4-.5-.3-1,0-.5.3-.9.6-.8.2,0,.4.5.3,1Z"/><path class="cls-5" d="m166.3,690.7c0,.5-.3.9-.6.8-.2,0-.4-.5-.3-1,0-.5.3-.9.6-.8.2,0,.4.5.3,1Z"/><path class="cls-5" d="m167.7,689.8c0,.5-.3.9-.6.8-.2,0-.4-.5-.3-1,0-.5.3-.9.6-.8.2,0,.4.5.3,1Z"/><path class="cls-5" d="m167.6,690.8c0,.5-.3.9-.6.8-.2,0-.4-.5-.3-1,0-.5.3-.9.6-.8.2,0,.4.5.3,1Z"/><path class="cls-5" d="m169,689.9c0,.5-.3.9-.6.8-.2,0-.4-.5-.3-1,0-.5.3-.9.6-.8.2,0,.4.5.3,1Z"/><path class="cls-5" d="m168.9,691c0,.5-.3.9-.6.8-.2,0-.4-.5-.3-1,0-.5.3-.9.6-.8.2,0,.4.5.3,1Z"/><path class="cls-5" d="m170.3,690.1c0,.5-.3.9-.6.8-.2,0-.4-.5-.3-1,0-.5.3-.9.6-.8.2,0,.4.5.3,1Z"/><path class="cls-5" d="m170.2,691.1c0,.5-.3.9-.6.8-.2,0-.4-.5-.3-1,0-.5.3-.9.6-.8.2,0,.4.5.3,1Z"/><path class="cls-5" d="m171.6,690.2c0,.5-.3.9-.6.8-.2,0-.4-.5-.3-1,0-.5.3-.9.6-.8.2,0,.4.5.3,1Z"/><path class="cls-5" d="m171.4,691.3c0,.5-.3.9-.6.8-.2,0-.4-.5-.3-1,0-.5.3-.9.6-.8.2,0,.4.5.3,1Z"/><path class="cls-5" d="m172.8,690.4c0,.5-.3.9-.6.8-.2,0-.4-.5-.3-1s.3-.9.6-.8c.2,0,.4.5.3,1Z"/><path class="cls-5" d="m172.7,691.4c0,.5-.3.9-.6.8-.2,0-.4-.5-.3-1,0-.5.3-.9.6-.8s.4.5.3,1Z"/><path class="cls-5" d="m174.1,690.5c0,.5-.3.9-.6.8-.2,0-.4-.5-.3-1,0-.5.3-.9.6-.8.2,0,.4.5.3,1Z"/><path class="cls-5" d="m174,691.6c0,.5-.3.9-.6.8-.2,0-.4-.5-.3-1,0-.5.3-.9.6-.8.2,0,.4.5.3,1Z"/><path class="cls-5" d="m175.4,690.7c0,.5-.3.9-.6.8s-.4-.5-.3-1c0-.5.3-.9.6-.8.2,0,.4.5.3,1Z"/><path class="cls-5" d="m175.3,691.8c0,.5-.3.9-.6.8-.2,0-.4-.5-.3-1s.3-.9.6-.8.4.5.3,1Z"/><path class="cls-5" d="m176.7,690.8c0,.5-.3.9-.6.8-.2,0-.4-.5-.4-1,0-.5.3-.9.6-.8.2,0,.4.5.4,1Z"/><path class="cls-5" d="m176.6,691.9c0,.5-.3.9-.6.8-.2,0-.4-.5-.4-1,0-.5.3-.9.6-.8.2,0,.4.5.4,1Z"/><path class="cls-5" d="m178,691c0,.5-.3.9-.6.8-.2,0-.4-.5-.4-1,0-.5.3-.9.6-.8.2,0,.4.5.4,1Z"/><path class="cls-5" d="m177.8,692.1c0,.5-.3.9-.6.8-.2,0-.4-.5-.4-1,0-.5.3-.9.6-.8.2,0,.4.5.4,1Z"/><path class="cls-5" d="m179.2,691.1c0,.5-.3.9-.6.8s-.4-.5-.4-1c0-.5.3-.9.6-.8.2,0,.4.5.4,1h0Z"/><path class="cls-5" d="m179.1,692.2c0,.5-.3.9-.6.8s-.4-.5-.4-1c0-.5.3-.9.6-.8.2,0,.4.5.4,1h0Z"/><path class="cls-5" d="m180.5,691.3c0,.5-.3.9-.6.8s-.4-.5-.4-.9c0-.5.3-.9.6-.8.2,0,.4.5.4.9Z"/><path class="cls-5" d="m180.4,692.3c0,.5-.3.9-.6.8-.2,0-.4-.5-.4-.9,0-.5.3-.9.6-.8.2,0,.4.5.4.9Z"/><path class="cls-5" d="m181.8,691.4c0,.5-.3.9-.5.8-.2,0-.4-.5-.4-.9,0-.5.3-.9.5-.8.2,0,.4.5.4.9Z"/><path class="cls-5" d="m181.7,692.5c0,.5-.3.9-.5.8-.2,0-.4-.5-.4-.9,0-.5.3-.9.5-.8.2,0,.4.5.4.9Z"/><path class="cls-5" d="m183.1,691.5c0,.5-.3.9-.5.8s-.4-.5-.4-.9c0-.5.3-.9.5-.8.2,0,.4.5.4.9Z"/><path class="cls-5" d="m183,692.6c0,.5-.3.9-.5.8s-.4-.5-.4-.9c0-.5.3-.9.5-.8.2,0,.4.5.4.9Z"/><path class="cls-5" d="m184.4,691.7c0,.5-.3.9-.5.8-.2,0-.4-.5-.4-.9,0-.5.3-.9.5-.8.2,0,.4.5.4.9Z"/><path class="cls-5" d="m184.3,692.7c0,.5-.3.9-.5.8s-.4-.5-.4-.9c0-.5.3-.9.5-.8.2,0,.4.5.4.9Z"/><path class="cls-5" d="m185.6,691.8c0,.5-.3.9-.5.8-.2,0-.4-.5-.4-.9,0-.5.3-.9.5-.8.2,0,.4.5.4.9Z"/><path class="cls-5" d="m185.5,692.8c0,.5-.3.9-.5.8-.2,0-.4-.5-.4-.9,0-.5.3-.9.5-.8.2,0,.4.5.4.9Z"/><path class="cls-5" d="m186.9,691.9c0,.5-.3.9-.5.8-.2,0-.4-.5-.4-.9,0-.5.3-.9.5-.8.2,0,.4.5.4.9Z"/><path class="cls-5" d="m186.8,693c0,.5-.3.9-.5.8-.2,0-.4-.5-.4-.9,0-.5.3-.9.5-.8.2,0,.4.5.4.9Z"/><path class="cls-5" d="m188.2,692c0,.5-.3.9-.5.8-.2,0-.4-.5-.4-.9,0-.5.3-.9.5-.8.2,0,.4.5.4.9Z"/><path class="cls-5" d="m188.1,693.1c0,.5-.3.9-.5.8s-.4-.5-.4-.9c0-.5.3-.9.5-.8.2,0,.4.5.4.9Z"/><path class="cls-5" d="m189.5,692.2c0,.5-.3.9-.5.8-.2,0-.4-.5-.4-.9,0-.5.3-.9.5-.8.2,0,.4.5.4.9Z"/><path class="cls-5" d="m189.4,693.2c0,.5-.3.9-.5.8-.2,0-.4-.5-.4-.9,0-.5.3-.9.5-.8.2,0,.4.5.4.9Z"/><path class="cls-5" d="m190.8,692.3c0,.5-.3.9-.5.8-.2,0-.4-.5-.4-.9,0-.5.3-.9.5-.8.2,0,.4.5.4.9Z"/><path class="cls-5" d="m190.7,693.4c0,.5-.3.9-.5.8-.2,0-.4-.5-.4-.9,0-.5.3-.9.5-.8.2,0,.4.5.4.9Z"/><path class="cls-5" d="m192.1,692.4c0,.5-.3.9-.5.9s-.4-.5-.4-.9c0-.5.3-.9.5-.8s.4.4.4.9h0Z"/><path class="cls-5" d="m192,693.5c0,.5-.3.9-.5.9s-.4-.5-.4-.9c0-.5.3-.9.5-.8s.4.4.4.9h0Z"/><path class="cls-5" d="m193.3,692.5c0,.5-.3.9-.5.9s-.4-.4-.4-.9c0-.5.3-.9.5-.9s.4.4.4.9Z"/><path class="cls-5" d="m193.2,693.6c0,.5-.3.9-.5.9s-.4-.4-.4-.9c0-.5.3-.9.5-.9s.4.4.4.9Z"/><path class="cls-5" d="m194.6,692.6c0,.5-.3.9-.5.9s-.4-.4-.4-.9c0-.5.3-.9.5-.9s.4.4.4.9Z"/><path class="cls-5" d="m194.5,693.7c0,.5-.3.9-.5.9s-.4-.4-.4-.9c0-.5.3-.9.5-.9s.4.4.4.9Z"/><path class="cls-5" d="m195.9,692.7c0,.5-.3.9-.5.9s-.4-.4-.4-.9c0-.5.3-.9.5-.9s.4.4.4.9Z"/><path class="cls-5" d="m195.8,693.8c0,.5-.3.9-.5.9s-.4-.4-.4-.9c0-.5.3-.9.5-.9s.4.4.4.9Z"/><path class="cls-5" d="m197.2,692.8c0,.5-.3.9-.5.9s-.4-.4-.4-.9c0-.5.3-.9.5-.9.2,0,.4.4.4.9Z"/><path class="cls-5" d="m197.1,693.9c0,.5-.3.9-.5.9-.2,0-.4-.4-.4-.9,0-.5.3-.9.5-.9.2,0,.4.4.4.9Z"/><path class="cls-5" d="m198.5,692.9c0,.5-.3.9-.5.9s-.4-.4-.4-.9.3-.9.5-.9.4.4.4.9Z"/><path class="cls-5" d="m198.4,694c0,.5-.3.9-.5.9s-.4-.4-.4-.9.3-.9.5-.9.4.4.4.9Z"/><path class="cls-5" d="m199.8,693c0,.5-.3.9-.5.9s-.4-.4-.4-.9.3-.9.5-.9.4.4.4.9Z"/><path class="cls-5" d="m199.7,694.1c0,.5-.3.9-.5.9s-.4-.4-.4-.9.3-.9.5-.9.4.4.4.9Z"/><path class="cls-5" d="m201,693.1c0,.5-.3.9-.5.9s-.4-.4-.4-.9.3-.9.5-.9.4.4.4.9Z"/><path class="cls-5" d="m201,694.2c0,.5-.3.9-.5.9s-.4-.4-.4-.9.3-.9.5-.9.4.4.4.9Z"/><path class="cls-5" d="m202.3,693.3c0,.5-.3.9-.5.9s-.4-.4-.4-.9.3-.9.5-.9.4.4.4.9Z"/><path class="cls-5" d="m202.2,694.3c0,.5-.3.9-.5.9s-.4-.4-.4-.9.3-.9.5-.9.4.4.4.9Z"/><path class="cls-5" d="m203.6,693.4c0,.5-.3.9-.5.9s-.4-.4-.4-.9.3-.9.5-.9.4.4.4.9Z"/><path class="cls-5" d="m203.5,694.4c0,.5-.3.9-.5.9s-.4-.4-.4-.9.3-.9.5-.9.4.4.4.9Z"/><path class="cls-5" d="m204.9,693.5c0,.5-.3.9-.5.9-.2,0-.4-.4-.4-.9s.3-.9.5-.9c.2,0,.4.4.4.9Z"/><path class="cls-5" d="m204.8,694.5c0,.5-.3.9-.5.9-.2,0-.4-.4-.4-.9,0-.5.3-.9.5-.9.2,0,.4.4.4.9Z"/><path class="cls-5" d="m206.2,693.5c0,.5-.3.9-.5.9s-.4-.4-.4-.9c0-.5.3-.9.5-.9.2,0,.4.4.4.9Z"/><path class="cls-5" d="m206.1,694.6c0,.5-.3.9-.5.9s-.4-.4-.4-.9c0-.5.3-.9.5-.9.2,0,.4.4.4.9Z"/><path class="cls-5" d="m207.5,693.6c0,.5-.3.9-.5.9-.2,0-.4-.4-.4-.9s.3-.9.5-.9c.2,0,.4.4.4.9Z"/><path class="cls-5" d="m207.4,694.7c0,.5-.3.9-.5.9-.2,0-.4-.4-.4-.9s.3-.9.5-.9c.2,0,.4.4.4.9Z"/><path class="cls-5" d="m208.7,693.7c0,.5-.3.9-.5.9s-.4-.4-.4-.9.3-.9.5-.9c.2,0,.4.4.4.9Z"/><path class="cls-5" d="m208.7,694.8c0,.5-.3.9-.5.9s-.4-.4-.4-.9.3-.9.5-.9c.2,0,.4.4.4.9Z"/><path class="cls-5" d="m210,693.8c0,.5-.3.9-.5.9-.2,0-.4-.4-.4-.9s.3-.9.5-.9c.2,0,.4.4.4.9Z"/><path class="cls-5" d="m210,694.8c0,.5-.3.9-.5.9-.2,0-.4-.4-.4-.9s.3-.9.5-.9.4.4.4.9Z"/><path class="cls-5" d="m211.3,693.9c0,.5-.3.9-.5.9s-.4-.4-.4-.9.3-.9.5-.9.4.4.4.9Z"/><path class="cls-5" d="m211.3,694.9c0,.5-.3.9-.5.9s-.4-.4-.4-.9c0-.5.3-.9.5-.9s.4.4.4.9Z"/><path class="cls-5" d="m212.6,693.9c0,.5-.3.9-.5.9-.2,0-.4-.4-.4-.9s.3-.9.5-.9c.2,0,.4.4.4.9Z"/><path class="cls-5" d="m212.5,695c0,.5-.3.9-.5.9-.2,0-.4-.4-.4-.9s.3-.9.5-.9c.2,0,.4.4.4.9Z"/><path class="cls-5" d="m213.9,694c0,.5-.2.9-.5.9-.2,0-.4-.4-.4-.9s.2-.9.5-.9c.2,0,.4.4.4.9Z"/><path class="cls-5" d="m213.8,695.1c0,.5-.2.9-.5.9-.2,0-.4-.4-.4-.9s.3-.9.5-.9c.2,0,.4.4.4.9Z"/><path class="cls-5" d="m215.2,694.1c0,.5-.2.9-.5.9-.2,0-.4-.4-.4-.9s.2-.9.5-.9c.2,0,.4.4.4.9Z"/><path class="cls-5" d="m215.1,695.2c0,.5-.2.9-.5.9s-.4-.4-.4-.9.2-.9.5-.9c.2,0,.4.4.4.9Z"/><path class="cls-5" d="m216.5,694.2c0,.5-.2.9-.5.9s-.4-.4-.4-.9.2-.9.5-.9c.2,0,.4.4.4.9Z"/><path class="cls-5" d="m216.4,695.2c0,.5-.2.9-.5.9-.2,0-.4-.4-.4-.9s.2-.9.5-.9.4.4.4.9Z"/><path class="cls-5" d="m217.7,694.2c0,.5-.2.9-.5.9-.2,0-.4-.4-.4-.9s.2-.9.5-.9c.2,0,.4.4.4.9Z"/><path class="cls-5" d="m217.7,695.3c0,.5-.2.9-.5.9-.2,0-.4-.4-.4-.9s.2-.9.5-.9c.2,0,.4.4.4.9Z"/><path class="cls-5" d="m219,694.3c0,.5-.2.9-.5.9s-.4-.4-.4-.9.2-.9.5-.9c.2,0,.4.4.4.9Z"/><path class="cls-5" d="m219,695.4c0,.5-.2.9-.5.9-.2,0-.4-.4-.4-.9s.2-.9.5-.9c.2,0,.4.4.4.9Z"/><path class="cls-5" d="m220.3,694.4c0,.5-.2.9-.5.9-.2,0-.4-.4-.4-.9,0-.5.2-.9.5-.9.2,0,.4.4.4.9Z"/><path class="cls-5" d="m220.3,695.4c0,.5-.2.9-.5.9-.2,0-.4-.4-.4-.9,0-.5.2-.9.5-.9.2,0,.4.4.4.9Z"/><path class="cls-5" d="m221.6,694.4c0,.5-.2.9-.5.9-.2,0-.4-.4-.4-.9s.2-.9.5-.9c.2,0,.4.4.4.9Z"/><path class="cls-5" d="m221.6,695.5c0,.5-.2.9-.5.9s-.4-.4-.4-.9.2-.9.5-.9c.2,0,.4.4.4.9Z"/><path class="cls-5" d="m222.9,694.5c0,.5-.2.9-.5.9-.2,0-.4-.4-.4-.9s.2-.9.5-.9c.2,0,.4.4.4.9Z"/><path class="cls-5" d="m222.8,695.5c0,.5-.2.9-.5.9-.2,0-.4-.4-.4-.9s.2-.9.5-.9c.2,0,.4.4.4.9Z"/><path class="cls-5" d="m224.2,694.5c0,.5-.2.9-.5.9-.2,0-.4-.4-.4-.9s.2-.9.5-.9c.2,0,.4.4.4.9Z"/><path class="cls-5" d="m224.1,695.6c0,.5-.2.9-.5.9-.2,0-.4-.4-.4-.9s.2-.9.5-.9c.2,0,.4.4.4.9Z"/><path class="cls-5" d="m225.5,694.6c0,.5-.2.9-.5.9-.2,0-.4-.4-.4-.9s.2-.9.5-.9c.2,0,.4.4.4.9Z"/><path class="cls-5" d="m225.4,695.7c0,.5-.2.9-.5.9-.2,0-.4-.4-.4-.9s.2-.9.5-.9c.2,0,.4.4.4.9Z"/><path class="cls-5" d="m226.8,694.6c0,.5-.2.9-.5.9-.2,0-.4-.4-.4-.9s.2-.9.5-.9c.2,0,.4.4.4.9Z"/><path class="cls-5" d="m226.7,695.7c0,.5-.2.9-.5.9-.2,0-.4-.4-.4-.9,0-.5.2-.9.5-.9.2,0,.4.4.4.9Z"/><path class="cls-5" d="m228,694.7c0,.5-.2.9-.5.9-.2,0-.4-.4-.4-.9s.2-.9.5-.9c.2,0,.4.4.4.9Z"/><path class="cls-5" d="m228,695.8c0,.5-.2.9-.5.9s-.4-.4-.4-.9.2-.9.5-.9c.2,0,.4.4.4.9Z"/><path class="cls-5" d="m229.3,694.7c0,.5-.2.9-.5.9-.2,0-.4-.4-.4-.9s.2-.9.5-.9c.2,0,.4.4.4.9Z"/><path class="cls-5" d="m229.3,695.8c0,.5-.2.9-.5.9-.2,0-.4-.4-.4-.9s.2-.9.5-.9c.2,0,.4.4.4.9Z"/><path class="cls-5" d="m230.6,694.8c0,.5-.2.9-.5.9-.2,0-.4-.4-.4-.9s.2-.9.5-.9c.2,0,.4.4.4.9Z"/><path class="cls-5" d="m230.6,695.9c0,.5-.2.9-.5.9-.2,0-.4-.4-.4-.9s.2-.9.5-.9c.2,0,.4.4.4.9Z"/><path class="cls-5" d="m231.9,694.8c0,.5-.2.9-.5.9-.2,0-.4-.4-.4-.9s.2-.9.5-.9c.2,0,.4.4.4.9Z"/><path class="cls-5" d="m231.9,695.9c0,.5-.2.9-.5.9-.2,0-.4-.4-.4-.9s.2-.9.5-.9c.2,0,.4.4.4.9Z"/><path class="cls-5" d="m233.2,694.9c0,.5-.2.9-.5.9-.2,0-.4-.4-.4-.9s.2-.9.5-.9c.2,0,.4.4.4.9Z"/><path class="cls-5" d="m233.2,696c0,.5-.2.9-.5.9-.2,0-.4-.4-.4-.9s.2-.9.5-.9c.2,0,.4.4.4.9Z"/><path class="cls-5" d="m234.5,694.9c0,.5-.2.9-.5.9-.2,0-.4-.4-.4-.9,0-.5.2-.9.5-.9s.4.4.4.9h0Z"/><path class="cls-5" d="m234.4,696c0,.5-.2.9-.5.9-.2,0-.4-.4-.4-.9,0-.5.2-.9.5-.9s.4.4.4.9h0Z"/><path class="cls-5" d="m235.8,695c0,.5-.2.9-.5.9-.2,0-.4-.4-.4-.9s.2-.9.5-.9c.2,0,.4.4.4.9Z"/><path class="cls-5" d="m235.7,696c0,.5-.2.9-.5.9-.2,0-.4-.4-.4-.9s.2-.9.5-.9c.2,0,.4.4.4.9Z"/><path class="cls-5" d="m237,695c0,.5-.2.9-.5.9-.2,0-.4-.4-.4-.9s.2-.9.5-.9c.2,0,.4.4.4.9Z"/><path class="cls-5" d="m237,696c0,.5-.2.9-.5.9-.2,0-.4-.4-.4-.9s.2-.9.5-.9c.2,0,.4.4.4.9Z"/><path class="cls-5" d="m238.3,695c0,.5-.2.9-.5.9-.2,0-.4-.4-.4-.9s.2-.9.5-.9.4.4.4.9Z"/><path class="cls-5" d="m238.3,696.1c0,.5-.2.9-.5.9-.2,0-.4-.4-.4-.9s.2-.9.5-.9c.2,0,.4.4.4.9Z"/><path class="cls-5" d="m239.6,695c0,.5-.2.9-.5.9-.2,0-.4-.4-.4-.9s.2-.9.5-.9.4.4.4.9Z"/><path class="cls-5" d="m239.6,696.1c0,.5-.2.9-.5.9-.2,0-.4-.4-.4-.9s.2-.9.5-.9c.2,0,.4.4.4.9Z"/><path class="cls-5" d="m240.9,695c0,.5-.2.9-.5.9-.2,0-.4-.4-.4-.9s.2-.9.5-.9.4.4.4.9Z"/><path class="cls-5" d="m240.9,696.1c0,.5-.2.9-.5.9-.2,0-.4-.4-.4-.9s.2-.9.5-.9c.2,0,.4.4.4.9Z"/><path class="cls-5" d="m242.2,695.1c0,.5-.2.9-.5.9-.2,0-.4-.4-.4-.9,0-.5.2-.9.5-.9.2,0,.4.4.4.9Z"/><path class="cls-5" d="m242.2,696.1c0,.5-.2.9-.5.9s-.4-.4-.4-.9.2-.9.5-.9c.2,0,.4.4.4.9h0Z"/><path class="cls-5" d="m243.5,695.1c0,.5-.2.9-.5.9-.2,0-.4-.4-.4-.9s.2-.9.5-.9c.2,0,.4.4.4.9h0Z"/><path class="cls-5" d="m243.5,696.2c0,.5-.2.9-.5.9-.2,0-.5-.4-.4-.9,0-.5.2-.9.5-.9.2,0,.4.4.4.9Z"/><path class="cls-5" d="m244.8,695.1c0,.5-.2.9-.5.9-.2,0-.5-.4-.4-.9,0-.5.2-.9.5-.9.2,0,.4.4.4.9Z"/><path class="cls-5" d="m244.8,696.2c0,.5-.2.9-.5.9s-.5-.4-.4-.9c0-.5.2-.9.5-.9s.4.4.4.9Z"/><path class="cls-5" d="m246.1,695.1c0,.5-.2.9-.5.9-.2,0-.5-.4-.4-.9,0-.5.2-.9.5-.9.2,0,.4.4.4.9Z"/><path class="cls-5" d="m246.1,696.2c0,.5-.2.9-.5.9-.2,0-.5-.4-.4-.9,0-.5.2-.9.5-.9s.5.4.4.9Z"/><path class="cls-5" d="m247.4,695.2c0,.5-.2.9-.5.9-.2,0-.5-.4-.4-.9,0-.5.2-.9.5-.9.2,0,.5.4.4.9Z"/><path class="cls-5" d="m247.3,696.2c0,.5-.2.9-.5.9-.2,0-.5-.4-.4-.9,0-.5.2-.9.5-.9.2,0,.5.4.4.9Z"/><path class="cls-5" d="m248.6,695.2c0,.5-.2.9-.5.9-.2,0-.5-.4-.4-.9,0-.5.2-.9.5-.9.2,0,.5.4.4.9Z"/><path class="cls-5" d="m248.6,696.3c0,.5-.2.9-.5.9-.2,0-.5-.4-.4-.9,0-.5.2-.9.5-.9.2,0,.5.4.4.9Z"/><path class="cls-5" d="m249.9,695.2c0,.5-.2.9-.5.9s-.5-.4-.4-.9c0-.5.2-.9.5-.9s.5.4.4.9Z"/><path class="cls-5" d="m249.9,696.3c0,.5-.2.9-.5.9s-.5-.4-.5-.9.2-.9.5-.9.5.4.5.9Z"/><path class="cls-5" d="m251.2,695.2c0,.5-.2.9-.5.9s-.5-.4-.5-.9.2-.9.5-.9.5.4.5.9Z"/><path class="cls-5" d="m251.2,696.3c0,.5-.2.9-.5.9s-.5-.4-.5-.9.2-.9.5-.9.5.4.5.9Z"/><path class="cls-5" d="m252.5,695.2c0,.5-.2.9-.5.9s-.5-.4-.5-.9.2-.9.5-.9.5.4.5.9Z"/><path class="cls-5" d="m252.5,696.3c0,.5-.2.9-.5.9s-.5-.4-.5-.9.2-.9.5-.9.5.4.5.9Z"/><path class="cls-5" d="m253.8,695.2c0,.5-.2.9-.5.9s-.5-.4-.5-.9.2-.9.5-.9.5.4.5.9Z"/><path class="cls-5" d="m253.8,696.2c0,.5-.2.9-.5.9s-.5-.4-.5-.9.2-.9.5-.9.5.4.5.9Z"/><path class="cls-5" d="m255.1,695.2c0,.5-.2.9-.5.9s-.5-.4-.5-.9.2-.9.5-.9.5.4.5.9Z"/><path class="cls-5" d="m255.1,696.2c0,.5-.2.9-.5.9s-.5-.4-.5-.9.2-.9.5-.9.5.4.5.9Z"/><path class="cls-5" d="m256.4,695.2c0,.5-.2.9-.5.9s-.5-.4-.5-.9.2-.9.5-.9.5.4.5.9Z"/><path class="cls-5" d="m256.4,696.2c0,.5-.2.9-.5.9s-.5-.4-.5-.9.2-.9.5-.9.5.4.5.9Z"/><path class="cls-5" d="m257.7,695.2c0,.5-.2.9-.5.9s-.5-.4-.5-.9.2-.9.5-.9.5.4.5.9Z"/><path class="cls-5" d="m257.7,696.2c0,.5-.2.9-.5.9s-.5-.4-.5-.9c0-.5.2-.9.5-.9s.5.4.5.9Z"/><path class="cls-5" d="m258.9,695.2c0,.5-.2.9-.5.9s-.5-.4-.5-.9c0-.5.2-.9.5-.9s.5.4.5.9Z"/><path class="cls-5" d="m259,696.2c0,.5-.2.9-.5.9s-.5-.4-.5-.9c0-.5.2-.9.5-.9s.5.4.5.9Z"/><path class="cls-5" d="m260.2,695.2c0,.5-.2.9-.4.9s-.5-.4-.5-.9c0-.5.2-.9.4-.9s.5.4.5.9Z"/><path class="cls-5" d="m260.2,696.2c0,.5-.2.9-.4.9s-.5-.4-.5-.9c0-.5.2-.9.4-.9s.5.4.5.9Z"/><path class="cls-5" d="m261.5,695.1c0,.5-.2.9-.4.9s-.5-.4-.5-.9c0-.5.2-.9.4-.9s.5.4.5.9Z"/><path class="cls-5" d="m261.5,696.2c0,.5-.2.9-.4.9s-.5-.4-.5-.9.2-.9.4-.9.5.4.5.9Z"/><path class="cls-5" d="m262.8,695.1c0,.5-.2.9-.4.9s-.5-.4-.5-.9.2-.9.4-.9.5.4.5.9Z"/><path class="cls-5" d="m262.8,696.2c0,.5-.2.9-.4.9s-.5-.4-.5-.9.2-.9.4-.9.5.4.5.9Z"/><path class="cls-5" d="m264.1,695.1c0,.5-.2.9-.4.9s-.5-.4-.5-.9.2-.9.4-.9.5.4.5.9Z"/><path class="cls-5" d="m264.1,696.2c0,.5-.2.9-.4.9s-.5-.4-.5-.9.2-.9.4-.9.5.4.5.9Z"/><path class="cls-5" d="m265.4,695.1c0,.5-.2.9-.4.9s-.5-.4-.5-.9.2-.9.4-.9c.2,0,.5.4.5.9h0Z"/><path class="cls-5" d="m265.4,696.2c0,.5-.2.9-.4.9s-.5-.4-.5-.9.2-.9.4-.9c.2,0,.5.4.5.9h0Z"/><path class="cls-5" d="m266.7,695.1c0,.5-.2.9-.4.9s-.5-.4-.5-.9c0-.5.2-.9.4-.9s.5.4.5.9Z"/><path class="cls-5" d="m266.7,696.2c0,.5-.2.9-.4.9s-.5-.4-.5-.9.2-.9.4-.9.5.4.5.9Z"/><path class="cls-5" d="m268,695.1c0,.5-.2.9-.4.9s-.5-.4-.5-.9c0-.5.2-.9.4-.9s.5.4.5.9Z"/><path class="cls-5" d="m268,696.1c0,.5-.2.9-.4.9s-.5-.4-.5-.9c0-.5.2-.9.4-.9s.5.4.5.9Z"/><path class="cls-5" d="m269.2,695c0,.5-.2.9-.4.9s-.5-.4-.5-.9c0-.5.2-.9.4-.9s.5.4.5.9Z"/><path class="cls-5" d="m269.3,696.1c0,.5-.2.9-.4.9s-.5-.4-.5-.9c0-.5.2-.9.4-.9s.5.4.5.9Z"/><path class="cls-5" d="m270.5,695c0,.5-.2.9-.4.9s-.5-.4-.5-.9.2-.9.4-.9.5.4.5.9Z"/><path class="cls-5" d="m270.6,696.1c0,.5-.2.9-.4.9s-.5-.4-.5-.9.2-.9.4-.9.5.4.5.9Z"/><path class="cls-5" d="m271.8,695c0,.5-.2.9-.4.9s-.5-.4-.5-.9.2-.9.4-.9.5.4.5.9Z"/><path class="cls-5" d="m271.8,696c0,.5-.2.9-.4.9s-.5-.4-.5-.9.2-.9.4-.9.5.4.5.9Z"/><path class="cls-5" d="m273.1,694.9c0,.5-.2.9-.4.9s-.5-.4-.5-.9.2-.9.4-.9.5.4.5.9Z"/><path class="cls-5" d="m273.1,696c0,.5-.2.9-.4.9s-.5-.4-.5-.9.2-.9.4-.9.5.4.5.9Z"/><path class="cls-5" d="m274.4,694.9c0,.5-.2.9-.4.9s-.5-.4-.5-.9c0-.5.2-.9.4-.9s.5.4.5.9Z"/><path class="cls-5" d="m274.4,696c0,.5-.2.9-.4.9s-.5-.4-.5-.9c0-.5.2-.9.4-.9s.5.4.5.9Z"/><path class="cls-5" d="m275.7,694.8c0,.5-.2.9-.4.9s-.5-.4-.5-.9c0-.5.2-.9.4-.9s.5.4.5.9Z"/><path class="cls-5" d="m275.7,695.9c0,.5-.2.9-.4.9s-.5-.4-.5-.9c0-.5.2-.9.4-.9s.5.4.5.9Z"/><path class="cls-5" d="m277,694.8c0,.5-.2.9-.4.9s-.5-.4-.5-.9c0-.5.2-.9.4-.9s.5.4.5.9Z"/><path class="cls-5" d="m277,695.9c0,.5-.2.9-.4.9s-.5-.4-.5-.9c0-.5.2-.9.4-.9s.5.4.5.9Z"/><path class="cls-5" d="m278.3,694.8c0,.5-.2.9-.4.9s-.5-.4-.5-.9c0-.5.2-.9.4-.9s.5.4.5.9Z"/><path class="cls-5" d="m278.3,695.9c0,.5-.2.9-.4.9s-.5-.4-.5-.9c0-.5.2-.9.4-.9s.5.4.5.9Z"/><path class="cls-5" d="m279.5,694.7c0,.5-.2.9-.4.9s-.5-.4-.5-.9c0-.5.2-.9.4-.9s.5.4.5.9Z"/><path class="cls-5" d="m279.6,695.8c0,.5-.2.9-.4.9s-.5-.4-.5-.9c0-.5.2-.9.4-.9s.5.4.5.9Z"/><path class="cls-5" d="m280.8,694.7c0,.5-.2.9-.4.9s-.5-.4-.5-.9c0-.5.2-.9.4-.9s.5.4.5.9Z"/><path class="cls-5" d="m280.9,695.8c0,.5-.2.9-.4.9s-.5-.4-.5-.9c0-.5.2-.9.4-.9s.5.4.5.9Z"/><path class="cls-5" d="m282.1,694.7c0,.5-.2.9-.4.9-.2,0-.5-.4-.5-.9s.2-.9.4-.9c.2,0,.5.4.5.9Z"/><path class="cls-5" d="m282.2,695.7c0,.5-.2.9-.4.9s-.5-.4-.5-.9.2-.9.4-.9.5.4.5.9Z"/><path class="cls-5" d="m283.4,694.6c0,.5-.2.9-.4.9s-.5-.4-.5-.9.2-.9.4-.9.5.4.5.9Z"/><path class="cls-5" d="m283.5,695.7c0,.5-.2.9-.4.9s-.5-.4-.5-.9.2-.9.4-.9c.2,0,.5.4.5.9Z"/><path class="cls-5" d="m284.7,694.5c0,.5-.2.9-.4.9s-.5-.4-.5-.9.2-.9.4-.9.5.4.5.9Z"/><path class="cls-5" d="m284.7,695.6c0,.5-.2.9-.4.9s-.5-.4-.5-.9.2-.9.4-.9.5.4.5.9Z"/><path class="cls-5" d="m286,694.5c0,.5-.2.9-.4.9s-.5-.4-.5-.9.2-.9.4-.9.5.4.5.9Z"/><path class="cls-5" d="m286,695.5c0,.5-.2.9-.4.9s-.5-.4-.5-.9.2-.9.4-.9.5.4.5.9Z"/><path class="cls-5" d="m287.3,694.4c0,.5-.2.9-.4.9s-.5-.4-.5-.9.2-.9.4-.9.5.4.5.9Z"/><path class="cls-5" d="m287.3,695.5c0,.5-.2.9-.4.9s-.5-.4-.5-.9.2-.9.4-.9.5.4.5.9Z"/><path class="cls-5" d="m288.6,694.3c0,.5-.2.9-.4.9s-.5-.4-.5-.9.2-.9.4-.9.5.4.5.9Z"/><path class="cls-5" d="m288.6,695.4c0,.5-.2.9-.4.9s-.5-.4-.5-.9.2-.9.4-.9.5.4.5.9Z"/><path class="cls-5" d="m289.8,694.3c0,.5-.2.9-.4.9-.2,0-.5-.4-.5-.9,0-.5.2-.9.4-.9.2,0,.5.4.5.9Z"/><path class="cls-5" d="m289.9,695.3c0,.5-.2.9-.4.9s-.5-.4-.5-.9c0-.5.2-.9.4-.9s.5.4.5.9Z"/><path class="cls-5" d="m291.1,694.2c0,.5-.1.9-.4.9s-.5-.4-.5-.9.2-.9.4-.9c.2,0,.5.4.5.9Z"/><path class="cls-5" d="m291.2,695.3c0,.5-.1.9-.4.9s-.5-.4-.5-.9.2-.9.4-.9.5.4.5.9Z"/><path class="cls-5" d="m292.4,694.1c0,.5-.1.9-.4.9s-.5-.4-.5-.9.1-.9.4-.9.5.4.5.9Z"/><path class="cls-5" d="m292.5,695.2c0,.5-.1.9-.4.9s-.5-.4-.5-.9.1-.9.4-.9.5.4.5.9Z"/><path class="cls-5" d="m293.7,694.1c0,.5-.1.9-.4.9s-.5-.4-.5-.9.1-.9.4-.9.5.4.5.9Z"/><path class="cls-5" d="m293.8,695.1c0,.5-.1.9-.4.9s-.5-.4-.5-.9.1-.9.4-.9.5.4.5.9Z"/><path class="cls-5" d="m295,694c0,.5-.1.9-.4.9s-.5-.4-.5-.9.1-.9.4-.9.5.4.5.9Z"/><path class="cls-5" d="m295,695.1c0,.5-.1.9-.4.9s-.5-.4-.5-.9.1-.9.4-.9.5.4.5.9Z"/><path class="cls-5" d="m296.3,693.9c0,.5-.1.9-.4.9s-.5-.4-.5-.9.1-.9.4-.9.5.4.5.9Z"/><path class="cls-5" d="m296.3,695c0,.5-.1.9-.4.9s-.5-.4-.5-.9.1-.9.4-.9.5.4.5.9Z"/><path class="cls-5" d="m297.6,693.9c0,.5-.1.9-.4.9s-.5-.4-.5-.9c0-.5.1-.9.4-.9s.5.4.5.9h0Z"/><path class="cls-5" d="m297.6,695c0,.5-.1.9-.4.9s-.5-.4-.5-.9.1-.9.4-.9.5.4.5.9Z"/><path class="cls-5" d="m298.8,693.8c0,.5-.1.9-.4.9-.2,0-.5-.4-.5-.9s.1-.9.4-.9c.2,0,.5.4.5.9Z"/><path class="cls-5" d="m298.9,694.9c0,.5-.1.9-.4.9-.2,0-.5-.4-.5-.9s.1-.9.4-.9c.2,0,.5.4.5.9Z"/><path class="cls-5" d="m300.1,693.7c0,.5-.1.9-.4.9-.2,0-.5-.4-.5-.9s.1-.9.4-.9c.2,0,.5.4.5.9Z"/><path class="cls-5" d="m300.2,694.8c0,.5-.1.9-.4.9-.2,0-.5-.4-.5-.9s.1-.9.4-.9c.2,0,.5.4.5.9Z"/><path class="cls-5" d="m301.4,693.6c0,.5-.1.9-.4.9s-.5-.4-.5-.9.1-.9.4-.9c.2,0,.5.4.5.9Z"/><path class="cls-5" d="m301.5,694.7c0,.5-.1.9-.4.9-.2,0-.5-.4-.5-.9s.1-.9.4-.9c.2,0,.5.4.5.9Z"/><path class="cls-5" d="m302.7,693.5c0,.5-.1.9-.4.9-.2,0-.5-.4-.5-.9s.1-.9.4-.9c.2,0,.5.4.5.9Z"/><path class="cls-5" d="m302.8,694.6c0,.5-.1.9-.4.9-.2,0-.5-.4-.5-.9s.1-.9.4-.9c.2,0,.5.4.5.9Z"/><path class="cls-5" d="m304,693.4c0,.5-.1.9-.4.9-.2,0-.5-.4-.5-.9s.1-.9.4-.9c.2,0,.5.4.5.9Z"/><path class="cls-5" d="m304.1,694.5c0,.5-.1.9-.4.9-.2,0-.5-.4-.5-.9s.1-.9.4-.9c.2,0,.5.4.5.9Z"/><path class="cls-5" d="m305.3,693.3c0,.5-.1.9-.4.9-.2,0-.5-.4-.5-.9,0-.5.1-.9.4-.9.2,0,.5.4.5.9Z"/><path class="cls-5" d="m305.3,694.4c0,.5-.1.9-.4.9-.2,0-.5-.4-.5-.9,0-.5.1-.9.4-.9.2,0,.5.4.5.9h0Z"/><path class="cls-5" d="m306.5,693.2c0,.5-.1.9-.4.9-.2,0-.5-.4-.5-.9,0-.5.1-.9.4-.9.2,0,.5.4.5.9Z"/><path class="cls-5" d="m306.6,694.3c0,.5-.1.9-.4.9-.2,0-.5-.4-.5-.9,0-.5.1-.9.4-.9.2,0,.5.4.5.9Z"/><path class="cls-5" d="m307.8,693.1c0,.5-.1.9-.4.9s-.5-.4-.5-.9c0-.5.1-.9.4-.9.2,0,.5.4.5.9Z"/><path class="cls-5" d="m307.9,694.2c0,.5-.1.9-.4.9-.2,0-.5-.4-.5-.9,0-.5.1-.9.4-.9.2,0,.5.4.5.9Z"/><path class="cls-5" d="m309.1,693c0,.5-.1.9-.4.9s-.5-.4-.5-.9c0-.5.1-.9.4-.9.2,0,.5.4.5.9Z"/><path class="cls-5" d="m309.2,694.1c0,.5-.1.9-.4.9s-.5-.4-.5-.9c0-.5.1-.9.4-.9s.5.4.5.9Z"/><path class="cls-5" d="m310.4,692.9c0,.5-.1.9-.4.9s-.5-.4-.5-.9c0-.5.1-.9.4-.9s.5.4.5.9Z"/><path class="cls-5" d="m310.5,694c0,.5-.1.9-.4.9s-.5-.4-.5-.9c0-.5.1-.9.4-.9s.5.4.5.9Z"/><path class="cls-5" d="m311.7,692.8c0,.5-.1.9-.4.9s-.5-.4-.5-.9c0-.5.1-.9.4-.9s.5.4.5.9Z"/><path class="cls-5" d="m311.8,693.9c0,.5-.1.9-.4.9s-.5-.4-.5-.9c0-.5.1-.9.4-.9s.5.4.5.9Z"/><path class="cls-5" d="m313,692.7c0,.5-.1.9-.4.9-.2,0-.5-.4-.5-.9,0-.5.1-.9.4-.9.2,0,.5.4.5.9Z"/><path class="cls-5" d="m313.1,693.8c0,.5-.1.9-.4.9s-.5-.4-.5-.9c0-.5.1-.9.4-.9s.5.4.5.9Z"/><path class="cls-5" d="m314.3,692.6c0,.5-.1.9-.4.9s-.5-.4-.5-.9c0-.5.1-.9.4-.9.2,0,.5.4.5.9Z"/><path class="cls-5" d="m314.3,693.7c0,.5-.1.9-.4.9s-.5-.4-.5-.9c0-.5.1-.9.4-.9s.5.4.5.9Z"/><path class="cls-5" d="m315.5,692.5c0,.5-.1.9-.4.9s-.5-.4-.5-.9c0-.5.1-.9.4-.9s.5.4.5.9Z"/><path class="cls-5" d="m315.6,693.6c0,.5-.1.9-.4.9s-.5-.4-.5-.9c0-.5.1-.9.4-.9s.5.4.5.9Z"/><path class="cls-5" d="m316.8,692.4c0,.5-.1.9-.4.9s-.5-.4-.5-.9c0-.5.1-.9.4-.9s.5.4.5.8h0Z"/><path class="cls-5" d="m316.9,693.5c0,.5-.1.9-.4.9s-.5-.4-.5-.9.1-.9.4-.9.5.4.5.8h0Z"/><path class="cls-5" d="m318.1,692.3c0,.5-.1.9-.4.9s-.5-.4-.5-.9.1-.9.4-.9.5.4.5.8h0Z"/><path class="cls-5" d="m318.2,693.3c0,.5-.1.9-.4.9s-.5-.4-.5-.8.1-.9.4-.9.5.4.5.8Z"/><path class="cls-5" d="m319.4,692.2c0,.5-.1.9-.4.9s-.5-.4-.5-.8c0-.5.1-.9.4-.9s.5.4.5.8Z"/><path class="cls-5" d="m319.5,693.2c0,.5-.1.9-.4.9s-.5-.4-.5-.8c0-.5.1-.9.4-.9s.5.4.5.8Z"/><path class="cls-5" d="m320.7,692c0,.5-.1.9-.4.9-.2,0-.5-.4-.5-.8,0-.5.1-.9.4-.9.2,0,.5.4.5.8Z"/><path class="cls-5" d="m320.8,693.1c0,.5-.1.9-.4.9-.2,0-.5-.4-.5-.8,0-.5.1-.9.4-.9.2,0,.5.4.5.8Z"/><path class="cls-5" d="m321.9,691.9c0,.5-.1.9-.4.9s-.5-.4-.5-.8c0-.5.1-.9.4-.9s.5.4.5.8Z"/><path class="cls-5" d="m322.1,693c0,.5-.1.9-.4.9s-.5-.4-.5-.8c0-.5.1-.9.4-.9.2,0,.5.4.5.8Z"/><path class="cls-5" d="m323.2,691.8c0,.5-.1.9-.4.9s-.5-.4-.5-.8c0-.5.1-.9.4-.9s.5.4.5.8Z"/><path class="cls-5" d="m323.3,692.8c0,.5-.1.9-.4.9s-.5-.4-.5-.8c0-.5.1-.9.4-.9s.5.4.5.8Z"/><path class="cls-5" d="m324.5,691.6c0,.5-.1.9-.4.9s-.5-.4-.5-.8c0-.5.1-.9.4-.9s.5.4.5.8Z"/><path class="cls-5" d="m324.6,692.7c0,.5-.1.9-.4.9s-.5-.4-.5-.8c0-.5.1-.9.4-.9s.5.4.5.8Z"/><path class="cls-5" d="m325.8,691.5c0,.5-.1.9-.4.9s-.5-.4-.5-.8c0-.5.1-.9.4-.9s.5.4.5.8Z"/><path class="cls-5" d="m325.9,692.6c0,.5-.1.9-.4.9s-.5-.4-.5-.8.1-.9.4-.9.5.4.5.8Z"/><path class="cls-5" d="m327.1,691.4c0,.5-.1.9-.4.9s-.5-.4-.5-.8c0-.5.1-.9.4-.9s.5.4.5.8Z"/><path class="cls-5" d="m327.2,692.5c0,.5-.1.9-.4.9s-.5-.4-.5-.8c0-.5.1-.9.4-.9s.5.4.5.8Z"/><path class="cls-5" d="m328.4,691.3c0,.5-.1.9-.4.9-.2,0-.5-.4-.5-.8,0-.5.1-.9.4-.9.2,0,.5.4.5.8Z"/><path class="cls-5" d="m328.5,692.3c0,.5-.1.9-.4.9-.2,0-.5-.4-.5-.8,0-.5.1-.9.4-.9.2,0,.5.4.5.8Z"/><path class="cls-5" d="m329.6,691.1c0,.5-.1.9-.4.9s-.5-.4-.5-.8c0-.5.1-.9.4-.9.2,0,.5.4.5.8Z"/><path class="cls-5" d="m329.8,692.2c0,.5-.1.9-.4.9s-.5-.4-.5-.8c0-.5.1-.9.4-.9.2,0,.5.4.5.8Z"/><path class="cls-5" d="m330.9,691c0,.5-.1.9-.4.9s-.5-.4-.5-.8.1-.9.4-.9.5.4.5.8Z"/><path class="cls-5" d="m331,692.1c0,.5-.1.9-.4.9s-.5-.4-.5-.8c0-.5.1-.9.4-.9s.5.4.5.8Z"/><path class="cls-5" d="m332.2,690.9c0,.5-.1.9-.4.9s-.5-.4-.5-.8c0-.5.1-.9.4-.9s.5.4.5.8Z"/><path class="cls-5" d="m332.3,692c0,.5-.1.9-.4.9s-.5-.4-.5-.8c0-.5.1-.9.4-.9s.5.4.5.8Z"/><path class="cls-5" d="m333.5,690.7c0,.5-.1.9-.4,1s-.5-.3-.5-.8c0-.5.1-.9.4-1s.5.3.5.8Z"/><path class="cls-5" d="m333.6,691.8c0,.5-.1.9-.4,1s-.5-.3-.5-.8c0-.5.1-.9.4-1s.5.3.5.8Z"/><path class="cls-5" d="m334.8,690.6c0,.5-.1.9-.3,1-.2,0-.5-.3-.5-.8,0-.5.1-.9.3-1,.2,0,.5.3.5.8Z"/><path class="cls-5" d="m334.9,691.6c0,.5-.1.9-.4,1s-.5-.3-.5-.8c0-.5.1-.9.4-1s.5.3.5.8Z"/><path class="cls-5" d="m336,690.4c0,.5-.1.9-.3,1-.2,0-.5-.3-.5-.8,0-.5.1-.9.3-1,.2,0,.5.3.5.8Z"/><path class="cls-5" d="m336.2,691.5c0,.5-.1.9-.3,1-.2,0-.5-.3-.5-.8,0-.5.1-.9.3-1,.2,0,.5.3.5.8Z"/><path class="cls-5" d="m337.3,690.3c0,.5,0,.9-.3,1s-.5-.3-.5-.8c0-.5,0-.9.3-1s.5.3.5.8Z"/><path class="cls-5" d="m337.4,691.3c0,.5,0,.9-.3,1s-.5-.3-.5-.8c0-.5.1-.9.3-1,.2,0,.5.3.5.8Z"/><path class="cls-5" d="m338.6,690.1c0,.5,0,.9-.3,1s-.5-.3-.5-.8c0-.5,0-.9.3-1s.5.3.5.8Z"/><path class="cls-5" d="m338.7,691.2c0,.5,0,.9-.3,1s-.5-.3-.6-.8c0-.5,0-.9.3-1s.5.3.6.8Z"/><path class="cls-5" d="m339.9,689.9c0,.5,0,.9-.3,1s-.5-.3-.6-.8c0-.5,0-.9.3-1s.5.3.6.8Z"/><path class="cls-5" d="m340,691c0,.5,0,.9-.3,1s-.5-.3-.6-.8c0-.5,0-.9.3-1s.5.3.6.8Z"/><path class="cls-5" d="m341.1,689.8c0,.5,0,.9-.3,1s-.5-.3-.6-.8c0-.5,0-.9.3-1s.5.3.6.8Z"/><path class="cls-5" d="m341.3,690.8c0,.5,0,.9-.3,1s-.5-.3-.6-.8c0-.5,0-.9.3-1s.5.3.6.8Z"/><path class="cls-5" d="m342.4,689.6c0,.5,0,.9-.3,1-.2,0-.5-.3-.6-.8s0-.9.3-1c.2,0,.5.3.6.8Z"/><path class="cls-5" d="m342.6,690.7c0,.5,0,.9-.3,1s-.5-.3-.6-.8c0-.5,0-.9.3-1s.5.3.6.8Z"/><path class="cls-5" d="m343.7,689.5c0,.5,0,.9-.3,1-.2,0-.5-.3-.6-.8,0-.5,0-.9.3-1,.2,0,.5.3.6.8Z"/><path class="cls-5" d="m343.8,690.5c0,.5,0,.9-.3,1s-.5-.3-.6-.8c0-.5,0-.9.3-1,.2,0,.5.3.6.8Z"/><path class="cls-5" d="m345,689.3c0,.5,0,.9-.3,1s-.5-.3-.6-.8c0-.5,0-.9.3-1s.5.3.6.8Z"/><path class="cls-5" d="m345.1,690.4c0,.5,0,.9-.3,1s-.5-.3-.6-.8c0-.5,0-.9.3-1,.2,0,.5.3.6.8Z"/><path class="cls-5" d="m346.3,689.1c0,.5,0,.9-.3,1s-.5-.3-.6-.8c0-.5,0-.9.3-1s.5.3.6.8Z"/><path class="cls-5" d="m346.4,690.2c0,.5,0,.9-.3,1s-.5-.3-.6-.8c0-.5,0-.9.3-1s.5.3.6.8Z"/><path class="cls-5" d="m347.5,689c0,.5,0,.9-.3,1s-.5-.3-.6-.8c0-.5,0-.9.3-1s.5.3.6.8Z"/><path class="cls-5" d="m347.7,690c0,.5,0,.9-.3,1s-.5-.3-.6-.8c0-.5,0-.9.3-1s.5.3.6.8Z"/><path class="cls-5" d="m348.8,688.8c0,.5,0,.9-.3,1s-.5-.3-.6-.8c0-.5,0-.9.3-1s.5.3.6.8Z"/><path class="cls-5" d="m349,689.9c0,.5,0,.9-.3,1s-.5-.3-.6-.8c0-.5,0-.9.3-1s.5.3.6.8Z"/><path class="cls-5" d="m350.1,688.7c0,.5,0,.9-.3,1-.2,0-.5-.3-.6-.8,0-.5,0-.9.3-1,.2,0,.5.3.6.8Z"/><path class="cls-5" d="m350.2,689.7c0,.5,0,.9-.3,1s-.5-.3-.6-.8c0-.5,0-.9.3-1s.5.3.6.8Z"/><path class="cls-5" d="m351.4,688.5c0,.5,0,.9-.3,1-.2,0-.5-.3-.6-.8,0-.5,0-.9.3-1,.2,0,.5.3.6.8Z"/><path class="cls-5" d="m351.5,689.5c0,.5,0,.9-.3,1-.2,0-.5-.3-.6-.8,0-.5,0-.9.3-1,.2,0,.5.3.6.8Z"/><path class="cls-5" d="m352.6,688.3c0,.5,0,.9-.3,1-.2,0-.5-.3-.6-.8,0-.5,0-.9.3-1,.2,0,.5.3.6.8Z"/><path class="cls-5" d="m352.8,689.3c0,.5,0,.9-.3,1-.2,0-.5-.3-.6-.8,0-.5,0-.9.3-1,.2,0,.5.3.6.8Z"/><path class="cls-5" d="m353.9,688.1c0,.5,0,.9-.3,1-.2,0-.5-.3-.6-.8,0-.5,0-.9.3-1,.2,0,.5.3.6.8Z"/><path class="cls-5" d="m354.1,689.1c0,.5,0,.9-.3,1-.2,0-.5-.3-.6-.8,0-.5,0-.9.3-1,.2,0,.5.3.6.8Z"/><path class="cls-5" d="m355.2,687.9c0,.5,0,.9-.3,1-.2,0-.5-.3-.6-.8,0-.5,0-.9.3-1,.2,0,.5.3.6.8Z"/><path class="cls-5" d="m355.3,689c0,.5,0,.9-.3,1-.2,0-.5-.3-.6-.8,0-.5,0-.9.3-1,.2,0,.5.3.6.8h0Z"/><path class="cls-5" d="m356.5,687.7c0,.5,0,.9-.3,1-.2,0-.5-.3-.6-.8,0-.5,0-.9.3-1,.2,0,.5.3.6.8Z"/><path class="cls-5" d="m356.6,688.8c0,.5,0,.9-.3,1-.2,0-.5-.3-.6-.8,0-.5,0-.9.3-1,.2,0,.5.3.6.8Z"/><path class="cls-5" d="m357.7,687.5c0,.5,0,.9-.3,1-.2,0-.5-.3-.6-.8,0-.5,0-.9.3-1,.2,0,.5.3.6.8Z"/><path class="cls-5" d="m357.9,688.6c0,.5,0,.9-.3,1-.2,0-.5-.3-.6-.8,0-.5,0-.9.3-1,.2,0,.5.3.6.8Z"/><path class="cls-5" d="m359,687.3c0,.5,0,.9-.3,1-.2,0-.5-.3-.6-.8,0-.5,0-.9.3-1,.2,0,.5.3.6.8Z"/><path class="cls-5" d="m359.2,688.4c0,.5,0,.9-.3,1-.2,0-.5-.3-.6-.8,0-.5,0-.9.3-1,.2,0,.5.3.6.8Z"/><path class="cls-5" d="m360.3,687.1c0,.5,0,.9-.3,1-.2,0-.5-.3-.6-.8,0-.5,0-.9.3-1,.2,0,.5.3.6.8Z"/><path class="cls-5" d="m360.4,688.2c0,.5,0,.9-.3,1-.2,0-.5-.3-.6-.8,0-.5,0-.9.3-1,.2,0,.5.3.6.8Z"/><path class="cls-5" d="m361.6,686.9c0,.5,0,.9-.3,1-.2,0-.5-.3-.6-.8,0-.5,0-.9.3-1,.2,0,.5.3.6.8Z"/><path class="cls-5" d="m361.7,688c0,.5,0,.9-.3,1-.2,0-.5-.3-.6-.8,0-.5,0-.9.3-1,.2,0,.5.3.6.8Z"/><path class="cls-5" d="m362.8,686.7c0,.5,0,.9-.3,1-.2,0-.5-.3-.6-.8,0-.5,0-.9.3-1,.2,0,.5.3.6.8Z"/><path class="cls-5" d="m363,687.8c0,.5,0,.9-.3,1-.2,0-.5-.3-.6-.8,0-.5,0-.9.3-1,.2,0,.5.3.6.8Z"/><path class="cls-5" d="m364.1,686.6c0,.5,0,.9-.3,1-.2,0-.5-.3-.6-.8s0-.9.3-1c.2,0,.5.3.6.8Z"/><path class="cls-5" d="m364.3,687.6c0,.5,0,.9-.3,1-.2,0-.5-.3-.6-.8s0-.9.3-1c.2,0,.5.3.6.8Z"/><path class="cls-5" d="m365.4,686.4c0,.5,0,.9-.3,1-.2,0-.5-.3-.6-.8s0-.9.3-1c.2,0,.5.3.6.8Z"/><path class="cls-5" d="m365.5,687.4c0,.5,0,.9-.3,1-.2,0-.5-.3-.6-.8s0-.9.3-1c.2,0,.5.3.6.8Z"/><path class="cls-5" d="m366.7,686.2c0,.5,0,.9-.3,1-.2,0-.5-.3-.6-.8s0-.9.3-1c.2,0,.5.3.6.8Z"/><path class="cls-5" d="m366.8,687.2c0,.5,0,.9-.3,1-.2,0-.5-.3-.6-.8s0-.9.3-1c.2,0,.5.3.6.8Z"/><path class="cls-5" d="m367.9,686c0,.5,0,.9-.3,1-.2,0-.5-.3-.6-.8s0-.9.3-1c.2,0,.5.3.6.8Z"/><path class="cls-5" d="m368.1,687c0,.5,0,.9-.3,1-.2,0-.5-.3-.6-.8s0-.9.3-1c.2,0,.5.3.6.8Z"/><path class="cls-5" d="m369.2,685.8c0,.5,0,.9-.3,1s-.5-.3-.6-.8,0-.9.3-1c.2,0,.5.3.6.8Z"/><path class="cls-5" d="m369.4,686.8c0,.5,0,.9-.3,1s-.5-.3-.6-.8,0-.9.3-1,.5.3.6.8Z"/><path class="cls-5" d="m370.5,685.5c0,.5,0,.9-.3,1s-.5-.3-.6-.8,0-.9.3-1c.2,0,.5.3.6.8Z"/><path class="cls-5" d="m370.6,686.6c0,.5,0,.9-.3,1s-.5-.3-.6-.8,0-.9.3-1,.5.3.6.8Z"/><path class="cls-5" d="m371.7,685.3c0,.5,0,.9-.3,1-.2,0-.5-.3-.6-.8s0-.9.3-1c.2,0,.5.3.6.8Z"/><path class="cls-5" d="m371.9,686.4c0,.5,0,.9-.3,1-.2,0-.5-.3-.6-.8s0-.9.3-1c.2,0,.5.3.6.8Z"/><path class="cls-5" d="m373,685.1c0,.5,0,.9-.3,1-.2,0-.5-.3-.6-.8s0-.9.3-1c.2,0,.5.3.6.8Z"/><path class="cls-5" d="m373.2,686.1c0,.5,0,.9-.3,1-.2,0-.5-.3-.6-.8,0-.5,0-.9.3-1,.2,0,.5.3.6.8Z"/><path class="cls-5" d="m374.3,684.9c0,.5,0,.9-.3,1-.2,0-.5-.3-.6-.8,0-.5,0-.9.3-1,.2,0,.5.3.6.8Z"/><path class="cls-5" d="m374.5,685.9c0,.5,0,.9-.3,1-.2,0-.5-.3-.6-.8,0-.5,0-.9.3-1,.2,0,.5.3.6.8Z"/><path class="cls-5" d="m375.5,684.6c0,.5,0,.9-.3,1-.2,0-.5-.3-.6-.8s0-.9.3-1c.2,0,.5.3.6.8Z"/><path class="cls-5" d="m375.7,685.7c0,.5,0,.9-.3,1-.2,0-.5-.3-.6-.8,0-.5,0-.9.3-1,.2,0,.5.3.6.8Z"/><path class="cls-5" d="m376.8,684.4c0,.5,0,.9-.3,1-.2,0-.5-.3-.6-.8s0-.9.3-1c.2,0,.5.3.6.8Z"/><path class="cls-5" d="m377,685.5c0,.5,0,.9-.3,1-.2,0-.5-.3-.6-.8s0-.9.3-1c.2,0,.5.3.6.8Z"/><path class="cls-5" d="m378.1,684.2c0,.5,0,.9-.3,1-.2,0-.5-.3-.6-.8s0-.9.3-1c.2,0,.5.3.6.8Z"/><path class="cls-5" d="m378.3,685.2c0,.5,0,.9-.3,1-.2,0-.5-.3-.6-.8,0-.5,0-.9.3-1,.2,0,.5.3.6.8Z"/><path class="cls-5" d="m379.3,684c0,.5,0,.9-.3,1-.2,0-.5-.3-.6-.8,0-.5,0-.9.3-1,.2,0,.5.3.6.8Z"/><path class="cls-5" d="m379.5,685c0,.5,0,.9-.3,1-.2,0-.5-.3-.6-.8,0-.5,0-.9.3-1,.2,0,.5.3.6.8Z"/><path class="cls-5" d="m380.6,683.7c0,.5,0,.9-.3,1-.2,0-.5-.3-.6-.8,0-.5,0-.9.3-1,.2,0,.5.3.6.8Z"/><path class="cls-5" d="m380.8,684.8c0,.5,0,.9-.3,1-.2,0-.5-.3-.6-.8s0-.9.3-1c.2,0,.5.3.6.8Z"/><path class="cls-5" d="m381.9,683.5c0,.5,0,.9-.3,1-.2,0-.5-.3-.6-.8s0-.9.3-1c.2,0,.5.3.6.8Z"/><path class="cls-5" d="m382.1,684.6c0,.5,0,.9-.3,1-.2,0-.5-.3-.6-.8s0-.9.3-1c.2,0,.5.3.6.8Z"/><path class="cls-5" d="m383.1,683.3c0,.5,0,.9-.3,1-.2,0-.5-.3-.6-.8s0-.9.3-1c.2,0,.5.3.6.8Z"/><path class="cls-5" d="m383.3,684.3c0,.5,0,.9-.3,1-.2,0-.5-.3-.6-.8s0-.9.3-1c.2,0,.5.3.6.8Z"/><path class="cls-5" d="m384.4,683.1c0,.5,0,.9-.3,1-.2,0-.5-.3-.6-.8s0-.9.3-1c.2,0,.5.3.6.8Z"/><path class="cls-5" d="m384.6,684.1c0,.5,0,.9-.3,1-.2,0-.5-.3-.6-.8s0-.9.3-1c.2,0,.5.3.6.8Z"/><path class="cls-5" d="m385.7,682.8c0,.5,0,.9-.3,1-.2,0-.5-.3-.6-.8s0-.9.3-1c.2,0,.5.3.6.8Z"/><path class="cls-5" d="m385.9,683.9c0,.5,0,.9-.3,1-.2,0-.5-.3-.6-.8s0-.9.3-1c.2,0,.5.3.6.8Z"/><path class="cls-5" d="m387,682.6c0,.5,0,.9-.3,1-.2,0-.5-.3-.6-.8s0-.9.3-1c.2,0,.5.3.6.8Z"/><path class="cls-5" d="m387.2,683.7c0,.5,0,.9-.3,1-.2,0-.5-.3-.6-.8s0-.9.3-1c.2,0,.5.3.6.8Z"/><path class="cls-5" d="m388.2,682.3c0,.5,0,.9-.3,1s-.5-.3-.6-.8,0-.9.3-1,.5.3.6.8Z"/><path class="cls-5" d="m388.4,683.4c0,.5,0,.9-.3,1s-.5-.3-.6-.8,0-.9.3-1,.5.3.6.8Z"/><path class="cls-5" d="m389.5,682.1c.1.5,0,.9-.3,1-.2,0-.5-.3-.6-.8s0-.9.3-1,.5.3.6.8Z"/><path class="cls-5" d="m389.7,683.1c.1.5,0,.9-.3,1-.2,0-.5-.3-.6-.8s0-.9.3-1,.5.3.6.8Z"/><path class="cls-5" d="m390.7,681.8c.1.5,0,.9-.3,1-.2,0-.5-.3-.6-.8-.1-.5,0-.9.3-1,.2,0,.5.3.6.8Z"/><path class="cls-5" d="m390.9,682.9c.1.5,0,.9-.3,1-.2,0-.5-.3-.6-.8-.1-.5,0-.9.3-1,.2,0,.5.3.6.8Z"/><path class="cls-5" d="m392,681.6c.1.5,0,.9-.3,1-.2,0-.5-.3-.6-.8-.1-.5,0-.9.3-1s.5.3.6.8Z"/><path class="cls-5" d="m392.2,682.6c.1.5,0,.9-.3,1-.2,0-.5-.3-.6-.8-.1-.5,0-.9.3-1,.2,0,.5.3.6.8Z"/><path class="cls-5" d="m393.3,681.3c.1.5,0,.9-.3,1-.2,0-.5-.3-.6-.8-.1-.5,0-.9.3-1,.2,0,.5.3.6.8Z"/><path class="cls-5" d="m393.5,682.4c.1.5,0,.9-.3,1s-.5-.3-.6-.8c-.1-.5,0-.9.3-1,.2,0,.5.3.6.8Z"/><path class="cls-5" d="m394.5,681c.1.5,0,.9-.3,1-.2,0-.5-.3-.6-.8-.1-.5,0-.9.3-1,.2,0,.5.3.6.8Z"/><path class="cls-5" d="m394.7,682.1c.1.5,0,.9-.3,1-.2,0-.5-.3-.6-.8s0-.9.3-1c.2,0,.5.3.6.8Z"/><path class="cls-5" d="m395.8,680.8c.1.5,0,.9-.3,1-.2,0-.5-.3-.6-.8-.1-.5,0-.9.3-1,.2,0,.5.3.6.8Z"/><path class="cls-5" d="m396,681.8c.1.5,0,.9-.3,1s-.5-.3-.6-.8,0-.9.3-1c.2,0,.5.3.6.8Z"/><path class="cls-5" d="m397,680.5c.1.5,0,.9-.3,1-.2,0-.5-.3-.6-.8-.1-.5,0-.9.3-1,.2,0,.5.3.6.8Z"/><path class="cls-5" d="m397.3,681.6c.1.5,0,.9-.3,1-.2,0-.5-.3-.6-.8s0-.9.3-1c.2,0,.5.3.6.8Z"/><path class="cls-5" d="m398.3,680.3c.1.5,0,.9-.3,1s-.5-.3-.6-.8c-.1-.5,0-.9.3-1,.2,0,.5.3.6.8Z"/><path class="cls-5" d="m398.5,681.3c.1.5,0,.9-.3,1-.2,0-.5-.3-.6-.8-.1-.5,0-.9.3-1,.2,0,.5.3.6.8Z"/><path class="cls-5" d="m399.6,680c.1.5,0,.9-.3,1-.2,0-.5-.3-.6-.8-.1-.5,0-.9.3-1,.2,0,.5.3.6.8Z"/><path class="cls-5" d="m399.8,681.1c.1.5,0,.9-.3,1-.2,0-.5-.3-.6-.8s0-.9.3-1c.2,0,.5.3.6.8Z"/><path class="cls-5" d="m400.8,679.7c.1.5,0,.9-.2,1s-.5-.3-.6-.8,0-.9.2-1,.5.3.6.8Z"/><path class="cls-5" d="m401,680.8c.1.5,0,.9-.2,1s-.5-.3-.6-.8,0-.9.2-1,.5.3.6.8Z"/><path class="cls-5" d="m402.1,679.5c.1.5,0,.9-.2,1-.2,0-.5-.3-.6-.8s0-.9.2-1c.2,0,.5.3.6.8Z"/><path class="cls-5" d="m402.3,680.5c.1.5,0,.9-.2,1-.2,0-.5-.3-.6-.8s0-.9.2-1c.2,0,.5.3.6.8Z"/><path class="cls-5" d="m403.4,679.2c.1.5,0,.9-.2,1-.2,0-.5-.3-.6-.8s0-.9.2-1c.2,0,.5.3.6.8Z"/><path class="cls-5" d="m403.6,680.3c.1.5,0,.9-.2,1-.2,0-.5-.3-.6-.8s0-.9.2-1c.2,0,.5.3.6.8Z"/><path class="cls-5" d="m404.6,679c.1.5,0,.9-.2,1-.2,0-.5-.3-.6-.8-.1-.5,0-.9.2-1,.2,0,.5.3.6.8Z"/><path class="cls-5" d="m404.8,680c.1.5,0,.9-.2,1-.2,0-.5-.3-.6-.8-.1-.5,0-.9.2-1,.2,0,.5.3.6.8Z"/><path class="cls-5" d="m405.9,678.7c.1.5,0,.9-.2,1-.2,0-.5-.3-.6-.8-.1-.5,0-.9.2-1,.2,0,.5.3.6.8Z"/><path class="cls-5" d="m406.1,679.8c.1.5,0,.9-.2,1-.2,0-.5-.3-.6-.8-.1-.5,0-.9.2-1,.2,0,.5.3.6.8Z"/><path class="cls-5" d="m407.1,678.4c.1.5,0,.9-.2,1-.2,0-.5-.3-.6-.8-.1-.5,0-.9.2-1,.2,0,.5.3.6.8Z"/><path class="cls-5" d="m407.4,679.5c.1.5,0,.9-.2,1-.2,0-.5-.3-.6-.8-.1-.5,0-.9.2-1,.2,0,.5.3.6.8Z"/><path class="cls-5" d="m408.4,678.1c.1.5,0,.9-.2,1-.2,0-.5-.3-.6-.8-.1-.5,0-.9.2-1,.2,0,.5.3.6.8Z"/><path class="cls-5" d="m408.6,679.2c.1.5,0,.9-.2,1-.2,0-.5-.3-.6-.8-.1-.5,0-.9.2-1,.2,0,.5.3.6.8Z"/><path class="cls-5" d="m409.6,677.8c.1.5,0,.9-.2,1-.2,0-.5-.3-.6-.8-.1-.5,0-.9.2-1,.2,0,.5.3.6.8Z"/><path class="cls-5" d="m409.9,678.9c.1.5,0,.9-.2,1-.2,0-.5-.3-.6-.8-.1-.5,0-.9.2-1,.2,0,.5.3.6.8Z"/><path class="cls-5" d="m410.9,677.5c.1.5,0,.9-.2,1-.2,0-.5-.3-.6-.8-.1-.5,0-.9.2-1,.2,0,.5.3.6.8Z"/><path class="cls-5" d="m411.1,678.6c.1.5,0,.9-.2,1-.2,0-.5-.3-.6-.8-.1-.5,0-.9.2-1,.2,0,.5.3.6.8Z"/><path class="cls-5" d="m412.1,677.2c.1.5,0,.9-.2,1-.2,0-.5-.3-.6-.8-.1-.5,0-.9.2-1,.2,0,.5.3.6.8Z"/><path class="cls-5" d="m412.4,678.3c.1.5,0,.9-.2,1-.2,0-.5-.3-.6-.8-.1-.5,0-.9.2-1,.2,0,.5.3.6.8Z"/><path class="cls-5" d="m413.4,676.9c.1.5,0,.9-.2,1-.2,0-.5-.3-.6-.8-.1-.5,0-.9.2-1,.2,0,.5.3.6.8Z"/><path class="cls-5" d="m413.6,678c.1.5,0,.9-.2,1-.2,0-.5-.3-.6-.8-.1-.5,0-.9.2-1,.2,0,.5.3.6.8Z"/><path class="cls-5" d="m414.7,676.6c.1.5,0,.9-.2,1-.2,0-.5-.3-.6-.8s0-.9.2-1c.2,0,.5.3.6.8Z"/><path class="cls-5" d="m414.9,677.7c.1.5,0,.9-.2,1-.2,0-.5-.3-.6-.8-.1-.5,0-.9.2-1,.2,0,.5.3.6.8Z"/><path class="cls-5" d="m415.9,676.4c.1.5,0,.9-.2,1-.2,0-.5-.3-.6-.8-.1-.5,0-.9.2-1,.2,0,.5.3.6.8Z"/><path class="cls-5" d="m416.2,677.4c.1.5,0,.9-.2,1-.2,0-.5-.3-.6-.8-.1-.5,0-.9.2-1,.2,0,.5.3.6.8Z"/><path class="cls-5" d="m417.2,676.1c.1.5,0,.9-.2,1-.2,0-.5-.3-.6-.8-.1-.5,0-.9.2-1,.2,0,.5.3.6.8Z"/><path class="cls-5" d="m417.4,677.1c.1.5,0,.9-.2,1-.2,0-.5-.3-.6-.8-.1-.5,0-.9.2-1,.2,0,.5.3.6.8Z"/><path class="cls-5" d="m418.4,675.8c.1.5,0,.9-.2,1-.2,0-.5-.3-.6-.8-.1-.5,0-.9.2-1,.2,0,.5.3.6.8Z"/><path class="cls-5" d="m418.7,676.8c.1.5,0,.9-.2,1-.2,0-.5-.3-.6-.8-.1-.5,0-.9.2-1,.2,0,.5.3.6.8h0Z"/><path class="cls-5" d="m419.7,675.5c.1.5,0,.9-.2,1-.2,0-.5-.3-.6-.8-.1-.5,0-.9.2-1,.2,0,.5.3.6.8Z"/><path class="cls-5" d="m419.9,676.5c.1.5,0,.9-.2,1-.2,0-.5-.3-.6-.8-.1-.5,0-.9.2-1,.2,0,.5.3.6.8Z"/><path class="cls-5" d="m420.9,675.2c.1.5,0,.9-.2,1-.2,0-.5-.3-.6-.8-.1-.5,0-.9.2-1,.2,0,.5.3.6.8Z"/><path class="cls-5" d="m421.2,676.2c.1.5,0,.9-.2,1-.2,0-.5-.3-.6-.8-.1-.5,0-.9.2-1,.2,0,.5.3.6.8Z"/><path class="cls-5" d="m422.2,674.9c.1.5,0,.9-.2,1s-.5-.3-.6-.8c-.1-.5,0-.9.2-1s.5.3.6.8Z"/><path class="cls-5" d="m422.4,675.9c.1.5,0,.9-.2,1-.2,0-.5-.3-.6-.8-.1-.5,0-.9.2-1,.2,0,.5.3.6.8Z"/><path class="cls-5" d="m423.4,674.6c.1.5,0,.9-.2,1s-.5-.3-.6-.8c-.1-.5,0-.9.2-1s.5.3.6.8Z"/><path class="cls-5" d="m423.7,675.6c.1.5,0,.9-.2,1s-.5-.3-.7-.8c-.1-.5,0-.9.2-1s.5.3.7.8Z"/><path class="cls-5" d="m424.7,674.3c.1.5,0,.9-.2,1s-.5-.3-.7-.8c-.1-.5,0-.9.2-1s.5.3.7.8Z"/><path class="cls-5" d="m424.9,675.3c.1.5,0,.9-.2,1s-.5-.3-.7-.8c-.1-.5,0-.9.2-1s.5.3.7.8Z"/><path class="cls-5" d="m425.9,674c.1.5,0,.9-.2,1-.2,0-.5-.3-.7-.8-.1-.5,0-.9.2-1,.2,0,.5.3.6.8h0Z"/><path class="cls-5" d="m426.2,675c.1.5,0,.9-.2,1-.2,0-.5-.3-.7-.8-.1-.5,0-.9.2-1,.2,0,.5.3.7.8h0Z"/><path class="cls-5" d="m427.2,673.6c.1.5,0,.9-.2,1-.2,0-.5-.3-.7-.8-.1-.5,0-.9.2-1s.5.3.7.8h0Z"/><path class="cls-5" d="m427.4,674.7c.1.5,0,.9-.2,1-.2,0-.5-.3-.7-.8s0-.9.2-1c.2,0,.5.3.7.8Z"/><path class="cls-5" d="m428.4,673.3c.1.5,0,.9-.2,1s-.5-.3-.7-.8,0-.9.2-1,.5.3.7.8Z"/><path class="cls-5" d="m428.7,674.4c.1.5,0,.9-.2,1s-.5-.3-.7-.8,0-.9.2-1,.5.3.7.8Z"/><path class="cls-5" d="m429.7,673c.1.5,0,.9-.2,1s-.5-.3-.7-.8,0-.9.2-1,.5.3.7.8Z"/><path class="cls-5" d="m429.9,674c.1.5,0,.9-.2,1s-.5-.3-.7-.8,0-.9.2-1,.5.3.7.8Z"/><path class="cls-5" d="m430.9,672.7c.1.5,0,.9-.2,1s-.5-.3-.7-.8,0-.9.2-1,.5.3.7.8Z"/><path class="cls-5" d="m431.2,673.7c.1.5,0,.9-.2,1s-.5-.3-.7-.8,0-.9.2-1,.5.3.7.8Z"/><path class="cls-5" d="m432.2,672.3c.1.5,0,.9-.2,1s-.5-.3-.7-.8,0-.9.2-1,.5.3.7.8Z"/><path class="cls-5" d="m432.4,673.4c.1.5,0,.9-.2,1s-.5-.3-.7-.8c-.1-.5,0-.9.2-1s.5.3.7.8Z"/><path class="cls-5" d="m433.4,672c.1.5,0,.9-.2,1s-.5-.3-.7-.8,0-.9.2-1,.5.3.7.8Z"/><path class="cls-5" d="m433.7,673c.1.5,0,.9-.2,1s-.5-.3-.7-.8c-.1-.5,0-.9.2-1s.5.3.7.8Z"/><path class="cls-5" d="m434.6,671.7c.1.5,0,.9-.2,1-.2,0-.5-.3-.7-.8s0-.9.2-1c.2,0,.5.3.7.8Z"/><path class="cls-5" d="m434.9,672.7c.1.5,0,.9-.2,1s-.5-.3-.7-.8,0-.9.2-1c.2,0,.5.3.7.8Z"/><path class="cls-5" d="m435.9,671.3c.1.5,0,.9-.2,1-.2,0-.5-.3-.7-.8s0-.9.2-1c.2,0,.5.3.7.8Z"/><path class="cls-5" d="m436.2,672.4c.1.5,0,.9-.2,1-.2,0-.5-.3-.7-.8-.1-.5,0-.9.2-1,.2,0,.5.3.7.8Z"/><path class="cls-5" d="m437.1,671c.1.5,0,.9-.2,1s-.5-.3-.7-.8c-.1-.5,0-.9.2-1,.2,0,.5.3.7.8Z"/><path class="cls-5" d="m437.4,672c.1.5,0,.9-.2,1-.2,0-.5-.3-.7-.8-.1-.5,0-.9.2-1,.2,0,.5.3.7.8Z"/><path class="cls-5" d="m438.4,670.7c.1.5,0,.9-.2,1-.2,0-.5-.3-.7-.8-.1-.5,0-.9.2-1,.2,0,.5.3.7.8Z"/><path class="cls-5" d="m438.7,671.7c.1.5,0,.9-.2,1s-.5-.3-.7-.8c-.1-.5,0-.9.2-1,.2,0,.5.3.7.8Z"/><path class="cls-5" d="m439.6,670.3c.1.5,0,.9-.2,1-.2,0-.5-.3-.7-.8-.1-.5,0-.9.2-1,.2,0,.5.3.7.8Z"/><path class="cls-5" d="m439.9,671.4c.1.5,0,.9-.2,1-.2,0-.5-.3-.7-.8-.1-.5,0-.9.2-1,.2,0,.5.3.7.8Z"/><path class="cls-5" d="m440.9,670c.1.5,0,.9-.2,1-.2,0-.5-.3-.7-.8-.1-.5,0-.9.2-1,.2,0,.5.3.7.8Z"/><path class="cls-5" d="m441.2,671c.1.5,0,.9-.2,1s-.5-.3-.7-.8c-.1-.5,0-.9.2-1,.2,0,.5.3.7.8Z"/><path class="cls-5" d="m442.1,669.7c.1.5,0,.9-.2,1-.2,0-.5-.3-.7-.8-.1-.5,0-.9.2-1,.2,0,.5.3.7.8h0Z"/><path class="cls-5" d="m442.4,670.7c.1.5,0,.9-.2,1s-.5-.3-.7-.8c-.1-.5,0-.9.2-1,.2,0,.5.3.7.8Z"/><path class="cls-5" d="m443.4,669.4c.1.5,0,.9-.2,1-.2,0-.5-.3-.7-.8-.1-.5,0-.9.2-1,.2,0,.5.3.7.8Z"/><path class="cls-5" d="m443.6,670.4c.1.5,0,.9-.2,1-.2,0-.5-.3-.7-.8-.1-.5,0-.9.2-1,.2,0,.5.3.7.8h0Z"/><path class="cls-5" d="m444.6,669c.1.5,0,.9-.2,1-.2,0-.5-.3-.7-.8-.1-.5,0-.9.2-1,.2,0,.5.3.7.8Z"/><path class="cls-5" d="m444.9,670.1c.1.5,0,.9-.2,1-.2,0-.5-.3-.7-.8s0-.9.2-1c.2,0,.5.3.7.8Z"/><path class="cls-7" d="m196.3,63.6s62.6,37.9,128,0"/><line class="cls-6" x1="86" y1="576.8" x2="93.1" y2="577.1"/><line class="cls-6" x1="429.6" y1="576.8" x2="422.5" y2="577.1"/><path class="cls-11" d="m318.3,87.1c6.4-13.8,11.8-30.5,12.4-51.9l13.4,4.3.8,1.3,27.7,8,.9-.9,14.1,5.1s-58.6,183.1,58.3,184.9v13.4l-.8,1.1v415.9s-.4,4.6-3.1,7.9l-7.6,1.7c-211.7,56-360.1,0-360.1,0-3-3.6-3.6-8.4-3.6-8.4,0,0,.3-416.7,0-417.4s-.4-.8-.4-.8v-13.4c116.9-1.8,58.3-184.9,58.3-184.9l14.1-5.1,1.4.9,31-9.9.5-1.5,14.1-2.9s.2,27.2,13.5,54.1c0,0,17.1,36.2,54.5,38.5,0,0,40,5,60.8-40h0Z"/><path class="cls-12" d="m175,38.9s.9,98.4,85.4,102.6c0,0,80.3,6.4,84.6-100.6"/><path class="cls-7" d="m176.8,37.4s.9,98,83.4,102.1c0,0,78.5,6.4,82.7-100.1"/><path class="cls-12" d="m445.2,251.5h-1.3c-.2,0-.5,0-.8,0-9.8,0-43.5-2.3-65.8-31.5-25.9-34-27.4-91.3-4.5-170.4l.2-.5h-.4l-27.1-7.8h-.3c0,0,0,.2,0,.2-1.6,36.5-12.2,63.8-31.5,80.9-20,17.8-44,19.2-50.9,19.2s-2.3,0-2.4,0c-43.7-2.1-64.7-30-74.5-52.9-9.6-22.4-10.9-44.7-11-49v-.3l-30.7,9.8c-.1,0-.3,0-.4,0l-.6-.4,1,2.8c22.2,77.7,20.5,134.3-5,168.1-22.4,29.6-56.4,31.9-66.2,31.9h-1.7s-.4,0-.4,0l.2.3c.3,1.7.3,133.3,0,391.2h.4c1.5-8.1,5.6-27.9,10.3-36.7,6.1-11.4,9-22.2,9.7-28.4v-.2s-5.6-.2-5.6-.2c-.4,0-.7-.3-.6-.7,0-.3.3-.7.7-.7h0l7.1.2c.4,0,.7.3.6.7,0,.4-.3.7-.7.7h-1.1s0,.2,0,.2c-.7,6.3-3.6,17.1-9.8,28.7-1.5,2.8-3,6.8-4.6,12.1v.4c-.1,0,.2-.1.2-.1l15,47.7h.1c3.8,1.1,38.7,10.3,94.3,15.1,18.6,1.6,40.8,2.8,66,2.8,47.8,0,106.1-4.2,170-17.8h.1s15-47.7,15-47.7h.4c0,.1-.1-.3-.1-.3-1.5-5.3-3.1-9.4-4.6-12.1-6.1-11.5-9.1-22.4-9.8-28.7v-.2s-1.7,0-1.7,0c-.4,0-.7-.3-.7-.7,0-.4.3-.7.6-.7l7.1-.2c.4,0,.7.3.7.7,0,.4-.3.7-.6.7l-5,.2v.2c.7,6.2,3.6,17,9.7,28.4,4.3,8,8,25,9.8,34.4h.5V252.4c0,0,0-.2,0-.3l.5-.6h0Z"/><path class="cls-7" d="m70.9,249.8h2.6c18.1,0,122.5-7.9,69.2-196.9l-1.3-3.7"/><path class="cls-16" d="m91.6,578.4s-2.6,19.8-9.4,34.7-7.8,39.6-11.3,56.3l.3-25.5s6.7-30.8,9.5-35.2c0,0,10.1-18,10.9-30.3h0Z"/><path class="cls-16" d="m424.3,578.4s2.5,19.8,9.4,34.7c6.9,15,7.8,39.6,11.3,56.3l-.3-25.5s-6.6-30.8-9.5-35.2c0,0-10.1-18-10.9-30.3h0Z"/><path class="cls-16" d="m81.3,631.9s8.7,37.2,9.2,38.6c.5,1.4,7.1,3.9,12.1,5s37.2,4.8,50.7,8.9c13.5,4.1,54.6,10.7,62.2,10.7s72.6-2.7,87.1-4.3c14.6-1.6,52.5-11.9,52.5-11.9,0,0-69.2,10-167.7,3.2,0,0-68.1-6.8-95-15.1,0,0-9.9-33.9-11.2-35h0Z"/><path class="cls-16" d="m323.3,74.9c5.9-22,1.5-28.5,1.5-28.5l.4-.7c3.2-4.6,4.9-8.6,5.4-10,0,.6,0,1.1.1,1.7-.7,14.5-3.5,26.8-7.4,37.5h0Z"/><path class="cls-16" d="m194.7,44.7s.2,18.2,3,16.8c0,0-.6,2.8,2.4,5.1,0,0,8.9,4,16.2,6.7,7.3,2.8,39.4,13.7,77.2,4,0,0-37.8,16-91.9-8.3,0,0-2.2-1.4.7,7.6,2.9,8.8,19.1,50,62.1,50l-8.8.2s-48.5-3.4-61.6-63.6c0,0-4.4-19.2-4-26.5,0,0,4.4,7.3,4.6,7.9h0Z"/><path class="cls-1" d="m244.9,286.8c0,5.2-2,10.5-6.1,15.9-6.6,8.7-19.8,20.6-39.4,35.7,6.9-.8,13.7-1.2,20.4-1.2s6,.1,11.4.4c.3,4.2,1,8.2,2.3,12.2-10.1-.9-18.9-1.4-26.1-1.4-12,0-22.1,1.2-30.2,3.6-1.3-2.4-3-5.1-5.1-8.3,11.3-6.2,22.7-14.3,34.2-24.2,10.1-8.6,17.5-16.3,22.4-22.9,2.7-3.6,4-6.3,4-8.2s-.9-2.5-2.6-2.5c-3,0-7,2.4-11.8,7.1-3.8,3.8-7.2,7.9-10.3,12.5-1.2-1.7-3.8-4.6-7.7-8.6,11.2-14.6,21.8-21.9,32.1-21.9s6.7,1.1,9,3.4,3.5,5.1,3.5,8.6h0Z"/><path class="cls-1" d="m305.4,285.5c-5.5,3-12.8,7.2-21.7,12.6,6.3.6,11.4,2.6,15.2,6.1,3.8,3.5,5.7,8,5.7,13.5,0,9-4.6,16.6-13.9,22.9-8.8,5.9-18.9,8.9-30.2,8.9s-12.4-1.1-19.3-3.2c-.2-3.1-.8-7-1.6-11.9,6.4,2.9,13.3,4.3,20.6,4.3s15.9-2.1,22.4-6.2c6.4-4.1,9.6-8.9,9.6-14.4s-1.4-5.8-4.2-7.6c-2.8-1.8-6.4-2.8-10.9-2.8s-8.9.6-13.5,1.9c-.8-2-2.2-5-4.2-9.1,5-2.1,13.9-6.8,26.5-14.2-7.6,1.1-16.4,1.8-26.2,2-.2-3.2-.6-6.9-1.1-11h8.1c15.3,0,27.1-.8,35.6-2.4.3,2.9,1.3,6.4,3.1,10.5h0Z"/><path class="cls-20" d="m244.9,286.8c0,5.2-2,10.5-6.1,15.9-6.6,8.7-19.8,20.6-39.4,35.7,6.9-.8,13.7-1.2,20.4-1.2s6,.1,11.4.4c.3,4.2,1,8.2,2.3,12.2-10.1-.9-18.9-1.4-26.1-1.4-12,0-22.1,1.2-30.2,3.6-1.3-2.4-3-5.1-5.1-8.3,11.3-6.2,22.7-14.3,34.2-24.2,10.1-8.6,17.5-16.3,22.4-22.9,2.7-3.6,4-6.3,4-8.2s-.9-2.5-2.6-2.5c-3,0-7,2.4-11.8,7.1-3.8,3.8-7.2,7.9-10.3,12.5-1.2-1.7-3.8-4.6-7.7-8.6,11.2-14.6,21.8-21.9,32.1-21.9s6.7,1.1,9,3.4,3.5,5.1,3.5,8.6h0Z"/><path class="cls-20" d="m305.4,285.5c-5.5,3-12.8,7.2-21.7,12.6,6.3.6,11.4,2.6,15.2,6.1,3.8,3.5,5.7,8,5.7,13.5,0,9-4.6,16.6-13.9,22.9-8.8,5.9-18.9,8.9-30.2,8.9s-12.4-1.1-19.3-3.2c-.2-3.1-.8-7-1.6-11.9,6.4,2.9,13.3,4.3,20.6,4.3s15.9-2.1,22.4-6.2c6.4-4.1,9.6-8.9,9.6-14.4s-1.4-5.8-4.2-7.6c-2.8-1.8-6.4-2.8-10.9-2.8s-8.9.6-13.5,1.9c-.8-2-2.2-5-4.2-9.1,5-2.1,13.9-6.8,26.5-14.2-7.6,1.1-16.4,1.8-26.2,2-.2-3.2-.6-6.9-1.1-11h8.1c15.3,0,27.1-.8,35.6-2.4.3,2.9,1.3,6.4,3.1,10.5h0Z"/><path class="cls-21" d="m244.9,286.8c0,5.2-2,10.5-6.1,15.9-6.6,8.7-19.8,20.6-39.4,35.7,6.9-.8,13.7-1.2,20.4-1.2s6,.1,11.4.4c.3,4.2,1,8.2,2.3,12.2-10.1-.9-18.9-1.4-26.1-1.4-12,0-22.1,1.2-30.2,3.6-1.3-2.4-3-5.1-5.1-8.3,11.3-6.2,22.7-14.3,34.2-24.2,10.1-8.6,17.5-16.3,22.4-22.9,2.7-3.6,4-6.3,4-8.2s-.9-2.5-2.6-2.5c-3,0-7,2.4-11.8,7.1-3.8,3.8-7.2,7.9-10.3,12.5-1.2-1.7-3.8-4.6-7.7-8.6,11.2-14.6,21.8-21.9,32.1-21.9s6.7,1.1,9,3.4,3.5,5.1,3.5,8.6h0Z"/><path class="cls-21" d="m305.4,285.5c-5.5,3-12.8,7.2-21.7,12.6,6.3.6,11.4,2.6,15.2,6.1,3.8,3.5,5.7,8,5.7,13.5,0,9-4.6,16.6-13.9,22.9-8.8,5.9-18.9,8.9-30.2,8.9s-12.4-1.1-19.3-3.2c-.2-3.1-.8-7-1.6-11.9,6.4,2.9,13.3,4.3,20.6,4.3s15.9-2.1,22.4-6.2c6.4-4.1,9.6-8.9,9.6-14.4s-1.4-5.8-4.2-7.6c-2.8-1.8-6.4-2.8-10.9-2.8s-8.9.6-13.5,1.9c-.8-2-2.2-5-4.2-9.1,5-2.1,13.9-6.8,26.5-14.2-7.6,1.1-16.4,1.8-26.2,2-.2-3.2-.6-6.9-1.1-11h8.1c15.3,0,27.1-.8,35.6-2.4.3,2.9,1.3,6.4,3.1,10.5h0Z"/><path class="cls-9" d="m313,146.2c.4,1.3.8,2.5,1.2,3.8h-2.7c-.4-1.2-.7-2.3-1.1-3.5h-.8c-.2,1.2-.4,2.3-.5,3.5h-2.5c.6-3.2,1.1-6.3,1.7-9.5h3.9c.5,0,.9,0,1.3.2.6.2,1,.6,1.2,1.2,0,.3,0,.6,0,.8,0,.5-.2,1.1-.3,1.6-.1.6-.4,1-.8,1.4-.2.1-.3.3-.5.4h0Zm-3.1-1.4s0,0,0,0c.4,0,.8,0,1.2,0,.5,0,.8-.3.9-.8,0-.3,0-.6,0-.9-.1-.4-.4-.6-.8-.6h-1s0,0-.1,0c-.1.8-.2,1.5-.3,2.2h0Z"/><path class="cls-9" d="m318.9,146.9h2.4c0,0,0,.2,0,.2,0,.5.1.9.7,1,.4.1.9.1,1.3,0,0,0,.1,0,.2,0,.5-.2.5-.8.2-1.1-.1-.1-.2-.2-.3-.3-.3-.2-.7-.3-1.1-.5-.4-.1-.8-.3-1.2-.4s-.8-.4-1-.7c-.4-.4-.5-.9-.5-1.4s0-.8.2-1.2c.3-.8.9-1.4,1.6-1.7.5-.2.9-.3,1.4-.3.5,0,1.1,0,1.6,0,.5,0,1,.1,1.4.4.6.3,1,.7,1.1,1.4s0,1.2-.3,1.8c0,0,0,0,0,0h-2.3c0,0,0-.1,0-.1.2-.3.2-.6.2-.9,0-.2-.2-.4-.4-.5-.2-.1-.4-.1-.7-.1s-.5,0-.7,0c0,0-.2,0-.3.1-.5.3-.6.9-.1,1.3.3.2.6.3.9.4.4.1.9.2,1.3.4.4.1.8.3,1.1.6.5.4.7.9.7,1.5,0,.5,0,1-.2,1.5-.3.8-.9,1.3-1.6,1.6-.5.2-1,.3-1.6.3-.5,0-1,0-1.4,0s-1-.1-1.4-.3c-.8-.3-1.1-.9-1.2-1.6,0-.4,0-.9,0-1.3,0,0,0,0,0,0h0s0,0,0,0Z"/><path class="cls-9" d="m326.6,150c.6-3.2,1.1-6.3,1.7-9.5h6.6c-.1.7-.2,1.4-.4,2.1h-4.2c-.1.6-.2,1.2-.3,1.8h3.5c-.1.7-.2,1.4-.4,2.1h-3.5c0,.5-.2,1-.3,1.5h4.2c-.1.7-.2,1.4-.4,2.1h-6.6Z"/><path class="cls-9" d="m336,140.5h2.4c0,.3-.1.6-.1.9-.2,1-.4,2-.5,2.9-.1.7-.3,1.4-.4,2.2,0,.2,0,.5,0,.8,0,.5.2.8.8.9.3,0,.6,0,.9,0,.3-.1.6-.3.8-.6.2-.3.2-.7.3-1,.2-1.1.4-2.2.6-3.4.1-.8.3-1.6.4-2.4,0,0,0-.1,0-.2h2.1c-.5.7-.9,1.4-1.4,2.2.4,0,.8.1,1.3.2,0,0,0,.1,0,.1-.2,1.3-.4,2.6-.7,3.8,0,.4-.2.9-.4,1.3-.5,1-1.2,1.6-2.2,1.9-.7.2-1.4.2-2.1.2-.4,0-.9-.1-1.3-.2-.8-.3-1.3-.9-1.4-1.8,0-.5,0-1.1,0-1.6.2-1,.4-2,.5-3,.2-1,.3-1.9.5-2.9,0,0,0,0,0-.1h0Z"/><path class="cls-9" d="m345.8,147.2c-.2,1-.3,1.9-.5,2.9h-2.4c.4-2.3.8-4.7,1.2-7,.4,0,.9.1,1.3.2-.3-.9-.6-1.7-.9-2.6,0,0,.1,0,.1,0h4.1c.4,0,.9,0,1.3.2.7.3,1.1.8,1.1,1.6,0,.3,0,.7,0,1,0,.4-.2.8-.2,1.2-.1.8-.6,1.4-1.2,1.9-.5.4-1.1.6-1.7.6-.3,0-.6,0-.9,0h-1.2Zm.4-2.1s0,0,0,0c.5,0,.9,0,1.4,0,.5,0,.8-.3.9-.8,0-.3.1-.6.2-.9,0-.1,0-.2,0-.3-.1-.3-.4-.4-.7-.4h-1.3s0,0,0,0c-.1.8-.3,1.6-.4,2.4h0Z"/><path class="cls-9" d="m317.3,150h-2.4c.6-3.2,1.1-6.3,1.7-9.5h2.4c-.5,3.2-1.1,6.3-1.7,9.5h0Z"/><path class="cls-20" d="m313,146.2c.4,1.3.8,2.5,1.2,3.8h-2.7c-.4-1.2-.7-2.3-1.1-3.5h-.8c-.2,1.2-.4,2.3-.5,3.5h-2.5c.6-3.2,1.1-6.3,1.7-9.5h3.9c.5,0,.9,0,1.3.2.6.2,1,.6,1.2,1.2,0,.3,0,.6,0,.8,0,.5-.2,1.1-.3,1.6-.1.6-.4,1-.8,1.4-.2.1-.3.3-.5.4h0Zm-3.1-1.4s0,0,0,0c.4,0,.8,0,1.2,0,.5,0,.8-.3.9-.8,0-.3,0-.6,0-.9-.1-.4-.4-.6-.8-.6h-1s0,0-.1,0c-.1.8-.2,1.5-.3,2.2h0Z"/><path class="cls-20" d="m318.9,146.9h2.4c0,0,0,.2,0,.2,0,.5.1.9.7,1,.4.1.9.1,1.3,0,0,0,.1,0,.2,0,.5-.2.5-.8.2-1.1-.1-.1-.2-.2-.3-.3-.3-.2-.7-.3-1.1-.5-.4-.1-.8-.3-1.2-.4s-.8-.4-1-.7c-.4-.4-.5-.9-.5-1.4s0-.8.2-1.2c.3-.8.9-1.4,1.6-1.7.5-.2.9-.3,1.4-.3.5,0,1.1,0,1.6,0,.5,0,1,.1,1.4.4.6.3,1,.7,1.1,1.4s0,1.2-.3,1.8c0,0,0,0,0,0h-2.3c0,0,0-.1,0-.1.2-.3.2-.6.2-.9,0-.2-.2-.4-.4-.5-.2-.1-.4-.1-.7-.1s-.5,0-.7,0c0,0-.2,0-.3.1-.5.3-.6.9-.1,1.3.3.2.6.3.9.4.4.1.9.2,1.3.4.4.1.8.3,1.1.6.5.4.7.9.7,1.5,0,.5,0,1-.2,1.5-.3.8-.9,1.3-1.6,1.6-.5.2-1,.3-1.6.3-.5,0-1,0-1.4,0s-1-.1-1.4-.3c-.8-.3-1.1-.9-1.2-1.6,0-.4,0-.9,0-1.3,0,0,0,0,0,0h0s0,0,0,0Z"/><path class="cls-20" d="m326.6,150c.6-3.2,1.1-6.3,1.7-9.5h6.6c-.1.7-.2,1.4-.4,2.1h-4.2c-.1.6-.2,1.2-.3,1.8h3.5c-.1.7-.2,1.4-.4,2.1h-3.5c0,.5-.2,1-.3,1.5h4.2c-.1.7-.2,1.4-.4,2.1h-6.6Z"/><path class="cls-20" d="m336,140.5h2.4c0,.3-.1.6-.1.9-.2,1-.4,2-.5,2.9-.1.7-.3,1.4-.4,2.2,0,.2,0,.5,0,.8,0,.5.2.8.8.9.3,0,.6,0,.9,0,.3-.1.6-.3.8-.6.2-.3.2-.7.3-1,.2-1.1.4-2.2.6-3.4.1-.8.3-1.6.4-2.4,0,0,0-.1,0-.2h2.1c-.5.7-.9,1.4-1.4,2.2.4,0,.8.1,1.3.2,0,0,0,.1,0,.1-.2,1.3-.4,2.6-.7,3.8,0,.4-.2.9-.4,1.3-.5,1-1.2,1.6-2.2,1.9-.7.2-1.4.2-2.1.2-.4,0-.9-.1-1.3-.2-.8-.3-1.3-.9-1.4-1.8,0-.5,0-1.1,0-1.6.2-1,.4-2,.5-3,.2-1,.3-1.9.5-2.9,0,0,0,0,0-.1h0Z"/><path class="cls-20" d="m345.8,147.2c-.2,1-.3,1.9-.5,2.9h-2.4c.4-2.3.8-4.7,1.2-7,.4,0,.9.1,1.3.2-.3-.9-.6-1.7-.9-2.6,0,0,.1,0,.1,0h4.1c.4,0,.9,0,1.3.2.7.3,1.1.8,1.1,1.6,0,.3,0,.7,0,1,0,.4-.2.8-.2,1.2-.1.8-.6,1.4-1.2,1.9-.5.4-1.1.6-1.7.6-.3,0-.6,0-.9,0h-1.2Zm.4-2.1s0,0,0,0c.5,0,.9,0,1.4,0,.5,0,.8-.3.9-.8,0-.3.1-.6.2-.9,0-.1,0-.2,0-.3-.1-.3-.4-.4-.7-.4h-1.3s0,0,0,0c-.1.8-.3,1.6-.4,2.4h0Z"/><path class="cls-20" d="m317.3,150h-2.4c.6-3.2,1.1-6.3,1.7-9.5h2.4c-.5,3.2-1.1,6.3-1.7,9.5h0Z"/><path class="cls-20" d="m313,146.2c.4,1.3.8,2.5,1.2,3.8h-2.7c-.4-1.2-.7-2.3-1.1-3.5h-.8c-.2,1.2-.4,2.3-.5,3.5h-2.5c.6-3.2,1.1-6.3,1.7-9.5h3.9c.5,0,.9,0,1.3.2.6.2,1,.6,1.2,1.2,0,.3,0,.6,0,.8,0,.5-.2,1.1-.3,1.6-.1.6-.4,1-.8,1.4-.2.1-.3.3-.5.4h0Zm-3.1-1.4s0,0,0,0c.4,0,.8,0,1.2,0,.5,0,.8-.3.9-.8,0-.3,0-.6,0-.9-.1-.4-.4-.6-.8-.6h-1s0,0-.1,0c-.1.8-.2,1.5-.3,2.2h0Z"/><path class="cls-20" d="m318.9,146.9h2.4c0,0,0,.2,0,.2,0,.5.1.9.7,1,.4.1.9.1,1.3,0,0,0,.1,0,.2,0,.5-.2.5-.8.2-1.1-.1-.1-.2-.2-.3-.3-.3-.2-.7-.3-1.1-.5-.4-.1-.8-.3-1.2-.4s-.8-.4-1-.7c-.4-.4-.5-.9-.5-1.4s0-.8.2-1.2c.3-.8.9-1.4,1.6-1.7.5-.2.9-.3,1.4-.3.5,0,1.1,0,1.6,0,.5,0,1,.1,1.4.4.6.3,1,.7,1.1,1.4s0,1.2-.3,1.8c0,0,0,0,0,0h-2.3c0,0,0-.1,0-.1.2-.3.2-.6.2-.9,0-.2-.2-.4-.4-.5-.2-.1-.4-.1-.7-.1s-.5,0-.7,0c0,0-.2,0-.3.1-.5.3-.6.9-.1,1.3.3.2.6.3.9.4.4.1.9.2,1.3.4.4.1.8.3,1.1.6.5.4.7.9.7,1.5,0,.5,0,1-.2,1.5-.3.8-.9,1.3-1.6,1.6-.5.2-1,.3-1.6.3-.5,0-1,0-1.4,0s-1-.1-1.4-.3c-.8-.3-1.1-.9-1.2-1.6,0-.4,0-.9,0-1.3,0,0,0,0,0,0h0s0,0,0,0Z"/><path class="cls-20" d="m326.6,150c.6-3.2,1.1-6.3,1.7-9.5h6.6c-.1.7-.2,1.4-.4,2.1h-4.2c-.1.6-.2,1.2-.3,1.8h3.5c-.1.7-.2,1.4-.4,2.1h-3.5c0,.5-.2,1-.3,1.5h4.2c-.1.7-.2,1.4-.4,2.1h-6.6Z"/><path class="cls-20" d="m336,140.5h2.4c0,.3-.1.6-.1.9-.2,1-.4,2-.5,2.9-.1.7-.3,1.4-.4,2.2,0,.2,0,.5,0,.8,0,.5.2.8.8.9.3,0,.6,0,.9,0,.3-.1.6-.3.8-.6.2-.3.2-.7.3-1,.2-1.1.4-2.2.6-3.4.1-.8.3-1.6.4-2.4,0,0,0-.1,0-.2h2.1c-.5.7-.9,1.4-1.4,2.2.4,0,.8.1,1.3.2,0,0,0,.1,0,.1-.2,1.3-.4,2.6-.7,3.8,0,.4-.2.9-.4,1.3-.5,1-1.2,1.6-2.2,1.9-.7.2-1.4.2-2.1.2-.4,0-.9-.1-1.3-.2-.8-.3-1.3-.9-1.4-1.8,0-.5,0-1.1,0-1.6.2-1,.4-2,.5-3,.2-1,.3-1.9.5-2.9,0,0,0,0,0-.1h0Z"/><path class="cls-20" d="m345.8,147.2c-.2,1-.3,1.9-.5,2.9h-2.4c.4-2.3.8-4.7,1.2-7,.4,0,.9.1,1.3.2-.3-.9-.6-1.7-.9-2.6,0,0,.1,0,.1,0h4.1c.4,0,.9,0,1.3.2.7.3,1.1.8,1.1,1.6,0,.3,0,.7,0,1,0,.4-.2.8-.2,1.2-.1.8-.6,1.4-1.2,1.9-.5.4-1.1.6-1.7.6-.3,0-.6,0-.9,0h-1.2Zm.4-2.1s0,0,0,0c.5,0,.9,0,1.4,0,.5,0,.8-.3.9-.8,0-.3.1-.6.2-.9,0-.1,0-.2,0-.3-.1-.3-.4-.4-.7-.4h-1.3s0,0,0,0c-.1.8-.3,1.6-.4,2.4h0Z"/><path class="cls-20" d="m317.3,150h-2.4c.6-3.2,1.1-6.3,1.7-9.5h2.4c-.5,3.2-1.1,6.3-1.7,9.5h0Z"/><path class="cls-2" d="m194.8,147.6s0,0,.1-.1c1.3-1.8,2.2-3.8,2.7-6,0-.1,0-.2,0-.3,0,0,0-.1,0-.2,0-.1.1-.2.3-.2.1,0,.2,0,.3.2,0,0,0,.1,0,.2.1.6.3,1.2.3,1.7.1,1,.2,1.9.1,2.9,0,1.3-.3,2.6-.8,3.9-.4,1.3-1,2.5-1.8,3.6,0,.1-.2.2-.3.3-1.4.8-2.9,1.4-4.5,1.8-.6.1-1.3.2-1.9.3-.2,0-.5,0-.7,0,0,0-.2,0-.3,0,.1,0,.2,0,.3,0,1.1.2,2.2.2,3.3.2.2,0,.5,0,.7,0,.1,0,.2,0,.3,0,.1,0,.3,0,.3.2,0,.1,0,.2,0,.3,0,0,0,0-.1.1-.8.6-1.6,1.2-2.6,1.6-.3.2-.6.3-1,.5-.1,0-.3,0-.4,0-.6-.1-1.2-.3-1.9-.4,0,0-.1,0-.2,0,0,0,0,0,0,0,0,0,0,0,0,.1.1.2.2.4.3.6,0,0,0,.1,0,.2,0,.1-.1.2-.3.3-.2,0-.3,0-.5.1-.8.2-1.6.2-2.4.3h-.1c-.2,0-.3,0-.3-.2s0-.2,0-.3c0,0,0,0,0-.2,0,0,0,0,0,.1,0,.1,0,.2,0,.3,0,.2-.2.2-.3.2s-.3,0-.5,0c-.5,0-1,0-1.4-.1-.4,0-.7-.1-1.1-.2,0,0,0,0-.1,0-.1,0-.2-.2-.2-.4,0,0,0-.1,0-.2l.3-.6c0,0-.1,0-.2,0-.5.1-1.1.3-1.6.4-.6.1-.4.1-.9-.1-1.2-.5-2.3-1.2-3.3-2,0,0,0,0-.1-.1-.1-.1-.1-.2,0-.4,0-.1.2-.2.3-.2s.1,0,.2,0c.8.1,1.6.1,2.4,0,.6,0,1.3-.1,1.9-.2,0,0-.1,0-.2,0-.2,0-.4,0-.6,0-1,0-2-.3-2.9-.6-1.3-.4-2.5-.9-3.7-1.6-.2,0-.3-.2-.4-.4-1-1.4-1.7-3-2.1-4.7-.2-.8-.3-1.6-.4-2.4,0-.8,0-1.6,0-2.4,0-.9.2-1.8.4-2.7,0,0,0,0,0-.1,0-.1.2-.2.3-.2.1,0,.2,0,.3.2,0,.1,0,.2,0,.4.4,1.9,1.1,3.7,2.2,5.4.2.2.3.5.5.7,0,0,0,0,0,.1,0,0,0-.1,0-.2-.4-.6-.7-1.3-1-1.9-.5-1.2-.8-2.4-1-3.6-.2-1.1-.2-2.2-.2-3.3,0-.3,0-.6,0-.9,0-.1,0-.3.1-.4,1.9-3.2,4.6-5.4,8.1-6.6,0,0,.1,0,.2,0,.1,0,.2,0,.3.1,0,.1,0,.2,0,.4,0,0,0,0,0,0-.9.9-1.5,1.9-2,3-.5,1.1-.9,2.3-1.1,3.5-.2,1.2-.3,2.5-.3,3.7,0,1.2.2,2.4.5,3.5.3,1.1.7,2.2,1.3,3.3.5.8,1,1.5,1.7,2.2.6.6,1.4,1.2,2.2,1.5.7.3,1.4.5,2.2.5.9,0,1.7-.2,2.5-.6.8-.4,1.6-1,2.2-1.6.7-.8,1.3-1.7,1.8-2.6.5-1.1.9-2.1,1.1-3.3.3-1.3.4-2.6.4-3.9,0-.6,0-1.2-.1-1.8-.3-2-.9-3.9-2-5.7-.4-.6-.8-1.1-1.3-1.6,0,0,0,0-.1-.1,0-.1,0-.2,0-.4,0-.1.2-.2.3-.1,0,0,.1,0,.2,0,1.6.5,3.1,1.3,4.4,2.4,1.5,1.2,2.8,2.6,3.7,4.2,0,.1.1.2.1.4,0,.4,0,.8.1,1.3,0,.6,0,1.2,0,1.9-.2,1.9-.7,3.7-1.5,5.4-.2.4-.4.8-.6,1.2,0,0,0,.1,0,.2,0,0,0,0,0,.1,0,0,0,0,0-.1h0Z"/><path class="cls-20" d="m194.8,147.6s0,0,.1-.1c1.3-1.8,2.2-3.8,2.7-6,0-.1,0-.2,0-.3,0,0,0-.1,0-.2,0-.1.1-.2.3-.2.1,0,.2,0,.3.2,0,0,0,.1,0,.2.1.6.3,1.2.3,1.7.1,1,.2,1.9.1,2.9,0,1.3-.3,2.6-.8,3.9-.4,1.3-1,2.5-1.8,3.6,0,.1-.2.2-.3.3-1.4.8-2.9,1.4-4.5,1.8-.6.1-1.3.2-1.9.3-.2,0-.5,0-.7,0,0,0-.2,0-.3,0,.1,0,.2,0,.3,0,1.1.2,2.2.2,3.3.2.2,0,.5,0,.7,0,.1,0,.2,0,.3,0,.1,0,.3,0,.3.2,0,.1,0,.2,0,.3,0,0,0,0-.1.1-.8.6-1.6,1.2-2.6,1.6-.3.2-.6.3-1,.5-.1,0-.3,0-.4,0-.6-.1-1.2-.3-1.9-.4,0,0-.1,0-.2,0,0,0,0,0,0,0,0,0,0,0,0,.1.1.2.2.4.3.6,0,0,0,.1,0,.2,0,.1-.1.2-.3.3-.2,0-.3,0-.5.1-.8.2-1.6.2-2.4.3h-.1c-.2,0-.3,0-.3-.2s0-.2,0-.3c0,0,0,0,0-.2,0,0,0,0,0,.1,0,.1,0,.2,0,.3,0,.2-.2.2-.3.2s-.3,0-.5,0c-.5,0-1,0-1.4-.1-.4,0-.7-.1-1.1-.2,0,0,0,0-.1,0-.1,0-.2-.2-.2-.4,0,0,0-.1,0-.2l.3-.6c0,0-.1,0-.2,0-.5.1-1.1.3-1.6.4-.6.1-.4.1-.9-.1-1.2-.5-2.3-1.2-3.3-2,0,0,0,0-.1-.1-.1-.1-.1-.2,0-.4,0-.1.2-.2.3-.2s.1,0,.2,0c.8.1,1.6.1,2.4,0,.6,0,1.3-.1,1.9-.2,0,0-.1,0-.2,0-.2,0-.4,0-.6,0-1,0-2-.3-2.9-.6-1.3-.4-2.5-.9-3.7-1.6-.2,0-.3-.2-.4-.4-1-1.4-1.7-3-2.1-4.7-.2-.8-.3-1.6-.4-2.4,0-.8,0-1.6,0-2.4,0-.9.2-1.8.4-2.7,0,0,0,0,0-.1,0-.1.2-.2.3-.2.1,0,.2,0,.3.2,0,.1,0,.2,0,.4.4,1.9,1.1,3.7,2.2,5.4.2.2.3.5.5.7,0,0,0,0,0,.1,0,0,0-.1,0-.2-.4-.6-.7-1.3-1-1.9-.5-1.2-.8-2.4-1-3.6-.2-1.1-.2-2.2-.2-3.3,0-.3,0-.6,0-.9,0-.1,0-.3.1-.4,1.9-3.2,4.6-5.4,8.1-6.6,0,0,.1,0,.2,0,.1,0,.2,0,.3.1,0,.1,0,.2,0,.4,0,0,0,0,0,0-.9.9-1.5,1.9-2,3-.5,1.1-.9,2.3-1.1,3.5-.2,1.2-.3,2.5-.3,3.7,0,1.2.2,2.4.5,3.5.3,1.1.7,2.2,1.3,3.3.5.8,1,1.5,1.7,2.2.6.6,1.4,1.2,2.2,1.5.7.3,1.4.5,2.2.5.9,0,1.7-.2,2.5-.6.8-.4,1.6-1,2.2-1.6.7-.8,1.3-1.7,1.8-2.6.5-1.1.9-2.1,1.1-3.3.3-1.3.4-2.6.4-3.9,0-.6,0-1.2-.1-1.8-.3-2-.9-3.9-2-5.7-.4-.6-.8-1.1-1.3-1.6,0,0,0,0-.1-.1,0-.1,0-.2,0-.4,0-.1.2-.2.3-.1,0,0,.1,0,.2,0,1.6.5,3.1,1.3,4.4,2.4,1.5,1.2,2.8,2.6,3.7,4.2,0,.1.1.2.1.4,0,.4,0,.8.1,1.3,0,.6,0,1.2,0,1.9-.2,1.9-.7,3.7-1.5,5.4-.2.4-.4.8-.6,1.2,0,0,0,.1,0,.2,0,0,0,0,0,.1,0,0,0,0,0-.1h0Z"/><path class="cls-4" d="m204.7,242.3c-2.9,1.4-4.9,2.5-6.1,3.4-6.2-6.6-12.9-15.7-19.9-27.1l-8.3,20.5c-1.3-.9-3.1-2.1-5.6-3.6,7.1-16.1,11.4-26.4,13.1-30.8-1.1.2-2.9.6-5.3,1.2-.6-2.1-1.3-4.1-2.2-6,6.1-1.4,11.6-2.1,16.4-2.1,9.3,0,14,2.6,14,7.7s-1.8,5.5-5.4,7.9c-2.7,1.9-6.1,3.4-10.1,4.5,2.2,3.7,5.4,8.1,9.4,13.2,4.2,5.3,7.6,9.1,10,11.2h0Zm-11.1-36.5c0-1.5-2-2.3-6-2.3s-2.1,0-2.5.1c-.5,1-1.9,4.1-4,9.2,3.3-.8,6.1-1.8,8.4-2.9,2.7-1.4,4.1-2.8,4.1-4.1Z"/><path class="cls-4" d="m220.2,211.5c-3.8,8.1-7.7,17.3-11.8,27.6-1.1-.9-2.8-2-5-3.1,1.2-2.6,3.3-7.3,6.1-14,2.9-6.9,4.8-11.5,5.7-13.8,1.3,1.1,3,2.2,5,3.3h0Zm3.7-9.3c-.7,1.6-1.6,4-2.8,7.2-2.1-1.6-3.8-2.6-5-3.1,1.3-2.8,2.3-5.2,3-7.5,1,.8,2.6,1.9,4.9,3.4h0Z"/><path class="cls-4" d="m250.9,213.2c0,1.4-.9,2.9-2.7,4.4-1.6,1.4-3.6,2.5-5.9,3.2-.9-.9-2.4-2.1-4.4-3.7,4.3-1.1,6.4-2.1,6.4-3.1s-.5-.6-1.5-.6c-1.7,0-4.3.4-7.8,1.1-4.2.9-6.3,1.9-6.3,3s.4.8,1.1,1c2.2.5,4.4,1.1,6.6,1.7,2.6.7,4.6,1.3,5.9,1.9,3.3,1.4,5,3.4,5,6.1s-2.3,6.7-6.9,8.8c-3.9,1.8-8.5,2.7-13.8,2.7-7.9,0-11.9-1.8-11.9-5.3s1.7-4.4,5-6.1c2.7-1.4,6-2.4,9.9-3,.7,1.1,1.9,2.6,3.7,4.4-2.5.3-5,.8-7.3,1.5-2.6.8-4,1.6-4,2.4s1.1.8,3.3.8c3.6,0,7-.5,10.1-1.4,3.6-1.1,5.3-2.4,5.3-3.9s-1-1.9-3-2.7c-.8-.3-3-.9-6.6-1.8s-6-1.7-7.2-2.4c-1.7-1-2.5-2.3-2.5-4,0-2.7,2.3-5.1,6.9-7.1,4.2-1.8,8.7-2.7,13.5-2.7s9,1.6,9,4.9h0Z"/><path class="cls-4" d="m277.2,213.2c0,3.1-1.7,6.1-5.1,8.9-3,2.5-6.6,4.4-10.8,5.5l-1.3-4c-1.8,2.8-2.7,5.4-2.7,7.7s.7,3.1,2.1,3.1,2.6-.7,4.3-2.2,3.1-3.1,4.2-4.9c1,.8,2.5,1.8,4.4,3-4.6,6.5-9.4,9.8-14.2,9.8s-3.6-.7-4.8-2.2-1.8-3.3-1.8-5.7c0-5.3,2.3-10.6,7-16,4.6-5.3,9-7.9,13.3-7.9s2.9.5,3.9,1.4c1,.9,1.5,2.1,1.5,3.5h0Zm-6.2,1.8c0-.5-.3-.8-.9-.8-1,0-2.4.8-4.3,2.4-2,1.6-3.7,3.5-5.1,5.7,2.6-.8,5-2,7.2-3.6,2-1.5,3.1-2.8,3.1-3.7h0Z"/><path class="cls-4" d="m332.8,201.6c-4.1,8.4-9.5,21-16.2,38-1-1-2.8-2.4-5.4-4.1l6.6-14.7c-6,6.6-13.2,12.9-21.5,18.9-1.5-1.8-3.3-3.4-5.6-4.7,1.3-3,6.3-15.7,14.9-38.1,1.2,1.1,3.1,2.5,5.7,3.9-4.8,11-8.7,20.6-11.7,28.9,7-5.8,13-11.5,18-16.9,3.8-4,7.1-9.1,9.9-15.2,1,.9,2.8,2.2,5.4,4h0Z"/><path class="cls-4" d="m353.4,214.8c0,3.8-2.5,8.3-7.5,13.3-4.3,4.4-9.2,8-14.6,10.8-.5-1.1-1.3-2.7-2.4-4.8-3.2,6.4-5.9,12.8-8.1,19-1.1-.8-2.8-1.9-5.1-3.4,1.9-3.6,5.2-10.5,9.8-20.5,4.9-10.6,8.1-18,9.7-22.1l5.2,2.7-2.9,5.3c3.9-3.6,7.4-5.4,10.7-5.4s2.7.5,3.7,1.4c1,.9,1.5,2.1,1.5,3.7h0Zm-6.7,2.3c0-.8-.4-1.2-1.2-1.2s-1,.2-1.7.5c-2.5,1.3-5.2,3.7-8,7s-5,6.7-6.6,10.2c8.5-5.1,14.2-10.1,16.9-14.8.4-.7.6-1.2.6-1.7h0Z"/><path class="cls-20" d="m204.7,242.3c-2.9,1.4-4.9,2.5-6.1,3.4-6.2-6.6-12.9-15.7-19.9-27.1l-8.3,20.5c-1.3-.9-3.1-2.1-5.6-3.6,7.1-16.1,11.4-26.4,13.1-30.8-1.1.2-2.9.6-5.3,1.2-.6-2.1-1.3-4.1-2.2-6,6.1-1.4,11.6-2.1,16.4-2.1,9.3,0,14,2.6,14,7.7s-1.8,5.5-5.4,7.9c-2.7,1.9-6.1,3.4-10.1,4.5,2.2,3.7,5.4,8.1,9.4,13.2,4.2,5.3,7.6,9.1,10,11.2h0Zm-11.1-36.5c0-1.5-2-2.3-6-2.3s-2.1,0-2.5.1c-.5,1-1.9,4.1-4,9.2,3.3-.8,6.1-1.8,8.4-2.9,2.7-1.4,4.1-2.8,4.1-4.1Z"/><path class="cls-20" d="m220.2,211.5c-3.8,8.1-7.7,17.3-11.8,27.6-1.1-.9-2.8-2-5-3.1,1.2-2.6,3.3-7.3,6.1-14,2.9-6.9,4.8-11.5,5.7-13.8,1.3,1.1,3,2.2,5,3.3h0Zm3.7-9.3c-.7,1.6-1.6,4-2.8,7.2-2.1-1.6-3.8-2.6-5-3.1,1.3-2.8,2.3-5.2,3-7.5,1,.8,2.6,1.9,4.9,3.4h0Z"/><path class="cls-20" d="m250.9,213.2c0,1.4-.9,2.9-2.7,4.4-1.6,1.4-3.6,2.5-5.9,3.2-.9-.9-2.4-2.1-4.4-3.7,4.3-1.1,6.4-2.1,6.4-3.1s-.5-.6-1.5-.6c-1.7,0-4.3.4-7.8,1.1-4.2.9-6.3,1.9-6.3,3s.4.8,1.1,1c2.2.5,4.4,1.1,6.6,1.7,2.6.7,4.6,1.3,5.9,1.9,3.3,1.4,5,3.4,5,6.1s-2.3,6.7-6.9,8.8c-3.9,1.8-8.5,2.7-13.8,2.7-7.9,0-11.9-1.8-11.9-5.3s1.7-4.4,5-6.1c2.7-1.4,6-2.4,9.9-3,.7,1.1,1.9,2.6,3.7,4.4-2.5.3-5,.8-7.3,1.5-2.6.8-4,1.6-4,2.4s1.1.8,3.3.8c3.6,0,7-.5,10.1-1.4,3.6-1.1,5.3-2.4,5.3-3.9s-1-1.9-3-2.7c-.8-.3-3-.9-6.6-1.8s-6-1.7-7.2-2.4c-1.7-1-2.5-2.3-2.5-4,0-2.7,2.3-5.1,6.9-7.1,4.2-1.8,8.7-2.7,13.5-2.7s9,1.6,9,4.9h0Z"/><path class="cls-20" d="m277.2,213.2c0,3.1-1.7,6.1-5.1,8.9-3,2.5-6.6,4.4-10.8,5.5l-1.3-4c-1.8,2.8-2.7,5.4-2.7,7.7s.7,3.1,2.1,3.1,2.6-.7,4.3-2.2,3.1-3.1,4.2-4.9c1,.8,2.5,1.8,4.4,3-4.6,6.5-9.4,9.8-14.2,9.8s-3.6-.7-4.8-2.2-1.8-3.3-1.8-5.7c0-5.3,2.3-10.6,7-16,4.6-5.3,9-7.9,13.3-7.9s2.9.5,3.9,1.4c1,.9,1.5,2.1,1.5,3.5h0Zm-6.2,1.8c0-.5-.3-.8-.9-.8-1,0-2.4.8-4.3,2.4-2,1.6-3.7,3.5-5.1,5.7,2.6-.8,5-2,7.2-3.6,2-1.5,3.1-2.8,3.1-3.7h0Z"/><path class="cls-20" d="m332.8,201.6c-4.1,8.4-9.5,21-16.2,38-1-1-2.8-2.4-5.4-4.1l6.6-14.7c-6,6.6-13.2,12.9-21.5,18.9-1.5-1.8-3.3-3.4-5.6-4.7,1.3-3,6.3-15.7,14.9-38.1,1.2,1.1,3.1,2.5,5.7,3.9-4.8,11-8.7,20.6-11.7,28.9,7-5.8,13-11.5,18-16.9,3.8-4,7.1-9.1,9.9-15.2,1,.9,2.8,2.2,5.4,4h0Z"/><path class="cls-20" d="m353.4,214.8c0,3.8-2.5,8.3-7.5,13.3-4.3,4.4-9.2,8-14.6,10.8-.5-1.1-1.3-2.7-2.4-4.8-3.2,6.4-5.9,12.8-8.1,19-1.1-.8-2.8-1.9-5.1-3.4,1.9-3.6,5.2-10.5,9.8-20.5,4.9-10.6,8.1-18,9.7-22.1l5.2,2.7-2.9,5.3c3.9-3.6,7.4-5.4,10.7-5.4s2.7.5,3.7,1.4c1,.9,1.5,2.1,1.5,3.7h0Zm-6.7,2.3c0-.8-.4-1.2-1.2-1.2s-1,.2-1.7.5c-2.5,1.3-5.2,3.7-8,7s-5,6.7-6.6,10.2c8.5-5.1,14.2-10.1,16.9-14.8.4-.7.6-1.2.6-1.7h0Z"/><path class="cls-20" d="m204.7,242.3c-2.9,1.4-4.9,2.5-6.1,3.4-6.2-6.6-12.9-15.7-19.9-27.1l-8.3,20.5c-1.3-.9-3.1-2.1-5.6-3.6,7.1-16.1,11.4-26.4,13.1-30.8-1.1.2-2.9.6-5.3,1.2-.6-2.1-1.3-4.1-2.2-6,6.1-1.4,11.6-2.1,16.4-2.1,9.3,0,14,2.6,14,7.7s-1.8,5.5-5.4,7.9c-2.7,1.9-6.1,3.4-10.1,4.5,2.2,3.7,5.4,8.1,9.4,13.2,4.2,5.3,7.6,9.1,10,11.2h0Zm-11.1-36.5c0-1.5-2-2.3-6-2.3s-2.1,0-2.5.1c-.5,1-1.9,4.1-4,9.2,3.3-.8,6.1-1.8,8.4-2.9,2.7-1.4,4.1-2.8,4.1-4.1Z"/><path class="cls-20" d="m220.2,211.5c-3.8,8.1-7.7,17.3-11.8,27.6-1.1-.9-2.8-2-5-3.1,1.2-2.6,3.3-7.3,6.1-14,2.9-6.9,4.8-11.5,5.7-13.8,1.3,1.1,3,2.2,5,3.3h0Zm3.7-9.3c-.7,1.6-1.6,4-2.8,7.2-2.1-1.6-3.8-2.6-5-3.1,1.3-2.8,2.3-5.2,3-7.5,1,.8,2.6,1.9,4.9,3.4h0Z"/><path class="cls-20" d="m250.9,213.2c0,1.4-.9,2.9-2.7,4.4-1.6,1.4-3.6,2.5-5.9,3.2-.9-.9-2.4-2.1-4.4-3.7,4.3-1.1,6.4-2.1,6.4-3.1s-.5-.6-1.5-.6c-1.7,0-4.3.4-7.8,1.1-4.2.9-6.3,1.9-6.3,3s.4.8,1.1,1c2.2.5,4.4,1.1,6.6,1.7,2.6.7,4.6,1.3,5.9,1.9,3.3,1.4,5,3.4,5,6.1s-2.3,6.7-6.9,8.8c-3.9,1.8-8.5,2.7-13.8,2.7-7.9,0-11.9-1.8-11.9-5.3s1.7-4.4,5-6.1c2.7-1.4,6-2.4,9.9-3,.7,1.1,1.9,2.6,3.7,4.4-2.5.3-5,.8-7.3,1.5-2.6.8-4,1.6-4,2.4s1.1.8,3.3.8c3.6,0,7-.5,10.1-1.4,3.6-1.1,5.3-2.4,5.3-3.9s-1-1.9-3-2.7c-.8-.3-3-.9-6.6-1.8s-6-1.7-7.2-2.4c-1.7-1-2.5-2.3-2.5-4,0-2.7,2.3-5.1,6.9-7.1,4.2-1.8,8.7-2.7,13.5-2.7s9,1.6,9,4.9h0Z"/><path class="cls-20" d="m277.2,213.2c0,3.1-1.7,6.1-5.1,8.9-3,2.5-6.6,4.4-10.8,5.5l-1.3-4c-1.8,2.8-2.7,5.4-2.7,7.7s.7,3.1,2.1,3.1,2.6-.7,4.3-2.2,3.1-3.1,4.2-4.9c1,.8,2.5,1.8,4.4,3-4.6,6.5-9.4,9.8-14.2,9.8s-3.6-.7-4.8-2.2-1.8-3.3-1.8-5.7c0-5.3,2.3-10.6,7-16,4.6-5.3,9-7.9,13.3-7.9s2.9.5,3.9,1.4c1,.9,1.5,2.1,1.5,3.5h0Zm-6.2,1.8c0-.5-.3-.8-.9-.8-1,0-2.4.8-4.3,2.4-2,1.6-3.7,3.5-5.1,5.7,2.6-.8,5-2,7.2-3.6,2-1.5,3.1-2.8,3.1-3.7h0Z"/><path class="cls-20" d="m332.8,201.6c-4.1,8.4-9.5,21-16.2,38-1-1-2.8-2.4-5.4-4.1l6.6-14.7c-6,6.6-13.2,12.9-21.5,18.9-1.5-1.8-3.3-3.4-5.6-4.7,1.3-3,6.3-15.7,14.9-38.1,1.2,1.1,3.1,2.5,5.7,3.9-4.8,11-8.7,20.6-11.7,28.9,7-5.8,13-11.5,18-16.9,3.8-4,7.1-9.1,9.9-15.2,1,.9,2.8,2.2,5.4,4h0Z"/><path class="cls-20" d="m353.4,214.8c0,3.8-2.5,8.3-7.5,13.3-4.3,4.4-9.2,8-14.6,10.8-.5-1.1-1.3-2.7-2.4-4.8-3.2,6.4-5.9,12.8-8.1,19-1.1-.8-2.8-1.9-5.1-3.4,1.9-3.6,5.2-10.5,9.8-20.5,4.9-10.6,8.1-18,9.7-22.1l5.2,2.7-2.9,5.3c3.9-3.6,7.4-5.4,10.7-5.4s2.7.5,3.7,1.4c1,.9,1.5,2.1,1.5,3.7h0Zm-6.7,2.3c0-.8-.4-1.2-1.2-1.2s-1,.2-1.7.5c-2.5,1.3-5.2,3.7-8,7s-5,6.7-6.6,10.2c8.5-5.1,14.2-10.1,16.9-14.8.4-.7.6-1.2.6-1.7h0Z"/><polygon class="cls-4" points="288.4 206.3 290 218.1 301.7 220.2 290.9 225.3 292.5 237.1 284.3 228.5 273.6 233.7 279.2 223.2 271 214.6 282.7 216.7 288.4 206.3"/><polygon class="cls-18" points="288.4 206.3 290 218.1 301.7 220.2 290.9 225.3 292.5 237.1 284.3 228.5 273.6 233.7 279.2 223.2 271 214.6 282.7 216.7 288.4 206.3"/></svg>