<?xml version="1.0" encoding="UTF-8"?><svg id="Primary_Color" xmlns="http://www.w3.org/2000/svg" xmlns:xlink="http://www.w3.org/1999/xlink" viewBox="0 0 518.7 743.8"><defs><style>.cls-1{stroke-width:3.8px;}.cls-1,.cls-2,.cls-3,.cls-4,.cls-5,.cls-6,.cls-7,.cls-8,.cls-9,.cls-10,.cls-11,.cls-12{fill:none;}.cls-1,.cls-2,.cls-7,.cls-9{stroke:#d3d3d3;}.cls-1,.cls-10,.cls-12{stroke-linejoin:round;}.cls-2{stroke-width:3px;}.cls-2,.cls-3,.cls-5,.cls-6,.cls-7,.cls-8,.cls-11{stroke-miterlimit:10;}.cls-3{stroke-width:.3px;}.cls-3,.cls-5,.cls-6,.cls-8,.cls-10,.cls-11,.cls-12{stroke:#000;}.cls-13{clip-path:url(#clippath);}.cls-4,.cls-14,.cls-15,.cls-16,.cls-17,.cls-18,.cls-19,.cls-20{stroke-width:0px;}.cls-5,.cls-10{stroke-width:.4px;}.cls-21{clip-path:url(#clippath-1);}.cls-22{clip-path:url(#clippath-4);}.cls-23{clip-path:url(#clippath-3);}.cls-24{clip-path:url(#clippath-2);}.cls-25{clip-path:url(#clippath-6);}.cls-26{clip-path:url(#clippath-5);}.cls-6,.cls-8{stroke-dasharray:0 0 0 .2;}.cls-6,.cls-11{stroke-width:0px;}.cls-7{stroke-width:2px;}.cls-8{stroke-width:.1px;}.cls-9{stroke-linecap:square;stroke-linejoin:bevel;stroke-width:4.3px;}.cls-14{isolation:isolate;opacity:.3;}.cls-10,.cls-12{stroke-linecap:round;}.cls-15{fill:gray;}.cls-16{fill:#d3d3d3;}.cls-17{fill:#a9a9a9;}.cls-18{fill:#cdd6db;}.cls-19{fill:#e6e7e8;}.cls-20{fill:#010101;}.cls-12{stroke-width:.6px;}</style><clipPath id="clippath"><path class="cls-4" d="m450.2,263l-.5.6c0,0,0,.2,0,.3v388.3h-.4c-1.8-9.3-5.5-26.3-9.8-34.3-6.1-11.4-9-22.2-9.7-28.4v-.2s5-.2,5-.2c.4,0,.7-.3.6-.7,0-.4-.3-.7-.7-.7l-7.1.2c-.4,0-.7.3-.6.7,0,.4.3.7.7.7h1.7c0,0,0,.2,0,.2.7,6.3,3.6,17.1,9.8,28.7,1.5,2.8,3,6.8,4.6,12.1v.4c.1,0-.2-.1-.2-.1l-15,47.6h-.1c-63.8,13.6-122.2,17.8-169.9,17.8s-47.4-1.2-66-2.8c-55.6-4.7-90.5-14-94.3-15h-.1s-15-47.7-15-47.7h-.4c0,.1.1-.3.1-.3,1.6-5.3,3.1-9.3,4.6-12.1,6.1-11.5,9.1-22.4,9.8-28.7v-.2s1.1,0,1.1,0c.4,0,.7-.3.7-.7,0-.4-.3-.7-.6-.7l-7.1-.2h0c-.4,0-.7.3-.7.7,0,.4.3.7.7.7l5.6.2v.2c-.7,6.2-3.6,17-9.7,28.4-4.7,8.8-8.8,28.6-10.3,36.7h-.4c.2-257.9.2-389.6,0-391.2l-.2-.3h.4s1.7,0,1.7,0c9.9,0,43.9-2.3,66.2-31.9,25.5-33.8,27.2-90.3,5-168.1l-1-2.7.6.4c.1,0,.2,0,.4,0l23.7-7.5,3.6-1.2h.1s.2,0,.2,0h.2c0,0,2.3-.8,2.3-.8h0l.5-.2v.3h6.9c0,0,.6,0,.6,0h.9s.4,0,.4,0h2.9s5.2,0,5.2,0h2.9c20.4,9.7,42.8,14.8,65.5,14.8s43.1-4.6,62.8-13.5h2.9s5.3,0,5.3,0h2.9s2.7,0,2.7,0h1.6s6.8,0,6.8,0v-2.3c.1,0,1,.2,1,.2h.2c0,0,.2.1.2.1l1.2.4h.2c0,0,.2.1.2.1l.6,2.4v-2.2c0,0,3.3,1.5,3.3,1.5h0s20.4,7.6,20.4,7.6h.4v.5c-23,79-21.5,136.4,4.4,170.4,22.2,29.2,56,31.5,65.8,31.5h2.1s0,0,0,0Z"/></clipPath><clipPath id="clippath-1"><path class="cls-4" d="m451.7,249.4c-24.7-.5-43.4-9.4-55.5-26.2-14.5-20.3-19.7-51.9-15.2-94,3.4-32.3,11.4-59.4,12.9-64.5l.2-.8-14.4-4.9-.8,2.1c-23,79.4-21.7,136.7,4.3,170.9,22.2,29.1,55.2,31.7,66.2,31.7h3.1v-14.2h-.9s0,0,0,0Z"/></clipPath><clipPath id="clippath-2"><path class="cls-4" d="m76.1,249.4c24.7-.5,43.4-9.4,55.5-26.2,14.6-20.3,19.7-51.9,15.2-94-3.4-32.3-11.4-59.4-12.9-64.5l-.2-.8,14.4-4.9.8,2.1c23,79.4,21.7,136.7-4.3,170.9-22.2,29.1-55.2,31.7-66.2,31.7h-3.1v-14.2h.9s0,0,0,0Z"/></clipPath><clipPath id="clippath-3"><path class="cls-4" d="m351,51.9c-4.2,107.4-84.9,101-84.9,101-84.8-4.1-85.7-102.9-85.7-102.9l.5-1.5,14.2-2.9s.2,27.3,13.5,54.3c0,0,17.1,36.4,54.6,38.6,0,0,40.2,5,61-40.2,6.4-13.8,11.9-30.6,12.5-52.1l13.4,4.4.8,1.3h0Z"/></clipPath><clipPath id="clippath-4"><path class="cls-4" d="m196.3,48.5c1.6,3.9,5.4,11.2,12.2,17l.3.3-8.5,11.7-.2-.9c-2.4-8.8-4.2-17.9-4.6-27.9v-2.5c-.1,0,.9,2.4.9,2.4h0Z"/></clipPath><clipPath id="clippath-5"><path class="cls-4" d="m335.6,48.8c-1.6,3.9-5.4,11.3-12.2,17.1l-.3.3,8.8,12.1.2-.9c2.4-8.8,3.9-18.3,4.4-28.4v-2.6c.1,0-.9,2.4-.9,2.4h0Z"/></clipPath><clipPath id="clippath-6"><path class="cls-4" d="m323,66.1l-.4.2c-17,9.8-35.6,14.8-55.1,14.8-31.8,0-55.9-13.2-58.5-14.8l-.3-.2-7.2,9.5.4.3c1.7,1,17.1,9.7,39.4,14.1,7.5,1.5,16.3,2.6,26.1,2.6,18.4,0,40.1-3.9,62.2-16.6l.4-.2-7-9.7h0Z"/></clipPath></defs><path class="cls-15" d="m452.2,261.1h-1.3c-.2,0-.5,0-.8,0-9.8,0-43.7-2.3-66-31.6-26-34.1-27.5-91.7-4.5-171l.2-.5h-.4l-27.2-7.8h-.3c0,0,0,.2,0,.2-1.6,36.7-12.2,64-31.6,81.2-20.1,17.9-44.2,19.2-51.1,19.2s-2.3,0-2.4,0c-43.9-2.1-64.9-30.1-74.8-53.1-9.6-22.5-10.9-44.9-11-49.2v-.3l-30.8,9.8c-.1,0-.3,0-.4,0l-.6-.4,1,2.8c22.2,78,20.6,134.8-5.1,168.7-22.4,29.7-56.6,32.1-66.5,32.1h-1.7s-.4,0-.4,0l.2.3c.3,1.7.3,133.8,0,392.6h.4c1.5-8.1,5.6-28,10.3-36.8,6.1-11.5,9-22.3,9.7-28.5v-.2s-5.6-.2-5.6-.2c-.4,0-.7-.3-.6-.7,0-.3.3-.7.7-.7h0l7.1.2c.4,0,.7.3.6.7,0,.4-.3.7-.7.7h-1.1s0,.2,0,.2c-.7,6.3-3.6,17.2-9.8,28.8-1.5,2.8-3,6.9-4.6,12.2v.4c-.1,0,.2-.1.2-.1l15,47.8h.1c3.8,1.1,38.8,10.4,94.7,15.1,18.6,1.6,41,2.8,66.2,2.8,48,0,106.5-4.2,170.6-17.9h.1s15-47.9,15-47.9h.4c0,.1-.1-.3-.1-.3-1.6-5.3-3.1-9.4-4.6-12.2-6.2-11.6-9.1-22.5-9.8-28.8v-.2s-1.7,0-1.7,0c-.4,0-.7-.3-.7-.7,0-.4.3-.7.6-.7l7.1-.2c.4,0,.7.3.7.7,0,.4-.3.7-.6.7l-5,.2v.2c.7,6.3,3.6,17.1,9.8,28.5,4.3,8.1,8,25.1,9.9,34.5h.5v-389.7c0,0,0-.2,0-.3l.5-.6h0Z"/><g class="cls-13"><rect class="cls-16" x="43.9" y="242.4" width="54" height="452.9"/><polygon class="cls-18" points="97.9 337.9 44.9 385.2 44.9 337.9 97.9 290.6 97.9 337.9"/><polygon class="cls-18" points="97.9 405.5 44.9 452.8 44.9 405.5 97.9 358.2 97.9 405.5"/><rect class="cls-17" x="97.9" y="242.4" width="8.5" height="452.2"/><rect class="cls-16" x="432.4" y="242.4" width="54" height="452.9"/><polygon class="cls-18" points="432.4 337.9 485.4 385.2 485.4 337.9 432.4 290.6 432.4 337.9"/><polygon class="cls-18" points="432.4 405.5 485.4 452.8 485.4 405.5 432.4 358.2 432.4 405.5"/><rect class="cls-17" x="424" y="242.4" width="8.5" height="452.2"/></g><g id="R"><g class="cls-21"><path class="cls-16" d="m451.7,249.4c-24.7-.5-43.4-9.4-55.5-26.2-14.5-20.3-19.7-51.9-15.2-94,3.4-32.3,11.4-59.4,12.9-64.5l.2-.8-14.4-4.9-.8,2.1c-23,79.4-21.7,136.7,4.3,170.9,22.2,29.1,55.2,31.7,66.2,31.7h3.1v-14.2h-.9s0,0,0,0Z"/><path class="cls-20" d="m461.8,245.8c-25.3-.5-44.5-9.1-56.9-25.7-14.9-19.9-20.2-50.8-15.6-92.1,3.5-31.6,11.6-58.2,13.2-63.2l.3-.8-14.8-4.8-.8,2c-23.6,77.8-21.5,135.6,5.2,169.1,22.7,28.5,55.9,26.2,67.1,26.2s.6,1.5.9,1.5l2.3-1.6v-10.7h-.9Z"/></g></g><g id="L"><g class="cls-24"><path class="cls-16" d="m76.1,249.4c24.7-.5,43.4-9.4,55.5-26.2,14.6-20.3,19.7-51.9,15.2-94-3.4-32.3-11.4-59.4-12.9-64.5l-.2-.8,14.4-4.9.8,2.1c23,79.4,21.7,136.7-4.3,170.9-22.2,29.1-55.2,31.7-66.2,31.7h-3.1v-14.2h.9s0,0,0,0Z"/><path class="cls-20" d="m66.1,244.2c25.3-.5,44.5-9.1,56.9-25.7,14.9-19.9,20.2-50.8,15.6-92.1-3.5-31.6-11.6-58.2-13.2-63.2l-.3-.8,14.8-4.8.8,2c23.6,77.8,22.2,136.3-4.4,169.8-22.7,28.5-56.6,27.1-67.8,27.1h-.9l-2.3-1.6v-10.7h.9s0,0,0,0Z"/></g></g><g id="front"><g class="cls-23"><path class="cls-16" d="m351,51.9c-4.2,107.4-84.9,101-84.9,101-84.8-4.1-85.7-102.9-85.7-102.9l.5-1.5,14.2-2.9s.2,27.3,13.5,54.3c0,0,17.1,36.4,54.6,38.6,0,0,40.2,5,61-40.2,6.4-13.8,11.9-30.6,12.5-52.1l13.4,4.4.8,1.3h0Z"/><path class="cls-20" d="m345.1,43.5c-3.9,109.2-78.9,102.7-78.9,102.7-78.8-4.2-79.7-104.7-79.7-104.7l.5-1.6,13.2-3s.2,27.8,12.6,55.3c0,0,15.9,37,50.8,39.3,0,0,37.4,5.1,56.7-40.9,5.9-14.1,11-31.1,11.6-52.9l12.5,4.4.7,1.3h0Z"/></g></g><g id="L_back"><g class="cls-22"><path class="cls-16" d="m196.3,48.5c1.6,3.9,5.4,11.2,12.2,17l.3.3-8.8,12.1-.2-.9c-2.4-8.8-3.9-18.2-4.4-28.2v-2.5c-.1,0,.9,2.4.9,2.4h0Z"/><path class="cls-20" d="m205.4,71.8c-6.6-3.4-11.6-11.2-15.6-18.4v-10.5l31,16.3-15.4,12.6h0Z"/></g></g><g id="R_back"><g class="cls-26"><path class="cls-16" d="m335.6,48.8c-1.6,3.9-5.4,11.3-12.2,17.1l-.3.3,8.8,12.1.2-.9c2.4-8.8,3.9-18.3,4.4-28.4v-2.6c.1,0-.9,2.4-.9,2.4h0Z"/><path class="cls-20" d="m326.5,72.2c6.6-3.4,11.7-11.3,15.7-18.5v-10.6l-31.1,16.4,15.4,12.6Z"/></g></g><g id="back"><g class="cls-25"><path class="cls-16" d="m323,66.1l-.4.2c-17,9.8-35.6,14.8-55.1,14.8-31.8,0-55.9-13.2-58.5-14.8l-.3-.2-7.2,9.5.4.3c1.7,1,17.1,9.7,39.4,14.1,7.5,1.5,16.3,2.6,26.1,2.6,18.4,0,40.1-3.9,62.2-16.6l.4-.2-7-9.7h0Z"/><path class="cls-20" d="m322.6,60.7l-.4.2c-16.9,9.8-35.3,14.8-54.7,14.8-31.6,0-55.5-13.2-58.1-14.8l-.3-.2-7.2,9.5.4.3c1.7,1,17,9.7,39.1,14.1,7.5,1.5,16.2,2.6,25.9,2.6,18.3,0,39.9-3.9,61.8-16.6l.4-.2-7-9.7h0Z"/></g></g><path class="cls-19" d="m451.3,658.8c-.8-4.4-2.9-15.8-5.8-25.7,0-.2-.2-.3-.4-.3h0c-.2,0-.4.1-.4.3l-14.8,47.1h0c-55.8,11.9-113.3,18-170.9,18s-44.8-.9-66.3-2.8c-58.2-5-94.6-15.1-94.9-15.2l-14.8-47.1c0-.2-.2-.3-.4-.3h0c-.2,0-.4.1-.4.3-3.4,11.9-5.8,26-6.1,27.9,0,0,0,.2,0,.3v21.7s0,0,0,0c.1.8.9,4.9,3.4,8,0,0,.1.1.2.1,4,1.5,40.5,14.4,100.9,21,20.1,2.2,44.2,3.8,71.6,3.8,52.3,0,116.7-5.9,188.6-24.9l7.4-1.7c.1,0,.2,0,.2-.2,2.5-3.2,3-7.5,3-7.6h0v-22.9h0Z"/><path class="cls-19" d="m329.9,76.2h-.2c-19.2,11.2-40.2,16.8-62.4,16.8s-17.5-.9-26.2-2.6c-22.5-4.5-37.8-13.2-39.5-14.2h-.2c0-.1-.9,1-.9,1h0c2.2,8.1,5.1,15.6,8.4,22.5.2.4,17.5,36.2,54.3,38.4.1,0,1.3.1,3.3.1,10,0,39.8-3.2,56.8-39.1h0s.4-.9.4-.9c3.1-6.7,5.5-13.2,7.5-19.9h0c0-.1-1.5-2.1-1.5-2.1h0Z"/><path class="cls-3" d="m75.3,263.1h2.7c18.6,0,126.2-8.1,71.3-200.4l-1.4-3.8"/><path class="cls-3" d="m379.8,59.2l-.5,1.6c-56.9,196.6,54.3,202.5,71.1,202.3h2.1"/><path class="cls-5" d="m195.2,45.5s3.6,12.1,13.7,20.5c0,0,55.8,33.8,114,0,10.1-8.4,13.9-19.7,13.9-19.7"/><path class="cls-3" d="m201.7,75.8s62.8,38.1,128.4,0"/><line class="cls-3" x1="200.3" y1="77.3" x2="208.8" y2="66"/><line class="cls-6" x1="199.8" y1="76" x2="208.1" y2="65.1"/><line class="cls-3" x1="322.9" y1="66" x2="332.1" y2="78.7"/><line class="cls-6" x1="323.7" y1="65.4" x2="332.6" y2="77.6"/><path class="cls-3" d="m76.1,661.1s4.9-29.9,11.1-41.5,9.3-23.1,9.9-29.6"/><path class="cls-3" d="m82.8,632l15.1,48.2s142.4,40.5,332.1,0l15.1-48.2"/><path class="cls-3" d="m451.8,661.1s-4.9-29.9-11.1-41.5-9.3-23.1-9.9-29.6"/><line class="cls-6" x1="83.5" y1="629.4" x2="100.1" y2="680.6"/><line class="cls-6" x1="444.5" y1="629.4" x2="427.9" y2="680.6"/><path class="cls-8" d="m431.9,674.3c-57.5,13.5-112.5,17.6-162.8,17.6-99.9,0-172.3-17.5-173.4-17.7"/><path class="cls-8" d="m95.2,670.4c1.6.4,167.1,40.1,337.8,0"/><path class="cls-6" d="m451.9,261.6h-2.6c-18.1,0-122.9-8-69.5-197.6l1.3-3.7"/><path class="cls-11" d="m77.3,682.7c-.2.5-.5.8-.7.7-.2,0-.3-.5-.1-1,.2-.5.5-.8.7-.7.2,0,.3.5.1,1Z"/><path class="cls-11" d="m77,683.7c-.2.5-.5.8-.7.7-.2,0-.3-.5-.1-1,.2-.5.5-.8.7-.7.2,0,.3.5.1,1h0Z"/><path class="cls-11" d="m78.5,683.1c-.2.5-.5.8-.7.7s-.3-.5-.1-1,.5-.8.7-.7c.2,0,.3.5.1,1h0Z"/><path class="cls-11" d="m78.2,684.1c-.2.5-.5.8-.7.7s-.3-.5-.1-1c.2-.5.5-.8.7-.7.2,0,.3.5.1,1h0Z"/><path class="cls-11" d="m79.8,683.5c-.1.5-.5.8-.7.7s-.3-.5-.2-1c.2-.5.5-.8.7-.7.2,0,.3.5.1,1Z"/><path class="cls-11" d="m79.4,684.5c-.2.5-.5.8-.7.7s-.3-.5-.2-1c.2-.5.5-.8.7-.7.2,0,.3.5.2,1Z"/><path class="cls-11" d="m81,683.9c-.1.5-.5.8-.7.7s-.3-.5-.1-1c.1-.5.5-.8.7-.7.2,0,.3.5.1,1h0Z"/><path class="cls-11" d="m80.7,684.9c-.1.5-.5.8-.7.7-.2,0-.3-.5-.1-1,.1-.5.5-.8.7-.7.2,0,.3.5.2,1h0Z"/><path class="cls-11" d="m82.2,684.3c-.1.5-.5.8-.7.7-.2,0-.3-.5-.2-1s.5-.8.7-.7c.2,0,.3.5.2,1Z"/><path class="cls-11" d="m81.9,685.3c-.1.5-.5.8-.7.7-.2,0-.3-.5-.2-1s.5-.8.7-.7c.2,0,.3.5.2,1Z"/><path class="cls-11" d="m83.5,684.7c-.1.5-.5.8-.7.7s-.3-.5-.2-1,.5-.8.7-.7c.2,0,.3.5.2,1Z"/><path class="cls-11" d="m83.1,685.7c-.1.5-.5.8-.7.7-.2,0-.3-.5-.2-1s.5-.8.7-.7c.2,0,.3.5.2,1Z"/><path class="cls-11" d="m84.7,685c-.1.5-.5.8-.7.7-.2,0-.3-.5-.2-1,.1-.5.5-.8.7-.7.2,0,.3.5.2,1Z"/><path class="cls-11" d="m84.4,686.1c-.1.5-.5.8-.7.7-.2,0-.3-.5-.2-1,.1-.5.5-.8.7-.7.2,0,.3.5.2,1Z"/><path class="cls-11" d="m85.9,685.4c-.1.5-.4.8-.7.7s-.3-.5-.2-1c.1-.5.5-.8.7-.7.2,0,.3.5.2,1Z"/><path class="cls-11" d="m85.6,686.5c-.1.5-.5.8-.7.7-.2,0-.3-.5-.2-1,.1-.5.5-.8.7-.7.2,0,.3.5.2,1Z"/><path class="cls-11" d="m87.2,685.8c-.1.5-.4.8-.7.7s-.3-.5-.2-1c.1-.5.4-.8.7-.7s.3.5.2,1Z"/><path class="cls-11" d="m86.9,686.8c-.1.5-.4.8-.7.7s-.3-.5-.2-1c.1-.5.4-.8.7-.7s.3.5.2,1Z"/><path class="cls-11" d="m88.4,686.2c-.1.5-.4.8-.7.8-.2,0-.3-.5-.2-1,.1-.5.4-.8.7-.7s.3.5.2,1Z"/><path class="cls-11" d="m88.1,687.2c-.1.5-.4.8-.7.8-.2,0-.3-.5-.2-1,.1-.5.4-.8.7-.7s.3.5.2,1Z"/><path class="cls-11" d="m89.6,686.5c-.1.5-.4.8-.7.8-.2,0-.3-.5-.2-1,.1-.5.4-.8.7-.8.2,0,.3.5.2,1Z"/><path class="cls-11" d="m89.3,687.5c-.1.5-.4.8-.7.8-.2,0-.3-.5-.2-1s.4-.8.7-.8c.2,0,.3.5.2,1Z"/><path class="cls-11" d="m90.9,686.9c-.1.5-.4.8-.7.8-.2,0-.3-.5-.2-1,.1-.5.4-.8.7-.8.2,0,.3.5.2,1Z"/><path class="cls-11" d="m90.6,687.9c-.1.5-.4.8-.7.8-.2,0-.3-.5-.2-1,.1-.5.4-.8.7-.8.2,0,.3.5.2,1Z"/><path class="cls-11" d="m92.1,687.2c-.1.5-.4.8-.7.8-.2,0-.3-.5-.2-1,.1-.5.4-.8.7-.8.2,0,.3.5.2,1Z"/><path class="cls-11" d="m91.8,688.3c-.1.5-.4.8-.7.8-.2,0-.3-.5-.2-1s.4-.8.7-.8c.2,0,.3.5.2,1Z"/><path class="cls-11" d="m93.4,687.6c-.1.5-.4.8-.7.8-.2,0-.3-.5-.2-1,.1-.5.4-.8.7-.8.2,0,.3.5.2,1Z"/><path class="cls-11" d="m93.1,688.6c-.1.5-.4.8-.7.8-.2,0-.3-.5-.2-1,.1-.5.4-.8.7-.8.2,0,.3.5.2,1Z"/><path class="cls-11" d="m94.6,687.9c-.1.5-.4.8-.7.8-.2,0-.3-.5-.2-1s.4-.8.7-.8c.2,0,.3.5.2,1Z"/><path class="cls-11" d="m94.3,688.9c-.1.5-.4.8-.7.8-.2,0-.3-.5-.2-1s.4-.8.7-.8c.2,0,.3.5.2,1Z"/><path class="cls-11" d="m95.9,688.2c-.1.5-.4.8-.7.8-.2,0-.3-.5-.2-1s.4-.8.7-.8c.2,0,.3.5.2,1Z"/><path class="cls-11" d="m95.6,689.3c-.1.5-.4.8-.7.8-.2,0-.3-.5-.2-1s.4-.8.7-.8c.2,0,.3.5.2,1h0Z"/><path class="cls-11" d="m97.1,688.6c-.1.5-.4.8-.7.8-.2,0-.3-.5-.2-1s.4-.8.7-.8c.2,0,.3.5.2,1Z"/><path class="cls-11" d="m96.8,689.6c-.1.5-.4.8-.7.8-.2,0-.3-.5-.2-1s.4-.8.7-.8c.2,0,.3.5.2,1Z"/><path class="cls-11" d="m98.4,688.9c-.1.5-.4.8-.7.8-.2,0-.3-.5-.2-1s.4-.8.7-.8c.2,0,.3.5.2,1Z"/><path class="cls-11" d="m98.1,690c-.1.5-.4.8-.7.8-.2,0-.3-.5-.2-1,.1-.5.4-.8.7-.8.2,0,.3.5.2,1Z"/><path class="cls-11" d="m99.6,689.2c-.1.5-.4.8-.7.8-.2,0-.3-.5-.2-1,.1-.5.4-.8.7-.8.2,0,.3.5.2,1Z"/><path class="cls-11" d="m99.3,690.3c-.1.5-.4.8-.7.8-.2,0-.3-.5-.2-1,.1-.5.4-.8.7-.8.2,0,.3.5.2,1Z"/><path class="cls-11" d="m100.9,689.6c-.1.5-.4.8-.7.8-.2,0-.3-.5-.2-1,.1-.5.4-.8.7-.8.2,0,.3.5.2,1Z"/><path class="cls-11" d="m100.6,690.6c-.1.5-.4.8-.7.8-.2,0-.3-.5-.2-1,.1-.5.4-.8.7-.8.2,0,.3.5.2,1Z"/><path class="cls-11" d="m102.1,689.9c-.1.5-.4.8-.7.8s-.3-.5-.2-1c.1-.5.4-.8.7-.8s.3.5.2,1Z"/><path class="cls-11" d="m101.9,690.9c-.1.5-.4.8-.7.8s-.3-.5-.2-1c.1-.5.4-.8.7-.8s.3.5.2,1Z"/><path class="cls-11" d="m103.4,690.2c-.1.5-.4.8-.7.8s-.3-.5-.2-1,.4-.8.7-.8.3.5.2,1Z"/><path class="cls-11" d="m103.1,691.2c-.1.5-.4.8-.7.8s-.3-.5-.2-1,.4-.8.7-.8.3.5.2,1Z"/><path class="cls-11" d="m104.6,690.5c-.1.5-.4.8-.7.8s-.3-.5-.2-1c.1-.5.4-.8.7-.8s.3.5.2,1Z"/><path class="cls-11" d="m104.4,691.6c-.1.5-.4.8-.7.8s-.3-.5-.2-1c.1-.5.4-.8.7-.8s.3.5.2,1Z"/><path class="cls-11" d="m105.9,690.8c-.1.5-.4.8-.7.8-.2,0-.3-.5-.2-1,.1-.5.4-.8.7-.8.2,0,.3.5.2,1Z"/><path class="cls-11" d="m105.6,691.9c-.1.5-.4.8-.7.8-.2,0-.3-.5-.2-1,.1-.5.4-.8.7-.8s.3.5.2,1Z"/><path class="cls-11" d="m107.1,691.1c-.1.5-.4.8-.7.8-.2,0-.3-.5-.2-1s.4-.8.6-.8c.2,0,.3.5.2,1h0Z"/><path class="cls-11" d="m106.9,692.2c-.1.5-.4.8-.7.8-.2,0-.3-.5-.2-1,.1-.5.4-.8.7-.8.2,0,.3.5.2,1Z"/><path class="cls-11" d="m108.4,691.4c-.1.5-.4.8-.6.8-.2,0-.3-.5-.2-1,.1-.5.4-.8.6-.8.2,0,.3.5.2,1Z"/><path class="cls-11" d="m108.1,692.5c-.1.5-.4.8-.6.8-.2,0-.4-.5-.2-1,.1-.5.4-.8.6-.8.2,0,.3.5.2,1Z"/><path class="cls-11" d="m109.6,691.7c-.1.5-.4.8-.6.8-.2,0-.4-.5-.2-1,.1-.5.4-.8.6-.8.2,0,.3.5.2,1Z"/><path class="cls-11" d="m109.4,692.8c-.1.5-.4.8-.6.8-.2,0-.4-.5-.2-1,.1-.5.4-.8.6-.8.2,0,.4.5.2,1Z"/><path class="cls-11" d="m110.9,692c-.1.5-.4.8-.6.8-.2,0-.4-.5-.2-1,.1-.5.4-.8.6-.8.2,0,.4.5.2,1Z"/><path class="cls-11" d="m110.7,693.1c-.1.5-.4.8-.6.8s-.4-.5-.2-1c.1-.5.4-.8.6-.8.2,0,.4.5.2,1Z"/><path class="cls-11" d="m112.2,692.3c-.1.5-.4.8-.6.8-.2,0-.4-.5-.2-1,.1-.5.4-.8.6-.8.2,0,.4.5.2,1Z"/><path class="cls-11" d="m111.9,693.4c-.1.5-.4.8-.6.8-.2,0-.4-.5-.2-1s.4-.8.6-.8c.2,0,.4.5.2,1Z"/><path class="cls-11" d="m113.4,692.6c-.1.5-.4.8-.6.8-.2,0-.4-.5-.2-1s.4-.8.6-.8c.2,0,.4.5.2,1Z"/><path class="cls-11" d="m113.2,693.7c-.1.5-.4.8-.6.8-.2,0-.4-.5-.2-1s.4-.8.6-.8c.2,0,.4.5.2,1Z"/><path class="cls-11" d="m114.7,692.9c-.1.5-.4.8-.6.8-.2,0-.4-.5-.2-1s.4-.8.6-.8c.2,0,.4.5.2,1Z"/><path class="cls-11" d="m114.4,694c-.1.5-.4.8-.6.8-.2,0-.4-.5-.2-1s.4-.8.6-.8c.2,0,.4.5.2,1Z"/><path class="cls-11" d="m115.9,693.2c-.1.5-.4.8-.6.8-.2,0-.4-.5-.2-1s.4-.8.6-.8c.2,0,.4.5.2,1Z"/><path class="cls-11" d="m115.7,694.2c-.1.5-.4.8-.6.8-.2,0-.4-.5-.2-1s.4-.8.6-.8c.2,0,.4.5.2,1Z"/><path class="cls-11" d="m117.2,693.5c-.1.5-.4.8-.6.8-.2,0-.4-.5-.2-1s.4-.8.6-.8c.2,0,.4.5.2,1Z"/><path class="cls-11" d="m117,694.5c-.1.5-.4.8-.6.8-.2,0-.4-.5-.2-1,.1-.5.4-.8.6-.8.2,0,.4.5.2,1h0Z"/><path class="cls-11" d="m118.5,693.8c-.1.5-.4.8-.6.8-.2,0-.4-.5-.2-1,.1-.5.4-.8.6-.8.2,0,.4.5.2,1Z"/><path class="cls-11" d="m118.2,694.8c-.1.5-.4.8-.6.8-.2,0-.4-.5-.2-1,.1-.5.4-.8.6-.8.2,0,.4.5.2,1Z"/><path class="cls-11" d="m119.7,694c-.1.5-.4.8-.6.8-.2,0-.4-.5-.2-1,.1-.5.4-.8.6-.8s.4.5.2,1h0Z"/><path class="cls-11" d="m119.5,695.1c-.1.5-.4.8-.6.8-.2,0-.4-.5-.2-1,.1-.5.4-.8.6-.8.2,0,.4.5.2,1Z"/><path class="cls-11" d="m121,694.3c-.1.5-.4.8-.6.8-.2,0-.4-.5-.2-1s.4-.8.6-.8c.2,0,.4.5.2,1Z"/><path class="cls-11" d="m120.8,695.4c-.1.5-.4.8-.6.8-.2,0-.4-.5-.2-1,.1-.5.4-.8.6-.8.2,0,.4.5.2,1h0Z"/><path class="cls-11" d="m122.3,694.6c-.1.5-.4.8-.6.8-.2,0-.4-.5-.2-1s.4-.8.6-.8c.2,0,.4.5.2,1Z"/><path class="cls-11" d="m122,695.6c-.1.5-.4.8-.6.8-.2,0-.4-.5-.2-1s.4-.8.6-.8c.2,0,.4.5.2,1Z"/><path class="cls-11" d="m123.5,694.8c-.1.5-.4.8-.6.8-.2,0-.4-.5-.3-1s.4-.8.6-.8c.2,0,.4.5.3,1Z"/><path class="cls-11" d="m123.3,695.9c-.1.5-.4.8-.6.8-.2,0-.4-.5-.3-1s.4-.8.6-.8c.2,0,.4.5.3,1Z"/><path class="cls-11" d="m124.8,695.1c-.1.5-.4.8-.6.8s-.4-.5-.3-1,.4-.8.6-.8c.2,0,.4.5.3,1Z"/><path class="cls-11" d="m124.6,696.2c-.1.5-.4.8-.6.8s-.4-.5-.3-1,.4-.8.6-.8c.2,0,.4.5.3,1Z"/><path class="cls-11" d="m126.1,695.4c-.1.5-.4.8-.6.8s-.4-.5-.3-1,.4-.8.6-.8c.2,0,.4.5.3,1Z"/><path class="cls-11" d="m125.8,696.4c-.1.5-.4.8-.6.8s-.4-.5-.3-1,.4-.8.6-.8c.2,0,.4.5.3,1Z"/><path class="cls-11" d="m127.3,695.6c-.1.5-.4.8-.6.8-.2,0-.4-.5-.3-1s.4-.8.6-.8c.2,0,.4.5.3,1Z"/><path class="cls-11" d="m127.1,696.7c-.1.5-.4.8-.6.8s-.4-.5-.3-1,.4-.8.6-.8c.2,0,.4.5.3,1Z"/><path class="cls-11" d="m128.6,695.9c-.1.5-.4.8-.6.8-.2,0-.4-.5-.3-1s.4-.8.6-.8.4.5.3,1Z"/><path class="cls-11" d="m128.4,697c-.1.5-.4.8-.6.8-.2,0-.4-.5-.3-1s.4-.8.6-.8c.2,0,.4.5.3,1Z"/><path class="cls-11" d="m129.8,696.2c-.1.5-.4.8-.6.8-.2,0-.4-.5-.3-1,.1-.5.4-.8.6-.8.2,0,.4.5.3,1Z"/><path class="cls-11" d="m129.6,697.2c-.1.5-.4.8-.6.8-.2,0-.4-.5-.3-1,.1-.5.4-.8.6-.8.2,0,.4.5.3,1Z"/><path class="cls-11" d="m131.1,696.4c-.1.5-.4.8-.6.8s-.4-.5-.3-1c.1-.5.4-.8.6-.8.2,0,.4.5.3,1Z"/><path class="cls-11" d="m130.9,697.5c-.1.5-.4.8-.6.8s-.4-.5-.3-1c.1-.5.4-.8.6-.8.2,0,.4.5.3,1Z"/><path class="cls-11" d="m132.4,696.6c-.1.5-.4.8-.6.8s-.4-.5-.3-1c.1-.5.4-.8.6-.8.2,0,.4.5.3,1Z"/><path class="cls-11" d="m132.2,697.7c-.1.5-.4.8-.6.8s-.4-.5-.3-1c.1-.5.4-.8.6-.8s.4.5.3,1Z"/><path class="cls-11" d="m133.7,696.9c0,.5-.4.8-.6.8s-.4-.5-.3-1c.1-.5.4-.8.6-.8.2,0,.4.5.3,1Z"/><path class="cls-11" d="m133.5,697.9c0,.5-.4.8-.6.8s-.4-.5-.3-1c.1-.5.4-.8.6-.8s.4.5.3,1Z"/><path class="cls-11" d="m134.9,697.1c0,.5-.4.8-.6.8-.2,0-.4-.5-.3-1,0-.5.4-.8.6-.8s.4.5.3,1Z"/><path class="cls-11" d="m134.7,698.2c0,.5-.4.8-.6.8s-.4-.5-.3-1c0-.5.4-.8.6-.8s.4.5.3,1Z"/><path class="cls-11" d="m136.2,697.4c0,.5-.4.8-.6.8s-.4-.5-.3-1c0-.5.4-.8.6-.8.2,0,.4.5.3,1Z"/><path class="cls-11" d="m136,698.4c0,.5-.4.8-.6.8s-.4-.5-.3-1c0-.5.4-.8.6-.8.2,0,.4.5.3,1Z"/><path class="cls-11" d="m137.5,697.6c0,.5-.4.8-.6.8-.2,0-.4-.5-.3-1,0-.5.4-.8.6-.8.2,0,.4.5.3,1Z"/><path class="cls-11" d="m137.3,698.7c0,.5-.4.8-.6.8-.2,0-.4-.5-.3-1,0-.5.4-.8.6-.8.2,0,.4.5.3,1Z"/><path class="cls-11" d="m138.7,697.9c0,.5-.4.8-.6.8-.2,0-.4-.5-.3-1,0-.5.4-.8.6-.8.2,0,.4.5.3,1Z"/><path class="cls-11" d="m138.5,698.9c0,.5-.4.8-.6.8-.2,0-.4-.5-.3-1,0-.5.4-.8.6-.8.2,0,.4.5.3,1Z"/><path class="cls-11" d="m140,698.1c0,.5-.4.9-.6.8-.2,0-.4-.5-.3-1s.4-.9.6-.8c.2,0,.4.5.3,1Z"/><path class="cls-11" d="m139.8,699.1c0,.5-.4.9-.6.8-.2,0-.4-.5-.3-1s.4-.9.6-.8c.2,0,.4.5.3,1Z"/><path class="cls-11" d="m141.3,698.3c0,.5-.4.9-.6.8-.2,0-.4-.5-.3-1,0-.5.4-.9.6-.8.2,0,.4.5.3,1Z"/><path class="cls-11" d="m141.1,699.4c0,.5-.4.9-.6.8-.2,0-.4-.5-.3-1,0-.5.4-.9.6-.8.2,0,.4.5.3,1Z"/><path class="cls-11" d="m142.6,698.5c0,.5-.4.9-.6.8s-.4-.5-.3-1c0-.5.4-.9.6-.8.2,0,.4.5.3,1Z"/><path class="cls-11" d="m142.4,699.6c0,.5-.4.9-.6.8-.2,0-.4-.5-.3-1,0-.5.4-.9.6-.8.2,0,.4.5.3,1Z"/><path class="cls-11" d="m143.8,698.7c0,.5-.4.9-.6.8-.2,0-.4-.5-.3-1,0-.5.4-.9.6-.8.2,0,.4.5.3,1Z"/><path class="cls-11" d="m143.6,699.8c0,.5-.4.9-.6.8-.2,0-.4-.5-.3-1,0-.5.4-.9.6-.8.2,0,.4.5.3,1Z"/><path class="cls-11" d="m145.1,699c0,.5-.4.9-.6.8s-.4-.5-.3-1c0-.5.4-.9.6-.8s.4.5.3,1Z"/><path class="cls-11" d="m144.9,700c0,.5-.4.9-.6.8s-.4-.5-.3-1c0-.5.4-.9.6-.8s.4.5.3,1Z"/><path class="cls-11" d="m146.4,699.2c0,.5-.4.9-.6.8s-.4-.5-.3-1c0-.5.4-.9.6-.8s.4.5.3,1Z"/><path class="cls-11" d="m146.2,700.3c0,.5-.4.9-.6.8s-.4-.5-.3-1c0-.5.4-.9.6-.8s.4.5.3,1Z"/><path class="cls-11" d="m147.6,699.4c0,.5-.4.9-.6.8s-.4-.5-.3-1,.4-.9.6-.8.4.5.3,1Z"/><path class="cls-11" d="m147.5,700.5c0,.5-.4.9-.6.8s-.4-.5-.3-1,.4-.9.6-.8.4.5.3,1Z"/><path class="cls-11" d="m148.9,699.6c0,.5-.4.9-.6.8s-.4-.5-.3-1,.4-.9.6-.8c.2,0,.4.5.3,1Z"/><path class="cls-11" d="m148.7,700.7c0,.5-.4.9-.6.8s-.4-.5-.3-1,.4-.9.6-.8.4.5.3,1Z"/><path class="cls-11" d="m150.2,699.8c0,.5-.4.9-.6.8-.2,0-.4-.5-.3-1,0-.5.4-.9.6-.8.2,0,.4.5.3,1h0Z"/><path class="cls-11" d="m150,700.9c0,.5-.4.9-.6.8-.2,0-.4-.5-.3-1,0-.5.4-.9.6-.8.2,0,.4.5.3,1h0Z"/><path class="cls-11" d="m151.5,700c0,.5-.4.9-.6.8-.2,0-.4-.5-.3-1,0-.5.4-.9.6-.8.2,0,.4.5.3,1Z"/><path class="cls-11" d="m151.3,701.1c0,.5-.4.9-.6.8-.2,0-.4-.5-.3-1,0-.5.4-.9.6-.8.2,0,.4.5.3,1Z"/><path class="cls-11" d="m152.8,700.2c0,.5-.3.9-.6.8s-.4-.5-.3-1c0-.5.3-.9.6-.8s.4.5.3,1Z"/><path class="cls-11" d="m152.6,701.3c0,.5-.3.9-.6.8s-.4-.5-.3-1c0-.5.3-.9.6-.8s.4.5.3,1Z"/><path class="cls-11" d="m154,700.4c0,.5-.3.9-.6.8-.2,0-.4-.5-.3-1,0-.5.3-.9.6-.8.2,0,.4.5.3,1h0Z"/><path class="cls-11" d="m153.9,701.5c0,.5-.3.9-.6.8-.2,0-.4-.5-.3-1,0-.5.3-.9.6-.8.2,0,.4.5.3,1Z"/><path class="cls-11" d="m155.3,700.6c0,.5-.3.9-.6.8-.2,0-.4-.5-.3-1,0-.5.3-.9.6-.8.2,0,.4.5.3,1Z"/><path class="cls-11" d="m155.1,701.7c0,.5-.3.9-.6.8-.2,0-.4-.5-.3-1,0-.5.3-.9.6-.8.2,0,.4.5.3,1Z"/><path class="cls-11" d="m156.6,700.8c0,.5-.3.9-.6.8-.2,0-.4-.5-.3-1s.3-.9.6-.8c.2,0,.4.5.3,1Z"/><path class="cls-11" d="m156.4,701.9c0,.5-.3.9-.6.8-.2,0-.4-.5-.3-1,0-.5.3-.9.6-.8.2,0,.4.5.3,1Z"/><path class="cls-11" d="m157.9,701c0,.5-.3.9-.6.8-.2,0-.4-.5-.3-1,0-.5.3-.9.6-.8.2,0,.4.5.3,1Z"/><path class="cls-11" d="m157.7,702.1c0,.5-.3.9-.6.8-.2,0-.4-.5-.3-1,0-.5.3-.9.6-.8.2,0,.4.5.3,1Z"/><path class="cls-11" d="m159.1,701.2c0,.5-.3.9-.6.8-.2,0-.4-.5-.3-1,0-.5.3-.9.6-.8.2,0,.4.5.3,1Z"/><path class="cls-11" d="m159,702.3c0,.5-.3.9-.6.8-.2,0-.4-.5-.3-1,0-.5.3-.9.6-.8.2,0,.4.5.3,1Z"/><path class="cls-11" d="m160.4,701.4c0,.5-.3.9-.6.8s-.4-.5-.3-1c0-.5.3-.9.6-.8s.4.5.3,1Z"/><path class="cls-11" d="m160.3,702.5c0,.5-.3.9-.6.8s-.4-.5-.3-1c0-.5.3-.9.6-.8.2,0,.4.5.3,1Z"/><path class="cls-11" d="m161.7,701.6c0,.5-.3.9-.6.8-.2,0-.4-.5-.3-1,0-.5.3-.9.6-.8.2,0,.4.5.3,1Z"/><path class="cls-11" d="m161.5,702.7c0,.5-.3.9-.6.8-.2,0-.4-.5-.3-1,0-.5.3-.9.6-.8.2,0,.4.5.3,1Z"/><path class="cls-11" d="m163,701.8c0,.5-.3.9-.6.8-.2,0-.4-.5-.3-1s.3-.9.6-.8c.2,0,.4.5.3,1Z"/><path class="cls-11" d="m162.8,702.9c0,.5-.3.9-.6.8-.2,0-.4-.5-.3-1,0-.5.3-.9.6-.8.2,0,.4.5.3,1Z"/><path class="cls-11" d="m164.3,702c0,.5-.3.9-.6.8-.2,0-.4-.5-.3-1,0-.5.3-.9.6-.8.2,0,.4.5.3,1Z"/><path class="cls-11" d="m164.1,703c0,.5-.3.9-.6.8-.2,0-.4-.5-.3-1,0-.5.3-.9.6-.8.2,0,.4.5.3,1Z"/><path class="cls-11" d="m165.5,702.1c0,.5-.3.9-.6.8-.2,0-.4-.5-.3-1,0-.5.3-.9.6-.8.2,0,.4.5.3,1Z"/><path class="cls-11" d="m165.4,703.2c0,.5-.3.9-.6.8-.2,0-.4-.5-.3-1,0-.5.3-.9.6-.8.2,0,.4.5.3,1Z"/><path class="cls-11" d="m166.8,702.3c0,.5-.3.9-.6.8-.2,0-.4-.5-.3-1,0-.5.3-.9.6-.8.2,0,.4.5.3,1Z"/><path class="cls-11" d="m166.7,703.4c0,.5-.3.9-.6.8-.2,0-.4-.5-.3-1,0-.5.3-.9.6-.8.2,0,.4.5.3,1Z"/><path class="cls-11" d="m168.1,702.5c0,.5-.3.9-.6.8-.2,0-.4-.5-.3-1,0-.5.3-.9.6-.8.2,0,.4.5.3,1Z"/><path class="cls-11" d="m168,703.6c0,.5-.3.9-.6.8-.2,0-.4-.5-.3-1s.3-.9.6-.8c.2,0,.4.5.3,1Z"/><path class="cls-11" d="m169.4,702.7c0,.5-.3.9-.6.8-.2,0-.4-.5-.3-1,0-.5.3-.9.6-.8.2,0,.4.5.3,1Z"/><path class="cls-11" d="m169.2,703.7c0,.5-.3.9-.6.8-.2,0-.4-.5-.3-1,0-.5.3-.9.6-.8.2,0,.4.5.3,1Z"/><path class="cls-11" d="m170.7,702.9c0,.5-.3.9-.6.8s-.4-.5-.3-1c0-.5.3-.9.6-.8.2,0,.4.5.3,1Z"/><path class="cls-11" d="m170.5,703.9c0,.5-.3.9-.6.8-.2,0-.4-.5-.3-1,0-.5.3-.9.6-.8.2,0,.4.5.3,1Z"/><path class="cls-11" d="m171.9,703c0,.5-.3.9-.6.8-.2,0-.4-.5-.3-1,0-.5.3-.9.6-.8.2,0,.4.5.3,1Z"/><path class="cls-11" d="m171.8,704.1c0,.5-.3.9-.6.8-.2,0-.4-.5-.3-1,0-.5.3-.9.6-.8.2,0,.4.5.3,1Z"/><path class="cls-11" d="m173.2,703.2c0,.5-.3.9-.6.8-.2,0-.4-.5-.3-1,0-.5.3-.9.6-.8.2,0,.4.5.3,1Z"/><path class="cls-11" d="m173.1,704.3c0,.5-.3.9-.6.8-.2,0-.4-.5-.3-1,0-.5.3-.9.6-.8.2,0,.4.5.3,1Z"/><path class="cls-11" d="m174.5,703.3c0,.5-.3.9-.6.8s-.4-.5-.3-1c0-.5.3-.9.6-.8.2,0,.4.5.3,1Z"/><path class="cls-11" d="m174.4,704.4c0,.5-.3.9-.6.8-.2,0-.4-.5-.3-1,0-.5.3-.9.6-.8.2,0,.4.5.3,1Z"/><path class="cls-11" d="m175.8,703.5c0,.5-.3.9-.6.8s-.4-.5-.3-1c0-.5.3-.9.6-.8s.4.5.3,1Z"/><path class="cls-11" d="m175.7,704.6c0,.5-.3.9-.6.8s-.4-.5-.3-1c0-.5.3-.9.6-.8s.4.5.3,1Z"/><path class="cls-11" d="m177.1,703.6c0,.5-.3.9-.6.8s-.4-.5-.3-1c0-.5.3-.9.6-.8s.4.5.3,1Z"/><path class="cls-11" d="m176.9,704.7c0,.5-.3.9-.6.8s-.4-.5-.3-1,.3-.9.6-.8.4.5.3,1Z"/><path class="cls-11" d="m178.4,703.8c0,.5-.3.9-.6.8s-.4-.5-.3-1c0-.5.3-.9.6-.8s.4.5.3,1Z"/><path class="cls-11" d="m178.2,704.9c0,.5-.3.9-.6.8s-.4-.5-.3-1c0-.5.3-.9.6-.8s.4.5.3,1Z"/><path class="cls-11" d="m179.6,704c0,.5-.3.9-.6.8s-.4-.5-.3-1c0-.5.3-.9.6-.8s.4.5.3,1Z"/><path class="cls-11" d="m179.5,705c0,.5-.3.9-.6.8s-.4-.5-.3-1c0-.5.3-.9.6-.8s.4.5.3,1Z"/><path class="cls-11" d="m180.9,704.1c0,.5-.3.9-.6.8s-.4-.5-.3-1c0-.5.3-.9.6-.8.2,0,.4.5.3,1Z"/><path class="cls-11" d="m180.8,705.2c0,.5-.3.9-.6.8-.2,0-.4-.5-.4-1s.3-.9.6-.8.4.5.4,1Z"/><path class="cls-11" d="m182.2,704.3c0,.5-.3.9-.6.8s-.4-.5-.4-1c0-.5.3-.9.6-.8s.4.5.4,1Z"/><path class="cls-11" d="m182.1,705.3c0,.5-.3.9-.6.8s-.4-.5-.4-1c0-.5.3-.9.6-.8s.4.5.4,1Z"/><path class="cls-11" d="m183.5,704.4c0,.5-.3.9-.6.8s-.4-.5-.4-1c0-.5.3-.9.6-.8s.4.5.4,1Z"/><path class="cls-11" d="m183.4,705.5c0,.5-.3.9-.6.8s-.4-.5-.4-1c0-.5.3-.9.6-.8s.4.5.4,1Z"/><path class="cls-11" d="m184.8,704.6c0,.5-.3.9-.6.8s-.4-.5-.4-1c0-.5.3-.9.6-.8s.4.5.4,1Z"/><path class="cls-11" d="m184.7,705.6c0,.5-.3.9-.6.8s-.4-.5-.4-1c0-.5.3-.9.6-.8s.4.5.4,1Z"/><path class="cls-11" d="m186.1,704.7c0,.5-.3.9-.6.9-.2,0-.4-.5-.4-1,0-.5.3-.9.6-.9s.4.5.4,1Z"/><path class="cls-11" d="m185.9,705.8c0,.5-.3.9-.6.9s-.4-.5-.4-1c0-.5.3-.9.6-.9s.4.5.4,1Z"/><path class="cls-11" d="m187.3,704.8c0,.5-.3.9-.6.9s-.4-.5-.4-1c0-.5.3-.9.6-.9s.4.5.4,1Z"/><path class="cls-11" d="m187.2,705.9c0,.5-.3.9-.6.9s-.4-.5-.4-1c0-.5.3-.9.6-.9s.4.5.4,1Z"/><path class="cls-11" d="m188.6,705c0,.5-.3.9-.5.9-.2,0-.4-.5-.4-1s.3-.9.5-.9c.2,0,.4.5.4,1Z"/><path class="cls-11" d="m188.5,706c0,.5-.3.9-.5.9-.2,0-.4-.5-.4-1s.3-.9.5-.9c.2,0,.4.5.4,1Z"/><path class="cls-11" d="m189.9,705.1c0,.5-.3.9-.5.9s-.4-.5-.4-1,.3-.9.5-.9.4.5.4,1Z"/><path class="cls-11" d="m189.8,706.1c0,.5-.3.9-.5.9-.2,0-.4-.5-.4-1s.3-.9.5-.9.4.5.4,1Z"/><path class="cls-11" d="m191.2,705.2c0,.5-.3.9-.5.9s-.4-.5-.4-1,.3-.9.5-.9.4.5.4,1Z"/><path class="cls-11" d="m191.1,706.3c0,.5-.3.9-.5.9s-.4-.5-.4-1,.3-.9.5-.9.4.5.4,1Z"/><path class="cls-11" d="m192.5,705.3c0,.5-.3.9-.5.9s-.4-.5-.4-1,.3-.9.5-.9.4.5.4,1Z"/><path class="cls-11" d="m192.4,706.4c0,.5-.3.9-.5.9s-.4-.5-.4-1,.3-.9.5-.9.4.5.4,1Z"/><path class="cls-11" d="m193.8,705.5c0,.5-.3.9-.5.9s-.4-.5-.4-1,.3-.9.5-.9.4.5.4,1Z"/><path class="cls-11" d="m193.7,706.5c0,.5-.3.9-.5.9-.2,0-.4-.5-.4-1s.3-.9.5-.9.4.5.4,1Z"/><path class="cls-11" d="m195.1,705.6c0,.5-.3.9-.5.9s-.4-.5-.4-1,.3-.9.5-.9.4.5.4,1Z"/><path class="cls-11" d="m195,706.7c0,.5-.3.9-.5.9s-.4-.5-.4-1c0-.5.3-.9.5-.9s.4.5.4,1Z"/><path class="cls-11" d="m196.4,705.7c0,.5-.3.9-.5.9s-.4-.5-.4-1c0-.5.3-.9.5-.9.2,0,.4.5.4,1Z"/><path class="cls-11" d="m196.3,706.8c0,.5-.3.9-.5.9-.2,0-.4-.5-.4-1,0-.5.3-.9.5-.9.2,0,.4.5.4,1Z"/><path class="cls-11" d="m197.6,705.8c0,.5-.3.9-.5.9-.2,0-.4-.5-.4-1,0-.5.3-.9.5-.9.2,0,.4.4.4.9h0Z"/><path class="cls-11" d="m197.5,706.9c0,.5-.3.9-.5.9-.2,0-.4-.5-.4-1,0-.5.3-.9.5-.9.2,0,.4.4.4.9h0Z"/><path class="cls-11" d="m198.9,706c0,.5-.3.9-.5.9s-.4-.4-.4-.9c0-.5.3-.9.5-.9s.4.4.4.9Z"/><path class="cls-11" d="m198.8,707c0,.5-.3.9-.5.9s-.4-.4-.4-.9c0-.5.3-.9.5-.9s.4.4.4.9Z"/><path class="cls-11" d="m200.2,706.1c0,.5-.3.9-.5.9s-.4-.4-.4-.9c0-.5.3-.9.5-.9s.4.4.4.9Z"/><path class="cls-11" d="m200.1,707.1c0,.5-.3.9-.5.9s-.4-.4-.4-.9c0-.5.3-.9.5-.9s.4.4.4.9Z"/><path class="cls-11" d="m201.5,706.2c0,.5-.3.9-.5.9s-.4-.4-.4-.9c0-.5.3-.9.5-.9s.4.4.4.9Z"/><path class="cls-11" d="m201.4,707.2c0,.5-.3.9-.5.9s-.4-.4-.4-.9c0-.5.3-.9.5-.9s.4.4.4.9Z"/><path class="cls-11" d="m202.8,706.3c0,.5-.3.9-.5.9s-.4-.4-.4-.9.3-.9.5-.9.4.4.4.9Z"/><path class="cls-11" d="m202.7,707.3c0,.5-.3.9-.5.9s-.4-.4-.4-.9.3-.9.5-.9.4.4.4.9Z"/><path class="cls-11" d="m204.1,706.4c0,.5-.3.9-.5.9-.2,0-.4-.4-.4-.9s.3-.9.5-.9c.2,0,.4.4.4.9Z"/><path class="cls-11" d="m204,707.4c0,.5-.3.9-.5.9s-.4-.4-.4-.9.3-.9.5-.9.4.4.4.9Z"/><path class="cls-11" d="m205.4,706.5c0,.5-.3.9-.5.9s-.4-.4-.4-.9.3-.9.5-.9.4.4.4.9Z"/><path class="cls-11" d="m205.3,707.5c0,.5-.3.9-.5.9s-.4-.4-.4-.9.3-.9.5-.9.4.4.4.9Z"/><path class="cls-11" d="m206.7,706.6c0,.5-.3.9-.5.9s-.4-.4-.4-.9.3-.9.5-.9.4.4.4.9Z"/><path class="cls-11" d="m206.6,707.6c0,.5-.3.9-.5.9s-.4-.4-.4-.9.3-.9.5-.9.4.4.4.9Z"/><path class="cls-11" d="m207.9,706.7c0,.5-.3.9-.5.9s-.4-.4-.4-.9.3-.9.5-.9c.2,0,.4.4.4.9Z"/><path class="cls-11" d="m207.9,707.8c0,.5-.3.9-.5.9s-.4-.4-.4-.9.3-.9.5-.9c.2,0,.4.4.4.9Z"/><path class="cls-11" d="m209.2,706.8c0,.5-.3.9-.5.9s-.4-.4-.4-.9.3-.9.5-.9.4.4.4.9Z"/><path class="cls-11" d="m209.2,707.9c0,.5-.3.9-.5.9s-.4-.4-.4-.9.3-.9.5-.9.4.4.4.9Z"/><path class="cls-11" d="m210.5,706.9c0,.5-.3.9-.5.9s-.4-.4-.4-.9c0-.5.3-.9.5-.9s.4.4.4.9Z"/><path class="cls-11" d="m210.4,708c0,.5-.3.9-.5.9s-.4-.4-.4-.9c0-.5.3-.9.5-.9s.4.4.4.9Z"/><path class="cls-11" d="m211.8,707c0,.5-.3.9-.5.9-.2,0-.4-.4-.4-.9,0-.5.3-.9.5-.9.2,0,.4.4.4.9Z"/><path class="cls-11" d="m211.7,708c0,.5-.3.9-.5.9-.2,0-.4-.4-.4-.9,0-.5.3-.9.5-.9.2,0,.4.4.4.9Z"/><path class="cls-11" d="m213.1,707.1c0,.5-.3.9-.5.9-.2,0-.4-.4-.4-.9s.3-.9.5-.9c.2,0,.4.4.4.9Z"/><path class="cls-11" d="m213,708.1c0,.5-.3.9-.5.9-.2,0-.4-.4-.4-.9s.3-.9.5-.9c.2,0,.4.4.4.9Z"/><path class="cls-11" d="m214.4,707.1c0,.5-.3.9-.5.9-.2,0-.4-.4-.4-.9,0-.5.3-.9.5-.9s.4.4.4.9Z"/><path class="cls-11" d="m214.3,708.2c0,.5-.3.9-.5.9-.2,0-.4-.4-.4-.9,0-.5.3-.9.5-.9.2,0,.4.4.4.9Z"/><path class="cls-11" d="m215.7,707.2c0,.5-.3.9-.5.9-.2,0-.4-.4-.4-.9,0-.5.3-.9.5-.9.2,0,.4.4.4.9Z"/><path class="cls-11" d="m215.6,708.3c0,.5-.3.9-.5.9-.2,0-.4-.4-.4-.9s.3-.9.5-.9c.2,0,.4.4.4.9Z"/><path class="cls-11" d="m217,707.3c0,.5-.3.9-.5.9-.2,0-.4-.4-.4-.9,0-.5.3-.9.5-.9.2,0,.4.4.4.9Z"/><path class="cls-11" d="m216.9,708.4c0,.5-.3.9-.5.9-.2,0-.4-.4-.4-.9s.3-.9.5-.9c.2,0,.4.4.4.9Z"/><path class="cls-11" d="m218.3,707.4c0,.5-.3.9-.5.9-.2,0-.4-.4-.4-.9s.3-.9.5-.9.4.4.4.9Z"/><path class="cls-11" d="m218.2,708.4c0,.5-.3.9-.5.9-.2,0-.4-.4-.4-.9s.3-.9.5-.9c.2,0,.4.4.4.9Z"/><path class="cls-11" d="m219.6,707.4c0,.5-.3.9-.5.9-.2,0-.4-.4-.4-.9s.3-.9.5-.9c.2,0,.4.4.4.9Z"/><path class="cls-11" d="m219.5,708.5c0,.5-.3.9-.5.9-.2,0-.4-.4-.4-.9s.3-.9.5-.9c.2,0,.4.4.4.9Z"/><path class="cls-11" d="m220.8,707.5c0,.5-.2.9-.5.9-.2,0-.4-.4-.4-.9s.2-.9.5-.9c.2,0,.4.4.4.9Z"/><path class="cls-11" d="m220.8,708.6c0,.5-.2.9-.5.9-.2,0-.4-.4-.4-.9s.2-.9.5-.9c.2,0,.4.4.4.9Z"/><path class="cls-11" d="m222.1,707.6c0,.5-.2.9-.5.9-.2,0-.4-.4-.4-.9s.2-.9.5-.9c.2,0,.4.4.4.9Z"/><path class="cls-11" d="m222.1,708.7c0,.5-.2.9-.5.9-.2,0-.4-.4-.4-.9s.2-.9.5-.9c.2,0,.4.4.4.9Z"/><path class="cls-11" d="m223.4,707.7c0,.5-.2.9-.5.9-.2,0-.4-.4-.4-.9s.2-.9.5-.9c.2,0,.4.4.4.9Z"/><path class="cls-11" d="m223.4,708.7c0,.5-.2.9-.5.9-.2,0-.4-.4-.4-.9s.2-.9.5-.9c.2,0,.4.4.4.9Z"/><path class="cls-11" d="m224.7,707.8c0,.5-.2.9-.5.9-.2,0-.4-.4-.4-.9s.2-.9.5-.9c.2,0,.4.4.4.9Z"/><path class="cls-11" d="m224.7,708.8c0,.5-.2.9-.5.9-.2,0-.4-.4-.4-.9,0-.5.2-.9.5-.9.2,0,.4.4.4.9Z"/><path class="cls-11" d="m226,707.8c0,.5-.2.9-.5.9-.2,0-.4-.4-.4-.9,0-.5.2-.9.5-.9.2,0,.4.4.4.9Z"/><path class="cls-11" d="m226,708.9c0,.5-.2.9-.5.9-.2,0-.4-.4-.4-.9,0-.5.2-.9.5-.9.2,0,.4.4.4.9Z"/><path class="cls-11" d="m227.3,707.9c0,.5-.2.9-.5.9-.2,0-.4-.4-.4-.9s.2-.9.5-.9c.2,0,.4.4.4.9Z"/><path class="cls-11" d="m227.2,708.9c0,.5-.2.9-.5.9s-.4-.4-.4-.9.2-.9.5-.9c.2,0,.4.4.4.9Z"/><path class="cls-11" d="m228.6,707.9c0,.5-.2.9-.5.9-.2,0-.4-.4-.4-.9s.2-.9.5-.9c.2,0,.4.4.4.9Z"/><path class="cls-11" d="m228.5,709c0,.5-.2.9-.5.9-.2,0-.4-.4-.4-.9s.2-.9.5-.9c.2,0,.4.4.4.9Z"/><path class="cls-11" d="m229.9,708c0,.5-.2.9-.5.9-.2,0-.4-.4-.4-.9s.2-.9.5-.9c.2,0,.4.4.4.9Z"/><path class="cls-11" d="m229.8,709c0,.5-.2.9-.5.9-.2,0-.4-.4-.4-.9,0-.5.2-.9.5-.9.2,0,.4.4.4.9Z"/><path class="cls-11" d="m231.2,708c0,.5-.2.9-.5.9-.2,0-.4-.4-.4-.9,0-.5.2-.9.5-.9.2,0,.4.4.4.9Z"/><path class="cls-11" d="m231.1,709.1c0,.5-.2.9-.5.9-.2,0-.4-.4-.4-.9,0-.5.2-.9.5-.9.2,0,.4.4.4.9Z"/><path class="cls-11" d="m232.5,708.1c0,.5-.2.9-.5.9-.2,0-.4-.4-.4-.9s.2-.9.5-.9c.2,0,.4.4.4.9Z"/><path class="cls-11" d="m232.4,709.1c0,.5-.2.9-.5.9-.2,0-.4-.4-.4-.9s.2-.9.5-.9c.2,0,.4.4.4.9Z"/><path class="cls-11" d="m233.8,708.1c0,.5-.2.9-.5.9-.2,0-.4-.4-.4-.9s.2-.9.5-.9c.2,0,.4.4.4.9Z"/><path class="cls-11" d="m233.7,709.2c0,.5-.2.9-.5.9s-.4-.4-.4-.9.2-.9.5-.9c.2,0,.4.4.4.9Z"/><path class="cls-11" d="m235,708.2c0,.5-.2.9-.5.9-.2,0-.4-.4-.4-.9s.2-.9.5-.9c.2,0,.4.4.4.9Z"/><path class="cls-11" d="m235,709.2c0,.5-.2.9-.5.9-.2,0-.4-.4-.4-.9s.2-.9.5-.9c.2,0,.4.4.4.9Z"/><path class="cls-11" d="m236.3,708.2c0,.5-.2.9-.5.9-.2,0-.4-.4-.4-.9s.2-.9.5-.9c.2,0,.4.4.4.9Z"/><path class="cls-11" d="m236.3,709.3c0,.5-.2.9-.5.9-.2,0-.4-.4-.4-.9s.2-.9.5-.9c.2,0,.4.4.4.9Z"/><path class="cls-11" d="m237.6,708.3c0,.5-.2.9-.5.9-.2,0-.4-.4-.4-.9s.2-.9.5-.9c.2,0,.4.4.4.9Z"/><path class="cls-11" d="m237.6,709.3c0,.5-.2.9-.5.9-.2,0-.4-.4-.4-.9s.2-.9.5-.9c.2,0,.4.4.4.9Z"/><path class="cls-11" d="m238.9,708.3c0,.5-.2.9-.5.9-.2,0-.4-.4-.4-.9s.2-.9.5-.9c.2,0,.4.4.4.9Z"/><path class="cls-11" d="m238.9,709.4c0,.5-.2.9-.5.9-.2,0-.4-.4-.4-.9s.2-.9.5-.9c.2,0,.4.4.4.9Z"/><path class="cls-11" d="m240.2,708.4c0,.5-.2.9-.5.9s-.4-.4-.4-.9.2-.9.5-.9c.2,0,.4.4.4.9Z"/><path class="cls-11" d="m240.2,709.4c0,.5-.2.9-.5.9s-.4-.4-.4-.9c0-.5.2-.9.5-.9.2,0,.4.4.4.9Z"/><path class="cls-11" d="m241.5,708.4c0,.5-.2.9-.5.9s-.4-.4-.4-.9.2-.9.5-.9.4.4.4.9Z"/><path class="cls-11" d="m241.5,709.5c0,.5-.2.9-.5.9s-.4-.4-.4-.9.2-.9.5-.9.4.4.4.9Z"/><path class="cls-11" d="m242.8,708.4c0,.5-.2.9-.5.9s-.4-.4-.4-.9.2-.9.5-.9.4.4.4.9Z"/><path class="cls-11" d="m242.8,709.5c0,.5-.2.9-.5.9s-.4-.4-.4-.9.2-.9.5-.9.4.4.4.9Z"/><path class="cls-11" d="m244.1,708.4c0,.5-.2.9-.5.9s-.4-.4-.4-.9.2-.9.5-.9.4.4.4.9Z"/><path class="cls-11" d="m244.1,709.5c0,.5-.2.9-.5.9s-.4-.4-.4-.9.2-.9.5-.9.4.4.4.9Z"/><path class="cls-11" d="m245.4,708.5c0,.5-.2.9-.5.9s-.4-.4-.4-.9.2-.9.5-.9.4.4.4.9Z"/><path class="cls-11" d="m245.4,709.5c0,.5-.2.9-.5.9s-.4-.4-.4-.9.2-.9.5-.9.4.4.4.9Z"/><path class="cls-11" d="m246.7,708.5c0,.5-.2.9-.5.9s-.4-.4-.4-.9.2-.9.5-.9.4.4.4.9Z"/><path class="cls-11" d="m246.7,709.6c0,.5-.2.9-.5.9s-.5-.4-.4-.9.2-.9.5-.9.4.4.4.9h0Z"/><path class="cls-11" d="m248,708.5c0,.5-.2.9-.5.9s-.5-.4-.4-.9c0-.5.2-.9.5-.9s.4.4.4.9Z"/><path class="cls-11" d="m248,709.6c0,.5-.2.9-.5.9s-.5-.4-.4-.9c0-.5.2-.9.5-.9s.5.4.4.9Z"/><path class="cls-11" d="m249.3,708.5c0,.5-.2.9-.5.9s-.5-.4-.4-.9c0-.5.2-.9.5-.9s.5.4.4.9Z"/><path class="cls-11" d="m249.2,709.6c0,.5-.2.9-.5.9s-.5-.4-.4-.9c0-.5.2-.9.5-.9s.5.4.4.9Z"/><path class="cls-11" d="m250.6,708.6c0,.5-.2.9-.5.9s-.5-.4-.4-.9c0-.5.2-.9.5-.9s.5.4.4.9Z"/><path class="cls-11" d="m250.5,709.6c0,.5-.2.9-.5.9s-.5-.4-.4-.9c0-.5.2-.9.5-.9s.5.4.4.9Z"/><path class="cls-11" d="m251.8,708.6c0,.5-.2.9-.5.9s-.5-.4-.4-.9c0-.5.2-.9.5-.9s.5.4.4.9Z"/><path class="cls-11" d="m251.8,709.6c0,.5-.2.9-.5.9s-.5-.4-.4-.9c0-.5.2-.9.5-.9s.5.4.4.9Z"/><path class="cls-11" d="m253.1,708.6c0,.5-.2.9-.5.9s-.5-.4-.4-.9c0-.5.2-.9.5-.9s.5.4.4.9Z"/><path class="cls-11" d="m253.1,709.7c0,.5-.2.9-.5.9s-.5-.4-.4-.9c0-.5.2-.9.5-.9s.5.4.4.9Z"/><path class="cls-11" d="m254.4,708.6c0,.5-.2.9-.5.9s-.5-.4-.4-.9c0-.5.2-.9.5-.9s.5.4.4.9Z"/><path class="cls-11" d="m254.4,709.7c0,.5-.2.9-.5.9s-.5-.4-.4-.9c0-.5.2-.9.5-.9s.5.4.5.9h0Z"/><path class="cls-11" d="m255.7,708.6c0,.5-.2.9-.5.9s-.5-.4-.5-.9.2-.9.5-.9c.2,0,.5.4.5.9h0Z"/><path class="cls-11" d="m255.7,709.7c0,.5-.2.9-.5.9s-.5-.4-.5-.9.2-.9.5-.9c.2,0,.5.4.5.9h0Z"/><path class="cls-11" d="m257,708.6c0,.5-.2.9-.5.9s-.5-.4-.5-.9.2-.9.5-.9.5.4.5.9Z"/><path class="cls-11" d="m257,709.7c0,.5-.2.9-.5.9s-.5-.4-.5-.9.2-.9.5-.9.5.4.5.9Z"/><path class="cls-11" d="m258.3,708.6c0,.5-.2.9-.5.9s-.5-.4-.5-.9.2-.9.5-.9.5.4.5.9Z"/><path class="cls-11" d="m258.3,709.7c0,.5-.2.9-.5.9s-.5-.4-.5-.9.2-.9.5-.9.5.4.5.9Z"/><path class="cls-11" d="m259.6,708.6c0,.5-.2.9-.5.9s-.5-.4-.5-.9.2-.9.5-.9.5.4.5.9Z"/><path class="cls-11" d="m259.6,709.7c0,.5-.2.9-.5.9s-.5-.4-.5-.9.2-.9.5-.9.5.4.5.9Z"/><path class="cls-11" d="m260.9,708.6c0,.5-.2.9-.5.9s-.5-.4-.5-.9.2-.9.5-.9.5.4.5.9Z"/><path class="cls-11" d="m260.9,709.7c0,.5-.2.9-.5.9s-.5-.4-.5-.9.2-.9.5-.9.5.4.5.9Z"/><path class="cls-11" d="m262.2,708.6c0,.5-.2.9-.5.9s-.5-.4-.5-.9.2-.9.5-.9.5.4.5.9Z"/><path class="cls-11" d="m262.2,709.7c0,.5-.2.9-.5.9s-.5-.4-.5-.9c0-.5.2-.9.5-.9s.5.4.5.9Z"/><path class="cls-11" d="m263.5,708.6c0,.5-.2.9-.5.9s-.5-.4-.5-.9c0-.5.2-.9.5-.9s.5.4.5.9Z"/><path class="cls-11" d="m263.5,709.7c0,.5-.2.9-.5.9s-.5-.4-.5-.9.2-.9.5-.9.5.4.5.9Z"/><path class="cls-11" d="m264.8,708.6c0,.5-.2.9-.5.9s-.5-.4-.5-.9.2-.9.5-.9.5.4.5.9Z"/><path class="cls-11" d="m264.8,709.7c0,.5-.2.9-.5.9s-.5-.4-.5-.9.2-.9.5-.9.5.4.5.9Z"/><path class="cls-11" d="m266.1,708.6c0,.5-.2.9-.5.9s-.5-.4-.5-.9.2-.9.5-.9.5.4.5.9Z"/><path class="cls-11" d="m266.1,709.7c0,.5-.2.9-.5.9s-.5-.4-.5-.9.2-.9.5-.9.5.4.5.9Z"/><path class="cls-11" d="m267.4,708.6c0,.5-.2.9-.4.9s-.5-.4-.5-.9.2-.9.4-.9.5.4.5.9Z"/><path class="cls-11" d="m267.4,709.7c0,.5-.2.9-.4.9s-.5-.4-.5-.9.2-.9.4-.9.5.4.5.9Z"/><path class="cls-11" d="m268.7,708.6c0,.5-.2.9-.4.9s-.5-.4-.5-.9.2-.9.4-.9.5.4.5.9Z"/><path class="cls-11" d="m268.7,709.7c0,.5-.2.9-.4.9s-.5-.4-.5-.9.2-.9.4-.9.5.4.5.9Z"/><path class="cls-11" d="m269.9,708.6c0,.5-.2.9-.4.9s-.5-.4-.5-.9.2-.9.4-.9.5.4.5.9Z"/><path class="cls-11" d="m270,709.6c0,.5-.2.9-.4.9s-.5-.4-.5-.9c0-.5.2-.9.4-.9s.5.4.5.9h0Z"/><path class="cls-11" d="m271.2,708.6c0,.5-.2.9-.4.9-.2,0-.5-.4-.5-.9,0-.5.2-.9.4-.9.2,0,.5.4.5.9Z"/><path class="cls-11" d="m271.3,709.6c0,.5-.2.9-.4.9-.2,0-.5-.4-.5-.9,0-.5.2-.9.4-.9.2,0,.5.4.5.9Z"/><path class="cls-11" d="m272.5,708.5c0,.5-.2.9-.4.9-.2,0-.5-.4-.5-.9,0-.5.2-.9.4-.9.2,0,.5.4.5.9Z"/><path class="cls-11" d="m272.6,709.6c0,.5-.2.9-.4.9-.2,0-.5-.4-.5-.9s.2-.9.4-.9c.2,0,.5.4.5.9Z"/><path class="cls-11" d="m273.8,708.5c0,.5-.2.9-.4.9-.2,0-.5-.4-.5-.9,0-.5.2-.9.4-.9.2,0,.5.4.5.9Z"/><path class="cls-11" d="m273.8,709.6c0,.5-.2.9-.4.9-.2,0-.5-.4-.5-.9,0-.5.2-.9.4-.9.2,0,.5.4.5.9Z"/><path class="cls-11" d="m275.1,708.5c0,.5-.2.9-.4.9-.2,0-.5-.4-.5-.9s.2-.9.4-.9c.2,0,.5.4.5.9Z"/><path class="cls-11" d="m275.1,709.5c0,.5-.2.9-.4.9-.2,0-.5-.4-.5-.9,0-.5.2-.9.4-.9.2,0,.5.4.5.9Z"/><path class="cls-11" d="m276.4,708.4c0,.5-.2.9-.4.9-.2,0-.5-.4-.5-.9s.2-.9.4-.9c.2,0,.5.4.5.9Z"/><path class="cls-11" d="m276.4,709.5c0,.5-.2.9-.4.9-.2,0-.5-.4-.5-.9s.2-.9.4-.9c.2,0,.5.4.5.9Z"/><path class="cls-11" d="m277.7,708.4c0,.5-.2.9-.4.9-.2,0-.5-.4-.5-.9s.2-.9.4-.9c.2,0,.5.4.5.9Z"/><path class="cls-11" d="m277.7,709.5c0,.5-.2.9-.4.9-.2,0-.5-.4-.5-.9s.2-.9.4-.9c.2,0,.5.4.5.9Z"/><path class="cls-11" d="m279,708.4c0,.5-.2.9-.4.9-.2,0-.5-.4-.5-.9,0-.5.2-.9.4-.9.2,0,.5.4.5.9Z"/><path class="cls-11" d="m279,709.4c0,.5-.2.9-.4.9-.2,0-.5-.4-.5-.9,0-.5.2-.9.4-.9.2,0,.5.4.5.9Z"/><path class="cls-11" d="m280.3,708.3c0,.5-.2.9-.4.9-.2,0-.5-.4-.5-.9,0-.5.2-.9.4-.9.2,0,.5.4.5.9Z"/><path class="cls-11" d="m280.3,709.4c0,.5-.2.9-.4.9-.2,0-.5-.4-.5-.9,0-.5.2-.9.4-.9.2,0,.5.4.5.9Z"/><path class="cls-11" d="m281.6,708.3c0,.5-.2.9-.4.9-.2,0-.5-.4-.5-.9,0-.5.2-.9.4-.9.2,0,.5.4.5.9Z"/><path class="cls-11" d="m281.6,709.4c0,.5-.2.9-.4.9-.2,0-.5-.4-.5-.9s.2-.9.4-.9c.2,0,.5.4.5.9Z"/><path class="cls-11" d="m282.9,708.2c0,.5-.2.9-.4.9-.2,0-.5-.4-.5-.9,0-.5.2-.9.4-.9.2,0,.5.4.5.9Z"/><path class="cls-11" d="m282.9,709.3c0,.5-.2.9-.4.9-.2,0-.5-.4-.5-.9,0-.5.2-.9.4-.9.2,0,.5.4.5.9Z"/><path class="cls-11" d="m284.2,708.2c0,.5-.2.9-.4.9-.2,0-.5-.4-.5-.9,0-.5.2-.9.4-.9.2,0,.5.4.5.9Z"/><path class="cls-11" d="m284.2,709.3c0,.5-.2.9-.4.9-.2,0-.5-.4-.5-.9,0-.5.2-.9.4-.9.2,0,.5.4.5.9Z"/><path class="cls-11" d="m285.5,708.2c0,.5-.2.9-.4.9s-.5-.4-.5-.9c0-.5.2-.9.4-.9.2,0,.5.4.5.9Z"/><path class="cls-11" d="m285.5,709.3c0,.5-.2.9-.4.9-.2,0-.5-.4-.5-.9,0-.5.2-.9.4-.9.2,0,.5.4.5.9Z"/><path class="cls-11" d="m286.7,708.1c0,.5-.2.9-.4.9-.2,0-.5-.4-.5-.9s.2-.9.4-.9c.2,0,.5.4.5.9Z"/><path class="cls-11" d="m286.8,709.2c0,.5-.2.9-.4.9-.2,0-.5-.4-.5-.9s.2-.9.4-.9c.2,0,.5.4.5.9Z"/><path class="cls-11" d="m288,708.1c0,.5-.2.9-.4.9s-.5-.4-.5-.9.2-.9.4-.9.5.4.5.9Z"/><path class="cls-11" d="m288.1,709.2c0,.5-.2.9-.4.9s-.5-.4-.5-.9.2-.9.4-.9.5.4.5.9Z"/><path class="cls-11" d="m289.3,708c0,.5-.2.9-.4.9s-.5-.4-.5-.9.2-.9.4-.9c.2,0,.5.4.5.9Z"/><path class="cls-11" d="m289.4,709.1c0,.5-.2.9-.4.9s-.5-.4-.5-.9.2-.9.4-.9.5.4.5.9Z"/><path class="cls-11" d="m290.6,708c0,.5-.2.9-.4.9s-.5-.4-.5-.9.2-.9.4-.9.5.4.5.9Z"/><path class="cls-11" d="m290.7,709c0,.5-.2.9-.4.9s-.5-.4-.5-.9.2-.9.4-.9.5.4.5.9Z"/><path class="cls-11" d="m291.9,707.9c0,.5-.2.9-.4.9s-.5-.4-.5-.9.2-.9.4-.9.5.4.5.9Z"/><path class="cls-11" d="m292,709c0,.5-.2.9-.4.9s-.5-.4-.5-.9.2-.9.4-.9.5.4.5.9Z"/><path class="cls-11" d="m293.2,707.8c0,.5-.2.9-.4.9s-.5-.4-.5-.9.2-.9.4-.9.5.4.5.9Z"/><path class="cls-11" d="m293.3,708.9c0,.5-.2.9-.4.9s-.5-.4-.5-.9.2-.9.4-.9.5.4.5.9Z"/><path class="cls-11" d="m294.5,707.8c0,.5-.2.9-.4.9s-.5-.4-.5-.9c0-.5.2-.9.4-.9s.5.4.5.9Z"/><path class="cls-11" d="m294.5,708.8c0,.5-.2.9-.4.9s-.5-.4-.5-.9c0-.5.2-.9.4-.9s.5.4.5.9Z"/><path class="cls-11" d="m295.8,707.7c0,.5-.2.9-.4.9s-.5-.4-.5-.9c0-.5.2-.9.4-.9s.5.4.5.9Z"/><path class="cls-11" d="m295.8,708.8c0,.5-.2.9-.4.9s-.5-.4-.5-.9c0-.5.2-.9.4-.9s.5.4.5.9Z"/><path class="cls-11" d="m297.1,707.6c0,.5-.2.9-.4.9s-.5-.4-.5-.9.2-.9.4-.9c.2,0,.5.4.5.9Z"/><path class="cls-11" d="m297.1,708.7c0,.5-.2.9-.4.9s-.5-.4-.5-.9.2-.9.4-.9.5.4.5.9Z"/><path class="cls-11" d="m298.4,707.6c0,.5-.1.9-.4.9s-.5-.4-.5-.9.1-.9.4-.9c.2,0,.5.4.5.9Z"/><path class="cls-11" d="m298.4,708.6c0,.5-.1.9-.4.9-.2,0-.5-.4-.5-.9s.1-.9.4-.9c.2,0,.5.4.5.9Z"/><path class="cls-11" d="m299.7,707.5c0,.5-.1.9-.4.9-.2,0-.5-.4-.5-.9s.1-.9.4-.9c.2,0,.5.4.5.9Z"/><path class="cls-11" d="m299.7,708.6c0,.5-.1.9-.4.9-.2,0-.5-.4-.5-.9,0-.5.1-.9.4-.9.2,0,.5.4.5.9Z"/><path class="cls-11" d="m300.9,707.4c0,.5-.1.9-.4.9-.2,0-.5-.4-.5-.9,0-.5.1-.9.4-.9.2,0,.5.4.5.9Z"/><path class="cls-11" d="m301,708.5c0,.5-.1.9-.4.9-.2,0-.5-.4-.5-.9,0-.5.1-.9.4-.9.2,0,.5.4.5.9Z"/><path class="cls-11" d="m302.2,707.4c0,.5-.1.9-.4.9-.2,0-.5-.4-.5-.9s.1-.9.4-.9c.2,0,.5.4.5.9Z"/><path class="cls-11" d="m302.3,708.4c0,.5-.1.9-.4.9-.2,0-.5-.4-.5-.9s.1-.9.4-.9c.2,0,.5.4.5.9Z"/><path class="cls-11" d="m303.5,707.3c0,.5-.1.9-.4.9-.2,0-.5-.4-.5-.9s.1-.9.4-.9c.2,0,.5.4.5.9Z"/><path class="cls-11" d="m303.6,708.4c0,.5-.1.9-.4.9-.2,0-.5-.4-.5-.9s.1-.9.4-.9c.2,0,.5.4.5.9Z"/><path class="cls-11" d="m304.8,707.2c0,.5-.1.9-.4.9s-.5-.4-.5-.9.1-.9.4-.9c.2,0,.5.4.5.9Z"/><path class="cls-11" d="m304.9,708.3c0,.5-.1.9-.4.9s-.5-.4-.5-.9.1-.9.4-.9c.2,0,.5.4.5.9Z"/><path class="cls-11" d="m306.1,707.1c0,.5-.1.9-.4.9s-.5-.4-.5-.9.1-.9.4-.9.5.4.5.9Z"/><path class="cls-11" d="m306.2,708.2c0,.5-.1.9-.4.9s-.5-.4-.5-.9.1-.9.4-.9.5.4.5.9Z"/><path class="cls-11" d="m307.4,707c0,.5-.1.9-.4.9s-.5-.4-.5-.9.1-.9.4-.9.5.4.5.9Z"/><path class="cls-11" d="m307.5,708.1c0,.5-.1.9-.4.9s-.5-.4-.5-.9.1-.9.4-.9.5.4.5.9Z"/><path class="cls-11" d="m308.7,706.9c0,.5-.1.9-.4.9s-.5-.4-.5-.9.1-.9.4-.9.5.4.5.9Z"/><path class="cls-11" d="m308.8,708c0,.5-.1.9-.4.9s-.5-.4-.5-.9.1-.9.4-.9.5.4.5.9Z"/><path class="cls-11" d="m310,706.8c0,.5-.1.9-.4.9s-.5-.4-.5-.9.1-.9.4-.9.5.4.5.9Z"/><path class="cls-11" d="m310.1,707.9c0,.5-.1.9-.4.9s-.5-.4-.5-.9c0-.5.1-.9.4-.9s.5.4.5.9Z"/><path class="cls-11" d="m311.3,706.7c0,.5-.1.9-.4.9s-.5-.4-.5-.9c0-.5.1-.9.4-.9s.5.4.5.9Z"/><path class="cls-11" d="m311.3,707.8c0,.5-.1.9-.4.9s-.5-.4-.5-.9c0-.5.1-.9.4-.9s.5.4.5.9Z"/><path class="cls-11" d="m312.6,706.6c0,.5-.1.9-.4.9s-.5-.4-.5-.9c0-.5.1-.9.4-.9.2,0,.5.4.5.9Z"/><path class="cls-11" d="m312.6,707.7c0,.5-.1.9-.4.9s-.5-.4-.5-.9c0-.5.1-.9.4-.9s.5.4.5.9h0Z"/><path class="cls-11" d="m313.8,706.6c0,.5-.1.9-.4.9s-.5-.4-.5-.9c0-.5.1-.9.4-.9s.5.4.5.9Z"/><path class="cls-11" d="m313.9,707.6c0,.5-.1.9-.4.9s-.5-.4-.5-.9c0-.5.1-.9.4-.9s.5.4.5.9Z"/><path class="cls-11" d="m315.1,706.5c0,.5-.1.9-.4.9s-.5-.4-.5-.9c0-.5.1-.9.4-.9s.5.4.5.9Z"/><path class="cls-11" d="m315.2,707.5c0,.5-.1.9-.4.9s-.5-.4-.5-.9c0-.5.1-.9.4-.9s.5.4.5.9Z"/><path class="cls-11" d="m316.4,706.4c0,.5-.1.9-.4.9s-.5-.4-.5-.9c0-.5.1-.9.4-.9s.5.4.5.9Z"/><path class="cls-11" d="m316.5,707.4c0,.5-.1.9-.4.9s-.5-.4-.5-.9c0-.5.1-.9.4-.9s.5.4.5.9Z"/><path class="cls-11" d="m317.7,706.3c0,.5-.1.9-.4.9s-.5-.4-.5-.9c0-.5.1-.9.4-.9s.5.4.5.9Z"/><path class="cls-11" d="m317.8,707.3c0,.5-.1.9-.4.9s-.5-.4-.5-.9c0-.5.1-.9.4-.9s.5.4.5.9Z"/><path class="cls-11" d="m319,706.2c0,.5-.1.9-.4.9s-.5-.4-.5-.9.1-.9.4-.9.5.4.5.9Z"/><path class="cls-11" d="m319.1,707.2c0,.5-.1.9-.4.9s-.5-.4-.5-.9.1-.9.4-.9.5.4.5.9Z"/><path class="cls-11" d="m320.3,706.1c0,.5-.1.9-.4.9s-.5-.4-.5-.9.1-.9.4-.9c.2,0,.5.4.5.9Z"/><path class="cls-11" d="m320.4,707.1c0,.5-.1.9-.4.9s-.5-.4-.5-.9.1-.9.4-.9.5.4.5.9Z"/><path class="cls-11" d="m321.6,706c0,.5-.1.9-.4,1-.2,0-.5-.4-.5-.9s.1-.9.4-1c.2,0,.5.4.5.9Z"/><path class="cls-11" d="m321.7,707c0,.5-.1.9-.4,1-.2,0-.5-.4-.5-.9s.1-.9.4-1c.2,0,.5.4.5.9Z"/><path class="cls-11" d="m322.9,705.8c0,.5-.1.9-.4,1-.2,0-.5-.4-.5-.9s.1-.9.4-1c.2,0,.5.4.5.9Z"/><path class="cls-11" d="m323,706.9c0,.5-.1.9-.4,1-.2,0-.5-.4-.5-.9s.1-.9.4-1c.2,0,.5.4.5.9Z"/><path class="cls-11" d="m324.2,705.7c0,.5-.1.9-.4,1-.2,0-.5-.4-.5-.9s.1-.9.4-1c.2,0,.5.4.5.9Z"/><path class="cls-11" d="m324.2,706.8c0,.5-.1.9-.4,1-.2,0-.5-.4-.5-.9s.1-.9.4-1c.2,0,.5.4.5.9Z"/><path class="cls-11" d="m325.4,705.6c0,.5-.1.9-.4,1-.2,0-.5-.4-.5-.9,0-.5.1-.9.4-1,.2,0,.5.4.5.9Z"/><path class="cls-11" d="m325.5,706.6c0,.5-.1.9-.4,1-.2,0-.5-.4-.5-.9,0-.5.1-.9.4-1,.2,0,.5.4.5.9Z"/><path class="cls-11" d="m326.7,705.5c0,.5-.1.9-.4,1-.2,0-.5-.4-.5-.9,0-.5.1-.9.4-1,.2,0,.5.4.5.9Z"/><path class="cls-11" d="m326.8,706.5c0,.5-.1.9-.4,1-.2,0-.5-.4-.5-.9,0-.5.1-.9.4-1,.2,0,.5.4.5.9Z"/><path class="cls-11" d="m328,705.3c0,.5-.1.9-.4,1-.2,0-.5-.4-.5-.9,0-.5.1-.9.4-1,.2,0,.5.4.5.9Z"/><path class="cls-11" d="m328.1,706.4c0,.5-.1.9-.4,1-.2,0-.5-.4-.5-.9,0-.5.1-.9.4-1,.2,0,.5.4.5.9Z"/><path class="cls-11" d="m329.3,705.2c0,.5-.1.9-.4,1-.2,0-.5-.4-.5-.9,0-.5.1-.9.4-1,.2,0,.5.4.5.9Z"/><path class="cls-11" d="m329.4,706.3c0,.5-.1.9-.4,1-.2,0-.5-.4-.5-.9,0-.5.1-.9.4-1,.2,0,.5.4.5.9Z"/><path class="cls-11" d="m330.6,705.1c0,.5-.1.9-.4,1-.2,0-.5-.4-.5-.9,0-.5.1-.9.4-1,.2,0,.5.4.5.9Z"/><path class="cls-11" d="m330.7,706.1c0,.5-.1.9-.4,1s-.5-.4-.5-.9c0-.5.1-.9.4-1,.2,0,.5.4.5.9Z"/><path class="cls-11" d="m331.9,704.9c0,.5-.1.9-.4,1-.2,0-.5-.4-.5-.9,0-.5.1-.9.4-1,.2,0,.5.4.5.9Z"/><path class="cls-11" d="m332,706c0,.5-.1.9-.4,1s-.5-.4-.5-.9c0-.5.1-.9.4-1,.2,0,.5.4.5.9Z"/><path class="cls-11" d="m333.2,704.8c0,.5-.1.9-.4,1-.2,0-.5-.4-.5-.9,0-.5.1-.9.4-1,.2,0,.5.4.5.9Z"/><path class="cls-11" d="m333.3,705.9c0,.5-.1.9-.4,1-.2,0-.5-.4-.5-.9,0-.5.1-.9.4-1,.2,0,.5.4.5.9Z"/><path class="cls-11" d="m334.4,704.7c0,.5-.1.9-.4,1-.2,0-.5-.4-.5-.9,0-.5.1-.9.4-1,.2,0,.5.4.5.9Z"/><path class="cls-11" d="m334.6,705.8c0,.5-.1.9-.4,1-.2,0-.5-.4-.5-.9,0-.5.1-.9.4-1,.2,0,.5.4.5.9Z"/><path class="cls-11" d="m335.7,704.6c0,.5-.1.9-.4,1-.2,0-.5-.4-.5-.9,0-.5.1-.9.4-1,.2,0,.5.4.5.9Z"/><path class="cls-11" d="m335.8,705.6c0,.5-.1.9-.4,1-.2,0-.5-.4-.5-.9,0-.5.1-.9.4-1,.2,0,.5.4.5.9Z"/><path class="cls-11" d="m337,704.4c0,.5-.1.9-.4,1-.2,0-.5-.4-.5-.9s.1-.9.4-1c.2,0,.5.4.5.9Z"/><path class="cls-11" d="m337.1,705.5c0,.5-.1.9-.4,1-.2,0-.5-.4-.5-.9s.1-.9.4-1c.2,0,.5.4.5.9Z"/><path class="cls-11" d="m338.3,704.3c0,.5-.1.9-.4,1-.2,0-.5-.4-.5-.9s.1-.9.4-1c.2,0,.5.4.5.8h0Z"/><path class="cls-11" d="m338.4,705.4c0,.5-.1.9-.4,1-.2,0-.5-.4-.5-.9s.1-.9.4-1c.2,0,.5.4.5.8h0Z"/><path class="cls-11" d="m339.6,704.1c0,.5-.1.9-.4,1s-.5-.3-.5-.8c0-.5.1-.9.4-1s.5.3.5.8Z"/><path class="cls-11" d="m339.7,705.2c0,.5-.1.9-.4,1s-.5-.3-.5-.8c0-.5.1-.9.4-1s.5.3.5.8Z"/><path class="cls-11" d="m340.9,704c0,.5-.1.9-.4,1s-.5-.3-.5-.8c0-.5.1-.9.4-1s.5.3.5.8Z"/><path class="cls-11" d="m341,705.1c0,.5-.1.9-.4,1s-.5-.3-.5-.8c0-.5.1-.9.4-1s.5.3.5.8Z"/><path class="cls-11" d="m342.2,703.8c0,.5-.1.9-.3,1-.2,0-.5-.3-.5-.8,0-.5.1-.9.3-1,.2,0,.5.3.5.8Z"/><path class="cls-11" d="m342.3,704.9c0,.5-.1.9-.4,1s-.5-.3-.5-.8c0-.5.1-.9.4-1s.5.3.5.8Z"/><path class="cls-11" d="m343.4,703.7c0,.5,0,.9-.3,1-.2,0-.5-.3-.6-.8s.1-.9.3-1c.2,0,.5.3.6.8Z"/><path class="cls-11" d="m343.6,704.7c0,.5,0,.9-.3,1-.2,0-.5-.3-.6-.8,0-.5.1-.9.3-1,.2,0,.5.3.6.8Z"/><path class="cls-11" d="m344.7,703.5c0,.5,0,.9-.3,1-.2,0-.5-.3-.6-.8,0-.5,0-.9.3-1,.2,0,.5.3.6.8Z"/><path class="cls-11" d="m344.8,704.6c0,.5,0,.9-.3,1-.2,0-.5-.3-.6-.8,0-.5,0-.9.3-1,.2,0,.5.3.6.8Z"/><path class="cls-11" d="m346,703.4c0,.5,0,.9-.3,1-.2,0-.5-.3-.6-.8,0-.5,0-.9.3-1,.2,0,.5.3.6.8Z"/><path class="cls-11" d="m346.1,704.4c0,.5,0,.9-.3,1-.2,0-.5-.3-.6-.8,0-.5,0-.9.3-1,.2,0,.5.3.6.8Z"/><path class="cls-11" d="m347.3,703.2c0,.5,0,.9-.3,1s-.5-.3-.6-.8c0-.5,0-.9.3-1,.2,0,.5.3.6.8h0Z"/><path class="cls-11" d="m347.4,704.3c0,.5,0,.9-.3,1-.2,0-.5-.3-.6-.8,0-.5,0-.9.3-1,.2,0,.5.3.6.8Z"/><path class="cls-11" d="m348.6,703c0,.5,0,.9-.3,1s-.5-.3-.6-.8,0-.9.3-1,.5.3.6.8Z"/><path class="cls-11" d="m348.7,704.1c0,.5,0,.9-.3,1s-.5-.3-.6-.8c0-.5,0-.9.3-1,.2,0,.5.3.6.8h0Z"/><path class="cls-11" d="m349.8,702.9c0,.5,0,.9-.3,1-.2,0-.5-.3-.6-.8,0-.5,0-.9.3-1,.2,0,.5.3.6.8Z"/><path class="cls-11" d="m350,703.9c0,.5,0,.9-.3,1s-.5-.3-.6-.8c0-.5,0-.9.3-1s.5.3.6.8Z"/><path class="cls-11" d="m351.1,702.7c0,.5,0,.9-.3,1s-.5-.3-.6-.8c0-.5,0-.9.3-1,.2,0,.5.3.6.8Z"/><path class="cls-11" d="m351.3,703.8c0,.5,0,.9-.3,1s-.5-.3-.6-.8c0-.5,0-.9.3-1,.2,0,.5.3.6.8Z"/><path class="cls-11" d="m352.4,702.6c0,.5,0,.9-.3,1s-.5-.3-.6-.8c0-.5,0-.9.3-1s.5.3.6.8Z"/><path class="cls-11" d="m352.6,703.6c0,.5,0,.9-.3,1s-.5-.3-.6-.8c0-.5,0-.9.3-1s.5.3.6.8Z"/><path class="cls-11" d="m353.7,702.4c0,.5,0,.9-.3,1s-.5-.3-.6-.8c0-.5,0-.9.3-1s.5.3.6.8Z"/><path class="cls-11" d="m353.8,703.5c0,.5,0,.9-.3,1s-.5-.3-.6-.8c0-.5,0-.9.3-1s.5.3.6.8Z"/><path class="cls-11" d="m355,702.2c0,.5,0,.9-.3,1s-.5-.3-.6-.8c0-.5,0-.9.3-1s.5.3.6.8Z"/><path class="cls-11" d="m355.1,703.3c0,.5,0,.9-.3,1s-.5-.3-.6-.8c0-.5,0-.9.3-1s.5.3.6.8Z"/><path class="cls-11" d="m356.3,702.1c0,.5,0,.9-.3,1s-.5-.3-.6-.8c0-.5,0-.9.3-1s.5.3.6.8h0Z"/><path class="cls-11" d="m356.4,703.1c0,.5,0,.9-.3,1s-.5-.3-.6-.8c0-.5,0-.9.3-1s.5.3.6.8h0Z"/><path class="cls-11" d="m357.5,701.9c0,.5,0,.9-.3,1-.2,0-.5-.3-.6-.8s0-.9.3-1c.2,0,.5.3.6.8Z"/><path class="cls-11" d="m357.7,702.9c0,.5,0,.9-.3,1-.2,0-.5-.3-.6-.8s0-.9.3-1c.2,0,.5.3.6.8Z"/><path class="cls-11" d="m358.8,701.7c0,.5,0,.9-.3,1-.2,0-.5-.3-.6-.8s0-.9.3-1c.2,0,.5.3.6.8Z"/><path class="cls-11" d="m359,702.8c0,.5,0,.9-.3,1-.2,0-.5-.3-.6-.8s0-.9.3-1c.2,0,.5.3.6.8Z"/><path class="cls-11" d="m360.1,701.5c0,.5,0,.9-.3,1-.2,0-.5-.3-.6-.8s0-.9.3-1c.2,0,.5.3.6.8Z"/><path class="cls-11" d="m360.3,702.6c0,.5,0,.9-.3,1-.2,0-.5-.3-.6-.8,0-.5,0-.9.3-1,.2,0,.5.3.6.8Z"/><path class="cls-11" d="m361.4,701.3c0,.5,0,.9-.3,1-.2,0-.5-.3-.6-.8,0-.5,0-.9.3-1,.2,0,.5.3.6.8Z"/><path class="cls-11" d="m361.5,702.4c0,.5,0,.9-.3,1-.2,0-.5-.3-.6-.8,0-.5,0-.9.3-1,.2,0,.5.3.6.8Z"/><path class="cls-11" d="m362.7,701.1c0,.5,0,.9-.3,1-.2,0-.5-.3-.6-.8,0-.5,0-.9.3-1,.2,0,.5.3.6.8Z"/><path class="cls-11" d="m362.8,702.2c0,.5,0,.9-.3,1-.2,0-.5-.3-.6-.8,0-.5,0-.9.3-1,.2,0,.5.3.6.8Z"/><path class="cls-11" d="m363.9,700.9c0,.5,0,.9-.3,1-.2,0-.5-.3-.6-.8,0-.5,0-.9.3-1,.2,0,.5.3.6.8Z"/><path class="cls-11" d="m364.1,702c0,.5,0,.9-.3,1-.2,0-.5-.3-.6-.8,0-.5,0-.9.3-1,.2,0,.5.3.6.8Z"/><path class="cls-11" d="m365.2,700.7c0,.5,0,.9-.3,1-.2,0-.5-.3-.6-.8,0-.5,0-.9.3-1,.2,0,.5.3.6.8Z"/><path class="cls-11" d="m365.4,701.8c0,.5,0,.9-.3,1-.2,0-.5-.3-.6-.8,0-.5,0-.9.3-1,.2,0,.5.3.6.8Z"/><path class="cls-11" d="m366.5,700.5c0,.5,0,.9-.3,1-.2,0-.5-.3-.6-.8,0-.5,0-.9.3-1,.2,0,.5.3.6.8Z"/><path class="cls-11" d="m366.7,701.6c0,.5,0,.9-.3,1-.2,0-.5-.3-.6-.8,0-.5,0-.9.3-1,.2,0,.5.3.6.8Z"/><path class="cls-11" d="m367.8,700.3c0,.5,0,.9-.3,1-.2,0-.5-.3-.6-.8,0-.5,0-.9.3-1,.2,0,.5.3.6.8Z"/><path class="cls-11" d="m367.9,701.4c0,.5,0,.9-.3,1-.2,0-.5-.3-.6-.8,0-.5,0-.9.3-1,.2,0,.5.3.6.8Z"/><path class="cls-11" d="m369,700.1c0,.5,0,.9-.3,1-.2,0-.5-.3-.6-.8,0-.5,0-.9.3-1,.2,0,.5.3.6.8Z"/><path class="cls-11" d="m369.2,701.2c0,.5,0,.9-.3,1-.2,0-.5-.3-.6-.8,0-.5,0-.9.3-1,.2,0,.5.3.6.8Z"/><path class="cls-11" d="m370.3,700c0,.5,0,.9-.3,1-.2,0-.5-.3-.6-.8,0-.5,0-.9.3-1,.2,0,.5.3.6.8Z"/><path class="cls-11" d="m370.5,701c0,.5,0,.9-.3,1-.2,0-.5-.3-.6-.8,0-.5,0-.9.3-1,.2,0,.5.3.6.8Z"/><path class="cls-11" d="m371.6,699.8c0,.5,0,.9-.3,1-.2,0-.5-.3-.6-.8,0-.5,0-.9.3-1,.2,0,.5.3.6.8Z"/><path class="cls-11" d="m371.8,700.8c0,.5,0,.9-.3,1-.2,0-.5-.3-.6-.8,0-.5,0-.9.3-1,.2,0,.5.3.6.8Z"/><path class="cls-11" d="m372.9,699.6c0,.5,0,.9-.3,1-.2,0-.5-.3-.6-.8s0-.9.3-1c.2,0,.5.3.6.8Z"/><path class="cls-11" d="m373.1,700.6c0,.5,0,.9-.3,1-.2,0-.5-.3-.6-.8,0-.5,0-.9.3-1,.2,0,.5.3.6.8Z"/><path class="cls-11" d="m374.2,699.4c0,.5,0,.9-.3,1-.2,0-.5-.3-.6-.8,0-.5,0-.9.3-1,.2,0,.5.3.6.8Z"/><path class="cls-11" d="m374.3,700.4c0,.5,0,.9-.3,1-.2,0-.5-.3-.6-.8,0-.5,0-.9.3-1,.2,0,.5.3.6.8Z"/><path class="cls-11" d="m375.4,699.2c0,.5,0,.9-.3,1s-.5-.3-.6-.8,0-.9.3-1,.5.3.6.8Z"/><path class="cls-11" d="m375.6,700.2c0,.5,0,.9-.3,1s-.5-.3-.6-.8,0-.9.3-1,.5.3.6.8Z"/><path class="cls-11" d="m376.7,698.9c0,.5,0,.9-.3,1s-.5-.3-.6-.8,0-.9.3-1,.5.3.6.8Z"/><path class="cls-11" d="m376.9,700c0,.5,0,.9-.3,1s-.5-.3-.6-.8,0-.9.3-1,.5.3.6.8Z"/><path class="cls-11" d="m378,698.7c0,.5,0,.9-.3,1-.2,0-.5-.3-.6-.8,0-.5,0-.9.3-1,.2,0,.5.3.6.8Z"/><path class="cls-11" d="m378.2,699.8c0,.5,0,.9-.3,1s-.5-.3-.6-.8c0-.5,0-.9.3-1s.5.3.6.8Z"/><path class="cls-11" d="m379.3,698.5c0,.5,0,.9-.3,1-.2,0-.5-.3-.6-.8s0-.9.3-1c.2,0,.5.3.6.8Z"/><path class="cls-11" d="m379.4,699.5c0,.5,0,.9-.3,1-.2,0-.5-.3-.6-.8,0-.5,0-.9.3-1,.2,0,.5.3.6.8Z"/><path class="cls-11" d="m380.5,698.3c0,.5,0,.9-.3,1-.2,0-.5-.3-.6-.8,0-.5,0-.9.3-1,.2,0,.5.3.6.8Z"/><path class="cls-11" d="m380.7,699.3c0,.5,0,.9-.3,1-.2,0-.5-.3-.6-.8,0-.5,0-.9.3-1,.2,0,.5.3.6.8Z"/><path class="cls-11" d="m381.8,698c0,.5,0,.9-.3,1s-.5-.3-.6-.8c0-.5,0-.9.3-1s.5.3.6.8Z"/><path class="cls-11" d="m382,699.1c0,.5,0,.9-.3,1s-.5-.3-.6-.8c0-.5,0-.9.3-1s.5.3.6.8Z"/><path class="cls-11" d="m383.1,697.8c0,.5,0,.9-.3,1s-.5-.3-.6-.8c0-.5,0-.9.3-1s.5.3.6.8Z"/><path class="cls-11" d="m383.3,698.9c0,.5,0,.9-.3,1s-.5-.3-.6-.8c0-.5,0-.9.3-1s.5.3.6.8Z"/><path class="cls-11" d="m384.3,697.6c0,.5,0,.9-.3,1s-.5-.3-.6-.8c0-.5,0-.9.3-1s.5.3.6.8Z"/><path class="cls-11" d="m384.5,698.6c0,.5,0,.9-.3,1s-.5-.3-.6-.8c0-.5,0-.9.3-1s.5.3.6.8Z"/><path class="cls-11" d="m385.6,697.4c0,.5,0,.9-.3,1s-.5-.3-.6-.8,0-.9.3-1,.5.3.6.8Z"/><path class="cls-11" d="m385.8,698.4c0,.5,0,.9-.3,1s-.5-.3-.6-.8,0-.9.3-1,.5.3.6.8Z"/><path class="cls-11" d="m386.9,697.1c0,.5,0,.9-.3,1-.2,0-.5-.3-.6-.8s0-.9.3-1c.2,0,.5.3.6.8Z"/><path class="cls-11" d="m387.1,698.2c0,.5,0,.9-.3,1-.2,0-.5-.3-.6-.8s0-.9.3-1c.2,0,.5.3.6.8Z"/><path class="cls-11" d="m388.2,696.9c0,.5,0,.9-.3,1-.2,0-.5-.3-.6-.8s0-.9.3-1c.2,0,.5.3.6.8Z"/><path class="cls-11" d="m388.4,698c0,.5,0,.9-.3,1-.2,0-.5-.3-.6-.8s0-.9.3-1c.2,0,.5.3.6.8Z"/><path class="cls-11" d="m389.4,696.7c0,.5,0,.9-.3,1s-.5-.3-.6-.8,0-.9.3-1,.5.3.6.8Z"/><path class="cls-11" d="m389.6,697.7c0,.5,0,.9-.3,1s-.5-.3-.6-.8,0-.9.3-1,.5.3.6.8Z"/><path class="cls-11" d="m390.7,696.4c0,.5,0,.9-.3,1s-.5-.3-.6-.8,0-.9.3-1,.5.3.6.8Z"/><path class="cls-11" d="m390.9,697.5c0,.5,0,.9-.3,1s-.5-.3-.6-.8,0-.9.3-1,.5.3.6.8Z"/><path class="cls-11" d="m392,696.2c0,.5,0,.9-.3,1s-.5-.3-.6-.8,0-.9.3-1,.5.3.6.8Z"/><path class="cls-11" d="m392.2,697.3c0,.5,0,.9-.3,1s-.5-.3-.6-.8,0-.9.3-1,.5.3.6.8Z"/><path class="cls-11" d="m393.3,696c0,.5,0,.9-.3,1s-.5-.3-.6-.8c0-.5,0-.9.3-1s.5.3.6.8Z"/><path class="cls-11" d="m393.5,697c0,.5,0,.9-.3,1s-.5-.3-.6-.8c0-.5,0-.9.3-1s.5.3.6.8Z"/><path class="cls-11" d="m394.5,695.7c.1.5,0,.9-.3,1s-.5-.3-.6-.8,0-.9.3-1,.5.3.6.8Z"/><path class="cls-11" d="m394.7,696.8c.1.5,0,.9-.3,1-.2,0-.5-.3-.6-.8,0-.5,0-.9.3-1s.5.3.6.8Z"/><path class="cls-11" d="m395.8,695.5c.1.5,0,.9-.3,1s-.5-.3-.6-.8,0-.9.3-1,.5.3.6.8Z"/><path class="cls-11" d="m396,696.5c.1.5,0,.9-.3,1s-.5-.3-.6-.8,0-.9.3-1,.5.3.6.8Z"/><path class="cls-11" d="m397.1,695.2c.1.5,0,.9-.3,1-.2,0-.5-.3-.6-.8s0-.9.3-1c.2,0,.5.3.6.8Z"/><path class="cls-11" d="m397.3,696.3c.1.5,0,.9-.3,1s-.5-.3-.6-.8,0-.9.3-1c.2,0,.5.3.6.8Z"/><path class="cls-11" d="m398.3,695c.1.5,0,.9-.3,1s-.5-.3-.6-.8,0-.9.3-1,.5.3.6.8Z"/><path class="cls-11" d="m398.5,696c.1.5,0,.9-.3,1s-.5-.3-.6-.8,0-.9.3-1c.2,0,.5.3.6.8Z"/><path class="cls-11" d="m399.6,694.7c.1.5,0,.9-.3,1-.2,0-.5-.3-.6-.8s0-.9.3-1c.2,0,.5.3.6.8Z"/><path class="cls-11" d="m399.8,695.7c.1.5,0,.9-.3,1s-.5-.3-.6-.8,0-.9.3-1c.2,0,.5.3.6.8Z"/><path class="cls-11" d="m400.9,694.4c.1.5,0,.9-.3,1-.2,0-.5-.3-.6-.8s0-.9.3-1c.2,0,.5.3.6.8Z"/><path class="cls-11" d="m401.1,695.5c.1.5,0,.9-.3,1-.2,0-.5-.3-.6-.8s0-.9.3-1c.2,0,.5.3.6.8Z"/><path class="cls-11" d="m402.1,694.2c.1.5,0,.9-.3,1-.2,0-.5-.3-.6-.8s0-.9.3-1c.2,0,.5.3.6.8Z"/><path class="cls-11" d="m402.3,695.2c.1.5,0,.9-.3,1s-.5-.3-.6-.8c-.1-.5,0-.9.3-1,.2,0,.5.3.6.8Z"/><path class="cls-11" d="m403.4,693.9c.1.5,0,.9-.3,1s-.5-.3-.6-.8,0-.9.3-1c.2,0,.5.3.6.8Z"/><path class="cls-11" d="m403.6,695c.1.5,0,.9-.3,1-.2,0-.5-.3-.6-.8s0-.9.3-1c.2,0,.5.3.6.8Z"/><path class="cls-11" d="m404.6,693.6c.1.5,0,.9-.3,1s-.5-.3-.6-.8,0-.9.3-1c.2,0,.5.3.6.8Z"/><path class="cls-11" d="m404.9,694.7c.1.5,0,.9-.3,1s-.5-.3-.6-.8,0-.9.3-1c.2,0,.5.3.6.8Z"/><path class="cls-11" d="m405.9,693.4c.1.5,0,.9-.3,1-.2,0-.5-.3-.6-.8s0-.9.3-1c.2,0,.5.3.6.8Z"/><path class="cls-11" d="m406.1,694.4c.1.5,0,.9-.3,1s-.5-.3-.6-.8,0-.9.3-1c.2,0,.5.3.6.8Z"/><path class="cls-11" d="m407.2,693.1c.1.5,0,.9-.3,1s-.5-.3-.6-.8,0-.9.3-1c.2,0,.5.3.6.8Z"/><path class="cls-11" d="m407.4,694.2c.1.5,0,.9-.3,1s-.5-.3-.6-.8,0-.9.3-1c.2,0,.5.3.6.8Z"/><path class="cls-11" d="m408.4,692.9c.1.5,0,.9-.2,1s-.5-.3-.6-.8c-.1-.5,0-.9.2-1,.2,0,.5.3.6.8h0Z"/><path class="cls-11" d="m408.7,693.9c.1.5,0,.9-.2,1s-.5-.3-.6-.8c-.1-.5,0-.9.2-1,.2,0,.5.3.6.8Z"/><path class="cls-11" d="m409.7,692.6c.1.5,0,.9-.2,1s-.5-.3-.6-.8c-.1-.5,0-.9.2-1,.2,0,.5.3.6.8Z"/><path class="cls-11" d="m409.9,693.7c.1.5,0,.9-.2,1s-.5-.3-.6-.8c-.1-.5,0-.9.2-1,.2,0,.5.3.6.8Z"/><path class="cls-11" d="m411,692.3c.1.5,0,.9-.2,1s-.5-.3-.6-.8c-.1-.5,0-.9.2-1,.2,0,.5.3.6.8Z"/><path class="cls-11" d="m411.2,693.4c.1.5,0,.9-.2,1s-.5-.3-.6-.8c-.1-.5,0-.9.2-1,.2,0,.5.3.6.8Z"/><path class="cls-11" d="m412.2,692.1c.1.5,0,.9-.2,1-.2,0-.5-.3-.6-.8-.1-.5,0-.9.2-1,.2,0,.5.3.6.8Z"/><path class="cls-11" d="m412.5,693.1c.1.5,0,.9-.2,1s-.5-.3-.6-.8c-.1-.5,0-.9.2-1,.2,0,.5.3.6.8Z"/><path class="cls-11" d="m413.5,691.8c.1.5,0,.9-.2,1s-.5-.3-.6-.8c-.1-.5,0-.9.2-1s.5.3.6.8Z"/><path class="cls-11" d="m413.7,692.8c.1.5,0,.9-.2,1-.2,0-.5-.3-.6-.8-.1-.5,0-.9.2-1,.2,0,.5.3.6.8Z"/><path class="cls-11" d="m414.8,691.5c.1.5,0,.9-.2,1s-.5-.3-.6-.8c-.1-.5,0-.9.2-1s.5.3.6.8Z"/><path class="cls-11" d="m415,692.5c.1.5,0,.9-.2,1s-.5-.3-.6-.8c-.1-.5,0-.9.2-1s.5.3.6.8Z"/><path class="cls-11" d="m416,691.2c.1.5,0,.9-.2,1s-.5-.3-.6-.8c-.1-.5,0-.9.2-1s.5.3.6.8Z"/><path class="cls-11" d="m416.3,692.2c.1.5,0,.9-.2,1s-.5-.3-.6-.8c-.1-.5,0-.9.2-1s.5.3.6.8Z"/><path class="cls-11" d="m417.3,690.9c.1.5,0,.9-.2,1s-.5-.3-.6-.8c-.1-.5,0-.9.2-1s.5.3.6.8Z"/><path class="cls-11" d="m417.5,692c.1.5,0,.9-.2,1s-.5-.3-.6-.8c-.1-.5,0-.9.2-1s.5.3.6.8Z"/><path class="cls-11" d="m418.5,690.6c.1.5,0,.9-.2,1s-.5-.3-.6-.8c-.1-.5,0-.9.2-1s.5.3.6.8Z"/><path class="cls-11" d="m418.8,691.7c.1.5,0,.9-.2,1s-.5-.3-.6-.8c-.1-.5,0-.9.2-1s.5.3.6.8Z"/><path class="cls-11" d="m419.8,690.3c.1.5,0,.9-.2,1s-.5-.3-.6-.8c-.1-.5,0-.9.2-1s.5.3.6.8Z"/><path class="cls-11" d="m420,691.4c.1.5,0,.9-.2,1s-.5-.3-.6-.8c-.1-.5,0-.9.2-1s.5.3.6.8Z"/><path class="cls-11" d="m421.1,690c.1.5,0,.9-.2,1-.2,0-.5-.3-.6-.8s0-.9.2-1c.2,0,.5.3.6.8Z"/><path class="cls-11" d="m421.3,691.1c.1.5,0,.9-.2,1s-.5-.3-.6-.8c-.1-.5,0-.9.2-1s.5.3.6.8Z"/><path class="cls-11" d="m422.3,689.7c.1.5,0,.9-.2,1-.2,0-.5-.3-.6-.8-.1-.5,0-.9.2-1,.2,0,.5.3.6.8Z"/><path class="cls-11" d="m422.6,690.8c.1.5,0,.9-.2,1-.2,0-.5-.3-.6-.8-.1-.5,0-.9.2-1,.2,0,.5.3.6.8Z"/><path class="cls-11" d="m423.6,689.4c.1.5,0,.9-.2,1-.2,0-.5-.3-.6-.8-.1-.5,0-.9.2-1,.2,0,.5.3.6.8Z"/><path class="cls-11" d="m423.8,690.5c.1.5,0,.9-.2,1-.2,0-.5-.3-.6-.8-.1-.5,0-.9.2-1,.2,0,.5.3.6.8Z"/><path class="cls-11" d="m424.8,689.1c.1.5,0,.9-.2,1-.2,0-.5-.3-.6-.8-.1-.5,0-.9.2-1,.2,0,.5.3.6.8h0Z"/><path class="cls-11" d="m425.1,690.2c.1.5,0,.9-.2,1-.2,0-.5-.3-.6-.8-.1-.5,0-.9.2-1,.2,0,.5.3.6.8h0Z"/><path class="cls-11" d="m426.1,688.8c.1.5,0,.9-.2,1-.2,0-.5-.3-.6-.8-.1-.5,0-.9.2-1,.2,0,.5.3.6.8Z"/><path class="cls-11" d="m426.3,689.9c.1.5,0,.9-.2,1-.2,0-.5-.3-.6-.8-.1-.5,0-.9.2-1,.2,0,.5.3.6.8Z"/><path class="cls-11" d="m427.3,688.5c.1.5,0,.9-.2,1-.2,0-.5-.3-.6-.8-.1-.5,0-.9.2-1,.2,0,.5.3.6.8Z"/><path class="cls-11" d="m427.6,689.6c.1.5,0,.9-.2,1-.2,0-.5-.3-.6-.8-.1-.5,0-.9.2-1,.2,0,.5.3.6.8Z"/><path class="cls-11" d="m428.6,688.2c.1.5,0,.9-.2,1-.2,0-.5-.3-.7-.8-.1-.5,0-.9.2-1,.2,0,.5.3.7.8Z"/><path class="cls-11" d="m428.9,689.3c.1.5,0,.9-.2,1-.2,0-.5-.3-.7-.8-.1-.5,0-.9.2-1,.2,0,.5.3.7.8Z"/><path class="cls-11" d="m429.9,687.9c.1.5,0,.9-.2,1-.2,0-.5-.3-.7-.8-.1-.5,0-.9.2-1,.2,0,.5.3.7.8Z"/><path class="cls-11" d="m430.1,689c.1.5,0,.9-.2,1-.2,0-.5-.3-.7-.8-.1-.5,0-.9.2-1,.2,0,.5.3.7.8Z"/><path class="cls-11" d="m431.1,687.7c.1.5,0,.9-.2,1-.2,0-.5-.3-.7-.8s0-.9.2-1c.2,0,.5.3.7.8Z"/><path class="cls-11" d="m431.4,688.7c.1.5,0,.9-.2,1-.2,0-.5-.3-.7-.8-.1-.5,0-.9.2-1,.2,0,.5.3.7.8Z"/><path class="cls-11" d="m432.4,687.3c.1.5,0,.9-.2,1-.2,0-.5-.3-.7-.8s0-.9.2-1c.2,0,.5.3.7.8h0Z"/><path class="cls-11" d="m432.6,688.4c.1.5,0,.9-.2,1s-.5-.3-.7-.8,0-.9.2-1c.2,0,.5.3.7.8Z"/><path class="cls-11" d="m433.6,687c.1.5,0,.9-.2,1-.2,0-.5-.3-.7-.8-.1-.5,0-.9.2-1,.2,0,.5.3.7.8Z"/><path class="cls-11" d="m433.9,688c.1.5,0,.9-.2,1-.2,0-.5-.3-.7-.8-.1-.5,0-.9.2-1,.2,0,.5.3.7.8Z"/><path class="cls-11" d="m434.9,686.7c.1.5,0,.9-.2,1s-.5-.3-.7-.8c-.1-.5,0-.9.2-1s.5.3.7.8Z"/><path class="cls-11" d="m435.1,687.7c.1.5,0,.9-.2,1s-.5-.3-.7-.8c-.1-.5,0-.9.2-1s.5.3.7.8Z"/><path class="cls-11" d="m436.1,686.3c.1.5,0,.9-.2,1s-.5-.3-.7-.8,0-.9.2-1,.5.3.7.8Z"/><path class="cls-11" d="m436.4,687.4c.1.5,0,.9-.2,1s-.5-.3-.7-.8,0-.9.2-1,.5.3.7.8Z"/><path class="cls-11" d="m437.4,686c.1.5,0,.9-.2,1s-.5-.3-.7-.8,0-.9.2-1,.5.3.7.8Z"/><path class="cls-11" d="m437.6,687.1c.1.5,0,.9-.2,1s-.5-.3-.7-.8,0-.9.2-1,.5.3.7.8Z"/><path class="cls-11" d="m438.6,685.7c.1.5,0,.9-.2,1s-.5-.3-.7-.8,0-.9.2-1,.5.3.7.8h0Z"/><path class="cls-11" d="m438.9,686.7c.1.5,0,.9-.2,1s-.5-.3-.7-.8,0-.9.2-1,.5.3.7.8Z"/><path class="cls-11" d="m439.9,685.3c.1.5,0,.9-.2,1s-.5-.3-.7-.8,0-.9.2-1,.5.3.7.8Z"/><path class="cls-11" d="m440.1,686.4c.1.5,0,.9-.2,1s-.5-.3-.7-.8,0-.9.2-1,.5.3.7.8Z"/><path class="cls-11" d="m441.1,685c.1.5,0,.9-.2,1-.2,0-.5-.3-.7-.8s0-.9.2-1,.5.3.7.8Z"/><path class="cls-11" d="m441.4,686.1c.1.5,0,.9-.2,1s-.5-.3-.7-.8,0-.9.2-1,.5.3.7.8Z"/><path class="cls-11" d="m442.4,684.7c.1.5,0,.9-.2,1-.2,0-.5-.3-.7-.8s0-.9.2-1c.2,0,.5.3.7.8Z"/><path class="cls-11" d="m442.7,685.7c.1.5,0,.9-.2,1-.2,0-.5-.3-.7-.8s0-.9.2-1c.2,0,.5.3.7.8Z"/><path class="cls-11" d="m443.6,684.4c.1.5,0,.9-.2,1s-.5-.3-.7-.8,0-.9.2-1c.2,0,.5.3.7.8Z"/><path class="cls-11" d="m443.9,685.4c.1.5,0,.9-.2,1-.2,0-.5-.3-.7-.8s0-.9.2-1c.2,0,.5.3.7.8Z"/><path class="cls-11" d="m444.9,684c.1.5,0,.9-.2,1-.2,0-.5-.3-.7-.8s0-.9.2-1c.2,0,.5.3.7.8Z"/><path class="cls-11" d="m445.2,685.1c.1.5,0,.9-.2,1s-.5-.3-.7-.8,0-.9.2-1c.2,0,.5.3.7.8Z"/><path class="cls-11" d="m446.1,683.7c.1.5,0,.9-.2,1-.2,0-.5-.3-.7-.8s0-.9.2-1c.2,0,.5.3.7.8Z"/><path class="cls-11" d="m446.4,684.7c.1.5,0,.9-.2,1-.2,0-.5-.3-.7-.8-.1-.5,0-.9.2-1,.2,0,.5.3.7.8Z"/><path class="cls-11" d="m447.4,683.4c.1.5,0,.9-.2,1-.2,0-.5-.3-.7-.8-.1-.5,0-.9.2-1,.2,0,.5.3.7.8Z"/><path class="cls-11" d="m447.7,684.4c.1.5,0,.9-.2,1s-.5-.3-.7-.8,0-.9.2-1c.2,0,.5.3.7.8Z"/><path class="cls-11" d="m448.6,683c.1.5,0,.9-.2,1-.2,0-.5-.3-.7-.8s0-.9.2-1c.2,0,.5.3.7.8Z"/><path class="cls-11" d="m448.9,684.1c.1.5,0,.9-.2,1s-.5-.3-.7-.8c-.1-.5,0-.9.2-1,.2,0,.5.3.7.8Z"/><path class="cls-11" d="m449.9,682.7c.1.5,0,.9-.2,1-.2,0-.5-.3-.7-.8-.1-.5,0-.9.2-1,.2,0,.5.3.7.8Z"/><path class="cls-11" d="m450.2,683.7c.1.5,0,.9-.2,1-.2,0-.5-.3-.7-.8-.1-.5,0-.9.2-1,.2,0,.5.3.7.8Z"/><path class="cls-11" d="m451.1,682.4c.1.5,0,.9-.2,1-.2,0-.5-.3-.7-.8-.1-.5,0-.9.2-1,.2,0,.5.3.7.8Z"/><path class="cls-11" d="m451.4,683.4c.1.5,0,.9-.2,1-.2,0-.5-.3-.7-.8-.1-.5,0-.9.2-1,.2,0,.5.3.7.8Z"/><path class="cls-6" d="m201.9,74.7s62.8,38.1,128.4,0"/><line class="cls-12" x1="91.2" y1="589.8" x2="98.3" y2="590.1"/><line class="cls-12" x1="436.1" y1="589.8" x2="428.9" y2="590.1"/><path class="cls-10" d="m324.4,98.3c6.4-13.8,11.8-30.6,12.5-52.1l13.4,4.4.8,1.3,27.8,8,.9-.9,14.2,5.1s-58.8,183.8,58.5,185.6v13.4l-.8,1.1v417.4s-.4,4.6-3.1,7.9l-7.6,1.7c-212.5,56.2-361.5,0-361.5,0-3-3.6-3.6-8.4-3.6-8.4,0,0,.3-418.2,0-418.9s-.4-.8-.4-.8v-13.4c117.3-1.8,58.5-185.6,58.5-185.6l14.2-5.1,1.4.9,31.1-9.9.5-1.5,14.2-2.9s.2,27.3,13.6,54.3c0,0,17.1,36.4,54.6,38.6,0,0,40.2,5,61-40.2h0Z"/><path class="cls-3" d="m180.5,49.9s.9,98.8,85.7,102.9c0,0,80.6,6.4,84.9-101"/><path class="cls-6" d="m182.3,48.4s.9,98.3,83.7,102.4c0,0,78.8,6.4,83-100.5"/><path class="cls-3" d="m451.7,263.3h-1.3c-.2,0-.5,0-.8,0-9.8,0-43.7-2.3-66-31.6-26-34.1-27.5-91.7-4.5-171l.2-.5h-.4l-27.2-7.8h-.3c0,0,0,.2,0,.2-1.6,36.7-12.2,64-31.6,81.2-20.1,17.9-44.2,19.2-51.1,19.2s-2.3,0-2.4,0c-43.9-2.1-64.9-30.1-74.8-53.1-9.6-22.5-10.9-44.9-11-49.2v-.3l-30.8,9.8c-.1,0-.3,0-.4,0l-.6-.4,1,2.8c22.2,78,20.6,134.8-5.1,168.7-22.4,29.7-56.6,32.1-66.5,32.1h-1.7s-.4,0-.4,0l.2.3c.3,1.7.3,133.8,0,392.6h.4c1.5-8.1,5.6-28,10.3-36.8,6.1-11.5,9-22.3,9.7-28.5v-.2s-5.6-.2-5.6-.2c-.4,0-.7-.3-.6-.7,0-.3.3-.7.7-.7h0l7.1.2c.4,0,.7.3.6.7,0,.4-.3.7-.7.7h-1.1s0,.2,0,.2c-.7,6.3-3.6,17.2-9.8,28.8-1.5,2.8-3,6.9-4.6,12.2v.4c-.1,0,.2-.1.2-.1l15,47.8h.1c3.8,1.1,38.8,10.4,94.7,15.1,18.6,1.6,41,2.8,66.2,2.8,48,0,106.5-4.2,170.6-17.9h.1s15-47.9,15-47.9h.4c0,.1-.1-.3-.1-.3-1.6-5.3-3.1-9.4-4.6-12.2-6.2-11.6-9.1-22.5-9.8-28.8v-.2s-1.7,0-1.7,0c-.4,0-.7-.3-.7-.7,0-.4.3-.7.6-.7l7.1-.2c.4,0,.7.3.7.7,0,.4-.3.7-.6.7l-5,.2v.2c.7,6.3,3.6,17.1,9.8,28.5,4.3,8.1,8,25.1,9.9,34.5h.5v-389.7c0,0,0-.2,0-.3l.5-.6h0Z"/><path class="cls-6" d="m76.1,261.6h2.6c18.1,0,122.9-8,69.5-197.6l-1.3-3.7"/><path class="cls-14" d="m96.8,591.4s-2.6,19.8-9.5,34.8c-6.9,15-7.9,39.7-11.3,56.5l.3-25.6s6.7-30.9,9.5-35.4c0,0,10.1-18.1,11-30.4h0Z"/><path class="cls-14" d="m430.7,591.4s2.6,19.8,9.5,34.8,7.9,39.7,11.3,56.5l-.3-25.6s-6.7-30.9-9.5-35.4c0,0-10.1-18.1-11-30.4h0Z"/><path class="cls-14" d="m86.5,645.1s8.8,37.3,9.3,38.7c.5,1.4,7.1,3.9,12.1,5s37.3,4.8,50.9,8.9c13.6,4.1,54.8,10.7,62.5,10.7s72.8-2.7,87.5-4.3c14.6-1.6,52.7-12,52.7-12,0,0-69.4,10-168.3,3.2,0,0-68.4-6.8-95.3-15.2,0,0-9.9-34.1-11.2-35.2h0Z"/><path class="cls-14" d="m329.4,86.1c5.9-22.1,1.5-28.6,1.5-28.6l.4-.7c3.2-4.6,4.9-8.7,5.4-10.1,0,.6,0,1.1.1,1.7-.7,14.5-3.5,26.9-7.4,37.6h0Z"/><path class="cls-14" d="m200.3,55.8s.2,18.3,3,16.9c0,0-.6,2.8,2.4,5.2,0,0,8.9,4,16.3,6.8,7.4,2.8,39.5,13.7,77.5,4,0,0-38,16.1-92.2-8.4,0,0-2.2-1.4.7,7.6,2.9,8.9,19.2,50.1,62.4,50.1l-8.8.2s-48.7-3.4-61.8-63.8c0,0-4.4-19.3-4-26.6,0,0,4.4,7.4,4.6,7.9h0Z"/><path class="cls-1" d="m241.1,381h-9.3v-87.2h9.3v87.2Z"/><path class="cls-1" d="m260.8,331.9h-10.4v-38.1h39.8v6.4h-29.4v22.6c2.2-2.5,6.3-4,12.3-4.2.9-.1,1.8-.2,2.6-.2,9.1,0,14.3,4.8,15.6,14.5v34.1c0,5.7-3.3,9.8-9.8,12.1-2.8,1-6,1.6-9.8,1.9-1,0-1.9.1-2.8.1-7.6,0-13-2.7-16.1-8.1-1.4-2.2-2.2-4.9-2.5-8.1v-11.8h10.6v11.2c0,5.8,3.4,8.9,10.2,9.4,6.5.6,10-2.6,10.5-9.7v-31.7c.5-3.9-2.6-6.2-9.2-7-7,0-10.8,2.1-11.5,6.5h0Z"/><path class="cls-15" d="m241.1,381h-9.3v-87.2h9.3v87.2Z"/><path class="cls-15" d="m260.8,331.9h-10.4v-38.1h39.8v6.4h-29.4v22.6c2.2-2.5,6.3-4,12.3-4.2.9-.1,1.8-.2,2.6-.2,9.1,0,14.3,4.8,15.6,14.5v34.1c0,5.7-3.3,9.8-9.8,12.1-2.8,1-6,1.6-9.8,1.9-1,0-1.9.1-2.8.1-7.6,0-13-2.7-16.1-8.1-1.4-2.2-2.2-4.9-2.5-8.1v-11.8h10.6v11.2c0,5.8,3.4,8.9,10.2,9.4,6.5.6,10-2.6,10.5-9.7v-31.7c.5-3.9-2.6-6.2-9.2-7-7,0-10.8,2.1-11.5,6.5h0Z"/><path class="cls-17" d="m241.1,381h-9.3v-87.2h9.3v87.2Z"/><path class="cls-17" d="m260.8,331.9h-10.4v-38.1h39.8v6.4h-29.4v22.6c2.2-2.5,6.3-4,12.3-4.2.9-.1,1.8-.2,2.6-.2,9.1,0,14.3,4.8,15.6,14.5v34.1c0,5.7-3.3,9.8-9.8,12.1-2.8,1-6,1.6-9.8,1.9-1,0-1.9.1-2.8.1-7.6,0-13-2.7-16.1-8.1-1.4-2.2-2.2-4.9-2.5-8.1v-11.8h10.6v11.2c0,5.8,3.4,8.9,10.2,9.4,6.5.6,10-2.6,10.5-9.7v-31.7c.5-3.9-2.6-6.2-9.2-7-7,0-10.8,2.1-11.5,6.5h0Z"/><path class="cls-7" d="m319.2,159.9c.4,1.3.8,2.5,1.2,3.8h-2.7c-.4-1.2-.7-2.3-1.1-3.5h-.8c-.2,1.2-.4,2.3-.5,3.5h-2.5c.6-3.2,1.1-6.3,1.7-9.5h3.9c.5,0,.9,0,1.3.2.6.2,1,.6,1.2,1.2,0,.3,0,.6,0,.8,0,.5-.2,1.1-.3,1.6-.1.6-.4,1-.8,1.4-.2.1-.3.3-.5.4h0Zm-3.1-1.4s0,0,0,0c.4,0,.8,0,1.2,0,.5,0,.8-.3.9-.8,0-.3,0-.6,0-.9-.1-.4-.4-.6-.8-.6h-1s0,0-.1,0c-.1.8-.2,1.5-.3,2.2h0Z"/><path class="cls-7" d="m325.1,160.6h2.4c0,0,0,.2,0,.2,0,.5.1.9.7,1,.4.1.9.1,1.3,0,0,0,.1,0,.2,0,.5-.2.5-.8.2-1.1-.1-.1-.2-.2-.3-.3-.3-.2-.7-.3-1.1-.5-.4-.1-.8-.3-1.2-.4s-.8-.4-1-.7c-.4-.4-.5-.9-.5-1.4s0-.8.2-1.2c.3-.8.9-1.4,1.6-1.7.5-.2.9-.3,1.4-.3.5,0,1.1,0,1.6,0,.5,0,1,.1,1.4.4.6.3,1,.7,1.1,1.4s0,1.2-.3,1.8c0,0,0,0,0,0h-2.3c0,0,0-.1,0-.1.2-.3.2-.6.2-.9,0-.2-.2-.4-.4-.5-.2-.1-.4-.1-.7-.1s-.5,0-.7,0c0,0-.2,0-.3.1-.5.3-.6.9-.1,1.3.3.2.6.3.9.4.4.1.9.2,1.3.4.4.1.8.3,1.1.6.5.4.7.9.7,1.5,0,.5,0,1-.2,1.5-.3.8-.9,1.3-1.6,1.6-.5.2-1,.3-1.6.3-.5,0-1,0-1.4,0s-1-.1-1.4-.3c-.8-.3-1.1-.9-1.2-1.6,0-.4,0-.9,0-1.3,0,0,0,0,0,0h0s0,0,0,0Z"/><path class="cls-7" d="m332.9,163.7c.6-3.2,1.1-6.3,1.7-9.5h6.6c-.1.7-.2,1.4-.4,2.1h-4.2c-.1.6-.2,1.2-.3,1.8h3.5c-.1.7-.2,1.4-.4,2.1h-3.5c0,.5-.2,1-.3,1.5h4.2c-.1.7-.2,1.4-.4,2.1h-6.6Z"/><path class="cls-7" d="m342.3,154.1h2.4c0,.3-.1.6-.1.9-.2,1-.4,2-.5,2.9-.1.7-.3,1.4-.4,2.2,0,.2,0,.5,0,.8,0,.5.2.8.8.9.3,0,.6,0,.9,0,.3-.1.6-.3.8-.6.2-.3.2-.7.3-1,.2-1.1.4-2.2.6-3.4.1-.8.3-1.6.4-2.4,0,0,0-.1,0-.2h2.1c-.5.7-.9,1.4-1.4,2.2.4,0,.8.1,1.3.2,0,0,0,.1,0,.1-.2,1.3-.4,2.6-.7,3.8,0,.4-.2.9-.4,1.3-.5,1-1.2,1.6-2.2,1.9-.7.2-1.4.2-2.1.2-.4,0-.9-.1-1.3-.2-.8-.3-1.3-.9-1.4-1.8,0-.5,0-1.1,0-1.6.2-1,.4-2,.5-3,.2-1,.3-1.9.5-2.9,0,0,0,0,0-.1h0Z"/><path class="cls-7" d="m352.1,160.8c-.2,1-.3,1.9-.5,2.9h-2.4c.4-2.3.8-4.7,1.2-7,.4,0,.9.1,1.3.2-.3-.9-.6-1.7-.9-2.6,0,0,.1,0,.1,0h4.1c.4,0,.9,0,1.3.2.7.3,1.1.8,1.1,1.6,0,.3,0,.7,0,1,0,.4-.2.8-.2,1.2-.1.8-.6,1.4-1.2,1.9-.5.4-1.1.6-1.7.6-.3,0-.6,0-.9,0h-1.2Zm.4-2.1s0,0,0,0c.5,0,.9,0,1.4,0,.5,0,.8-.3.9-.8,0-.3.1-.6.2-.9,0-.1,0-.2,0-.3-.1-.3-.4-.4-.7-.4h-1.3s0,0,0,0c-.1.8-.3,1.6-.4,2.4h0Z"/><path class="cls-7" d="m323.6,163.7h-2.4c.6-3.2,1.1-6.3,1.7-9.5h2.4c-.5,3.2-1.1,6.3-1.7,9.5h0Z"/><path class="cls-15" d="m319.2,159.9c.4,1.3.8,2.5,1.2,3.8h-2.7c-.4-1.2-.7-2.3-1.1-3.5h-.8c-.2,1.2-.4,2.3-.5,3.5h-2.5c.6-3.2,1.1-6.3,1.7-9.5h3.9c.5,0,.9,0,1.3.2.6.2,1,.6,1.2,1.2,0,.3,0,.6,0,.8,0,.5-.2,1.1-.3,1.6-.1.6-.4,1-.8,1.4-.2.1-.3.3-.5.4h0Zm-3.1-1.4s0,0,0,0c.4,0,.8,0,1.2,0,.5,0,.8-.3.9-.8,0-.3,0-.6,0-.9-.1-.4-.4-.6-.8-.6h-1s0,0-.1,0c-.1.8-.2,1.5-.3,2.2h0Z"/><path class="cls-15" d="m325.1,160.6h2.4c0,0,0,.2,0,.2,0,.5.1.9.7,1,.4.1.9.1,1.3,0,0,0,.1,0,.2,0,.5-.2.5-.8.2-1.1-.1-.1-.2-.2-.3-.3-.3-.2-.7-.3-1.1-.5-.4-.1-.8-.3-1.2-.4s-.8-.4-1-.7c-.4-.4-.5-.9-.5-1.4s0-.8.2-1.2c.3-.8.9-1.4,1.6-1.7.5-.2.9-.3,1.4-.3.5,0,1.1,0,1.6,0,.5,0,1,.1,1.4.4.6.3,1,.7,1.1,1.4s0,1.2-.3,1.8c0,0,0,0,0,0h-2.3c0,0,0-.1,0-.1.2-.3.2-.6.2-.9,0-.2-.2-.4-.4-.5-.2-.1-.4-.1-.7-.1s-.5,0-.7,0c0,0-.2,0-.3.1-.5.3-.6.9-.1,1.3.3.2.6.3.9.4.4.1.9.2,1.3.4.4.1.8.3,1.1.6.5.4.7.9.7,1.5,0,.5,0,1-.2,1.5-.3.8-.9,1.3-1.6,1.6-.5.2-1,.3-1.6.3-.5,0-1,0-1.4,0s-1-.1-1.4-.3c-.8-.3-1.1-.9-1.2-1.6,0-.4,0-.9,0-1.3,0,0,0,0,0,0h0s0,0,0,0Z"/><path class="cls-15" d="m332.9,163.7c.6-3.2,1.1-6.3,1.7-9.5h6.6c-.1.7-.2,1.4-.4,2.1h-4.2c-.1.6-.2,1.2-.3,1.8h3.5c-.1.7-.2,1.4-.4,2.1h-3.5c0,.5-.2,1-.3,1.5h4.2c-.1.7-.2,1.4-.4,2.1h-6.6Z"/><path class="cls-15" d="m342.3,154.1h2.4c0,.3-.1.6-.1.9-.2,1-.4,2-.5,2.9-.1.7-.3,1.4-.4,2.2,0,.2,0,.5,0,.8,0,.5.2.8.8.9.3,0,.6,0,.9,0,.3-.1.6-.3.8-.6.2-.3.2-.7.3-1,.2-1.1.4-2.2.6-3.4.1-.8.3-1.6.4-2.4,0,0,0-.1,0-.2h2.1c-.5.7-.9,1.4-1.4,2.2.4,0,.8.1,1.3.2,0,0,0,.1,0,.1-.2,1.3-.4,2.6-.7,3.8,0,.4-.2.9-.4,1.3-.5,1-1.2,1.6-2.2,1.9-.7.2-1.4.2-2.1.2-.4,0-.9-.1-1.3-.2-.8-.3-1.3-.9-1.4-1.8,0-.5,0-1.1,0-1.6.2-1,.4-2,.5-3,.2-1,.3-1.9.5-2.9,0,0,0,0,0-.1h0Z"/><path class="cls-15" d="m352.1,160.8c-.2,1-.3,1.9-.5,2.9h-2.4c.4-2.3.8-4.7,1.2-7,.4,0,.9.1,1.3.2-.3-.9-.6-1.7-.9-2.6,0,0,.1,0,.1,0h4.1c.4,0,.9,0,1.3.2.7.3,1.1.8,1.1,1.6,0,.3,0,.7,0,1,0,.4-.2.8-.2,1.2-.1.8-.6,1.4-1.2,1.9-.5.4-1.1.6-1.7.6-.3,0-.6,0-.9,0h-1.2Zm.4-2.1s0,0,0,0c.5,0,.9,0,1.4,0,.5,0,.8-.3.9-.8,0-.3.1-.6.2-.9,0-.1,0-.2,0-.3-.1-.3-.4-.4-.7-.4h-1.3s0,0,0,0c-.1.8-.3,1.6-.4,2.4h0Z"/><path class="cls-15" d="m323.6,163.7h-2.4c.6-3.2,1.1-6.3,1.7-9.5h2.4c-.5,3.2-1.1,6.3-1.7,9.5h0Z"/><path class="cls-17" d="m319.2,159.9c.4,1.3.8,2.5,1.2,3.8h-2.7c-.4-1.2-.7-2.3-1.1-3.5h-.8c-.2,1.2-.4,2.3-.5,3.5h-2.5c.6-3.2,1.1-6.3,1.7-9.5h3.9c.5,0,.9,0,1.3.2.6.2,1,.6,1.2,1.2,0,.3,0,.6,0,.8,0,.5-.2,1.1-.3,1.6-.1.6-.4,1-.8,1.4-.2.1-.3.3-.5.4h0Zm-3.1-1.4s0,0,0,0c.4,0,.8,0,1.2,0,.5,0,.8-.3.9-.8,0-.3,0-.6,0-.9-.1-.4-.4-.6-.8-.6h-1s0,0-.1,0c-.1.8-.2,1.5-.3,2.2h0Z"/><path class="cls-17" d="m325.1,160.6h2.4c0,0,0,.2,0,.2,0,.5.1.9.7,1,.4.1.9.1,1.3,0,0,0,.1,0,.2,0,.5-.2.5-.8.2-1.1-.1-.1-.2-.2-.3-.3-.3-.2-.7-.3-1.1-.5-.4-.1-.8-.3-1.2-.4s-.8-.4-1-.7c-.4-.4-.5-.9-.5-1.4s0-.8.2-1.2c.3-.8.9-1.4,1.6-1.7.5-.2.9-.3,1.4-.3.5,0,1.1,0,1.6,0,.5,0,1,.1,1.4.4.6.3,1,.7,1.1,1.4s0,1.2-.3,1.8c0,0,0,0,0,0h-2.3c0,0,0-.1,0-.1.2-.3.2-.6.2-.9,0-.2-.2-.4-.4-.5-.2-.1-.4-.1-.7-.1s-.5,0-.7,0c0,0-.2,0-.3.1-.5.3-.6.9-.1,1.3.3.2.6.3.9.4.4.1.9.2,1.3.4.4.1.8.3,1.1.6.5.4.7.9.7,1.5,0,.5,0,1-.2,1.5-.3.8-.9,1.3-1.6,1.6-.5.2-1,.3-1.6.3-.5,0-1,0-1.4,0s-1-.1-1.4-.3c-.8-.3-1.1-.9-1.2-1.6,0-.4,0-.9,0-1.3,0,0,0,0,0,0h0s0,0,0,0Z"/><path class="cls-17" d="m332.9,163.7c.6-3.2,1.1-6.3,1.7-9.5h6.6c-.1.7-.2,1.4-.4,2.1h-4.2c-.1.6-.2,1.2-.3,1.8h3.5c-.1.7-.2,1.4-.4,2.1h-3.5c0,.5-.2,1-.3,1.5h4.2c-.1.7-.2,1.4-.4,2.1h-6.6Z"/><path class="cls-17" d="m342.3,154.1h2.4c0,.3-.1.6-.1.9-.2,1-.4,2-.5,2.9-.1.7-.3,1.4-.4,2.2,0,.2,0,.5,0,.8,0,.5.2.8.8.9.3,0,.6,0,.9,0,.3-.1.6-.3.8-.6.2-.3.2-.7.3-1,.2-1.1.4-2.2.6-3.4.1-.8.3-1.6.4-2.4,0,0,0-.1,0-.2h2.1c-.5.7-.9,1.4-1.4,2.2.4,0,.8.1,1.3.2,0,0,0,.1,0,.1-.2,1.3-.4,2.6-.7,3.8,0,.4-.2.9-.4,1.3-.5,1-1.2,1.6-2.2,1.9-.7.2-1.4.2-2.1.2-.4,0-.9-.1-1.3-.2-.8-.3-1.3-.9-1.4-1.8,0-.5,0-1.1,0-1.6.2-1,.4-2,.5-3,.2-1,.3-1.9.5-2.9,0,0,0,0,0-.1h0Z"/><path class="cls-17" d="m352.1,160.8c-.2,1-.3,1.9-.5,2.9h-2.4c.4-2.3.8-4.7,1.2-7,.4,0,.9.1,1.3.2-.3-.9-.6-1.7-.9-2.6,0,0,.1,0,.1,0h4.1c.4,0,.9,0,1.3.2.7.3,1.1.8,1.1,1.6,0,.3,0,.7,0,1,0,.4-.2.8-.2,1.2-.1.8-.6,1.4-1.2,1.9-.5.4-1.1.6-1.7.6-.3,0-.6,0-.9,0h-1.2Zm.4-2.1s0,0,0,0c.5,0,.9,0,1.4,0,.5,0,.8-.3.9-.8,0-.3.1-.6.2-.9,0-.1,0-.2,0-.3-.1-.3-.4-.4-.7-.4h-1.3s0,0,0,0c-.1.8-.3,1.6-.4,2.4h0Z"/><path class="cls-17" d="m323.6,163.7h-2.4c.6-3.2,1.1-6.3,1.7-9.5h2.4c-.5,3.2-1.1,6.3-1.7,9.5h0Z"/><path class="cls-2" d="m201.1,161.3s0,0,.1-.1c1.3-1.8,2.2-3.8,2.7-6,0-.1,0-.2,0-.3,0,0,0-.1,0-.2,0-.1.1-.2.3-.2.1,0,.2,0,.3.2,0,0,0,.1,0,.2.1.6.3,1.2.3,1.7.1,1,.2,1.9.1,2.9,0,1.3-.3,2.6-.8,3.9-.4,1.3-1,2.5-1.8,3.6,0,.1-.2.2-.3.3-1.4.8-2.9,1.4-4.5,1.8-.6.1-1.3.2-1.9.3-.2,0-.5,0-.7,0,0,0-.2,0-.3,0,.1,0,.2,0,.3,0,1.1.2,2.2.2,3.3.2.2,0,.5,0,.7,0,.1,0,.2,0,.3,0,.1,0,.3,0,.3.2,0,.1,0,.2,0,.3,0,0,0,0-.1.1-.8.6-1.6,1.2-2.6,1.6-.3.2-.6.3-1,.5-.1,0-.3,0-.4,0-.6-.1-1.2-.3-1.9-.4,0,0-.1,0-.2,0,0,0,0,0,0,0,0,0,0,0,0,.1.1.2.2.4.3.6,0,0,0,.1,0,.2,0,.1-.1.2-.3.3-.2,0-.3,0-.5.1-.8.2-1.6.2-2.4.3h-.1c-.2,0-.3,0-.3-.2s0-.2,0-.3c0,0,0,0,0-.2,0,0,0,0,0,.1,0,.1,0,.2,0,.3,0,.2-.2.2-.3.2s-.3,0-.5,0c-.5,0-1,0-1.4-.1-.4,0-.7-.1-1.1-.2,0,0,0,0-.1,0-.1,0-.2-.2-.2-.4,0,0,0-.1,0-.2l.3-.6c0,0-.1,0-.2,0-.5.1-1.1.3-1.6.4-.6.1-.4.1-.9-.1-1.2-.5-2.3-1.2-3.3-2,0,0,0,0-.1-.1-.1-.1-.1-.2,0-.4,0-.1.2-.2.3-.2s.1,0,.2,0c.8.1,1.6.1,2.4,0,.6,0,1.3-.1,1.9-.2,0,0-.1,0-.2,0-.2,0-.4,0-.6,0-1,0-2-.3-2.9-.6-1.3-.4-2.5-.9-3.7-1.6-.2,0-.3-.2-.4-.4-1-1.4-1.7-3-2.1-4.7-.2-.8-.3-1.6-.4-2.4,0-.8,0-1.6,0-2.4,0-.9.2-1.8.4-2.7,0,0,0,0,0-.1,0-.1.2-.2.3-.2.1,0,.2,0,.3.2,0,.1,0,.2,0,.4.4,1.9,1.1,3.7,2.2,5.4.2.2.3.5.5.7,0,0,0,0,0,.1,0,0,0-.1,0-.2-.4-.6-.7-1.3-1-1.9-.5-1.2-.8-2.4-1-3.6-.2-1.1-.2-2.2-.2-3.3,0-.3,0-.6,0-.9,0-.1,0-.3.1-.4,1.9-3.2,4.6-5.4,8.1-6.6,0,0,.1,0,.2,0,.1,0,.2,0,.3.1,0,.1,0,.2,0,.4,0,0,0,0,0,0-.9.9-1.5,1.9-2,3-.5,1.1-.9,2.3-1.1,3.5-.2,1.2-.3,2.5-.3,3.7,0,1.2.2,2.4.5,3.5.3,1.1.7,2.2,1.3,3.3.5.8,1,1.5,1.7,2.2.6.6,1.4,1.2,2.2,1.5.7.3,1.4.5,2.2.5.9,0,1.7-.2,2.5-.6.8-.4,1.6-1,2.2-1.6.7-.8,1.3-1.7,1.8-2.6.5-1.1.9-2.1,1.1-3.3.3-1.3.4-2.6.4-3.9,0-.6,0-1.2-.1-1.8-.3-2-.9-3.9-2-5.7-.4-.6-.8-1.1-1.3-1.6,0,0,0,0-.1-.1,0-.1,0-.2,0-.4,0-.1.2-.2.3-.1,0,0,.1,0,.2,0,1.6.5,3.1,1.3,4.4,2.4,1.5,1.2,2.8,2.6,3.7,4.2,0,.1.1.2.1.4,0,.4,0,.8.1,1.3,0,.6,0,1.2,0,1.9-.2,1.9-.7,3.7-1.5,5.4-.2.4-.4.8-.6,1.2,0,0,0,.1,0,.2,0,0,0,0,0,.1,0,0,0,0,0-.1h0Z"/><path class="cls-17" d="m201.1,161.3s0,0,.1-.1c1.3-1.8,2.2-3.8,2.7-6,0-.1,0-.2,0-.3,0,0,0-.1,0-.2,0-.1.1-.2.3-.2.1,0,.2,0,.3.2,0,0,0,.1,0,.2.1.6.3,1.2.3,1.7.1,1,.2,1.9.1,2.9,0,1.3-.3,2.6-.8,3.9-.4,1.3-1,2.5-1.8,3.6,0,.1-.2.2-.3.3-1.4.8-2.9,1.4-4.5,1.8-.6.1-1.3.2-1.9.3-.2,0-.5,0-.7,0,0,0-.2,0-.3,0,.1,0,.2,0,.3,0,1.1.2,2.2.2,3.3.2.2,0,.5,0,.7,0,.1,0,.2,0,.3,0,.1,0,.3,0,.3.2,0,.1,0,.2,0,.3,0,0,0,0-.1.1-.8.6-1.6,1.2-2.6,1.6-.3.2-.6.3-1,.5-.1,0-.3,0-.4,0-.6-.1-1.2-.3-1.9-.4,0,0-.1,0-.2,0,0,0,0,0,0,0,0,0,0,0,0,.1.1.2.2.4.3.6,0,0,0,.1,0,.2,0,.1-.1.2-.3.3-.2,0-.3,0-.5.1-.8.2-1.6.2-2.4.3h-.1c-.2,0-.3,0-.3-.2s0-.2,0-.3c0,0,0,0,0-.2,0,0,0,0,0,.1,0,.1,0,.2,0,.3,0,.2-.2.2-.3.2s-.3,0-.5,0c-.5,0-1,0-1.4-.1-.4,0-.7-.1-1.1-.2,0,0,0,0-.1,0-.1,0-.2-.2-.2-.4,0,0,0-.1,0-.2l.3-.6c0,0-.1,0-.2,0-.5.1-1.1.3-1.6.4-.6.1-.4.1-.9-.1-1.2-.5-2.3-1.2-3.3-2,0,0,0,0-.1-.1-.1-.1-.1-.2,0-.4,0-.1.2-.2.3-.2s.1,0,.2,0c.8.1,1.6.1,2.4,0,.6,0,1.3-.1,1.9-.2,0,0-.1,0-.2,0-.2,0-.4,0-.6,0-1,0-2-.3-2.9-.6-1.3-.4-2.5-.9-3.7-1.6-.2,0-.3-.2-.4-.4-1-1.4-1.7-3-2.1-4.7-.2-.8-.3-1.6-.4-2.4,0-.8,0-1.6,0-2.4,0-.9.2-1.8.4-2.7,0,0,0,0,0-.1,0-.1.2-.2.3-.2.1,0,.2,0,.3.2,0,.1,0,.2,0,.4.4,1.9,1.1,3.7,2.2,5.4.2.2.3.5.5.7,0,0,0,0,0,.1,0,0,0-.1,0-.2-.4-.6-.7-1.3-1-1.9-.5-1.2-.8-2.4-1-3.6-.2-1.1-.2-2.2-.2-3.3,0-.3,0-.6,0-.9,0-.1,0-.3.1-.4,1.9-3.2,4.6-5.4,8.1-6.6,0,0,.1,0,.2,0,.1,0,.2,0,.3.1,0,.1,0,.2,0,.4,0,0,0,0,0,0-.9.9-1.5,1.9-2,3-.5,1.1-.9,2.3-1.1,3.5-.2,1.2-.3,2.5-.3,3.7,0,1.2.2,2.4.5,3.5.3,1.1.7,2.2,1.3,3.3.5.8,1,1.5,1.7,2.2.6.6,1.4,1.2,2.2,1.5.7.3,1.4.5,2.2.5.9,0,1.7-.2,2.5-.6.8-.4,1.6-1,2.2-1.6.7-.8,1.3-1.7,1.8-2.6.5-1.1.9-2.1,1.1-3.3.3-1.3.4-2.6.4-3.9,0-.6,0-1.2-.1-1.8-.3-2-.9-3.9-2-5.7-.4-.6-.8-1.1-1.3-1.6,0,0,0,0-.1-.1,0-.1,0-.2,0-.4,0-.1.2-.2.3-.1,0,0,.1,0,.2,0,1.6.5,3.1,1.3,4.4,2.4,1.5,1.2,2.8,2.6,3.7,4.2,0,.1.1.2.1.4,0,.4,0,.8.1,1.3,0,.6,0,1.2,0,1.9-.2,1.9-.7,3.7-1.5,5.4-.2.4-.4.8-.6,1.2,0,0,0,.1,0,.2,0,0,0,0,0,.1,0,0,0,0,0-.1h0Z"/><path class="cls-9" d="m186.2,257.3c-.6-.4-.8-.3-.6.4,1.9,5.5,3.8,11,5.6,16.5,0,.1,0,.3-.2.4-2.8.9-5.5,1.8-8.2,2.8-.2,0-.3,0-.4-.1-4.6-11.8-9.1-23.5-13.6-35.3-.9-2.2-2.6-3.4-4.4-4.9-.1,0,0-.3.1-.3,7.2-2.8,14.5-5.2,21.9-7.4,1.8-.5,2.6,0,4.1.9,6.6,3.9,7.3,10.5,9,16.8,0,.3,0,.7-.3,1-1,.9-2,1.8-3,2.7-.2.2-.2.5,0,.6,1.8,1,5.6,2.7,6.1,4.7,1.5,5.5,3,11,4.5,16.5,0,.1,0,.2-.2.3-1.9.2-3.8,0-5.6-.5-4.9-1.5-5.3-5.4-6.7-9.4,0-.2-.2-.3-.3-.4-2.5-1.8-5.1-3.5-7.8-5.2m1.1-11c.1,0,.1-.2.1-.3-.9-3.2-2.3-10.4-8.6-8.1-.2,0-.3.2-.2.4,1.4,4,2.7,8,4.1,12,0,0,.1,0,.2,0,1.5-1.3,2.9-2.6,4.4-4h0Z"/><path class="cls-9" d="m344.5,259.6c-.1,0-.3.1-.3.2-1.5,4.8-3.1,9.6-4.6,14.4,0,.2-.2.2-.4.2-2.7-.9-5.5-1.7-8.2-2.5-.2,0-.2-.2-.2-.3,3.2-12.1,6.5-24.1,10-36.1.6-2.2-.1-4.5-.7-6.8,0-.2.2-.4.4-.3,7.4,2,14.8,4.3,22,7,.6.2,1,.6,1.3,1,5.1,7.8,1.1,14.2-1.6,21,0,.2-.2.3-.4.3-5.9.4-11.6,1-17.2,1.8m8.5-10.2c0,0,.1,0,.2-.1,1.1-3,4.3-10-2.2-11.6-.2,0-.4,0-.4.2-1.3,4-2.5,8-3.8,12,0,.2,0,.2.2.2,2-.2,4-.5,6-.6s1.3-.1,0,0h0Z"/><path class="cls-9" d="m315.1,261.8c2.5-12.5,5.1-25,7.6-37.6,0-.2.2-.3.4-.2,3.2.7,6.5,1.5,9.7,2.4.2,0,.3.2.3.3-2.8,12.1-6,24.1-8.9,36.2-.6,2.4,0,4.6.4,7,0,.2,0,.3-.3.3-6.4-1.6-12.8-2.9-19.2-4-.2,0-.4-.1-.5-.3-1.9-2.3-3.1-4.8-3.7-7.6-.4-1.7-.3-4.4.2-8.1,1.4-10.5,2.9-21.1,4.3-31.6,0-.2.2-.3.4-.2,3.7.9,7.7,3.1,9.1,6.2.4,1,.5,2.3.2,3.9-1.5,8.7-3.1,17.5-4.6,26.2-.5,3.1.7,6.6,4.3,7.4.2,0,.3,0,.4-.2q0-.1,0,0h0Z"/><path class="cls-9" d="m252.2,230.6c0,.5,0,.9,0,1.4-3.4.2-6.8.4-10.1.8-.2,0-.4,0-.4-.3-.3-2.4-.8-6.1-3.8-6.4-.6,0-1.2.2-1.5.7-1.4,2.6-.9,6.5-.6,9.3,0,.2.1.3.4.4,5.7,1.9,11.3,3.9,16.7,6.1.2,3.1.4,6.2.5,9.2-.1,4.6-1.9,8.6-5,12-.1.1-.3.2-.5.2-3.9.4-7.7.8-11.5,1.4-.2,0-.3,0-.5-.1-3.9-2.5-6.5-6-7.4-10.5,0-.2,0-.3.3-.4,3-.5,6-.9,9-1.3.2,0,.3,0,.3.2.4,2.2,1.1,5.5,3.9,5.4.2,0,.4,0,.5-.2,1.9-2.1,1.4-7.5,1-9.8,0-.2-.1-.3-.3-.4-5.3-1.9-10.8-3.6-16.4-5.2-.2,0-.3-.2-.3-.3-1.3-8-3-13.6,2.7-20.9.5-.6,1.1-1,1.8-1,4.3-.6,8.6-1.1,13-1.5.2,0,.5,0,.6.1,4.2,1.9,7,7.1,7.7,11h0Z"/><path class="cls-9" d="m206.8,223.8c1.7,7.5,3.3,15.1,5,22.6,1.7,7.9,3.5,15.7,5.2,23.5,0,.1.1.2.2.1,2.8-.6,5.6-1.2,8.5-1.7.1,0,.2-.1.2-.2-1.4-7.9-2.9-15.8-4.3-23.8h0c-.1-.8-.3-1.5-.4-2.3-1.2-6.8-2.5-13.7-3.7-20.5-3.6.6-7.1,1.4-10.7,2.2h0Z"/><path class="cls-9" d="m277,225.3h0c3.1.8,6.2,1.6,9.3,2.6.2,0,.3,0,.4-.2.2-2.7.4-5.4.6-8.1,0-.1-.1-.2-.2-.2-9.8-.7-19.5-.9-29.3-.5h-.2c.5,14.9,1.1,29.7,1.6,44.6h.2c2.9-.1,5.8-.1,8.6-.1,5.3,0,10.6.2,16,.6.1,0,.2,0,.2-.2.2-2.7.4-5.4.6-8.1,0-.1-.1-.3-.3-.2-2.9.5-5.7,1-8.5,1.6h0c-2.6,0-5.3,0-7.9,0,0-5.1,0-10.3,0-15.4,2.5,0,5.1,0,7.6.1.3,0,.5,0,.8,0h0c2.9.8,5.9,1.6,8.8,2.5.1,0,.3,0,.3-.2,0-.7.1-1.4.1-2.1.1-2,.3-4,.4-6,0-.7.1-1.4.1-2.1,0-.1-.1-.3-.3-.2-2.4.5-4.7,1.1-7.1,1.7-3.5-.1-7-.2-10.5-.2h-.4c0-3.4,0-6.7,0-10.1,3,0,6,.2,9,.3h0Z"/><path class="cls-17" d="m186.2,257.3c-.6-.4-.8-.3-.6.4,1.9,5.5,3.8,11,5.6,16.5,0,.1,0,.3-.2.4-2.8.9-5.5,1.8-8.2,2.8-.2,0-.3,0-.4-.1-4.6-11.8-9.1-23.5-13.6-35.3-.9-2.2-2.6-3.4-4.4-4.9-.1,0,0-.3.1-.3,7.2-2.8,14.5-5.2,21.9-7.4,1.8-.5,2.6,0,4.1.9,6.6,3.9,7.3,10.5,9,16.8,0,.3,0,.7-.3,1-1,.9-2,1.8-3,2.7-.2.2-.2.5,0,.6,1.8,1,5.6,2.7,6.1,4.7,1.5,5.5,3,11,4.5,16.5,0,.1,0,.2-.2.3-1.9.2-3.8,0-5.6-.5-4.9-1.5-5.3-5.4-6.7-9.4,0-.2-.2-.3-.3-.4-2.5-1.8-5.1-3.5-7.8-5.2m1.1-11c.1,0,.1-.2.1-.3-.9-3.2-2.3-10.4-8.6-8.1-.2,0-.3.2-.2.4,1.4,4,2.7,8,4.1,12,0,0,.1,0,.2,0,1.5-1.3,2.9-2.6,4.4-4h0Z"/><path class="cls-17" d="m344.5,259.6c-.1,0-.3.1-.3.2-1.5,4.8-3.1,9.6-4.6,14.4,0,.2-.2.2-.4.2-2.7-.9-5.5-1.7-8.2-2.5-.2,0-.2-.2-.2-.3,3.2-12.1,6.5-24.1,10-36.1.6-2.2-.1-4.5-.7-6.8,0-.2.2-.4.4-.3,7.4,2,14.8,4.3,22,7,.6.2,1,.6,1.3,1,5.1,7.8,1.1,14.2-1.6,21,0,.2-.2.3-.4.3-5.9.4-11.6,1-17.2,1.8m8.5-10.2c0,0,.1,0,.2-.1,1.1-3,4.3-10-2.2-11.6-.2,0-.4,0-.4.2-1.3,4-2.5,8-3.8,12,0,.2,0,.2.2.2,2-.2,4-.5,6-.6s1.3-.1,0,0h0Z"/><path class="cls-17" d="m315.1,261.8c2.5-12.5,5.1-25,7.6-37.6,0-.2.2-.3.4-.2,3.2.7,6.5,1.5,9.7,2.4.2,0,.3.2.3.3-2.8,12.1-6,24.1-8.9,36.2-.6,2.4,0,4.6.4,7,0,.2,0,.3-.3.3-6.4-1.6-12.8-2.9-19.2-4-.2,0-.4-.1-.5-.3-1.9-2.3-3.1-4.8-3.7-7.6-.4-1.7-.3-4.4.2-8.1,1.4-10.5,2.9-21.1,4.3-31.6,0-.2.2-.3.4-.2,3.7.9,7.7,3.1,9.1,6.2.4,1,.5,2.3.2,3.9-1.5,8.7-3.1,17.5-4.6,26.2-.5,3.1.7,6.6,4.3,7.4.2,0,.3,0,.4-.2q0-.1,0,0h0Z"/><path class="cls-17" d="m252.2,230.6c0,.5,0,.9,0,1.4-3.4.2-6.8.4-10.1.8-.2,0-.4,0-.4-.3-.3-2.4-.8-6.1-3.8-6.4-.6,0-1.2.2-1.5.7-1.4,2.6-.9,6.5-.6,9.3,0,.2.1.3.4.4,5.7,1.9,11.3,3.9,16.7,6.1.2,3.1.4,6.2.5,9.2-.1,4.6-1.9,8.6-5,12-.1.1-.3.2-.5.2-3.9.4-7.7.8-11.5,1.4-.2,0-.3,0-.5-.1-3.9-2.5-6.5-6-7.4-10.5,0-.2,0-.3.3-.4,3-.5,6-.9,9-1.3.2,0,.3,0,.3.2.4,2.2,1.1,5.5,3.9,5.4.2,0,.4,0,.5-.2,1.9-2.1,1.4-7.5,1-9.8,0-.2-.1-.3-.3-.4-5.3-1.9-10.8-3.6-16.4-5.2-.2,0-.3-.2-.3-.3-1.3-8-3-13.6,2.7-20.9.5-.6,1.1-1,1.8-1,4.3-.6,8.6-1.1,13-1.5.2,0,.5,0,.6.1,4.2,1.9,7,7.1,7.7,11h0Z"/><path class="cls-17" d="m206.8,223.8c1.7,7.5,3.3,15.1,5,22.6,1.7,7.9,3.5,15.7,5.2,23.5,0,.1.1.2.2.1,2.8-.6,5.6-1.2,8.5-1.7.1,0,.2-.1.2-.2-1.4-7.9-2.9-15.8-4.3-23.8h0c-.1-.8-.3-1.5-.4-2.3-1.2-6.8-2.5-13.7-3.7-20.5-3.6.6-7.1,1.4-10.7,2.2h0Z"/><path class="cls-17" d="m277,225.3h0c3.1.8,6.2,1.6,9.3,2.6.2,0,.3,0,.4-.2.2-2.7.4-5.4.6-8.1,0-.1-.1-.2-.2-.2-9.8-.7-19.5-.9-29.3-.5h-.2c.5,14.9,1.1,29.7,1.6,44.6h.2c2.9-.1,5.8-.1,8.6-.1,5.3,0,10.6.2,16,.6.1,0,.2,0,.2-.2.2-2.7.4-5.4.6-8.1,0-.1-.1-.3-.3-.2-2.9.5-5.7,1-8.5,1.6h0c-2.6,0-5.3,0-7.9,0,0-5.1,0-10.3,0-15.4,2.5,0,5.1,0,7.6.1.3,0,.5,0,.8,0h0c2.9.8,5.9,1.6,8.8,2.5.1,0,.3,0,.3-.2,0-.7.1-1.4.1-2.1.1-2,.3-4,.4-6,0-.7.1-1.4.1-2.1,0-.1-.1-.3-.3-.2-2.4.5-4.7,1.1-7.1,1.7-3.5-.1-7-.2-10.5-.2h-.4c0-3.4,0-6.7,0-10.1,3,0,6,.2,9,.3h0Z"/><path class="cls-17" d="m186.2,257.3c-.6-.4-.8-.3-.6.4,1.9,5.5,3.8,11,5.6,16.5,0,.1,0,.3-.2.4-2.8.9-5.5,1.8-8.2,2.8-.2,0-.3,0-.4-.1-4.6-11.8-9.1-23.5-13.6-35.3-.9-2.2-2.6-3.4-4.4-4.9-.1,0,0-.3.1-.3,7.2-2.8,14.5-5.2,21.9-7.4,1.8-.5,2.6,0,4.1.9,6.6,3.9,7.3,10.5,9,16.8,0,.3,0,.7-.3,1-1,.9-2,1.8-3,2.7-.2.2-.2.5,0,.6,1.8,1,5.6,2.7,6.1,4.7,1.5,5.5,3,11,4.5,16.5,0,.1,0,.2-.2.3-1.9.2-3.8,0-5.6-.5-4.9-1.5-5.3-5.4-6.7-9.4,0-.2-.2-.3-.3-.4-2.5-1.8-5.1-3.5-7.8-5.2m1.1-11c.1,0,.1-.2.1-.3-.9-3.2-2.3-10.4-8.6-8.1-.2,0-.3.2-.2.4,1.4,4,2.7,8,4.1,12,0,0,.1,0,.2,0,1.5-1.3,2.9-2.6,4.4-4h0Z"/><path class="cls-17" d="m344.5,259.6c-.1,0-.3.1-.3.2-1.5,4.8-3.1,9.6-4.6,14.4,0,.2-.2.2-.4.2-2.7-.9-5.5-1.7-8.2-2.5-.2,0-.2-.2-.2-.3,3.2-12.1,6.5-24.1,10-36.1.6-2.2-.1-4.5-.7-6.8,0-.2.2-.4.4-.3,7.4,2,14.8,4.3,22,7,.6.2,1,.6,1.3,1,5.1,7.8,1.1,14.2-1.6,21,0,.2-.2.3-.4.3-5.9.4-11.6,1-17.2,1.8m8.5-10.2c0,0,.1,0,.2-.1,1.1-3,4.3-10-2.2-11.6-.2,0-.4,0-.4.2-1.3,4-2.5,8-3.8,12,0,.2,0,.2.2.2,2-.2,4-.5,6-.6s1.3-.1,0,0h0Z"/><path class="cls-17" d="m315.1,261.8c2.5-12.5,5.1-25,7.6-37.6,0-.2.2-.3.4-.2,3.2.7,6.5,1.5,9.7,2.4.2,0,.3.2.3.3-2.8,12.1-6,24.1-8.9,36.2-.6,2.4,0,4.6.4,7,0,.2,0,.3-.3.3-6.4-1.6-12.8-2.9-19.2-4-.2,0-.4-.1-.5-.3-1.9-2.3-3.1-4.8-3.7-7.6-.4-1.7-.3-4.4.2-8.1,1.4-10.5,2.9-21.1,4.3-31.6,0-.2.2-.3.4-.2,3.7.9,7.7,3.1,9.1,6.2.4,1,.5,2.3.2,3.9-1.5,8.7-3.1,17.5-4.6,26.2-.5,3.1.7,6.6,4.3,7.4.2,0,.3,0,.4-.2q0-.1,0,0h0Z"/><path class="cls-17" d="m252.2,230.6c0,.5,0,.9,0,1.4-3.4.2-6.8.4-10.1.8-.2,0-.4,0-.4-.3-.3-2.4-.8-6.1-3.8-6.4-.6,0-1.2.2-1.5.7-1.4,2.6-.9,6.5-.6,9.3,0,.2.1.3.4.4,5.7,1.9,11.3,3.9,16.7,6.1.2,3.1.4,6.2.5,9.2-.1,4.6-1.9,8.6-5,12-.1.1-.3.2-.5.2-3.9.4-7.7.8-11.5,1.4-.2,0-.3,0-.5-.1-3.9-2.5-6.5-6-7.4-10.5,0-.2,0-.3.3-.4,3-.5,6-.9,9-1.3.2,0,.3,0,.3.2.4,2.2,1.1,5.5,3.9,5.4.2,0,.4,0,.5-.2,1.9-2.1,1.4-7.5,1-9.8,0-.2-.1-.3-.3-.4-5.3-1.9-10.8-3.6-16.4-5.2-.2,0-.3-.2-.3-.3-1.3-8-3-13.6,2.7-20.9.5-.6,1.1-1,1.8-1,4.3-.6,8.6-1.1,13-1.5.2,0,.5,0,.6.1,4.2,1.9,7,7.1,7.7,11h0Z"/><path class="cls-17" d="m206.8,223.8c1.7,7.5,3.3,15.1,5,22.6,1.7,7.9,3.5,15.7,5.2,23.5,0,.1.1.2.2.1,2.8-.6,5.6-1.2,8.5-1.7.1,0,.2-.1.2-.2-1.4-7.9-2.9-15.8-4.3-23.8h0c-.1-.8-.3-1.5-.4-2.3-1.2-6.8-2.5-13.7-3.7-20.5-3.6.6-7.1,1.4-10.7,2.2h0Z"/><path class="cls-17" d="m277,225.3h0c3.1.8,6.2,1.6,9.3,2.6.2,0,.3,0,.4-.2.2-2.7.4-5.4.6-8.1,0-.1-.1-.2-.2-.2-9.8-.7-19.5-.9-29.3-.5h-.2c.5,14.9,1.1,29.7,1.6,44.6h.2c2.9-.1,5.8-.1,8.6-.1,5.3,0,10.6.2,16,.6.1,0,.2,0,.2-.2.2-2.7.4-5.4.6-8.1,0-.1-.1-.3-.3-.2-2.9.5-5.7,1-8.5,1.6h0c-2.6,0-5.3,0-7.9,0,0-5.1,0-10.3,0-15.4,2.5,0,5.1,0,7.6.1.3,0,.5,0,.8,0h0c2.9.8,5.9,1.6,8.8,2.5.1,0,.3,0,.3-.2,0-.7.1-1.4.1-2.1.1-2,.3-4,.4-6,0-.7.1-1.4.1-2.1,0-.1-.1-.3-.3-.2-2.4.5-4.7,1.1-7.1,1.7-3.5-.1-7-.2-10.5-.2h-.4c0-3.4,0-6.7,0-10.1,3,0,6,.2,9,.3h0Z"/></svg>