<?xml version="1.0" encoding="UTF-8"?><svg id="Primary_Color" xmlns="http://www.w3.org/2000/svg" xmlns:xlink="http://www.w3.org/1999/xlink" viewBox="0 0 518.7 743.8"><defs><style>.cls-1{stroke-width:.3px;}.cls-1,.cls-2,.cls-3,.cls-4,.cls-5,.cls-6,.cls-7,.cls-8,.cls-9{fill:none;}.cls-1,.cls-3,.cls-4,.cls-6,.cls-7,.cls-8,.cls-9{stroke:#000;}.cls-1,.cls-3,.cls-4,.cls-6,.cls-8{stroke-miterlimit:10;}.cls-10{clip-path:url(#clippath);}.cls-2,.cls-11,.cls-12,.cls-13,.cls-14,.cls-15,.cls-16,.cls-17,.cls-18{stroke-width:0px;}.cls-3,.cls-7{stroke-width:.4px;}.cls-19{clip-path:url(#clippath-1);}.cls-20{clip-path:url(#clippath-4);}.cls-21{clip-path:url(#clippath-3);}.cls-22{clip-path:url(#clippath-2);}.cls-23{clip-path:url(#clippath-7);}.cls-24{clip-path:url(#clippath-6);}.cls-25{clip-path:url(#clippath-5);}.cls-4,.cls-6{stroke-dasharray:0 0 0 .2;}.cls-4,.cls-8{stroke-width:0px;}.cls-5{stroke:#d3d3d3;stroke-width:5px;}.cls-5,.cls-7,.cls-9{stroke-linejoin:round;}.cls-6{stroke-width:.1px;}.cls-11{isolation:isolate;opacity:.3;}.cls-7,.cls-9{stroke-linecap:round;}.cls-12{fill:#f9a21b;}.cls-13{fill:gray;}.cls-14{fill:#9c2135;}.cls-15{fill:#e14c37;}.cls-16{fill:#d3d3d3;}.cls-17{fill:#a9a9a9;}.cls-18{fill:#e5e5e4;}.cls-9{stroke-width:.6px;}</style><clipPath id="clippath"><path class="cls-2" d="m447.8,254.2l-.8,1.1v417.3s-.4,4.6-3.2,7.9l-7.6,1.7c-212.4,56.2-361.4,0-361.4,0-3-3.6-3.6-8.4-3.6-8.4,0,0,.3-418.1,0-418.8s-.4-.8-.4-.8h2.7c18.6,0,126.2-8.1,71.3-200.3l-1.4-3.8,1.4.9,31.1-9.9h0c1.4,53.4,29.7,89.8,81.3,105.2l4.1,1.2,4.1-1.2c51-15.2,78.8-50.8,80.9-103.2h0s27.8,8,27.8,8l.9-.9-.5,1.9c-56.9,196.6,54.3,202.5,71.1,202.3h2.1c0,0,0,0,0,0Z"/></clipPath><clipPath id="clippath-1"><path class="cls-2" d="m447.2,240.5c-24.7-.5-43.4-9.3-55.5-26.2-14.5-20.3-19.7-51.9-15.2-94,3.4-32.3,11.4-59.4,12.9-64.5l.2-.8-14.4-4.9-.8,2.1c-23,79.4-21.7,136.7,4.3,170.9,22.2,29.1,55.2,31.7,66.1,31.7h3.1v-14.2h-.9s0,0,0,0Z"/></clipPath><clipPath id="clippath-2"><path class="cls-2" d="m71.6,240.5c24.7-.5,43.4-9.3,55.5-26.2,14.6-20.3,19.7-51.9,15.2-94-3.4-32.3-11.4-59.4-12.9-64.5l-.2-.8,14.4-4.9.8,2.1c23,79.4,21.7,136.7-4.3,170.9-22.2,29.1-55.2,31.7-66.2,31.7h-3.1v-14.2h.9s0,0,0,0Z"/></clipPath><clipPath id="clippath-3"><path class="cls-2" d="m71.6,240.3c24.7-.5,43.4-9.3,55.5-26.2,14.6-20.3,19.7-51.9,15.2-94-3.4-32.3-11.4-59.4-12.9-64.5l-.2-.8,14.4-4.9.8,2.1c23,79.4,21.7,136.7-4.3,170.9-22.2,29.1-55.2,31.7-66.2,31.7h-3.1v-14.2h.9s0,0,0,0Zm375.6.2c-24.7-.5-43.4-9.3-55.5-26.2-14.5-20.3-19.7-51.9-15.2-94,3.4-32.3,11.4-59.4,12.9-64.5l.2-.8-14.4-4.9-.8,2.1c-23,79.4-21.7,136.7,4.3,170.9,22.2,29.1,55.2,31.7,66.1,31.7h3.1v-14.2h-.9s0,0,0,0Z"/></clipPath><clipPath id="clippath-4"><path class="cls-2" d="m346.4,43c-4.2,107.4-84.9,101-84.9,101-84.8-4.1-85.6-102.9-85.6-102.9l.5-1.5,14.2-2.9s.2,27.3,13.5,54.3c0,0,17.1,36.4,54.6,38.6,0,0,40.2,5,61-40.2,6.4-13.8,11.8-30.6,12.5-52.1l13.4,4.4.8,1.3h0Z"/></clipPath><clipPath id="clippath-5"><path class="cls-2" d="m203.8,57c-6.2-5.3-9.9-11.8-11.9-16.3,0-.2-.3-.3-.5-.2-.2,0-.4.2-.3.5.4,4.8,1.5,14.7,4.6,26.3,0,.2.2.3.4.3h0c.1,0,.3,0,.4-.2l7.4-9.8c.1-.2.1-.5,0-.6h0Z"/></clipPath><clipPath id="clippath-6"><path class="cls-2" d="m331.1,39.9c-1.6,3.9-5.4,11.3-12.2,17.1l-.3.3,8.8,12.1.2-.9c2.4-8.8,3.9-18.3,4.4-28.4v-2.6c.1,0-.9,2.4-.9,2.4h0Z"/></clipPath><clipPath id="clippath-7"><path class="cls-2" d="m318.4,57.2l-.4.2c-17,9.8-35.6,14.8-55.1,14.8-31.8,0-55.9-13.2-58.5-14.8l-.3-.2-7.2,9.5.4.3c1.7,1,17.1,9.7,39.4,14.1,7.5,1.5,16.3,2.6,26.1,2.6,18.4,0,40.1-3.9,62.2-16.6l.4-.2-7-9.7h0Z"/></clipPath></defs><path class="cls-13" d="m447.1,254.4h-1.3c-.2,0-.5,0-.8,0-9.8,0-43.7-2.3-66-31.6-26-34.1-27.5-91.6-4.5-170.9l.2-.5h-.4l-27.2-7.8h-.3c0,0,0,.2,0,.2-1.6,36.7-12.2,64-31.6,81.2-20.1,17.9-44.2,19.2-51.1,19.2s-2.3,0-2.4,0c-43.9-2.1-64.9-30.1-74.8-53.1-9.6-22.5-10.9-44.9-11-49.2v-.3l-30.8,9.8c-.1,0-.3,0-.4,0l-.6-.4,1,2.8c22.2,78,20.6,134.8-5.1,168.7-22.4,29.7-56.6,32-66.5,32h-1.7s-.4,0-.4,0l.2.3c.3,1.7.3,133.8,0,392.6h.4c1.5-8.1,5.6-28,10.3-36.8,6.1-11.5,9-22.2,9.7-28.5v-.2s-5.6-.2-5.6-.2c-.4,0-.7-.3-.6-.7,0-.3.3-.7.7-.7h0l7.1.2c.4,0,.7.3.6.7,0,.4-.3.7-.7.7h-1.1s0,.2,0,.2c-.7,6.3-3.6,17.2-9.8,28.8-1.5,2.8-3,6.9-4.6,12.2v.4c-.1,0,.2-.1.2-.1l15,47.8h.1c3.8,1.1,38.8,10.4,94.7,15.1,18.6,1.6,41,2.8,66.2,2.8,48,0,106.5-4.2,170.5-17.9h.1s15-47.8,15-47.8h.4c0,.1-.1-.3-.1-.3-1.6-5.3-3.1-9.4-4.6-12.2-6.2-11.6-9.1-22.5-9.8-28.8v-.2s-1.7,0-1.7,0c-.4,0-.7-.3-.7-.7,0-.4.3-.7.6-.7l7.1-.2c.4,0,.7.3.7.7,0,.4-.3.7-.6.7l-5,.2v.2c.7,6.3,3.6,17.1,9.8,28.5,4.3,8.1,8,25.1,9.9,34.5h.5V255.3c0,0,0-.2,0-.3l.5-.6h0Z"/><g class="cls-10"><rect class="cls-17" x="45.9" y="242.7" width="45.7" height="458.3"/><rect class="cls-17" x="96.1" y="293.6" width="5.6" height="50.9"/><rect class="cls-16" x="96.1" y="242.7" width="5.6" height="50.9"/><rect class="cls-13" x="96.1" y="344.6" width="5.6" height="50.9"/><rect class="cls-17" x="96.1" y="446.4" width="5.6" height="50.9"/><rect class="cls-16" x="96.1" y="395.5" width="5.6" height="50.9"/><rect class="cls-13" x="96.1" y="497.3" width="5.6" height="50.9"/><rect class="cls-17" x="96.1" y="599.2" width="5.6" height="50.9"/><rect class="cls-16" x="96.1" y="548.2" width="5.6" height="50.9"/><rect class="cls-13" x="96.1" y="650.1" width="5.6" height="50.9"/><rect class="cls-17" x="35.9" y="293.6" width="5.6" height="50.9"/><rect class="cls-16" x="35.9" y="242.7" width="5.6" height="50.9"/><rect class="cls-13" x="35.9" y="344.6" width="5.6" height="50.9"/><rect class="cls-17" x="35.9" y="446.4" width="5.6" height="50.9"/><rect class="cls-16" x="35.9" y="395.5" width="5.6" height="50.9"/><rect class="cls-13" x="35.9" y="497.3" width="5.6" height="50.9"/><rect class="cls-17" x="35.9" y="599.2" width="5.6" height="50.9"/><rect class="cls-16" x="35.9" y="548.2" width="5.6" height="50.9"/><rect class="cls-13" x="35.9" y="650.1" width="5.6" height="50.9"/><rect class="cls-17" x="426.9" y="242.7" width="45.7" height="458.3"/><rect class="cls-17" x="416.8" y="293.6" width="5.6" height="50.9"/><rect class="cls-16" x="416.8" y="242.7" width="5.6" height="50.9"/><rect class="cls-13" x="416.8" y="344.6" width="5.6" height="50.9"/><rect class="cls-17" x="416.8" y="446.4" width="5.6" height="50.9"/><rect class="cls-16" x="416.8" y="395.5" width="5.6" height="50.9"/><rect class="cls-13" x="416.8" y="497.3" width="5.6" height="50.9"/><rect class="cls-17" x="416.8" y="599.2" width="5.6" height="50.9"/><rect class="cls-16" x="416.8" y="548.3" width="5.6" height="50.9"/><rect class="cls-13" x="416.8" y="650.1" width="5.6" height="50.9"/><rect class="cls-17" x="477.1" y="293.6" width="5.6" height="50.9"/><rect class="cls-16" x="477.1" y="242.7" width="5.6" height="50.9"/><rect class="cls-13" x="477.1" y="344.6" width="5.6" height="50.9"/><rect class="cls-17" x="477.1" y="446.4" width="5.6" height="50.9"/><rect class="cls-16" x="477.1" y="395.5" width="5.6" height="50.9"/><rect class="cls-13" x="477.1" y="497.3" width="5.6" height="50.9"/><rect class="cls-17" x="477.1" y="599.2" width="5.6" height="50.9"/><rect class="cls-16" x="477.1" y="548.3" width="5.6" height="50.9"/><rect class="cls-13" x="477.1" y="650.1" width="5.6" height="50.9"/></g><path class="cls-5" d="m299.5,368.7h22v8.8h-37.4v-9.7l23.7-36.4v-18.8c0-1.6-1.5-2.4-4.5-2.6-2.8,0-4.3.8-4.5,2.6v17.1h-14.7v-16.4c-.6-4.8,2.3-8.2,8.9-10.1,2.8-.8,6.1-1.3,10.1-1.4,10.9-.6,16.7,2.4,17.5,9.2v22.9l-21.1,34.7h0Z"/><path class="cls-5" d="m342.7,327.4h-14.5v-14.6c0-4.7,3-7.9,9.1-9.7,2.5-.8,5.5-1.2,9.1-1.2,6.8-.4,11.6,1.2,14.4,4.9,1.1,1.5,1.8,3.4,2.1,5.7v18.1c.3,2.6-1.5,4.9-5.6,7,3.4,1.6,5.3,3.9,5.6,6.9v23c0,6.1-5.4,9.4-16.3,9.9-1.1,0-2.1,0-3.1,0-9.4,0-14.4-3.6-15.1-10.9v-18.7h14.5v18.9c0,1.5,1.2,2.3,3.7,2.5,2.6.2,4.1-.6,4.4-2.6v-22.1c0-2.1-1.1-3.2-3.2-3.3h-8v-7.3h8c2.1.3,3.2-.8,3.3-3.4v-18c.2-1.6-1.2-2.4-4.3-2.6-2.3,0-3.6.8-3.8,2.5v14.9h0Z"/><path class="cls-14" d="m299.5,368.7h22v8.8h-37.4v-9.7l23.7-36.4v-18.8c0-1.6-1.5-2.4-4.5-2.6-2.8,0-4.3.8-4.5,2.6v17.1h-14.7v-16.4c-.6-4.8,2.3-8.2,8.9-10.1,2.8-.8,6.1-1.3,10.1-1.4,10.9-.6,16.7,2.4,17.5,9.2v22.9l-21.1,34.7h0Z"/><path class="cls-14" d="m342.7,327.4h-14.5v-14.6c0-4.7,3-7.9,9.1-9.7,2.5-.8,5.5-1.2,9.1-1.2,6.8-.4,11.6,1.2,14.4,4.9,1.1,1.5,1.8,3.4,2.1,5.7v18.1c.3,2.6-1.5,4.9-5.6,7,3.4,1.6,5.3,3.9,5.6,6.9v23c0,6.1-5.4,9.4-16.3,9.9-1.1,0-2.1,0-3.1,0-9.4,0-14.4-3.6-15.1-10.9v-18.7h14.5v18.9c0,1.5,1.2,2.3,3.7,2.5,2.6.2,4.1-.6,4.4-2.6v-22.1c0-2.1-1.1-3.2-3.2-3.3h-8v-7.3h8c2.1.3,3.2-.8,3.3-3.4v-18c.2-1.6-1.2-2.4-4.3-2.6-2.3,0-3.6.8-3.8,2.5v14.9h0Z"/><path class="cls-17" d="m299.5,368.7h22v8.8h-37.4v-9.7l23.7-36.4v-18.8c0-1.6-1.5-2.4-4.5-2.6-2.8,0-4.3.8-4.5,2.6v17.1h-14.7v-16.4c-.6-4.8,2.3-8.2,8.9-10.1,2.8-.8,6.1-1.3,10.1-1.4,10.9-.6,16.7,2.4,17.5,9.2v22.9l-21.1,34.7h0Z"/><path class="cls-17" d="m342.7,327.4h-14.5v-14.6c0-4.7,3-7.9,9.1-9.7,2.5-.8,5.5-1.2,9.1-1.2,6.8-.4,11.6,1.2,14.4,4.9,1.1,1.5,1.8,3.4,2.1,5.7v18.1c.3,2.6-1.5,4.9-5.6,7,3.4,1.6,5.3,3.9,5.6,6.9v23c0,6.1-5.4,9.4-16.3,9.9-1.1,0-2.1,0-3.1,0-9.4,0-14.4-3.6-15.1-10.9v-18.7h14.5v18.9c0,1.5,1.2,2.3,3.7,2.5,2.6.2,4.1-.6,4.4-2.6v-22.1c0-2.1-1.1-3.2-3.2-3.3h-8v-7.3h8c2.1.3,3.2-.8,3.3-3.4v-18c.2-1.6-1.2-2.4-4.3-2.6-2.3,0-3.6.8-3.8,2.5v14.9h0Z"/><g id="R"><g class="cls-19"><path class="cls-15" d="m447.2,240.5c-24.7-.5-43.4-9.3-55.5-26.2-14.5-20.3-19.7-51.9-15.2-94,3.4-32.3,11.4-59.4,12.9-64.5l.2-.8-14.4-4.9-.8,2.1c-23,79.4-21.7,136.7,4.3,170.9,22.2,29.1,55.2,31.7,66.1,31.7h3.1v-14.2h-.9s0,0,0,0Z"/><path class="cls-17" d="m454.9,236.8c-25.3-.5-44.5-9.1-56.9-25.7-14.9-19.9-20.2-50.8-15.6-92.1,3.5-31.6,11.6-58.2,13.2-63.2l.3-.8-14.8-4.8-.8,2c-23.6,77.8-22.2,136.2,4.4,169.7,22.7,28.5,56.6,27.1,67.8,27.1h.9l2.3-1.6v-10.7h-.9s0,0,0,0Z"/><path class="cls-15" d="m459.5,234.5c-25.3-.5-44.5-9-56.9-25.4-14.9-19.6-20.2-50.3-15.6-91.1,3.5-31.3,11.6-57.5,13.2-62.5l.3-.8-14.8-4.8-.8,2c-23.6,76.9-22.2,134.8,4.4,167.9,22.7,28.2,56.6,25.3,67.8,25.3h3.2v-10.6h-.9s0,0,0,0Z"/></g></g><g id="L"><g class="cls-22"><path class="cls-15" d="m71.6,240.5c24.7-.5,43.4-9.3,55.5-26.2,14.6-20.3,19.7-51.9,15.2-94-3.4-32.3-11.4-59.4-12.9-64.5l-.2-.8,14.4-4.9.8,2.1c23,79.4,21.7,136.7-4.3,170.9-22.2,29.1-55.2,31.7-66.2,31.7h-3.1v-14.2h.9s0,0,0,0Z"/><path class="cls-17" d="m63.9,236.8c25.3-.5,44.5-9.1,56.9-25.7,14.9-19.9,20.2-50.8,15.6-92.1-3.5-31.6-11.6-58.2-13.2-63.2l-.3-.8,14.8-4.8.8,2c23.6,77.8,22.2,136.2-4.4,169.7-22.7,28.5-56.6,27.1-67.8,27.1h-.9l-2.3-1.6v-10.7h.9s0,0,0,0Z"/><path class="cls-15" d="m59.2,234.5c25.3-.5,44.5-9,56.9-25.4,14.9-19.6,20.2-50.3,15.6-91.1-3.5-31.3-11.6-57.5-13.2-62.5l-.3-.8,14.8-4.8.8,2c23.6,76.9,22.2,134.8-4.4,167.9-22.7,28.2-56.6,25.3-67.8,25.3h-3.2v-10.6h.9s0,0,0,0Z"/></g></g><path class="cls-12" d="m71.6,240.3c24.7-.5,43.4-9.3,55.5-26.2,14.6-20.3,19.7-51.9,15.2-94-3.4-32.3-11.4-59.4-12.9-64.5l-.2-.8,14.4-4.9.8,2.1c23,79.4,21.7,136.7-4.3,170.9-22.2,29.1-55.2,31.7-66.2,31.7h-3.1v-14.2h.9s0,0,0,0Z"/><path class="cls-2" d="m71.6,240.3c24.7-.5,43.4-9.3,55.5-26.2,14.6-20.3,19.7-51.9,15.2-94-3.4-32.3-11.4-59.4-12.9-64.5l-.2-.8,14.4-4.9.8,2.1c23,79.4,21.7,136.7-4.3,170.9-22.2,29.1-55.2,31.7-66.2,31.7h-3.1v-14.2h.9s0,0,0,0Z"/><path class="cls-12" d="m447.2,240.5c-24.7-.5-43.4-9.3-55.5-26.2-14.5-20.3-19.7-51.9-15.2-94,3.4-32.3,11.4-59.4,12.9-64.5l.2-.8-14.4-4.9-.8,2.1c-23,79.4-21.7,136.7,4.3,170.9,22.2,29.1,55.2,31.7,66.1,31.7h3.1v-14.2h-.9s0,0,0,0Z"/><g class="cls-21"><rect class="cls-16" x="57.6" y="48.5" width="403.4" height="51.3"/><rect class="cls-17" x="57.6" y="99.9" width="403.4" height="51.3"/><rect class="cls-13" x="57.6" y="151.2" width="403.4" height="51.3"/><rect class="cls-16" x="57.6" y="202.5" width="403.4" height="51.3"/></g><path class="cls-2" d="m447.2,240.5c-24.7-.5-43.4-9.3-55.5-26.2-14.5-20.3-19.7-51.9-15.2-94,3.4-32.3,11.4-59.4,12.9-64.5l.2-.8-14.4-4.9-.8,2.1c-23,79.4-21.7,136.7,4.3,170.9,22.2,29.1,55.2,31.7,66.1,31.7h3.1v-14.2h-.9s0,0,0,0Z"/><path class="cls-12" d="m346.4,43c-4.2,107.4-84.9,101-84.9,101-84.8-4.1-85.6-102.9-85.6-102.9l.5-1.5,14.2-2.9s.2,27.3,13.5,54.3c0,0,17.1,36.4,54.6,38.6,0,0,40.2,5,61-40.2,6.4-13.8,11.8-30.6,12.5-52.1l13.4,4.4.8,1.3h0Z"/><g class="cls-20"><rect class="cls-17" x="164.8" y="33.7" width="189" height="28"/><rect class="cls-13" x="164.8" y="61.7" width="189" height="28"/><rect class="cls-16" x="164.8" y="89.7" width="189" height="28"/><rect class="cls-17" x="164.8" y="117.7" width="189" height="28"/></g><path class="cls-2" d="m346.4,43c-4.2,107.4-84.9,101-84.9,101-84.8-4.1-85.6-102.9-85.6-102.9l.5-1.5,14.2-2.9s.2,27.3,13.5,54.3c0,0,17.1,36.4,54.6,38.6,0,0,40.2,5,61-40.2,6.4-13.8,11.8-30.6,12.5-52.1l13.4,4.4.8,1.3h0Z"/><g id="L_back"><g class="cls-25"><path class="cls-17" d="m203.8,57c-6.2-5.3-9.9-11.8-11.9-16.3,0-.2-.3-.3-.5-.2-.2,0-.4.2-.3.5.4,4.8,1.5,14.7,4.6,26.3,0,.2.2.3.4.3h0c.1,0,.3,0,.4-.2l7.4-9.8c.1-.2.1-.5,0-.6h0Z"/><path class="cls-17" d="m200.4,62.6c-6.6-3.4-11.7-11.3-15.7-18.5v-10.6l31.1,16.4-15.4,12.6h0Z"/></g></g><g id="R_back"><g class="cls-24"><path class="cls-17" d="m331.1,39.9c-1.6,3.9-5.4,11.3-12.2,17.1l-.3.3,8.8,12.1.2-.9c2.4-8.8,3.9-18.3,4.4-28.4v-2.6c.1,0-.9,2.4-.9,2.4h0Z"/><path class="cls-17" d="m322,62.6c6.6-3.4,11.7-11.3,15.7-18.5v-10.6l-31.1,16.4,15.4,12.6h0Z"/></g></g><g id="back"><g class="cls-23"><path class="cls-17" d="m318.4,57.2l-.4.2c-17,9.8-35.6,14.8-55.1,14.8-31.8,0-55.9-13.2-58.5-14.8l-.3-.2-7.2,9.5.4.3c1.7,1,17.1,9.7,39.4,14.1,7.5,1.5,16.3,2.6,26.1,2.6,18.4,0,40.1-3.9,62.2-16.6l.4-.2-7-9.7h0Z"/><path class="cls-17" d="m318.4,51l-.4.2c-17,9.8-35.6,14.8-55.1,14.8-31.8,0-55.9-13.2-58.5-14.8l-.3-.2-7.2,9.5.4.3c1.7,1,17.1,9.7,39.4,14.1,7.5,1.5,16.3,2.6,26.1,2.6,18.4,0,40.1-3.9,62.2-16.6l.4-.2-7-9.7h0Z"/></g></g><path class="cls-18" d="m325.4,67.2h-.2c-19.2,11.2-40.2,16.8-62.4,16.8s-17.5-.9-26.2-2.6c-22.5-4.5-37.8-13.2-39.5-14.2h-.2c0-.1-.9,1-.9,1h0c2.2,8.1,5.1,15.6,8.4,22.5.2.4,17.5,36.2,54.2,38.4.1,0,1.3.1,3.3.1,10,0,39.8-3.2,56.8-39.1h0s.4-.9.4-.9c3.1-6.7,5.5-13.2,7.5-19.9h0c0-.1-1.5-2.1-1.5-2.1h0Z"/><path class="cls-13" d="m446.7,649.8c-.8-4.4-2.9-15.8-5.8-25.7,0-.2-.2-.3-.4-.3h0c-.2,0-.4.1-.4.3l-14.8,47.1h0c-55.8,11.9-113.3,17.9-170.9,17.9s-44.7-.9-66.3-2.8c-58.2-5-94.6-15.1-94.9-15.2l-14.8-47.1c0-.2-.2-.3-.4-.3h0c-.2,0-.4.1-.4.3-3.4,11.9-5.8,26-6.1,27.9,0,0,0,.2,0,.3v21.6s0,0,0,0c.1.8.9,4.9,3.4,8,0,0,.1.1.2.1,4,1.5,40.5,14.4,100.9,21,20.1,2.2,44.1,3.8,71.6,3.8,52.3,0,116.7-5.9,188.6-24.9l7.4-1.7c.1,0,.2,0,.2-.2,2.5-3.2,3-7.5,3-7.6h0v-22.9h0Z"/><path class="cls-1" d="m70.8,254.1h2.7c18.6,0,126.2-8.1,71.3-200.3l-1.4-3.8"/><path class="cls-1" d="m375.2,50.3l-.5,1.6c-56.9,196.6,54.3,202.5,71.1,202.3h2.1"/><path class="cls-3" d="m190.6,36.6s3.6,12.1,13.7,20.5c0,0,55.8,33.8,114,0,10.1-8.4,13.9-19.7,13.9-19.7"/><path class="cls-1" d="m197.1,66.9s62.8,38.1,128.4,0"/><line class="cls-1" x1="195.7" y1="68.4" x2="204.3" y2="57.1"/><line class="cls-4" x1="195" y1="67.5" x2="203.6" y2="56.2"/><line class="cls-1" x1="318.3" y1="57.1" x2="327.5" y2="69.8"/><line class="cls-4" x1="319.1" y1="56.5" x2="328.1" y2="68.7"/><path class="cls-1" d="m71.5,652.1s4.9-29.9,11.1-41.5c6.2-11.7,9.3-23.1,9.9-29.6"/><path class="cls-1" d="m78.2,623l15.1,48.2s142.4,40.5,332,0l15.1-48.2"/><path class="cls-1" d="m447.2,652.1s-4.9-29.9-11.1-41.5c-6.2-11.7-9.3-23.1-9.9-29.6"/><line class="cls-4" x1="79" y1="620.4" x2="95.5" y2="671.6"/><line class="cls-4" x1="439.9" y1="620.4" x2="423.3" y2="671.6"/><path class="cls-6" d="m427.4,665.3c-57.5,13.5-112.5,17.6-162.8,17.6-99.8,0-172.2-17.4-173.3-17.7"/><path class="cls-6" d="m90.6,661.4c1.6.4,167,40.1,337.7,0"/><path class="cls-4" d="m447.3,252.6h-2.6c-18.1,0-122.9-8-69.5-197.6l1.3-3.7"/><path class="cls-8" d="m72.8,673.7c-.2.5-.5.8-.7.7-.2,0-.3-.5-.1-1,.2-.5.5-.8.7-.7.2,0,.3.5.1,1Z"/><path class="cls-8" d="m72.4,674.7c-.2.5-.5.8-.7.7-.2,0-.3-.5-.1-1,.2-.5.5-.8.7-.7.2,0,.3.5.1,1h0Z"/><path class="cls-8" d="m74,674.1c-.2.5-.5.8-.7.7s-.3-.5-.1-1,.5-.8.7-.7c.2,0,.3.5.1,1h0Z"/><path class="cls-8" d="m73.7,675.1c-.2.5-.5.8-.7.7s-.3-.5-.1-1c.2-.5.5-.8.7-.7.2,0,.3.5.1,1h0Z"/><path class="cls-8" d="m75.2,674.5c-.1.5-.5.8-.7.7s-.3-.5-.2-1c.2-.5.5-.8.7-.7.2,0,.3.5.1,1Z"/><path class="cls-8" d="m74.9,675.5c-.2.5-.5.8-.7.7s-.3-.5-.2-1c.2-.5.5-.8.7-.7.2,0,.3.5.2,1Z"/><path class="cls-8" d="m76.5,674.9c-.1.5-.5.8-.7.7s-.3-.5-.1-1c.1-.5.5-.8.7-.7.2,0,.3.5.1,1h0Z"/><path class="cls-8" d="m76.1,675.9c-.1.5-.5.8-.7.7-.2,0-.3-.5-.1-1,.1-.5.5-.8.7-.7.2,0,.3.5.2,1h0Z"/><path class="cls-8" d="m77.7,675.3c-.1.5-.5.8-.7.7-.2,0-.3-.5-.2-1s.5-.8.7-.7c.2,0,.3.5.2,1Z"/><path class="cls-8" d="m77.4,676.3c-.1.5-.5.8-.7.7-.2,0-.3-.5-.2-1s.5-.8.7-.7c.2,0,.3.5.2,1Z"/><path class="cls-8" d="m78.9,675.7c-.1.5-.5.8-.7.7s-.3-.5-.2-1,.5-.8.7-.7c.2,0,.3.5.2,1Z"/><path class="cls-8" d="m78.6,676.7c-.1.5-.5.8-.7.7-.2,0-.3-.5-.2-1s.5-.8.7-.7c.2,0,.3.5.2,1Z"/><path class="cls-8" d="m80.2,676c-.1.5-.5.8-.7.7-.2,0-.3-.5-.2-1,.1-.5.5-.8.7-.7.2,0,.3.5.2,1Z"/><path class="cls-8" d="m79.8,677.1c-.1.5-.5.8-.7.7-.2,0-.3-.5-.2-1,.1-.5.5-.8.7-.7.2,0,.3.5.2,1Z"/><path class="cls-8" d="m81.4,676.4c-.1.5-.4.8-.7.7s-.3-.5-.2-1c.1-.5.5-.8.7-.7.2,0,.3.5.2,1Z"/><path class="cls-8" d="m81.1,677.4c-.1.5-.5.8-.7.7-.2,0-.3-.5-.2-1,.1-.5.5-.8.7-.7.2,0,.3.5.2,1Z"/><path class="cls-8" d="m82.6,676.8c-.1.5-.4.8-.7.7s-.3-.5-.2-1c.1-.5.4-.8.7-.7s.3.5.2,1Z"/><path class="cls-8" d="m82.3,677.8c-.1.5-.4.8-.7.7s-.3-.5-.2-1c.1-.5.4-.8.7-.7s.3.5.2,1Z"/><path class="cls-8" d="m83.9,677.1c-.1.5-.4.8-.7.8-.2,0-.3-.5-.2-1,.1-.5.4-.8.7-.7s.3.5.2,1Z"/><path class="cls-8" d="m83.6,678.2c-.1.5-.4.8-.7.7s-.3-.5-.2-1c.1-.5.4-.8.7-.7s.3.5.2,1h0Z"/><path class="cls-8" d="m85.1,677.5c-.1.5-.4.8-.7.8-.2,0-.3-.5-.2-1,.1-.5.4-.8.7-.8.2,0,.3.5.2,1Z"/><path class="cls-8" d="m84.8,678.5c-.1.5-.4.8-.7.8-.2,0-.3-.5-.2-1s.4-.8.7-.8c.2,0,.3.5.2,1Z"/><path class="cls-8" d="m86.4,677.9c-.1.5-.4.8-.7.8-.2,0-.3-.5-.2-1,.1-.5.4-.8.7-.8.2,0,.3.5.2,1Z"/><path class="cls-8" d="m86.1,678.9c-.1.5-.4.8-.7.8-.2,0-.3-.5-.2-1,.1-.5.4-.8.7-.8.2,0,.3.5.2,1Z"/><path class="cls-8" d="m87.6,678.2c-.1.5-.4.8-.7.8-.2,0-.3-.5-.2-1,.1-.5.4-.8.7-.8.2,0,.3.5.2,1Z"/><path class="cls-8" d="m87.3,679.2c-.1.5-.4.8-.7.8-.2,0-.3-.5-.2-1s.4-.8.7-.8c.2,0,.3.5.2,1Z"/><path class="cls-8" d="m88.8,678.6c-.1.5-.4.8-.7.8-.2,0-.3-.5-.2-1,.1-.5.4-.8.7-.8.2,0,.3.5.2,1Z"/><path class="cls-8" d="m88.6,679.6c-.1.5-.4.8-.7.8-.2,0-.3-.5-.2-1,.1-.5.4-.8.7-.8.2,0,.3.5.2,1Z"/><path class="cls-8" d="m90.1,678.9c-.1.5-.4.8-.7.8-.2,0-.3-.5-.2-1s.4-.8.7-.8c.2,0,.3.5.2,1Z"/><path class="cls-8" d="m89.8,679.9c-.1.5-.4.8-.7.8-.2,0-.3-.5-.2-1s.4-.8.7-.8c.2,0,.3.5.2,1h0Z"/><path class="cls-8" d="m91.3,679.2c-.1.5-.4.8-.7.8-.2,0-.3-.5-.2-1s.4-.8.7-.8c.2,0,.3.5.2,1Z"/><path class="cls-8" d="m91.1,680.3c-.1.5-.4.8-.7.8-.2,0-.3-.5-.2-1s.4-.8.7-.8c.2,0,.3.5.2,1Z"/><path class="cls-8" d="m92.6,679.6c-.1.5-.4.8-.7.8-.2,0-.3-.5-.2-1s.4-.8.7-.8c.2,0,.3.5.2,1Z"/><path class="cls-8" d="m92.3,680.6c-.1.5-.4.8-.7.8-.2,0-.3-.5-.2-1s.4-.8.7-.8c.2,0,.3.5.2,1Z"/><path class="cls-8" d="m93.8,679.9c-.1.5-.4.8-.7.8-.2,0-.3-.5-.2-1s.4-.8.7-.8c.2,0,.3.5.2,1Z"/><path class="cls-8" d="m93.6,681c-.1.5-.4.8-.7.8-.2,0-.3-.5-.2-1,.1-.5.4-.8.7-.8.2,0,.3.5.2,1Z"/><path class="cls-8" d="m95.1,680.2c-.1.5-.4.8-.7.8-.2,0-.3-.5-.2-1,.1-.5.4-.8.7-.8.2,0,.3.5.2,1Z"/><path class="cls-8" d="m94.8,681.3c-.1.5-.4.8-.7.8-.2,0-.3-.5-.2-1,.1-.5.4-.8.7-.8.2,0,.3.5.2,1Z"/><path class="cls-8" d="m96.3,680.6c-.1.5-.4.8-.7.8-.2,0-.3-.5-.2-1,.1-.5.4-.8.7-.8.2,0,.3.5.2,1Z"/><path class="cls-8" d="m96.1,681.6c-.1.5-.4.8-.7.8-.2,0-.3-.5-.2-1,.1-.5.4-.8.7-.8.2,0,.3.5.2,1Z"/><path class="cls-8" d="m97.6,680.9c-.1.5-.4.8-.7.8s-.3-.5-.2-1c.1-.5.4-.8.7-.8s.3.5.2,1Z"/><path class="cls-8" d="m97.3,681.9c-.1.5-.4.8-.7.8s-.3-.5-.2-1c.1-.5.4-.8.7-.8s.3.5.2,1Z"/><path class="cls-8" d="m98.8,681.2c-.1.5-.4.8-.7.8s-.3-.5-.2-1,.4-.8.7-.8.3.5.2,1Z"/><path class="cls-8" d="m98.6,682.2c-.1.5-.4.8-.7.8s-.3-.5-.2-1,.4-.8.7-.8.3.5.2,1Z"/><path class="cls-8" d="m100.1,681.5c-.1.5-.4.8-.7.8s-.3-.5-.2-1c.1-.5.4-.8.7-.8s.3.5.2,1Z"/><path class="cls-8" d="m99.8,682.6c-.1.5-.4.8-.7.8s-.3-.5-.2-1c.1-.5.4-.8.7-.8s.3.5.2,1Z"/><path class="cls-8" d="m101.3,681.8c-.1.5-.4.8-.7.8-.2,0-.3-.5-.2-1,.1-.5.4-.8.7-.8.2,0,.3.5.2,1Z"/><path class="cls-8" d="m101.1,682.9c-.1.5-.4.8-.7.8-.2,0-.3-.5-.2-1,.1-.5.4-.8.7-.8s.3.5.2,1Z"/><path class="cls-8" d="m102.6,682.1c-.1.5-.4.8-.7.8-.2,0-.3-.5-.2-1s.4-.8.6-.8c.2,0,.3.5.2,1h0Z"/><path class="cls-8" d="m102.3,683.2c-.1.5-.4.8-.7.8-.2,0-.3-.5-.2-1s.4-.8.7-.8c.2,0,.3.5.2,1Z"/><path class="cls-8" d="m103.9,682.4c-.1.5-.4.8-.6.8-.2,0-.3-.5-.2-1,.1-.5.4-.8.6-.8.2,0,.3.5.2,1Z"/><path class="cls-8" d="m103.6,683.5c-.1.5-.4.8-.6.8-.2,0-.4-.5-.2-1,.1-.5.4-.8.6-.8.2,0,.3.5.2,1Z"/><path class="cls-8" d="m105.1,682.7c-.1.5-.4.8-.6.8-.2,0-.4-.5-.2-1,.1-.5.4-.8.6-.8.2,0,.3.5.2,1Z"/><path class="cls-8" d="m104.9,683.8c-.1.5-.4.8-.6.8-.2,0-.4-.5-.2-1,.1-.5.4-.8.6-.8.2,0,.4.5.2,1Z"/><path class="cls-8" d="m106.4,683c-.1.5-.4.8-.6.8-.2,0-.4-.5-.2-1,.1-.5.4-.8.6-.8.2,0,.4.5.2,1Z"/><path class="cls-8" d="m106.1,684.1c-.1.5-.4.8-.6.8s-.4-.5-.2-1c.1-.5.4-.8.6-.8.2,0,.4.5.2,1Z"/><path class="cls-8" d="m107.6,683.3c-.1.5-.4.8-.6.8-.2,0-.4-.5-.2-1,.1-.5.4-.8.6-.8.2,0,.4.5.2,1Z"/><path class="cls-8" d="m107.4,684.4c-.1.5-.4.8-.6.8-.2,0-.4-.5-.2-1s.4-.8.6-.8c.2,0,.4.5.2,1Z"/><path class="cls-8" d="m108.9,683.6c-.1.5-.4.8-.6.8-.2,0-.4-.5-.2-1s.4-.8.6-.8c.2,0,.4.5.2,1Z"/><path class="cls-8" d="m108.6,684.7c-.1.5-.4.8-.6.8-.2,0-.4-.5-.2-1s.4-.8.6-.8c.2,0,.4.5.2,1Z"/><path class="cls-8" d="m110.1,683.9c-.1.5-.4.8-.6.8-.2,0-.4-.5-.2-1s.4-.8.6-.8c.2,0,.4.5.2,1Z"/><path class="cls-8" d="m109.9,685c-.1.5-.4.8-.6.8-.2,0-.4-.5-.2-1s.4-.8.6-.8c.2,0,.4.5.2,1Z"/><path class="cls-8" d="m111.4,684.2c-.1.5-.4.8-.6.8-.2,0-.4-.5-.2-1s.4-.8.6-.8c.2,0,.4.5.2,1Z"/><path class="cls-8" d="m111.2,685.2c-.1.5-.4.8-.6.8-.2,0-.4-.5-.2-1s.4-.8.6-.8c.2,0,.4.5.2,1Z"/><path class="cls-8" d="m112.7,684.5c-.1.5-.4.8-.6.8-.2,0-.4-.5-.2-1s.4-.8.6-.8c.2,0,.4.5.2,1h0Z"/><path class="cls-8" d="m112.4,685.5c-.1.5-.4.8-.6.8-.2,0-.4-.5-.2-1,.1-.5.4-.8.6-.8.2,0,.4.5.2,1h0Z"/><path class="cls-8" d="m113.9,684.8c-.1.5-.4.8-.6.8-.2,0-.4-.5-.2-1,.1-.5.4-.8.6-.8.2,0,.4.5.2,1Z"/><path class="cls-8" d="m113.7,685.8c-.1.5-.4.8-.6.8-.2,0-.4-.5-.2-1,.1-.5.4-.8.6-.8.2,0,.4.5.2,1Z"/><path class="cls-8" d="m115.2,685c-.1.5-.4.8-.6.8-.2,0-.4-.5-.2-1,.1-.5.4-.8.6-.8s.4.5.2,1Z"/><path class="cls-8" d="m115,686.1c-.1.5-.4.8-.6.8-.2,0-.4-.5-.2-1,.1-.5.4-.8.6-.8.2,0,.4.5.2,1Z"/><path class="cls-8" d="m116.5,685.3c-.1.5-.4.8-.6.8-.2,0-.4-.5-.2-1s.4-.8.6-.8c.2,0,.4.5.2,1Z"/><path class="cls-8" d="m116.2,686.4c-.1.5-.4.8-.6.8-.2,0-.4-.5-.2-1,.1-.5.4-.8.6-.8.2,0,.4.5.2,1h0Z"/><path class="cls-8" d="m117.7,685.6c-.1.5-.4.8-.6.8-.2,0-.4-.5-.2-1s.4-.8.6-.8c.2,0,.4.5.2,1Z"/><path class="cls-8" d="m117.5,686.6c-.1.5-.4.8-.6.8-.2,0-.4-.5-.2-1s.4-.8.6-.8c.2,0,.4.5.2,1Z"/><path class="cls-8" d="m119,685.8c-.1.5-.4.8-.6.8-.2,0-.4-.5-.3-1s.4-.8.6-.8c.2,0,.4.5.3,1Z"/><path class="cls-8" d="m118.8,686.9c-.1.5-.4.8-.6.8-.2,0-.4-.5-.3-1s.4-.8.6-.8c.2,0,.4.5.3,1Z"/><path class="cls-8" d="m120.2,686.1c-.1.5-.4.8-.6.8s-.4-.5-.3-1,.4-.8.6-.8c.2,0,.4.5.3,1Z"/><path class="cls-8" d="m120,687.2c-.1.5-.4.8-.6.8s-.4-.5-.3-1,.4-.8.6-.8c.2,0,.4.5.3,1Z"/><path class="cls-8" d="m121.5,686.4c-.1.5-.4.8-.6.8s-.4-.5-.3-1,.4-.8.6-.8c.2,0,.4.5.3,1Z"/><path class="cls-8" d="m121.3,687.4c-.1.5-.4.8-.6.8-.2,0-.4-.5-.3-1s.4-.8.6-.8c.2,0,.4.5.3,1Z"/><path class="cls-8" d="m122.8,686.6c-.1.5-.4.8-.6.8-.2,0-.4-.5-.3-1s.4-.8.6-.8c.2,0,.4.5.3,1Z"/><path class="cls-8" d="m122.6,687.7c-.1.5-.4.8-.6.8s-.4-.5-.3-1,.4-.8.6-.8c.2,0,.4.5.3,1Z"/><path class="cls-8" d="m124,686.9c-.1.5-.4.8-.6.8-.2,0-.4-.5-.3-1s.4-.8.6-.8.4.5.3,1Z"/><path class="cls-8" d="m123.8,687.9c-.1.5-.4.8-.6.8-.2,0-.4-.5-.3-1s.4-.8.6-.8c.2,0,.4.5.3,1Z"/><path class="cls-8" d="m125.3,687.1c-.1.5-.4.8-.6.8-.2,0-.4-.5-.3-1,.1-.5.4-.8.6-.8.2,0,.4.5.3,1Z"/><path class="cls-8" d="m125.1,688.2c-.1.5-.4.8-.6.8-.2,0-.4-.5-.3-1,.1-.5.4-.8.6-.8.2,0,.4.5.3,1Z"/><path class="cls-8" d="m126.6,687.4c-.1.5-.4.8-.6.8s-.4-.5-.3-1c.1-.5.4-.8.6-.8.2,0,.4.5.3,1Z"/><path class="cls-8" d="m126.4,688.4c-.1.5-.4.8-.6.8s-.4-.5-.3-1c.1-.5.4-.8.6-.8.2,0,.4.5.3,1Z"/><path class="cls-8" d="m127.8,687.6c-.1.5-.4.8-.6.8s-.4-.5-.3-1c.1-.5.4-.8.6-.8.2,0,.4.5.3,1Z"/><path class="cls-8" d="m127.6,688.7c-.1.5-.4.8-.6.8s-.4-.5-.3-1c.1-.5.4-.8.6-.8s.4.5.3,1Z"/><path class="cls-8" d="m129.1,687.9c0,.5-.4.8-.6.8s-.4-.5-.3-1c.1-.5.4-.8.6-.8.2,0,.4.5.3,1Z"/><path class="cls-8" d="m128.9,688.9c0,.5-.4.8-.6.8s-.4-.5-.3-1c.1-.5.4-.8.6-.8s.4.5.3,1Z"/><path class="cls-8" d="m130.4,688.1c0,.5-.4.8-.6.8-.2,0-.4-.5-.3-1,0-.5.4-.8.6-.8s.4.5.3,1Z"/><path class="cls-8" d="m130.2,689.2c0,.5-.4.8-.6.8-.2,0-.4-.5-.3-1s.4-.8.6-.8c.2,0,.4.5.3,1Z"/><path class="cls-8" d="m131.7,688.4c0,.5-.4.8-.6.8s-.4-.5-.3-1c0-.5.4-.8.6-.8.2,0,.4.5.3,1Z"/><path class="cls-8" d="m131.5,689.4c0,.5-.4.8-.6.8s-.4-.5-.3-1c0-.5.4-.8.6-.8.2,0,.4.5.3,1Z"/><path class="cls-8" d="m132.9,688.6c0,.5-.4.8-.6.8-.2,0-.4-.5-.3-1,0-.5.4-.8.6-.8.2,0,.4.5.3,1Z"/><path class="cls-8" d="m132.7,689.7c0,.5-.4.8-.6.8-.2,0-.4-.5-.3-1,0-.5.4-.8.6-.8.2,0,.4.5.3,1Z"/><path class="cls-8" d="m134.2,688.8c0,.5-.4.8-.6.8-.2,0-.4-.5-.3-1,0-.5.4-.8.6-.8.2,0,.4.5.3,1Z"/><path class="cls-8" d="m134,689.9c0,.5-.4.8-.6.8-.2,0-.4-.5-.3-1,0-.5.4-.8.6-.8.2,0,.4.5.3,1Z"/><path class="cls-8" d="m135.5,689.1c0,.5-.4.9-.6.8-.2,0-.4-.5-.3-1s.4-.9.6-.8c.2,0,.4.5.3,1Z"/><path class="cls-8" d="m135.3,690.1c0,.5-.4.9-.6.8-.2,0-.4-.5-.3-1s.4-.9.6-.8c.2,0,.4.5.3,1Z"/><path class="cls-8" d="m136.7,689.3c0,.5-.4.9-.6.8-.2,0-.4-.5-.3-1,0-.5.4-.9.6-.8.2,0,.4.5.3,1Z"/><path class="cls-8" d="m136.6,690.4c0,.5-.4.9-.6.8-.2,0-.4-.5-.3-1,0-.5.4-.9.6-.8.2,0,.4.5.3,1Z"/><path class="cls-8" d="m138,689.5c0,.5-.4.9-.6.8s-.4-.5-.3-1c0-.5.4-.9.6-.8.2,0,.4.5.3,1Z"/><path class="cls-8" d="m137.8,690.6c0,.5-.4.9-.6.8-.2,0-.4-.5-.3-1,0-.5.4-.9.6-.8.2,0,.4.5.3,1Z"/><path class="cls-8" d="m139.3,689.7c0,.5-.4.9-.6.8-.2,0-.4-.5-.3-1,0-.5.4-.9.6-.8.2,0,.4.5.3,1Z"/><path class="cls-8" d="m139.1,690.8c0,.5-.4.9-.6.8-.2,0-.4-.5-.3-1,0-.5.4-.9.6-.8.2,0,.4.5.3,1Z"/><path class="cls-8" d="m140.6,690c0,.5-.4.9-.6.8s-.4-.5-.3-1c0-.5.4-.9.6-.8s.4.5.3,1Z"/><path class="cls-8" d="m140.4,691c0,.5-.4.9-.6.8s-.4-.5-.3-1c0-.5.4-.9.6-.8.2,0,.4.5.3,1h0Z"/><path class="cls-8" d="m141.8,690.2c0,.5-.4.9-.6.8s-.4-.5-.3-1c0-.5.4-.9.6-.8s.4.5.3,1Z"/><path class="cls-8" d="m141.7,691.2c0,.5-.4.9-.6.8s-.4-.5-.3-1c0-.5.4-.9.6-.8s.4.5.3,1Z"/><path class="cls-8" d="m143.1,690.4c0,.5-.4.9-.6.8s-.4-.5-.3-1,.4-.9.6-.8.4.5.3,1Z"/><path class="cls-8" d="m142.9,691.5c0,.5-.4.9-.6.8s-.4-.5-.3-1,.4-.9.6-.8.4.5.3,1Z"/><path class="cls-8" d="m144.4,690.6c0,.5-.4.9-.6.8s-.4-.5-.3-1,.4-.9.6-.8c.2,0,.4.5.3,1Z"/><path class="cls-8" d="m144.2,691.7c0,.5-.4.9-.6.8s-.4-.5-.3-1,.4-.9.6-.8.4.5.3,1Z"/><path class="cls-8" d="m145.7,690.8c0,.5-.4.9-.6.8-.2,0-.4-.5-.3-1,0-.5.4-.9.6-.8.2,0,.4.5.3,1h0Z"/><path class="cls-8" d="m145.5,691.9c0,.5-.4.9-.6.8-.2,0-.4-.5-.3-1,0-.5.4-.9.6-.8.2,0,.4.5.3,1h0Z"/><path class="cls-8" d="m146.9,691c0,.5-.3.9-.6.8s-.4-.5-.3-1c0-.5.4-.9.6-.8.2,0,.4.5.3,1Z"/><path class="cls-8" d="m146.8,692.1c0,.5-.4.9-.6.8-.2,0-.4-.5-.3-1,0-.5.4-.9.6-.8.2,0,.4.5.3,1Z"/><path class="cls-8" d="m148.2,691.2c0,.5-.3.9-.6.8s-.4-.5-.3-1c0-.5.3-.9.6-.8s.4.5.3,1Z"/><path class="cls-8" d="m148,692.3c0,.5-.3.9-.6.8s-.4-.5-.3-1c0-.5.3-.9.6-.8s.4.5.3,1Z"/><path class="cls-8" d="m149.5,691.4c0,.5-.3.9-.6.8s-.4-.5-.3-1c0-.5.3-.9.6-.8s.4.5.3,1h0Z"/><path class="cls-8" d="m149.3,692.5c0,.5-.3.9-.6.8s-.4-.5-.3-1c0-.5.3-.9.6-.8s.4.5.3,1Z"/><path class="cls-8" d="m150.8,691.6c0,.5-.3.9-.6.8-.2,0-.4-.5-.3-1,0-.5.3-.9.6-.8.2,0,.4.5.3,1Z"/><path class="cls-8" d="m150.6,692.7c0,.5-.3.9-.6.8-.2,0-.4-.5-.3-1,0-.5.3-.9.6-.8.2,0,.4.5.3,1Z"/><path class="cls-8" d="m152,691.8c0,.5-.3.9-.6.8-.2,0-.4-.5-.3-1s.3-.9.6-.8c.2,0,.4.5.3,1Z"/><path class="cls-8" d="m151.9,692.9c0,.5-.3.9-.6.8-.2,0-.4-.5-.3-1,0-.5.3-.9.6-.8.2,0,.4.5.3,1Z"/><path class="cls-8" d="m153.3,692c0,.5-.3.9-.6.8-.2,0-.4-.5-.3-1,0-.5.3-.9.6-.8.2,0,.4.5.3,1Z"/><path class="cls-8" d="m153.2,693.1c0,.5-.3.9-.6.8-.2,0-.4-.5-.3-1,0-.5.3-.9.6-.8.2,0,.4.5.3,1Z"/><path class="cls-8" d="m154.6,692.2c0,.5-.3.9-.6.8-.2,0-.4-.5-.3-1,0-.5.3-.9.6-.8.2,0,.4.5.3,1Z"/><path class="cls-8" d="m154.4,693.3c0,.5-.3.9-.6.8-.2,0-.4-.5-.3-1,0-.5.3-.9.6-.8.2,0,.4.5.3,1Z"/><path class="cls-8" d="m155.9,692.4c0,.5-.3.9-.6.8s-.4-.5-.3-1c0-.5.3-.9.6-.8s.4.5.3,1Z"/><path class="cls-8" d="m155.7,693.5c0,.5-.3.9-.6.8s-.4-.5-.3-1c0-.5.3-.9.6-.8.2,0,.4.5.3,1Z"/><path class="cls-8" d="m157.2,692.6c0,.5-.3.9-.6.8-.2,0-.4-.5-.3-1,0-.5.3-.9.6-.8.2,0,.4.5.3,1Z"/><path class="cls-8" d="m157,693.7c0,.5-.3.9-.6.8-.2,0-.4-.5-.3-1,0-.5.3-.9.6-.8.2,0,.4.5.3,1Z"/><path class="cls-8" d="m158.4,692.8c0,.5-.3.9-.6.8-.2,0-.4-.5-.3-1,0-.5.3-.9.6-.8.2,0,.4.5.3,1Z"/><path class="cls-8" d="m158.3,693.8c0,.5-.3.9-.6.8-.2,0-.4-.5-.3-1,0-.5.3-.9.6-.8.2,0,.4.5.3,1Z"/><path class="cls-8" d="m159.7,693c0,.5-.3.9-.6.8-.2,0-.4-.5-.3-1,0-.5.3-.9.6-.8.2,0,.4.5.3,1Z"/><path class="cls-8" d="m159.6,694c0,.5-.3.9-.6.8-.2,0-.4-.5-.3-1,0-.5.3-.9.6-.8.2,0,.4.5.3,1h0Z"/><path class="cls-8" d="m161,693.1c0,.5-.3.9-.6.8-.2,0-.4-.5-.3-1,0-.5.3-.9.6-.8.2,0,.4.5.3,1Z"/><path class="cls-8" d="m160.8,694.2c0,.5-.3.9-.6.8-.2,0-.4-.5-.3-1,0-.5.3-.9.6-.8.2,0,.4.5.3,1Z"/><path class="cls-8" d="m162.3,693.3c0,.5-.3.9-.6.8-.2,0-.4-.5-.3-1,0-.5.3-.9.6-.8.2,0,.4.5.3,1Z"/><path class="cls-8" d="m162.1,694.4c0,.5-.3.9-.6.8-.2,0-.4-.5-.3-1,0-.5.3-.9.6-.8.2,0,.4.5.3,1Z"/><path class="cls-8" d="m163.6,693.5c0,.5-.3.9-.6.8-.2,0-.4-.5-.3-1,0-.5.3-.9.6-.8.2,0,.4.5.3,1Z"/><path class="cls-8" d="m163.4,694.6c0,.5-.3.9-.6.8-.2,0-.4-.5-.3-1,0-.5.3-.9.6-.8.2,0,.4.5.3,1Z"/><path class="cls-8" d="m164.8,693.7c0,.5-.3.9-.6.8-.2,0-.4-.5-.3-1,0-.5.3-.9.6-.8.2,0,.4.5.3,1Z"/><path class="cls-8" d="m164.7,694.7c0,.5-.3.9-.6.8-.2,0-.4-.5-.3-1,0-.5.3-.9.6-.8.2,0,.4.5.3,1Z"/><path class="cls-8" d="m166.1,693.8c0,.5-.3.9-.6.8-.2,0-.4-.5-.3-1,0-.5.3-.9.6-.8.2,0,.4.5.3,1Z"/><path class="cls-8" d="m166,694.9c0,.5-.3.9-.6.8-.2,0-.4-.5-.3-1,0-.5.3-.9.6-.8.2,0,.4.5.3,1Z"/><path class="cls-8" d="m167.4,694c0,.5-.3.9-.6.8-.2,0-.4-.5-.3-1,0-.5.3-.9.6-.8.2,0,.4.5.3,1Z"/><path class="cls-8" d="m167.3,695.1c0,.5-.3.9-.6.8-.2,0-.4-.5-.3-1,0-.5.3-.9.6-.8.2,0,.4.5.3,1Z"/><path class="cls-8" d="m168.7,694.2c0,.5-.3.9-.6.8-.2,0-.4-.5-.3-1,0-.5.3-.9.6-.8.2,0,.4.5.3,1h0Z"/><path class="cls-8" d="m168.5,695.2c0,.5-.3.9-.6.8-.2,0-.4-.5-.3-1,0-.5.3-.9.6-.8.2,0,.4.5.3,1Z"/><path class="cls-8" d="m170,694.3c0,.5-.3.9-.6.8-.2,0-.4-.5-.3-1,0-.5.3-.9.6-.8.2,0,.4.5.3,1Z"/><path class="cls-8" d="m169.8,695.4c0,.5-.3.9-.6.8-.2,0-.4-.5-.3-1,0-.5.3-.9.6-.8.2,0,.4.5.3,1h0Z"/><path class="cls-8" d="m171.2,694.5c0,.5-.3.9-.6.8s-.4-.5-.3-1c0-.5.3-.9.6-.8.2,0,.4.5.3,1Z"/><path class="cls-8" d="m171.1,695.6c0,.5-.3.9-.6.8-.2,0-.4-.5-.3-1,0-.5.3-.9.6-.8.2,0,.4.5.3,1Z"/><path class="cls-8" d="m172.5,694.6c0,.5-.3.9-.6.8s-.4-.5-.3-1c0-.5.3-.9.6-.8s.4.5.3,1Z"/><path class="cls-8" d="m172.4,695.7c0,.5-.3.9-.6.8s-.4-.5-.3-1,.3-.9.6-.8.4.5.3,1Z"/><path class="cls-8" d="m173.8,694.8c0,.5-.3.9-.6.8s-.4-.5-.3-1c0-.5.3-.9.6-.8s.4.5.3,1Z"/><path class="cls-8" d="m173.7,695.9c0,.5-.3.9-.6.8s-.4-.5-.3-1c0-.5.3-.9.6-.8s.4.5.3,1Z"/><path class="cls-8" d="m175.1,694.9c0,.5-.3.9-.6.8s-.4-.5-.3-1c0-.5.3-.9.6-.8s.4.5.3,1Z"/><path class="cls-8" d="m175,696c0,.5-.3.9-.6.8s-.4-.5-.3-1c0-.5.3-.9.6-.8s.4.5.3,1Z"/><path class="cls-8" d="m176.4,695.1c0,.5-.3.9-.6.8s-.4-.5-.3-1c0-.5.3-.9.6-.8.2,0,.4.5.3,1Z"/><path class="cls-8" d="m176.3,696.2c0,.5-.3.9-.6.8-.2,0-.4-.5-.4-1s.3-.9.6-.8c.2,0,.4.5.4,1Z"/><path class="cls-8" d="m177.7,695.3c0,.5-.3.9-.6.8s-.4-.5-.4-1c0-.5.3-.9.6-.8s.4.5.4,1Z"/><path class="cls-8" d="m177.5,696.3c0,.5-.3.9-.6.8s-.4-.5-.4-1c0-.5.3-.9.6-.8s.4.5.4,1Z"/><path class="cls-8" d="m178.9,695.4c0,.5-.3.9-.6.8s-.4-.5-.4-1c0-.5.3-.9.6-.8s.4.5.4,1Z"/><path class="cls-8" d="m178.8,696.5c0,.5-.3.9-.6.8s-.4-.5-.4-1c0-.5.3-.9.6-.8s.4.5.4,1Z"/><path class="cls-8" d="m180.2,695.6c0,.5-.3.9-.6.8s-.4-.5-.4-1,.3-.9.6-.8.4.5.4,1Z"/><path class="cls-8" d="m180.1,696.6c0,.5-.3.9-.6.8s-.4-.5-.4-1c0-.5.3-.9.6-.8s.4.5.4,1Z"/><path class="cls-8" d="m181.5,695.7c0,.5-.3.9-.6.9-.2,0-.4-.5-.4-1,0-.5.3-.9.6-.9s.4.5.4,1Z"/><path class="cls-8" d="m181.4,696.8c0,.5-.3.9-.6.9s-.4-.5-.4-1c0-.5.3-.9.6-.9s.4.5.4,1Z"/><path class="cls-8" d="m182.8,695.8c0,.5-.3.9-.6.9s-.4-.5-.4-1c0-.5.3-.9.6-.9s.4.5.4,1Z"/><path class="cls-8" d="m182.7,696.9c0,.5-.3.9-.6.9s-.4-.5-.4-1c0-.5.3-.9.6-.9s.4.5.4,1Z"/><path class="cls-8" d="m184.1,695.9c0,.5-.3.9-.5.9-.2,0-.4-.5-.4-1s.3-.9.5-.9c.2,0,.4.5.4,1Z"/><path class="cls-8" d="m184,697c0,.5-.3.9-.5.9-.2,0-.4-.5-.4-1s.3-.9.5-.9c.2,0,.4.5.4,1Z"/><path class="cls-8" d="m185.4,696.1c0,.5-.3.9-.5.9s-.4-.5-.4-1,.3-.9.5-.9.4.5.4,1Z"/><path class="cls-8" d="m185.3,697.1c0,.5-.3.9-.5.9-.2,0-.4-.5-.4-1s.3-.9.5-.9.4.5.4,1Z"/><path class="cls-8" d="m186.7,696.2c0,.5-.3.9-.5.9s-.4-.5-.4-1,.3-.9.5-.9.4.5.4,1Z"/><path class="cls-8" d="m186.6,697.3c0,.5-.3.9-.5.9s-.4-.5-.4-1,.3-.9.5-.9.4.5.4,1Z"/><path class="cls-8" d="m187.9,696.3c0,.5-.3.9-.5.9s-.4-.5-.4-1,.3-.9.5-.9.4.5.4,1Z"/><path class="cls-8" d="m187.8,697.4c0,.5-.3.9-.5.9s-.4-.5-.4-1,.3-.9.5-.9.4.5.4,1Z"/><path class="cls-8" d="m189.2,696.5c0,.5-.3.9-.5.9s-.4-.5-.4-1,.3-.9.5-.9.4.5.4,1Z"/><path class="cls-8" d="m189.1,697.5c0,.5-.3.9-.5.9-.2,0-.4-.5-.4-1s.3-.9.5-.9.4.5.4,1Z"/><path class="cls-8" d="m190.5,696.6c0,.5-.3.9-.5.9s-.4-.5-.4-1,.3-.9.5-.9.4.5.4,1Z"/><path class="cls-8" d="m190.4,697.7c0,.5-.3.9-.5.9s-.4-.5-.4-1c0-.5.3-.9.5-.9s.4.5.4,1Z"/><path class="cls-8" d="m191.8,696.7c0,.5-.3.9-.5.9s-.4-.5-.4-1c0-.5.3-.9.5-.9.2,0,.4.5.4,1Z"/><path class="cls-8" d="m191.7,697.8c0,.5-.3.9-.5.9-.2,0-.4-.5-.4-1,0-.5.3-.9.5-.9.2,0,.4.5.4,1Z"/><path class="cls-8" d="m193.1,696.8c0,.5-.3.9-.5.9-.2,0-.4-.5-.4-1,0-.5.3-.9.5-.9.2,0,.4.4.4.9h0Z"/><path class="cls-8" d="m193,697.9c0,.5-.3.9-.5.9-.2,0-.4-.5-.4-1,0-.5.3-.9.5-.9.2,0,.4.4.4.9h0Z"/><path class="cls-8" d="m194.4,696.9c0,.5-.3.9-.5.9s-.4-.4-.4-.9c0-.5.3-.9.5-.9s.4.4.4.9Z"/><path class="cls-8" d="m194.3,698c0,.5-.3.9-.5.9s-.4-.4-.4-.9c0-.5.3-.9.5-.9s.4.4.4.9Z"/><path class="cls-8" d="m195.7,697c0,.5-.3.9-.5.9s-.4-.4-.4-.9c0-.5.3-.9.5-.9s.4.4.4.9Z"/><path class="cls-8" d="m195.6,698.1c0,.5-.3.9-.5.9s-.4-.4-.4-.9c0-.5.3-.9.5-.9s.4.4.4.9Z"/><path class="cls-8" d="m197,697.2c0,.5-.3.9-.5.9s-.4-.4-.4-.9c0-.5.3-.9.5-.9s.4.4.4.9Z"/><path class="cls-8" d="m196.9,698.2c0,.5-.3.9-.5.9s-.4-.4-.4-.9c0-.5.3-.9.5-.9s.4.4.4.9Z"/><path class="cls-8" d="m198.2,697.3c0,.5-.3.9-.5.9s-.4-.4-.4-.9.3-.9.5-.9.4.4.4.9Z"/><path class="cls-8" d="m198.2,698.3c0,.5-.3.9-.5.9s-.4-.4-.4-.9.3-.9.5-.9.4.4.4.9Z"/><path class="cls-8" d="m199.5,697.4c0,.5-.3.9-.5.9-.2,0-.4-.4-.4-.9s.3-.9.5-.9c.2,0,.4.4.4.9Z"/><path class="cls-8" d="m199.4,698.4c0,.5-.3.9-.5.9-.2,0-.4-.4-.4-.9s.3-.9.5-.9c.2,0,.4.4.4.9Z"/><path class="cls-8" d="m200.8,697.5c0,.5-.3.9-.5.9s-.4-.4-.4-.9.3-.9.5-.9.4.4.4.9Z"/><path class="cls-8" d="m200.7,698.5c0,.5-.3.9-.5.9s-.4-.4-.4-.9.3-.9.5-.9.4.4.4.9Z"/><path class="cls-8" d="m202.1,697.6c0,.5-.3.9-.5.9s-.4-.4-.4-.9.3-.9.5-.9.4.4.4.9Z"/><path class="cls-8" d="m202,698.6c0,.5-.3.9-.5.9s-.4-.4-.4-.9.3-.9.5-.9.4.4.4.9Z"/><path class="cls-8" d="m203.4,697.7c0,.5-.3.9-.5.9s-.4-.4-.4-.9.3-.9.5-.9.4.4.4.9Z"/><path class="cls-8" d="m203.3,698.7c0,.5-.3.9-.5.9s-.4-.4-.4-.9.3-.9.5-.9c.2,0,.4.4.4.9Z"/><path class="cls-8" d="m204.7,697.8c0,.5-.3.9-.5.9s-.4-.4-.4-.9.3-.9.5-.9.4.4.4.9Z"/><path class="cls-8" d="m204.6,698.8c0,.5-.3.9-.5.9s-.4-.4-.4-.9.3-.9.5-.9.4.4.4.9Z"/><path class="cls-8" d="m206,697.9c0,.5-.3.9-.5.9s-.4-.4-.4-.9c0-.5.3-.9.5-.9s.4.4.4.9Z"/><path class="cls-8" d="m205.9,698.9c0,.5-.3.9-.5.9s-.4-.4-.4-.9c0-.5.3-.9.5-.9s.4.4.4.9Z"/><path class="cls-8" d="m207.3,698c0,.5-.3.9-.5.9-.2,0-.4-.4-.4-.9,0-.5.3-.9.5-.9.2,0,.4.4.4.9Z"/><path class="cls-8" d="m207.2,699c0,.5-.3.9-.5.9-.2,0-.4-.4-.4-.9,0-.5.3-.9.5-.9.2,0,.4.4.4.9Z"/><path class="cls-8" d="m208.6,698c0,.5-.3.9-.5.9-.2,0-.4-.4-.4-.9s.3-.9.5-.9c.2,0,.4.4.4.9Z"/><path class="cls-8" d="m208.5,699.1c0,.5-.3.9-.5.9-.2,0-.4-.4-.4-.9s.3-.9.5-.9c.2,0,.4.4.4.9Z"/><path class="cls-8" d="m209.8,698.1c0,.5-.3.9-.5.9-.2,0-.4-.4-.4-.9,0-.5.3-.9.5-.9s.4.4.4.9Z"/><path class="cls-8" d="m209.8,699.2c0,.5-.3.9-.5.9-.2,0-.4-.4-.4-.9,0-.5.3-.9.5-.9.2,0,.4.4.4.9Z"/><path class="cls-8" d="m211.1,698.2c0,.5-.3.9-.5.9-.2,0-.4-.4-.4-.9,0-.5.3-.9.5-.9.2,0,.4.4.4.9Z"/><path class="cls-8" d="m211.1,699.3c0,.5-.3.9-.5.9-.2,0-.4-.4-.4-.9s.3-.9.5-.9c.2,0,.4.4.4.9Z"/><path class="cls-8" d="m212.4,698.3c0,.5-.3.9-.5.9-.2,0-.4-.4-.4-.9,0-.5.3-.9.5-.9.2,0,.4.4.4.9Z"/><path class="cls-8" d="m212.4,699.3c0,.5-.3.9-.5.9-.2,0-.4-.4-.4-.9s.3-.9.5-.9c.2,0,.4.4.4.9Z"/><path class="cls-8" d="m213.7,698.4c0,.5-.3.9-.5.9-.2,0-.4-.4-.4-.9s.3-.9.5-.9.4.4.4.9Z"/><path class="cls-8" d="m213.6,699.4c0,.5-.3.9-.5.9-.2,0-.4-.4-.4-.9s.3-.9.5-.9c.2,0,.4.4.4.9Z"/><path class="cls-8" d="m215,698.4c0,.5-.2.9-.5.9-.2,0-.4-.4-.4-.9s.3-.9.5-.9c.2,0,.4.4.4.9Z"/><path class="cls-8" d="m214.9,699.5c0,.5-.3.9-.5.9-.2,0-.4-.4-.4-.9s.3-.9.5-.9c.2,0,.4.4.4.9Z"/><path class="cls-8" d="m216.3,698.5c0,.5-.2.9-.5.9-.2,0-.4-.4-.4-.9s.2-.9.5-.9c.2,0,.4.4.4.9Z"/><path class="cls-8" d="m216.2,699.6c0,.5-.2.9-.5.9-.2,0-.4-.4-.4-.9s.2-.9.5-.9c.2,0,.4.4.4.9Z"/><path class="cls-8" d="m217.6,698.6c0,.5-.2.9-.5.9-.2,0-.4-.4-.4-.9s.2-.9.5-.9c.2,0,.4.4.4.9Z"/><path class="cls-8" d="m217.5,699.7c0,.5-.2.9-.5.9-.2,0-.4-.4-.4-.9s.2-.9.5-.9c.2,0,.4.4.4.9Z"/><path class="cls-8" d="m218.9,698.7c0,.5-.2.9-.5.9-.2,0-.4-.4-.4-.9s.2-.9.5-.9c.2,0,.4.4.4.9Z"/><path class="cls-8" d="m218.8,699.7c0,.5-.2.9-.5.9-.2,0-.4-.4-.4-.9s.2-.9.5-.9c.2,0,.4.4.4.9Z"/><path class="cls-8" d="m220.2,698.7c0,.5-.2.9-.5.9-.2,0-.4-.4-.4-.9s.2-.9.5-.9c.2,0,.4.4.4.9Z"/><path class="cls-8" d="m220.1,699.8c0,.5-.2.9-.5.9-.2,0-.4-.4-.4-.9,0-.5.2-.9.5-.9.2,0,.4.4.4.9Z"/><path class="cls-8" d="m221.5,698.8c0,.5-.2.9-.5.9-.2,0-.4-.4-.4-.9,0-.5.2-.9.5-.9.2,0,.4.4.4.9Z"/><path class="cls-8" d="m221.4,699.9c0,.5-.2.9-.5.9-.2,0-.4-.4-.4-.9,0-.5.2-.9.5-.9.2,0,.4.4.4.9Z"/><path class="cls-8" d="m222.7,698.9c0,.5-.2.9-.5.9-.2,0-.4-.4-.4-.9s.2-.9.5-.9c.2,0,.4.4.4.9Z"/><path class="cls-8" d="m222.7,699.9c0,.5-.2.9-.5.9s-.4-.4-.4-.9.2-.9.5-.9c.2,0,.4.4.4.9Z"/><path class="cls-8" d="m224,698.9c0,.5-.2.9-.5.9-.2,0-.4-.4-.4-.9s.2-.9.5-.9c.2,0,.4.4.4.9Z"/><path class="cls-8" d="m224,700c0,.5-.2.9-.5.9-.2,0-.4-.4-.4-.9s.2-.9.5-.9c.2,0,.4.4.4.9Z"/><path class="cls-8" d="m225.3,699c0,.5-.2.9-.5.9-.2,0-.4-.4-.4-.9s.2-.9.5-.9c.2,0,.4.4.4.9Z"/><path class="cls-8" d="m225.3,700c0,.5-.2.9-.5.9-.2,0-.4-.4-.4-.9,0-.5.2-.9.5-.9.2,0,.4.4.4.9Z"/><path class="cls-8" d="m226.6,699c0,.5-.2.9-.5.9-.2,0-.4-.4-.4-.9,0-.5.2-.9.5-.9.2,0,.4.4.4.9Z"/><path class="cls-8" d="m226.6,700.1c0,.5-.2.9-.5.9-.2,0-.4-.4-.4-.9,0-.5.2-.9.5-.9.2,0,.4.4.4.9Z"/><path class="cls-8" d="m227.9,699.1c0,.5-.2.9-.5.9-.2,0-.4-.4-.4-.9s.2-.9.5-.9c.2,0,.4.4.4.9Z"/><path class="cls-8" d="m227.9,700.1c0,.5-.2.9-.5.9-.2,0-.4-.4-.4-.9s.2-.9.5-.9c.2,0,.4.4.4.9Z"/><path class="cls-8" d="m229.2,699.1c0,.5-.2.9-.5.9-.2,0-.4-.4-.4-.9s.2-.9.5-.9c.2,0,.4.4.4.9Z"/><path class="cls-8" d="m229.2,700.2c0,.5-.2.9-.5.9s-.4-.4-.4-.9.2-.9.5-.9c.2,0,.4.4.4.9Z"/><path class="cls-8" d="m230.5,699.2c0,.5-.2.9-.5.9-.2,0-.4-.4-.4-.9s.2-.9.5-.9c.2,0,.4.4.4.9Z"/><path class="cls-8" d="m230.5,700.2c0,.5-.2.9-.5.9-.2,0-.4-.4-.4-.9s.2-.9.5-.9c.2,0,.4.4.4.9Z"/><path class="cls-8" d="m231.8,699.2c0,.5-.2.9-.5.9-.2,0-.4-.4-.4-.9s.2-.9.5-.9c.2,0,.4.4.4.9Z"/><path class="cls-8" d="m231.7,700.3c0,.5-.2.9-.5.9-.2,0-.4-.4-.4-.9s.2-.9.5-.9c.2,0,.4.4.4.9Z"/><path class="cls-8" d="m233.1,699.3c0,.5-.2.9-.5.9-.2,0-.4-.4-.4-.9s.2-.9.5-.9c.2,0,.4.4.4.9Z"/><path class="cls-8" d="m233,700.3c0,.5-.2.9-.5.9-.2,0-.4-.4-.4-.9s.2-.9.5-.9c.2,0,.4.4.4.9Z"/><path class="cls-8" d="m234.4,699.3c0,.5-.2.9-.5.9-.2,0-.4-.4-.4-.9s.2-.9.5-.9c.2,0,.4.4.4.9Z"/><path class="cls-8" d="m234.3,700.4c0,.5-.2.9-.5.9-.2,0-.4-.4-.4-.9s.2-.9.5-.9c.2,0,.4.4.4.9Z"/><path class="cls-8" d="m235.7,699.4c0,.5-.2.9-.5.9s-.4-.4-.4-.9.2-.9.5-.9c.2,0,.4.4.4.9Z"/><path class="cls-8" d="m235.6,700.4c0,.5-.2.9-.5.9s-.4-.4-.4-.9c0-.5.2-.9.5-.9.2,0,.4.4.4.9Z"/><path class="cls-8" d="m237,699.4c0,.5-.2.9-.5.9s-.4-.4-.4-.9.2-.9.5-.9.4.4.4.9Z"/><path class="cls-8" d="m236.9,700.5c0,.5-.2.9-.5.9s-.4-.4-.4-.9.2-.9.5-.9.4.4.4.9Z"/><path class="cls-8" d="m238.2,699.4c0,.5-.2.9-.5.9s-.4-.4-.4-.9.2-.9.5-.9.4.4.4.9Z"/><path class="cls-8" d="m238.2,700.5c0,.5-.2.9-.5.9s-.4-.4-.4-.9.2-.9.5-.9.4.4.4.9Z"/><path class="cls-8" d="m239.5,699.4c0,.5-.2.9-.5.9s-.4-.4-.4-.9.2-.9.5-.9.4.4.4.9Z"/><path class="cls-8" d="m239.5,700.5c0,.5-.2.9-.5.9s-.4-.4-.4-.9.2-.9.5-.9.4.4.4.9Z"/><path class="cls-8" d="m240.8,699.4c0,.5-.2.9-.5.9s-.4-.4-.4-.9.2-.9.5-.9.4.4.4.9Z"/><path class="cls-8" d="m240.8,700.5c0,.5-.2.9-.5.9s-.4-.4-.4-.9.2-.9.5-.9.4.4.4.9Z"/><path class="cls-8" d="m242.1,699.5c0,.5-.2.9-.5.9s-.4-.4-.4-.9.2-.9.5-.9.4.4.4.9Z"/><path class="cls-8" d="m242.1,700.5c0,.5-.2.9-.5.9s-.5-.4-.4-.9c0-.5.2-.9.5-.9s.4.4.4.9Z"/><path class="cls-8" d="m243.4,699.5c0,.5-.2.9-.5.9s-.5-.4-.4-.9c0-.5.2-.9.5-.9s.4.4.4.9Z"/><path class="cls-8" d="m243.4,700.6c0,.5-.2.9-.5.9s-.5-.4-.4-.9c0-.5.2-.9.5-.9s.5.4.4.9Z"/><path class="cls-8" d="m244.7,699.5c0,.5-.2.9-.5.9s-.5-.4-.4-.9c0-.5.2-.9.5-.9s.5.4.4.9Z"/><path class="cls-8" d="m244.7,700.6c0,.5-.2.9-.5.9s-.5-.4-.4-.9c0-.5.2-.9.5-.9s.5.4.4.9Z"/><path class="cls-8" d="m246,699.5c0,.5-.2.9-.5.9s-.5-.4-.4-.9c0-.5.2-.9.5-.9s.5.4.4.9h0Z"/><path class="cls-8" d="m246,700.6c0,.5-.2.9-.5.9s-.5-.4-.4-.9c0-.5.2-.9.5-.9s.5.4.4.9Z"/><path class="cls-8" d="m247.3,699.6c0,.5-.2.9-.5.9s-.5-.4-.4-.9c0-.5.2-.9.5-.9s.5.4.4.9Z"/><path class="cls-8" d="m247.3,700.6c0,.5-.2.9-.5.9s-.5-.4-.4-.9c0-.5.2-.9.5-.9s.5.4.4.9Z"/><path class="cls-8" d="m248.6,699.6c0,.5-.2.9-.5.9s-.5-.4-.4-.9c0-.5.2-.9.5-.9s.5.4.4.9Z"/><path class="cls-8" d="m248.6,700.7c0,.5-.2.9-.5.9s-.5-.4-.4-.9c0-.5.2-.9.5-.9s.5.4.4.9Z"/><path class="cls-8" d="m249.9,699.6c0,.5-.2.9-.5.9s-.5-.4-.4-.9c0-.5.2-.9.5-.9s.5.4.4.9Z"/><path class="cls-8" d="m249.9,700.7c0,.5-.2.9-.5.9s-.5-.4-.4-.9c0-.5.2-.9.5-.9s.5.4.4.9Z"/><path class="cls-8" d="m251.2,699.6c0,.5-.2.9-.5.9s-.5-.4-.5-.9.2-.9.5-.9c.2,0,.5.4.5.9h0Z"/><path class="cls-8" d="m251.2,700.7c0,.5-.2.9-.5.9s-.5-.4-.5-.9.2-.9.5-.9c.2,0,.5.4.5.9h0Z"/><path class="cls-8" d="m252.5,699.6c0,.5-.2.9-.5.9s-.5-.4-.5-.9.2-.9.5-.9.5.4.5.9Z"/><path class="cls-8" d="m252.5,700.7c0,.5-.2.9-.5.9s-.5-.4-.5-.9.2-.9.5-.9.5.4.5.9Z"/><path class="cls-8" d="m253.8,699.6c0,.5-.2.9-.5.9s-.5-.4-.5-.9.2-.9.5-.9.5.4.5.9Z"/><path class="cls-8" d="m253.8,700.7c0,.5-.2.9-.5.9s-.5-.4-.5-.9.2-.9.5-.9.5.4.5.9Z"/><path class="cls-8" d="m255,699.6c0,.5-.2.9-.5.9s-.5-.4-.5-.9.2-.9.5-.9.5.4.5.9Z"/><path class="cls-8" d="m255,700.7c0,.5-.2.9-.5.9s-.5-.4-.5-.9.2-.9.5-.9.5.4.5.9Z"/><path class="cls-8" d="m256.3,699.6c0,.5-.2.9-.5.9s-.5-.4-.5-.9.2-.9.5-.9.5.4.5.9Z"/><path class="cls-8" d="m256.3,700.7c0,.5-.2.9-.5.9s-.5-.4-.5-.9.2-.9.5-.9.5.4.5.9Z"/><path class="cls-8" d="m257.6,699.6c0,.5-.2.9-.5.9s-.5-.4-.5-.9.2-.9.5-.9.5.4.5.9Z"/><path class="cls-8" d="m257.6,700.7c0,.5-.2.9-.5.9s-.5-.4-.5-.9c0-.5.2-.9.5-.9s.5.4.5.9Z"/><path class="cls-8" d="m258.9,699.6c0,.5-.2.9-.5.9s-.5-.4-.5-.9c0-.5.2-.9.5-.9s.5.4.5.9Z"/><path class="cls-8" d="m258.9,700.7c0,.5-.2.9-.5.9s-.5-.4-.5-.9.2-.9.5-.9.5.4.5.9Z"/><path class="cls-8" d="m260.2,699.6c0,.5-.2.9-.5.9s-.5-.4-.5-.9.2-.9.5-.9.5.4.5.9Z"/><path class="cls-8" d="m260.2,700.7c0,.5-.2.9-.5.9s-.5-.4-.5-.9.2-.9.5-.9.5.4.5.9Z"/><path class="cls-8" d="m261.5,699.6c0,.5-.2.9-.5.9s-.5-.4-.5-.9.2-.9.5-.9.5.4.5.9Z"/><path class="cls-8" d="m261.5,700.7c0,.5-.2.9-.5.9s-.5-.4-.5-.9.2-.9.5-.9.5.4.5.9Z"/><path class="cls-8" d="m262.8,699.6c0,.5-.2.9-.4.9s-.5-.4-.5-.9.2-.9.4-.9.5.4.5.9Z"/><path class="cls-8" d="m262.8,700.6c0,.5-.2.9-.4.9s-.5-.4-.5-.9.2-.9.4-.9.5.4.5.9Z"/><path class="cls-8" d="m264.1,699.6c0,.5-.2.9-.4.9s-.5-.4-.5-.9.2-.9.4-.9.5.4.5.9Z"/><path class="cls-8" d="m264.1,700.6c0,.5-.2.9-.4.9s-.5-.4-.5-.9.2-.9.4-.9.5.4.5.9Z"/><path class="cls-8" d="m265.4,699.6c0,.5-.2.9-.4.9s-.5-.4-.5-.9.2-.9.4-.9.5.4.5.9Z"/><path class="cls-8" d="m265.4,700.6c0,.5-.2.9-.4.9s-.5-.4-.5-.9.2-.9.4-.9.5.4.5.9Z"/><path class="cls-8" d="m266.7,699.5c0,.5-.2.9-.4.9-.2,0-.5-.4-.5-.9,0-.5.2-.9.4-.9.2,0,.5.4.5.9Z"/><path class="cls-8" d="m266.7,700.6c0,.5-.2.9-.4.9-.2,0-.5-.4-.5-.9,0-.5.2-.9.4-.9.2,0,.5.4.5.9Z"/><path class="cls-8" d="m268,699.5c0,.5-.2.9-.4.9-.2,0-.5-.4-.5-.9,0-.5.2-.9.4-.9.2,0,.5.4.5.9Z"/><path class="cls-8" d="m268,700.6c0,.5-.2.9-.4.9-.2,0-.5-.4-.5-.9s.2-.9.4-.9c.2,0,.5.4.5.9Z"/><path class="cls-8" d="m269.3,699.5c0,.5-.2.9-.4.9-.2,0-.5-.4-.5-.9,0-.5.2-.9.4-.9.2,0,.5.4.5.9Z"/><path class="cls-8" d="m269.3,700.6c0,.5-.2.9-.4.9-.2,0-.5-.4-.5-.9,0-.5.2-.9.4-.9.2,0,.5.4.5.9Z"/><path class="cls-8" d="m270.6,699.4c0,.5-.2.9-.4.9-.2,0-.5-.4-.5-.9s.2-.9.4-.9c.2,0,.5.4.5.9Z"/><path class="cls-8" d="m270.6,700.5c0,.5-.2.9-.4.9-.2,0-.5-.4-.5-.9,0-.5.2-.9.4-.9.2,0,.5.4.5.9Z"/><path class="cls-8" d="m271.8,699.4c0,.5-.2.9-.4.9-.2,0-.5-.4-.5-.9s.2-.9.4-.9c.2,0,.5.4.5.9Z"/><path class="cls-8" d="m271.9,700.5c0,.5-.2.9-.4.9-.2,0-.5-.4-.5-.9s.2-.9.4-.9c.2,0,.5.4.5.9Z"/><path class="cls-8" d="m273.1,699.4c0,.5-.2.9-.4.9-.2,0-.5-.4-.5-.9s.2-.9.4-.9c.2,0,.5.4.5.9Z"/><path class="cls-8" d="m273.2,700.4c0,.5-.2.9-.4.9-.2,0-.5-.4-.5-.9s.2-.9.4-.9c.2,0,.5.4.5.9Z"/><path class="cls-8" d="m274.4,699.3c0,.5-.2.9-.4.9-.2,0-.5-.4-.5-.9,0-.5.2-.9.4-.9.2,0,.5.4.5.9Z"/><path class="cls-8" d="m274.5,700.4c0,.5-.2.9-.4.9-.2,0-.5-.4-.5-.9,0-.5.2-.9.4-.9.2,0,.5.4.5.9Z"/><path class="cls-8" d="m275.7,699.3c0,.5-.2.9-.4.9-.2,0-.5-.4-.5-.9,0-.5.2-.9.4-.9.2,0,.5.4.5.9Z"/><path class="cls-8" d="m275.8,700.4c0,.5-.2.9-.4.9-.2,0-.5-.4-.5-.9,0-.5.2-.9.4-.9.2,0,.5.4.5.9Z"/><path class="cls-8" d="m277,699.3c0,.5-.2.9-.4.9-.2,0-.5-.4-.5-.9,0-.5.2-.9.4-.9.2,0,.5.4.5.9Z"/><path class="cls-8" d="m277,700.3c0,.5-.2.9-.4.9-.2,0-.5-.4-.5-.9s.2-.9.4-.9c.2,0,.5.4.5.9Z"/><path class="cls-8" d="m278.3,699.2c0,.5-.2.9-.4.9-.2,0-.5-.4-.5-.9,0-.5.2-.9.4-.9.2,0,.5.4.5.9Z"/><path class="cls-8" d="m278.3,700.3c0,.5-.2.9-.4.9-.2,0-.5-.4-.5-.9,0-.5.2-.9.4-.9.2,0,.5.4.5.9Z"/><path class="cls-8" d="m279.6,699.2c0,.5-.2.9-.4.9-.2,0-.5-.4-.5-.9,0-.5.2-.9.4-.9.2,0,.5.4.5.9Z"/><path class="cls-8" d="m279.6,700.3c0,.5-.2.9-.4.9-.2,0-.5-.4-.5-.9,0-.5.2-.9.4-.9.2,0,.5.4.5.9Z"/><path class="cls-8" d="m280.9,699.2c0,.5-.2.9-.4.9s-.5-.4-.5-.9c0-.5.2-.9.4-.9.2,0,.5.4.5.9Z"/><path class="cls-8" d="m280.9,700.2c0,.5-.2.9-.4.9-.2,0-.5-.4-.5-.9,0-.5.2-.9.4-.9.2,0,.5.4.5.9Z"/><path class="cls-8" d="m282.2,699.1c0,.5-.2.9-.4.9-.2,0-.5-.4-.5-.9s.2-.9.4-.9c.2,0,.5.4.5.9Z"/><path class="cls-8" d="m282.2,700.2c0,.5-.2.9-.4.9-.2,0-.5-.4-.5-.9s.2-.9.4-.9c.2,0,.5.4.5.9Z"/><path class="cls-8" d="m283.5,699.1c0,.5-.2.9-.4.9s-.5-.4-.5-.9.2-.9.4-.9.5.4.5.9Z"/><path class="cls-8" d="m283.5,700.1c0,.5-.2.9-.4.9s-.5-.4-.5-.9.2-.9.4-.9.5.4.5.9Z"/><path class="cls-8" d="m284.8,699c0,.5-.2.9-.4.9s-.5-.4-.5-.9.2-.9.4-.9c.2,0,.5.4.5.9Z"/><path class="cls-8" d="m284.8,700.1c0,.5-.2.9-.4.9s-.5-.4-.5-.9.2-.9.4-.9.5.4.5.9Z"/><path class="cls-8" d="m286.1,698.9c0,.5-.2.9-.4.9s-.5-.4-.5-.9.2-.9.4-.9.5.4.5.9Z"/><path class="cls-8" d="m286.1,700c0,.5-.2.9-.4.9s-.5-.4-.5-.9.2-.9.4-.9.5.4.5.9Z"/><path class="cls-8" d="m287.3,698.9c0,.5-.2.9-.4.9s-.5-.4-.5-.9.2-.9.4-.9.5.4.5.9Z"/><path class="cls-8" d="m287.4,700c0,.5-.2.9-.4.9s-.5-.4-.5-.9.2-.9.4-.9.5.4.5.9Z"/><path class="cls-8" d="m288.6,698.8c0,.5-.2.9-.4.9s-.5-.4-.5-.9.2-.9.4-.9.5.4.5.9Z"/><path class="cls-8" d="m288.7,699.9c0,.5-.2.9-.4.9s-.5-.4-.5-.9.2-.9.4-.9.5.4.5.9Z"/><path class="cls-8" d="m289.9,698.8c0,.5-.2.9-.4.9s-.5-.4-.5-.9c0-.5.2-.9.4-.9.2,0,.5.4.5.9Z"/><path class="cls-8" d="m290,699.8c0,.5-.2.9-.4.9s-.5-.4-.5-.9c0-.5.2-.9.4-.9s.5.4.5.9Z"/><path class="cls-8" d="m291.2,698.7c0,.5-.2.9-.4.9-.2,0-.5-.4-.5-.9,0-.5.2-.9.4-.9.2,0,.5.4.5.9Z"/><path class="cls-8" d="m291.3,699.8c0,.5-.2.9-.4.9-.2,0-.5-.4-.5-.9,0-.5.2-.9.4-.9s.5.4.5.9Z"/><path class="cls-8" d="m292.5,698.6c0,.5-.2.9-.4.9s-.5-.4-.5-.9.2-.9.4-.9c.2,0,.5.4.5.9Z"/><path class="cls-8" d="m292.6,699.7c0,.5-.2.9-.4.9-.2,0-.5-.4-.5-.9s.2-.9.4-.9.5.4.5.9Z"/><path class="cls-8" d="m293.8,698.6c0,.5-.1.9-.4.9s-.5-.4-.5-.9.1-.9.4-.9c.2,0,.5.4.5.9Z"/><path class="cls-8" d="m293.9,699.6c0,.5-.1.9-.4.9-.2,0-.5-.4-.5-.9s.1-.9.4-.9c.2,0,.5.4.5.9Z"/><path class="cls-8" d="m295.1,698.5c0,.5-.1.9-.4.9-.2,0-.5-.4-.5-.9s.1-.9.4-.9c.2,0,.5.4.5.9Z"/><path class="cls-8" d="m295.2,699.6c0,.5-.1.9-.4.9-.2,0-.5-.4-.5-.9,0-.5.1-.9.4-.9.2,0,.5.4.5.9Z"/><path class="cls-8" d="m296.4,698.4c0,.5-.1.9-.4.9-.2,0-.5-.4-.5-.9,0-.5.1-.9.4-.9.2,0,.5.4.5.9Z"/><path class="cls-8" d="m296.4,699.5c0,.5-.1.9-.4.9-.2,0-.5-.4-.5-.9,0-.5.1-.9.4-.9.2,0,.5.4.5.9Z"/><path class="cls-8" d="m297.7,698.4c0,.5-.1.9-.4.9-.2,0-.5-.4-.5-.9s.1-.9.4-.9c.2,0,.5.4.5.9Z"/><path class="cls-8" d="m297.7,699.4c0,.5-.1.9-.4.9-.2,0-.5-.4-.5-.9s.1-.9.4-.9c.2,0,.5.4.5.9Z"/><path class="cls-8" d="m299,698.3c0,.5-.1.9-.4.9-.2,0-.5-.4-.5-.9s.1-.9.4-.9c.2,0,.5.4.5.9Z"/><path class="cls-8" d="m299,699.4c0,.5-.1.9-.4.9-.2,0-.5-.4-.5-.9s.1-.9.4-.9c.2,0,.5.4.5.9Z"/><path class="cls-8" d="m300.3,698.2c0,.5-.1.9-.4.9s-.5-.4-.5-.9.1-.9.4-.9c.2,0,.5.4.5.9Z"/><path class="cls-8" d="m300.3,699.3c0,.5-.1.9-.4.9s-.5-.4-.5-.9.1-.9.4-.9c.2,0,.5.4.5.9Z"/><path class="cls-8" d="m301.5,698.1c0,.5-.1.9-.4.9s-.5-.4-.5-.9.1-.9.4-.9.5.4.5.9Z"/><path class="cls-8" d="m301.6,699.2c0,.5-.1.9-.4.9s-.5-.4-.5-.9.1-.9.4-.9.5.4.5.9Z"/><path class="cls-8" d="m302.8,698c0,.5-.1.9-.4.9s-.5-.4-.5-.9.1-.9.4-.9.5.4.5.9Z"/><path class="cls-8" d="m302.9,699.1c0,.5-.1.9-.4.9s-.5-.4-.5-.9.1-.9.4-.9.5.4.5.9Z"/><path class="cls-8" d="m304.1,697.9c0,.5-.1.9-.4.9s-.5-.4-.5-.9.1-.9.4-.9.5.4.5.9Z"/><path class="cls-8" d="m304.2,699c0,.5-.1.9-.4.9s-.5-.4-.5-.9.1-.9.4-.9.5.4.5.9Z"/><path class="cls-8" d="m305.4,697.8c0,.5-.1.9-.4.9s-.5-.4-.5-.9.1-.9.4-.9.5.4.5.9Z"/><path class="cls-8" d="m305.5,698.9c0,.5-.1.9-.4.9s-.5-.4-.5-.9c0-.5.1-.9.4-.9s.5.4.5.9Z"/><path class="cls-8" d="m306.7,697.7c0,.5-.1.9-.4.9s-.5-.4-.5-.9c0-.5.1-.9.4-.9s.5.4.5.9Z"/><path class="cls-8" d="m306.8,698.8c0,.5-.1.9-.4.9s-.5-.4-.5-.9c0-.5.1-.9.4-.9s.5.4.5.9Z"/><path class="cls-8" d="m308,697.6c0,.5-.1.9-.4.9s-.5-.4-.5-.9c0-.5.1-.9.4-.9.2,0,.5.4.5.9Z"/><path class="cls-8" d="m308.1,698.7c0,.5-.1.9-.4.9s-.5-.4-.5-.9c0-.5.1-.9.4-.9s.5.4.5.9h0Z"/><path class="cls-8" d="m309.3,697.5c0,.5-.1.9-.4.9s-.5-.4-.5-.9c0-.5.1-.9.4-.9s.5.4.5.9Z"/><path class="cls-8" d="m309.4,698.6c0,.5-.1.9-.4.9s-.5-.4-.5-.9c0-.5.1-.9.4-.9s.5.4.5.9Z"/><path class="cls-8" d="m310.6,697.4c0,.5-.1.9-.4.9s-.5-.4-.5-.9c0-.5.1-.9.4-.9s.5.4.5.9Z"/><path class="cls-8" d="m310.6,698.5c0,.5-.1.9-.4.9s-.5-.4-.5-.9c0-.5.1-.9.4-.9s.5.4.5.9Z"/><path class="cls-8" d="m311.9,697.4c0,.5-.1.9-.4.9s-.5-.4-.5-.9c0-.5.1-.9.4-.9s.5.4.5.9Z"/><path class="cls-8" d="m311.9,698.4c0,.5-.1.9-.4.9s-.5-.4-.5-.9c0-.5.1-.9.4-.9s.5.4.5.9Z"/><path class="cls-8" d="m313.1,697.3c0,.5-.1.9-.4.9s-.5-.4-.5-.9c0-.5.1-.9.4-.9s.5.4.5.9Z"/><path class="cls-8" d="m313.2,698.3c0,.5-.1.9-.4.9s-.5-.4-.5-.9c0-.5.1-.9.4-.9s.5.4.5.9Z"/><path class="cls-8" d="m314.4,697.2c0,.5-.1.9-.4.9s-.5-.4-.5-.9.1-.9.4-.9.5.4.5.9Z"/><path class="cls-8" d="m314.5,698.2c0,.5-.1.9-.4.9s-.5-.4-.5-.9.1-.9.4-.9.5.4.5.9Z"/><path class="cls-8" d="m315.7,697.1c0,.5-.1.9-.4.9s-.5-.4-.5-.9.1-.9.4-.9c.2,0,.5.4.5.9Z"/><path class="cls-8" d="m315.8,698.1c0,.5-.1.9-.4.9-.2,0-.5-.4-.5-.9s.1-.9.4-.9.5.4.5.9h0Z"/><path class="cls-8" d="m317,696.9c0,.5-.1.9-.4,1-.2,0-.5-.4-.5-.9s.1-.9.4-1c.2,0,.5.4.5.9Z"/><path class="cls-8" d="m317.1,698c0,.5-.1.9-.4,1-.2,0-.5-.4-.5-.9s.1-.9.4-1c.2,0,.5.4.5.9Z"/><path class="cls-8" d="m318.3,696.8c0,.5-.1.9-.4,1-.2,0-.5-.4-.5-.9s.1-.9.4-1c.2,0,.5.4.5.9Z"/><path class="cls-8" d="m318.4,697.9c0,.5-.1.9-.4,1-.2,0-.5-.4-.5-.9s.1-.9.4-1c.2,0,.5.4.5.9Z"/><path class="cls-8" d="m319.6,696.7c0,.5-.1.9-.4,1-.2,0-.5-.4-.5-.9s.1-.9.4-1c.2,0,.5.4.5.9Z"/><path class="cls-8" d="m319.7,697.8c0,.5-.1.9-.4,1-.2,0-.5-.4-.5-.9s.1-.9.4-1c.2,0,.5.4.5.9Z"/><path class="cls-8" d="m320.9,696.6c0,.5-.1.9-.4,1-.2,0-.5-.4-.5-.9,0-.5.1-.9.4-1,.2,0,.5.4.5.9Z"/><path class="cls-8" d="m321,697.6c0,.5-.1.9-.4,1-.2,0-.5-.4-.5-.9,0-.5.1-.9.4-1,.2,0,.5.4.5.9Z"/><path class="cls-8" d="m322.2,696.4c0,.5-.1.9-.4,1-.2,0-.5-.4-.5-.9,0-.5.1-.9.4-1,.2,0,.5.4.5.9Z"/><path class="cls-8" d="m322.3,697.5c0,.5-.1.9-.4,1-.2,0-.5-.4-.5-.9,0-.5.1-.9.4-1,.2,0,.5.4.5.9Z"/><path class="cls-8" d="m323.4,696.3c0,.5-.1.9-.4,1-.2,0-.5-.4-.5-.9,0-.5.1-.9.4-1,.2,0,.5.4.5.9Z"/><path class="cls-8" d="m323.5,697.4c0,.5-.1.9-.4,1-.2,0-.5-.4-.5-.9,0-.5.1-.9.4-1,.2,0,.5.4.5.9Z"/><path class="cls-8" d="m324.7,696.2c0,.5-.1.9-.4,1-.2,0-.5-.4-.5-.9,0-.5.1-.9.4-1,.2,0,.5.4.5.9Z"/><path class="cls-8" d="m324.8,697.3c0,.5-.1.9-.4,1-.2,0-.5-.4-.5-.9,0-.5.1-.9.4-1,.2,0,.5.4.5.9Z"/><path class="cls-8" d="m326,696.1c0,.5-.1.9-.4,1-.2,0-.5-.4-.5-.9,0-.5.1-.9.4-1,.2,0,.5.4.5.9Z"/><path class="cls-8" d="m326.1,697.1c0,.5-.1.9-.4,1s-.5-.4-.5-.9c0-.5.1-.9.4-1,.2,0,.5.4.5.9Z"/><path class="cls-8" d="m327.3,695.9c0,.5-.1.9-.4,1-.2,0-.5-.4-.5-.9,0-.5.1-.9.4-1,.2,0,.5.4.5.9Z"/><path class="cls-8" d="m327.4,697c0,.5-.1.9-.4,1s-.5-.4-.5-.9c0-.5.1-.9.4-1,.2,0,.5.4.5.9Z"/><path class="cls-8" d="m328.6,695.8c0,.5-.1.9-.4,1-.2,0-.5-.4-.5-.9,0-.5.1-.9.4-1,.2,0,.5.4.5.9Z"/><path class="cls-8" d="m328.7,696.9c0,.5-.1.9-.4,1-.2,0-.5-.4-.5-.9,0-.5.1-.9.4-1,.2,0,.5.4.5.9Z"/><path class="cls-8" d="m329.9,695.7c0,.5-.1.9-.4,1-.2,0-.5-.4-.5-.9,0-.5.1-.9.4-1,.2,0,.5.4.5.9Z"/><path class="cls-8" d="m330,696.7c0,.5-.1.9-.4,1-.2,0-.5-.4-.5-.9,0-.5.1-.9.4-1,.2,0,.5.4.5.9Z"/><path class="cls-8" d="m331.2,695.6c0,.5-.1.9-.4,1-.2,0-.5-.4-.5-.9,0-.5.1-.9.4-1,.2,0,.5.4.5.9Z"/><path class="cls-8" d="m331.3,696.6c0,.5-.1.9-.4,1-.2,0-.5-.4-.5-.9,0-.5.1-.9.4-1,.2,0,.5.4.5.9Z"/><path class="cls-8" d="m332.4,695.4c0,.5-.1.9-.4.9s-.5-.4-.5-.9c0-.5.1-.9.4-1,.2,0,.5.4.5.9h0Z"/><path class="cls-8" d="m332.6,696.5c0,.5-.1.9-.4,1-.2,0-.5-.4-.5-.9,0-.5.1-.9.4-1,.2,0,.5.4.5.9Z"/><path class="cls-8" d="m333.7,695.3c0,.5-.1.9-.4,1-.2,0-.5-.4-.5-.9,0-.5.1-.9.4-.9s.5.4.5.8Z"/><path class="cls-8" d="m333.8,696.4c0,.5-.1.9-.4,1-.2,0-.5-.4-.5-.9s.1-.9.4-1c.2,0,.5.4.5.8h0Z"/><path class="cls-8" d="m335,695.1c0,.5-.1.9-.4,1s-.5-.3-.5-.8c0-.5.1-.9.4-1s.5.3.5.8Z"/><path class="cls-8" d="m335.1,696.2c0,.5-.1.9-.4,1s-.5-.3-.5-.8c0-.5.1-.9.4-1s.5.3.5.8Z"/><path class="cls-8" d="m336.3,695c0,.5-.1.9-.4,1s-.5-.3-.5-.8c0-.5.1-.9.4-1s.5.3.5.8Z"/><path class="cls-8" d="m336.4,696c0,.5-.1.9-.4,1s-.5-.3-.5-.8c0-.5.1-.9.4-1s.5.3.5.8Z"/><path class="cls-8" d="m337.6,694.8c0,.5-.1.9-.3,1-.2,0-.5-.3-.5-.8,0-.5.1-.9.3-1,.2,0,.5.3.5.8Z"/><path class="cls-8" d="m337.7,695.9c0,.5-.1.9-.4,1-.2,0-.5-.3-.5-.8,0-.5.1-.9.3-1,.2,0,.5.3.5.8h0Z"/><path class="cls-8" d="m338.9,694.7c0,.5,0,.9-.3,1-.2,0-.5-.3-.5-.8s.1-.9.3-1c.2,0,.5.3.6.8h0Z"/><path class="cls-8" d="m339,695.7c0,.5,0,.9-.3,1-.2,0-.5-.3-.6-.8,0-.5.1-.9.3-1,.2,0,.5.3.6.8Z"/><path class="cls-8" d="m340.1,694.5c0,.5,0,.9-.3,1-.2,0-.5-.3-.6-.8,0-.5,0-.9.3-1,.2,0,.5.3.6.8Z"/><path class="cls-8" d="m340.3,695.6c0,.5,0,.9-.3,1-.2,0-.5-.3-.6-.8,0-.5,0-.9.3-1,.2,0,.5.3.6.8Z"/><path class="cls-8" d="m341.4,694.3c0,.5,0,.9-.3,1-.2,0-.5-.3-.6-.8,0-.5,0-.9.3-1,.2,0,.5.3.6.8Z"/><path class="cls-8" d="m341.6,695.4c0,.5,0,.9-.3,1-.2,0-.5-.3-.6-.8,0-.5,0-.9.3-1,.2,0,.5.3.6.8Z"/><path class="cls-8" d="m342.7,694.2c0,.5,0,.9-.3,1s-.5-.3-.6-.8c0-.5,0-.9.3-1s.5.3.6.8Z"/><path class="cls-8" d="m342.8,695.2c0,.5,0,.9-.3,1s-.5-.3-.6-.8c0-.5,0-.9.3-1s.5.3.6.8Z"/><path class="cls-8" d="m344,694c0,.5,0,.9-.3,1s-.5-.3-.6-.8,0-.9.3-1,.5.3.6.8Z"/><path class="cls-8" d="m344.1,695.1c0,.5,0,.9-.3,1s-.5-.3-.6-.8c0-.5,0-.9.3-1s.5.3.6.8Z"/><path class="cls-8" d="m345.3,693.9c0,.5,0,.9-.3,1-.2,0-.5-.3-.6-.8,0-.5,0-.9.3-1,.2,0,.5.3.6.8Z"/><path class="cls-8" d="m345.4,694.9c0,.5,0,.9-.3,1s-.5-.3-.6-.8c0-.5,0-.9.3-1s.5.3.6.8Z"/><path class="cls-8" d="m346.6,693.7c0,.5,0,.9-.3,1s-.5-.3-.6-.8c0-.5,0-.9.3-1,.2,0,.5.3.6.8Z"/><path class="cls-8" d="m346.7,694.8c0,.5,0,.9-.3,1s-.5-.3-.6-.8c0-.5,0-.9.3-1,.2,0,.5.3.6.8Z"/><path class="cls-8" d="m347.8,693.5c0,.5,0,.9-.3,1s-.5-.3-.6-.8c0-.5,0-.9.3-1s.5.3.6.8Z"/><path class="cls-8" d="m348,694.6c0,.5,0,.9-.3,1s-.5-.3-.6-.8c0-.5,0-.9.3-1s.5.3.6.8Z"/><path class="cls-8" d="m349.1,693.4c0,.5,0,.9-.3,1s-.5-.3-.6-.8c0-.5,0-.9.3-1s.5.3.6.8Z"/><path class="cls-8" d="m349.3,694.5c0,.5,0,.9-.3,1s-.5-.3-.6-.8c0-.5,0-.9.3-1s.5.3.6.8Z"/><path class="cls-8" d="m350.4,693.2c0,.5,0,.9-.3,1s-.5-.3-.6-.8c0-.5,0-.9.3-1s.5.3.6.8Z"/><path class="cls-8" d="m350.6,694.3c0,.5,0,.9-.3,1s-.5-.3-.6-.8c0-.5,0-.9.3-1s.5.3.6.8Z"/><path class="cls-8" d="m351.7,693.1c0,.5,0,.9-.3,1s-.5-.3-.6-.8c0-.5,0-.9.3-1s.5.3.6.8h0Z"/><path class="cls-8" d="m351.8,694.1c0,.5,0,.9-.3,1s-.5-.3-.6-.8c0-.5,0-.9.3-1s.5.3.6.8h0Z"/><path class="cls-8" d="m353,692.9c0,.5,0,.9-.3,1-.2,0-.5-.3-.6-.8s0-.9.3-1c.2,0,.5.3.6.8Z"/><path class="cls-8" d="m353.1,693.9c0,.5,0,.9-.3,1-.2,0-.5-.3-.6-.8s0-.9.3-1c.2,0,.5.3.6.8Z"/><path class="cls-8" d="m354.2,692.7c0,.5,0,.9-.3,1-.2,0-.5-.3-.6-.8s0-.9.3-1c.2,0,.5.3.6.8Z"/><path class="cls-8" d="m354.4,693.7c0,.5,0,.9-.3,1-.2,0-.5-.3-.6-.8s0-.9.3-1c.2,0,.5.3.6.8Z"/><path class="cls-8" d="m355.5,692.5c0,.5,0,.9-.3,1-.2,0-.5-.3-.6-.8s0-.9.3-1c.2,0,.5.3.6.8Z"/><path class="cls-8" d="m355.7,693.6c0,.5,0,.9-.3,1-.2,0-.5-.3-.6-.8,0-.5,0-.9.3-1,.2,0,.5.3.6.8Z"/><path class="cls-8" d="m356.8,692.3c0,.5,0,.9-.3,1-.2,0-.5-.3-.6-.8,0-.5,0-.9.3-1,.2,0,.5.3.6.8Z"/><path class="cls-8" d="m357,693.4c0,.5,0,.9-.3,1-.2,0-.5-.3-.6-.8,0-.5,0-.9.3-1,.2,0,.5.3.6.8Z"/><path class="cls-8" d="m358.1,692.1c0,.5,0,.9-.3,1-.2,0-.5-.3-.6-.8,0-.5,0-.9.3-1,.2,0,.5.3.6.8Z"/><path class="cls-8" d="m358.2,693.2c0,.5,0,.9-.3,1-.2,0-.5-.3-.6-.8,0-.5,0-.9.3-1,.2,0,.5.3.6.8Z"/><path class="cls-8" d="m359.4,691.9c0,.5,0,.9-.3,1-.2,0-.5-.3-.6-.8,0-.5,0-.9.3-1,.2,0,.5.3.6.8Z"/><path class="cls-8" d="m359.5,693c0,.5,0,.9-.3,1-.2,0-.5-.3-.6-.8,0-.5,0-.9.3-1,.2,0,.5.3.6.8Z"/><path class="cls-8" d="m360.6,691.7c0,.5,0,.9-.3,1-.2,0-.5-.3-.6-.8,0-.5,0-.9.3-1,.2,0,.5.3.6.8Z"/><path class="cls-8" d="m360.8,692.8c0,.5,0,.9-.3,1-.2,0-.5-.3-.6-.8,0-.5,0-.9.3-1,.2,0,.5.3.6.8Z"/><path class="cls-8" d="m361.9,691.5c0,.5,0,.9-.3,1-.2,0-.5-.3-.6-.8,0-.5,0-.9.3-1,.2,0,.5.3.6.8Z"/><path class="cls-8" d="m362.1,692.6c0,.5,0,.9-.3,1-.2,0-.5-.3-.6-.8,0-.5,0-.9.3-1,.2,0,.5.3.6.8Z"/><path class="cls-8" d="m363.2,691.3c0,.5,0,.9-.3,1-.2,0-.5-.3-.6-.8,0-.5,0-.9.3-1,.2,0,.5.3.6.8Z"/><path class="cls-8" d="m363.4,692.4c0,.5,0,.9-.3,1-.2,0-.5-.3-.6-.8,0-.5,0-.9.3-1,.2,0,.5.3.6.8Z"/><path class="cls-8" d="m364.5,691.1c0,.5,0,.9-.3,1-.2,0-.5-.3-.6-.8,0-.5,0-.9.3-1,.2,0,.5.3.6.8Z"/><path class="cls-8" d="m364.6,692.2c0,.5,0,.9-.3,1-.2,0-.5-.3-.6-.8,0-.5,0-.9.3-1,.2,0,.5.3.6.8Z"/><path class="cls-8" d="m365.7,690.9c0,.5,0,.9-.3,1-.2,0-.5-.3-.6-.8,0-.5,0-.9.3-1,.2,0,.5.3.6.8Z"/><path class="cls-8" d="m365.9,692c0,.5,0,.9-.3,1-.2,0-.5-.3-.6-.8,0-.5,0-.9.3-1,.2,0,.5.3.6.8Z"/><path class="cls-8" d="m367,690.8c0,.5,0,.9-.3,1-.2,0-.5-.3-.6-.8,0-.5,0-.9.3-1,.2,0,.5.3.6.8Z"/><path class="cls-8" d="m367.2,691.8c0,.5,0,.9-.3,1-.2,0-.5-.3-.6-.8,0-.5,0-.9.3-1,.2,0,.5.3.6.8Z"/><path class="cls-8" d="m368.3,690.6c0,.5,0,.9-.3,1-.2,0-.5-.3-.6-.8s0-.9.3-1c.2,0,.5.3.6.8Z"/><path class="cls-8" d="m368.5,691.6c0,.5,0,.9-.3,1-.2,0-.5-.3-.6-.8,0-.5,0-.9.3-1,.2,0,.5.3.6.8Z"/><path class="cls-8" d="m369.6,690.4c0,.5,0,.9-.3,1-.2,0-.5-.3-.6-.8,0-.5,0-.9.3-1,.2,0,.5.3.6.8Z"/><path class="cls-8" d="m369.8,691.4c0,.5,0,.9-.3,1-.2,0-.5-.3-.6-.8,0-.5,0-.9.3-1,.2,0,.5.3.6.8Z"/><path class="cls-8" d="m370.9,690.2c0,.5,0,.9-.3,1s-.5-.3-.6-.8,0-.9.3-1,.5.3.6.8Z"/><path class="cls-8" d="m371,691.2c0,.5,0,.9-.3,1s-.5-.3-.6-.8,0-.9.3-1,.5.3.6.8Z"/><path class="cls-8" d="m372.1,689.9c0,.5,0,.9-.3,1s-.5-.3-.6-.8,0-.9.3-1,.5.3.6.8Z"/><path class="cls-8" d="m372.3,691c0,.5,0,.9-.3,1s-.5-.3-.6-.8,0-.9.3-1,.5.3.6.8Z"/><path class="cls-8" d="m373.4,689.7c0,.5,0,.9-.3,1-.2,0-.5-.3-.6-.8,0-.5,0-.9.3-1,.2,0,.5.3.6.8Z"/><path class="cls-8" d="m373.6,690.8c0,.5,0,.9-.3,1s-.5-.3-.6-.8c0-.5,0-.9.3-1s.5.3.6.8Z"/><path class="cls-8" d="m374.7,689.5c0,.5,0,.9-.3,1-.2,0-.5-.3-.6-.8s0-.9.3-1c.2,0,.5.3.6.8Z"/><path class="cls-8" d="m374.9,690.5c0,.5,0,.9-.3,1-.2,0-.5-.3-.6-.8,0-.5,0-.9.3-1,.2,0,.5.3.6.8Z"/><path class="cls-8" d="m375.9,689.2c0,.5,0,.9-.3,1-.2,0-.5-.3-.6-.8,0-.5,0-.9.3-1,.2,0,.5.3.6.8Z"/><path class="cls-8" d="m376.1,690.3c0,.5,0,.9-.3,1-.2,0-.5-.3-.6-.8,0-.5,0-.9.3-1,.2,0,.5.3.6.8Z"/><path class="cls-8" d="m377.2,689c0,.5,0,.9-.3,1s-.5-.3-.6-.8c0-.5,0-.9.3-1s.5.3.6.8Z"/><path class="cls-8" d="m377.4,690.1c0,.5,0,.9-.3,1s-.5-.3-.6-.8c0-.5,0-.9.3-1s.5.3.6.8Z"/><path class="cls-8" d="m378.5,688.8c0,.5,0,.9-.3,1s-.5-.3-.6-.8c0-.5,0-.9.3-1s.5.3.6.8Z"/><path class="cls-8" d="m378.7,689.9c0,.5,0,.9-.3,1s-.5-.3-.6-.8c0-.5,0-.9.3-1s.5.3.6.8Z"/><path class="cls-8" d="m379.8,688.6c0,.5,0,.9-.3,1s-.5-.3-.6-.8c0-.5,0-.9.3-1s.5.3.6.8Z"/><path class="cls-8" d="m380,689.6c0,.5,0,.9-.3,1s-.5-.3-.6-.8c0-.5,0-.9.3-1s.5.3.6.8Z"/><path class="cls-8" d="m381,688.3c0,.5,0,.9-.3,1-.2,0-.5-.3-.6-.8s0-.9.3-1c.2,0,.5.3.6.8Z"/><path class="cls-8" d="m381.2,689.4c0,.5,0,.9-.3,1s-.5-.3-.6-.8,0-.9.3-1,.5.3.6.8Z"/><path class="cls-8" d="m382.3,688.1c0,.5,0,.9-.3,1-.2,0-.5-.3-.6-.8s0-.9.3-1c.2,0,.5.3.6.8Z"/><path class="cls-8" d="m382.5,689.2c0,.5,0,.9-.3,1-.2,0-.5-.3-.6-.8s0-.9.3-1c.2,0,.5.3.6.8Z"/><path class="cls-8" d="m383.6,687.9c0,.5,0,.9-.3,1-.2,0-.5-.3-.6-.8s0-.9.3-1c.2,0,.5.3.6.8Z"/><path class="cls-8" d="m383.8,688.9c0,.5,0,.9-.3,1-.2,0-.5-.3-.6-.8s0-.9.3-1c.2,0,.5.3.6.8Z"/><path class="cls-8" d="m384.9,687.7c0,.5,0,.9-.3,1s-.5-.3-.6-.8,0-.9.3-1,.5.3.6.8Z"/><path class="cls-8" d="m385.1,688.7c0,.5,0,.9-.3,1s-.5-.3-.6-.8,0-.9.3-1,.5.3.6.8Z"/><path class="cls-8" d="m386.1,687.4c0,.5,0,.9-.3,1s-.5-.3-.6-.8,0-.9.3-1,.5.3.6.8Z"/><path class="cls-8" d="m386.3,688.5c0,.5,0,.9-.3,1s-.5-.3-.6-.8,0-.9.3-1,.5.3.6.8Z"/><path class="cls-8" d="m387.4,687.2c0,.5,0,.9-.3,1s-.5-.3-.6-.8,0-.9.3-1,.5.3.6.8Z"/><path class="cls-8" d="m387.6,688.3c0,.5,0,.9-.3,1s-.5-.3-.6-.8,0-.9.3-1,.5.3.6.8Z"/><path class="cls-8" d="m388.7,687c0,.5,0,.9-.3,1s-.5-.3-.6-.8c0-.5,0-.9.3-1s.5.3.6.8Z"/><path class="cls-8" d="m388.9,688c0,.5,0,.9-.3,1s-.5-.3-.6-.8c0-.5,0-.9.3-1s.5.3.6.8Z"/><path class="cls-8" d="m389.9,686.7c.1.5,0,.9-.3,1s-.5-.3-.6-.8,0-.9.3-1,.5.3.6.8Z"/><path class="cls-8" d="m390.1,687.8c.1.5,0,.9-.3,1-.2,0-.5-.3-.6-.8,0-.5,0-.9.3-1s.5.3.6.8Z"/><path class="cls-8" d="m391.2,686.5c.1.5,0,.9-.3,1s-.5-.3-.6-.8,0-.9.3-1,.5.3.6.8Z"/><path class="cls-8" d="m391.4,687.5c.1.5,0,.9-.3,1s-.5-.3-.6-.8,0-.9.3-1,.5.3.6.8Z"/><path class="cls-8" d="m392.5,686.2c.1.5,0,.9-.3,1-.2,0-.5-.3-.6-.8s0-.9.3-1c.2,0,.5.3.6.8Z"/><path class="cls-8" d="m392.7,687.3c.1.5,0,.9-.3,1s-.5-.3-.6-.8,0-.9.3-1c.2,0,.5.3.6.8Z"/><path class="cls-8" d="m393.7,685.9c.1.5,0,.9-.3,1s-.5-.3-.6-.8,0-.9.3-1,.5.3.6.8Z"/><path class="cls-8" d="m393.9,687c.1.5,0,.9-.3,1s-.5-.3-.6-.8,0-.9.3-1c.2,0,.5.3.6.8Z"/><path class="cls-8" d="m395,685.7c.1.5,0,.9-.3,1-.2,0-.5-.3-.6-.8s0-.9.3-1c.2,0,.5.3.6.8Z"/><path class="cls-8" d="m395.2,686.7c.1.5,0,.9-.3,1s-.5-.3-.6-.8,0-.9.3-1c.2,0,.5.3.6.8Z"/><path class="cls-8" d="m396.3,685.4c.1.5,0,.9-.3,1-.2,0-.5-.3-.6-.8s0-.9.3-1c.2,0,.5.3.6.8Z"/><path class="cls-8" d="m396.5,686.5c.1.5,0,.9-.3,1-.2,0-.5-.3-.6-.8s0-.9.3-1c.2,0,.5.3.6.8Z"/><path class="cls-8" d="m397.5,685.2c.1.5,0,.9-.3,1-.2,0-.5-.3-.6-.8s0-.9.3-1c.2,0,.5.3.6.8Z"/><path class="cls-8" d="m397.7,686.2c.1.5,0,.9-.3,1s-.5-.3-.6-.8c-.1-.5,0-.9.3-1,.2,0,.5.3.6.8Z"/><path class="cls-8" d="m398.8,684.9c.1.5,0,.9-.3,1s-.5-.3-.6-.8,0-.9.3-1c.2,0,.5.3.6.8Z"/><path class="cls-8" d="m399,686c.1.5,0,.9-.3,1-.2,0-.5-.3-.6-.8s0-.9.3-1c.2,0,.5.3.6.8Z"/><path class="cls-8" d="m400.1,684.6c.1.5,0,.9-.3,1s-.5-.3-.6-.8,0-.9.3-1c.2,0,.5.3.6.8Z"/><path class="cls-8" d="m400.3,685.7c.1.5,0,.9-.3,1s-.5-.3-.6-.8,0-.9.3-1c.2,0,.5.3.6.8Z"/><path class="cls-8" d="m401.3,684.4c.1.5,0,.9-.3,1-.2,0-.5-.3-.6-.8s0-.9.3-1c.2,0,.5.3.6.8Z"/><path class="cls-8" d="m401.6,685.4c.1.5,0,.9-.3,1s-.5-.3-.6-.8,0-.9.3-1c.2,0,.5.3.6.8Z"/><path class="cls-8" d="m402.6,684.1c.1.5,0,.9-.3,1s-.5-.3-.6-.8,0-.9.3-1c.2,0,.5.3.6.8Z"/><path class="cls-8" d="m402.8,685.2c.1.5,0,.9-.3,1s-.5-.3-.6-.8,0-.9.3-1c.2,0,.5.3.6.8Z"/><path class="cls-8" d="m403.9,683.9c.1.5,0,.9-.2,1s-.5-.3-.6-.8c-.1-.5,0-.9.2-1,.2,0,.5.3.6.8Z"/><path class="cls-8" d="m404.1,684.9c.1.5,0,.9-.2,1s-.5-.3-.6-.8c-.1-.5,0-.9.2-1,.2,0,.5.3.6.8Z"/><path class="cls-8" d="m405.1,683.6c.1.5,0,.9-.2,1s-.5-.3-.6-.8c-.1-.5,0-.9.2-1,.2,0,.5.3.6.8Z"/><path class="cls-8" d="m405.4,684.6c.1.5,0,.9-.2,1s-.5-.3-.6-.8c-.1-.5,0-.9.2-1,.2,0,.5.3.6.8Z"/><path class="cls-8" d="m406.4,683.3c.1.5,0,.9-.2,1s-.5-.3-.6-.8c-.1-.5,0-.9.2-1,.2,0,.5.3.6.8Z"/><path class="cls-8" d="m406.6,684.4c.1.5,0,.9-.2,1s-.5-.3-.6-.8c-.1-.5,0-.9.2-1,.2,0,.5.3.6.8Z"/><path class="cls-8" d="m407.7,683.1c.1.5,0,.9-.2,1-.2,0-.5-.3-.6-.8-.1-.5,0-.9.2-1,.2,0,.5.3.6.8Z"/><path class="cls-8" d="m407.9,684.1c.1.5,0,.9-.2,1s-.5-.3-.6-.8c-.1-.5,0-.9.2-1,.2,0,.5.3.6.8Z"/><path class="cls-8" d="m408.9,682.8c.1.5,0,.9-.2,1s-.5-.3-.6-.8c-.1-.5,0-.9.2-1s.5.3.6.8Z"/><path class="cls-8" d="m409.2,683.8c.1.5,0,.9-.2,1-.2,0-.5-.3-.6-.8-.1-.5,0-.9.2-1,.2,0,.5.3.6.8Z"/><path class="cls-8" d="m410.2,682.5c.1.5,0,.9-.2,1s-.5-.3-.6-.8c-.1-.5,0-.9.2-1s.5.3.6.8Z"/><path class="cls-8" d="m410.4,683.5c.1.5,0,.9-.2,1s-.5-.3-.6-.8c-.1-.5,0-.9.2-1s.5.3.6.8Z"/><path class="cls-8" d="m411.4,682.2c.1.5,0,.9-.2,1s-.5-.3-.6-.8c-.1-.5,0-.9.2-1s.5.3.6.8Z"/><path class="cls-8" d="m411.7,683.2c.1.5,0,.9-.2,1s-.5-.3-.6-.8c-.1-.5,0-.9.2-1s.5.3.6.8Z"/><path class="cls-8" d="m412.7,681.9c.1.5,0,.9-.2,1s-.5-.3-.6-.8c-.1-.5,0-.9.2-1s.5.3.6.8Z"/><path class="cls-8" d="m412.9,682.9c.1.5,0,.9-.2,1s-.5-.3-.6-.8c-.1-.5,0-.9.2-1s.5.3.6.8Z"/><path class="cls-8" d="m414,681.6c.1.5,0,.9-.2,1s-.5-.3-.6-.8c-.1-.5,0-.9.2-1s.5.3.6.8Z"/><path class="cls-8" d="m414.2,682.6c.1.5,0,.9-.2,1s-.5-.3-.6-.8c-.1-.5,0-.9.2-1s.5.3.6.8Z"/><path class="cls-8" d="m415.2,681.3c.1.5,0,.9-.2,1s-.5-.3-.6-.8c-.1-.5,0-.9.2-1s.5.3.6.8Z"/><path class="cls-8" d="m415.5,682.4c.1.5,0,.9-.2,1s-.5-.3-.6-.8c-.1-.5,0-.9.2-1s.5.3.6.8Z"/><path class="cls-8" d="m416.5,681c.1.5,0,.9-.2,1-.2,0-.5-.3-.6-.8s0-.9.2-1c.2,0,.5.3.6.8Z"/><path class="cls-8" d="m416.7,682.1c.1.5,0,.9-.2,1s-.5-.3-.6-.8c-.1-.5,0-.9.2-1s.5.3.6.8Z"/><path class="cls-8" d="m417.7,680.7c.1.5,0,.9-.2,1-.2,0-.5-.3-.6-.8-.1-.5,0-.9.2-1,.2,0,.5.3.6.8Z"/><path class="cls-8" d="m418,681.8c.1.5,0,.9-.2,1-.2,0-.5-.3-.6-.8-.1-.5,0-.9.2-1,.2,0,.5.3.6.8Z"/><path class="cls-8" d="m419,680.4c.1.5,0,.9-.2,1-.2,0-.5-.3-.6-.8-.1-.5,0-.9.2-1,.2,0,.5.3.6.8Z"/><path class="cls-8" d="m419.2,681.5c.1.5,0,.9-.2,1-.2,0-.5-.3-.6-.8-.1-.5,0-.9.2-1,.2,0,.5.3.6.8Z"/><path class="cls-8" d="m420.2,680.1c.1.5,0,.9-.2,1-.2,0-.5-.3-.6-.8-.1-.5,0-.9.2-1,.2,0,.5.3.6.8Z"/><path class="cls-8" d="m420.5,681.2c.1.5,0,.9-.2,1-.2,0-.5-.3-.6-.8-.1-.5,0-.9.2-1,.2,0,.5.3.6.8Z"/><path class="cls-8" d="m421.5,679.8c.1.5,0,.9-.2,1-.2,0-.5-.3-.6-.8-.1-.5,0-.9.2-1,.2,0,.5.3.6.8Z"/><path class="cls-8" d="m421.8,680.9c.1.5,0,.9-.2,1-.2,0-.5-.3-.6-.8-.1-.5,0-.9.2-1,.2,0,.5.3.6.8Z"/><path class="cls-8" d="m422.8,679.5c.1.5,0,.9-.2,1-.2,0-.5-.3-.6-.8-.1-.5,0-.9.2-1,.2,0,.5.3.6.8Z"/><path class="cls-8" d="m423,680.6c.1.5,0,.9-.2,1-.2,0-.5-.3-.6-.8-.1-.5,0-.9.2-1,.2,0,.5.3.6.8Z"/><path class="cls-8" d="m424,679.2c.1.5,0,.9-.2,1-.2,0-.5-.3-.7-.8-.1-.5,0-.9.2-1,.2,0,.5.3.7.8h0Z"/><path class="cls-8" d="m424.3,680.3c.1.5,0,.9-.2,1-.2,0-.5-.3-.7-.8-.1-.5,0-.9.2-1,.2,0,.5.3.7.8Z"/><path class="cls-8" d="m425.3,678.9c.1.5,0,.9-.2,1-.2,0-.5-.3-.7-.8-.1-.5,0-.9.2-1,.2,0,.5.3.7.8Z"/><path class="cls-8" d="m425.5,680c.1.5,0,.9-.2,1-.2,0-.5-.3-.7-.8-.1-.5,0-.9.2-1,.2,0,.5.3.7.8Z"/><path class="cls-8" d="m426.5,678.6c.1.5,0,.9-.2,1-.2,0-.5-.3-.7-.8s0-.9.2-1c.2,0,.5.3.7.8Z"/><path class="cls-8" d="m426.8,679.7c.1.5,0,.9-.2,1-.2,0-.5-.3-.7-.8-.1-.5,0-.9.2-1,.2,0,.5.3.7.8Z"/><path class="cls-8" d="m427.8,678.3c.1.5,0,.9-.2,1-.2,0-.5-.3-.7-.8s0-.9.2-1c.2,0,.5.3.7.8h0Z"/><path class="cls-8" d="m428.1,679.4c.1.5,0,.9-.2,1-.2,0-.5-.3-.7-.8s0-.9.2-1c.2,0,.5.3.7.8h0Z"/><path class="cls-8" d="m429,678c.1.5,0,.9-.2,1-.2,0-.5-.3-.7-.8-.1-.5,0-.9.2-1,.2,0,.5.3.7.8Z"/><path class="cls-8" d="m429.3,679c.1.5,0,.9-.2,1-.2,0-.5-.3-.7-.8-.1-.5,0-.9.2-1,.2,0,.5.3.7.8Z"/><path class="cls-8" d="m430.3,677.7c.1.5,0,.9-.2,1s-.5-.3-.7-.8c-.1-.5,0-.9.2-1s.5.3.7.8Z"/><path class="cls-8" d="m430.6,678.7c.1.5,0,.9-.2,1s-.5-.3-.7-.8c-.1-.5,0-.9.2-1s.5.3.7.8Z"/><path class="cls-8" d="m431.5,677.3c.1.5,0,.9-.2,1s-.5-.3-.7-.8,0-.9.2-1,.5.3.7.8Z"/><path class="cls-8" d="m431.8,678.4c.1.5,0,.9-.2,1s-.5-.3-.7-.8,0-.9.2-1,.5.3.7.8Z"/><path class="cls-8" d="m432.8,677c.1.5,0,.9-.2,1s-.5-.3-.7-.8,0-.9.2-1,.5.3.7.8Z"/><path class="cls-8" d="m433.1,678c.1.5,0,.9-.2,1s-.5-.3-.7-.8,0-.9.2-1,.5.3.7.8Z"/><path class="cls-8" d="m434,676.7c.1.5,0,.9-.2,1s-.5-.3-.7-.8,0-.9.2-1,.5.3.7.8h0Z"/><path class="cls-8" d="m434.3,677.7c.1.5,0,.9-.2,1s-.5-.3-.7-.8,0-.9.2-1,.5.3.7.8Z"/><path class="cls-8" d="m435.3,676.3c.1.5,0,.9-.2,1s-.5-.3-.7-.8,0-.9.2-1,.5.3.7.8Z"/><path class="cls-8" d="m435.6,677.4c.1.5,0,.9-.2,1s-.5-.3-.7-.8,0-.9.2-1,.5.3.7.8Z"/><path class="cls-8" d="m436.5,676c.1.5,0,.9-.2,1-.2,0-.5-.3-.7-.8s0-.9.2-1,.5.3.7.8Z"/><path class="cls-8" d="m436.8,677c.1.5,0,.9-.2,1s-.5-.3-.7-.8,0-.9.2-1,.5.3.7.8Z"/><path class="cls-8" d="m437.8,675.7c.1.5,0,.9-.2,1-.2,0-.5-.3-.7-.8s0-.9.2-1c.2,0,.5.3.7.8Z"/><path class="cls-8" d="m438.1,676.7c.1.5,0,.9-.2,1-.2,0-.5-.3-.7-.8s0-.9.2-1c.2,0,.5.3.7.8Z"/><path class="cls-8" d="m439,675.3c.1.5,0,.9-.2,1s-.5-.3-.7-.8,0-.9.2-1c.2,0,.5.3.7.8Z"/><path class="cls-8" d="m439.3,676.4c.1.5,0,.9-.2,1-.2,0-.5-.3-.7-.8s0-.9.2-1c.2,0,.5.3.7.8Z"/><path class="cls-8" d="m440.3,675c.1.5,0,.9-.2,1-.2,0-.5-.3-.7-.8s0-.9.2-1c.2,0,.5.3.7.8Z"/><path class="cls-8" d="m440.6,676.1c.1.5,0,.9-.2,1s-.5-.3-.7-.8,0-.9.2-1c.2,0,.5.3.7.8Z"/><path class="cls-8" d="m441.5,674.7c.1.5,0,.9-.2,1-.2,0-.5-.3-.7-.8s0-.9.2-1c.2,0,.5.3.7.8Z"/><path class="cls-8" d="m441.8,675.7c.1.5,0,.9-.2,1-.2,0-.5-.3-.7-.8-.1-.5,0-.9.2-1,.2,0,.5.3.7.8Z"/><path class="cls-8" d="m442.8,674.4c.1.5,0,.9-.2,1-.2,0-.5-.3-.7-.8-.1-.5,0-.9.2-1,.2,0,.5.3.7.8Z"/><path class="cls-8" d="m443.1,675.4c.1.5,0,.9-.2,1s-.5-.3-.7-.8,0-.9.2-1c.2,0,.5.3.7.8Z"/><path class="cls-8" d="m444,674c.1.5,0,.9-.2,1-.2,0-.5-.3-.7-.8s0-.9.2-1c.2,0,.5.3.7.8Z"/><path class="cls-8" d="m444.3,675.1c.1.5,0,.9-.2,1s-.5-.3-.7-.8c-.1-.5,0-.9.2-1,.2,0,.5.3.7.8Z"/><path class="cls-8" d="m445.3,673.7c.1.5,0,.9-.2,1-.2,0-.5-.3-.7-.8-.1-.5,0-.9.2-1,.2,0,.5.3.7.8Z"/><path class="cls-8" d="m445.6,674.7c.1.5,0,.9-.2,1-.2,0-.5-.3-.7-.8-.1-.5,0-.9.2-1,.2,0,.5.3.7.8Z"/><path class="cls-8" d="m446.5,673.4c.1.5,0,.9-.2,1-.2,0-.5-.3-.7-.8-.1-.5,0-.9.2-1,.2,0,.5.3.7.8Z"/><path class="cls-8" d="m446.8,674.4c.1.5,0,.9-.2,1-.2,0-.5-.3-.7-.8-.1-.5,0-.9.2-1,.2,0,.5.3.7.8Z"/><path class="cls-4" d="m197.3,65.8s62.8,38.1,128.4,0"/><line class="cls-9" x1="86.6" y1="580.8" x2="93.8" y2="581.1"/><line class="cls-9" x1="431.5" y1="580.8" x2="424.4" y2="581.1"/><path class="cls-7" d="m319.8,89.4c6.4-13.8,11.8-30.6,12.5-52.1l13.4,4.4.8,1.3,27.8,8,.9-.9,14.2,5.1s-58.8,183.8,58.5,185.6v13.4l-.8,1.1v417.4s-.4,4.6-3.1,7.9l-7.6,1.7c-212.4,56.2-361.4,0-361.4,0-3-3.6-3.6-8.4-3.6-8.4,0,0,.3-418.2,0-418.9s-.4-.8-.4-.8v-13.4c117.3-1.8,58.5-185.6,58.5-185.6l14.2-5.1,1.4.9,31.1-9.9.5-1.5,14.2-2.9s.2,27.3,13.5,54.3c0,0,17.1,36.4,54.6,38.6,0,0,40.2,5,61-40.2h0Z"/><path class="cls-1" d="m175.9,41s.9,98.8,85.7,102.9c0,0,80.6,6.4,84.9-101"/><path class="cls-4" d="m177.8,39.5s.9,98.3,83.7,102.4c0,0,78.8,6.4,83-100.5"/><path class="cls-1" d="m447.1,254.4h-1.3c-.2,0-.5,0-.8,0-9.8,0-43.7-2.3-66-31.6-26-34.1-27.5-91.6-4.5-170.9l.2-.5h-.4l-27.2-7.8h-.3c0,0,0,.2,0,.2-1.6,36.7-12.2,64-31.6,81.2-20.1,17.9-44.2,19.2-51.1,19.2s-2.3,0-2.4,0c-43.9-2.1-64.9-30.1-74.8-53.1-9.6-22.5-10.9-44.9-11-49.2v-.3l-30.8,9.8c-.1,0-.3,0-.4,0l-.6-.4,1,2.8c22.2,78,20.6,134.8-5.1,168.7-22.4,29.7-56.6,32-66.5,32h-1.7s-.4,0-.4,0l.2.3c.3,1.7.3,133.8,0,392.6h.4c1.5-8.1,5.6-28,10.3-36.8,6.1-11.5,9-22.2,9.7-28.5v-.2s-5.6-.2-5.6-.2c-.4,0-.7-.3-.6-.7,0-.3.3-.7.7-.7h0l7.1.2c.4,0,.7.3.6.7,0,.4-.3.7-.7.7h-1.1s0,.2,0,.2c-.7,6.3-3.6,17.2-9.8,28.8-1.5,2.8-3,6.9-4.6,12.2v.4c-.1,0,.2-.1.2-.1l15,47.8h.1c3.8,1.1,38.8,10.4,94.7,15.1,18.6,1.6,41,2.8,66.2,2.8,48,0,106.5-4.2,170.5-17.9h.1s15-47.8,15-47.8h.4c0,.1-.1-.3-.1-.3-1.6-5.3-3.1-9.4-4.6-12.2-6.2-11.6-9.1-22.5-9.8-28.8v-.2s-1.7,0-1.7,0c-.4,0-.7-.3-.7-.7,0-.4.3-.7.6-.7l7.1-.2c.4,0,.7.3.7.7,0,.4-.3.7-.6.7l-5,.2v.2c.7,6.3,3.6,17.1,9.8,28.5,4.3,8.1,8,25.1,9.9,34.5h.5V255.3c0,0,0-.2,0-.3l.5-.6h0Z"/><path class="cls-4" d="m71.6,252.6h2.6c18.1,0,122.9-8,69.5-197.6l-1.3-3.7"/><path class="cls-11" d="m92.3,582.4s-2.6,19.8-9.4,34.8c-6.9,15-7.9,39.7-11.3,56.5l.3-25.6s6.7-30.9,9.5-35.3c0,0,10.1-18.1,11-30.4h0Z"/><path class="cls-11" d="m426.2,582.4s2.6,19.8,9.5,34.8c6.9,15,7.9,39.7,11.3,56.5l-.3-25.6s-6.7-30.9-9.5-35.3c0,0-10.1-18.1-11-30.4h0Z"/><path class="cls-11" d="m82,636.1s8.7,37.3,9.3,38.7,7.1,3.9,12.1,5,37.3,4.8,50.9,8.9,54.8,10.7,62.5,10.7,72.8-2.7,87.5-4.3c14.6-1.6,52.6-12,52.6-12,0,0-69.4,10-168.3,3.2,0,0-68.3-6.8-95.3-15.2,0,0-9.9-34-11.2-35.2h0Z"/><path class="cls-11" d="m324.8,77.1c5.9-22.1,1.5-28.6,1.5-28.6l.4-.7c3.2-4.6,4.9-8.7,5.4-10.1,0,.6,0,1.1.1,1.7-.7,14.5-3.5,26.9-7.4,37.6h0Z"/><path class="cls-11" d="m195.8,46.9s.2,18.3,3,16.9c0,0-.6,2.8,2.4,5.2,0,0,8.9,4,16.3,6.8,7.4,2.8,39.5,13.7,77.5,4,0,0-38,16.1-92.2-8.4,0,0-2.2-1.4.7,7.6,2.9,8.9,19.2,50.2,62.3,50.2l-8.8.2s-48.7-3.4-61.8-63.8c0,0-4.4-19.3-4-26.6,0,0,4.4,7.4,4.6,7.9h0Z"/><path class="cls-17" d="m314.7,151c.4,1.3.8,2.5,1.2,3.8h-2.7c-.4-1.2-.7-2.3-1.1-3.5h-.8c-.2,1.2-.4,2.3-.5,3.5h-2.5c.6-3.2,1.1-6.3,1.7-9.5h3.9c.5,0,.9,0,1.3.2.6.2,1,.6,1.2,1.2,0,.3,0,.6,0,.8,0,.5-.2,1.1-.3,1.6-.1.6-.4,1-.8,1.4-.2.1-.3.3-.5.4h0Zm-3.1-1.4s0,0,0,0c.4,0,.8,0,1.2,0,.5,0,.8-.3.9-.8,0-.3,0-.6,0-.9-.1-.4-.4-.6-.8-.6h-1s0,0-.1,0c-.1.8-.2,1.5-.3,2.2h0Z"/><path class="cls-17" d="m320.6,151.6h2.4c0,0,0,.2,0,.2,0,.5.1.9.7,1,.4.1.9.1,1.3,0,0,0,.1,0,.2,0,.5-.2.5-.8.2-1.1-.1-.1-.2-.2-.3-.3-.3-.2-.7-.3-1.1-.5-.4-.1-.8-.3-1.2-.4s-.8-.4-1-.7c-.4-.4-.5-.9-.5-1.4s0-.8.2-1.2c.3-.8.9-1.4,1.6-1.7.5-.2.9-.3,1.4-.3.5,0,1.1,0,1.6,0,.5,0,1,.1,1.4.4.6.3.9.7,1.1,1.4.1.6,0,1.2-.3,1.8,0,0,0,0,0,0h-2.3c0,0,0-.1,0-.1.2-.3.2-.6.2-.9,0-.2-.2-.4-.4-.5-.2-.1-.4-.1-.7-.1s-.5,0-.7,0c0,0-.2,0-.3.1-.5.3-.6.9-.1,1.3.3.2.6.3.9.4.4.1.9.2,1.3.4.4.1.8.3,1.1.6.5.4.7.9.7,1.5,0,.5,0,1-.2,1.5-.3.8-.9,1.3-1.6,1.6-.5.2-1,.3-1.6.3-.5,0-1,0-1.4,0s-1-.1-1.4-.3c-.8-.3-1.1-.9-1.2-1.6,0-.4,0-.9,0-1.3,0,0,0,0,0,0h0s0,0,0,0Z"/><path class="cls-17" d="m328.3,154.8c.6-3.2,1.1-6.3,1.7-9.5h6.6c-.1.7-.2,1.4-.4,2.1h-4.2c-.1.6-.2,1.2-.3,1.8h3.5c-.1.7-.2,1.4-.4,2.1h-3.5c0,.5-.2,1-.3,1.5h4.2c-.1.7-.2,1.4-.4,2.1h-6.6Z"/><path class="cls-17" d="m337.7,145.2h2.4c0,.3-.1.6-.1.9-.2,1-.4,2-.5,2.9-.1.7-.3,1.4-.4,2.2,0,.2,0,.5,0,.8,0,.5.2.8.8.9.3,0,.6,0,.9,0,.3-.1.6-.3.8-.6.2-.3.2-.7.3-1,.2-1.1.4-2.2.6-3.4.1-.8.3-1.6.4-2.4,0,0,0-.1,0-.2h2.1c-.5.7-.9,1.4-1.4,2.2.4,0,.8.1,1.3.2,0,0,0,.1,0,.1-.2,1.3-.4,2.6-.7,3.8,0,.4-.2.9-.4,1.3-.5,1-1.2,1.6-2.2,1.9-.7.2-1.4.2-2.1.2-.4,0-.9-.1-1.3-.2-.8-.3-1.3-.9-1.4-1.8,0-.5,0-1.1,0-1.6.2-1,.4-2,.5-3,.2-1,.3-1.9.5-2.9,0,0,0,0,0-.1h0Z"/><path class="cls-17" d="m347.5,151.9c-.2,1-.3,1.9-.5,2.9h-2.4c.4-2.3.8-4.7,1.2-7,.4,0,.9.1,1.3.2-.3-.9-.6-1.7-.9-2.6,0,0,.1,0,.1,0h4.1c.4,0,.9,0,1.3.2.7.3,1.1.8,1.1,1.6,0,.3,0,.7,0,1,0,.4-.2.8-.2,1.2-.1.8-.6,1.4-1.2,1.9-.5.4-1.1.6-1.7.6-.3,0-.6,0-.9,0h-1.2Zm.4-2.1s0,0,0,0c.5,0,.9,0,1.4,0,.5,0,.8-.3.9-.8,0-.3.1-.6.2-.9,0-.1,0-.2,0-.3-.1-.3-.4-.4-.7-.4h-1.3s0,0,0,0c-.1.8-.3,1.6-.4,2.4h0Z"/><path class="cls-17" d="m319,154.8h-2.4c.6-3.2,1.1-6.3,1.7-9.5h2.4c-.5,3.2-1.1,6.3-1.7,9.5Z"/><path class="cls-17" d="m314.7,151c.4,1.3.8,2.5,1.2,3.8h-2.7c-.4-1.2-.7-2.3-1.1-3.5h-.8c-.2,1.2-.4,2.3-.5,3.5h-2.5c.6-3.2,1.1-6.3,1.7-9.5h3.9c.5,0,.9,0,1.3.2.6.2,1,.6,1.2,1.2,0,.3,0,.6,0,.8,0,.5-.2,1.1-.3,1.6-.1.6-.4,1-.8,1.4-.2.1-.3.3-.5.4h0Zm-3.1-1.4s0,0,0,0c.4,0,.8,0,1.2,0,.5,0,.8-.3.9-.8,0-.3,0-.6,0-.9-.1-.4-.4-.6-.8-.6h-1s0,0-.1,0c-.1.8-.2,1.5-.3,2.2h0Z"/><path class="cls-17" d="m320.6,151.6h2.4c0,0,0,.2,0,.2,0,.5.1.9.7,1,.4.1.9.1,1.3,0,0,0,.1,0,.2,0,.5-.2.5-.8.2-1.1-.1-.1-.2-.2-.3-.3-.3-.2-.7-.3-1.1-.5-.4-.1-.8-.3-1.2-.4s-.8-.4-1-.7c-.4-.4-.5-.9-.5-1.4s0-.8.2-1.2c.3-.8.9-1.4,1.6-1.7.5-.2.9-.3,1.4-.3.5,0,1.1,0,1.6,0,.5,0,1,.1,1.4.4.6.3.9.7,1.1,1.4.1.6,0,1.2-.3,1.8,0,0,0,0,0,0h-2.3c0,0,0-.1,0-.1.2-.3.2-.6.2-.9,0-.2-.2-.4-.4-.5-.2-.1-.4-.1-.7-.1s-.5,0-.7,0c0,0-.2,0-.3.1-.5.3-.6.9-.1,1.3.3.2.6.3.9.4.4.1.9.2,1.3.4.4.1.8.3,1.1.6.5.4.7.9.7,1.5,0,.5,0,1-.2,1.5-.3.8-.9,1.3-1.6,1.6-.5.2-1,.3-1.6.3-.5,0-1,0-1.4,0s-1-.1-1.4-.3c-.8-.3-1.1-.9-1.2-1.6,0-.4,0-.9,0-1.3,0,0,0,0,0,0h0s0,0,0,0Z"/><path class="cls-17" d="m328.3,154.8c.6-3.2,1.1-6.3,1.7-9.5h6.6c-.1.7-.2,1.4-.4,2.1h-4.2c-.1.6-.2,1.2-.3,1.8h3.5c-.1.7-.2,1.4-.4,2.1h-3.5c0,.5-.2,1-.3,1.5h4.2c-.1.7-.2,1.4-.4,2.1h-6.6Z"/><path class="cls-17" d="m337.7,145.2h2.4c0,.3-.1.6-.1.9-.2,1-.4,2-.5,2.9-.1.7-.3,1.4-.4,2.2,0,.2,0,.5,0,.8,0,.5.2.8.8.9.3,0,.6,0,.9,0,.3-.1.6-.3.8-.6.2-.3.2-.7.3-1,.2-1.1.4-2.2.6-3.4.1-.8.3-1.6.4-2.4,0,0,0-.1,0-.2h2.1c-.5.7-.9,1.4-1.4,2.2.4,0,.8.1,1.3.2,0,0,0,.1,0,.1-.2,1.3-.4,2.6-.7,3.8,0,.4-.2.9-.4,1.3-.5,1-1.2,1.6-2.2,1.9-.7.2-1.4.2-2.1.2-.4,0-.9-.1-1.3-.2-.8-.3-1.3-.9-1.4-1.8,0-.5,0-1.1,0-1.6.2-1,.4-2,.5-3,.2-1,.3-1.9.5-2.9,0,0,0,0,0-.1h0Z"/><path class="cls-17" d="m347.5,151.9c-.2,1-.3,1.9-.5,2.9h-2.4c.4-2.3.8-4.7,1.2-7,.4,0,.9.1,1.3.2-.3-.9-.6-1.7-.9-2.6,0,0,.1,0,.1,0h4.1c.4,0,.9,0,1.3.2.7.3,1.1.8,1.1,1.6,0,.3,0,.7,0,1,0,.4-.2.8-.2,1.2-.1.8-.6,1.4-1.2,1.9-.5.4-1.1.6-1.7.6-.3,0-.6,0-.9,0h-1.2Zm.4-2.1s0,0,0,0c.5,0,.9,0,1.4,0,.5,0,.8-.3.9-.8,0-.3.1-.6.2-.9,0-.1,0-.2,0-.3-.1-.3-.4-.4-.7-.4h-1.3s0,0,0,0c-.1.8-.3,1.6-.4,2.4h0Z"/><path class="cls-17" d="m319,154.8h-2.4c.6-3.2,1.1-6.3,1.7-9.5h2.4c-.5,3.2-1.1,6.3-1.7,9.5Z"/><path class="cls-17" d="m196.5,152.4s0,0,.1-.1c1.3-1.8,2.2-3.8,2.7-6,0-.1,0-.2,0-.3,0,0,0-.1,0-.2,0-.1.1-.2.3-.2.1,0,.2,0,.3.2,0,0,0,.1,0,.2.1.6.3,1.2.3,1.7.1,1,.2,1.9.1,2.9,0,1.3-.3,2.6-.8,3.9-.4,1.3-1,2.5-1.8,3.6,0,.1-.2.2-.3.3-1.4.8-2.9,1.4-4.5,1.8-.6.1-1.3.2-1.9.3-.2,0-.5,0-.7,0,0,0-.2,0-.3,0,.1,0,.2,0,.3,0,1.1.2,2.2.2,3.3.2.2,0,.5,0,.7,0,.1,0,.2,0,.3,0,.1,0,.3,0,.3.2,0,.1,0,.2,0,.3,0,0,0,0-.1.1-.8.6-1.6,1.2-2.6,1.6-.3.2-.6.3-1,.5-.1,0-.3,0-.4,0-.6-.1-1.2-.3-1.9-.4,0,0-.1,0-.2,0,0,0,0,0,0,0,0,0,0,0,0,.1.1.2.2.4.3.6,0,0,0,.1,0,.2,0,.1-.1.2-.3.3-.2,0-.3,0-.5.1-.8.2-1.6.2-2.4.3h-.1c-.2,0-.3,0-.3-.2s0-.2,0-.3c0,0,0,0,0-.2,0,0,0,0,0,.1,0,.1,0,.2,0,.3,0,.2-.2.2-.3.2s-.3,0-.5,0c-.5,0-1,0-1.4-.1-.4,0-.7-.1-1.1-.2,0,0,0,0-.1,0-.1,0-.2-.2-.2-.4,0,0,0-.1,0-.2l.3-.6c0,0-.1,0-.2,0-.5.1-1.1.3-1.6.4-.6.1-.4.1-.9-.1-1.2-.5-2.3-1.2-3.3-2,0,0,0,0-.1-.1-.1-.1-.1-.2,0-.4,0-.1.2-.2.3-.2s.1,0,.2,0c.8.1,1.6.1,2.4,0,.6,0,1.3-.1,1.9-.2,0,0-.1,0-.2,0-.2,0-.4,0-.6,0-1,0-2-.3-2.9-.6-1.3-.4-2.5-.9-3.7-1.6-.2,0-.3-.2-.4-.4-1-1.4-1.7-3-2.1-4.7-.2-.8-.3-1.6-.4-2.4,0-.8,0-1.6,0-2.4,0-.9.2-1.8.4-2.7,0,0,0,0,0-.1,0-.1.2-.2.3-.2.1,0,.2,0,.3.2,0,.1,0,.2,0,.4.4,1.9,1.1,3.7,2.2,5.4.2.2.3.5.5.7,0,0,0,0,0,.1,0,0,0-.1,0-.2-.4-.6-.7-1.3-1-1.9-.5-1.2-.8-2.4-1-3.6-.2-1.1-.2-2.2-.2-3.3,0-.3,0-.6,0-.9,0-.1,0-.3.1-.4,1.9-3.2,4.6-5.4,8.1-6.6,0,0,.1,0,.2,0,.1,0,.2,0,.3.1,0,.1,0,.2,0,.4,0,0,0,0,0,0-.9.9-1.5,1.9-2,3-.5,1.1-.9,2.3-1.1,3.5-.2,1.2-.3,2.5-.3,3.7,0,1.2.2,2.4.5,3.5.3,1.1.7,2.2,1.3,3.3.5.8,1,1.5,1.7,2.2.6.6,1.4,1.2,2.2,1.5.7.3,1.4.5,2.2.5.9,0,1.7-.2,2.5-.6.8-.4,1.6-1,2.2-1.6.7-.8,1.3-1.7,1.8-2.6.5-1.1.9-2.1,1.1-3.3.3-1.3.4-2.6.4-3.9,0-.6,0-1.2-.1-1.8-.3-2-.9-3.9-2-5.7-.4-.6-.8-1.1-1.3-1.6,0,0,0,0-.1-.1,0-.1,0-.2,0-.4,0-.1.2-.2.3-.1,0,0,.1,0,.2,0,1.6.5,3.1,1.3,4.4,2.4,1.5,1.2,2.8,2.6,3.7,4.2,0,.1.1.2.1.4,0,.4,0,.8.1,1.3,0,.6,0,1.2,0,1.9-.2,1.9-.7,3.7-1.5,5.4-.2.4-.4.8-.6,1.2,0,0,0,.1,0,.2,0,0,0,0,0,.1,0,0,0,0,0-.1h0Z"/><path class="cls-16" d="m183.2,213.7h.8c2.9-.3,5.3.2,7.3,1.2s3.4,2.5,4,4.4c0,.1.2.3.3.6l1.3,18.2c0,1.2-.1,2.2-.6,3.2s-1.3,1.8-2.5,2.5l-2.1,1.2c-.2,0-.3.2-.5.3h.1v.2h.4c.9.4,1.9.8,3,1.2,1.1.5,1.8,1,2,1.7l1.1,3,1.1,15.5c.1.6.2,1,.3,1.4,0,.4.2.8.4,1.3.2.6.5,1.1.8,1.5.4.4.7.9,1.2,1.3.3.2.6.5.9.7s.5.4.6.7l-12,.8c-.5-.5-.8-.8-.9-1-.2-.2-.4-.5-.5-.8-.2-.2-.3-.6-.4-.9v-.5c-.2-.2-.2-.6-.3-1.1s-.2-.8-.2-.9l-1.2-17.9-.9-2.2c0-.1-.4-.2-.9-.3-.5,0-.9,0-1,0,0,0-.3,0-.6.1v.3c-.1,0,1.7,25.3,1.7,25.3l-11,.8-3.7-53.2,12.2-8.9h0Zm.9,29.6c1.1,0,1.8-.4,2.1-1,.3-.6.5-1.1.4-1.8l-1.3-18.6c0,0-.1,0-.1-.2v-.5c-.3-1-1.3-1.4-2.9-1.3-.4,0-.6.2-.6.4,0,.3,0,.5.2.5l1.5,21.7v.2c0,.3.2.5.6.4h0Z"/><path class="cls-16" d="m203.7,218.7c.3-.2.5-.4.6-.4l8.5-6.4.8-.3,3.9,55.1,7-.5c-2,1.5-3.6,2.6-4.8,3.5-1.2.9-2.1,1.5-2.8,2-.6.5-1.2.8-1.5,1-.1.1-.4.3-.7.5l-7.6.5-3.8-54.2c0-.2.1-.4.4-.7h0Z"/><path class="cls-16" d="m224.6,264.5h-.1c0-.1-.1-2.1-.1-2.1,0-.5,0-1,0-1.5s0-.9,0-1.1c0-.4,0-.7.3-.9l8.6-6.5.3.9.6,9.3.2.6c.2.4.4.7.7.9.2.2.7.3,1.5.2.4,0,.8-.1,1.2-.2s.6-.4.6-.7l-.9-12.4h.1c0,0-.5-1.3-.5-1.3-.5-1.6-1.4-3-2.8-4.3-1.3-1.3-2.8-2.6-4.3-3.9-1.5-1.3-3-2.6-4.4-4-1.4-1.3-2.4-2.8-3-4.4,0-.1,0-.3,0-.5,0-.2-.1-.3-.2-.4l-.9-12.7c.1-.3.4-.5.7-.8.3-.2.6-.4.8-.5h.1c2-1.6,3.7-2.9,4.9-3.8s2.3-1.7,3-2.2c.8-.5,1.3-.9,1.7-1.1.3-.2.6-.4.7-.5l.3-.3.6-.2c2.6-.2,4.9.3,6.7,1.4,1.8,1.1,3,2.5,3.5,4.1l.3.9c0,.2,0,.5.1,1,0,.5.1,1,.2,1.5l.2,2.4-9.4,6.3-.6-9.2-.5-1.6c0-.1-.3-.2-.7-.2-.4,0-.6,0-.8,0-1,0-1.5.4-1.5,1.1l.8,11.5c0,.3,0,.5.2.5.2.7.5,1.4,1,2,.4.6,1,1.2,1.6,1.7l10,8.9c0,.3.1.5.4.6.2.1.4.4.7.8l1.7,5,.9,12.8-.5,1.3-10.8,8.1c-.4,0-.6.1-.7.2s0,0,.1,0h-.4c-3,.2-5.6-.2-7.6-1.3-2.1-1.1-3.5-2.6-4.1-4.5l-.3-1.2h0Z"/><path class="cls-16" d="m252.6,216.9c2.1-1.6,3.9-2.9,5.4-3.9,1.4-1,2.6-1.9,3.5-2.5s1.7-1.3,2.4-1.9l9.3-.6.4,6-10.4.7,1.6,23,4.8-.3.4,5.9-4.8.3,1.4,19.7,13.2-.9c-1,1.3-2.4,2.5-4.1,3.6s-3.2,2.2-4.5,3.2l-14.9,1-3.7-53.2h0Z"/><path class="cls-16" d="m293.8,260.7c0-.2,0-.3-.1-.3,0-.1,0-.2-.1-.4l-3.2-46.2v-.6c0-.2.2-.3.4-.5l9.9-7.3,3.7,52.8.3,1.3c0,.1.3.3.7.3s.7,0,.8,0c.5,0,.9-.2,1.2-.4s.5-.5.5-.8l-3.2-46.5c0,0,.2-.2.5-.4.2-.2.5-.4.7-.5.5-.4,1.2-1,2.2-1.7s1.8-1.4,2.7-2.1,1.7-1.3,2.4-1.8c.7-.5,1.1-.8,1.1-.8l.7-.4,3.7,52.8c0,.6-.5,1.3-1.5,1.9s-1.8,1.1-2.3,1.5l-8,5.8c-.2,0-.3.1-.4.1-2.9.2-5.6-.2-8-1.2-2.4-1-3.9-2.5-4.5-4.5,0,0-.1-.1-.1-.2h0Z"/><path class="cls-16" d="m334.3,203.2h.8c2.9-.3,5.3.2,7.3,1.2s3.4,2.5,4,4.4c0,.1.2.3.3.6l1.6,23.5c.1,1.6-.2,3.2-1.1,5s-2,3-3.6,3.9c-.8.5-1.6.9-2.4,1.2-.9.4-1.6.6-2.4.9-.7.2-1.4.4-1.9.5-.5.1-.8.2-.9.2s-.3,0-.6.1v.3c-.1,0,1.3,19.5,1.3,19.5l-11,.8-3.7-53.2,12.2-8.9h0Zm.6,34.6c0,.2.2.3.6.3,1.1,0,1.8-.4,2.1-1s.5-1.1.4-1.8l-1.7-23.9c0,0-.1,0-.1,0v-.6c-.4-1-1.3-1.4-2.9-1.3-.4,0-.6.2-.6.4,0,.3,0,.5.2.5l1.9,27v.4s0,0,0,0Z"/><path class="cls-17" d="m182.4,213.5h.8c2.9-.3,5.3.2,7.3,1.2s3.4,2.5,4,4.4c0,.1.2.3.3.6l1.3,18.2c0,1.2-.1,2.2-.6,3.2s-1.3,1.8-2.5,2.5l-2.1,1.2c-.2,0-.3.2-.5.3h.1v.2h.4c.9.4,1.9.8,3,1.2,1.1.5,1.8,1,2,1.7l1.1,3,1.1,15.5c.1.6.2,1,.3,1.4,0,.4.2.8.4,1.3.2.6.5,1.1.8,1.5.4.4.7.9,1.2,1.3.3.2.6.5.9.7s.6.4.6.7l-12,.8c-.5-.5-.8-.8-.9-1-.2-.2-.4-.5-.5-.8-.2-.2-.3-.6-.4-.9v-.5c-.2-.2-.2-.6-.3-1.1s-.2-.8-.2-.9l-1.2-17.9-.9-2.2c0-.1-.4-.2-.9-.3-.5,0-.9,0-1,0,0,0-.3,0-.6.1v.3c-.1,0,1.7,25.3,1.7,25.3l-11,.8-3.7-53.2,12.2-8.9h0Zm.9,29.6c1.1,0,1.8-.4,2.1-1,.3-.6.5-1.1.4-1.8l-1.3-18.6c0,0-.1,0-.1-.2v-.5c-.3-1-1.3-1.4-2.9-1.3-.4,0-.6.2-.6.4,0,.3,0,.5.2.5l1.5,21.7v.2c0,.3.2.5.6.4h0Z"/><path class="cls-17" d="m202.9,218.5c.3-.2.5-.4.6-.4l8.5-6.4.8-.3,3.9,55.1,7-.5c-2,1.5-3.6,2.6-4.8,3.5-1.2.9-2.1,1.5-2.8,2-.6.5-1.2.8-1.5,1-.1.1-.4.3-.7.5l-7.6.5-3.8-54.2c0-.2.1-.4.4-.7h0Z"/><path class="cls-17" d="m223.7,264.3h-.1c0-.1-.1-2.1-.1-2.1,0-.5,0-1,0-1.5s0-.9,0-1.1c0-.4,0-.7.3-.9l8.6-6.5.3.9.6,9.3.2.6c.2.4.4.7.7.9.2.2.7.3,1.5.2.4,0,.8-.1,1.2-.2s.6-.4.6-.7l-.9-12.4h.1c0,0-.5-1.3-.5-1.3-.5-1.6-1.4-3-2.8-4.3-1.3-1.3-2.8-2.6-4.3-3.9-1.5-1.3-3-2.6-4.4-4-1.4-1.3-2.4-2.8-3-4.4,0-.1,0-.3,0-.5,0-.2-.1-.3-.2-.4l-.9-12.7c.1-.3.4-.5.7-.8.3-.2.6-.4.8-.5h.1c2-1.6,3.7-2.9,4.9-3.8s2.3-1.7,3-2.2c.8-.5,1.3-.9,1.7-1.1.3-.2.6-.4.7-.5l.3-.3.6-.2c2.6-.2,4.9.3,6.7,1.4,1.8,1.1,3,2.5,3.5,4.1l.3.9c0,.2,0,.5.1,1,0,.5.1,1,.2,1.5l.2,2.4-9.4,6.3-.6-9.2-.5-1.6c0-.1-.3-.2-.7-.2-.4,0-.6,0-.8,0-1,0-1.5.4-1.5,1.1l.8,11.5c0,.3,0,.5.2.5.2.7.5,1.4,1,2,.4.6,1,1.2,1.6,1.7l10,8.9c0,.3.1.5.4.6.2.1.4.4.7.8l1.7,5,.9,12.8-.5,1.3-10.8,8.1c-.4,0-.6.1-.7.2s0,0,.1,0h-.4c-3,.2-5.6-.2-7.6-1.3-2.1-1.1-3.5-2.6-4.1-4.5l-.3-1.2h0Z"/><path class="cls-17" d="m251.8,216.6c2.1-1.6,3.9-2.9,5.4-3.9,1.4-1,2.6-1.9,3.5-2.5s1.7-1.3,2.4-1.9l9.3-.6.4,6-10.4.7,1.6,23,4.8-.3.4,5.9-4.8.3,1.4,19.7,13.2-.9c-1,1.3-2.4,2.5-4.1,3.6s-3.2,2.2-4.5,3.2l-14.9,1-3.7-53.2h0Z"/><path class="cls-17" d="m293,260.5c0-.2,0-.3-.1-.3,0-.1,0-.2-.1-.4l-3.2-46.2v-.6c0-.2.2-.3.4-.5l9.9-7.3,3.7,52.8.3,1.3c0,.1.3.3.7.3s.7,0,.8,0c.5,0,.9-.2,1.2-.4s.5-.5.5-.8l-3.2-46.5c0,0,.2-.2.5-.4.2-.2.5-.4.7-.5.5-.4,1.2-1,2.2-1.7s1.8-1.4,2.7-2.1,1.7-1.3,2.4-1.8c.7-.5,1.1-.8,1.1-.8l.7-.4,3.7,52.8c0,.6-.5,1.3-1.5,1.9s-1.8,1.1-2.3,1.5l-8,5.8c-.2,0-.3.1-.4.1-2.9.2-5.6-.2-8-1.2-2.4-1-3.9-2.5-4.5-4.5,0,0-.1-.1-.1-.2h0Z"/><path class="cls-17" d="m333.5,202.9h.8c2.9-.3,5.3.2,7.3,1.2s3.4,2.5,4,4.4c0,.1.2.3.3.6l1.6,23.5c.1,1.6-.2,3.2-1.1,5s-2,3-3.6,3.9c-.8.5-1.6.9-2.4,1.2-.9.4-1.6.6-2.4.9-.7.2-1.4.4-1.9.5-.5.1-.8.2-.9.2s-.3,0-.6.1v.3c-.1,0,1.3,19.5,1.3,19.5l-11,.8-3.7-53.2,12.2-8.9h0Zm.6,34.6c0,.2.2.3.6.3,1.1,0,1.8-.4,2.1-1s.5-1.1.4-1.8l-1.7-23.9c0,0-.1,0-.1,0v-.6c-.4-1-1.3-1.4-2.9-1.3-.4,0-.6.2-.6.4,0,.3,0,.5.2.5l1.9,27v.4s0,0,0,0Z"/></svg>