<?xml version="1.0" encoding="UTF-8"?><svg id="Primary_Color" xmlns="http://www.w3.org/2000/svg" xmlns:xlink="http://www.w3.org/1999/xlink" viewBox="0 0 518.7 743.8"><defs><style>.cls-1{clip-path:url(#clippath);}.cls-2,.cls-3,.cls-4,.cls-5,.cls-6,.cls-7,.cls-8,.cls-9,.cls-10,.cls-11,.cls-12,.cls-13,.cls-14,.cls-15{fill:none;}.cls-2,.cls-16,.cls-17,.cls-18,.cls-19,.cls-20,.cls-21{stroke-width:0px;}.cls-3{stroke-width:2.3px;}.cls-3,.cls-14{stroke:#231f20;}.cls-4{stroke-width:4.5px;}.cls-4,.cls-6,.cls-8,.cls-11{stroke-linejoin:round;}.cls-4,.cls-8{stroke:#d3d3d3;}.cls-5,.cls-6,.cls-7,.cls-10,.cls-11,.cls-12,.cls-13,.cls-15{stroke:#000;}.cls-5,.cls-7{stroke-width:0px;}.cls-5,.cls-7,.cls-9,.cls-10,.cls-12,.cls-13,.cls-15{stroke-miterlimit:10;}.cls-6{stroke-width:.6px;}.cls-6,.cls-11{stroke-linecap:round;}.cls-7,.cls-10,.cls-15{stroke-dasharray:0 0 0 .2;}.cls-8{stroke-width:6px;}.cls-22{clip-path:url(#clippath-1);}.cls-23{clip-path:url(#clippath-4);}.cls-24{clip-path:url(#clippath-3);}.cls-25{clip-path:url(#clippath-2);}.cls-26{clip-path:url(#clippath-7);}.cls-27{clip-path:url(#clippath-6);}.cls-28{clip-path:url(#clippath-5);}.cls-9{stroke:#a9a9a9;stroke-width:.8px;}.cls-10{stroke-width:.2px;}.cls-11,.cls-13{stroke-width:.4px;}.cls-16{isolation:isolate;opacity:.3;}.cls-12{stroke-width:.3px;}.cls-14{stroke-width:3px;}.cls-17{fill:gray;}.cls-18{fill:#d0b787;}.cls-19{fill:#e0e1e2;}.cls-20{fill:#d3d3d3;}.cls-21{fill:#a9a9a9;}.cls-15{stroke-width:.2px;}</style><clipPath id="clippath"><path class="cls-2" d="m-92.3,254.8h-1.3c-.2,0-.5,0-.8,0-9.8,0-43.5-2.3-65.8-31.5-25.9-34-27.4-91.3-4.5-170.4l.2-.5h-.4l-27.1-7.8h-.3c0,0,0,.2,0,.2-1.6,36.5-12.2,63.8-31.5,80.9-20,17.8-44,19.2-50.9,19.2s-2.3,0-2.4,0c-43.7-2.1-64.7-30-74.5-52.9-9.6-22.4-10.9-44.7-11-49v-.3l-30.7,9.8c-.1,0-.3,0-.4,0l-.6-.4,1,2.8c22.2,77.7,20.5,134.3-5,168.1-22.4,29.6-56.4,31.9-66.2,31.9h-1.7s-.4,0-.4,0l.2.3c.3,1.7.3,133.3,0,391.2h.4c1.5-8.1,5.6-27.9,10.3-36.7,6.1-11.4,9-22.2,9.7-28.4v-.2s-5.6-.2-5.6-.2c-.4,0-.7-.3-.6-.7,0-.3.3-.7.7-.7h0l7.1.2c.4,0,.7.3.6.7,0,.4-.3.7-.7.7h-1.1s0,.2,0,.2c-.7,6.3-3.6,17.1-9.8,28.7-1.5,2.8-3,6.8-4.6,12.1v.4c-.1,0,.2-.1.2-.1l15,47.7h.1c3.8,1.1,38.7,10.3,94.3,15.1,18.6,1.6,40.8,2.8,66,2.8,47.8,0,106.1-4.2,170-17.8h.1s15-47.7,15-47.7h.4c0,.1-.1-.3-.1-.3-1.5-5.3-3.1-9.4-4.6-12.1-6.1-11.5-9.1-22.4-9.8-28.7v-.2s-1.7,0-1.7,0c-.4,0-.7-.3-.7-.7,0-.4.3-.7.6-.7l7.1-.2c.4,0,.7.3.7.7,0,.4-.3.7-.6.7l-5,.2v.2c.7,6.2,3.6,17,9.7,28.4,4.3,8,8,25,9.8,34.4h.5V255.7c0,0,0-.2,0-.3l.5-.6h0Z"/></clipPath><clipPath id="clippath-1"><path class="cls-2" d="m446.5,240.9c-24.6-.5-43.2-9.3-55.3-26.1-14.5-20.2-19.6-51.7-15.2-93.6,3.4-32.2,11.3-59.2,12.9-64.3l.2-.8-14.4-4.9-.8,2.1c-22.9,79.1-21.6,136.2,4.3,170.3,22.1,29,55,31.6,65.9,31.6h3.1v-14.1h-.9s0,0,0,0Z"/></clipPath><clipPath id="clippath-2"><path class="cls-2" d="m72.3,240.9c24.6-.5,43.2-9.3,55.3-26.1,14.5-20.2,19.6-51.7,15.2-93.6-3.4-32.2-11.3-59.2-12.9-64.3l-.2-.8,14.4-4.9.8,2.1c22.9,79.1,21.6,136.2-4.3,170.3-22.1,29-55,31.6-65.9,31.6h-3.1v-14.1h.9s0,0,0,0Z"/></clipPath><clipPath id="clippath-3"><path class="cls-2" d="m346.1,44.1c-4.2,107-84.6,100.6-84.6,100.6-84.4-4.1-85.4-102.6-85.4-102.6l.5-1.5,14.1-2.9s.2,27.2,13.5,54.1c0,0,17.1,36.2,54.4,38.5,0,0,40,5,60.8-40,6.4-13.8,11.8-30.5,12.4-51.9l13.4,4.4.8,1.3h0Z"/></clipPath><clipPath id="clippath-4"><path class="cls-2" d="m192,40.8c1.6,3.9,5.4,11.2,12.1,16.9l.3.3-8.7,12-.2-.9c-2.4-8.7-3.9-18.2-4.3-28.1v-2.5c-.1,0,.9,2.3.9,2.3h0Z"/></clipPath><clipPath id="clippath-5"><path class="cls-2" d="m330.8,41c-1.6,3.9-5.4,11.2-12.2,17l-.3.3,8.8,12.1.2-.9c2.4-8.8,3.9-18.3,4.4-28.3v-2.6c.1,0-.9,2.4-.9,2.4h0Z"/></clipPath><clipPath id="clippath-6"><path class="cls-2" d="m318.2,58.3l-.4.2c-17,9.8-35.5,14.7-54.9,14.7-31.7,0-55.7-13.2-58.3-14.7l-.3-.2-7.2,9.5.4.3c1.7,1,17.1,9.7,39.2,14.1,7.5,1.5,16.3,2.6,26,2.6,18.4,0,40-3.9,62-16.6l.4-.2-7-9.6h0Z"/></clipPath><clipPath id="clippath-7"><path class="cls-2" d="m446.4,254.8h-1.3c-.2,0-.5,0-.8,0-9.8,0-43.5-2.3-65.8-31.5-25.9-34-27.4-91.3-4.5-170.4l.2-.5h-.4l-27.1-7.8h-.3c0,0,0,.2,0,.2-1.6,36.5-12.2,63.8-31.5,80.9-20,17.8-44,19.2-50.9,19.2s-2.3,0-2.4,0c-43.7-2.1-64.7-30-74.5-52.9-9.6-22.4-10.9-44.7-11-49v-.3l-30.7,9.8c-.1,0-.3,0-.4,0l-.6-.4,1,2.8c22.2,77.7,20.5,134.3-5,168.1-22.4,29.6-56.4,31.9-66.2,31.9h-1.7s-.4,0-.4,0l.2.3c.3,1.7.3,133.3,0,391.2h.4c1.5-8.1,5.6-27.9,10.3-36.7,6.1-11.4,9-22.2,9.7-28.4v-.2s-5.6-.2-5.6-.2c-.4,0-.7-.3-.6-.7,0-.3.3-.7.7-.7h0l7.1.2c.4,0,.7.3.6.7,0,.4-.3.7-.7.7h-1.1s0,.2,0,.2c-.7,6.3-3.6,17.1-9.8,28.7-1.5,2.8-3,6.8-4.6,12.1v.4c-.1,0,.2-.1.2-.1l15,47.7h.1c3.8,1.1,38.7,10.3,94.3,15.1,18.6,1.6,40.8,2.8,66,2.8,47.8,0,106.1-4.2,170-17.8h.1s15-47.7,15-47.7h.4c0,.1-.1-.3-.1-.3-1.5-5.3-3.1-9.4-4.6-12.1-6.1-11.5-9.1-22.4-9.8-28.7v-.2s-1.7,0-1.7,0c-.4,0-.7-.3-.7-.7,0-.4.3-.7.6-.7l7.1-.2c.4,0,.7.3.7.7,0,.4-.3.7-.6.7l-5,.2v.2c.7,6.2,3.6,17,9.7,28.4,4.3,8,8,25,9.8,34.4h.5V255.7c0,0,0-.2,0-.3l.5-.6h0Z"/></clipPath></defs><g class="cls-1"><rect class="cls-21" x="-287.9" y="88.9" width="47.3" height="693.1" transform="translate(-428.1 -46.9) rotate(-50)"/></g><g id="R"><g class="cls-22"><path class="cls-20" d="m446.5,240.9c-24.6-.5-43.2-9.3-55.3-26.1-14.5-20.2-19.6-51.7-15.2-93.6,3.4-32.2,11.3-59.2,12.9-64.3l.2-.8-14.4-4.9-.8,2.1c-22.9,79.1-21.6,136.2,4.3,170.3,22.1,29,55,31.6,65.9,31.6h3.1v-14.1h-.9s0,0,0,0Z"/><path class="cls-17" d="m454.2,237.3c-25.2-.5-44.3-9.1-56.7-25.6-14.9-19.8-20.1-50.6-15.6-91.7,3.5-31.5,11.6-58,13.2-62.9l.3-.8-14.8-4.8-.8,2c-23.5,77.5-22.2,135.8,4.4,169.1,22.6,28.4,56.4,27,67.6,27h.9l2.3-1.6v-10.6h-.9s0,0,0,0Z"/><path class="cls-21" d="m458.8,235c-25.2-.5-44.3-9-56.7-25.3-14.9-19.6-20.1-50.1-15.6-90.7,3.5-31.2,11.6-57.3,13.2-62.3l.3-.8-14.8-4.8-.8,2c-23.5,76.6-22.2,134.3,4.4,167.3,22.6,28.1,56.4,25.2,67.6,25.2h3.2v-10.6h-.9s0,0,0,0Z"/></g></g><g id="L"><g class="cls-25"><path class="cls-20" d="m72.3,240.9c24.6-.5,43.2-9.3,55.3-26.1,14.5-20.2,19.6-51.7,15.2-93.6-3.4-32.2-11.3-59.2-12.9-64.3l-.2-.8,14.4-4.9.8,2.1c22.9,79.1,21.6,136.2-4.3,170.3-22.1,29-55,31.6-65.9,31.6h-3.1v-14.1h.9s0,0,0,0Z"/><path class="cls-17" d="m64.6,237.3c25.2-.5,44.3-9.1,56.7-25.6,14.9-19.8,20.1-50.6,15.6-91.7-3.5-31.5-11.6-58-13.2-62.9l-.3-.8,14.8-4.8.8,2c23.5,77.5,22.2,135.8-4.4,169.1-22.6,28.4-56.4,27-67.6,27h-.9l-2.3-1.6v-10.6h.9s0,0,0,0Z"/><path class="cls-21" d="m59.9,235c25.2-.5,44.3-9,56.7-25.3,14.9-19.6,20.1-50.1,15.6-90.7-3.5-31.2-11.6-57.3-13.2-62.3l-.3-.8,14.8-4.8.8,2c23.5,76.6,22.2,134.3-4.4,167.3-22.6,28.1-56.4,25.2-67.6,25.2h-3.2v-10.6h.9s0,0,0,0Z"/></g></g><g id="front"><g class="cls-24"><path class="cls-20" d="m346.1,44.1c-4.2,107-84.6,100.6-84.6,100.6-84.4-4.1-85.4-102.6-85.4-102.6l.5-1.5,14.1-2.9s.2,27.2,13.5,54.1c0,0,17.1,36.2,54.4,38.5,0,0,40,5,60.8-40,6.4-13.8,11.8-30.5,12.4-51.9l13.4,4.4.8,1.3h0Z"/><path class="cls-17" d="m342.4,38c-4,108.8-80.8,102.3-80.8,102.3-80.7-4.2-81.5-104.3-81.5-104.3l.5-1.5,13.5-2.9s.2,27.6,12.9,55c0,0,16.3,36.9,52,39.1,0,0,38.2,5.1,58-40.7,6.1-14,11.3-31,11.9-52.7l12.8,4.4.7,1.3h0Z"/><path class="cls-21" d="m337.8,33.4c-3.8,108.8-76.2,102.3-76.2,102.3-76.1-4.2-76.9-104.3-76.9-104.3l.5-1.5,12.7-2.9s.2,27.6,12.2,55c0,0,15.4,36.9,49.1,39.1,0,0,36.1,5.1,54.8-40.7,5.7-14,10.6-31,11.2-52.7l12.1,4.4.7,1.3h0Z"/></g></g><g id="L_back"><g class="cls-23"><path class="cls-21" d="m192,40.8c1.6,3.9,5.4,11.2,12.1,16.9l.3.3-8.7,12-.2-.9c-2.4-8.7-3.9-18.2-4.3-28.1v-2.5c-.1,0,.9,2.3.9,2.3h0Z"/><path class="cls-21" d="m201,65.5c-6.5-3.3-11.6-11.2-15.5-18.3v-10.5l30.8,16.2-15.3,12.5h0Z"/><path class="cls-21" d="m202.4,61.5c-6.5-3.4-11.5-11.2-15.5-18.4v-10.5s30.8,16.4,30.8,16.4l-15.3,12.5h0Z"/></g></g><g id="R_back"><g class="cls-28"><path class="cls-21" d="m330.8,41c-1.6,3.9-5.4,11.2-12.2,17l-.3.3,8.8,12.1.2-.9c2.4-8.8,3.9-18.3,4.4-28.3v-2.6c.1,0-.9,2.4-.9,2.4h0Z"/><path class="cls-21" d="m321.7,65.9c6.6-3.4,11.6-11.2,15.6-18.4v-10.5l-31,16.3,15.4,12.6Z"/><path class="cls-21" d="m320.3,61.8c6.5-3.4,11.6-11.3,15.5-18.5v-10.5s-31,16.4-31,16.4l15.4,12.5h0Z"/></g></g><g id="back"><path class="cls-18" d="m318.2,58.3l-.4.2c-17,9.8-35.5,14.7-54.9,14.7-31.7,0-55.7-13.2-58.3-14.7l-.3-.2-7.2,9.5.4.3c1.7,1,17.1,9.7,39.2,14.1,7.5,1.5,16.3,2.6,26,2.6,18.4,0,40-3.9,62-16.6l.4-.2-7-9.6h0Z"/><g class="cls-27"><path class="cls-21" d="m318.2,58.3l-.4.2c-17,9.8-35.5,14.7-54.9,14.7-31.7,0-55.7-13.2-58.3-14.7l-.3-.2-7.2,9.5.4.3c1.7,1,17.1,9.7,39.2,14.1,7.5,1.5,16.3,2.6,26,2.6,18.4,0,40-3.9,62-16.6l.4-.2-7-9.6h0Z"/><path class="cls-21" d="m317.8,54.4l-.4.2c-16.9,9.8-35.2,14.7-54.5,14.7-31.5,0-55.3-13.2-57.9-14.7l-.3-.2-7.2,9.5.4.3c1.7,1,16.9,9.7,39,14.1,7.4,1.5,16.2,2.6,25.8,2.6,18.2,0,39.7-3.9,61.6-16.6l.4-.2-7-9.6h0Z"/><path class="cls-21" d="m317.8,48.7l-.4.2c-16.9,10.6-35.2,15.9-54.5,15.9-31.5,0-55.3-14.3-57.9-15.9l-.3-.2-7.2,10.3.4.3c1.7,1.1,16.9,10.5,39,15.3,7.4,1.6,16.2,2.8,25.8,2.8,18.2,0,39.7-4.2,61.6-17.9l.4-.3-7-10.4h0Z"/></g></g><path class="cls-19" d="m446.1,648.9c-.8-4.4-2.9-15.7-5.7-25.6,0-.2-.2-.3-.4-.3h0c-.2,0-.4.1-.4.3l-14.7,46.9h0c-55.6,11.9-112.9,17.9-170.3,17.9s-44.6-.9-66-2.8c-58-5-94.2-15-94.6-15.1l-14.7-46.9c0-.2-.2-.3-.4-.3h0c-.2,0-.4.1-.4.3-3.4,11.9-5.8,25.9-6.1,27.8,0,0,0,.2,0,.3v21.6s0,0,0,0c.1.8.8,4.9,3.4,8,0,0,.1.1.2.1,3.9,1.5,40.4,14.3,100.5,20.9,20,2.2,44,3.8,71.4,3.8,52.1,0,116.3-5.9,188-24.8l7.4-1.6c.1,0,.2,0,.2-.2,2.5-3.2,2.9-7.5,2.9-7.6h0v-22.8h0Z"/><path class="cls-17" d="m446.4,254.8h-1.3c-.2,0-.5,0-.8,0-9.8,0-43.5-2.3-65.8-31.5-25.9-34-27.4-91.3-4.5-170.4l.2-.5h-.4l-27.1-7.8h-.3c0,0,0,.2,0,.2-1.6,36.5-12.2,63.8-31.5,80.9-20,17.8-44,19.2-50.9,19.2s-2.3,0-2.4,0c-43.7-2.1-64.7-30-74.5-52.9-9.6-22.4-10.9-44.7-11-49v-.3l-30.7,9.8c-.1,0-.3,0-.4,0l-.6-.4,1,2.8c22.2,77.7,20.5,134.3-5,168.1-22.4,29.6-56.4,31.9-66.2,31.9h-1.7s-.4,0-.4,0l.2.3c.3,1.7.3,133.3,0,391.2h.4c1.5-8.1,5.6-27.9,10.3-36.7,6.1-11.4,9-22.2,9.7-28.4v-.2s-5.6-.2-5.6-.2c-.4,0-.7-.3-.6-.7,0-.3.3-.7.7-.7h0l7.1.2c.4,0,.7.3.6.7,0,.4-.3.7-.7.7h-1.1s0,.2,0,.2c-.7,6.3-3.6,17.1-9.8,28.7-1.5,2.8-3,6.8-4.6,12.1v.4c-.1,0,.2-.1.2-.1l15,47.7h.1c3.8,1.1,38.7,10.3,94.3,15.1,18.6,1.6,40.8,2.8,66,2.8,47.8,0,106.1-4.2,170-17.8h.1s15-47.7,15-47.7h.4c0,.1-.1-.3-.1-.3-1.5-5.3-3.1-9.4-4.6-12.1-6.1-11.5-9.1-22.4-9.8-28.7v-.2s-1.7,0-1.7,0c-.4,0-.7-.3-.7-.7,0-.4.3-.7.6-.7l7.1-.2c.4,0,.7.3.7.7,0,.4-.3.7-.6.7l-5,.2v.2c.7,6.2,3.6,17,9.7,28.4,4.3,8,8,25,9.8,34.4h.5V255.7c0,0,0-.2,0-.3l.5-.6h0Z"/><g class="cls-26"><line class="cls-9" x1="47.3" y1="34.9" x2="47.3" y2="716.3"/><line class="cls-9" x1="68.5" y1="34.9" x2="68.5" y2="716.3"/><line class="cls-9" x1="89.8" y1="34.9" x2="89.8" y2="716.3"/><line class="cls-9" x1="111" y1="34.9" x2="111" y2="716.3"/><line class="cls-9" x1="132.2" y1="34.9" x2="132.2" y2="716.3"/><line class="cls-9" x1="153.4" y1="34.9" x2="153.4" y2="716.3"/><line class="cls-9" x1="174.6" y1="34.9" x2="174.6" y2="716.3"/><line class="cls-9" x1="195.8" y1="34.9" x2="195.8" y2="716.3"/><line class="cls-9" x1="217" y1="34.9" x2="217" y2="716.3"/><line class="cls-9" x1="238.2" y1="34.9" x2="238.2" y2="716.3"/><line class="cls-9" x1="259.4" y1="34.9" x2="259.4" y2="716.3"/><line class="cls-9" x1="280.6" y1="34.9" x2="280.6" y2="716.3"/><line class="cls-9" x1="301.8" y1="34.9" x2="301.8" y2="716.3"/><line class="cls-9" x1="323" y1="34.9" x2="323" y2="716.3"/><line class="cls-9" x1="344.2" y1="34.9" x2="344.2" y2="716.3"/><line class="cls-9" x1="365.4" y1="34.9" x2="365.4" y2="716.3"/><line class="cls-9" x1="386.6" y1="34.9" x2="386.6" y2="716.3"/><line class="cls-9" x1="407.8" y1="34.9" x2="407.8" y2="716.3"/><line class="cls-9" x1="429" y1="34.9" x2="429" y2="716.3"/><line class="cls-9" x1="450.2" y1="34.9" x2="450.2" y2="716.3"/><line class="cls-9" x1="471.4" y1="34.9" x2="471.4" y2="716.3"/></g><path class="cls-19" d="m325.1,68.3h-.2c-19.2,11.1-40.1,16.7-62.2,16.7s-17.5-.9-26.1-2.6c-22.4-4.5-37.7-13.2-39.4-14.2h-.2c0-.1-.9,1-.9,1h0c2.2,8.1,5,15.6,8.4,22.4.2.4,17.4,36,54.1,38.2.1,0,1.3.1,3.3.1,9.9,0,39.6-3.1,56.6-39h0s.4-.9.4-.9c3.1-6.7,5.5-13.2,7.4-19.8h0c0-.1-1.4-2.1-1.4-2.1h0Z"/><path class="cls-12" d="m71.4,254.5h2.7c18.5,0,125.7-8,71.1-199.6l-1.4-3.8"/><path class="cls-12" d="m374.8,51.4l-.5,1.6c-56.7,195.9,54.1,201.8,70.9,201.6h2.1"/><path class="cls-13" d="m190.9,37.8s3.6,12,13.6,20.4c0,0,55.6,33.7,113.6,0,10.1-8.4,13.9-19.7,13.9-19.7"/><path class="cls-12" d="m197.3,68s62.6,37.9,128,0"/><line class="cls-12" x1="195.9" y1="69.4" x2="204.5" y2="58.2"/><line class="cls-7" x1="195.2" y1="68.6" x2="203.8" y2="57.3"/><line class="cls-12" x1="318.1" y1="58.2" x2="327.3" y2="70.8"/><line class="cls-7" x1="318.9" y1="57.6" x2="327.8" y2="69.8"/><path class="cls-12" d="m72.2,651.1s4.9-29.8,11.1-41.4c6.2-11.6,9.3-23,9.8-29.5"/><path class="cls-12" d="m78.9,622.1l15.1,48s141.9,40.3,330.9,0l15.1-48"/><path class="cls-12" d="m446.5,651.1s-4.9-29.8-11.1-41.4-9.3-23-9.8-29.5"/><line class="cls-7" x1="79.6" y1="619.6" x2="96.1" y2="670.6"/><line class="cls-7" x1="439.3" y1="619.6" x2="422.8" y2="670.6"/><path class="cls-10" d="m426.8,664.2c-57.3,13.5-112.1,17.5-162.2,17.5-99.5,0-171.6-17.4-172.7-17.7"/><path class="cls-15" d="m91.2,660.3c1.6.4,166.4,40,336.5,0"/><path class="cls-7" d="m446.6,253.1h-2.6c-18.1,0-122.5-7.9-69.2-196.9l1.3-3.7"/><path class="cls-5" d="m73.4,672.6c-.2.5-.5.8-.7.7-.2,0-.3-.5-.1-1,.2-.5.5-.8.7-.7.2,0,.3.5.1,1Z"/><path class="cls-5" d="m73.1,673.6c-.2.5-.5.8-.7.7-.2,0-.3-.5-.1-1,.2-.5.5-.8.7-.7.2,0,.3.5.1,1h0Z"/><path class="cls-5" d="m74.7,673c-.2.5-.5.8-.7.7-.2,0-.3-.5-.1-1s.5-.8.7-.7c.2,0,.3.5.1,1h0Z"/><path class="cls-5" d="m74.3,674c-.2.5-.5.8-.7.7-.2,0-.3-.5-.1-1s.5-.8.7-.7c.2,0,.3.5.1,1Z"/><path class="cls-5" d="m75.9,673.4c-.1.5-.5.8-.7.7s-.3-.5-.1-1c.2-.5.5-.8.7-.7.2,0,.3.5.1,1Z"/><path class="cls-5" d="m75.5,674.4c-.1.5-.5.8-.7.7s-.3-.5-.1-1c.2-.5.5-.8.7-.7.2,0,.3.5.1,1Z"/><path class="cls-5" d="m77.1,673.8c-.1.5-.5.8-.7.7-.2,0-.3-.5-.1-1,.1-.5.5-.8.7-.7.2,0,.3.5.1,1h0Z"/><path class="cls-5" d="m76.8,674.8c-.1.5-.5.8-.7.7s-.3-.5-.1-1c.1-.5.5-.8.7-.7s.3.5.1,1Z"/><path class="cls-5" d="m78.3,674.2c-.1.5-.5.8-.7.7-.2,0-.3-.5-.2-1s.5-.8.7-.7c.2,0,.3.5.2,1Z"/><path class="cls-5" d="m78,675.2c-.1.5-.5.8-.7.7-.2,0-.3-.5-.2-1s.5-.8.7-.7c.2,0,.3.5.2,1Z"/><path class="cls-5" d="m79.6,674.6c-.1.5-.5.8-.7.7s-.3-.5-.2-1,.5-.8.7-.7c.2,0,.3.5.2,1Z"/><path class="cls-5" d="m79.2,675.6c-.1.5-.5.8-.7.7-.2,0-.3-.5-.2-1s.5-.8.7-.7c.2,0,.3.5.2,1Z"/><path class="cls-5" d="m80.8,675c-.1.5-.5.8-.7.7-.2,0-.3-.5-.2-1,.1-.5.5-.8.7-.7.2,0,.3.5.2,1Z"/><path class="cls-5" d="m80.5,676c-.1.5-.5.8-.7.7-.2,0-.3-.5-.2-1,.1-.5.5-.8.7-.7.2,0,.3.5.2,1Z"/><path class="cls-5" d="m82,675.3c-.1.5-.4.8-.7.7-.2,0-.3-.5-.2-1,.1-.5.4-.8.7-.7.2,0,.3.5.2,1Z"/><path class="cls-5" d="m81.7,676.4c-.1.5-.4.8-.7.7-.2,0-.3-.5-.2-1,.1-.5.5-.8.7-.7.2,0,.3.5.2,1Z"/><path class="cls-5" d="m83.3,675.7c-.1.5-.4.8-.7.7s-.3-.5-.2-1c.1-.5.4-.8.7-.7s.3.5.2,1h0Z"/><path class="cls-5" d="m82.9,676.7c-.1.5-.4.8-.7.7s-.3-.5-.2-1c.1-.5.4-.8.7-.7s.3.5.2,1Z"/><path class="cls-5" d="m84.5,676.1c-.1.5-.4.8-.7.7s-.3-.5-.2-1c.1-.5.4-.8.7-.7s.3.5.2,1Z"/><path class="cls-5" d="m84.2,677.1c-.1.5-.4.8-.7.7s-.3-.5-.2-1c.1-.5.4-.8.7-.7s.3.5.2,1Z"/><path class="cls-5" d="m85.7,676.4c-.1.5-.4.8-.7.7-.2,0-.3-.5-.2-1,.1-.5.4-.8.7-.7.2,0,.3.5.2,1Z"/><path class="cls-5" d="m85.4,677.5c-.1.5-.4.8-.7.7-.2,0-.3-.5-.2-1s.4-.8.7-.7.3.5.2,1h0Z"/><path class="cls-5" d="m87,676.8c-.1.5-.4.8-.7.7-.2,0-.3-.5-.2-1,.1-.5.4-.8.7-.7.2,0,.3.5.2,1Z"/><path class="cls-5" d="m86.7,677.8c-.1.5-.4.8-.7.7-.2,0-.3-.5-.2-1,.1-.5.4-.8.7-.7.2,0,.3.5.2,1Z"/><path class="cls-5" d="m88.2,677.1c-.1.5-.4.8-.7.8-.2,0-.3-.5-.2-1,.1-.5.4-.8.7-.8.2,0,.3.5.2,1Z"/><path class="cls-5" d="m87.9,678.2c-.1.5-.4.8-.7.7-.2,0-.3-.5-.2-1s.4-.8.7-.7c.2,0,.3.5.2,1Z"/><path class="cls-5" d="m89.4,677.5c-.1.5-.4.8-.7.8-.2,0-.3-.5-.2-1,.1-.5.4-.8.7-.8.2,0,.3.5.2,1Z"/><path class="cls-5" d="m89.2,678.5c-.1.5-.4.8-.7.8-.2,0-.3-.5-.2-1,.1-.5.4-.8.7-.8.2,0,.3.5.2,1Z"/><path class="cls-5" d="m90.7,677.8c-.1.5-.4.8-.7.8s-.3-.5-.2-1,.4-.8.7-.8.3.5.2,1Z"/><path class="cls-5" d="m90.4,678.8c-.1.5-.4.8-.7.8-.2,0-.3-.5-.2-1s.4-.8.7-.8c.2,0,.3.5.2,1Z"/><path class="cls-5" d="m91.9,678.2c-.1.5-.4.8-.7.8s-.3-.5-.2-1,.4-.8.7-.8.3.5.2,1Z"/><path class="cls-5" d="m91.6,679.2c-.1.5-.4.8-.7.8s-.3-.5-.2-1,.4-.8.7-.8.3.5.2,1Z"/><path class="cls-5" d="m93.2,678.5c-.1.5-.4.8-.7.8s-.3-.5-.2-1,.4-.8.7-.8c.2,0,.3.5.2,1Z"/><path class="cls-5" d="m92.9,679.5c-.1.5-.4.8-.7.8s-.3-.5-.2-1,.4-.8.7-.8.3.5.2,1Z"/><path class="cls-5" d="m94.4,678.8c-.1.5-.4.8-.7.8s-.3-.5-.2-1,.4-.8.7-.8.3.5.2,1Z"/><path class="cls-5" d="m94.1,679.9c-.1.5-.4.8-.7.8s-.3-.5-.2-1,.4-.8.7-.8.3.5.2,1Z"/><path class="cls-5" d="m95.7,679.1c-.1.5-.4.8-.7.8-.2,0-.3-.5-.2-1,.1-.5.4-.8.7-.8.2,0,.3.5.2,1h0Z"/><path class="cls-5" d="m95.4,680.2c-.1.5-.4.8-.7.8-.2,0-.3-.5-.2-1,.1-.5.4-.8.7-.8s.3.5.2,1Z"/><path class="cls-5" d="m96.9,679.5c-.1.5-.4.8-.7.8s-.3-.5-.2-1c.1-.5.4-.8.7-.8s.3.5.2,1Z"/><path class="cls-5" d="m96.6,680.5c-.1.5-.4.8-.7.8s-.3-.5-.2-1c.1-.5.4-.8.7-.8s.3.5.2,1Z"/><path class="cls-5" d="m98.2,679.8c-.1.5-.4.8-.7.8s-.3-.5-.2-1c.1-.5.4-.8.7-.8s.3.5.2,1Z"/><path class="cls-5" d="m97.9,680.8c-.1.5-.4.8-.7.8s-.3-.5-.2-1c.1-.5.4-.8.7-.8s.3.5.2,1Z"/><path class="cls-5" d="m99.4,680.1c-.1.5-.4.8-.7.8-.2,0-.3-.5-.2-1,.1-.5.4-.8.7-.8s.3.5.2,1Z"/><path class="cls-5" d="m99.1,681.1c-.1.5-.4.8-.7.8-.2,0-.3-.5-.2-1,.1-.5.4-.8.7-.8s.3.5.2,1Z"/><path class="cls-5" d="m100.6,680.4c-.1.5-.4.8-.7.8-.2,0-.3-.5-.2-1,.1-.5.4-.8.7-.8.2,0,.3.5.2,1Z"/><path class="cls-5" d="m100.4,681.5c-.1.5-.4.8-.7.8-.2,0-.3-.5-.2-1,.1-.5.4-.8.7-.8.2,0,.3.5.2,1Z"/><path class="cls-5" d="m101.9,680.7c-.1.5-.4.8-.6.8-.2,0-.3-.5-.2-1s.4-.8.6-.8c.2,0,.3.5.2,1Z"/><path class="cls-5" d="m101.6,681.8c-.1.5-.4.8-.7.8-.2,0-.3-.5-.2-1s.4-.8.7-.8c.2,0,.3.5.2,1Z"/><path class="cls-5" d="m103.1,681c-.1.5-.4.8-.6.8-.2,0-.3-.5-.2-1s.4-.8.6-.8c.2,0,.3.5.2,1Z"/><path class="cls-5" d="m102.9,682.1c-.1.5-.4.8-.6.8-.2,0-.3-.5-.2-1s.4-.8.6-.8c.2,0,.3.5.2,1Z"/><path class="cls-5" d="m104.4,681.3c-.1.5-.4.8-.6.8-.2,0-.3-.5-.2-1,.1-.5.4-.8.6-.8.2,0,.3.5.2,1Z"/><path class="cls-5" d="m104.2,682.4c-.1.5-.4.8-.6.8-.2,0-.3-.5-.2-1,.1-.5.4-.8.6-.8.2,0,.3.5.2,1Z"/><path class="cls-5" d="m105.7,681.6c-.1.5-.4.8-.6.8-.2,0-.3-.5-.2-1,.1-.5.4-.8.6-.8.2,0,.3.5.2,1Z"/><path class="cls-5" d="m105.4,682.7c-.1.5-.4.8-.6.8-.2,0-.4-.5-.2-1,.1-.5.4-.8.6-.8.2,0,.3.5.2,1Z"/><path class="cls-5" d="m106.9,681.9c-.1.5-.4.8-.6.8-.2,0-.4-.5-.2-1,.1-.5.4-.8.6-.8.2,0,.3.5.2,1Z"/><path class="cls-5" d="m106.7,683c-.1.5-.4.8-.6.8s-.4-.5-.2-1c.1-.5.4-.8.6-.8.2,0,.4.5.2,1Z"/><path class="cls-5" d="m108.2,682.2c-.1.5-.4.8-.6.8s-.4-.5-.2-1c.1-.5.4-.8.6-.8s.4.5.2,1Z"/><path class="cls-5" d="m107.9,683.3c-.1.5-.4.8-.6.8s-.4-.5-.2-1,.4-.8.6-.8.4.5.2,1Z"/><path class="cls-5" d="m109.4,682.5c-.1.5-.4.8-.6.8-.2,0-.4-.5-.2-1s.4-.8.6-.8c.2,0,.4.5.2,1Z"/><path class="cls-5" d="m109.2,683.6c-.1.5-.4.8-.6.8-.2,0-.4-.5-.2-1s.4-.8.6-.8c.2,0,.4.5.2,1Z"/><path class="cls-5" d="m110.7,682.8c-.1.5-.4.8-.6.8-.2,0-.4-.5-.2-1s.4-.8.6-.8c.2,0,.4.5.2,1Z"/><path class="cls-5" d="m110.4,683.8c-.1.5-.4.8-.6.8-.2,0-.4-.5-.2-1s.4-.8.6-.8c.2,0,.4.5.2,1Z"/><path class="cls-5" d="m111.9,683.1c-.1.5-.4.8-.6.8-.2,0-.4-.5-.2-1s.4-.8.6-.8c.2,0,.4.5.2,1Z"/><path class="cls-5" d="m111.7,684.1c-.1.5-.4.8-.6.8-.2,0-.4-.5-.2-1s.4-.8.6-.8c.2,0,.4.5.2,1Z"/><path class="cls-5" d="m113.2,683.4c-.1.5-.4.8-.6.8-.2,0-.4-.5-.2-1s.4-.8.6-.8c.2,0,.4.5.2,1Z"/><path class="cls-5" d="m112.9,684.4c-.1.5-.4.8-.6.8-.2,0-.4-.5-.2-1s.4-.8.6-.8c.2,0,.4.5.2,1Z"/><path class="cls-5" d="m114.4,683.6c-.1.5-.4.8-.6.8-.2,0-.4-.5-.2-1s.4-.8.6-.8c.2,0,.4.5.2,1Z"/><path class="cls-5" d="m114.2,684.7c-.1.5-.4.8-.6.8-.2,0-.4-.5-.2-1,.1-.5.4-.8.6-.8.2,0,.4.5.2,1Z"/><path class="cls-5" d="m115.7,683.9c-.1.5-.4.8-.6.8-.2,0-.4-.5-.2-1,.1-.5.4-.8.6-.8s.4.5.2,1Z"/><path class="cls-5" d="m115.5,685c-.1.5-.4.8-.6.8-.2,0-.4-.5-.2-1,.1-.5.4-.8.6-.8.2,0,.4.5.2,1Z"/><path class="cls-5" d="m117,684.2c-.1.5-.4.8-.6.8-.2,0-.4-.5-.2-1s.4-.8.6-.8c.2,0,.4.5.2,1h0Z"/><path class="cls-5" d="m116.7,685.3c-.1.5-.4.8-.6.8-.2,0-.4-.5-.2-1s.4-.8.6-.8c.2,0,.4.5.2,1h0Z"/><path class="cls-5" d="m118.2,684.5c-.1.5-.4.8-.6.8-.2,0-.4-.5-.2-1,.1-.5.4-.8.6-.8.2,0,.4.5.2,1Z"/><path class="cls-5" d="m118,685.5c-.1.5-.4.8-.6.8-.2,0-.4-.5-.2-1,.1-.5.4-.8.6-.8.2,0,.4.5.2,1Z"/><path class="cls-5" d="m119.5,684.7c-.1.5-.4.8-.6.8-.2,0-.4-.5-.2-1,.1-.5.4-.8.6-.8.2,0,.4.5.2,1Z"/><path class="cls-5" d="m119.3,685.8c-.1.5-.4.8-.6.8-.2,0-.4-.5-.2-1,.1-.5.4-.8.6-.8.2,0,.4.5.2,1Z"/><path class="cls-5" d="m120.7,685c-.1.5-.4.8-.6.8s-.4-.5-.3-1,.4-.8.6-.8c.2,0,.4.5.3,1Z"/><path class="cls-5" d="m120.5,686c-.1.5-.4.8-.6.8s-.4-.5-.3-1,.4-.8.6-.8c.2,0,.4.5.3,1Z"/><path class="cls-5" d="m122,685.3c-.1.5-.4.8-.6.8-.2,0-.4-.5-.3-1s.4-.8.6-.8c.2,0,.4.5.3,1Z"/><path class="cls-5" d="m121.8,686.3c-.1.5-.4.8-.6.8-.2,0-.4-.5-.3-1s.4-.8.6-.8c.2,0,.4.5.3,1Z"/><path class="cls-5" d="m123.3,685.5c-.1.5-.4.8-.6.8-.2,0-.4-.5-.3-1s.4-.8.6-.8c.2,0,.4.5.3,1Z"/><path class="cls-5" d="m123,686.6c-.1.5-.4.8-.6.8-.2,0-.4-.5-.3-1s.4-.8.6-.8c.2,0,.4.5.3,1Z"/><path class="cls-5" d="m124.5,685.8c-.1.5-.4.8-.6.8-.2,0-.4-.5-.3-1s.4-.8.6-.8.4.5.3,1Z"/><path class="cls-5" d="m124.3,686.8c-.1.5-.4.8-.6.8-.2,0-.4-.5-.3-1s.4-.8.6-.8c.2,0,.4.5.3,1Z"/><path class="cls-5" d="m125.8,686c-.1.5-.4.8-.6.8-.2,0-.4-.5-.3-1s.4-.8.6-.8c.2,0,.4.5.3,1h0Z"/><path class="cls-5" d="m125.6,687.1c-.1.5-.4.8-.6.8-.2,0-.4-.5-.3-1s.4-.8.6-.8c.2,0,.4.5.3,1h0Z"/><path class="cls-5" d="m127,686.3c-.1.5-.4.8-.6.8-.2,0-.4-.5-.3-1,.1-.5.4-.8.6-.8.2,0,.4.5.3,1Z"/><path class="cls-5" d="m126.8,687.3c-.1.5-.4.8-.6.8s-.4-.5-.3-1c.1-.5.4-.8.6-.8.2,0,.4.5.3,1Z"/><path class="cls-5" d="m128.3,686.5c-.1.5-.4.8-.6.8-.2,0-.4-.5-.3-1,.1-.5.4-.8.6-.8.2,0,.4.5.3,1Z"/><path class="cls-5" d="m128.1,687.6c-.1.5-.4.8-.6.8s-.4-.5-.3-1c.1-.5.4-.8.6-.8.2,0,.4.5.3,1Z"/><path class="cls-5" d="m129.6,686.8c0,.5-.4.8-.6.8s-.4-.5-.3-1c.1-.5.4-.8.6-.8s.4.5.3,1Z"/><path class="cls-5" d="m129.4,687.8c0,.5-.4.8-.6.8-.2,0-.4-.5-.3-1,.1-.5.4-.8.6-.8s.4.5.3,1Z"/><path class="cls-5" d="m130.8,687c0,.5-.4.8-.6.8s-.4-.5-.3-1c0-.5.4-.8.6-.8s.4.5.3,1Z"/><path class="cls-5" d="m130.6,688.1c0,.5-.4.8-.6.8-.2,0-.4-.5-.3-1,0-.5.4-.8.6-.8s.4.5.3,1Z"/><path class="cls-5" d="m132.1,687.2c0,.5-.4.8-.6.8s-.4-.5-.3-1,.4-.8.6-.8.4.5.3,1Z"/><path class="cls-5" d="m131.9,688.3c0,.5-.4.8-.6.8s-.4-.5-.3-1,.4-.8.6-.8.4.5.3,1Z"/><path class="cls-5" d="m133.4,687.5c0,.5-.4.8-.6.8-.2,0-.4-.5-.3-1s.4-.8.6-.8c.2,0,.4.5.3,1Z"/><path class="cls-5" d="m133.2,688.5c0,.5-.4.8-.6.8s-.4-.5-.3-1,.4-.8.6-.8c.2,0,.4.5.3,1Z"/><path class="cls-5" d="m134.6,687.7c0,.5-.4.8-.6.8-.2,0-.4-.5-.3-1s.4-.8.6-.8c.2,0,.4.5.3,1Z"/><path class="cls-5" d="m134.4,688.8c0,.5-.4.8-.6.8s-.4-.5-.3-1,.4-.8.6-.8c.2,0,.4.5.3,1Z"/><path class="cls-5" d="m135.9,688c0,.5-.4.8-.6.8s-.4-.5-.3-1c0-.5.4-.8.6-.8.2,0,.4.5.3,1Z"/><path class="cls-5" d="m135.7,689c0,.5-.4.8-.6.8s-.4-.5-.3-1c0-.5.4-.8.6-.8s.4.5.3,1Z"/><path class="cls-5" d="m137.2,688.2c0,.5-.4.8-.6.8-.2,0-.4-.5-.3-1s.4-.8.6-.8.4.5.3,1Z"/><path class="cls-5" d="m137,689.2c0,.5-.4.8-.6.8-.2,0-.4-.5-.3-1s.4-.8.6-.8c.2,0,.4.5.3,1h0Z"/><path class="cls-5" d="m138.4,688.4c0,.5-.4.8-.6.8s-.4-.5-.3-1c0-.5.4-.8.6-.8s.4.5.3,1Z"/><path class="cls-5" d="m138.3,689.5c0,.5-.4.8-.6.8-.2,0-.4-.5-.3-1,0-.5.4-.8.6-.8.2,0,.4.5.3,1Z"/><path class="cls-5" d="m139.7,688.6c0,.5-.4.8-.6.8s-.4-.5-.3-1c0-.5.4-.8.6-.8s.4.5.3,1Z"/><path class="cls-5" d="m139.5,689.7c0,.5-.4.8-.6.8s-.4-.5-.3-1c0-.5.4-.8.6-.8.2,0,.4.5.3,1Z"/><path class="cls-5" d="m141,688.8c0,.5-.4.9-.6.8s-.4-.5-.3-1c0-.5.4-.9.6-.8.2,0,.4.5.3,1Z"/><path class="cls-5" d="m140.8,689.9c0,.5-.4.9-.6.8-.2,0-.4-.5-.3-1,0-.5.4-.8.6-.8s.4.5.3,1Z"/><path class="cls-5" d="m142.2,689.1c0,.5-.4.9-.6.8s-.4-.5-.3-1c0-.5.4-.9.6-.8.2,0,.4.5.3,1Z"/><path class="cls-5" d="m142.1,690.1c0,.5-.4.9-.6.8-.2,0-.4-.5-.3-1,0-.5.4-.9.6-.8.2,0,.4.5.3,1Z"/><path class="cls-5" d="m143.5,689.3c0,.5-.4.9-.6.8-.2,0-.4-.5-.3-1s.4-.9.6-.8c.2,0,.4.5.3,1Z"/><path class="cls-5" d="m143.3,690.3c0,.5-.4.9-.6.8-.2,0-.4-.5-.3-1,0-.5.4-.9.6-.8.2,0,.4.5.3,1Z"/><path class="cls-5" d="m144.8,689.5c0,.5-.4.9-.6.8s-.4-.5-.3-1,.4-.9.6-.8c.2,0,.4.5.3,1Z"/><path class="cls-5" d="m144.6,690.6c0,.5-.4.9-.6.8-.2,0-.4-.5-.3-1s.4-.9.6-.8c.2,0,.4.5.3,1Z"/><path class="cls-5" d="m146.1,689.7c0,.5-.4.9-.6.8-.2,0-.4-.5-.3-1,0-.5.4-.9.6-.8.2,0,.4.5.3,1Z"/><path class="cls-5" d="m145.9,690.8c0,.5-.4.9-.6.8-.2,0-.4-.5-.3-1,0-.5.4-.9.6-.8.2,0,.4.5.3,1Z"/><path class="cls-5" d="m147.3,689.9c0,.5-.3.9-.6.8s-.4-.5-.3-1c0-.5.3-.9.6-.8s.4.5.3,1Z"/><path class="cls-5" d="m147.2,691c0,.5-.3.9-.6.8s-.4-.5-.3-1c0-.5.4-.9.6-.8.2,0,.4.5.3,1Z"/><path class="cls-5" d="m148.6,690.1c0,.5-.3.9-.6.8s-.4-.5-.3-1c0-.5.3-.9.6-.8s.4.5.3,1Z"/><path class="cls-5" d="m148.4,691.2c0,.5-.3.9-.6.8s-.4-.5-.3-1c0-.5.3-.9.6-.8s.4.5.3,1Z"/><path class="cls-5" d="m149.9,690.3c0,.5-.3.9-.6.8s-.4-.5-.3-1c0-.5.3-.9.6-.8s.4.5.3,1Z"/><path class="cls-5" d="m149.7,691.4c0,.5-.3.9-.6.8s-.4-.5-.3-1c0-.5.3-.9.6-.8s.4.5.3,1Z"/><path class="cls-5" d="m151.1,690.5c0,.5-.3.9-.6.8-.2,0-.4-.5-.3-1,0-.5.3-.9.6-.8.2,0,.4.5.3,1Z"/><path class="cls-5" d="m151,691.6c0,.5-.3.9-.6.8s-.4-.5-.3-1c0-.5.3-.9.6-.8s.4.5.3,1Z"/><path class="cls-5" d="m152.4,690.7c0,.5-.3.9-.6.8-.2,0-.4-.5-.3-1s.3-.9.6-.8c.2,0,.4.5.3,1Z"/><path class="cls-5" d="m152.3,691.8c0,.5-.3.9-.6.8-.2,0-.4-.5-.3-1,0-.5.3-.9.6-.8.2,0,.4.5.3,1Z"/><path class="cls-5" d="m153.7,690.9c0,.5-.3.9-.6.8s-.4-.5-.3-1c0-.5.3-.9.6-.8.2,0,.4.5.3,1Z"/><path class="cls-5" d="m153.5,692c0,.5-.3.9-.6.8-.2,0-.4-.5-.3-1,0-.5.3-.9.6-.8.2,0,.4.5.3,1Z"/><path class="cls-5" d="m155,691.1c0,.5-.3.9-.6.8s-.4-.5-.3-1c0-.5.3-.9.6-.8s.4.5.3,1Z"/><path class="cls-5" d="m154.8,692.2c0,.5-.3.9-.6.8s-.4-.5-.3-1c0-.5.3-.9.6-.8s.4.5.3,1Z"/><path class="cls-5" d="m156.2,691.3c0,.5-.3.9-.6.8s-.4-.5-.3-1c0-.5.3-.9.6-.8s.4.5.3,1Z"/><path class="cls-5" d="m156.1,692.4c0,.5-.3.9-.6.8s-.4-.5-.3-1c0-.5.3-.9.6-.8s.4.5.3,1Z"/><path class="cls-5" d="m157.5,691.5c0,.5-.3.9-.6.8-.2,0-.4-.5-.3-1,0-.5.3-.9.6-.8.2,0,.4.5.3,1Z"/><path class="cls-5" d="m157.4,692.5c0,.5-.3.9-.6.8-.2,0-.4-.5-.3-1,0-.5.3-.9.6-.8.2,0,.4.5.3,1Z"/><path class="cls-5" d="m158.8,691.7c0,.5-.3.9-.6.8-.2,0-.4-.5-.3-1,0-.5.3-.9.6-.8.2,0,.4.5.3,1Z"/><path class="cls-5" d="m158.6,692.7c0,.5-.3.9-.6.8-.2,0-.4-.5-.3-1,0-.5.3-.9.6-.8.2,0,.4.5.3,1Z"/><path class="cls-5" d="m160.1,691.8c0,.5-.3.9-.6.8-.2,0-.4-.5-.3-1,0-.5.3-.9.6-.8.2,0,.4.5.3,1Z"/><path class="cls-5" d="m159.9,692.9c0,.5-.3.9-.6.8-.2,0-.4-.5-.3-1,0-.5.3-.9.6-.8.2,0,.4.5.3,1Z"/><path class="cls-5" d="m161.3,692c0,.5-.3.9-.6.8-.2,0-.4-.5-.3-1,0-.5.3-.9.6-.8.2,0,.4.5.3,1Z"/><path class="cls-5" d="m161.2,693.1c0,.5-.3.9-.6.8-.2,0-.4-.5-.3-1,0-.5.3-.9.6-.8.2,0,.4.5.3,1Z"/><path class="cls-5" d="m162.6,692.2c0,.5-.3.9-.6.8-.2,0-.4-.5-.3-1,0-.5.3-.9.6-.8.2,0,.4.5.3,1Z"/><path class="cls-5" d="m162.5,693.2c0,.5-.3.9-.6.8-.2,0-.4-.5-.3-1,0-.5.3-.9.6-.8.2,0,.4.5.3,1Z"/><path class="cls-5" d="m163.9,692.4c0,.5-.3.9-.6.8-.2,0-.4-.5-.3-1,0-.5.3-.9.6-.8.2,0,.4.5.3,1Z"/><path class="cls-5" d="m163.7,693.4c0,.5-.3.9-.6.8-.2,0-.4-.5-.3-1s.3-.9.6-.8c.2,0,.4.5.3,1Z"/><path class="cls-5" d="m165.2,692.5c0,.5-.3.9-.6.8-.2,0-.4-.5-.3-1,0-.5.3-.9.6-.8.2,0,.4.5.3,1Z"/><path class="cls-5" d="m165,693.6c0,.5-.3.9-.6.8-.2,0-.4-.5-.3-1,0-.5.3-.9.6-.8.2,0,.4.5.3,1Z"/><path class="cls-5" d="m166.4,692.7c0,.5-.3.9-.6.8s-.4-.5-.3-1c0-.5.3-.9.6-.8.2,0,.4.5.3,1Z"/><path class="cls-5" d="m166.3,693.8c0,.5-.3.9-.6.8-.2,0-.4-.5-.3-1,0-.5.3-.9.6-.8.2,0,.4.5.3,1Z"/><path class="cls-5" d="m167.7,692.9c0,.5-.3.9-.6.8-.2,0-.4-.5-.3-1,0-.5.3-.9.6-.8.2,0,.4.5.3,1Z"/><path class="cls-5" d="m167.6,693.9c0,.5-.3.9-.6.8-.2,0-.4-.5-.3-1,0-.5.3-.9.6-.8.2,0,.4.5.3,1Z"/><path class="cls-5" d="m169,693c0,.5-.3.9-.6.8-.2,0-.4-.5-.3-1,0-.5.3-.9.6-.8.2,0,.4.5.3,1Z"/><path class="cls-5" d="m168.9,694.1c0,.5-.3.9-.6.8-.2,0-.4-.5-.3-1,0-.5.3-.9.6-.8.2,0,.4.5.3,1Z"/><path class="cls-5" d="m170.3,693.2c0,.5-.3.9-.6.8-.2,0-.4-.5-.3-1,0-.5.3-.9.6-.8.2,0,.4.5.3,1Z"/><path class="cls-5" d="m170.1,694.3c0,.5-.3.9-.6.8-.2,0-.4-.5-.3-1,0-.5.3-.9.6-.8.2,0,.4.5.3,1Z"/><path class="cls-5" d="m171.6,693.3c0,.5-.3.9-.6.8-.2,0-.4-.5-.3-1,0-.5.3-.9.6-.8.2,0,.4.5.3,1Z"/><path class="cls-5" d="m171.4,694.4c0,.5-.3.9-.6.8-.2,0-.4-.5-.3-1,0-.5.3-.9.6-.8.2,0,.4.5.3,1Z"/><path class="cls-5" d="m172.8,693.5c0,.5-.3.9-.6.8-.2,0-.4-.5-.3-1,0-.5.3-.9.6-.8.2,0,.4.5.3,1Z"/><path class="cls-5" d="m172.7,694.6c0,.5-.3.9-.6.8-.2,0-.4-.5-.3-1,0-.5.3-.9.6-.8.2,0,.4.5.3,1Z"/><path class="cls-5" d="m174.1,693.7c0,.5-.3.9-.6.8-.2,0-.4-.5-.3-1s.3-.9.6-.8c.2,0,.4.5.3,1Z"/><path class="cls-5" d="m174,694.7c0,.5-.3.9-.6.8-.2,0-.4-.5-.3-1,0-.5.3-.9.6-.8s.4.5.3,1Z"/><path class="cls-5" d="m175.4,693.8c0,.5-.3.9-.6.8-.2,0-.4-.5-.3-1,0-.5.3-.9.6-.8.2,0,.4.5.3,1Z"/><path class="cls-5" d="m175.3,694.9c0,.5-.3.9-.6.8-.2,0-.4-.5-.3-1,0-.5.3-.9.6-.8.2,0,.4.5.3,1Z"/><path class="cls-5" d="m176.7,694c0,.5-.3.9-.6.8s-.4-.5-.3-1c0-.5.3-.9.6-.8.2,0,.4.5.3,1Z"/><path class="cls-5" d="m176.5,695c0,.5-.3.9-.6.8-.2,0-.4-.5-.3-1s.3-.9.6-.8.4.5.3,1Z"/><path class="cls-5" d="m177.9,694.1c0,.5-.3.9-.6.8-.2,0-.4-.5-.4-1,0-.5.3-.9.6-.8.2,0,.4.5.4,1Z"/><path class="cls-5" d="m177.8,695.2c0,.5-.3.9-.6.8-.2,0-.4-.5-.4-1,0-.5.3-.9.6-.8.2,0,.4.5.4,1Z"/><path class="cls-5" d="m179.2,694.3c0,.5-.3.9-.6.8-.2,0-.4-.5-.4-1,0-.5.3-.9.6-.8.2,0,.4.5.4,1Z"/><path class="cls-5" d="m179.1,695.3c0,.5-.3.9-.6.8-.2,0-.4-.5-.4-1,0-.5.3-.9.6-.8.2,0,.4.5.4,1Z"/><path class="cls-5" d="m180.5,694.4c0,.5-.3.9-.6.8s-.4-.5-.4-1c0-.5.3-.9.6-.8.2,0,.4.5.4,1h0Z"/><path class="cls-5" d="m180.4,695.5c0,.5-.3.9-.6.8s-.4-.5-.4-1c0-.5.3-.9.6-.8.2,0,.4.5.4,1h0Z"/><path class="cls-5" d="m181.8,694.5c0,.5-.3.9-.6.8s-.4-.5-.4-.9c0-.5.3-.9.6-.8.2,0,.4.5.4.9Z"/><path class="cls-5" d="m181.7,695.6c0,.5-.3.9-.6.8-.2,0-.4-.5-.4-.9,0-.5.3-.9.6-.8.2,0,.4.5.4.9Z"/><path class="cls-5" d="m183.1,694.7c0,.5-.3.9-.5.8-.2,0-.4-.5-.4-.9,0-.5.3-.9.5-.8.2,0,.4.5.4.9Z"/><path class="cls-5" d="m183,695.7c0,.5-.3.9-.5.8-.2,0-.4-.5-.4-.9,0-.5.3-.9.5-.8.2,0,.4.5.4.9Z"/><path class="cls-5" d="m184.3,694.8c0,.5-.3.9-.5.8s-.4-.5-.4-.9c0-.5.3-.9.5-.8.2,0,.4.5.4.9Z"/><path class="cls-5" d="m184.2,695.9c0,.5-.3.9-.5.8s-.4-.5-.4-.9c0-.5.3-.9.5-.8.2,0,.4.5.4.9Z"/><path class="cls-5" d="m185.6,694.9c0,.5-.3.9-.5.8-.2,0-.4-.5-.4-.9,0-.5.3-.9.5-.8.2,0,.4.5.4.9Z"/><path class="cls-5" d="m185.5,696c0,.5-.3.9-.5.8s-.4-.5-.4-.9c0-.5.3-.9.5-.8.2,0,.4.5.4.9Z"/><path class="cls-5" d="m186.9,695.1c0,.5-.3.9-.5.8-.2,0-.4-.5-.4-.9,0-.5.3-.9.5-.8.2,0,.4.5.4.9Z"/><path class="cls-5" d="m186.8,696.1c0,.5-.3.9-.5.8-.2,0-.4-.5-.4-.9,0-.5.3-.9.5-.8.2,0,.4.5.4.9Z"/><path class="cls-5" d="m188.2,695.2c0,.5-.3.9-.5.8-.2,0-.4-.5-.4-.9,0-.5.3-.9.5-.8.2,0,.4.5.4.9Z"/><path class="cls-5" d="m188.1,696.2c0,.5-.3.9-.5.8-.2,0-.4-.5-.4-.9,0-.5.3-.9.5-.8.2,0,.4.5.4.9Z"/><path class="cls-5" d="m189.5,695.3c0,.5-.3.9-.5.8-.2,0-.4-.5-.4-.9,0-.5.3-.9.5-.8.2,0,.4.5.4.9Z"/><path class="cls-5" d="m189.4,696.4c0,.5-.3.9-.5.8s-.4-.5-.4-.9c0-.5.3-.9.5-.8.2,0,.4.5.4.9Z"/><path class="cls-5" d="m190.8,695.4c0,.5-.3.9-.5.8-.2,0-.4-.5-.4-.9,0-.5.3-.9.5-.8.2,0,.4.5.4.9Z"/><path class="cls-5" d="m190.7,696.5c0,.5-.3.9-.5.8-.2,0-.4-.5-.4-.9,0-.5.3-.9.5-.8.2,0,.4.5.4.9Z"/><path class="cls-5" d="m192,695.6c0,.5-.3.9-.5.8-.2,0-.4-.5-.4-.9,0-.5.3-.9.5-.8.2,0,.4.5.4.9Z"/><path class="cls-5" d="m191.9,696.6c0,.5-.3.9-.5.8-.2,0-.4-.5-.4-.9,0-.5.3-.9.5-.8.2,0,.4.5.4.9Z"/><path class="cls-5" d="m193.3,695.7c0,.5-.3.9-.5.9s-.4-.5-.4-.9c0-.5.3-.9.5-.8s.4.4.4.9h0Z"/><path class="cls-5" d="m193.2,696.8c0,.5-.3.9-.5.9s-.4-.5-.4-.9c0-.5.3-.9.5-.8s.4.4.4.9h0Z"/><path class="cls-5" d="m194.6,695.8c0,.5-.3.9-.5.9s-.4-.4-.4-.9c0-.5.3-.9.5-.9s.4.4.4.9Z"/><path class="cls-5" d="m194.5,696.9c0,.5-.3.9-.5.9s-.4-.4-.4-.9c0-.5.3-.9.5-.9s.4.4.4.9Z"/><path class="cls-5" d="m195.9,695.9c0,.5-.3.9-.5.9s-.4-.4-.4-.9c0-.5.3-.9.5-.9s.4.4.4.9Z"/><path class="cls-5" d="m195.8,697c0,.5-.3.9-.5.9s-.4-.4-.4-.9c0-.5.3-.9.5-.9s.4.4.4.9Z"/><path class="cls-5" d="m197.2,696c0,.5-.3.9-.5.9s-.4-.4-.4-.9c0-.5.3-.9.5-.9s.4.4.4.9Z"/><path class="cls-5" d="m197.1,697.1c0,.5-.3.9-.5.9s-.4-.4-.4-.9c0-.5.3-.9.5-.9s.4.4.4.9Z"/><path class="cls-5" d="m198.5,696.1c0,.5-.3.9-.5.9s-.4-.4-.4-.9c0-.5.3-.9.5-.9.2,0,.4.4.4.9Z"/><path class="cls-5" d="m198.4,697.2c0,.5-.3.9-.5.9-.2,0-.4-.4-.4-.9,0-.5.3-.9.5-.9.2,0,.4.4.4.9Z"/><path class="cls-5" d="m199.7,696.2c0,.5-.3.9-.5.9s-.4-.4-.4-.9.3-.9.5-.9.4.4.4.9Z"/><path class="cls-5" d="m199.7,697.3c0,.5-.3.9-.5.9s-.4-.4-.4-.9.3-.9.5-.9.4.4.4.9Z"/><path class="cls-5" d="m201,696.3c0,.5-.3.9-.5.9s-.4-.4-.4-.9.3-.9.5-.9.4.4.4.9Z"/><path class="cls-5" d="m200.9,697.4c0,.5-.3.9-.5.9s-.4-.4-.4-.9.3-.9.5-.9.4.4.4.9Z"/><path class="cls-5" d="m202.3,696.4c0,.5-.3.9-.5.9s-.4-.4-.4-.9.3-.9.5-.9.4.4.4.9Z"/><path class="cls-5" d="m202.2,697.5c0,.5-.3.9-.5.9s-.4-.4-.4-.9.3-.9.5-.9.4.4.4.9Z"/><path class="cls-5" d="m203.6,696.5c0,.5-.3.9-.5.9s-.4-.4-.4-.9.3-.9.5-.9.4.4.4.9Z"/><path class="cls-5" d="m203.5,697.6c0,.5-.3.9-.5.9s-.4-.4-.4-.9.3-.9.5-.9.4.4.4.9Z"/><path class="cls-5" d="m204.9,696.6c0,.5-.3.9-.5.9s-.4-.4-.4-.9.3-.9.5-.9.4.4.4.9Z"/><path class="cls-5" d="m204.8,697.7c0,.5-.3.9-.5.9s-.4-.4-.4-.9.3-.9.5-.9.4.4.4.9Z"/><path class="cls-5" d="m206.2,696.7c0,.5-.3.9-.5.9-.2,0-.4-.4-.4-.9s.3-.9.5-.9c.2,0,.4.4.4.9Z"/><path class="cls-5" d="m206.1,697.8c0,.5-.3.9-.5.9-.2,0-.4-.4-.4-.9,0-.5.3-.9.5-.9.2,0,.4.4.4.9Z"/><path class="cls-5" d="m207.4,696.8c0,.5-.3.9-.5.9s-.4-.4-.4-.9c0-.5.3-.9.5-.9.2,0,.4.4.4.9Z"/><path class="cls-5" d="m207.4,697.9c0,.5-.3.9-.5.9s-.4-.4-.4-.9c0-.5.3-.9.5-.9.2,0,.4.4.4.9Z"/><path class="cls-5" d="m208.7,696.9c0,.5-.3.9-.5.9-.2,0-.4-.4-.4-.9s.3-.9.5-.9c.2,0,.4.4.4.9Z"/><path class="cls-5" d="m208.7,698c0,.5-.3.9-.5.9-.2,0-.4-.4-.4-.9s.3-.9.5-.9c.2,0,.4.4.4.9Z"/><path class="cls-5" d="m210,697c0,.5-.3.9-.5.9s-.4-.4-.4-.9.3-.9.5-.9c.2,0,.4.4.4.9Z"/><path class="cls-5" d="m209.9,698c0,.5-.3.9-.5.9s-.4-.4-.4-.9.3-.9.5-.9c.2,0,.4.4.4.9Z"/><path class="cls-5" d="m211.3,697c0,.5-.3.9-.5.9-.2,0-.4-.4-.4-.9s.3-.9.5-.9c.2,0,.4.4.4.9Z"/><path class="cls-5" d="m211.2,698.1c0,.5-.3.9-.5.9-.2,0-.4-.4-.4-.9s.3-.9.5-.9.4.4.4.9Z"/><path class="cls-5" d="m212.6,697.1c0,.5-.3.9-.5.9s-.4-.4-.4-.9.3-.9.5-.9.4.4.4.9Z"/><path class="cls-5" d="m212.5,698.2c0,.5-.3.9-.5.9s-.4-.4-.4-.9c0-.5.3-.9.5-.9s.4.4.4.9Z"/><path class="cls-5" d="m213.9,697.2c0,.5-.3.9-.5.9-.2,0-.4-.4-.4-.9s.3-.9.5-.9c.2,0,.4.4.4.9Z"/><path class="cls-5" d="m213.8,698.3c0,.5-.3.9-.5.9-.2,0-.4-.4-.4-.9s.3-.9.5-.9c.2,0,.4.4.4.9Z"/><path class="cls-5" d="m215.2,697.3c0,.5-.2.9-.5.9-.2,0-.4-.4-.4-.9s.2-.9.5-.9c.2,0,.4.4.4.9Z"/><path class="cls-5" d="m215.1,698.3c0,.5-.2.9-.5.9-.2,0-.4-.4-.4-.9s.3-.9.5-.9c.2,0,.4.4.4.9Z"/><path class="cls-5" d="m216.4,697.4c0,.5-.2.9-.5.9-.2,0-.4-.4-.4-.9s.2-.9.5-.9c.2,0,.4.4.4.9Z"/><path class="cls-5" d="m216.4,698.4c0,.5-.2.9-.5.9s-.4-.4-.4-.9.2-.9.5-.9c.2,0,.4.4.4.9Z"/><path class="cls-5" d="m217.7,697.4c0,.5-.2.9-.5.9s-.4-.4-.4-.9.2-.9.5-.9c.2,0,.4.4.4.9Z"/><path class="cls-5" d="m217.7,698.5c0,.5-.2.9-.5.9-.2,0-.4-.4-.4-.9s.2-.9.5-.9.4.4.4.9Z"/><path class="cls-5" d="m219,697.5c0,.5-.2.9-.5.9-.2,0-.4-.4-.4-.9s.2-.9.5-.9c.2,0,.4.4.4.9Z"/><path class="cls-5" d="m219,698.6c0,.5-.2.9-.5.9-.2,0-.4-.4-.4-.9s.2-.9.5-.9c.2,0,.4.4.4.9Z"/><path class="cls-5" d="m220.3,697.6c0,.5-.2.9-.5.9s-.4-.4-.4-.9.2-.9.5-.9c.2,0,.4.4.4.9Z"/><path class="cls-5" d="m220.2,698.7c0,.5-.2.9-.5.9-.2,0-.4-.4-.4-.9s.2-.9.5-.9c.2,0,.4.4.4.9Z"/><path class="cls-5" d="m221.6,697.6c0,.5-.2.9-.5.9-.2,0-.4-.4-.4-.9,0-.5.2-.9.5-.9.2,0,.4.4.4.9Z"/><path class="cls-5" d="m221.5,698.7c0,.5-.2.9-.5.9-.2,0-.4-.4-.4-.9,0-.5.2-.9.5-.9.2,0,.4.4.4.9Z"/><path class="cls-5" d="m222.9,697.7c0,.5-.2.9-.5.9-.2,0-.4-.4-.4-.9s.2-.9.5-.9c.2,0,.4.4.4.9Z"/><path class="cls-5" d="m222.8,698.8c0,.5-.2.9-.5.9s-.4-.4-.4-.9.2-.9.5-.9c.2,0,.4.4.4.9Z"/><path class="cls-5" d="m224.2,697.8c0,.5-.2.9-.5.9-.2,0-.4-.4-.4-.9s.2-.9.5-.9c.2,0,.4.4.4.9Z"/><path class="cls-5" d="m224.1,698.8c0,.5-.2.9-.5.9-.2,0-.4-.4-.4-.9s.2-.9.5-.9c.2,0,.4.4.4.9Z"/><path class="cls-5" d="m225.4,697.8c0,.5-.2.9-.5.9-.2,0-.4-.4-.4-.9s.2-.9.5-.9c.2,0,.4.4.4.9Z"/><path class="cls-5" d="m225.4,698.9c0,.5-.2.9-.5.9-.2,0-.4-.4-.4-.9s.2-.9.5-.9c.2,0,.4.4.4.9Z"/><path class="cls-5" d="m226.7,697.9c0,.5-.2.9-.5.9-.2,0-.4-.4-.4-.9s.2-.9.5-.9c.2,0,.4.4.4.9Z"/><path class="cls-5" d="m226.7,698.9c0,.5-.2.9-.5.9-.2,0-.4-.4-.4-.9s.2-.9.5-.9c.2,0,.4.4.4.9Z"/><path class="cls-5" d="m228,697.9c0,.5-.2.9-.5.9-.2,0-.4-.4-.4-.9s.2-.9.5-.9c.2,0,.4.4.4.9Z"/><path class="cls-5" d="m228,699c0,.5-.2.9-.5.9-.2,0-.4-.4-.4-.9,0-.5.2-.9.5-.9.2,0,.4.4.4.9Z"/><path class="cls-5" d="m229.3,698c0,.5-.2.9-.5.9-.2,0-.4-.4-.4-.9s.2-.9.5-.9c.2,0,.4.4.4.9Z"/><path class="cls-5" d="m229.3,699c0,.5-.2.9-.5.9s-.4-.4-.4-.9.2-.9.5-.9c.2,0,.4.4.4.9Z"/><path class="cls-5" d="m230.6,698c0,.5-.2.9-.5.9-.2,0-.4-.4-.4-.9s.2-.9.5-.9c.2,0,.4.4.4.9Z"/><path class="cls-5" d="m230.6,699.1c0,.5-.2.9-.5.9-.2,0-.4-.4-.4-.9s.2-.9.5-.9c.2,0,.4.4.4.9Z"/><path class="cls-5" d="m231.9,698.1c0,.5-.2.9-.5.9-.2,0-.4-.4-.4-.9s.2-.9.5-.9c.2,0,.4.4.4.9Z"/><path class="cls-5" d="m231.8,699.1c0,.5-.2.9-.5.9-.2,0-.4-.4-.4-.9s.2-.9.5-.9c.2,0,.4.4.4.9Z"/><path class="cls-5" d="m233.2,698.1c0,.5-.2.9-.5.9-.2,0-.4-.4-.4-.9s.2-.9.5-.9c.2,0,.4.4.4.9Z"/><path class="cls-5" d="m233.1,699.2c0,.5-.2.9-.5.9-.2,0-.4-.4-.4-.9s.2-.9.5-.9c.2,0,.4.4.4.9Z"/><path class="cls-5" d="m234.5,698.2c0,.5-.2.9-.5.9-.2,0-.4-.4-.4-.9s.2-.9.5-.9c.2,0,.4.4.4.9Z"/><path class="cls-5" d="m234.4,699.2c0,.5-.2.9-.5.9-.2,0-.4-.4-.4-.9s.2-.9.5-.9c.2,0,.4.4.4.9Z"/><path class="cls-5" d="m235.7,698.2c0,.5-.2.9-.5.9-.2,0-.4-.4-.4-.9,0-.5.2-.9.5-.9s.4.4.4.9h0Z"/><path class="cls-5" d="m235.7,699.3c0,.5-.2.9-.5.9-.2,0-.4-.4-.4-.9,0-.5.2-.9.5-.9s.4.4.4.9h0Z"/><path class="cls-5" d="m237,698.2c0,.5-.2.9-.5.9-.2,0-.4-.4-.4-.9s.2-.9.5-.9c.2,0,.4.4.4.9Z"/><path class="cls-5" d="m237,699.3c0,.5-.2.9-.5.9-.2,0-.4-.4-.4-.9s.2-.9.5-.9c.2,0,.4.4.4.9Z"/><path class="cls-5" d="m238.3,698.2c0,.5-.2.9-.5.9-.2,0-.4-.4-.4-.9s.2-.9.5-.9c.2,0,.4.4.4.9Z"/><path class="cls-5" d="m238.3,699.3c0,.5-.2.9-.5.9-.2,0-.4-.4-.4-.9s.2-.9.5-.9c.2,0,.4.4.4.9Z"/><path class="cls-5" d="m239.6,698.3c0,.5-.2.9-.5.9-.2,0-.4-.4-.4-.9s.2-.9.5-.9.4.4.4.9Z"/><path class="cls-5" d="m239.6,699.3c0,.5-.2.9-.5.9-.2,0-.4-.4-.4-.9s.2-.9.5-.9c.2,0,.4.4.4.9Z"/><path class="cls-5" d="m240.9,698.3c0,.5-.2.9-.5.9-.2,0-.4-.4-.4-.9s.2-.9.5-.9.4.4.4.9Z"/><path class="cls-5" d="m240.9,699.4c0,.5-.2.9-.5.9-.2,0-.4-.4-.4-.9s.2-.9.5-.9c.2,0,.4.4.4.9Z"/><path class="cls-5" d="m242.2,698.3c0,.5-.2.9-.5.9-.2,0-.4-.4-.4-.9s.2-.9.5-.9.4.4.4.9Z"/><path class="cls-5" d="m242.2,699.4c0,.5-.2.9-.5.9-.2,0-.4-.4-.4-.9s.2-.9.5-.9c.2,0,.4.4.4.9Z"/><path class="cls-5" d="m243.5,698.3c0,.5-.2.9-.5.9-.2,0-.4-.4-.4-.9,0-.5.2-.9.5-.9.2,0,.4.4.4.9Z"/><path class="cls-5" d="m243.5,699.4c0,.5-.2.9-.5.9s-.4-.4-.4-.9.2-.9.5-.9c.2,0,.4.4.4.9h0Z"/><path class="cls-5" d="m244.8,698.4c0,.5-.2.9-.5.9-.2,0-.4-.4-.4-.9s.2-.9.5-.9c.2,0,.4.4.4.9h0Z"/><path class="cls-5" d="m244.7,699.4c0,.5-.2.9-.5.9-.2,0-.5-.4-.4-.9,0-.5.2-.9.5-.9.2,0,.4.4.4.9Z"/><path class="cls-5" d="m246,698.4c0,.5-.2.9-.5.9-.2,0-.5-.4-.4-.9,0-.5.2-.9.5-.9.2,0,.4.4.4.9Z"/><path class="cls-5" d="m246,699.5c0,.5-.2.9-.5.9s-.5-.4-.4-.9c0-.5.2-.9.5-.9s.4.4.4.9Z"/><path class="cls-5" d="m247.3,698.4c0,.5-.2.9-.5.9-.2,0-.5-.4-.4-.9,0-.5.2-.9.5-.9.2,0,.4.4.4.9Z"/><path class="cls-5" d="m247.3,699.5c0,.5-.2.9-.5.9-.2,0-.5-.4-.4-.9,0-.5.2-.9.5-.9s.5.4.4.9Z"/><path class="cls-5" d="m248.6,698.4c0,.5-.2.9-.5.9-.2,0-.5-.4-.4-.9,0-.5.2-.9.5-.9.2,0,.5.4.4.9Z"/><path class="cls-5" d="m248.6,699.5c0,.5-.2.9-.5.9-.2,0-.5-.4-.4-.9,0-.5.2-.9.5-.9.2,0,.5.4.4.9Z"/><path class="cls-5" d="m249.9,698.5c0,.5-.2.9-.5.9-.2,0-.5-.4-.4-.9,0-.5.2-.9.5-.9.2,0,.5.4.4.9Z"/><path class="cls-5" d="m249.9,699.5c0,.5-.2.9-.5.9-.2,0-.5-.4-.4-.9,0-.5.2-.9.5-.9.2,0,.5.4.4.9Z"/><path class="cls-5" d="m251.2,698.5c0,.5-.2.9-.5.9s-.5-.4-.4-.9c0-.5.2-.9.5-.9s.5.4.4.9Z"/><path class="cls-5" d="m251.2,699.5c0,.5-.2.9-.5.9s-.5-.4-.5-.9.2-.9.5-.9.5.4.5.9Z"/><path class="cls-5" d="m252.5,698.5c0,.5-.2.9-.5.9s-.5-.4-.5-.9.2-.9.5-.9.5.4.5.9Z"/><path class="cls-5" d="m252.5,699.5c0,.5-.2.9-.5.9s-.5-.4-.5-.9.2-.9.5-.9.5.4.5.9Z"/><path class="cls-5" d="m253.8,698.5c0,.5-.2.9-.5.9s-.5-.4-.5-.9.2-.9.5-.9.5.4.5.9Z"/><path class="cls-5" d="m253.8,699.5c0,.5-.2.9-.5.9s-.5-.4-.5-.9.2-.9.5-.9.5.4.5.9Z"/><path class="cls-5" d="m255.1,698.4c0,.5-.2.9-.5.9s-.5-.4-.5-.9.2-.9.5-.9.5.4.5.9Z"/><path class="cls-5" d="m255.1,699.5c0,.5-.2.9-.5.9s-.5-.4-.5-.9.2-.9.5-.9.5.4.5.9Z"/><path class="cls-5" d="m256.3,698.4c0,.5-.2.9-.5.9s-.5-.4-.5-.9.2-.9.5-.9.5.4.5.9Z"/><path class="cls-5" d="m256.4,699.5c0,.5-.2.9-.5.9s-.5-.4-.5-.9.2-.9.5-.9.5.4.5.9Z"/><path class="cls-5" d="m257.6,698.4c0,.5-.2.9-.5.9s-.5-.4-.5-.9.2-.9.5-.9.5.4.5.9Z"/><path class="cls-5" d="m257.6,699.5c0,.5-.2.9-.5.9s-.5-.4-.5-.9.2-.9.5-.9.5.4.5.9Z"/><path class="cls-5" d="m258.9,698.4c0,.5-.2.9-.5.9s-.5-.4-.5-.9.2-.9.5-.9.5.4.5.9Z"/><path class="cls-5" d="m258.9,699.5c0,.5-.2.9-.5.9s-.5-.4-.5-.9c0-.5.2-.9.5-.9s.5.4.5.9Z"/><path class="cls-5" d="m260.2,698.4c0,.5-.2.9-.5.9s-.5-.4-.5-.9c0-.5.2-.9.5-.9s.5.4.5.9Z"/><path class="cls-5" d="m260.2,699.5c0,.5-.2.9-.5.9s-.5-.4-.5-.9c0-.5.2-.9.5-.9s.5.4.5.9Z"/><path class="cls-5" d="m261.5,698.4c0,.5-.2.9-.4.9s-.5-.4-.5-.9c0-.5.2-.9.4-.9s.5.4.5.9Z"/><path class="cls-5" d="m261.5,699.5c0,.5-.2.9-.4.9s-.5-.4-.5-.9c0-.5.2-.9.4-.9s.5.4.5.9Z"/><path class="cls-5" d="m262.8,698.4c0,.5-.2.9-.4.9s-.5-.4-.5-.9c0-.5.2-.9.4-.9s.5.4.5.9Z"/><path class="cls-5" d="m262.8,699.5c0,.5-.2.9-.4.9s-.5-.4-.5-.9.2-.9.4-.9.5.4.5.9Z"/><path class="cls-5" d="m264.1,698.4c0,.5-.2.9-.4.9s-.5-.4-.5-.9.2-.9.4-.9.5.4.5.9Z"/><path class="cls-5" d="m264.1,699.5c0,.5-.2.9-.4.9s-.5-.4-.5-.9.2-.9.4-.9.5.4.5.9Z"/><path class="cls-5" d="m265.4,698.4c0,.5-.2.9-.4.9s-.5-.4-.5-.9.2-.9.4-.9.5.4.5.9Z"/><path class="cls-5" d="m265.4,699.5c0,.5-.2.9-.4.9s-.5-.4-.5-.9.2-.9.4-.9.5.4.5.9Z"/><path class="cls-5" d="m266.7,698.4c0,.5-.2.9-.4.9s-.5-.4-.5-.9.2-.9.4-.9c.2,0,.5.4.5.9h0Z"/><path class="cls-5" d="m266.7,699.5c0,.5-.2.9-.4.9s-.5-.4-.5-.9.2-.9.4-.9c.2,0,.5.4.5.9h0Z"/><path class="cls-5" d="m267.9,698.4c0,.5-.2.9-.4.9s-.5-.4-.5-.9c0-.5.2-.9.4-.9s.5.4.5.9Z"/><path class="cls-5" d="m268,699.4c0,.5-.2.9-.4.9s-.5-.4-.5-.9.2-.9.4-.9.5.4.5.9Z"/><path class="cls-5" d="m269.2,698.3c0,.5-.2.9-.4.9s-.5-.4-.5-.9c0-.5.2-.9.4-.9s.5.4.5.9Z"/><path class="cls-5" d="m269.2,699.4c0,.5-.2.9-.4.9s-.5-.4-.5-.9c0-.5.2-.9.4-.9s.5.4.5.9Z"/><path class="cls-5" d="m270.5,698.3c0,.5-.2.9-.4.9s-.5-.4-.5-.9.2-.9.4-.9.5.4.5.9Z"/><path class="cls-5" d="m270.5,699.4c0,.5-.2.9-.4.9s-.5-.4-.5-.9c0-.5.2-.9.4-.9s.5.4.5.9Z"/><path class="cls-5" d="m271.8,698.3c0,.5-.2.9-.4.9s-.5-.4-.5-.9.2-.9.4-.9.5.4.5.9Z"/><path class="cls-5" d="m271.8,699.3c0,.5-.2.9-.4.9s-.5-.4-.5-.9.2-.9.4-.9.5.4.5.9Z"/><path class="cls-5" d="m273.1,698.2c0,.5-.2.9-.4.9s-.5-.4-.5-.9.2-.9.4-.9.5.4.5.9Z"/><path class="cls-5" d="m273.1,699.3c0,.5-.2.9-.4.9s-.5-.4-.5-.9.2-.9.4-.9.5.4.5.9Z"/><path class="cls-5" d="m274.4,698.2c0,.5-.2.9-.4.9s-.5-.4-.5-.9.2-.9.4-.9.5.4.5.9Z"/><path class="cls-5" d="m274.4,699.3c0,.5-.2.9-.4.9s-.5-.4-.5-.9.2-.9.4-.9.5.4.5.9Z"/><path class="cls-5" d="m275.7,698.2c0,.5-.2.9-.4.9s-.5-.4-.5-.9c0-.5.2-.9.4-.9s.5.4.5.9Z"/><path class="cls-5" d="m275.7,699.2c0,.5-.2.9-.4.9s-.5-.4-.5-.9c0-.5.2-.9.4-.9s.5.4.5.9Z"/><path class="cls-5" d="m277,698.1c0,.5-.2.9-.4.9s-.5-.4-.5-.9c0-.5.2-.9.4-.9s.5.4.5.9Z"/><path class="cls-5" d="m277,699.2c0,.5-.2.9-.4.9s-.5-.4-.5-.9c0-.5.2-.9.4-.9s.5.4.5.9Z"/><path class="cls-5" d="m278.2,698.1c0,.5-.2.9-.4.9s-.5-.4-.5-.9c0-.5.2-.9.4-.9s.5.4.5.9Z"/><path class="cls-5" d="m278.3,699.2c0,.5-.2.9-.4.9s-.5-.4-.5-.9c0-.5.2-.9.4-.9s.5.4.5.9Z"/><path class="cls-5" d="m279.5,698.1c0,.5-.2.9-.4.9s-.5-.4-.5-.9c0-.5.2-.9.4-.9s.5.4.5.9Z"/><path class="cls-5" d="m279.6,699.1c0,.5-.2.9-.4.9s-.5-.4-.5-.9c0-.5.2-.9.4-.9s.5.4.5.9Z"/><path class="cls-5" d="m280.8,698c0,.5-.2.9-.4.9s-.5-.4-.5-.9c0-.5.2-.9.4-.9s.5.4.5.9Z"/><path class="cls-5" d="m280.9,699.1c0,.5-.2.9-.4.9s-.5-.4-.5-.9c0-.5.2-.9.4-.9s.5.4.5.9Z"/><path class="cls-5" d="m282.1,698c0,.5-.2.9-.4.9s-.5-.4-.5-.9c0-.5.2-.9.4-.9s.5.4.5.9Z"/><path class="cls-5" d="m282.1,699.1c0,.5-.2.9-.4.9s-.5-.4-.5-.9c0-.5.2-.9.4-.9s.5.4.5.9Z"/><path class="cls-5" d="m283.4,697.9c0,.5-.2.9-.4.9-.2,0-.5-.4-.5-.9s.2-.9.4-.9c.2,0,.5.4.5.9Z"/><path class="cls-5" d="m283.4,699c0,.5-.2.9-.4.9s-.5-.4-.5-.9.2-.9.4-.9.5.4.5.9Z"/><path class="cls-5" d="m284.7,697.9c0,.5-.2.9-.4.9s-.5-.4-.5-.9.2-.9.4-.9.5.4.5.9Z"/><path class="cls-5" d="m284.7,698.9c0,.5-.2.9-.4.9s-.5-.4-.5-.9.2-.9.4-.9c.2,0,.5.4.5.9Z"/><path class="cls-5" d="m286,697.8c0,.5-.2.9-.4.9s-.5-.4-.5-.9.2-.9.4-.9.5.4.5.9Z"/><path class="cls-5" d="m286,698.9c0,.5-.2.9-.4.9s-.5-.4-.5-.9.2-.9.4-.9.5.4.5.9Z"/><path class="cls-5" d="m287.2,697.7c0,.5-.2.9-.4.9s-.5-.4-.5-.9.2-.9.4-.9.5.4.5.9Z"/><path class="cls-5" d="m287.3,698.8c0,.5-.2.9-.4.9s-.5-.4-.5-.9.2-.9.4-.9.5.4.5.9Z"/><path class="cls-5" d="m288.5,697.7c0,.5-.2.9-.4.9s-.5-.4-.5-.9.2-.9.4-.9.5.4.5.9Z"/><path class="cls-5" d="m288.6,698.7c0,.5-.2.9-.4.9s-.5-.4-.5-.9.2-.9.4-.9.5.4.5.9Z"/><path class="cls-5" d="m289.8,697.6c0,.5-.2.9-.4.9s-.5-.4-.5-.9.2-.9.4-.9.5.4.5.9Z"/><path class="cls-5" d="m289.9,698.7c0,.5-.2.9-.4.9s-.5-.4-.5-.9.2-.9.4-.9.5.4.5.9Z"/><path class="cls-5" d="m291.1,697.5c0,.5-.2.9-.4.9-.2,0-.5-.4-.5-.9,0-.5.2-.9.4-.9.2,0,.5.4.5.9Z"/><path class="cls-5" d="m291.2,698.6c0,.5-.2.9-.4.9s-.5-.4-.5-.9c0-.5.2-.9.4-.9s.5.4.5.9Z"/><path class="cls-5" d="m292.4,697.5c0,.5-.1.9-.4.9s-.5-.4-.5-.9.2-.9.4-.9c.2,0,.5.4.5.9Z"/><path class="cls-5" d="m292.5,698.5c0,.5-.1.9-.4.9s-.5-.4-.5-.9.2-.9.4-.9.5.4.5.9Z"/><path class="cls-5" d="m293.7,697.4c0,.5-.1.9-.4.9s-.5-.4-.5-.9.1-.9.4-.9.5.4.5.9Z"/><path class="cls-5" d="m293.7,698.5c0,.5-.1.9-.4.9s-.5-.4-.5-.9.1-.9.4-.9.5.4.5.9Z"/><path class="cls-5" d="m295,697.3c0,.5-.1.9-.4.9s-.5-.4-.5-.9.1-.9.4-.9.5.4.5.9Z"/><path class="cls-5" d="m295,698.4c0,.5-.1.9-.4.9s-.5-.4-.5-.9.1-.9.4-.9.5.4.5.9Z"/><path class="cls-5" d="m296.3,697.3c0,.5-.1.9-.4.9s-.5-.4-.5-.9.1-.9.4-.9.5.4.5.9Z"/><path class="cls-5" d="m296.3,698.3c0,.5-.1.9-.4.9s-.5-.4-.5-.9.1-.9.4-.9.5.4.5.9Z"/><path class="cls-5" d="m297.5,697.2c0,.5-.1.9-.4.9s-.5-.4-.5-.9.1-.9.4-.9.5.4.5.9Z"/><path class="cls-5" d="m297.6,698.3c0,.5-.1.9-.4.9s-.5-.4-.5-.9.1-.9.4-.9.5.4.5.9Z"/><path class="cls-5" d="m298.8,697.2c0,.5-.1.9-.4.9s-.5-.4-.5-.9c0-.5.1-.9.4-.9s.5.4.5.9h0Z"/><path class="cls-5" d="m298.9,698.2c0,.5-.1.9-.4.9s-.5-.4-.5-.9.1-.9.4-.9.5.4.5.9Z"/><path class="cls-5" d="m300.1,697.1c0,.5-.1.9-.4.9-.2,0-.5-.4-.5-.9s.1-.9.4-.9c.2,0,.5.4.5.9Z"/><path class="cls-5" d="m300.2,698.1c0,.5-.1.9-.4.9-.2,0-.5-.4-.5-.9s.1-.9.4-.9c.2,0,.5.4.5.9Z"/><path class="cls-5" d="m301.4,697c0,.5-.1.9-.4.9-.2,0-.5-.4-.5-.9s.1-.9.4-.9c.2,0,.5.4.5.9Z"/><path class="cls-5" d="m301.5,698c0,.5-.1.9-.4.9-.2,0-.5-.4-.5-.9s.1-.9.4-.9c.2,0,.5.4.5.9Z"/><path class="cls-5" d="m302.7,696.9c0,.5-.1.9-.4.9s-.5-.4-.5-.9.1-.9.4-.9c.2,0,.5.4.5.9Z"/><path class="cls-5" d="m302.8,697.9c0,.5-.1.9-.4.9-.2,0-.5-.4-.5-.9s.1-.9.4-.9c.2,0,.5.4.5.9Z"/><path class="cls-5" d="m304,696.8c0,.5-.1.9-.4.9-.2,0-.5-.4-.5-.9s.1-.9.4-.9c.2,0,.5.4.5.9Z"/><path class="cls-5" d="m304,697.8c0,.5-.1.9-.4.9-.2,0-.5-.4-.5-.9s.1-.9.4-.9c.2,0,.5.4.5.9Z"/><path class="cls-5" d="m305.2,696.7c0,.5-.1.9-.4.9-.2,0-.5-.4-.5-.9s.1-.9.4-.9c.2,0,.5.4.5.9Z"/><path class="cls-5" d="m305.3,697.7c0,.5-.1.9-.4.9-.2,0-.5-.4-.5-.9s.1-.9.4-.9c.2,0,.5.4.5.9Z"/><path class="cls-5" d="m306.5,696.6c0,.5-.1.9-.4.9-.2,0-.5-.4-.5-.9,0-.5.1-.9.4-.9.2,0,.5.4.5.9Z"/><path class="cls-5" d="m306.6,697.7c0,.5-.1.9-.4.9-.2,0-.5-.4-.5-.9,0-.5.1-.9.4-.9.2,0,.5.4.5.9h0Z"/><path class="cls-5" d="m307.8,696.5c0,.5-.1.9-.4.9-.2,0-.5-.4-.5-.9,0-.5.1-.9.4-.9.2,0,.5.4.5.9Z"/><path class="cls-5" d="m307.9,697.6c0,.5-.1.9-.4.9-.2,0-.5-.4-.5-.9,0-.5.1-.9.4-.9.2,0,.5.4.5.9Z"/><path class="cls-5" d="m309.1,696.4c0,.5-.1.9-.4.9s-.5-.4-.5-.9c0-.5.1-.9.4-.9.2,0,.5.4.5.9Z"/><path class="cls-5" d="m309.2,697.5c0,.5-.1.9-.4.9-.2,0-.5-.4-.5-.9,0-.5.1-.9.4-.9.2,0,.5.4.5.9Z"/><path class="cls-5" d="m310.4,696.3c0,.5-.1.9-.4.9s-.5-.4-.5-.9c0-.5.1-.9.4-.9.2,0,.5.4.5.9Z"/><path class="cls-5" d="m310.5,697.4c0,.5-.1.9-.4.9s-.5-.4-.5-.9c0-.5.1-.9.4-.9s.5.4.5.9Z"/><path class="cls-5" d="m311.7,696.2c0,.5-.1.9-.4.9s-.5-.4-.5-.9c0-.5.1-.9.4-.9s.5.4.5.9Z"/><path class="cls-5" d="m311.8,697.3c0,.5-.1.9-.4.9s-.5-.4-.5-.9c0-.5.1-.9.4-.9s.5.4.5.9Z"/><path class="cls-5" d="m313,696.1c0,.5-.1.9-.4.9s-.5-.4-.5-.9c0-.5.1-.9.4-.9s.5.4.5.9Z"/><path class="cls-5" d="m313,697.2c0,.5-.1.9-.4.9s-.5-.4-.5-.9c0-.5.1-.9.4-.9s.5.4.5.9Z"/><path class="cls-5" d="m314.2,696c0,.5-.1.9-.4.9-.2,0-.5-.4-.5-.9,0-.5.1-.9.4-.9.2,0,.5.4.5.9Z"/><path class="cls-5" d="m314.3,697.1c0,.5-.1.9-.4.9s-.5-.4-.5-.9c0-.5.1-.9.4-.9s.5.4.5.9Z"/><path class="cls-5" d="m315.5,695.9c0,.5-.1.9-.4.9s-.5-.4-.5-.9c0-.5.1-.9.4-.9.2,0,.5.4.5.9Z"/><path class="cls-5" d="m315.6,697c0,.5-.1.9-.4.9s-.5-.4-.5-.9c0-.5.1-.9.4-.9s.5.4.5.9Z"/><path class="cls-5" d="m316.8,695.8c0,.5-.1.9-.4.9s-.5-.4-.5-.9c0-.5.1-.9.4-.9s.5.4.5.9Z"/><path class="cls-5" d="m316.9,696.9c0,.5-.1.9-.4.9s-.5-.4-.5-.9c0-.5.1-.9.4-.9s.5.4.5.9Z"/><path class="cls-5" d="m318.1,695.7c0,.5-.1.9-.4.9s-.5-.4-.5-.9c0-.5.1-.9.4-.9s.5.4.5.8h0Z"/><path class="cls-5" d="m318.2,696.7c0,.5-.1.9-.4.9s-.5-.4-.5-.9.1-.9.4-.9.5.4.5.8h0Z"/><path class="cls-5" d="m319.4,695.5c0,.5-.1.9-.4.9s-.5-.4-.5-.9.1-.9.4-.9.5.4.5.8h0Z"/><path class="cls-5" d="m319.5,696.6c0,.5-.1.9-.4.9s-.5-.4-.5-.8.1-.9.4-.9.5.4.5.8Z"/><path class="cls-5" d="m320.7,695.4c0,.5-.1.9-.4.9s-.5-.4-.5-.8c0-.5.1-.9.4-.9s.5.4.5.8Z"/><path class="cls-5" d="m320.8,696.5c0,.5-.1.9-.4.9s-.5-.4-.5-.8c0-.5.1-.9.4-.9s.5.4.5.8Z"/><path class="cls-5" d="m321.9,695.3c0,.5-.1.9-.4.9-.2,0-.5-.4-.5-.8,0-.5.1-.9.4-.9.2,0,.5.4.5.8Z"/><path class="cls-5" d="m322,696.4c0,.5-.1.9-.4.9-.2,0-.5-.4-.5-.8,0-.5.1-.9.4-.9.2,0,.5.4.5.8Z"/><path class="cls-5" d="m323.2,695.2c0,.5-.1.9-.4.9s-.5-.4-.5-.8c0-.5.1-.9.4-.9s.5.4.5.8Z"/><path class="cls-5" d="m323.3,696.2c0,.5-.1.9-.4.9s-.5-.4-.5-.8c0-.5.1-.9.4-.9.2,0,.5.4.5.8Z"/><path class="cls-5" d="m324.5,695c0,.5-.1.9-.4.9s-.5-.4-.5-.8c0-.5.1-.9.4-.9s.5.4.5.8Z"/><path class="cls-5" d="m324.6,696.1c0,.5-.1.9-.4.9s-.5-.4-.5-.8c0-.5.1-.9.4-.9s.5.4.5.8Z"/><path class="cls-5" d="m325.8,694.9c0,.5-.1.9-.4.9s-.5-.4-.5-.8c0-.5.1-.9.4-.9s.5.4.5.8Z"/><path class="cls-5" d="m325.9,696c0,.5-.1.9-.4.9s-.5-.4-.5-.8c0-.5.1-.9.4-.9s.5.4.5.8Z"/><path class="cls-5" d="m327.1,694.8c0,.5-.1.9-.4.9s-.5-.4-.5-.8c0-.5.1-.9.4-.9s.5.4.5.8Z"/><path class="cls-5" d="m327.2,695.9c0,.5-.1.9-.4.9s-.5-.4-.5-.8.1-.9.4-.9.5.4.5.8Z"/><path class="cls-5" d="m328.3,694.7c0,.5-.1.9-.4.9s-.5-.4-.5-.8c0-.5.1-.9.4-.9s.5.4.5.8Z"/><path class="cls-5" d="m328.5,695.7c0,.5-.1.9-.4.9s-.5-.4-.5-.8c0-.5.1-.9.4-.9s.5.4.5.8Z"/><path class="cls-5" d="m329.6,694.5c0,.5-.1.9-.4.9-.2,0-.5-.4-.5-.8,0-.5.1-.9.4-.9.2,0,.5.4.5.8Z"/><path class="cls-5" d="m329.7,695.6c0,.5-.1.9-.4.9-.2,0-.5-.4-.5-.8,0-.5.1-.9.4-.9.2,0,.5.4.5.8Z"/><path class="cls-5" d="m330.9,694.4c0,.5-.1.9-.4.9s-.5-.4-.5-.8c0-.5.1-.9.4-.9.2,0,.5.4.5.8Z"/><path class="cls-5" d="m331,695.5c0,.5-.1.9-.4.9s-.5-.4-.5-.8c0-.5.1-.9.4-.9.2,0,.5.4.5.8Z"/><path class="cls-5" d="m332.2,694.3c0,.5-.1.9-.4.9s-.5-.4-.5-.8.1-.9.4-.9.5.4.5.8Z"/><path class="cls-5" d="m332.3,695.3c0,.5-.1.9-.4.9s-.5-.4-.5-.8c0-.5.1-.9.4-.9s.5.4.5.8Z"/><path class="cls-5" d="m333.5,694.2c0,.5-.1.9-.4.9s-.5-.4-.5-.8c0-.5.1-.9.4-.9s.5.4.5.8Z"/><path class="cls-5" d="m333.6,695.2c0,.5-.1.9-.4.9s-.5-.4-.5-.8c0-.5.1-.9.4-.9s.5.4.5.8Z"/><path class="cls-5" d="m334.7,694c0,.5-.1.9-.4,1s-.5-.3-.5-.8c0-.5.1-.9.4-1s.5.3.5.8Z"/><path class="cls-5" d="m334.9,695.1c0,.5-.1.9-.4,1s-.5-.3-.5-.8c0-.5.1-.9.4-1s.5.3.5.8Z"/><path class="cls-5" d="m336,693.8c0,.5-.1.9-.3,1-.2,0-.5-.3-.5-.8,0-.5.1-.9.3-1,.2,0,.5.3.5.8Z"/><path class="cls-5" d="m336.2,694.9c0,.5-.1.9-.4,1s-.5-.3-.5-.8c0-.5.1-.9.4-1s.5.3.5.8Z"/><path class="cls-5" d="m337.3,693.7c0,.5-.1.9-.3,1-.2,0-.5-.3-.5-.8,0-.5.1-.9.3-1,.2,0,.5.3.5.8Z"/><path class="cls-5" d="m337.4,694.7c0,.5-.1.9-.3,1-.2,0-.5-.3-.5-.8,0-.5.1-.9.3-1,.2,0,.5.3.5.8Z"/><path class="cls-5" d="m338.6,693.5c0,.5,0,.9-.3,1s-.5-.3-.5-.8,0-.9.3-1,.5.3.5.8Z"/><path class="cls-5" d="m338.7,694.6c0,.5,0,.9-.3,1s-.5-.3-.5-.8c0-.5.1-.9.3-1,.2,0,.5.3.5.8Z"/><path class="cls-5" d="m339.9,693.4c0,.5,0,.9-.3,1s-.5-.3-.5-.8c0-.5,0-.9.3-1s.5.3.5.8Z"/><path class="cls-5" d="m340,694.4c0,.5,0,.9-.3,1s-.5-.3-.6-.8c0-.5,0-.9.3-1s.5.3.6.8Z"/><path class="cls-5" d="m341.1,693.2c0,.5,0,.9-.3,1s-.5-.3-.6-.8c0-.5,0-.9.3-1s.5.3.6.8Z"/><path class="cls-5" d="m341.3,694.3c0,.5,0,.9-.3,1s-.5-.3-.6-.8c0-.5,0-.9.3-1s.5.3.6.8Z"/><path class="cls-5" d="m342.4,693c0,.5,0,.9-.3,1s-.5-.3-.6-.8c0-.5,0-.9.3-1s.5.3.6.8Z"/><path class="cls-5" d="m342.6,694.1c0,.5,0,.9-.3,1s-.5-.3-.6-.8c0-.5,0-.9.3-1s.5.3.6.8Z"/><path class="cls-5" d="m343.7,692.9c0,.5,0,.9-.3,1-.2,0-.5-.3-.6-.8,0-.5,0-.9.3-1,.2,0,.5.3.6.8Z"/><path class="cls-5" d="m343.8,693.9c0,.5,0,.9-.3,1s-.5-.3-.6-.8c0-.5,0-.9.3-1s.5.3.6.8Z"/><path class="cls-5" d="m345,692.7c0,.5,0,.9-.3,1-.2,0-.5-.3-.6-.8,0-.5,0-.9.3-1,.2,0,.5.3.6.8Z"/><path class="cls-5" d="m345.1,693.8c0,.5,0,.9-.3,1s-.5-.3-.6-.8c0-.5,0-.9.3-1,.2,0,.5.3.6.8Z"/><path class="cls-5" d="m346.3,692.6c0,.5,0,.9-.3,1s-.5-.3-.6-.8c0-.5,0-.9.3-1s.5.3.6.8Z"/><path class="cls-5" d="m346.4,693.6c0,.5,0,.9-.3,1s-.5-.3-.6-.8c0-.5,0-.9.3-1,.2,0,.5.3.6.8Z"/><path class="cls-5" d="m347.5,692.4c0,.5,0,.9-.3,1s-.5-.3-.6-.8c0-.5,0-.9.3-1s.5.3.6.8Z"/><path class="cls-5" d="m347.7,693.5c0,.5,0,.9-.3,1s-.5-.3-.6-.8c0-.5,0-.9.3-1s.5.3.6.8Z"/><path class="cls-5" d="m348.8,692.3c0,.5,0,.9-.3,1s-.5-.3-.6-.8c0-.5,0-.9.3-1s.5.3.6.8Z"/><path class="cls-5" d="m349,693.3c0,.5,0,.9-.3,1s-.5-.3-.6-.8c0-.5,0-.9.3-1s.5.3.6.8Z"/><path class="cls-5" d="m350.1,692.1c0,.5,0,.9-.3,1s-.5-.3-.6-.8c0-.5,0-.9.3-1s.5.3.6.8Z"/><path class="cls-5" d="m350.2,693.2c0,.5,0,.9-.3,1s-.5-.3-.6-.8c0-.5,0-.9.3-1s.5.3.6.8Z"/><path class="cls-5" d="m351.4,691.9c0,.5,0,.9-.3,1-.2,0-.5-.3-.6-.8,0-.5,0-.9.3-1,.2,0,.5.3.6.8Z"/><path class="cls-5" d="m351.5,693c0,.5,0,.9-.3,1s-.5-.3-.6-.8c0-.5,0-.9.3-1s.5.3.6.8Z"/><path class="cls-5" d="m352.6,691.7c0,.5,0,.9-.3,1-.2,0-.5-.3-.6-.8,0-.5,0-.9.3-1,.2,0,.5.3.6.8Z"/><path class="cls-5" d="m352.8,692.8c0,.5,0,.9-.3,1-.2,0-.5-.3-.6-.8,0-.5,0-.9.3-1,.2,0,.5.3.6.8Z"/><path class="cls-5" d="m353.9,691.5c0,.5,0,.9-.3,1-.2,0-.5-.3-.6-.8,0-.5,0-.9.3-1,.2,0,.5.3.6.8Z"/><path class="cls-5" d="m354.1,692.6c0,.5,0,.9-.3,1-.2,0-.5-.3-.6-.8,0-.5,0-.9.3-1,.2,0,.5.3.6.8Z"/><path class="cls-5" d="m355.2,691.4c0,.5,0,.9-.3,1-.2,0-.5-.3-.6-.8,0-.5,0-.9.3-1,.2,0,.5.3.6.8Z"/><path class="cls-5" d="m355.3,692.4c0,.5,0,.9-.3,1-.2,0-.5-.3-.6-.8,0-.5,0-.9.3-1,.2,0,.5.3.6.8Z"/><path class="cls-5" d="m356.5,691.2c0,.5,0,.9-.3,1-.2,0-.5-.3-.6-.8,0-.5,0-.9.3-1,.2,0,.5.3.6.8Z"/><path class="cls-5" d="m356.6,692.2c0,.5,0,.9-.3,1-.2,0-.5-.3-.6-.8,0-.5,0-.9.3-1,.2,0,.5.3.6.8h0Z"/><path class="cls-5" d="m357.7,691c0,.5,0,.9-.3,1-.2,0-.5-.3-.6-.8,0-.5,0-.9.3-1,.2,0,.5.3.6.8Z"/><path class="cls-5" d="m357.9,692c0,.5,0,.9-.3,1-.2,0-.5-.3-.6-.8,0-.5,0-.9.3-1,.2,0,.5.3.6.8Z"/><path class="cls-5" d="m359,690.8c0,.5,0,.9-.3,1-.2,0-.5-.3-.6-.8,0-.5,0-.9.3-1,.2,0,.5.3.6.8Z"/><path class="cls-5" d="m359.2,691.8c0,.5,0,.9-.3,1-.2,0-.5-.3-.6-.8,0-.5,0-.9.3-1,.2,0,.5.3.6.8Z"/><path class="cls-5" d="m360.3,690.6c0,.5,0,.9-.3,1-.2,0-.5-.3-.6-.8,0-.5,0-.9.3-1,.2,0,.5.3.6.8Z"/><path class="cls-5" d="m360.4,691.6c0,.5,0,.9-.3,1-.2,0-.5-.3-.6-.8,0-.5,0-.9.3-1,.2,0,.5.3.6.8Z"/><path class="cls-5" d="m361.6,690.4c0,.5,0,.9-.3,1-.2,0-.5-.3-.6-.8,0-.5,0-.9.3-1,.2,0,.5.3.6.8Z"/><path class="cls-5" d="m361.7,691.5c0,.5,0,.9-.3,1-.2,0-.5-.3-.6-.8,0-.5,0-.9.3-1,.2,0,.5.3.6.8Z"/><path class="cls-5" d="m362.8,690.2c0,.5,0,.9-.3,1-.2,0-.5-.3-.6-.8,0-.5,0-.9.3-1,.2,0,.5.3.6.8Z"/><path class="cls-5" d="m363,691.3c0,.5,0,.9-.3,1-.2,0-.5-.3-.6-.8,0-.5,0-.9.3-1,.2,0,.5.3.6.8Z"/><path class="cls-5" d="m364.1,690c0,.5,0,.9-.3,1-.2,0-.5-.3-.6-.8,0-.5,0-.9.3-1,.2,0,.5.3.6.8Z"/><path class="cls-5" d="m364.3,691.1c0,.5,0,.9-.3,1-.2,0-.5-.3-.6-.8,0-.5,0-.9.3-1,.2,0,.5.3.6.8Z"/><path class="cls-5" d="m365.4,689.8c0,.5,0,.9-.3,1-.2,0-.5-.3-.6-.8s0-.9.3-1c.2,0,.5.3.6.8Z"/><path class="cls-5" d="m365.5,690.9c0,.5,0,.9-.3,1-.2,0-.5-.3-.6-.8s0-.9.3-1c.2,0,.5.3.6.8Z"/><path class="cls-5" d="m366.6,689.6c0,.5,0,.9-.3,1-.2,0-.5-.3-.6-.8s0-.9.3-1c.2,0,.5.3.6.8Z"/><path class="cls-5" d="m366.8,690.7c0,.5,0,.9-.3,1-.2,0-.5-.3-.6-.8s0-.9.3-1c.2,0,.5.3.6.8Z"/><path class="cls-5" d="m367.9,689.4c0,.5,0,.9-.3,1-.2,0-.5-.3-.6-.8s0-.9.3-1c.2,0,.5.3.6.8Z"/><path class="cls-5" d="m368.1,690.5c0,.5,0,.9-.3,1-.2,0-.5-.3-.6-.8s0-.9.3-1c.2,0,.5.3.6.8Z"/><path class="cls-5" d="m369.2,689.2c0,.5,0,.9-.3,1-.2,0-.5-.3-.6-.8s0-.9.3-1c.2,0,.5.3.6.8Z"/><path class="cls-5" d="m369.4,690.3c0,.5,0,.9-.3,1-.2,0-.5-.3-.6-.8s0-.9.3-1c.2,0,.5.3.6.8Z"/><path class="cls-5" d="m370.5,689c0,.5,0,.9-.3,1s-.5-.3-.6-.8,0-.9.3-1c.2,0,.5.3.6.8Z"/><path class="cls-5" d="m370.6,690.1c0,.5,0,.9-.3,1s-.5-.3-.6-.8,0-.9.3-1,.5.3.6.8Z"/><path class="cls-5" d="m371.7,688.8c0,.5,0,.9-.3,1s-.5-.3-.6-.8,0-.9.3-1c.2,0,.5.3.6.8Z"/><path class="cls-5" d="m371.9,689.9c0,.5,0,.9-.3,1s-.5-.3-.6-.8,0-.9.3-1,.5.3.6.8Z"/><path class="cls-5" d="m373,688.6c0,.5,0,.9-.3,1-.2,0-.5-.3-.6-.8s0-.9.3-1c.2,0,.5.3.6.8Z"/><path class="cls-5" d="m373.2,689.6c0,.5,0,.9-.3,1-.2,0-.5-.3-.6-.8s0-.9.3-1c.2,0,.5.3.6.8Z"/><path class="cls-5" d="m374.3,688.4c0,.5,0,.9-.3,1-.2,0-.5-.3-.6-.8s0-.9.3-1c.2,0,.5.3.6.8Z"/><path class="cls-5" d="m374.5,689.4c0,.5,0,.9-.3,1-.2,0-.5-.3-.6-.8,0-.5,0-.9.3-1,.2,0,.5.3.6.8Z"/><path class="cls-5" d="m375.5,688.1c0,.5,0,.9-.3,1-.2,0-.5-.3-.6-.8,0-.5,0-.9.3-1,.2,0,.5.3.6.8Z"/><path class="cls-5" d="m375.7,689.2c0,.5,0,.9-.3,1-.2,0-.5-.3-.6-.8,0-.5,0-.9.3-1,.2,0,.5.3.6.8Z"/><path class="cls-5" d="m376.8,687.9c0,.5,0,.9-.3,1-.2,0-.5-.3-.6-.8s0-.9.3-1c.2,0,.5.3.6.8Z"/><path class="cls-5" d="m377,689c0,.5,0,.9-.3,1-.2,0-.5-.3-.6-.8,0-.5,0-.9.3-1,.2,0,.5.3.6.8Z"/><path class="cls-5" d="m378.1,687.7c0,.5,0,.9-.3,1-.2,0-.5-.3-.6-.8s0-.9.3-1c.2,0,.5.3.6.8Z"/><path class="cls-5" d="m378.3,688.7c0,.5,0,.9-.3,1-.2,0-.5-.3-.6-.8s0-.9.3-1c.2,0,.5.3.6.8Z"/><path class="cls-5" d="m379.3,687.5c0,.5,0,.9-.3,1-.2,0-.5-.3-.6-.8s0-.9.3-1c.2,0,.5.3.6.8Z"/><path class="cls-5" d="m379.5,688.5c0,.5,0,.9-.3,1-.2,0-.5-.3-.6-.8,0-.5,0-.9.3-1,.2,0,.5.3.6.8Z"/><path class="cls-5" d="m380.6,687.2c0,.5,0,.9-.3,1-.2,0-.5-.3-.6-.8,0-.5,0-.9.3-1,.2,0,.5.3.6.8Z"/><path class="cls-5" d="m380.8,688.3c0,.5,0,.9-.3,1-.2,0-.5-.3-.6-.8,0-.5,0-.9.3-1,.2,0,.5.3.6.8Z"/><path class="cls-5" d="m381.9,687c0,.5,0,.9-.3,1-.2,0-.5-.3-.6-.8,0-.5,0-.9.3-1,.2,0,.5.3.6.8Z"/><path class="cls-5" d="m382.1,688.1c0,.5,0,.9-.3,1-.2,0-.5-.3-.6-.8s0-.9.3-1c.2,0,.5.3.6.8Z"/><path class="cls-5" d="m383.1,686.8c0,.5,0,.9-.3,1-.2,0-.5-.3-.6-.8s0-.9.3-1c.2,0,.5.3.6.8Z"/><path class="cls-5" d="m383.3,687.8c0,.5,0,.9-.3,1-.2,0-.5-.3-.6-.8s0-.9.3-1c.2,0,.5.3.6.8Z"/><path class="cls-5" d="m384.4,686.6c0,.5,0,.9-.3,1-.2,0-.5-.3-.6-.8s0-.9.3-1c.2,0,.5.3.6.8Z"/><path class="cls-5" d="m384.6,687.6c0,.5,0,.9-.3,1-.2,0-.5-.3-.6-.8s0-.9.3-1c.2,0,.5.3.6.8Z"/><path class="cls-5" d="m385.7,686.3c0,.5,0,.9-.3,1-.2,0-.5-.3-.6-.8s0-.9.3-1c.2,0,.5.3.6.8Z"/><path class="cls-5" d="m385.9,687.4c0,.5,0,.9-.3,1-.2,0-.5-.3-.6-.8s0-.9.3-1c.2,0,.5.3.6.8Z"/><path class="cls-5" d="m387,686.1c0,.5,0,.9-.3,1-.2,0-.5-.3-.6-.8s0-.9.3-1c.2,0,.5.3.6.8Z"/><path class="cls-5" d="m387.2,687.2c0,.5,0,.9-.3,1-.2,0-.5-.3-.6-.8s0-.9.3-1c.2,0,.5.3.6.8Z"/><path class="cls-5" d="m388.2,685.9c0,.5,0,.9-.3,1-.2,0-.5-.3-.6-.8s0-.9.3-1c.2,0,.5.3.6.8Z"/><path class="cls-5" d="m388.4,686.9c0,.5,0,.9-.3,1-.2,0-.5-.3-.6-.8s0-.9.3-1c.2,0,.5.3.6.8Z"/><path class="cls-5" d="m389.5,685.6c0,.5,0,.9-.3,1s-.5-.3-.6-.8,0-.9.3-1,.5.3.6.8Z"/><path class="cls-5" d="m389.7,686.7c0,.5,0,.9-.3,1s-.5-.3-.6-.8,0-.9.3-1,.5.3.6.8Z"/><path class="cls-5" d="m390.7,685.4c.1.5,0,.9-.3,1-.2,0-.5-.3-.6-.8s0-.9.3-1,.5.3.6.8Z"/><path class="cls-5" d="m390.9,686.4c.1.5,0,.9-.3,1-.2,0-.5-.3-.6-.8s0-.9.3-1,.5.3.6.8Z"/><path class="cls-5" d="m392,685.1c.1.5,0,.9-.3,1-.2,0-.5-.3-.6-.8-.1-.5,0-.9.3-1,.2,0,.5.3.6.8Z"/><path class="cls-5" d="m392.2,686.1c.1.5,0,.9-.3,1-.2,0-.5-.3-.6-.8-.1-.5,0-.9.3-1,.2,0,.5.3.6.8Z"/><path class="cls-5" d="m393.3,684.8c.1.5,0,.9-.3,1-.2,0-.5-.3-.6-.8-.1-.5,0-.9.3-1s.5.3.6.8Z"/><path class="cls-5" d="m393.5,685.9c.1.5,0,.9-.3,1-.2,0-.5-.3-.6-.8-.1-.5,0-.9.3-1,.2,0,.5.3.6.8Z"/><path class="cls-5" d="m394.5,684.6c.1.5,0,.9-.3,1-.2,0-.5-.3-.6-.8-.1-.5,0-.9.3-1,.2,0,.5.3.6.8Z"/><path class="cls-5" d="m394.7,685.6c.1.5,0,.9-.3,1s-.5-.3-.6-.8c-.1-.5,0-.9.3-1,.2,0,.5.3.6.8Z"/><path class="cls-5" d="m395.8,684.3c.1.5,0,.9-.3,1-.2,0-.5-.3-.6-.8-.1-.5,0-.9.3-1,.2,0,.5.3.6.8Z"/><path class="cls-5" d="m396,685.4c.1.5,0,.9-.3,1-.2,0-.5-.3-.6-.8s0-.9.3-1c.2,0,.5.3.6.8Z"/><path class="cls-5" d="m397.1,684.1c.1.5,0,.9-.3,1-.2,0-.5-.3-.6-.8-.1-.5,0-.9.3-1,.2,0,.5.3.6.8Z"/><path class="cls-5" d="m397.3,685.1c.1.5,0,.9-.3,1s-.5-.3-.6-.8,0-.9.3-1c.2,0,.5.3.6.8Z"/><path class="cls-5" d="m398.3,683.8c.1.5,0,.9-.3,1-.2,0-.5-.3-.6-.8-.1-.5,0-.9.3-1,.2,0,.5.3.6.8Z"/><path class="cls-5" d="m398.5,684.8c.1.5,0,.9-.3,1-.2,0-.5-.3-.6-.8s0-.9.3-1c.2,0,.5.3.6.8Z"/><path class="cls-5" d="m399.6,683.5c.1.5,0,.9-.3,1s-.5-.3-.6-.8c-.1-.5,0-.9.3-1,.2,0,.5.3.6.8Z"/><path class="cls-5" d="m399.8,684.6c.1.5,0,.9-.3,1-.2,0-.5-.3-.6-.8-.1-.5,0-.9.3-1,.2,0,.5.3.6.8Z"/><path class="cls-5" d="m400.8,683.3c.1.5,0,.9-.3,1-.2,0-.5-.3-.6-.8-.1-.5,0-.9.3-1,.2,0,.5.3.6.8Z"/><path class="cls-5" d="m401.1,684.3c.1.5,0,.9-.3,1-.2,0-.5-.3-.6-.8s0-.9.3-1c.2,0,.5.3.6.8Z"/><path class="cls-5" d="m402.1,683c.1.5,0,.9-.2,1s-.5-.3-.6-.8,0-.9.2-1,.5.3.6.8Z"/><path class="cls-5" d="m402.3,684.1c.1.5,0,.9-.2,1s-.5-.3-.6-.8,0-.9.2-1,.5.3.6.8Z"/><path class="cls-5" d="m403.4,682.8c.1.5,0,.9-.2,1-.2,0-.5-.3-.6-.8s0-.9.2-1c.2,0,.5.3.6.8Z"/><path class="cls-5" d="m403.6,683.8c.1.5,0,.9-.2,1-.2,0-.5-.3-.6-.8s0-.9.2-1c.2,0,.5.3.6.8Z"/><path class="cls-5" d="m404.6,682.5c.1.5,0,.9-.2,1-.2,0-.5-.3-.6-.8s0-.9.2-1c.2,0,.5.3.6.8Z"/><path class="cls-5" d="m404.8,683.5c.1.5,0,.9-.2,1-.2,0-.5-.3-.6-.8s0-.9.2-1c.2,0,.5.3.6.8Z"/><path class="cls-5" d="m405.9,682.2c.1.5,0,.9-.2,1-.2,0-.5-.3-.6-.8-.1-.5,0-.9.2-1,.2,0,.5.3.6.8Z"/><path class="cls-5" d="m406.1,683.3c.1.5,0,.9-.2,1-.2,0-.5-.3-.6-.8-.1-.5,0-.9.2-1,.2,0,.5.3.6.8Z"/><path class="cls-5" d="m407.1,682c.1.5,0,.9-.2,1-.2,0-.5-.3-.6-.8-.1-.5,0-.9.2-1,.2,0,.5.3.6.8Z"/><path class="cls-5" d="m407.4,683c.1.5,0,.9-.2,1-.2,0-.5-.3-.6-.8-.1-.5,0-.9.2-1,.2,0,.5.3.6.8Z"/><path class="cls-5" d="m408.4,681.7c.1.5,0,.9-.2,1-.2,0-.5-.3-.6-.8-.1-.5,0-.9.2-1,.2,0,.5.3.6.8Z"/><path class="cls-5" d="m408.6,682.7c.1.5,0,.9-.2,1-.2,0-.5-.3-.6-.8-.1-.5,0-.9.2-1,.2,0,.5.3.6.8Z"/><path class="cls-5" d="m409.7,681.4c.1.5,0,.9-.2,1-.2,0-.5-.3-.6-.8-.1-.5,0-.9.2-1,.2,0,.5.3.6.8Z"/><path class="cls-5" d="m409.9,682.4c.1.5,0,.9-.2,1-.2,0-.5-.3-.6-.8-.1-.5,0-.9.2-1,.2,0,.5.3.6.8Z"/><path class="cls-5" d="m410.9,681.1c.1.5,0,.9-.2,1-.2,0-.5-.3-.6-.8-.1-.5,0-.9.2-1,.2,0,.5.3.6.8Z"/><path class="cls-5" d="m411.1,682.1c.1.5,0,.9-.2,1-.2,0-.5-.3-.6-.8-.1-.5,0-.9.2-1,.2,0,.5.3.6.8Z"/><path class="cls-5" d="m412.2,680.8c.1.5,0,.9-.2,1-.2,0-.5-.3-.6-.8-.1-.5,0-.9.2-1,.2,0,.5.3.6.8Z"/><path class="cls-5" d="m412.4,681.8c.1.5,0,.9-.2,1-.2,0-.5-.3-.6-.8-.1-.5,0-.9.2-1,.2,0,.5.3.6.8Z"/><path class="cls-5" d="m413.4,680.5c.1.5,0,.9-.2,1-.2,0-.5-.3-.6-.8-.1-.5,0-.9.2-1,.2,0,.5.3.6.8Z"/><path class="cls-5" d="m413.7,681.6c.1.5,0,.9-.2,1-.2,0-.5-.3-.6-.8-.1-.5,0-.9.2-1,.2,0,.5.3.6.8Z"/><path class="cls-5" d="m414.7,680.2c.1.5,0,.9-.2,1-.2,0-.5-.3-.6-.8-.1-.5,0-.9.2-1,.2,0,.5.3.6.8Z"/><path class="cls-5" d="m414.9,681.3c.1.5,0,.9-.2,1-.2,0-.5-.3-.6-.8-.1-.5,0-.9.2-1,.2,0,.5.3.6.8Z"/><path class="cls-5" d="m415.9,679.9c.1.5,0,.9-.2,1-.2,0-.5-.3-.6-.8s0-.9.2-1c.2,0,.5.3.6.8Z"/><path class="cls-5" d="m416.2,681c.1.5,0,.9-.2,1-.2,0-.5-.3-.6-.8-.1-.5,0-.9.2-1,.2,0,.5.3.6.8Z"/><path class="cls-5" d="m417.2,679.6c.1.5,0,.9-.2,1-.2,0-.5-.3-.6-.8-.1-.5,0-.9.2-1,.2,0,.5.3.6.8Z"/><path class="cls-5" d="m417.4,680.7c.1.5,0,.9-.2,1-.2,0-.5-.3-.6-.8-.1-.5,0-.9.2-1,.2,0,.5.3.6.8Z"/><path class="cls-5" d="m418.4,679.3c.1.5,0,.9-.2,1-.2,0-.5-.3-.6-.8-.1-.5,0-.9.2-1,.2,0,.5.3.6.8Z"/><path class="cls-5" d="m418.7,680.4c.1.5,0,.9-.2,1-.2,0-.5-.3-.6-.8-.1-.5,0-.9.2-1,.2,0,.5.3.6.8Z"/><path class="cls-5" d="m419.7,679c.1.5,0,.9-.2,1-.2,0-.5-.3-.6-.8-.1-.5,0-.9.2-1,.2,0,.5.3.6.8Z"/><path class="cls-5" d="m419.9,680.1c.1.5,0,.9-.2,1-.2,0-.5-.3-.6-.8-.1-.5,0-.9.2-1,.2,0,.5.3.6.8h0Z"/><path class="cls-5" d="m420.9,678.7c.1.5,0,.9-.2,1-.2,0-.5-.3-.6-.8-.1-.5,0-.9.2-1,.2,0,.5.3.6.8Z"/><path class="cls-5" d="m421.2,679.8c.1.5,0,.9-.2,1-.2,0-.5-.3-.6-.8-.1-.5,0-.9.2-1,.2,0,.5.3.6.8Z"/><path class="cls-5" d="m422.2,678.4c.1.5,0,.9-.2,1-.2,0-.5-.3-.6-.8-.1-.5,0-.9.2-1,.2,0,.5.3.6.8Z"/><path class="cls-5" d="m422.4,679.5c.1.5,0,.9-.2,1-.2,0-.5-.3-.6-.8-.1-.5,0-.9.2-1,.2,0,.5.3.6.8Z"/><path class="cls-5" d="m423.4,678.2c.1.5,0,.9-.2,1s-.5-.3-.6-.8c-.1-.5,0-.9.2-1s.5.3.6.8Z"/><path class="cls-5" d="m423.7,679.2c.1.5,0,.9-.2,1-.2,0-.5-.3-.6-.8-.1-.5,0-.9.2-1,.2,0,.5.3.6.8Z"/><path class="cls-5" d="m424.7,677.9c.1.5,0,.9-.2,1s-.5-.3-.6-.8c-.1-.5,0-.9.2-1s.5.3.6.8Z"/><path class="cls-5" d="m425,678.9c.1.5,0,.9-.2,1s-.5-.3-.7-.8c-.1-.5,0-.9.2-1s.5.3.7.8Z"/><path class="cls-5" d="m426,677.6c.1.5,0,.9-.2,1s-.5-.3-.7-.8c-.1-.5,0-.9.2-1s.5.3.7.8Z"/><path class="cls-5" d="m426.2,678.6c.1.5,0,.9-.2,1s-.5-.3-.7-.8c-.1-.5,0-.9.2-1s.5.3.7.8Z"/><path class="cls-5" d="m427.2,677.2c.1.5,0,.9-.2,1-.2,0-.5-.3-.7-.8-.1-.5,0-.9.2-1,.2,0,.5.3.6.8h0Z"/><path class="cls-5" d="m427.5,678.3c.1.5,0,.9-.2,1-.2,0-.5-.3-.7-.8-.1-.5,0-.9.2-1,.2,0,.5.3.7.8h0Z"/><path class="cls-5" d="m428.4,676.9c.1.5,0,.9-.2,1-.2,0-.5-.3-.7-.8-.1-.5,0-.9.2-1s.5.3.7.8h0Z"/><path class="cls-5" d="m428.7,678c.1.5,0,.9-.2,1-.2,0-.5-.3-.7-.8s0-.9.2-1c.2,0,.5.3.7.8Z"/><path class="cls-5" d="m429.7,676.6c.1.5,0,.9-.2,1s-.5-.3-.7-.8,0-.9.2-1,.5.3.7.8Z"/><path class="cls-5" d="m430,677.6c.1.5,0,.9-.2,1s-.5-.3-.7-.8,0-.9.2-1,.5.3.7.8Z"/><path class="cls-5" d="m430.9,676.3c.1.5,0,.9-.2,1s-.5-.3-.7-.8,0-.9.2-1,.5.3.7.8Z"/><path class="cls-5" d="m431.2,677.3c.1.5,0,.9-.2,1s-.5-.3-.7-.8,0-.9.2-1,.5.3.7.8Z"/><path class="cls-5" d="m432.2,675.9c.1.5,0,.9-.2,1s-.5-.3-.7-.8,0-.9.2-1,.5.3.7.8Z"/><path class="cls-5" d="m432.4,677c.1.5,0,.9-.2,1s-.5-.3-.7-.8,0-.9.2-1,.5.3.7.8Z"/><path class="cls-5" d="m433.4,675.6c.1.5,0,.9-.2,1s-.5-.3-.7-.8,0-.9.2-1,.5.3.7.8Z"/><path class="cls-5" d="m433.7,676.6c.1.5,0,.9-.2,1s-.5-.3-.7-.8c-.1-.5,0-.9.2-1s.5.3.7.8Z"/><path class="cls-5" d="m434.7,675.3c.1.5,0,.9-.2,1s-.5-.3-.7-.8,0-.9.2-1,.5.3.7.8Z"/><path class="cls-5" d="m434.9,676.3c.1.5,0,.9-.2,1s-.5-.3-.7-.8c-.1-.5,0-.9.2-1s.5.3.7.8Z"/><path class="cls-5" d="m435.9,674.9c.1.5,0,.9-.2,1-.2,0-.5-.3-.7-.8s0-.9.2-1c.2,0,.5.3.7.8Z"/><path class="cls-5" d="m436.2,676c.1.5,0,.9-.2,1s-.5-.3-.7-.8,0-.9.2-1c.2,0,.5.3.7.8Z"/><path class="cls-5" d="m437.2,674.6c.1.5,0,.9-.2,1-.2,0-.5-.3-.7-.8s0-.9.2-1c.2,0,.5.3.7.8Z"/><path class="cls-5" d="m437.4,675.6c.1.5,0,.9-.2,1-.2,0-.5-.3-.7-.8-.1-.5,0-.9.2-1,.2,0,.5.3.7.8Z"/><path class="cls-5" d="m438.4,674.3c.1.5,0,.9-.2,1s-.5-.3-.7-.8c-.1-.5,0-.9.2-1,.2,0,.5.3.7.8Z"/><path class="cls-5" d="m438.7,675.3c.1.5,0,.9-.2,1-.2,0-.5-.3-.7-.8-.1-.5,0-.9.2-1,.2,0,.5.3.7.8Z"/><path class="cls-5" d="m439.7,673.9c.1.5,0,.9-.2,1-.2,0-.5-.3-.7-.8-.1-.5,0-.9.2-1,.2,0,.5.3.7.8Z"/><path class="cls-5" d="m439.9,675c.1.5,0,.9-.2,1s-.5-.3-.7-.8c-.1-.5,0-.9.2-1,.2,0,.5.3.7.8Z"/><path class="cls-5" d="m440.9,673.6c.1.5,0,.9-.2,1-.2,0-.5-.3-.7-.8-.1-.5,0-.9.2-1,.2,0,.5.3.7.8Z"/><path class="cls-5" d="m441.2,674.7c.1.5,0,.9-.2,1-.2,0-.5-.3-.7-.8-.1-.5,0-.9.2-1,.2,0,.5.3.7.8Z"/><path class="cls-5" d="m442.1,673.3c.1.5,0,.9-.2,1-.2,0-.5-.3-.7-.8-.1-.5,0-.9.2-1,.2,0,.5.3.7.8Z"/><path class="cls-5" d="m442.4,674.3c.1.5,0,.9-.2,1s-.5-.3-.7-.8c-.1-.5,0-.9.2-1,.2,0,.5.3.7.8Z"/><path class="cls-5" d="m443.4,673c.1.5,0,.9-.2,1-.2,0-.5-.3-.7-.8-.1-.5,0-.9.2-1,.2,0,.5.3.7.8h0Z"/><path class="cls-5" d="m443.7,674c.1.5,0,.9-.2,1s-.5-.3-.7-.8c-.1-.5,0-.9.2-1,.2,0,.5.3.7.8Z"/><path class="cls-5" d="m444.6,672.6c.1.5,0,.9-.2,1-.2,0-.5-.3-.7-.8-.1-.5,0-.9.2-1,.2,0,.5.3.7.8Z"/><path class="cls-5" d="m444.9,673.7c.1.5,0,.9-.2,1-.2,0-.5-.3-.7-.8-.1-.5,0-.9.2-1,.2,0,.5.3.7.8h0Z"/><path class="cls-5" d="m445.9,672.3c.1.5,0,.9-.2,1-.2,0-.5-.3-.7-.8-.1-.5,0-.9.2-1,.2,0,.5.3.7.8Z"/><path class="cls-5" d="m446.2,673.3c.1.5,0,.9-.2,1-.2,0-.5-.3-.7-.8s0-.9.2-1c.2,0,.5.3.7.8Z"/><path class="cls-7" d="m197.5,66.9s62.6,37.9,128,0"/><line class="cls-6" x1="87.2" y1="580.1" x2="94.3" y2="580.3"/><line class="cls-6" x1="430.9" y1="580.1" x2="423.8" y2="580.3"/><path class="cls-11" d="m319.6,90.4c6.4-13.8,11.8-30.5,12.4-51.9l13.4,4.3.8,1.3,27.7,8,.9-.9,14.1,5.1s-58.6,183.1,58.3,184.9v13.4l-.8,1.1v415.9s-.4,4.6-3.1,7.9l-7.6,1.7c-211.7,56-360.1,0-360.1,0-3-3.6-3.6-8.4-3.6-8.4,0,0,.3-416.7,0-417.4-.3-.7-.4-.8-.4-.8v-13.4c116.9-1.8,58.3-184.9,58.3-184.9l14.1-5.1,1.4.9,31-9.9.5-1.5,14.1-2.9s.2,27.2,13.5,54.1c0,0,17.1,36.2,54.5,38.5,0,0,40,5,60.8-40h0Z"/><path class="cls-12" d="m176.2,42.2s.9,98.4,85.4,102.6c0,0,80.3,6.4,84.6-100.6"/><path class="cls-7" d="m178.1,40.7s.9,98,83.4,102.1c0,0,78.5,6.4,82.7-100.1"/><path class="cls-12" d="m446.4,254.8h-1.3c-.2,0-.5,0-.8,0-9.8,0-43.5-2.3-65.8-31.5-25.9-34-27.4-91.3-4.5-170.4l.2-.5h-.4l-27.1-7.8h-.3c0,0,0,.2,0,.2-1.6,36.5-12.2,63.8-31.5,80.9-20,17.8-44,19.2-50.9,19.2s-2.3,0-2.4,0c-43.7-2.1-64.7-30-74.5-52.9-9.6-22.4-10.9-44.7-11-49v-.3l-30.7,9.8c-.1,0-.3,0-.4,0l-.6-.4,1,2.8c22.2,77.7,20.5,134.3-5,168.1-22.4,29.6-56.4,31.9-66.2,31.9h-1.7s-.4,0-.4,0l.2.3c.3,1.7.3,133.3,0,391.2h.4c1.5-8.1,5.6-27.9,10.3-36.7,6.1-11.4,9-22.2,9.7-28.4v-.2s-5.6-.2-5.6-.2c-.4,0-.7-.3-.6-.7,0-.3.3-.7.7-.7h0l7.1.2c.4,0,.7.3.6.7,0,.4-.3.7-.7.7h-1.1s0,.2,0,.2c-.7,6.3-3.6,17.1-9.8,28.7-1.5,2.8-3,6.8-4.6,12.1v.4c-.1,0,.2-.1.2-.1l15,47.7h.1c3.8,1.1,38.7,10.3,94.3,15.1,18.6,1.6,40.8,2.8,66,2.8,47.8,0,106.1-4.2,170-17.8h.1s15-47.7,15-47.7h.4c0,.1-.1-.3-.1-.3-1.5-5.3-3.1-9.4-4.6-12.1-6.1-11.5-9.1-22.4-9.8-28.7v-.2s-1.7,0-1.7,0c-.4,0-.7-.3-.7-.7,0-.4.3-.7.6-.7l7.1-.2c.4,0,.7.3.7.7,0,.4-.3.7-.6.7l-5,.2v.2c.7,6.2,3.6,17,9.7,28.4,4.3,8,8,25,9.8,34.4h.5V255.7c0,0,0-.2,0-.3l.5-.6h0Z"/><path class="cls-7" d="m72.2,253.1h2.6c18.1,0,122.5-7.9,69.2-196.9l-1.3-3.7"/><path class="cls-16" d="m92.9,581.7s-2.6,19.8-9.4,34.7-7.8,39.6-11.3,56.3l.3-25.5s6.7-30.8,9.5-35.2c0,0,10.1-18,10.9-30.3h0Z"/><path class="cls-16" d="m425.6,581.7s2.5,19.8,9.4,34.7c6.9,15,7.8,39.6,11.3,56.3l-.3-25.5s-6.6-30.8-9.5-35.2c0,0-10.1-18-10.9-30.3h0Z"/><path class="cls-16" d="m82.6,635.2s8.7,37.2,9.2,38.6c.5,1.4,7.1,3.9,12.1,5s37.2,4.8,50.7,8.9c13.5,4.1,54.6,10.7,62.2,10.7s72.6-2.7,87.1-4.3c14.6-1.6,52.5-11.9,52.5-11.9,0,0-69.2,10-167.7,3.2,0,0-68.1-6.8-95-15.1,0,0-9.9-33.9-11.2-35h0Z"/><path class="cls-16" d="m324.6,78.2c5.9-22,1.5-28.5,1.5-28.5l.4-.7c3.2-4.6,4.9-8.6,5.4-10,0,.6,0,1.1.1,1.7-.7,14.5-3.5,26.8-7.4,37.5h0Z"/><path class="cls-16" d="m196,48s.2,18.2,3,16.8c0,0-.6,2.8,2.4,5.1,0,0,8.9,4,16.2,6.7,7.3,2.8,39.4,13.7,77.2,4,0,0-37.8,16-91.9-8.3,0,0-2.2-1.4.7,7.6,2.9,8.8,19.1,50,62.1,50l-8.8.2s-48.5-3.4-61.6-63.6c0,0-4.4-19.2-4-26.5,0,0,4.4,7.3,4.6,7.9h0Z"/><path class="cls-21" d="m179.7,232.9c-3.1,1.2-6.1,2.5-9.2,3.8v13.4c1-.4,1.9-.8,2.9-1.2v7.7c-4.4,1.9-8.8,3.9-13,6.1v-7.7c.9-.5,1.8-.9,2.7-1.3v-36.3c-.9.4-1.8.9-2.7,1.3v-7.8c6.9-3.5,13.9-6.6,21.1-9.3,1.9,1.3,3.9,2.6,5.8,3.9v17.9c-.7.9-1.4,1.9-2.1,2.8.7.4,1.4.9,2.1,1.3v16c1-.3,2-.7,2.9-1v7.7c-4.5,1.5-9,3.1-13.4,4.9v-7.7c1-.4,1.9-.8,2.9-1.2v-13.4h0Zm0-22.9c-3.1,1.2-6.1,2.5-9.2,3.8v15.2c3-1.4,6.1-2.6,9.2-3.8v-15.2Z"/><path class="cls-21" d="m198.6,203.6c-1,.3-2,.6-3,.9v-7.7c4.5-1.4,9.1-2.6,13.7-3.6v7.7c-1,.2-2,.5-3,.7v36.3c1-.2,2-.5,3-.7v7.7c-4.6,1-9.2,2.3-13.7,3.6v-7.7c1-.3,2-.6,3-.9v-36.3Z"/><path class="cls-21" d="m235.1,188.9c2,1.8,4,3.6,6,5.4v10.6c-2.6.2-5.2.4-7.9.7v-8.9c-3.5.4-7.1.9-10.6,1.4v14.3c4.1-.7,8.2-1.2,12.3-1.6,2.1,1.8,4.1,3.6,6.2,5.4v17.8c-2,2.1-4,4.2-6,6.4-4.8.5-9.5,1.1-14.3,1.9-2-1.6-4-3.2-6-4.8v-7.8c2.6-.5,5.2-1,7.8-1.4v6c3.5-.6,7.1-1,10.6-1.4v-14.3c-4.2.5-8.4,1.1-12.6,1.8-2-1.6-3.9-3.2-5.8-4.8v-17.9c2-2.4,4-4.7,6-7,4.7-.8,9.5-1.5,14.3-1.9h0Z"/><path class="cls-21" d="m265.8,232v-6c2.6.1,5.2.3,7.9.5v13.7c-8.9-.7-17.9-.9-26.8-.5v-7.7c1,0,2,0,2.9-.1v-36.3c-1,0-2,0-2.9.1v-7.7c8.9-.4,17.9-.3,26.8.5v13.7c-2.6-.2-5.2-.4-7.9-.5v-6c-2.7-.1-5.3-.2-8-.2v14.3c3.4,0,6.9.1,10.3.3v7.7c-3.4-.2-6.9-.3-10.3-.3v14.3c2.7,0,5.3,0,8,.2Z"/><path class="cls-21" d="m309.7,238.6v-36.3c-1-.2-2-.5-2.9-.7v-7.7c4.6,1.1,9.1,2.4,13.7,3.8v7.7c-1-.3-2-.6-3-.9v38.1c-2,1.4-3.9,2.8-5.9,4.2-4.4-1.2-8.9-2.2-13.3-3.1-2-2.4-4-4.7-6-7v-38.1c-1-.2-2-.3-3-.5v-7.7c4.6.7,9.3,1.6,13.9,2.6v7.7c-1-.2-2-.4-3-.6v36.3c3.2.7,6.4,1.4,9.5,2.2h0Z"/><path class="cls-21" d="m347.2,208.2c1.9,2.9,3.7,5.7,5.6,8.7v18.8c-1.9,1-3.7,2.1-5.6,3.1-3.6-1.7-7.2-3.3-10.9-4.8v13.4c1,.4,1.9.8,2.9,1.2v7.7c-4.4-1.9-8.9-3.6-13.3-5.1v-7.7c1,.3,2,.7,2.9,1v-36.3c-1-.4-2-.7-2.9-1v-7.7c7.2,2.5,14.4,5.4,21.3,8.7Zm-1.7,6.9c-3-1.4-6.1-2.7-9.2-4v15.3c3.1,1.2,6.1,2.6,9.2,4v-15.3Z"/><path class="cls-8" d="m179.7,232.9c-3.1,1.2-6.1,2.5-9.2,3.8v13.4c1-.4,1.9-.8,2.9-1.2v7.7c-4.4,1.9-8.8,3.9-13,6.1v-7.7c.9-.5,1.8-.9,2.7-1.3v-36.3c-.9.4-1.8.9-2.7,1.3v-7.8c6.9-3.5,13.9-6.6,21.1-9.3,1.9,1.3,3.9,2.6,5.8,3.9v17.9c-.7.9-1.4,1.9-2.1,2.8.7.4,1.4.9,2.1,1.3v16c1-.3,2-.7,2.9-1v7.7c-4.5,1.5-9,3.1-13.4,4.9v-7.7c1-.4,1.9-.8,2.9-1.2v-13.4h0Zm0-22.9c-3.1,1.2-6.1,2.5-9.2,3.8v15.2c3-1.4,6.1-2.6,9.2-3.8v-15.2Z"/><path class="cls-8" d="m198.6,203.6c-1,.3-2,.6-3,.9v-7.7c4.5-1.4,9.1-2.6,13.7-3.6v7.7c-1,.2-2,.5-3,.7v36.3c1-.2,2-.5,3-.7v7.7c-4.6,1-9.2,2.3-13.7,3.6v-7.7c1-.3,2-.6,3-.9v-36.3Z"/><path class="cls-8" d="m235.1,188.9c2,1.8,4,3.6,6,5.4v10.6c-2.6.2-5.2.4-7.9.7v-8.9c-3.5.4-7.1.9-10.6,1.4v14.3c4.1-.7,8.2-1.2,12.3-1.6,2.1,1.8,4.1,3.6,6.2,5.4v17.8c-2,2.1-4,4.2-6,6.4-4.8.5-9.5,1.1-14.3,1.9-2-1.6-4-3.2-6-4.8v-7.8c2.6-.5,5.2-1,7.8-1.4v6c3.5-.6,7.1-1,10.6-1.4v-14.3c-4.2.5-8.4,1.1-12.6,1.8-2-1.6-3.9-3.2-5.8-4.8v-17.9c2-2.4,4-4.7,6-7,4.7-.8,9.5-1.5,14.3-1.9h0Z"/><path class="cls-8" d="m265.8,232v-6c2.6.1,5.2.3,7.9.5v13.7c-8.9-.7-17.9-.9-26.8-.5v-7.7c1,0,2,0,2.9-.1v-36.3c-1,0-2,0-2.9.1v-7.7c8.9-.4,17.9-.3,26.8.5v13.7c-2.6-.2-5.2-.4-7.9-.5v-6c-2.7-.1-5.3-.2-8-.2v14.3c3.4,0,6.9.1,10.3.3v7.7c-3.4-.2-6.9-.3-10.3-.3v14.3c2.7,0,5.3,0,8,.2Z"/><path class="cls-8" d="m309.7,238.6v-36.3c-1-.2-2-.5-2.9-.7v-7.7c4.6,1.1,9.1,2.4,13.7,3.8v7.7c-1-.3-2-.6-3-.9v38.1c-2,1.4-3.9,2.8-5.9,4.2-4.4-1.2-8.9-2.2-13.3-3.1-2-2.4-4-4.7-6-7v-38.1c-1-.2-2-.3-3-.5v-7.7c4.6.7,9.3,1.6,13.9,2.6v7.7c-1-.2-2-.4-3-.6v36.3c3.2.7,6.4,1.4,9.5,2.2h0Z"/><path class="cls-8" d="m347.2,208.2c1.9,2.9,3.7,5.7,5.6,8.7v18.8c-1.9,1-3.7,2.1-5.6,3.1-3.6-1.7-7.2-3.3-10.9-4.8v13.4c1,.4,1.9.8,2.9,1.2v7.7c-4.4-1.9-8.9-3.6-13.3-5.1v-7.7c1,.3,2,.7,2.9,1v-36.3c-1-.4-2-.7-2.9-1v-7.7c7.2,2.5,14.4,5.4,21.3,8.7Zm-1.7,6.9c-3-1.4-6.1-2.7-9.2-4v15.3c3.1,1.2,6.1,2.6,9.2,4v-15.3Z"/><path class="cls-14" d="m179.7,232.9c-3.1,1.2-6.1,2.5-9.2,3.8v13.4c1-.4,1.9-.8,2.9-1.2v7.7c-4.4,1.9-8.8,3.9-13,6.1v-7.7c.9-.5,1.8-.9,2.7-1.3v-36.3c-.9.4-1.8.9-2.7,1.3v-7.8c6.9-3.5,13.9-6.6,21.1-9.3,1.9,1.3,3.9,2.6,5.8,3.9v17.9c-.7.9-1.4,1.9-2.1,2.8.7.4,1.4.9,2.1,1.3v16c1-.3,2-.7,2.9-1v7.7c-4.5,1.5-9,3.1-13.4,4.9v-7.7c1-.4,1.9-.8,2.9-1.2v-13.4h0Zm0-22.9c-3.1,1.2-6.1,2.5-9.2,3.8v15.2c3-1.4,6.1-2.6,9.2-3.8v-15.2Z"/><path class="cls-14" d="m198.6,203.6c-1,.3-2,.6-3,.9v-7.7c4.5-1.4,9.1-2.6,13.7-3.6v7.7c-1,.2-2,.5-3,.7v36.3c1-.2,2-.5,3-.7v7.7c-4.6,1-9.2,2.3-13.7,3.6v-7.7c1-.3,2-.6,3-.9v-36.3Z"/><path class="cls-14" d="m235.1,188.9c2,1.8,4,3.6,6,5.4v10.6c-2.6.2-5.2.4-7.9.7v-8.9c-3.5.4-7.1.9-10.6,1.4v14.3c4.1-.7,8.2-1.2,12.3-1.6,2.1,1.8,4.1,3.6,6.2,5.4v17.8c-2,2.1-4,4.2-6,6.4-4.8.5-9.5,1.1-14.3,1.9-2-1.6-4-3.2-6-4.8v-7.8c2.6-.5,5.2-1,7.8-1.4v6c3.5-.6,7.1-1,10.6-1.4v-14.3c-4.2.5-8.4,1.1-12.6,1.8-2-1.6-3.9-3.2-5.8-4.8v-17.9c2-2.4,4-4.7,6-7,4.7-.8,9.5-1.5,14.3-1.9h0Z"/><path class="cls-14" d="m265.8,232v-6c2.6.1,5.2.3,7.9.5v13.7c-8.9-.7-17.9-.9-26.8-.5v-7.7c1,0,2,0,2.9-.1v-36.3c-1,0-2,0-2.9.1v-7.7c8.9-.4,17.9-.3,26.8.5v13.7c-2.6-.2-5.2-.4-7.9-.5v-6c-2.7-.1-5.3-.2-8-.2v14.3c3.4,0,6.9.1,10.3.3v7.7c-3.4-.2-6.9-.3-10.3-.3v14.3c2.7,0,5.3,0,8,.2Z"/><path class="cls-14" d="m309.7,238.6v-36.3c-1-.2-2-.5-2.9-.7v-7.7c4.6,1.1,9.1,2.4,13.7,3.8v7.7c-1-.3-2-.6-3-.9v38.1c-2,1.4-3.9,2.8-5.9,4.2-4.4-1.2-8.9-2.2-13.3-3.1-2-2.4-4-4.7-6-7v-38.1c-1-.2-2-.3-3-.5v-7.7c4.6.7,9.3,1.6,13.9,2.6v7.7c-1-.2-2-.4-3-.6v36.3c3.2.7,6.4,1.4,9.5,2.2h0Z"/><path class="cls-14" d="m347.2,208.2c1.9,2.9,3.7,5.7,5.6,8.7v18.8c-1.9,1-3.7,2.1-5.6,3.1-3.6-1.7-7.2-3.3-10.9-4.8v13.4c1,.4,1.9.8,2.9,1.2v7.7c-4.4-1.9-8.9-3.6-13.3-5.1v-7.7c1,.3,2,.7,2.9,1v-36.3c-1-.4-2-.7-2.9-1v-7.7c7.2,2.5,14.4,5.4,21.3,8.7Zm-1.7,6.9c-3-1.4-6.1-2.7-9.2-4v15.3c3.1,1.2,6.1,2.6,9.2,4v-15.3Z"/><path class="cls-21" d="m179.7,232.9c-3.1,1.2-6.1,2.5-9.2,3.8v13.4c1-.4,1.9-.8,2.9-1.2v7.7c-4.4,1.9-8.8,3.9-13,6.1v-7.7c.9-.5,1.8-.9,2.7-1.3v-36.3c-.9.4-1.8.9-2.7,1.3v-7.8c6.9-3.5,13.9-6.6,21.1-9.3,1.9,1.3,3.9,2.6,5.8,3.9v17.9c-.7.9-1.4,1.9-2.1,2.8.7.4,1.4.9,2.1,1.3v16c1-.3,2-.7,2.9-1v7.7c-4.5,1.5-9,3.1-13.4,4.9v-7.7c1-.4,1.9-.8,2.9-1.2v-13.4h0Zm0-22.9c-3.1,1.2-6.1,2.5-9.2,3.8v15.2c3-1.4,6.1-2.6,9.2-3.8v-15.2Z"/><path class="cls-21" d="m198.6,203.6c-1,.3-2,.6-3,.9v-7.7c4.5-1.4,9.1-2.6,13.7-3.6v7.7c-1,.2-2,.5-3,.7v36.3c1-.2,2-.5,3-.7v7.7c-4.6,1-9.2,2.3-13.7,3.6v-7.7c1-.3,2-.6,3-.9v-36.3Z"/><path class="cls-21" d="m235.1,188.9c2,1.8,4,3.6,6,5.4v10.6c-2.6.2-5.2.4-7.9.7v-8.9c-3.5.4-7.1.9-10.6,1.4v14.3c4.1-.7,8.2-1.2,12.3-1.6,2.1,1.8,4.1,3.6,6.2,5.4v17.8c-2,2.1-4,4.2-6,6.4-4.8.5-9.5,1.1-14.3,1.9-2-1.6-4-3.2-6-4.8v-7.8c2.6-.5,5.2-1,7.8-1.4v6c3.5-.6,7.1-1,10.6-1.4v-14.3c-4.2.5-8.4,1.1-12.6,1.8-2-1.6-3.9-3.2-5.8-4.8v-17.9c2-2.4,4-4.7,6-7,4.7-.8,9.5-1.5,14.3-1.9h0Z"/><path class="cls-21" d="m265.8,232v-6c2.6.1,5.2.3,7.9.5v13.7c-8.9-.7-17.9-.9-26.8-.5v-7.7c1,0,2,0,2.9-.1v-36.3c-1,0-2,0-2.9.1v-7.7c8.9-.4,17.9-.3,26.8.5v13.7c-2.6-.2-5.2-.4-7.9-.5v-6c-2.7-.1-5.3-.2-8-.2v14.3c3.4,0,6.9.1,10.3.3v7.7c-3.4-.2-6.9-.3-10.3-.3v14.3c2.7,0,5.3,0,8,.2Z"/><path class="cls-21" d="m309.7,238.6v-36.3c-1-.2-2-.5-2.9-.7v-7.7c4.6,1.1,9.1,2.4,13.7,3.8v7.7c-1-.3-2-.6-3-.9v38.1c-2,1.4-3.9,2.8-5.9,4.2-4.4-1.2-8.9-2.2-13.3-3.1-2-2.4-4-4.7-6-7v-38.1c-1-.2-2-.3-3-.5v-7.7c4.6.7,9.3,1.6,13.9,2.6v7.7c-1-.2-2-.4-3-.6v36.3c3.2.7,6.4,1.4,9.5,2.2h0Z"/><path class="cls-21" d="m347.2,208.2c1.9,2.9,3.7,5.7,5.6,8.7v18.8c-1.9,1-3.7,2.1-5.6,3.1-3.6-1.7-7.2-3.3-10.9-4.8v13.4c1,.4,1.9.8,2.9,1.2v7.7c-4.4-1.9-8.9-3.6-13.3-5.1v-7.7c1,.3,2,.7,2.9,1v-36.3c-1-.4-2-.7-2.9-1v-7.7c7.2,2.5,14.4,5.4,21.3,8.7Zm-1.7,6.9c-3-1.4-6.1-2.7-9.2-4v15.3c3.1,1.2,6.1,2.6,9.2,4v-15.3Z"/><path class="cls-4" d="m217.7,289.6h28.7l8.3,8.1v22.7l-29.6,26.3v4.6h14.5v-7.3h15.3v21.2h-44.9v-25.5l29.6-26.6v-9.3h-14.5v6h-15.1v-12l7.7-8.3h0Z"/><path class="cls-4" d="m263.5,357.1v-12h14.9v6h15.4v-17h-15.1v-15h15.1v-14.3h-15.1v6h-15.2v-13.1l8.7-8h28.6l7.5,8.3v24.4l-3.5,3.4,3.5,3.4v28.1l-7.9,8h-28.4l-8.5-8.1h0Z"/><path class="cls-3" d="m217.7,289.6h28.7l8.3,8.1v22.7l-29.6,26.3v4.6h14.5v-7.3h15.3v21.2h-44.9v-25.5l29.6-26.6v-9.3h-14.5v6h-15.1v-12l7.7-8.3h0Z"/><path class="cls-3" d="m263.5,357.1v-12h14.9v6h15.4v-17h-15.1v-15h15.1v-14.3h-15.1v6h-15.2v-13.1l8.7-8h28.6l7.5,8.3v24.4l-3.5,3.4,3.5,3.4v28.1l-7.9,8h-28.4l-8.5-8.1h0Z"/><path class="cls-21" d="m217.7,289.6h28.7l8.3,8.1v22.7l-29.6,26.3v4.6h14.5v-7.3h15.3v21.2h-44.9v-25.5l29.6-26.6v-9.3h-14.5v6h-15.1v-12l7.7-8.3h0Z"/><path class="cls-21" d="m263.5,357.1v-12h14.9v6h15.4v-17h-15.1v-15h15.1v-14.3h-15.1v6h-15.2v-13.1l8.7-8h28.6l7.5,8.3v24.4l-3.5,3.4,3.5,3.4v28.1l-7.9,8h-28.4l-8.5-8.1h0Z"/><path class="cls-21" d="m217.7,289.6h28.7l8.3,8.1v22.7l-29.6,26.3v4.6h14.5v-7.3h15.3v21.2h-44.9v-25.5l29.6-26.6v-9.3h-14.5v6h-15.1v-12l7.7-8.3h0Z"/><path class="cls-21" d="m263.5,357.1v-12h14.9v6h15.4v-17h-15.1v-15h15.1v-14.3h-15.1v6h-15.2v-13.1l8.7-8h28.6l7.5,8.3v24.4l-3.5,3.4,3.5,3.4v28.1l-7.9,8h-28.4l-8.5-8.1h0Z"/><path class="cls-20" d="m313.3,147.8c.4,1.3.8,2.5,1.2,3.8h-2.7c-.4-1.2-.7-2.3-1.1-3.5h-.8c-.2,1.2-.4,2.3-.5,3.5h-2.5c.6-3.2,1.1-6.3,1.7-9.5h3.9c.5,0,.9,0,1.3.2.6.2,1,.6,1.2,1.2,0,.3,0,.6,0,.8,0,.5-.2,1.1-.3,1.6-.1.6-.4,1-.8,1.4-.2.1-.3.3-.5.4h0Zm-3.1-1.4s0,0,0,0c.4,0,.8,0,1.2,0,.5,0,.8-.3.9-.8,0-.3,0-.6,0-.9-.1-.4-.4-.6-.8-.6h-1s0,0-.1,0c-.1.8-.2,1.5-.3,2.2h0Z"/><path class="cls-20" d="m319.2,148.4h2.4c0,0,0,.2,0,.2,0,.5.1.9.7,1,.4.1.9.1,1.3,0,0,0,.1,0,.2,0,.5-.2.5-.8.2-1.1-.1-.1-.2-.2-.3-.3-.3-.2-.7-.3-1.1-.5-.4-.1-.8-.3-1.2-.4s-.8-.4-1-.7c-.4-.4-.5-.9-.5-1.4s0-.8.2-1.2c.3-.8.9-1.4,1.6-1.7.5-.2.9-.3,1.4-.3.5,0,1.1,0,1.6,0,.5,0,1,.1,1.4.4.6.3,1,.7,1.1,1.4s0,1.2-.3,1.8c0,0,0,0,0,0h-2.3c0,0,0-.1,0-.1.2-.3.2-.6.2-.9,0-.2-.2-.4-.4-.5-.2-.1-.4-.1-.7-.1s-.5,0-.7,0c0,0-.2,0-.3.1-.5.3-.6.9-.1,1.3.3.2.6.3.9.4.4.1.9.2,1.3.4.4.1.8.3,1.1.6.5.4.7.9.7,1.5,0,.5,0,1-.2,1.5-.3.8-.9,1.3-1.6,1.6-.5.2-1,.3-1.6.3-.5,0-1,0-1.4,0s-1-.1-1.4-.3c-.8-.3-1.1-.9-1.2-1.6,0-.4,0-.9,0-1.3,0,0,0,0,0,0h0s0,0,0,0Z"/><path class="cls-20" d="m326.9,151.6c.6-3.2,1.1-6.3,1.7-9.5h6.6c-.1.7-.2,1.4-.4,2.1h-4.2c-.1.6-.2,1.2-.3,1.8h3.5c-.1.7-.2,1.4-.4,2.1h-3.5c0,.5-.2,1-.3,1.5h4.2c-.1.7-.2,1.4-.4,2.1h-6.6Z"/><path class="cls-20" d="m336.4,142h2.4c0,.3-.1.6-.1.9-.2,1-.4,2-.5,2.9-.1.7-.3,1.4-.4,2.2,0,.2,0,.5,0,.8,0,.5.2.8.8.9.3,0,.6,0,.9,0,.3-.1.6-.3.8-.6.2-.3.2-.7.3-1,.2-1.1.4-2.2.6-3.4.1-.8.3-1.6.4-2.4,0,0,0-.1,0-.2h2.1c-.5.7-.9,1.4-1.4,2.2.4,0,.8.1,1.3.2,0,0,0,.1,0,.1-.2,1.3-.4,2.6-.7,3.8,0,.4-.2.9-.4,1.3-.5,1-1.2,1.6-2.2,1.9-.7.2-1.4.2-2.1.2-.4,0-.9-.1-1.3-.2-.8-.3-1.3-.9-1.4-1.8,0-.5,0-1.1,0-1.6.2-1,.4-2,.5-3,.2-1,.3-1.9.5-2.9,0,0,0,0,0-.1h0Z"/><path class="cls-20" d="m346.2,148.7c-.2,1-.3,1.9-.5,2.9h-2.4c.4-2.3.8-4.7,1.2-7,.4,0,.9.1,1.3.2-.3-.9-.6-1.7-.9-2.6,0,0,.1,0,.1,0h4.1c.4,0,.9,0,1.3.2.7.3,1.1.8,1.1,1.6,0,.3,0,.7,0,1,0,.4-.2.8-.2,1.2-.1.8-.6,1.4-1.2,1.9-.5.4-1.1.6-1.7.6-.3,0-.6,0-.9,0h-1.2Zm.4-2.1s0,0,0,0c.5,0,.9,0,1.4,0,.5,0,.8-.3.9-.8,0-.3.1-.6.2-.9,0-.1,0-.2,0-.3-.1-.3-.4-.4-.7-.4h-1.3s0,0,0,0c-.1.8-.3,1.6-.4,2.4h0Z"/><path class="cls-20" d="m317.7,151.6h-2.4c.6-3.2,1.1-6.3,1.7-9.5h2.4c-.5,3.2-1.1,6.3-1.7,9.5h0Z"/><path class="cls-20" d="m195.2,149.2s0,0,.1-.1c1.3-1.8,2.2-3.8,2.7-6,0-.1,0-.2,0-.3,0,0,0-.1,0-.2,0-.1.1-.2.3-.2.1,0,.2,0,.3.2,0,0,0,.1,0,.2.1.6.3,1.2.3,1.7.1,1,.2,1.9.1,2.9,0,1.3-.3,2.6-.8,3.9-.4,1.3-1,2.5-1.8,3.6,0,.1-.2.2-.3.3-1.4.8-2.9,1.4-4.5,1.8-.6.1-1.3.2-1.9.3-.2,0-.5,0-.7,0,0,0-.2,0-.3,0,.1,0,.2,0,.3,0,1.1.2,2.2.2,3.3.2.2,0,.5,0,.7,0,.1,0,.2,0,.3,0,.1,0,.3,0,.3.2,0,.1,0,.2,0,.3,0,0,0,0-.1.1-.8.6-1.6,1.2-2.6,1.6-.3.2-.6.3-1,.5-.1,0-.3,0-.4,0-.6-.1-1.2-.3-1.9-.4,0,0-.1,0-.2,0,0,0,0,0,0,0,0,0,0,0,0,.1.1.2.2.4.3.6,0,0,0,.1,0,.2,0,.1-.1.2-.3.3-.2,0-.3,0-.5.1-.8.2-1.6.2-2.4.3h-.1c-.2,0-.3,0-.3-.2s0-.2,0-.3c0,0,0,0,0-.2,0,0,0,0,0,.1,0,.1,0,.2,0,.3,0,.2-.2.2-.3.2s-.3,0-.5,0c-.5,0-1,0-1.4-.1-.4,0-.7-.1-1.1-.2,0,0,0,0-.1,0-.1,0-.2-.2-.2-.4,0,0,0-.1,0-.2l.3-.6c0,0-.1,0-.2,0-.5.1-1.1.3-1.6.4-.6.1-.4.1-.9-.1-1.2-.5-2.3-1.2-3.3-2,0,0,0,0-.1-.1-.1-.1-.1-.2,0-.4,0-.1.2-.2.3-.2s.1,0,.2,0c.8.1,1.6.1,2.4,0,.6,0,1.3-.1,1.9-.2,0,0-.1,0-.2,0-.2,0-.4,0-.6,0-1,0-2-.3-2.9-.6-1.3-.4-2.5-.9-3.7-1.6-.2,0-.3-.2-.4-.4-1-1.4-1.7-3-2.1-4.7-.2-.8-.3-1.6-.4-2.4,0-.8,0-1.6,0-2.4,0-.9.2-1.8.4-2.7,0,0,0,0,0-.1,0-.1.2-.2.3-.2.1,0,.2,0,.3.2,0,.1,0,.2,0,.4.4,1.9,1.1,3.7,2.2,5.4.2.2.3.5.5.7,0,0,0,0,0,.1,0,0,0-.1,0-.2-.4-.6-.7-1.3-1-1.9-.5-1.2-.8-2.4-1-3.6-.2-1.1-.2-2.2-.2-3.3,0-.3,0-.6,0-.9,0-.1,0-.3.1-.4,1.9-3.2,4.6-5.4,8.1-6.6,0,0,.1,0,.2,0,.1,0,.2,0,.3.1,0,.1,0,.2,0,.4,0,0,0,0,0,0-.9.9-1.5,1.9-2,3-.5,1.1-.9,2.3-1.1,3.5-.2,1.2-.3,2.5-.3,3.7,0,1.2.2,2.4.5,3.5.3,1.1.7,2.2,1.3,3.3.5.8,1,1.5,1.7,2.2.6.6,1.4,1.2,2.2,1.5.7.3,1.4.5,2.2.5.9,0,1.7-.2,2.5-.6.8-.4,1.6-1,2.2-1.6.7-.8,1.3-1.7,1.8-2.6.5-1.1.9-2.1,1.1-3.3.3-1.3.4-2.6.4-3.9,0-.6,0-1.2-.1-1.8-.3-2-.9-3.9-2-5.7-.4-.6-.8-1.1-1.3-1.6,0,0,0,0-.1-.1,0-.1,0-.2,0-.4,0-.1.2-.2.3-.1,0,0,.1,0,.2,0,1.6.5,3.1,1.3,4.4,2.4,1.5,1.2,2.8,2.6,3.7,4.2,0,.1.1.2.1.4,0,.4,0,.8.1,1.3,0,.6,0,1.2,0,1.9-.2,1.9-.7,3.7-1.5,5.4-.2.4-.4.8-.6,1.2,0,0,0,.1,0,.2,0,0,0,0,0,.1,0,0,0,0,0-.1h0Z"/><path class="cls-20" d="m182.2,144.2c0,0,0-.1,0-.2-.1-.4-.2-.7-.3-1.1,0,0,0,0,0-.1,0-.1,0-.2.1-.3.1-.1.2-.2.4-.3.5-.4.9-.9,1.4-1.3,0,0,0,0,.1-.1.1-.1.3-.1.4,0,0,0,0,0,0,0,.6.5,1.1,1,1.7,1.5.2.2.2.3.2.6-.1.3-.2.7-.3,1,0,0,0,.1,0,.2,0,0,.2-.1.2-.2.1,0,.2-.2.3-.3.2-.2.5-.1.6.1.1.4.3.7.4,1.1,0,0,0,.1,0,.2,0,.1,0,.3-.1.4,0,0-.2.1-.3.2-.3.3-.5.6-.7.9-.4.6-.7,1.2-.9,1.9-.3.9-.6,1.9-.8,2.9,0,.3-.1.6-.2.9,0,0,0,0,0,.1,0,.1-.2.2-.3.2-.1,0-.2-.1-.3-.2,0-.2,0-.3,0-.5-.2-1.3-.6-2.6-1.1-3.9-.2-.5-.5-1-.8-1.5-.3-.4-.6-.8-.9-1.1-.1-.1-.2-.3-.1-.4.1-.4.3-.8.4-1.2,0-.2.2-.3.4-.2,0,0,.1,0,.2,0,.1.1.2.2.4.3,0,0,0,0,.1.1h0Z"/></svg>