<?xml version="1.0" encoding="UTF-8"?><svg id="Primary_Color" xmlns="http://www.w3.org/2000/svg" xmlns:xlink="http://www.w3.org/1999/xlink" viewBox="0 0 518.7 743.8"><defs><style>.cls-1{clip-path:url(#clippath);}.cls-2{fill:none;}.cls-2,.cls-3,.cls-4,.cls-5,.cls-6,.cls-7,.cls-8,.cls-9{stroke-width:0px;}.cls-10{clip-path:url(#clippath-1);}.cls-4{fill:gray;}.cls-5{fill:#d3d3d3;}.cls-6{fill:#a9a9a9;}.cls-7{fill:#fbd036;}.cls-8{fill:#f1f2f2;}.cls-9{fill:#e6e7e8;}</style><clipPath id="clippath"><path class="cls-2" d="m479.1,261.9c-1.4-1.5-3.3-2.4-5.4-2.6-17.6-1-33.6-6.6-45.5-12.1-16.8-7.8-32.1-17.9-40.5-32.3-23.1-39.7-14.3-120.9-8.7-156.9.6-3.9-1.6-7.8-5.4-9.1l-30.2-10.5c-5-1.8-10.3,1.9-10.6,7.3-2.3,38.6-10.8,124.8-71.6,122.1h0c0,0,0,0,0,0h0c-.2,0-.4,0-.6,0h-.1s0,0,0,0h0c0,0-.1,0-.2,0,0,0-.1,0-.2,0h-.2c-.1,0-.2,0-.3,0-.1,0-.2,0-.3,0h-.2c0,0-.1,0-.2,0,0,0-.1,0-.2,0h-.1s0,0-.1,0c-.2,0-.4,0-.6,0h-.1c-60.8,2.8-69.4-83.4-71.6-122.1-.3-5.4-5.6-9.1-10.6-7.3l-30.1,10.5c-3.7,1.3-6,5.2-5.3,9.1,5.8,35.6,16.8,113.3-6.3,152.9-8.4,14.4-19.8,27.7-36.6,35.5-11.9,5.6-33,11.7-51.9,12.9-2.2.1-4.1,1.1-5.5,2.6l-2.1,1v447.4h45.1c53.2,2.8,398.7,0,398.7,0v-448.7l-2.2.3h0Z"/></clipPath><clipPath id="clippath-1"><path class="cls-2" d="m479.1,261.9c-1.4-1.5-3.3-2.4-5.4-2.6-17.6-1-33.6-6.6-45.5-12.1-16.8-7.8-32.1-17.9-40.5-32.3-23.1-39.7-14.3-120.9-8.7-156.9.6-3.9-1.6-7.8-5.4-9.1l-30.2-10.5c-5-1.8-10.3,1.9-10.6,7.3-2.3,38.6-10.8,124.8-71.6,122.1h0c0,0,0,0,0,0h0c-.2,0-.4,0-.6,0h-.1s0,0,0,0h0c0,0-.1,0-.2,0,0,0-.1,0-.2,0h-.2c-.1,0-.2,0-.3,0-.1,0-.2,0-.3,0h-.2c0,0-.1,0-.2,0,0,0-.1,0-.2,0h-.1s0,0-.1,0c-.2,0-.4,0-.6,0h-.1c-60.8,2.8-69.4-83.4-71.6-122.1-.3-5.4-5.6-9.1-10.6-7.3l-30.1,10.5c-3.7,1.3-6,5.2-5.3,9.1,5.8,35.6,16.8,113.3-6.3,152.9-8.4,14.4-19.8,27.7-36.6,35.5-11.9,5.6-33,11.7-51.9,12.9-2.2.1-4.1,1.1-5.5,2.6l-2.1,1v447.4h45.1c53.2,2.8,398.7,0,398.7,0v-448.7l-2.2.3h0Z"/></clipPath></defs><path class="cls-3" d="m479.1,261.9c-1.4-1.5-3.3-2.4-5.4-2.6-17.6-1-33.6-6.6-45.5-12.1-16.8-7.8-32.1-17.9-40.5-32.3-23.1-39.7-14.3-120.9-8.7-156.9.6-3.9-1.6-7.8-5.4-9.1l-30.2-10.5c-5-1.8-10.3,1.9-10.6,7.3-2.3,38.6-10.8,124.8-71.6,122.1h0c0,0,0,0,0,0h0c-.2,0-.4,0-.6,0h-.1s0,0,0,0h0c0,0-.1,0-.2,0,0,0-.1,0-.2,0h-.2c-.1,0-.2,0-.3,0-.1,0-.2,0-.3,0h-.2c0,0-.1,0-.2,0,0,0-.1,0-.2,0h-.1s0,0-.1,0c-.2,0-.4,0-.6,0h-.1c-60.8,2.8-69.4-83.4-71.6-122.1-.3-5.4-5.6-9.1-10.6-7.3l-30.1,10.5c-3.7,1.3-6,5.2-5.3,9.1,5.8,35.6,16.8,113.3-6.3,152.9-8.4,14.4-19.8,27.7-36.6,35.5-11.9,5.6-33,11.7-51.9,12.9-2.2.1-4.1,1.1-5.5,2.6l-2.1,1v447.4h45.1c53.2,2.8,398.7,0,398.7,0v-448.7l-2.2.3h0Z"/><path class="cls-5" d="m479.1,261.9c-1.4-1.5-3.3-2.4-5.4-2.6-17.6-1-33.6-6.6-45.5-12.1-16.8-7.8-32.1-17.9-40.5-32.3-23.1-39.7-14.3-120.9-8.7-156.9.6-3.9-1.6-7.8-5.4-9.1l-30.2-10.5c-5-1.8-10.3,1.9-10.6,7.3-2.3,38.6-10.8,124.8-71.6,122.1h0c0,0,0,0,0,0h0c-.2,0-.4,0-.6,0h-.1s0,0,0,0h0c0,0-.1,0-.2,0,0,0-.1,0-.2,0h-.2c-.1,0-.2,0-.3,0-.1,0-.2,0-.3,0h-.2c0,0-.1,0-.2,0,0,0-.1,0-.2,0h-.1s0,0-.1,0c-.2,0-.4,0-.6,0h-.1c-60.8,2.8-69.4-83.4-71.6-122.1-.3-5.4-5.6-9.1-10.6-7.3l-30.1,10.5c-3.7,1.3-6,5.2-5.3,9.1,5.8,35.6,16.8,113.3-6.3,152.9-8.4,14.4-19.8,27.7-36.6,35.5-11.9,5.6-33,11.7-51.9,12.9-2.2.1-4.1,1.1-5.5,2.6l-2.1,1v447.4h45.1c53.2,2.8,398.7,0,398.7,0v-448.7l-2.2.3h0Z"/><g class="cls-1"><path class="cls-8" d="m-9.7,751.4v-2.1h0v1l18.5-16.9h0l5.7,5.2h0l-13.9,12.8h2.3l12.8-11.7,5.7,5.2h0l-7.1,6.5h2.3l5.9-5.4,5.7,5.2-.2.2h12.7V5.6h-12.7L9.4,22.8l-.6.5-.6.5-5.7,5.2h0l-.6.5h0l-.6.5-5.7,5.2-.6.5h0l-.6.5h0l-4.1,3.8v-10.5l5.3-4.8.6-.5h0l.6-.5h0l5.7-5.2.6-.5.6-.5,13-11.9h-2.3L2.5,16.5l-.6.5-.6.5-5.7,5.2-.6.5h0l-.6.5-4.1,3.8h0v-10.5l5.3-4.8.6-.5.6-.5L2.9,5.6H.6l-5,4.6-.6.5-.6.5-4.1,3.8V5.6h-11.5v745.8h11.5Zm38.4-12.4v11.5h0v-1l-5-4.6-.6-.5h0l-.6-.5h0l-5.7-5.2-.6-.5-.6-.5-5.7-5.2-.6-.5-.6-.5-18.5-16.9v-.8l5.3-4.8h0l33.1,30.3h0Zm0-12.6v10.5l-32-29.3h0l5.7-5.2h0l26.3,24h0Zm0-13.4v11.3l-25.1-23,5.7-5.2,19,17.3.4.4v-1h0v.3h0Zm0-48.6v11.5h0v-1l-5-4.6-.6-.5h0l-.6-.5h0l-5.7-5.2-.6-.5-.6-.5-5.7-5.2-.6-.5-.6-.5-18.5-16.9v-.8l5.3-4.8h0l33.1,30.3h0Zm0-12.6v10.5l-32-29.3h0l5.7-5.2h0l26.3,24h0Zm0-13.4v11.3l-25.1-23,5.7-5.2,19,17.3.4.4v-1h0v.3h0Zm0-48.6v11.5h0v-1l-5-4.6-.6-.5h0l-.6-.5h0l-5.7-5.2-.6-.5-.6-.5-5.7-5.2-.6-.5-.6-.5-18.5-16.9v-.8l5.3-4.8h0l33.1,30.3h0Zm0-12.6v10.5l-32-29.3h0l5.7-5.2h0l26.3,24h0Zm0-13.4v11.3l-25.1-23,5.7-5.2,19,17.3.4.4v-1h0v.3h0Zm0-48.6v11.5h0v-1l-5-4.6-.6-.5h0l-.6-.5h0l-5.7-5.2-.6-.5-.6-.5-5.7-5.2-.6-.5-.6-.5-18.5-16.9v-.8l5.3-4.8h0l33.1,30.3h0Zm0-12.6v10.5l-32-29.3h0l5.7-5.2h0l26.3,24h0Zm0-13.4v11.3l-25.1-23,5.7-5.2,19,17.3.4.4v-1h0v.3h0Zm0-48.6v11.5h0v-1l-5-4.6-.6-.5h0l-.6-.5h0l-5.7-5.2-.6-.5-.6-.5-5.7-5.2-.6-.5-.6-.5-18.5-16.9v-.8l5.3-4.8h0l33.1,30.3h0Zm0-12.6v10.5l-32-29.3h0l5.7-5.2h0l26.3,24h0Zm0-13.4v11.3l-25.1-23,5.7-5.2,19,17.3.4.4v-1h0v.3h0Zm0-48.6v11.5h0v-1l-5-4.6-.6-.5h0l-.6-.5h0l-5.7-5.2-.6-.5-.6-.5-5.7-5.2-.6-.5-.6-.5-18.5-16.9v-.8l5.3-4.8h0l33.1,30.3h0Zm0-12.6v10.5l-32-29.3h0l5.7-5.2h0l26.3,24h0Zm0-13.4v11.3l-25.1-23,5.7-5.2,19,17.3.4.4v-1h0v.3Zm0-48.6v11.5h0v-1l-5-4.6-.6-.5h0l-.6-.5h0l-5.7-5.2-.6-.5-.6-.5-5.7-5.2-.6-.5-.6-.5-18.5-16.9v-.8l5.3-4.8h0l33.1,30.3h0Zm0-12.6v10.5l-32-29.3h0l5.7-5.2h0l26.3,24h0Zm0-13.4v11.3l-25.1-23,5.7-5.2,19,17.3.4.4v-1h0v.3Zm0-48.6v11.5h0v-1l-5-4.6-.6-.5h0l-.6-.5h0l-5.7-5.2-.6-.5-.6-.5-5.7-5.2-.6-.5-.6-.5-18.5-16.9v-.8l5.3-4.8h0l33.1,30.3h0Zm0-12.6v10.5L-3.2,185.6h0l5.7-5.2h0l26.3,24h0Zm0-13.4v11.3l-25.1-23,5.7-5.2,19,17.3.4.4v-1h0v.3Zm0-48.6v11.6h0v-1.1l-5-4.6-.6-.5h0l-.6-.5h0l-5.7-5.2-.6-.5-.6-.5-5.7-5.2-.6-.5-.6-.5-18.5-16.9v-.8l5.3-4.8h0l33.1,30.3h0Zm0-12.6v10.5L-3.2,111h0l5.7-5.2h0l26.3,24h0Zm0-13.4v11.3L3.6,104.7l5.7-5.2,19,17.3.4.4v-1.1h0v.3Zm0-48.6v11.6h0v-1.1l-5-4.6-.6-.5h0l-.6-.5h0l-5.7-5.2-.6-.5-.6-.5-5.7-5.2-.6-.5-.6-.5-18.5-16.9v-.8l5.3-4.8h0l33.1,30.3h0Zm0-12.6v10.5L-3.2,36.4h0l5.7-5.2h0l26.3,24h0Zm0-13.4v11.3L3.6,30.2l5.7-5.2,19,17.3.4.4v-1.1h0v.3ZM-9.7,82.1v-4h0v1.1l18.5-16.9h0l5.7,5.2h0L.6,80.2h0l-5,4.6-.6.5-.6.5-4.1,3.8v-7.6h0Zm0,20.1v-10.5l5.3-4.8.6-.5.6-.5,6.2-5.6h0l12.8-11.7,5.7,5.2h0l-7.1,6.5h0l-11.9,10.9-.6.5-.6.5-5.7,5.2-.6.5h0l-.6.5-4.1,3.8h0Zm0,2.1l5.3-4.8.6-.5h0l.6-.5h0l5.7-5.2.6-.5.6-.5,13-11.9h0l5.9-5.4,5.7,5.2-.2.2-18.8,17.2-.6.5-.6.5-5.7,5.2h0l-.6.5h0l-.6.5-5.7,5.2-.6.5h0l-.6.5h0l-4.1,3.8v-10.5h0Zm0,52.3v-4h0v1.1l18.5-16.9h0l5.7,5.2h0l-13.9,12.8h0l-5,4.6-.6.5-.6.5-4.1,3.8v-7.6h0Zm0,20.1v-10.5l5.3-4.8.6-.5.6-.5,6.2-5.6h0l12.8-11.7,5.7,5.2h0l-7.1,6.5h0l-11.9,10.9-.6.5-.6.5-5.7,5.2-.6.5h0l-.6.5-4.1,3.8h0Zm0,2.1l5.3-4.8.6-.5h0l.6-.5h0l5.7-5.2.6-.5.6-.5,13-11.9h0l5.9-5.4,5.7,5.2-.2.2-18.8,17.2-.6.5-.6.5-5.7,5.2h0l-.6.5h0l-.6.5-5.7,5.2-.6.5h0l-.6.5h0l-4.1,3.8v-10.5Zm0,52.3v-4h0v1l18.5-16.9h0l5.7,5.2h0l-13.9,12.8h0l-5,4.6-.6.5-.6.5-4.1,3.8v-7.5h0Zm0,20.1v-10.5l5.3-4.8.6-.5.6-.5,6.2-5.6h0l12.8-11.7,5.7,5.2h0l-7.1,6.5h0l-11.9,10.9-.6.5-.6.5-5.7,5.2-.6.5h0l-.6.5-4.1,3.8h0Zm0,2.1l5.3-4.8.6-.5h0l.6-.5h0l5.7-5.2.6-.5.6-.5,13-11.9h0l5.9-5.4,5.7,5.2-.2.2-18.8,17.2-.6.5-.6.5-5.7,5.2h0l-.6.5h0l-.6.5-5.7,5.2-.6.5h0l-.6.5h0l-4.1,3.8v-10.5Zm0,52.3v-4h0v1l18.5-16.9h0l5.7,5.2h0l-13.9,12.8h0l-5,4.6-.6.5-.6.5-4.1,3.8v-7.5h0Zm0,20.1v-10.5l5.3-4.8.6-.5.6-.5,6.2-5.6h0l12.8-11.7,5.7,5.2h0l-7.1,6.5h0l-11.9,10.9-.6.5-.6.5-5.7,5.2-.6.5h0l-.6.5-4.1,3.8h0Zm0,2.1l5.3-4.8.6-.5h0l.6-.5h0l5.7-5.2.6-.5.6-.5,13-11.9h0l5.9-5.4,5.7,5.2-.2.2-18.8,17.2-.6.5-.6.5-5.7,5.2h0l-.6.5h0l-.6.5-5.7,5.2-.6.5h0l-.6.5h0l-4.1,3.8v-10.5Zm0,52.3v-4h0v1l18.5-16.9h0l5.7,5.2h0l-13.9,12.8h0l-5,4.6-.6.5-.6.5-4.1,3.8v-7.5h0Zm0,20.1v-10.5l5.3-4.8.6-.5.6-.5,6.2-5.6h0l12.8-11.7,5.7,5.2h0l-7.1,6.5h0l-11.9,10.9-.6.5-.6.5-5.7,5.2-.6.5h0l-.6.5-4.1,3.8h0Zm0,2.1l5.3-4.8.6-.5h0l.6-.5h0l5.7-5.2.6-.5.6-.5,13-11.9h0l5.9-5.4,5.7,5.2-.2.2-18.8,17.2-.6.5-.6.5-5.7,5.2h0l-.6.5h0l-.6.5-5.7,5.2-.6.5h0l-.6.5h0l-4.1,3.8v-10.5Zm0,52.3v-4h0v1l18.5-16.9h0l5.7,5.2h0l-13.9,12.8h0l-5,4.6-.6.5-.6.5-4.1,3.8v-7.5h0Zm0,20.1v-10.5l5.3-4.8.6-.5.6-.5,6.2-5.6h0l12.8-11.7,5.7,5.2h0l-7.1,6.5h0l-11.9,10.9-.6.5-.6.5-5.7,5.2-.6.5h0l-.6.5-4.1,3.8h0Zm0,2.1l5.3-4.8.6-.5h0l.6-.5h0l5.7-5.2.6-.5.6-.5,13-11.9h0l5.9-5.4,5.7,5.2-.2.2-18.8,17.2-.6.5-.6.5-5.7,5.2h0l-.6.5h0l-.6.5-5.7,5.2-.6.5h0l-.6.5h0l-4.1,3.8v-10.5Zm0,52.3v-4h0v1l18.5-16.9h0l5.7,5.2h0l-13.9,12.8h0l-5,4.6-.6.5-.6.5-4.1,3.8v-7.5h0Zm0,20.1v-10.5l5.3-4.8.6-.5.6-.5,6.2-5.6h0l12.8-11.7,5.7,5.2h0l-7.1,6.5h0l-11.9,10.9-.6.5-.6.5-5.7,5.2-.6.5h0l-.6.5-4.1,3.8h0Zm0,2.1l5.3-4.8.6-.5h0l.6-.5h0l5.7-5.2.6-.5.6-.5,13-11.9h0l5.9-5.4,5.7,5.2-.2.2-18.8,17.2-.6.5-.6.5-5.7,5.2h0l-.6.5h0l-.6.5-5.7,5.2-.6.5h0l-.6.5h0l-4.1,3.8v-10.5Zm0,52.3v-4h0v1l18.5-16.9h0l5.7,5.2h0l-13.9,12.8h0l-5,4.6-.6.5-.6.5-4.1,3.8v-7.5h0Zm0,20.1v-10.5l5.3-4.8.6-.5.6-.5,6.2-5.6h0l12.8-11.7,5.7,5.2h0l-7.1,6.5h0l-11.9,10.9-.6.5-.6.5-5.7,5.2-.6.5h0l-.6.5-4.1,3.8h0Zm0,2.1l5.3-4.8.6-.5h0l.6-.5h0l5.7-5.2.6-.5.6-.5,13-11.9h0l5.9-5.4,5.7,5.2-.2.2-18.8,17.2-.6.5-.6.5-5.7,5.2h0l-.6.5h0l-.6.5-5.7,5.2-.6.5h0l-.6.5h0l-4.1,3.8v-10.5Zm0,52.3v-4h0v1l18.5-16.9h0l5.7,5.2h0l-13.9,12.8h0l-5,4.6-.6.5-.6.5-4.1,3.8v-7.5h0Zm0,20.1v-10.5l5.3-4.8.6-.5.6-.5,6.2-5.6h0l12.8-11.7,5.7,5.2h0l-7.1,6.5h0l-11.9,10.9-.6.5-.6.5-5.7,5.2-.6.5h0l-.6.5-4.1,3.8h0Zm0,2.1l5.3-4.8.6-.5h0l.6-.5h0l5.7-5.2.6-.5.6-.5,13-11.9h0l5.9-5.4,5.7,5.2-.2.2-18.8,17.2-.6.5-.6.5-5.7,5.2h0l-.6.5h0l-.6.5-5.7,5.2-.6.5h0l-.6.5h0l-4.1,3.8v-10.5Z"/><polygon class="cls-8" points="172.4 745.7 172.4 745.7 172.1 745.3 170.7 742.9 170.6 742.7 170.4 742.9 169 745.3 168.8 745.7 168.8 745.7 166.9 749 165.4 751.4 168.5 751.4 172.7 751.4 175.7 751.4 174.3 749 172.4 745.7"/><path class="cls-8" d="m197.8,5.9v-.2h-6.6l-9,10.9-4.4-7.5-2-3.5h-10.3l-2,3.5-4.4,7.5-9.1-10.9h-6.4v.2c-.1,0,3,3.8,3,3.8v28l-3.2,5.4,3.2,3.8v28l-3.2,5.4,3.2,3.8v28l-3.2,5.4,3.2,3.8v28l-3.2,5.4,3.2,3.8v28l-3.2,5.4,3.2,3.8v28l-3.2,5.4,3.2,3.8v28l-3.2,5.4,3.2,3.8v28l-3.2,5.4,3.2,3.8v28l-3.2,5.4,3.2,3.8v28l-3,5.1h6.4l-.2-.3,10-17,1.4-2.4,1.4-2.4,8-13.7,8,13.7,1.4,2.4h0l1.4,2.4,10,17-.2.3h6.4l-3-5.2v-28l3.2-3.8h0v37h7.2v-1.5l25.7-25.7-2.9-2.9-22.8,22.8v-8.6l18.5-18.5-1.4-1.4,12.9,12.9-23,23,23,23h0l-4.3,4.3-25.7-25.7v-1.5h-7.2v.2h0v-.2h-6.6l-9,10.9-4.4-7.5-2-3.5h-10.3l-2,3.5-4.4,7.5-9.1-10.9h-6.4v.2c-.1,0,3,3.8,3,3.8v28l-3.2,5.4,3.2,3.8v28l-3.2,5.4,3.2,3.8v28l-3.2,5.4,3.2,3.8v28l-3.2,5.4,3.2,3.8v28l-3.2,5.4,3.2,3.8v28l-3.2,5.4,3.2,3.8v28l-3.2,5.4,3.2,3.8v28l-3.2,5.4,3.2,3.8v28l-3.2,5.4,3.2,3.8v28l-3,5.2h6.4l-.2-.3,10-17,1.4-2.4,1.4-2.4,8-13.7,8,13.7,1.4,2.4h0l1.4,2.4,10,17-.2.3h6.4l-3-5.2v-28l3.2-3.8h0v37h7.2v-1.5l25.7-25.7-2.9-2.9-22.8,22.8v-8.6l18.5-18.5-1.4-1.4h0l12.9,12.9-23,22.9h5.7l20.1-20.1,4.3,4.3-15.8,15.8h5.7l12.9-12.9,4.3,4.3-8.6,8.6h5.7l5.7-5.7,5.7,5.7h5.7l34.4-34.4,4.3,4.3-30.1,30.1h5.7l27.2-27.2,4.3,4.3-23,22.9h5.7l20.1-20.1,4.3,4.3-15.8,15.8h5.7l10.2-10.1v8.6l-1.5,1.5h8.8v-.2h0v.2h6.6l9-10.9,4.4,7.5,2,3.5h10.3l2-3.5,4.4-7.5,9,10.9h6.4v-.2c.1,0-3-3.8-3-3.8v-28l3.2-5.4-3.2-3.8v-28l3.2-5.4-3.2-3.8v-28l3.2-5.4-3.2-3.8v-28l3.2-5.4-3.2-3.8v-28l3.2-5.4-3.2-3.8v-28l3.2-5.4-3.2-3.8v-28l3.2-5.4-3.2-3.8v-28l3.2-5.4-3.2-3.8v-28l3.2-5.4-3.2-3.8v-28l3-5.1h-6.4l.2.3-10,17-1.4,2.4-1.4,2.4-8,13.7-8-13.7-1.4-2.4h0l-1.4-2.4-10-17,.2-.3h-6.4l3,5.2v28l-3.2,3.8h0v-37h-7.2,7.2v-.2h0v.2h6.6l9-10.9,4.4,7.5,2,3.5h10.3l2-3.5,4.4-7.5,9,10.9h6.4v-.2c.1,0-3-3.8-3-3.8v-28l3.2-5.4-3.2-3.8v-28l3.2-5.4-3.2-3.8v-28l3.2-5.4-3.2-3.8v-28l3.2-5.4-3.2-3.8v-28l3.2-5.4-3.2-3.8v-28l3.2-5.4-3.2-3.8v-28l3.2-5.4-3.2-3.8v-28l3.2-5.4-3.2-3.8v-28l3.2-5.4-3.2-3.8V10.8l3-5.2h-6.4l.2.3-10,17-1.4,2.4-1.4,2.4-8,13.7-8-13.7-1.4-2.4h0l-1.4-2.4-10-17,.2-.3h-6.4l3,5.2v28l-3.2,3.8h0V5.6h-8.8l1.5,1.6v8.6l-10.2-10.1h-5.7l15.8,15.8-4.3,4.3-20.1-20.1h-5.7l23,22.9h0s-4.3,4.3-4.3,4.3l-27.2-27.2h-5.7l30.1,30.1h0l-4.3,4.3-34.4-34.4h-5.7l-5.7,5.7-5.7-5.7h-5.7l8.6,8.6-4.3,4.3-12.9-12.9h-5.7l15.8,15.8h0l-4.3,4.3-20.1-20.1h-5.7l23,22.9h0s-4.3,4.3-4.3,4.3l-25.7-25.7v-1.6h-7.2v.2h0Zm0,37.3h0v37.3h0l-3.2-5.4v-28l3.2-3.8Zm24.3,1.2l12.9,12.9-23,22.9,23,22.9h0l-4.3,4.3-25.7-25.7v-3.1l25.7-25.7-2.9-2.9-22.8,22.8v-8.6l18.5-18.5-1.4-1.4h0Zm37.3-37.3l35.9,35.9-5.7,5.7-5.7-5.7,5.7-5.7-2.9-2.9-8.6,8.6,8.6,8.6-4.3,4.3-12.9-12.9,12.9-12.9-2.9-2.9-15.8,15.8,15.8,15.8-4.3,4.3-20.1-20.1,20.1-20.1-2.9-2.9-23,23,23,22.9-4.3,4.3-27.2-27.2,27.2-27.2-2.9-2.9-30.1,30.1,30.1,30.1-4.3,4.3-34.4-34.4,34.4-34.4-1.4-1.4h0Zm50.2,50.2l-23,22.9,23,22.9h0l-4.3,4.3-27.2-27.2,27.2-27.2,4.3,4.3h0Zm-2.9,22.9l10.2-10.1v8.6l-1.5,1.6,1.5,1.6v8.6l-10.2-10.1Zm37.4-40.8l3.5,5.9,1.9,3.2h0l.2.4,1.4,2.4v.2c.1,0,.3-.2.3-.2l1.4-2.4.2-.4h0l1.9-3.2,3.5-5.9h0l4.4-7.5,9.3,11.2-10,17-1.4,2.4-1.4,2.4-8,13.7-8-13.7-1.4-2.4h0l-1.4-2.4-10-17,9.3-11.2,4.4,7.4h0Zm18,319.1l-1.4,2.4-1.4,2.4-8,13.7-8-13.7-1.4-2.4-1.4-2.4-10-17,9.3-11.2,4.4,7.5h0l3.5,5.9,1.9,3.2h0l.2.5,1.4,2.4v.2c.1,0,.3-.2.3-.2l1.4-2.4.2-.4h0l1.9-3.2,3.5-5.9h0l4.4-7.5,9.3,11.2-10,17h0Zm-38-17.6h0v-37.3h0l3.2,5.4v28l-3.2,3.8Zm20,71.4l3.5,5.9,1.9,3.2h0l.2.5,1.4,2.4v.2c.1,0,.3-.2.3-.2l1.4-2.4.2-.4h0l1.9-3.2,3.5-5.9h0l4.4-7.5,9.3,11.2-10,17-1.4,2.4-1.4,2.4-8,13.7-8-13.7-1.4-2.4h0l-1.4-2.4-10-17,9.3-11.2,4.4,7.5h0Zm18,319.1l-1.4,2.4-1.4,2.4-8,13.7-8-13.7-1.4-2.4-1.4-2.4-10-17,9.3-11.2,4.4,7.5h0l3.5,5.9,1.9,3.2h0l.2.5,1.4,2.4v.2c.1,0,.3-.2.3-.2l1.4-2.4.2-.4h0l1.9-3.2,3.5-5.9h0l4.4-7.5,9.3,11.2-10,17h0Zm-38-17.6h0v-37.3h0l3.2,5.4v28l-3.2,3.8Zm-17.4-37l10.2-10.1v8.6l-1.5,1.5,1.5,1.5v8.6l-10.2-10.1Zm2.9,22.9h0l-4.3,4.3-27.2-27.2,27.2-27.2,4.3,4.3-23,23,23,23h0Zm-81.8,7.2l-4.3,4.3-18.5-18.5v-8.6l22.8,22.8h0Zm2.9-2.9l-25.7-25.7v-3.1l25.7-25.7-2.9-2.9-22.8,22.8v-8.6l18.5-18.5-1.4-1.4h0l12.9,12.9-23,23,23,23h0l-4.3,4.3h0Zm-53,13.5l-3.5-5.9-1.9-3.2h0l-.2-.5-1.4-2.4v-.2c-.1,0-.3.2-.3.2l-1.4,2.4-.2.4h0l-1.9,3.2-3.5,5.9h0l-4.4,7.5-9.3-11.2,10-17,1.4-2.4,1.4-2.4,8-13.7,8,13.7,1.4,2.4h0l1.4,2.4,10,17-9.3,11.2-4.4-7.5h0Zm-18-319.1l1.4-2.4,1.4-2.4,8-13.7,8,13.7,1.4,2.4,1.4,2.4,10,17-9.3,11.2-4.4-7.5h0l-3.5-5.9-1.9-3.2h0l-.2-.5-1.4-2.4v-.2c-.1,0-.3.2-.3.2l-1.4,2.4-.2.4h0l-1.9,3.2-3.5,5.9h0l-4.4,7.5-9.3-11.2,10-17h0Zm38,17.6h0v37.3h0l-3.2-5.4v-28l3.2-3.8Zm30.1-82l-4.3,4.3-18.5-18.5v-8.6l22.8,22.8Zm2.9-2.9l-25.7-25.7v-3.1l25.7-25.7-2.9-2.9-22.8,22.8v-8.6l18.5-18.5-1.4-1.4h0l12.9,12.9-23,23,23,23h0l-4.3,4.3h0Zm-53,13.5l-3.5-5.9-1.9-3.2h0l-.2-.5-1.4-2.4v-.2c-.1,0-.3.2-.3.2l-1.4,2.4-.2.4h0l-1.9,3.2-3.5,5.9h0l-4.4,7.5-9.3-11.2,10-17,1.4-2.4,1.4-2.4,8-13.7,8,13.7,1.4,2.4h0l1.4,2.4,10,17-9.3,11.2-4.4-7.5h0ZM159.8,25.6l1.4-2.4,1.4-2.4,8-13.7,8,13.7,1.4,2.4,1.4,2.4,10,17-9.3,11.2-4.4-7.4h0l-3.5-5.9-1.9-3.2h0l-.2-.4-1.4-2.4v-.2c-.1,0-.3.2-.3.2l-1.4,2.4-.2.4h0l-1.9,3.2-3.5,5.9h0l-4.4,7.5-9.3-11.2,10-17h0Zm38,54.9h0v37.3h0l-3.2-5.4v-28l3.2-3.8Zm30.1,29.9l-4.3,4.3-18.5-18.5v-8.6l22.8,22.8h0Zm21.5-38.7l-8.6,8.6,8.6,8.6h0l-4.3,4.3h0l-12.9-12.9,12.9-12.9,4.3,4.3h0Zm-7.2-7.2l-15.8,15.8,15.8,15.8h0l-4.3,4.3h0l-20.1-20.1,20.1-20.1,4.3,4.3h0Zm67.4,67.4l-23,22.9,23,23h0l-4.3,4.3-27.2-27.2,27.2-27.2,4.3,4.3h0Zm-2.9,22.9l10.2-10.1v8.6l-1.5,1.6,1.5,1.6v8.6l-10.2-10.1h0Zm17.4,148.9h0v-37.3h0l3.2,5.4v28l-3.2,3.8Zm-8.8.3l1.5,1.5v8.6l-10.2-10.1,10.2-10.1v8.6l-1.5,1.5h0Zm8.8,372.6h0v-37.3h0l3.2,5.4v28l-3.2,3.8Zm-17.4-74.3l10.2-10.1v8.6l-1.5,1.5,1.5,1.5v8.6l-10.2-10.1Zm2.9,22.9h0l-4.3,4.3-27.2-27.2,27.2-27.2,4.3,4.3-23,23,23,23h0Zm-31.6,88.9l8.6,8.6h0l-4.3,4.3h0l-12.9-12.9,12.9-12.9-2.9-2.9-15.8,15.8,15.8,15.8h0l-4.3,4.3h0l-20.1-20.1,20.1-20.1-2.9-2.9-23,23,23,23-4.3,4.3-27.2-27.2,27.2-27.2-2.9-2.9-30.1,30.1,30.1,30.1-4.3,4.3-34.4-34.4,34.4-34.4-1.4-1.4h0l35.9,35.9-5.7,5.7-5.7-5.7,5.7-5.7-2.9-2.9-8.6,8.6h0Zm-80.3-260.8h0v37.3h0l-3.2-5.4v-28l3.2-3.8Zm30.1,29.8l-4.3,4.3-18.5-18.5v-8.6l22.8,22.8h0Zm21.5-38.7l-8.6,8.6,8.6,8.6h0l-4.3,4.3h0l-12.9-12.9,12.9-12.9,4.3,4.3h0Zm-7.2-7.2l-15.8,15.8,15.8,15.8h0l-4.3,4.3h0l-20.1-20.1,20.1-20.1,4.3,4.3h0Zm-44.4-319.6h0v37.3h0l-3.2-5.4v-28l3.2-3.8Zm24.3,1.2l12.9,12.9-23,22.9,23,23h0l-4.3,4.3-25.7-25.7v-3.1l25.7-25.7-2.9-2.9-22.8,22.8v-8.6l18.5-18.5-1.4-1.4h0Zm87.5,87.5l-23,23,23,23h0l-4.3,4.3-27.2-27.2,27.2-27.2,4.3,4.3h0Zm0,120.5h0l-4.3,4.3-27.2-27.2,27.2-27.2,4.3,4.3-23,23,23,23h0Zm-7.2,21.5l-30.1,30.1,30.1,30.1-4.3,4.3-34.4-34.4,34.4-34.4,4.3,4.3h0Zm-74.6-88.9l-4.3,4.3-18.5-18.5v-8.6l22.8,22.8Zm2.9-2.9l-25.7-25.7v-3.1l25.7-25.7-2.9-2.9-22.8,22.8v-8.6l18.5-18.5-1.4-1.4h0l12.9,12.9-23,23,23,23h0l-4.3,4.3h0Zm-36.1-60.5l3.2-3.8h0v37.3h0l-3.2-5.4v-28Zm0-37.3l3.2-3.8h0v37.3h0l-3.2-5.4v-28Zm33.3,26l-4.3,4.3-18.5-18.5v-8.6l22.8,22.8Zm21.5-38.7l-8.6,8.6,8.6,8.6h0l-4.3,4.3h0l-12.9-12.9,12.9-12.9,4.3,4.3h0Zm-7.2-7.2l-15.8,15.8,15.8,15.8h0l-4.3,4.3h0l-20.1-20.1,20.1-20.1,4.3,4.3h0Zm17.2,17.2l35.9,35.9-5.7,5.7-5.7-5.7,5.7-5.7-2.9-2.9-8.6,8.6,8.6,8.6-4.3,4.3-12.9-12.9,12.9-12.9-2.9-2.9-15.8,15.8,15.8,15.8-4.3,4.3-20.1-20.1,20.1-20.1-2.9-2.9-23,23,23,23-4.3,4.3-27.2-27.2,27.2-27.2-2.9-2.9-30.1,30.1,30.1,30.1-4.3,4.3-34.4-34.4,34.4-34.4-1.4-1.4h0Zm-1.4,73.1l-5.7,5.7h0l-2.2,2.2,2.2-2.2-5.7-5.7,5.7-5.7-2.8-2.8,2.8,2.8,5.7,5.7h0Zm-8.6-8.6l-8.6,8.6,8.6,8.6h0l-4.3,4.3h0l-12.9-12.9,12.9-12.9,4.3,4.3h0Zm-7.2-7.2l-15.8,15.8,15.8,15.8h0l-4.3,4.3h0l-20.1-20.1,20.1-20.1,4.3,4.3h0Zm17.2,17.2h0l35.9,35.9-5.7,5.7-5.7-5.7,5.7-5.7-2.9-2.9-8.6,8.6,8.6,8.6-4.3,4.3-12.9-12.9,12.9-12.9-2.9-2.9-15.8,15.8,15.8,15.8-4.3,4.3-20.1-20.1,20.1-20.1-2.9-2.9-23,23,23,23-4.3,4.3-27.2-27.2,27.2-27.2-2.9-2.9-30.1,30.1,30.1,30.1-4.3,4.3-34.4-34.4,34.4-34.4-1.4-1.4h0Zm4.3,73.1l34.4-34.4,4.3,4.3-30.1,30.1,30.1,30.1-4.3,4.3-34.4-34.4h0Zm38.7-104.7l-30.1,30.1,30.1,30.1-4.3,4.3-34.4-34.4,34.4-34.4,4.3,4.3Zm-44.5-44.5l-5.7,5.7h0l-2.2,2.2,2.2-2.2-5.7-5.7,5.7-5.7-2.8-2.8,2.8,2.8,5.7,5.7h0Zm-63.4,106.7v-28l3.2-3.8h0v37.3h0l-3.2-5.4Zm57.6,36.7l5.7,5.7-5.7,5.7h0l-2.2,2.2,2.2-2.2-5.7-5.7,5.7-5.7-2.8-2.8,2.8,2.8h0Zm-2.9-2.9l-8.6,8.6,8.6,8.6h0l-4.3,4.3h0l-12.9-12.9,12.9-12.9,4.3,4.3h0Zm-7.2-7.2l-15.8,15.8,15.8,15.8h0l-4.3,4.3h0l-20.1-20.1,20.1-20.1,4.3,4.3h0Zm17.2,17.2l35.9,35.9-5.7,5.7-5.7-5.7,5.7-5.7-2.9-2.9-8.6,8.6,8.6,8.6-4.3,4.3-12.9-12.9,12.9-12.9-2.9-2.9-15.8,15.8,15.8,15.8-4.3,4.3-20.1-20.1,20.1-20.1-2.9-2.9-23,23,23,23-4.3,4.3-27.2-27.2,27.2-27.2-2.9-2.9-30.1,30.1,30.1,30.1-4.3,4.3-34.4-34.4,34.4-34.4-1.4-1.4h0Zm50.2,124.8l-23,23,23,23h0l-4.3,4.3-27.2-27.2,27.2-27.2,4.3,4.3h0Zm0,120.5h0l-4.3,4.3-27.2-27.2,27.2-27.2,4.3,4.3-23,23,23,23h0Zm-81.8,81.8l-4.3,4.3-18.5-18.5v-8.6l22.8,22.8h0Zm2.9-2.9l-25.7-25.7v-3.1l25.7-25.7-2.9-2.9-22.8,22.8v-8.6l18.5-18.5-1.4-1.4,12.9,12.9-23,23,23,23h0l-4.3,4.3h0Zm-36.1-60.5l3.2-3.8h0v37.3h0l-3.2-5.4v-28Zm0-37.3l3.2-3.8h0v37.3h0l-3.2-5.4v-28Zm0-37.3l3.2-3.8h0v37.3h0l-3.2-5.4v-28Zm33.3,63.3l-4.3,4.3-18.5-18.5v-8.6l22.8,22.8h0Zm21.5-38.7l-8.6,8.6,8.6,8.6h0l-4.3,4.3h0l-12.9-12.9,12.9-12.9,4.3,4.3h0Zm-7.2-7.2l-15.8,15.8,15.8,15.8h0l-4.3,4.3h0l-20.1-20.1,20.1-20.1,4.3,4.3h0Zm7.2,99l-4.3,4.3h0l-12.9-12.9,12.9-12.9,4.3,4.3h0l-8.6,8.6,8.6,8.6h0Zm-7.2-24.4l-15.8,15.8,15.8,15.8h0l-4.3,4.3h0l-20.1-20.1,20.1-20.1,4.3,4.3h0Zm7.9,23.7l2.2-2.2-5.7-5.7,5.7-5.7-2.8-2.8,2.8,2.8,5.7,5.7-5.7,5.7h0l-2.2,2.2h0Zm28-45.2l8.6,8.6-4.3,4.3-12.9-12.9,12.9-12.9-2.9-2.9-15.8,15.8,15.8,15.8-4.3,4.3-20.1-20.1,20.1-20.1-2.9-2.9-23,23,23,23-4.3,4.3-27.2-27.2,27.2-27.2-2.9-2.9-30.1,30.1,30.1,30.1-4.3,4.3-34.4-34.4,34.4-34.4-1.4-1.4h0l35.9,35.9-5.7,5.7-5.7-5.7,5.7-5.7-2.9-2.9-8.6,8.6h0Zm-20.1-37.3l-5.7,5.7h0l-2.2,2.2,2.2-2.2-5.7-5.7,5.7-5.7-2.8-2.8,2.8,2.8,5.7,5.7h0Zm-23-23l-23,23,23,23h0l-4.3,4.3-25.7-25.7v-3.1l25.7-25.7-2.9-2.9-22.8,22.8v-8.6l18.5-18.5-1.4-1.4,12.9,12.9h0Zm43,134.8l8.6,8.6-4.3,4.3-12.9-12.9,12.9-12.9-2.9-2.9-15.8,15.8,15.8,15.8-4.3,4.3-20.1-20.1,20.1-20.1-2.9-2.9-23,23,23,23-4.3,4.3-27.2-27.2,27.2-27.2-2.9-2.9-30.1,30.1,30.1,30.1-4.3,4.3-34.4-34.4,34.4-34.4-1.4-1.4h0l35.9,35.9-5.7,5.7-5.7-5.7,5.7-5.7-2.9-2.9-8.6,8.6h0Zm-14.3-111.9l34.4-34.4,4.3,4.3-30.1,30.1,30.1,30.1-4.3,4.3-34.4-34.4Zm38.7-104.7l-30.1,30.1,30.1,30.1-4.3,4.3-34.4-34.4,34.4-34.4,4.3,4.3h0Zm-43,31.5l35.9,35.9-5.7,5.7-5.7-5.7,5.7-5.7-2.9-2.9-8.6,8.6,8.6,8.6-4.3,4.3-12.9-12.9,12.9-12.9-2.9-2.9-15.8,15.8,15.8,15.8-4.3,4.3-20.1-20.1,20.1-20.1-2.9-2.9-23,23,23,23-4.3,4.3-27.2-27.2,27.2-27.2-2.9-2.9-30.1,30.1,30.1,30.1-4.3,4.3-34.4-34.4,34.4-34.4-1.4-1.4h0Zm-64.8,179.9v-28l3.2-3.8h0v37.3h0l-3.2-5.4Zm57.6,36.7l5.7,5.7-5.7,5.7h0l-2.2,2.2,2.2-2.2-5.7-5.7,5.7-5.7-2.8-2.8,2.8,2.8h0Zm-2.9-2.9l-8.6,8.6,8.6,8.6h0l-4.3,4.3h0l-12.9-12.9,12.9-12.9,4.3,4.3h0Zm-7.2-7.2l-15.8,15.8,15.8,15.8h0l-4.3,4.3h0l-20.1-20.1,20.1-20.1,4.3,4.3h0Zm21.5-58.8l34.4-34.4,4.3,4.3-30.1,30.1,30.1,30.1-4.3,4.3-34.4-34.4Zm48.8-54.5h0l-20.1-20.1,20.1-20.1,4.3,4.3-15.8,15.8,15.8,15.8-4.3,4.3Zm4.4-30.2v8.6l-1.5,1.5,1.5,1.5v8.6l-10.2-10.1,10.2-10.1Zm10.4,43.3l-3.2,3.8h0v-37.3h0l3.2,5.4v28Zm0,37.3l-3.2,3.8h0v-37.3h0l3.2,5.4v28Zm-3.2,3.8h0l3.2,5.4v28l-3.2,3.8h0v-37.3Zm3.2-106.5v28l-3.2,3.8h0v-37.3h0l3.2,5.4Zm-10.5-26.7l-4.3,4.3h0l-20.1-20.1,20.1-20.1,4.3,4.3-15.8,15.8,15.8,15.8Zm-7.2-67.4h0l-4.3,4.3-27.2-27.2,27.2-27.2,4.3,4.3-23,23,23,23h0Zm2.9-77.5h0l-20.1-20.1,20.1-20.1,4.4,4.4h-.1c0-.1-15.8,15.7-15.8,15.7l15.8,15.8-4.3,4.3h0Zm-5.7-94.7l10.2-10.1v8.6l-1.5,1.5,1.5,1.5v8.6l-10.2-10.1h0Zm20.5-41.4l-3.2,3.8h0v-37.3h0l3.2,5.4v28Zm-3.2,3.9l3.2,5.4v28l-3.2,3.8h0v-37.3h0Zm3.2,70.7l-3.2,3.8h0v-37.3h0l3.2,5.4v28Zm0-139.9v28l-3.2,3.8h0v-37.3h0l3.2,5.4Zm-26.3,106.7l15.8,15.8-4.3,4.3h0l-20.1-20.1,20.1-20.1,4.4,4.4h-.1c0-.1-15.8,15.7-15.8,15.7h0Zm1.4-104.7l-30.1,30.1,30.1,30.1-4.3,4.3-34.4-34.4,34.4-34.4,4.3,4.3Zm-43-43l35.9,35.9-5.7,5.7-5.7-5.7,5.7-5.7-2.9-2.9-8.6,8.6,8.6,8.6-4.3,4.3-12.9-12.9,12.9-12.9-2.9-2.9-15.8,15.8,15.8,15.8-4.3,4.3-20.1-20.1,20.1-20.1-2.9-2.9-23,22.9,23,22.9-4.3,4.3-27.2-27.2,27.2-27.2-2.9-2.9-30.1,30.1,30.1,30.1-4.3,4.3-34.4-34.4,34.4-34.4-1.4-1.4h0Zm-99.6-18.7l1.4-2.4,1.4-2.4,8-13.7,8,13.7,1.4,2.4h0l1.4,2.4,10,17-9.3,11.2-4.4-7.4h0l-3.5-5.9-1.9-3.2h0l-.2-.4-1.4-2.4v-.2c-.1,0-.3.2-.3.2l-1.4,2.4-.2.4h0l-1.9,3.2-3.5,5.9h0l-4.4,7.5-9.3-11.2,10-17h0Zm0,37.3l1.4-2.4,1.4-2.4,8-13.7,8,13.7,1.4,2.4h0l1.4,2.4,10,17-9.3,11.2-4.4-7.4h0l-3.5-5.9-1.9-3.2h0l-.2-.4-1.4-2.4v-.2c-.1,0-.3.2-.3.2l-1.4,2.4-.2.4h0l-1.9,3.2-3.5,5.9h0l-4.4,7.5-9.3-11.2,10-17h0Zm0,37.3l1.4-2.4,1.4-2.4,8-13.7,8,13.7,1.4,2.4h0l1.4,2.4,10,17-9.3,11.2-4.4-7.4h0l-3.5-5.9-1.9-3.2h0l-.2-.4-1.4-2.4v-.2c-.1,0-.3.2-.3.2l-1.4,2.4-.2.4h0l-1.9,3.2-3.5,5.9h0l-4.4,7.5-9.3-11.2,10-17h0Zm0,37.3l1.4-2.4,1.4-2.4,8-13.7,8,13.7,1.4,2.4h0l1.4,2.4,10,17-9.3,11.2-4.4-7.5h0l-3.5-5.9-1.9-3.2h0l-.2-.5-1.4-2.4v-.2c-.1,0-.3.2-.3.2l-1.4,2.4-.2.4h0l-1.9,3.2-3.5,5.9h0l-4.4,7.5-9.3-11.2,10-17h0Zm0,37.3l1.4-2.4,1.4-2.4,8-13.7,8,13.7,1.4,2.4h0l1.4,2.4,10,17-9.3,11.2-4.4-7.5h0l-3.5-5.9-1.9-3.2h0l-.2-.5-1.4-2.4v-.2c-.1,0-.3.2-.3.2l-1.4,2.4-.2.4h0l-1.9,3.2-3.5,5.9h0l-4.4,7.5-9.3-11.2,10-17h0Zm0,37.3l1.4-2.4,1.4-2.4,8-13.7,8,13.7,1.4,2.4h0l1.4,2.4,10,17-9.3,11.2-4.4-7.5h0l-3.5-5.9-1.9-3.2h0l-.2-.5-1.4-2.4v-.2c-.1,0-.3.2-.3.2l-1.4,2.4-.2.4h0l-1.9,3.2-3.5,5.9h0l-4.4,7.5-9.3-11.2,10-17h0Zm0,37.3l1.4-2.4,1.4-2.4,8-13.7,8,13.7,1.4,2.4h0l1.4,2.4,10,17-9.3,11.2-4.4-7.5h0l-3.5-5.9-1.9-3.2h0l-.2-.5-1.4-2.4v-.2c-.1,0-.3.2-.3.2l-1.4,2.4-.2.4h0l-1.9,3.2-3.5,5.9h0l-4.4,7.5-9.3-11.2,10-17h0Zm34.8,12.1v-28l3.2-3.8h0v37.3h0l-3.2-5.4Zm57.6,74l5.7,5.7-5.7,5.7h0l-2.2,2.2,2.2-2.2-5.7-5.7,5.7-5.7-2.8-2.8,2.8,2.8h0Zm-2.9-2.9h0l-8.6,8.6,8.6,8.6h0l-4.3,4.3h0l-12.9-12.9,12.9-12.9,4.3,4.3h0Zm10,10l35.9,35.9-5.7,5.7-5.7-5.7,5.7-5.7-2.9-2.9-8.6,8.6,8.6,8.6-4.3,4.3-12.9-12.9,12.9-12.9-2.9-2.9-15.8,15.8,15.8,15.8-4.3,4.3-20.1-20.1,20.1-20.1-2.9-2.9-23,23,23,23-4.3,4.3-27.2-27.2,27.2-27.2-2.9-2.9-30.1,30.1,30.1,30.1-4.3,4.3-34.4-34.4,34.4-34.4-1.4-1.4h0Zm-1.4,73.2l-5.7,5.7h0l-2.2,2.2,2.2-2.2-5.7-5.7,5.7-5.7-2.8-2.8,2.8,2.8,5.7,5.7h0Zm-23-23l-23,23,23,23h0l-4.3,4.3-25.7-25.7v-3.1l25.7-25.7-2.9-2.9-22.8,22.8v-8.6l18.5-18.5-1.4-1.4,12.9,12.9h0Zm-75.3,5.7l1.4-2.4,1.4-2.4,8-13.7,8,13.7,1.4,2.4h0l1.4,2.4,10,17-9.3,11.2-4.4-7.5h0l-3.5-5.9-1.9-3.2h0l-.2-.5-1.4-2.4v-.2c-.1,0-.3.2-.3.2l-1.4,2.4-.2.4h0l-1.9,3.2-3.5,5.9h0l-4.4,7.5-9.3-11.2,10-17h0Zm0,37.3l1.4-2.4,1.4-2.4,8-13.7,8,13.7,1.4,2.4h0l1.4,2.4,10,17-9.3,11.2-4.4-7.5h0l-3.5-5.9-1.9-3.2h0l-.2-.5-1.4-2.4v-.2c-.1,0-.3.2-.3.2l-1.4,2.4-.2.4h0l-1.9,3.2-3.5,5.9h0l-4.4,7.5-9.3-11.2,10-17h0Zm0,37.3l1.4-2.4,1.4-2.4,8-13.7,8,13.7,1.4,2.4h0l1.4,2.4,10,17-9.3,11.2-4.4-7.5h0l-3.5-5.9-1.9-3.2h0l-.2-.5-1.4-2.4v-.2c-.1,0-.3.2-.3.2l-1.4,2.4-.2.4h0l-1.9,3.2-3.5,5.9h0l-4.4,7.5-9.3-11.2,10-17h0Zm0,37.3l1.4-2.4,1.4-2.4,8-13.7,8,13.7,1.4,2.4h0l1.4,2.4,10,17-9.3,11.2-4.4-7.5h0l-3.5-5.9-1.9-3.2h0l-.2-.5-1.4-2.4v-.2c-.1,0-.3.2-.3.2l-1.4,2.4-.2.4h0l-1.9,3.2-3.5,5.9h0l-4.4,7.5-9.3-11.2,10-17h0Zm0,37.3l1.4-2.4,1.4-2.4,8-13.7,8,13.7,1.4,2.4h0l1.4,2.4,10,17-9.3,11.2-4.4-7.5h0l-3.5-5.9-1.9-3.2h0l-.2-.5-1.4-2.4v-.2c-.1,0-.3.2-.3.2l-1.4,2.4-.2.4h0l-1.9,3.2-3.5,5.9h0l-4.4,7.5-9.3-11.2,10-17h0Zm0,37.3l1.4-2.4,1.4-2.4,8-13.7,8,13.7,1.4,2.4h0l1.4,2.4,10,17-9.3,11.2-4.4-7.5h0l-3.5-5.9-1.9-3.2h0l-.2-.5-1.4-2.4v-.2c-.1,0-.3.2-.3.2l-1.4,2.4-.2.4h0l-1.9,3.2-3.5,5.9h0l-4.4,7.5-9.3-11.2,10-17h0Zm0,37.3l1.4-2.4,1.4-2.4,8-13.7,8,13.7,1.4,2.4h0l1.4,2.4,10,17-9.3,11.2-4.4-7.5h0l-3.5-5.9-1.9-3.2h0l-.2-.5-1.4-2.4v-.2c-.1,0-.3.2-.3.2l-1.4,2.4-.2.4h0l-1.9,3.2-3.5,5.9h0l-4.4,7.5-9.3-11.2,10-17h0Zm34.8,12.1v-28l3.2-3.8h0v37.3h0l-3.2-5.4Zm69.1,5.2l34.4-34.4,4.3,4.3-30.1,30.1,30.1,30.1-4.3,4.3-34.4-34.4Zm48.8-54.5h0l-20.1-20.1,20.1-20.1,4.3,4.3-15.8,15.8,15.8,15.8-4.3,4.3Zm49.6,71.8l-1.4,2.4-1.4,2.4-8,13.7-8-13.7-1.4-2.4h0l-1.4-2.4-10-17,9.3-11.2,4.4,7.5h0l3.5,5.9,1.9,3.2h0l.2.5,1.4,2.4v.2c.1,0,.3-.2.3-.2l1.4-2.4.2-.4h0l1.9-3.2,3.5-5.9h0l4.4-7.5,9.3,11.2-10,17h0Zm0-37.3l-1.4,2.4-1.4,2.4-8,13.7-8-13.7-1.4-2.4h0l-1.4-2.4-10-17,9.3-11.2,4.4,7.5h0l3.5,5.9,1.9,3.2h0l.2.5,1.4,2.4v.2c.1,0,.3-.2.3-.2l1.4-2.4.2-.4h0l1.9-3.2,3.5-5.9h0l4.4-7.5,9.3,11.2-10,17h0Zm0-37.3l-1.4,2.4-1.4,2.4-8,13.7-8-13.7-1.4-2.4h0l-1.4-2.4-10-17,9.3-11.2,4.4,7.5h0l3.5,5.9,1.9,3.2h0l.2.5,1.4,2.4v.2c.1,0,.3-.2.3-.2l1.4-2.4.2-.4h0l1.9-3.2,3.5-5.9h0l4.4-7.5,9.3,11.2-10,17h0Zm0-37.3l-1.4,2.4-1.4,2.4-8,13.7-8-13.7-1.4-2.4h0l-1.4-2.4-10-17,9.3-11.2,4.4,7.5h0l3.5,5.9,1.9,3.2h0l.2.5,1.4,2.4v.2c.1,0,.3-.2.3-.2l1.4-2.4.2-.4h0l1.9-3.2,3.5-5.9h0l4.4-7.5,9.3,11.2-10,17h0Zm0-37.3l-1.4,2.4-1.4,2.4-8,13.7-8-13.7-1.4-2.4h0l-1.4-2.4-10-17,9.3-11.2,4.4,7.5h0l3.5,5.9,1.9,3.2h0l.2.5,1.4,2.4v.2c.1,0,.3-.2.3-.2l1.4-2.4.2-.4h0l1.9-3.2,3.5-5.9h0l4.4-7.5,9.3,11.2-10,17h0Zm0-37.3l-1.4,2.4-1.4,2.4-8,13.7-8-13.7-1.4-2.4h0l-1.4-2.4-10-17,9.3-11.2,4.4,7.5h0l3.5,5.9,1.9,3.2h0l.2.5,1.4,2.4v.2c.1,0,.3-.2.3-.2l1.4-2.4.2-.4h0l1.9-3.2,3.5-5.9h0l4.4-7.5,9.3,11.2-10,17h0Zm0-37.3l-1.4,2.4-1.4,2.4-8,13.7-8-13.7-1.4-2.4h0l-1.4-2.4-10-17,9.3-11.2,4.4,7.5h0l3.5,5.9,1.9,3.2h0l.2.5,1.4,2.4v.2c.1,0,.3-.2.3-.2l1.4-2.4.2-.4h0l1.9-3.2,3.5-5.9h0l4.4-7.5,9.3,11.2-10,17h0Zm-34.8-12.1v28l-3.2,3.8h0v-37.3h0l3.2,5.4Zm-11.9-5.2l1.5,1.5v8.6l-10.2-10.1,10.2-10.1v8.6l-1.5,1.5Zm-2.9-54.5h0l-20.1-20.1,20.1-20.1,4.3,4.3-15.8,15.8,15.8,15.8-4.3,4.3Zm49.6-77.4l-1.4,2.4-1.4,2.4-8,13.7-8-13.7-1.4-2.4h0l-1.4-2.4-10-17,9.3-11.2,4.4,7.5h0l3.5,5.9,1.9,3.2h0l.2.5,1.4,2.4v.2c.1,0,.3-.2.3-.2l1.4-2.4.2-.4h0l1.9-3.2,3.5-5.9h0l4.4-7.5,9.3,11.2-10,17h0Zm0-37.3l-1.4,2.4-1.4,2.4-8,13.7-8-13.7-1.4-2.4h0l-1.4-2.4-10-17,9.3-11.2,4.4,7.5h0l3.5,5.9,1.9,3.2h0l.2.5,1.4,2.4v.2c.1,0,.3-.2.3-.2l1.4-2.4.2-.4h0l1.9-3.2,3.5-5.9h0l4.4-7.5,9.3,11.2-10,17h0Zm0-37.3l-1.4,2.4-1.4,2.4-8,13.7-8-13.7-1.4-2.4h0l-1.4-2.4-10-17,9.3-11.2,4.4,7.5h0l3.5,5.9,1.9,3.2h0l.2.5,1.4,2.4v.2c.1,0,.3-.2.3-.2l1.4-2.4.2-.4h0l1.9-3.2,3.5-5.9h0l4.4-7.5,9.3,11.2-10,17h0Zm0-37.3l-1.4,2.4-1.4,2.4-8,13.7-8-13.7-1.4-2.4h0l-1.4-2.4-10-17,9.3-11.2,4.4,7.5h0l3.5,5.9,1.9,3.2h0l.2.5,1.4,2.4v.2c.1,0,.3-.2.3-.2l1.4-2.4.2-.4h0l1.9-3.2,3.5-5.9h0l4.4-7.5,9.3,11.2-10,17h0Zm0-37.3l-1.4,2.4-1.4,2.4-8,13.7-8-13.7-1.4-2.4h0l-1.4-2.4-10-17,9.3-11.2,4.4,7.4h0l3.5,5.9,1.9,3.2h0l.2.4,1.4,2.4v.2c.1,0,.3-.2.3-.2l1.4-2.4.2-.4h0l1.9-3.2,3.5-5.9h0l4.4-7.5,9.3,11.2-10,17h0Zm0-37.3l-1.4,2.4-1.4,2.4-8,13.7-8-13.7-1.4-2.4h0l-1.4-2.4-10-17,9.3-11.2,4.4,7.4h0l3.5,5.9,1.9,3.2h0l.2.4,1.4,2.4v.2c.1,0,.3-.2.3-.2l1.4-2.4.2-.4h0l1.9-3.2,3.5-5.9h0l4.4-7.5,9.3,11.2-10,17h0Zm0-37.3l-1.4,2.4-1.4,2.4-8,13.7-8-13.7-1.4-2.4h0l-1.4-2.4-10-17,9.3-11.2,4.4,7.4h0l3.5,5.9,1.9,3.2h0l.2.4,1.4,2.4v.2c.1,0,.3-.2.3-.2l1.4-2.4.2-.4h0l1.9-3.2,3.5-5.9h0l4.4-7.5,9.3,11.2-10,17h0Zm-34.8-12.1v28l-3.2,3.8h0v-37.3h0l3.2,5.4Zm-26.3,69.4l15.8,15.8-4.3,4.3h0l-20.1-20.1,20.1-20.1,4.4,4.4h-.1c0-.1-15.8,15.7-15.8,15.7h0Zm1.4-104.7l-30.1,30.1,30.1,30.1-4.3,4.3-34.4-34.4,34.4-34.4,4.3,4.3Zm-44.5,30.1l-5.7,5.7h0l-2.2,2.2,2.2-2.2-5.7-5.7,5.7-5.7-2.8-2.8,2.8,2.8,5.7,5.7h0Zm-60.2,261.3l-3.2-5.4v-28l3.2-3.8h0v37.3h0Zm40.1,17l4.3,4.3-15.8,15.8,15.8,15.8h0l-4.3,4.3h0l-20.1-20.1,20.1-20.1h0Zm-10,50.2l-4.3,4.3-18.5-18.5v-8.6l22.8,22.8Zm-30.1,7.4h0l-3.2-5.4v-28l3.2-3.8h0v37.3Zm0,298.3l-3.2-5.4v-28l3.2-3.8h0v37.3h0Zm114.7-17.5h0l-20.1-20.1,20.1-20.1,4.3,4.3-15.8,15.8,15.8,15.8-4.3,4.3Zm11.6,17h0l3.2,5.4v28l-3.2,3.8h0v-37.3Zm0-298.3l3.2,5.4v28l-3.2,3.8h0v-37.3h0Zm-8.8-37l1.5,1.5v8.6l-10.2-10.1,10.2-10.1v8.6l-1.5,1.5h0Zm8.8-37.5h0l3.2,5.4v28l-3.2,3.8h0v-37.3Zm0-298.3l3.2,5.4v28l-3.2,3.8h0v-37.3h0Zm-7.2,21.9h-.1c0-.1-15.8,15.7-15.8,15.7l15.8,15.8-4.3,4.3h0l-20.1-20.1,20.1-20.1,4.4,4.4h0Zm-89-28.8l-4.3,4.3-18.5-18.5v-8.6l22.8,22.8Zm-30.1,7.4h0l-3.2-5.4V9.7l3.2-3.8h0v37.3Z"/><polygon class="cls-8" points="172.7 378.5 175.7 378.5 174.3 376.1 172.4 372.8 172.4 372.8 172.1 372.4 170.7 370 170.6 369.8 170.4 370 169 372.4 168.8 372.8 168.8 372.8 166.9 376.1 165.4 378.5 168.5 378.5 172.7 378.5"/><path class="cls-8" d="m385.9,5.6h-7.5v372.9h7.5v-4.1l13.5-13.5,3.9,3.9-13.8,13.8-3.7,3.7v-3.7h-7.5v372.9h7.5v-4.1l13.5-13.5,3.9,3.9-13.8,13.8h5.9l10.8-10.8,3.9,3.9-6.9,6.9h5.9l3.9-3.9,3.9,3.9h12.7v-18.1c1.9,5.8,6.5,10.5,12.3,12.9,7,2.9,15.3,1.5,21.5-2.7,12.9-8.3,15-27.1,7.5-39.7-8.2-14.8-25.4-21.9-41.3-23.1v-21.9c1.9,5.8,6.5,10.5,12.3,12.9,7,2.9,15.3,1.5,21.5-2.7,12.9-8.3,15-27.1,7.5-39.7-8.2-14.8-25.4-21.9-41.3-23.1v-21.9c1.9,5.8,6.5,10.5,12.3,12.9,7,2.9,15.3,1.5,21.5-2.7,12.9-8.3,15-27.1,7.5-39.7-8.2-14.8-25.4-21.9-41.3-23.1v-21.9c1.9,5.8,6.5,10.5,12.3,12.9,7,2.9,15.3,1.5,21.5-2.7,12.9-8.3,15-27.1,7.5-39.7-8.2-14.8-25.4-21.9-41.3-23.1v-21.9c1.9,5.8,6.5,10.5,12.3,12.9,7,2.9,15.3,1.5,21.5-2.7,12.9-8.3,15-27.1,7.5-39.7-8.2-14.8-25.4-21.9-41.3-23.1v-21.9c1.9,5.8,6.5,10.5,12.3,12.9,7,2.9,15.3,1.5,21.5-2.7,12.9-8.3,15-27.1,7.5-39.7-8.2-14.8-25.4-21.9-41.3-23.1v-21.9c1.9,5.8,6.5,10.5,12.3,12.9,7,2.9,15.3,1.5,21.5-2.7,12.9-8.3,15-27.1,7.5-39.7-8.2-14.8-25.4-21.9-41.3-23.1v-21.9c1.9,5.8,6.5,10.5,12.3,12.9,7,2.9,15.3,1.5,21.5-2.7,12.9-8.3,15-27.1,7.5-39.7-8.2-14.8-25.4-21.9-41.3-23.1v-21.9c1.9,5.8,6.5,10.5,12.3,12.9,7,2.9,15.3,1.5,21.5-2.7,12.9-8.3,15-27.1,7.5-39.7-8.2-14.8-25.4-21.9-41.3-23.1v-21.9c1.9,5.8,6.5,10.5,12.3,12.9,7,2.9,15.3,1.5,21.5-2.7,12.9-8.3,15-27.1,7.5-39.7-8.2-14.8-25.4-21.9-41.3-23.1v-3.8h-12.7l-31.2,31.2v-7.9l23.3-23.3h-5.9l-17.5,17.5v-7.9l9.6-9.6h-5.9l-3.7,3.7v-3.7h0Zm36.5,26.8l-10.2-10.2,3.9-3.9,6.2,6.2v7.9Zm0,5.9v7.8l-17-17,3.9-3.9,13.1,13.1h0Zm0,13.7v7.9l-23.9-23.9,3.9-3.9,20,20h0Zm-3.3-36.7l3.3-3.3v6.6l-3.3-3.3h0Zm3.3,50.4v7.9l-30.8-30.8,3.9-3.9,26.9,26.9h0Zm-32.7,658.1l-3.7,3.7v-7.4l3.7,3.7h0Zm0-372.9l-3.7,3.7v-7.4l3.7,3.7h0Zm3-295.4l3.9,3.9-10.6,10.6v-7.9l6.7-6.7h0Zm-6.7.8v-7.4l3.7,3.7-3.7,3.7h0Zm13.5,6.1l3.9,3.9-13.8,13.8-3.7,3.7v-7.8l13.5-13.5h0Zm-3.9,17.7l10.8-10.8,3.9,3.9-6.9,6.9-17.5,17.5v-7.9l9.6-9.6h0Zm13.7,0l3.9-3.9,3.9,3.9-31.2,31.2v-7.9l23.3-23.3Zm13.1,26.9l-10.2-10.2,3.9-3.9,6.2,6.2v7.9Zm0,5.9v7.8l-17-17,3.9-3.9,13.1,13.1h0Zm-32.7,14.4l-3.7,3.7v-7.4l3.7,3.7h0Zm3,2.9l3.9,3.9-10.6,10.6v-7.9l6.7-6.7h0Zm6.9,6.9l3.9,3.9-13.8,13.8-3.7,3.7v-7.8l13.5-13.5h0Zm-3.9,17.7l10.8-10.8,3.9,3.9-6.9,6.9-17.5,17.5v-7.9l9.6-9.6h0Zm13.7,0l3.9-3.9,3.9,3.9-31.2,31.2v-7.9l23.3-23.3h0Zm13.1,26.9l-10.2-10.2,3.9-3.9,6.2,6.2v7.9Zm0,5.9v7.8l-17-17,3.9-3.9,13.1,13.1h0Zm-32.7,14.4l-3.7,3.7v-7.4l3.7,3.7h0Zm3,3l3.9,3.9-10.6,10.6v-7.9l6.7-6.7h0Zm6.9,6.9l3.9,3.9-13.8,13.8-3.7,3.7v-7.8l13.5-13.5h0Zm-3.9,17.7l10.8-10.8,3.9,3.9-6.9,6.9-17.5,17.5v-7.9l9.6-9.6h0Zm13.7,0l3.9-3.9,3.9,3.9-31.2,31.2v-7.9l23.3-23.3h0Zm13.1,26.9l-10.2-10.2,3.9-3.9,6.2,6.2v7.9Zm0,5.9v7.8l-17-17,3.9-3.9,13.1,13.1h0Zm-32.7,14.4l-3.7,3.7v-7.4l3.7,3.7h0Zm3,3l3.9,3.9-10.6,10.6v-7.9l6.7-6.7h0Zm6.9,6.9l3.9,3.9-13.8,13.8-3.7,3.7v-7.8l13.5-13.5h0Zm-3.9,17.7l10.8-10.8,3.9,3.9-6.9,6.9-17.5,17.5v-7.9l9.6-9.6h0Zm13.7,0l3.9-3.9,3.9,3.9-31.2,31.2v-7.9l23.3-23.3h0Zm13.1,26.9l-10.2-10.2,3.9-3.9,6.2,6.2v7.9Zm0,5.9v7.8l-17-17,3.9-3.9,13.1,13.1h0Zm0,68.7l-10.2-10.2,3.9-3.9,6.2,6.2v7.9Zm0,5.9v7.8l-17-17,3.9-3.9,13.1,13.1h0Zm-32.7,14.4l-3.7,3.7v-7.4l3.7,3.7h0Zm3,3l3.9,3.9-10.6,10.6v-7.8l6.7-6.7h0Zm6.9,6.9l3.9,3.9-13.8,13.8-3.7,3.7v-7.8l13.5-13.5h0Zm-3.9,17.7l10.8-10.8,3.9,3.9-6.9,6.9-17.5,17.5v-7.9l9.6-9.6h0Zm13.7,0l3.9-3.9,3.9,3.9-31.2,31.2v-7.9l23.3-23.3Zm13.1,26.8l-10.2-10.2,3.9-3.9,6.2,6.2v7.9Zm0,5.9v7.8l-17-17,3.9-3.9,13.1,13.1Zm-32.7,14.4l-3.7,3.7v-7.4l3.7,3.7h0Zm3,3l3.9,3.9-10.6,10.6v-7.8l6.7-6.7h0Zm6.9,6.9l3.9,3.9-13.8,13.8-3.7,3.7v-7.8l13.5-13.5h0Zm-3.9,17.7l10.8-10.8,3.9,3.9-6.9,6.9-17.5,17.5v-7.9l9.6-9.6h0Zm13.7,0l3.9-3.9,3.9,3.9-31.2,31.2v-7.9l23.3-23.3Zm13.1,26.8l-10.2-10.2,3.9-3.9,6.2,6.2v7.9Zm0,5.9v7.8l-17-17,3.9-3.9,13.1,13.1h0Zm-32.7,14.4l-3.7,3.7v-7.4l3.7,3.7h0Zm3,3l3.9,3.9-10.6,10.6v-7.8l6.7-6.7h0Zm6.9,6.9l3.9,3.9-13.8,13.8-3.7,3.7v-7.8l13.5-13.5h0Zm-3.9,17.7l10.8-10.8,3.9,3.9-6.9,6.9-17.5,17.5v-7.9l9.6-9.6h0Zm13.7,0l3.9-3.9,3.9,3.9-31.2,31.2v-7.9l23.3-23.3Zm13.1,26.8l-10.2-10.2,3.9-3.9,6.2,6.2v7.9Zm0,5.9v7.8l-17-17,3.9-3.9,13.1,13.1h0Zm-32.7,14.4l-3.7,3.7v-7.4l3.7,3.7h0Zm3,3l3.9,3.9-10.6,10.6v-7.8l6.7-6.7h0Zm6.9,6.9l3.9,3.9-13.8,13.8-3.7,3.7v-7.8l13.5-13.5h0Zm-3.9,17.7l10.8-10.8,3.9,3.9-6.9,6.9-17.5,17.5v-7.9l9.6-9.6h0Zm13.7,0l3.9-3.9,3.9,3.9-31.2,31.2v-7.9l23.3-23.3Zm13.1,26.8l-10.2-10.2,3.9-3.9,6.2,6.2v7.9Zm0,5.9v7.8l-17-17,3.9-3.9,13.1,13.1h0Zm-26.9.6l26.9,26.8v7.8l-30.8-30.8,3.9-3.9h0Zm3-3l3.9-3.9,20,20v7.8l-23.9-23.9h0Zm23.9-17.3l-3.3-3.3,3.3-3.3v6.6h0Zm-30.8-50.4l3.9-3.9,26.9,26.8v7.8l-30.8-30.8h0Zm6.9-6.9l3.9-3.9,20,20v7.8l-23.9-23.9h0Zm23.9-17.3l-3.3-3.3,3.3-3.3v6.6h0Zm-30.8-50.4l3.9-3.9,26.9,26.8v7.8l-30.8-30.8h0Zm6.9-6.9l3.9-3.9,20,20v7.8l-23.9-23.9h0Zm23.9-17.3l-3.3-3.3,3.3-3.3v6.6h0Zm-30.8-50.4l3.9-3.9,26.9,26.8v7.8l-30.8-30.8h0Zm6.9-6.9l3.9-3.9,20,20v7.8l-23.9-23.9h0Zm23.9-17.3l-3.3-3.3,3.3-3.3v6.6h0Zm-30.8-50.4l3.9-3.9,26.9,26.8v7.8l-30.8-30.8h0Zm6.9-6.9l3.9-3.9,20,20v7.8l-23.9-23.9h0Zm23.9-17.3l-3.3-3.3,3.3-3.3v6.6h0Zm-36.5,18.1v-7.9l23.3-23.3,3.9-3.9,3.9,3.9-31.2,31.2h0Zm5.7-68.5l3.9-3.9,26.9,26.9v7.9l-30.8-30.8h0Zm6.9-6.9l3.9-3.9,20,20v7.9l-23.9-23.9h0Zm23.9-17.3l-3.3-3.3,3.3-3.3v6.6h0Zm-30.8-50.4l3.9-3.9,26.9,26.9v7.9l-30.8-30.8h0Zm6.9-6.9l3.9-3.9,20,20v7.9l-23.9-23.9h0Zm23.9-17.3l-3.3-3.3,3.3-3.3v6.6h0Zm-30.8-50.4l3.9-3.9,26.9,26.9v7.9l-30.8-30.8h0Zm6.9-6.9l3.9-3.9,20,20v7.9l-23.9-23.9h0Zm23.9-17.3l-3.3-3.3,3.3-3.3v6.6h0Zm-30.8-50.4l3.9-3.9,26.9,26.9v7.9l-30.8-30.8h0Zm6.9-6.9l3.9-3.9,20,20v7.9l-23.9-23.9h0Zm23.9-17.3l-3.3-3.3,3.3-3.3v6.6h0Zm-36.5,275.2v-7.9l6.7-6.7,3.9,3.9-10.6,10.6h0Zm9.6,10l10.8-10.8,3.9,3.9-6.9,6.9-17.5,17.5v-7.9l9.6-9.6h0Zm-9.6,362.9v-7.8l6.7-6.7,3.9,3.9-10.6,10.6h0Zm54.7-34.9c3.8.8,7.2,2.1,10.1,4.2,5.6,3.8,8.7,10.9,6.4,17-1.4,3.9-6.4,7.5-10.8,6.5-4.5-1.1-7.4-6.4-6.2-10.8.8-4,5.3-6.4,9.3-4.9-1-3.1-4.6-5-7.9-5-5.6,0-10,4.2-11.8,9.3v-17c3.8-.2,7.5,0,10.8.7h0Zm0-74.6c3.8.8,7.2,2.1,10.1,4.2,5.6,3.8,8.7,10.9,6.4,17-1.4,3.9-6.4,7.5-10.8,6.5-4.5-1.1-7.4-6.4-6.2-10.8.8-4,5.3-6.4,9.3-4.9-1-3.1-4.6-5-7.9-5-5.6,0-10,4.2-11.8,9.3v-17c3.8-.2,7.5,0,10.8.7h0Zm0-74.6c3.8.8,7.2,2.1,10.1,4.2,5.6,3.8,8.7,10.9,6.4,17-1.4,3.9-6.4,7.5-10.8,6.5-4.5-1.1-7.4-6.4-6.2-10.8.8-4,5.3-6.4,9.3-4.9-1-3.1-4.6-5-7.9-5-5.6,0-10,4.2-11.8,9.3v-17c3.8-.2,7.5,0,10.8.7h0Zm0-74.6c3.8.8,7.2,2.1,10.1,4.2,5.6,3.8,8.7,10.9,6.4,17-1.4,3.9-6.4,7.5-10.8,6.5-4.5-1.1-7.4-6.4-6.2-10.8.8-4,5.3-6.4,9.3-4.9-1-3.1-4.6-5-7.9-5-5.6,0-10,4.2-11.8,9.3v-17c3.8-.2,7.5,0,10.8.7h0Zm0-74.6c3.8.8,7.2,2.1,10.1,4.2,5.6,3.8,8.7,10.9,6.4,17-1.4,3.9-6.4,7.5-10.8,6.5-4.5-1.1-7.4-6.4-6.2-10.8.8-4,5.3-6.4,9.3-4.9-1-3.1-4.6-5-7.9-5-5.6,0-10,4.2-11.8,9.3v-17c3.8-.2,7.5,0,10.8.7h0Zm0-74.6c3.8.8,7.2,2.1,10.1,4.2,5.6,3.8,8.7,10.9,6.4,17-1.4,3.9-6.4,7.5-10.8,6.5-4.5-1.1-7.4-6.4-6.2-10.8.8-4,5.3-6.4,9.3-4.9-1-3.1-4.6-5-7.9-5-5.6,0-10,4.2-11.8,9.3v-17c3.8-.2,7.5,0,10.8.7h0Zm0-74.6c3.8.8,7.2,2.1,10.1,4.2,5.6,3.8,8.7,10.9,6.4,17-1.4,3.9-6.4,7.5-10.8,6.5-4.5-1.1-7.4-6.4-6.2-10.8.8-4,5.3-6.4,9.3-4.9-1-3.1-4.6-5-7.9-5-5.6,0-10,4.2-11.8,9.3v-17c3.8-.2,7.5,0,10.8.7h0Zm0-74.6c3.8.8,7.2,2.1,10.1,4.2,5.6,3.8,8.7,10.9,6.4,17-1.4,3.9-6.4,7.5-10.8,6.5-4.5-1.1-7.4-6.4-6.2-10.8.8-4,5.3-6.4,9.3-4.9-1-3.1-4.6-5-7.9-5-5.6,0-10,4.2-11.8,9.3v-17c3.8-.2,7.5,0,10.8.7h0Zm0-74.6c3.8.8,7.2,2.1,10.1,4.2,5.6,3.8,8.7,10.9,6.4,17-1.4,3.9-6.4,7.5-10.8,6.5-4.5-1.1-7.4-6.4-6.2-10.8.8-4,5.3-6.4,9.3-4.9-1-3.1-4.6-5-7.9-5-5.6,0-10,4.2-11.8,9.3v-17c3.8-.2,7.5,0,10.8.7h0Zm0-74.6c3.8.8,7.2,2.1,10.1,4.2,5.6,3.8,8.7,10.9,6.4,17-1.4,3.9-6.4,7.5-10.8,6.5-4.5-1.1-7.4-6.4-6.2-10.8.8-4,5.3-6.4,9.3-4.9-1-3.1-4.6-5-7.9-5-5.6,0-10,4.2-11.8,9.3v-16.9c3.8-.2,7.5,0,10.8.7h0Z"/><polygon class="cls-8" points="349.5 11.3 349.5 11.3 349.7 11.7 351.1 14.1 351.3 14.4 351.4 14.1 352.8 11.7 353.1 11.3 353.1 11.3 355 8 356.4 5.6 353.4 5.6 349.2 5.6 346.1 5.6 347.6 8 349.5 11.3"/><polygon class="cls-8" points="349.5 384.2 349.5 384.2 349.7 384.6 351.1 387 351.3 387.3 351.4 387 352.8 384.6 353.1 384.2 353.1 384.2 355 380.9 356.4 378.5 353.4 378.5 349.2 378.5 346.1 378.5 347.6 380.9 349.5 384.2"/><path class="cls-8" d="m79.4,50.5c-3.8-.8-7.2-2.1-10.1-4.2-5.6-3.8-8.7-10.9-6.4-17,1.4-3.9,6.4-7.5,10.8-6.5,4.5,1.1,7.4,6.4,6.2,10.8-.8,4-5.3,6.4-9.3,4.9,1,3.1,4.6,5,7.9,5,7.9,0,13.5-8.5,12.6-15.9-.7-7.6-6.1-13.8-13.1-16.7-7-2.9-15.3-1.5-21.5,2.7-12.9,8.3-15,27.1-7.5,39.7,8.4,15.1,26.3,22.2,42.5,23.2v-4.5c0,0,0,53.7,0,53.7-4.3.3-8.4.2-12.1-.6-3.8-.8-7.2-2.1-10.1-4.2-5.6-3.8-8.7-10.9-6.4-17,1.4-3.9,6.4-7.5,10.8-6.5,4.5,1.1,7.4,6.4,6.2,10.8-.8,4-5.3,6.4-9.3,4.9,1,3.1,4.6,5,7.9,5,7.9,0,13.5-8.5,12.6-15.9-.7-7.6-6.1-13.8-13.1-16.7-7-2.9-15.3-1.5-21.5,2.7-12.9,8.3-15,27.1-7.5,39.7,8.4,15.1,26.3,22.2,42.5,23.2v-4.5c0,0,0,53.7,0,53.7-4.3.3-8.4.2-12.1-.6-3.8-.8-7.2-2.1-10.1-4.2-5.6-3.8-8.7-10.9-6.4-17,1.4-3.9,6.4-7.5,10.8-6.5,4.5,1.1,7.4,6.4,6.2,10.8-.8,4-5.3,6.4-9.3,4.9,1,3.1,4.6,5,7.9,5,7.9,0,13.5-8.5,12.6-15.9-.7-7.6-6.1-13.8-13.1-16.7-7-2.9-15.3-1.5-21.5,2.7-12.9,8.3-15,27.1-7.5,39.7,8.4,15.1,26.3,22.2,42.5,23.2v-4.5c0,0,0,53.7,0,53.7-4.3.3-8.4.2-12.1-.6-3.8-.8-7.2-2.1-10.1-4.2-5.6-3.8-8.7-10.9-6.4-17,1.4-3.9,6.4-7.5,10.8-6.5,4.5,1.1,7.4,6.4,6.2,10.8-.8,4-5.3,6.4-9.3,4.9,1,3.1,4.6,5,7.9,5,7.9,0,13.5-8.5,12.6-15.9-.7-7.6-6.1-13.8-13.1-16.7-7-2.9-15.3-1.5-21.5,2.7-12.9,8.3-15,27.1-7.5,39.7,8.4,15.1,26.3,22.2,42.5,23.2v-4.5c0,0,0,53.7,0,53.7-4.3.3-8.4.2-12.1-.6-3.8-.8-7.2-2.1-10.1-4.2-5.6-3.8-8.7-10.9-6.4-17,1.4-3.9,6.4-7.5,10.8-6.5,4.5,1.1,7.4,6.4,6.2,10.8-.8,4-5.3,6.4-9.3,4.9,1,3.1,4.6,5,7.9,5,7.9,0,13.5-8.5,12.6-15.9-.7-7.6-6.1-13.8-13.1-16.7-7-2.9-15.3-1.5-21.5,2.7-12.9,8.3-15,27.1-7.5,39.7,8.4,15.1,26.3,22.2,42.5,23.2v-4.5c0,0,0,53.7,0,53.7-4.3.3-8.4.2-12.1-.6-3.8-.8-7.2-2.1-10.1-4.2-5.6-3.8-8.7-10.9-6.4-17,1.4-3.9,6.4-7.5,10.8-6.5,4.5,1.1,7.4,6.4,6.2,10.8-.8,4-5.3,6.4-9.3,4.9,1,3.1,4.6,5,7.9,5,7.9,0,13.5-8.5,12.6-15.9-.7-7.6-6.1-13.8-13.1-16.7-7-2.9-15.3-1.5-21.5,2.7-12.9,8.3-15,27.1-7.5,39.7,8.4,15.1,26.3,22.2,42.5,23.2v-4.5c0,0,0,53.7,0,53.7-4.3.3-8.4.2-12.1-.6-3.8-.8-7.2-2.1-10.1-4.2-5.6-3.8-8.7-10.9-6.4-17,1.4-3.9,6.4-7.5,10.8-6.5,4.5,1.1,7.4,6.4,6.2,10.8-.8,4-5.3,6.4-9.3,4.9,1,3.1,4.6,5,7.9,5,7.9,0,13.5-8.5,12.6-15.9-.7-7.6-6.1-13.8-13.1-16.7-7-2.9-15.3-1.5-21.5,2.7-12.9,8.3-15,27.1-7.5,39.7,8.4,15.1,26.3,22.2,42.5,23.2v-4.5c0,0,0,53.7,0,53.7-4.3.3-8.4.2-12.1-.6-3.8-.8-7.2-2.1-10.1-4.2-5.6-3.8-8.7-10.9-6.4-17,1.4-3.9,6.4-7.5,10.8-6.5,4.5,1.1,7.4,6.4,6.2,10.8-.8,4-5.3,6.4-9.3,4.9,1,3.1,4.6,5,7.9,5,7.9,0,13.5-8.5,12.6-15.9-.7-7.6-6.1-13.8-13.1-16.7-7-2.9-15.3-1.5-21.5,2.7-12.9,8.3-15,27.1-7.5,39.7,8.4,15.1,26.3,22.2,42.5,23.2v-4.5c0,0,0,53.7,0,53.7-4.3.3-8.4.2-12.1-.6-3.8-.8-7.2-2.1-10.1-4.2-5.6-3.8-8.7-10.9-6.4-17,1.4-3.9,6.4-7.5,10.8-6.5,4.5,1.1,7.4,6.4,6.2,10.8-.8,4-5.3,6.4-9.3,4.9,1,3.1,4.6,5,7.9,5,7.9,0,13.5-8.5,12.6-15.9-.7-7.6-6.1-13.8-13.1-16.7-7-2.9-15.3-1.5-21.5,2.7-12.9,8.3-15,27.1-7.5,39.7,8.4,15.1,26.3,22.2,42.5,23.2v-4.5c0,0,0,53.7,0,53.7-4.3.3-8.4.2-12.1-.6-3.8-.8-7.2-2.1-10.1-4.2-5.6-3.8-8.7-10.9-6.4-17,1.4-3.9,6.4-7.5,10.8-6.5,4.5,1.1,7.4,6.4,6.2,10.8-.8,4-5.3,6.4-9.3,4.9,1,3.1,4.6,5,7.9,5,7.9,0,13.5-8.5,12.6-15.9-.7-7.6-6.1-13.8-13.1-16.7-7-2.9-15.3-1.5-21.5,2.7-12.9,8.3-15,27.1-7.5,39.7,8.4,15.1,26.3,22.2,42.5,23.2v-4.5c0,0,0,8.2,0,8.2h7.5v-4.2l13.5-13.5,3.9,3.9-13.8,13.8h5.9l10.8-10.8,3.9,3.9-6.9,6.9h5.9l3.9-3.9,3.9,3.9h13.2v-372.9h-7.4,7.4V5.6h-13.2l-31.1,31.2v-7.9l23.3-23.3h-5.9l-17.4,17.4v-7.9l9.6-9.6h-5.9l-3.7,3.7v-3.7h-7.5v45.5c-4.3.3-8.4.2-12.1-.6h0Zm38.9-21.4l3.9-3.9,13.6,13.6v7.8l-17.6-17.6Zm17.6,23.5v7.9l-24.4-24.4,3.9-3.9,20.5,20.5Zm-10.7-30.3l3.9-3.9,6.8,6.8v7.9l-10.7-10.7Zm6.9-6.9l3.8-3.8v7.7s-3.8-3.8-3.8-3.8Zm3.8,50.9v7.9l-31.3-31.3,3.9-3.9,27.4,27.4h0Zm-33.3,657.6l-3.7,3.7v-7.3l3.7,3.7h0Zm0-298.3l-3.7,3.7v-7.3l3.7,3.7h0Zm-3.7,9.6l6.6-6.6,3.9,3.9-10.5,10.5v-7.8h0Zm13.5.3l3.9,3.9-13.8,13.8-3.7,3.7v-7.8l13.5-13.5h0Zm-3.9,17.7l10.8-10.8,3.9,3.9-6.9,6.9-17.4,17.4v-7.9l9.6-9.5Zm13.7,0l3.9-3.9,3.9,3.9-31.1,31.2v-7.9l23.3-23.3h0Zm-19.6,47.1l-3.7,3.7v-7.3l3.7,3.7h0Zm-3.7,9.6l6.6-6.6,3.9,3.9-10.5,10.5v-7.8h0Zm13.5.3l3.9,3.9-13.8,13.8-3.7,3.7v-7.8l13.5-13.5h0Zm-3.9,17.7l10.8-10.8,3.9,3.9-6.9,6.9-17.4,17.4v-7.9l9.6-9.5Zm13.7,0l3.9-3.9,3.9,3.9-31.1,31.2v-7.9l23.3-23.3h0Zm-19.6,47.1l-3.7,3.7v-7.3l3.7,3.7h0Zm-3.7,9.6l6.6-6.6,3.9,3.9-10.5,10.5v-7.8h0Zm13.5.3l3.9,3.9-13.8,13.8-3.7,3.7v-7.8l13.5-13.5h0Zm-3.9,17.7l10.8-10.8,3.9,3.9-6.9,6.9-17.4,17.4v-7.9l9.6-9.5Zm13.7,0l3.9-3.9,3.9,3.9-31.1,31.2v-7.9l23.3-23.3h0Zm-19.6,47.1l-3.7,3.7v-7.3l3.7,3.7h0Zm-3.7,9.6l6.6-6.6,3.9,3.9-10.5,10.5v-7.8h0Zm13.5.3l3.9,3.9-13.8,13.8-3.7,3.7v-7.8l13.5-13.5h0Zm-3.9,17.7l10.8-10.8,3.9,3.9-6.9,6.9-17.4,17.4v-7.9l9.6-9.5Zm13.7,0l3.9-3.9,3.9,3.9-31.1,31.2v-7.9l23.3-23.3h0Zm-17.6,37.3l3.9-3.9,27.4,27.4v7.8l-31.3-31.3h0Zm6.9-6.9l3.9-3.9,20.5,20.5v7.8l-24.4-24.4Zm6.9-6.9l3.9-3.9,13.6,13.6v7.8l-17.6-17.6h0Zm6.9-6.9l3.9-3.9,6.8,6.8v7.9l-10.7-10.7Zm6.9-6.9l3.8-3.8v7.7l-3.8-3.8h0Zm-27.5-47.1l3.9-3.9,27.4,27.4v7.8l-31.3-31.3Zm6.9-6.9l3.9-3.9,20.5,20.5v7.8l-24.4-24.4Zm6.9-6.9l3.9-3.9,13.6,13.6v7.8l-17.6-17.6h0Zm6.9-6.9l3.9-3.9,6.8,6.8v7.9l-10.7-10.7Zm6.9-6.9l3.8-3.8v7.7l-3.8-3.8h0Zm-27.5-47.1l3.9-3.9,27.4,27.4v7.8l-31.3-31.3Zm6.9-6.9l3.9-3.9,20.5,20.5v7.8l-24.4-24.4Zm6.9-6.9l3.9-3.9,13.6,13.6v7.8l-17.6-17.6h0Zm6.9-6.9l3.9-3.9,6.8,6.8v7.9l-10.7-10.7Zm6.9-6.9l3.8-3.8v7.7l-3.8-3.8h0Zm-27.5-47.1l3.9-3.9,27.4,27.4v7.8l-31.3-31.3Zm6.9-6.9l3.9-3.9,20.5,20.5v7.8l-24.4-24.4Zm6.9-6.9l3.9-3.9,13.6,13.6v7.8l-17.6-17.6h0Zm6.9-6.9l3.9-3.9,6.8,6.8v7.9l-10.7-10.7Zm6.9-6.9l3.8-3.8v7.7l-3.8-3.8h0Zm-27.5-47.1l3.9-3.9,27.4,27.4v7.8l-31.3-31.3h0Zm6.9-6.9l3.9-3.9,20.5,20.5v7.8l-24.4-24.4h0Zm6.9-6.9l3.9-3.9,13.6,13.6v7.8l-17.6-17.6Zm6.9-6.9l3.9-3.9,6.8,6.8v7.9l-10.7-10.7h0Zm6.9-6.9l3.8-3.8v7.7l-3.8-3.8h0ZM99,62.3l6.6-6.6,3.9,3.9-10.5,10.5v-7.9h0Zm13.5.3l3.9,3.9-13.8,13.8-3.7,3.7v-7.8l13.5-13.5h0Zm-3.9,17.7l10.8-10.8,3.9,3.9-6.9,6.9-17.4,17.4v-7.9l9.6-9.6h0Zm13.7,0l3.9-3.9,3.9,3.9-31.1,31.1v-7.9l23.3-23.3Zm-19.6,47.1l-3.7,3.7v-7.3l3.7,3.7h0Zm-3.7,9.6l6.6-6.6,3.9,3.9-10.5,10.5v-7.9h0Zm13.5.3l3.9,3.9-13.8,13.8-3.7,3.7v-7.8l13.5-13.5h0Zm-3.9,17.7l10.8-10.8,3.9,3.9-6.9,6.9-17.4,17.4v-7.9l9.6-9.6h0Zm13.7,0l3.9-3.9,3.9,3.9-31.1,31.1v-7.9l23.3-23.3h0Zm-19.6,47.1l-3.7,3.7v-7.3l3.7,3.7h0Zm-3.7,9.6l6.6-6.6,3.9,3.9-10.5,10.5v-7.9h0Zm13.5.3l3.9,3.9-13.8,13.8-3.7,3.7v-7.8l13.5-13.5h0Zm-3.9,17.7l10.8-10.8,3.9,3.9-6.9,6.9-17.4,17.4v-7.9l9.6-9.5h0Zm13.7,0l3.9-3.9,3.9,3.9-31.1,31.1v-7.9l23.3-23.3Zm-19.6,47.1l-3.7,3.7v-7.3l3.7,3.7h0Zm-3.7,9.6l6.6-6.6,3.9,3.9-10.5,10.5v-7.9h0Zm13.5.3l3.9,3.9-13.8,13.8-3.7,3.7v-7.8l13.5-13.5h0Zm-3.9,17.7l10.8-10.8,3.9,3.9-6.9,6.9-17.4,17.4v-7.9l9.6-9.5h0Zm13.7,0l3.9-3.9,3.9,3.9-31.1,31.1v-7.9l23.3-23.3h0Zm-19.6,47.1l-3.7,3.7v-7.3l3.7,3.7h0Zm-3.7,9.6l6.6-6.6,3.9,3.9-10.5,10.5v-7.9h0Zm13.5.3l3.9,3.9-13.8,13.8-3.7,3.7v-7.8l13.5-13.5h0Zm-3.9,17.7l10.8-10.8,3.9,3.9-6.9,6.9-17.4,17.4v-7.9l9.6-9.5h0Zm13.7,0l3.9-3.9,3.9,3.9-31.1,31.1v-7.9l23.3-23.3Zm-17.6-37.3l3.9-3.9,27.4,27.4v7.9l-31.3-31.3Zm6.9-6.9l3.9-3.9,20.5,20.5v7.9l-24.4-24.4Zm6.9-6.9l3.9-3.9,13.6,13.6v7.8l-17.6-17.6Zm6.9-6.9l3.9-3.9,6.8,6.8v7.9l-10.7-10.7h0Zm6.9-6.9l3.8-3.8v7.7l-3.8-3.8h0Zm-27.5-47.1l3.9-3.9,27.4,27.4v7.9l-31.3-31.3Zm6.9-6.9l3.9-3.9,20.5,20.5v7.9l-24.4-24.4Zm6.9-6.9l3.9-3.9,13.6,13.6v7.8l-17.6-17.6Zm6.9-6.9l3.9-3.9,6.8,6.8v7.9l-10.7-10.7h0Zm6.9-6.9l3.8-3.8v7.7l-3.8-3.8h0Zm-27.5-47.1l3.9-3.9,27.4,27.4v7.9l-31.3-31.3Zm6.9-6.9l3.9-3.9,20.5,20.5v7.9l-24.4-24.4Zm6.9-6.9l3.9-3.9,13.6,13.6v7.8l-17.6-17.6Zm6.9-6.9l3.9-3.9,6.8,6.8v7.9l-10.7-10.7h0Zm6.9-6.9l3.8-3.8v7.7l-3.8-3.8Zm-27.5-47.1l3.9-3.9,27.4,27.4v7.9l-31.3-31.3h0Zm6.9-6.9l3.9-3.9,20.5,20.5v7.9l-24.4-24.4Zm6.9-6.9l3.9-3.9,13.6,13.6v7.8l-17.6-17.6Zm6.9-6.9l3.9-3.9,6.8,6.8v7.9l-10.7-10.7h0Zm6.9-6.9l3.8-3.8v7.7l-3.8-3.8Zm-29.4-37.3l-3.7,3.7v-7.3l3.7,3.7h0Zm-3.7,688.6v-7.8l6.6-6.6,3.9,3.9-10.5,10.5h0Z"/><path class="cls-8" d="m490.9,751.4v-2.1h0v1l18.5-16.9h0l5.7,5.2h0l-13.9,12.8h2.3l12.8-11.7,5.7,5.2h0l-7.1,6.5h2.3l5.9-5.4,5.7,5.2-.2.2h12.3V5.6h-12.3l-18.8,17.2-.6.5-.6.5-5.7,5.2h0l-.6.5h0l-.6.5-5.7,5.2-.6.5h0l-.6.5h0l-4.1,3.8v-10.5l5.3-4.8.6-.5h0l.6-.5h0l5.7-5.2.6-.5.6-.5,13-11.9h-2.3l-11.9,10.9-.6.5-.6.5-5.7,5.2-.6.5h0l-.6.5-4.1,3.8h0v-10.5l5.3-4.8.6-.5.6-.5,6.2-5.6h-2.3l-5,4.6-.6.5-.6.5-4.1,3.8V5.6h-11.7v745.8h11.7Zm38.4-12.4v11.5h0v-1l-5-4.6-.6-.5h0l-.6-.5h0l-5.7-5.2-.6-.5-.6-.5-5.7-5.2-.6-.5-.6-.5-18.5-16.9v-.8l5.3-4.8h0l33.1,30.3h0Zm0-12.6v10.5l-32-29.3h0l5.7-5.2h0l26.3,24h0Zm0-13.4v11.3l-25.1-23,5.7-5.2,19,17.3.4.4v-1h0v.3h0Zm0-48.6v11.5h0v-1l-5-4.6-.6-.5h0l-.6-.5h0l-5.7-5.2-.6-.5-.6-.5-5.7-5.2-.6-.5-.6-.5-18.5-16.9v-.8l5.3-4.8h0l33.1,30.3h0Zm0-12.6v10.5l-32-29.3h0l5.7-5.2h0l26.3,24h0Zm0-13.4v11.3l-25.1-23,5.7-5.2,19,17.3.4.4v-1h0v.3h0Zm0-48.6v11.5h0v-1l-5-4.6-.6-.5h0l-.6-.5h0l-5.7-5.2-.6-.5-.6-.5-5.7-5.2-.6-.5-.6-.5-18.5-16.9v-.8l5.3-4.8h0l33.1,30.3h0Zm0-12.6v10.5l-32-29.3h0l5.7-5.2h0l26.3,24h0Zm0-13.4v11.3l-25.1-23,5.7-5.2,19,17.3.4.4v-1h0v.3h0Zm0-48.6v11.5h0v-1l-5-4.6-.6-.5h0l-.6-.5h0l-5.7-5.2-.6-.5-.6-.5-5.7-5.2-.6-.5-.6-.5-18.5-16.9v-.8l5.3-4.8h0l33.1,30.3h0Zm0-12.6v10.5l-32-29.3h0l5.7-5.2h0l26.3,24h0Zm0-13.4v11.3l-25.1-23,5.7-5.2,19,17.3.4.4v-1h0v.3h0Zm0-48.6v11.5h0v-1l-5-4.6-.6-.5h0l-.6-.5h0l-5.7-5.2-.6-.5-.6-.5-5.7-5.2-.6-.5-.6-.5-18.5-16.9v-.8l5.3-4.8h0l33.1,30.3h0Zm0-12.6v10.5l-32-29.3h0l5.7-5.2h0l26.3,24h0Zm0-13.4v11.3l-25.1-23,5.7-5.2,19,17.3.4.4v-1h0v.3h0Zm0-48.6v11.5h0v-1l-5-4.6-.6-.5h0l-.6-.5h0l-5.7-5.2-.6-.5-.6-.5-5.7-5.2-.6-.5-.6-.5-18.5-16.9v-.8l5.3-4.8h0l33.1,30.3h0Zm0-12.6v10.5l-32-29.3h0l5.7-5.2h0l26.3,24h0Zm0-13.4v11.3l-25.1-23,5.7-5.2,19,17.3.4.4v-1h0v.3Zm0-48.6v11.5h0v-1l-5-4.6-.6-.5h0l-.6-.5h0l-5.7-5.2-.6-.5-.6-.5-5.7-5.2-.6-.5-.6-.5-18.5-16.9v-.8l5.3-4.8h0l33.1,30.3h0Zm0-12.6v10.5l-32-29.3h0l5.7-5.2h0l26.3,24h0Zm0-13.4v11.3l-25.1-23,5.7-5.2,19,17.3.4.4v-1h0v.3Zm0-48.6v11.5h0v-1l-5-4.6-.6-.5h0l-.6-.5h0l-5.7-5.2-.6-.5-.6-.5-5.7-5.2-.6-.5-.6-.5-18.5-16.9v-.8l5.3-4.8h0l33.1,30.3h0Zm0-12.6v10.5l-32-29.3h0l5.7-5.2h0l26.3,24h0Zm0-13.4v11.3l-25.1-23,5.7-5.2,19,17.3.4.4v-1h0v.3Zm0-48.6v11.6h0v-1.1l-5-4.6-.6-.5h0l-.6-.5h0l-5.7-5.2-.6-.5-.6-.5-5.7-5.2-.6-.5-.6-.5-18.5-16.9v-.8l5.3-4.8h0l33.1,30.3h0Zm0-12.6v10.5l-32-29.3h0l5.7-5.2h0l26.3,24h0Zm0-13.4v11.3l-25.1-23,5.7-5.2,19,17.3.4.4v-1.1h0v.3Zm0-48.6v11.6h0v-1.1l-5-4.6-.6-.5h0l-.6-.5h0l-5.7-5.2-.6-.5-.6-.5-5.7-5.2-.6-.5-.6-.5-18.5-16.9v-.8l5.3-4.8h0l33.1,30.3h0Zm0-12.6v10.5l-32-29.3h0l5.7-5.2h0l26.3,24h0Zm0-13.4v11.3l-25.1-23,5.7-5.2,19,17.3.4.4v-1.1h0v.3Zm-38.4,40.2v-4h0v1.1l18.5-16.9h0l5.7,5.2h0l-13.9,12.8h0l-5,4.6-.6.5-.6.5-4.1,3.8v-7.6h0Zm0,20.1v-10.5l5.3-4.8.6-.5.6-.5,6.2-5.6h0l12.8-11.7,5.7,5.2h0l-7.1,6.5h0l-11.9,10.9-.6.5-.6.5-5.7,5.2-.6.5h0l-.6.5-4.1,3.8h0Zm0,2.1l5.3-4.8.6-.5h0l.6-.5h0l5.7-5.2.6-.5.6-.5,13-11.9h0l5.9-5.4,5.7,5.2-.2.2-18.8,17.2-.6.5-.6.5-5.7,5.2h0l-.6.5h0l-.6.5-5.7,5.2-.6.5h0l-.6.5h0l-4.1,3.8v-10.5h0Zm0,52.3v-4h0v1.1l18.5-16.9h0l5.7,5.2h0l-13.9,12.8h0l-5,4.6-.6.5-.6.5-4.1,3.8v-7.6h0Zm0,20.1v-10.5l5.3-4.8.6-.5.6-.5,6.2-5.6h0l12.8-11.7,5.7,5.2h0l-7.1,6.5h0l-11.9,10.9-.6.5-.6.5-5.7,5.2-.6.5h0l-.6.5-4.1,3.8h0Zm0,2.1l5.3-4.8.6-.5h0l.6-.5h0l5.7-5.2.6-.5.6-.5,13-11.9h0l5.9-5.4,5.7,5.2-.2.2-18.8,17.2-.6.5-.6.5-5.7,5.2h0l-.6.5h0l-.6.5-5.7,5.2-.6.5h0l-.6.5h0l-4.1,3.8v-10.5h0Zm0,52.3v-4h0v1l18.5-16.9h0l5.7,5.2h0l-13.9,12.8h0l-5,4.6-.6.5-.6.5-4.1,3.8v-7.5h0Zm0,20.1v-10.5l5.3-4.8.6-.5.6-.5,6.2-5.6h0l12.8-11.7,5.7,5.2h0l-7.1,6.5h0l-11.9,10.9-.6.5-.6.5-5.7,5.2-.6.5h0l-.6.5-4.1,3.8h0Zm0,2.1l5.3-4.8.6-.5h0l.6-.5h0l5.7-5.2.6-.5.6-.5,13-11.9h0l5.9-5.4,5.7,5.2-.2.2-18.8,17.2-.6.5-.6.5-5.7,5.2h0l-.6.5h0l-.6.5-5.7,5.2-.6.5h0l-.6.5h0l-4.1,3.8v-10.5h0Zm0,52.3v-4h0v1l18.5-16.9h0l5.7,5.2h0l-13.9,12.8h0l-5,4.6-.6.5-.6.5-4.1,3.8v-7.5h0Zm0,20.1v-10.5l5.3-4.8.6-.5.6-.5,6.2-5.6h0l12.8-11.7,5.7,5.2h0l-7.1,6.5h0l-11.9,10.9-.6.5-.6.5-5.7,5.2-.6.5h0l-.6.5-4.1,3.8h0Zm0,2.1l5.3-4.8.6-.5h0l.6-.5h0l5.7-5.2.6-.5.6-.5,13-11.9h0l5.9-5.4,5.7,5.2-.2.2-18.8,17.2-.6.5-.6.5-5.7,5.2h0l-.6.5h0l-.6.5-5.7,5.2-.6.5h0l-.6.5h0l-4.1,3.8v-10.5h0Zm0,52.3v-4h0v1l18.5-16.9h0l5.7,5.2h0l-13.9,12.8h0l-5,4.6-.6.5-.6.5-4.1,3.8v-7.5h0Zm0,20.1v-10.5l5.3-4.8.6-.5.6-.5,6.2-5.6h0l12.8-11.7,5.7,5.2h0l-7.1,6.5h0l-11.9,10.9-.6.5-.6.5-5.7,5.2-.6.5h0l-.6.5-4.1,3.8h0Zm0,2.1l5.3-4.8.6-.5h0l.6-.5h0l5.7-5.2.6-.5.6-.5,13-11.9h0l5.9-5.4,5.7,5.2-.2.2-18.8,17.2-.6.5-.6.5-5.7,5.2h0l-.6.5h0l-.6.5-5.7,5.2-.6.5h0l-.6.5h0l-4.1,3.8v-10.5h0Zm0,52.3v-4h0v1l18.5-16.9h0l5.7,5.2h0l-13.9,12.8h0l-5,4.6-.6.5-.6.5-4.1,3.8v-7.5h0Zm0,20.1v-10.5l5.3-4.8.6-.5.6-.5,6.2-5.6h0l12.8-11.7,5.7,5.2h0l-7.1,6.5h0l-11.9,10.9-.6.5-.6.5-5.7,5.2-.6.5h0l-.6.5-4.1,3.8h0Zm0,2.1l5.3-4.8.6-.5h0l.6-.5h0l5.7-5.2.6-.5.6-.5,13-11.9h0l5.9-5.4,5.7,5.2-.2.2-18.8,17.2-.6.5-.6.5-5.7,5.2h0l-.6.5h0l-.6.5-5.7,5.2-.6.5h0l-.6.5h0l-4.1,3.8v-10.5h0Zm0,52.3v-4h0v1l18.5-16.9h0l5.7,5.2h0l-13.9,12.8h0l-5,4.6-.6.5-.6.5-4.1,3.8v-7.5h0Zm0,20.1v-10.5l5.3-4.8.6-.5.6-.5,6.2-5.6h0l12.8-11.7,5.7,5.2h0l-7.1,6.5h0l-11.9,10.9-.6.5-.6.5-5.7,5.2-.6.5h0l-.6.5-4.1,3.8h0Zm0,2.1l5.3-4.8.6-.5h0l.6-.5h0l5.7-5.2.6-.5.6-.5,13-11.9h0l5.9-5.4,5.7,5.2-.2.2-18.8,17.2-.6.5-.6.5-5.7,5.2h0l-.6.5h0l-.6.5-5.7,5.2-.6.5h0l-.6.5h0l-4.1,3.8v-10.5h0Zm0,52.3v-4h0v1l18.5-16.9h0l5.7,5.2h0l-13.9,12.8h0l-5,4.6-.6.5-.6.5-4.1,3.8v-7.5h0Zm0,20.1v-10.5l5.3-4.8.6-.5.6-.5,6.2-5.6h0l12.8-11.7,5.7,5.2h0l-7.1,6.5h0l-11.9,10.9-.6.5-.6.5-5.7,5.2-.6.5h0l-.6.5-4.1,3.8h0Zm0,2.1l5.3-4.8.6-.5h0l.6-.5h0l5.7-5.2.6-.5.6-.5,13-11.9h0l5.9-5.4,5.7,5.2-.2.2-18.8,17.2-.6.5-.6.5-5.7,5.2h0l-.6.5h0l-.6.5-5.7,5.2-.6.5h0l-.6.5h0l-4.1,3.8v-10.5h0Zm0,52.3v-4h0v1l18.5-16.9h0l5.7,5.2h0l-13.9,12.8h0l-5,4.6-.6.5-.6.5-4.1,3.8v-7.5h0Zm0,20.1v-10.5l5.3-4.8.6-.5.6-.5,6.2-5.6h0l12.8-11.7,5.7,5.2h0l-7.1,6.5h0l-11.9,10.9-.6.5-.6.5-5.7,5.2-.6.5h0l-.6.5-4.1,3.8h0Zm0,2.1l5.3-4.8.6-.5h0l.6-.5h0l5.7-5.2.6-.5.6-.5,13-11.9h0l5.9-5.4,5.7,5.2-.2.2-18.8,17.2-.6.5-.6.5-5.7,5.2h0l-.6.5h0l-.6.5-5.7,5.2-.6.5h0l-.6.5h0l-4.1,3.8v-10.5h0Z"/></g><path class="cls-9" d="m184.8,43.9s1.7,111.4,68.2,121.2,83.1-110.8,82.5-122.3c0,0-67.6,42.2-150.7,1.1h0Z"/><path class="cls-5" d="m121.7,216.7c22.1-31.7,23.6-76.2,21-108-2-24.8-6.8-45.9-9.4-55.9l-4.8,1.8c6.1,24,24.1,108.8-10.9,159-16.7,23.9-43.6,36.9-80.1,38.6v5.3c38.2-1.8,66.5-15.5,84.2-40.8h0Z"/><path class="cls-5" d="m151.7,107.9c-2.1-26.3-7.2-48.1-9.8-58.3l-4.8,1.8c2.6,10.1,7.5,31.6,9.6,56.9,2.7,32.5,1,78.1-21.8,110.8-18.4,26.4-47.8,40.7-87.4,42.5v5.3c41.3-1.8,72-16.8,91.5-44.7,19.1-27.3,26.7-65.8,22.7-114.4h0Z"/><path class="cls-5" d="m124.8,219.1c22.8-32.7,24.4-78.3,21.8-110.8-2.1-25.3-7-46.8-9.6-56.9l-3.7,1.4c2.6,10.1,7.4,31.1,9.4,55.9,2.6,31.8,1.1,76.4-21,108-17.7,25.3-46,39-84.2,40.8v4.1c39.6-1.8,68.9-16.1,87.4-42.5h0Z"/><path class="cls-5" d="m397.1,216.7c-22.1-31.7-23.6-76.2-21-108,2-24.8,6.8-45.9,9.4-55.9l4.8,1.8c-6.1,24-24.1,108.8,10.9,159,16.7,23.9,43.6,36.9,80.1,38.6v5.3c-38.2-1.8-66.5-15.5-84.2-40.8h0Z"/><path class="cls-5" d="m367.1,107.9c2.1-26.3,7.2-48.1,9.8-58.3l4.8,1.8c-2.6,10.1-7.5,31.6-9.6,56.9-2.7,32.5-1,78.1,21.8,110.8,18.4,26.4,47.8,40.7,87.4,42.5v5.3c-41.3-1.8-72-16.8-91.5-44.7-19.1-27.3-26.7-65.8-22.7-114.4h0Z"/><path class="cls-5" d="m393.9,219.1c-22.8-32.7-24.4-78.3-21.8-110.8,2.1-25.3,7-46.8,9.6-56.9l3.7,1.4c-2.6,10.1-7.4,31.1-9.4,55.9-2.6,31.8-1.1,76.4,21,108,17.7,25.3,46,39,84.2,40.8v4.1c-39.6-1.8-68.9-16.1-87.4-42.5h0Z"/><path class="cls-5" d="m335.3,35.8l-3.7-1.2-4.9-1.6c-2.1,7.9-9,20.4-30.6,20.4h-74c-21.7,0-28.5-12.5-30.6-20.4l-4.9,1.6-3.7,1.2-5,1.6c.9,3.2,2.3,6.8,4.5,10.5,5.5,9.3,16.8,20.3,39.7,20.3h74c22.9,0,34.2-11.1,39.7-20.3,2.2-3.7,3.6-7.4,4.5-10.5l-5-1.6h0Z"/><path class="cls-5" d="m335.6,35.4c-.3,31.2-4.2,57.2-11.7,77.5-12.9,34.7-35.8,52.3-68,52.3s-29.3-5.9-40.3-17.6c-17.6-18.6-25.7-48.9-29.4-71.1-3-18.1-3.7-33.9-3.8-40.5l-5,1.7c.5,18.4,4.3,81.5,34.7,113.6,12,12.7,26.8,19.2,43.9,19.2s34.5-5.6,47.3-16.7c10.7-9.2,19.3-22.4,25.4-39,7.6-20.5,11.6-46.6,12.1-77.7l-5.1-1.8h0Z"/><path class="cls-5" d="m218.3,144.6c10.3,10.9,22.9,16.4,37.5,16.4,61.9,0,75.5-68.5,75.9-127l-5.1-1.8c0,31.4-3.8,57.4-11.1,77.2-11.5,31.1-31.1,46.3-59.7,46.3s-24.5-4.9-33.9-14.8c-30-31.6-30.7-102.7-30.7-107.9l-5.1,1.7c.2,12.4,2.7,78.8,32.2,110h0Z"/><path class="cls-5" d="m255.8,161c-14.6,0-27.2-5.5-37.5-16.4-29.5-31.2-32-97.6-32.2-110l-3.9,1.3c.1,6.6.8,22.4,3.8,40.5,3.7,22.1,11.8,52.4,29.4,71.1,11,11.7,24.6,17.6,40.3,17.6,32.3,0,55.2-17.6,68-52.3,7.5-20.2,11.4-46.3,11.7-77.5l-3.9-1.4c-.3,58.5-14,127-75.9,127h0Z"/><g class="cls-10"><polygon class="cls-6" points="37.4 401.1 37.4 401.2 82.3 327.7 82.3 828.2 37.4 828.2 37.4 401.1"/><polygon class="cls-4" points="-7.5 828.2 -7.5 327.2 -7.4 327.2 37.4 401.1 37.4 828.2 -7.5 828.2"/><polygon class="cls-7" points="32.6 389.1 36.2 389.3 37.1 392.7 38.4 389.5 42.1 389.6 39.2 387.5 40.6 384.3 37.5 386.1 34.7 383.9 35.6 387.3 32.6 389.1"/><path class="cls-7" d="m37.5,361.4c5.8,0,10.5-4.4,10.5-9.9s-4.7-9.9-10.5-9.9-10.5,4.4-10.5,9.9,4.7,9.9,10.5,9.9Z"/><polygon class="cls-7" points="15.3 351.5 16.7 350.1 27.1 350.8 27.2 352.1 16.6 352.7 15.3 351.5"/><polygon class="cls-7" points="17.7 354 27.3 352.8 27.4 353.3 18.8 355 17.7 354"/><polygon class="cls-7" points="17.7 349 27.3 350.2 27.4 349.7 18.9 348 17.7 349"/><polygon class="cls-7" points="21.9 366.4 21.9 364.4 29.7 358 30.8 358.8 23.7 366.4 21.9 366.4"/><polygon class="cls-7" points="25.4 366.5 31.3 359.2 31.7 359.5 27 366.5 25.4 366.5"/><polygon class="cls-7" points="21.7 363 29.3 357.3 29.1 357 21.8 361.5 21.7 363"/><polygon class="cls-7" points="37.6 372.5 36.2 371.1 36.9 361.3 38.2 361.1 38.9 371.2 37.6 372.5"/><polygon class="cls-7" points="40.2 370.2 38.9 361.1 39.4 361 41.3 369.1 40.2 370.2"/><polygon class="cls-7" points="35 370.2 36.1 361.1 35.7 361 33.9 369.1 35 370.2"/><polygon class="cls-7" points="53.3 366.2 51.2 366.2 44.4 358.8 45.2 357.8 53.2 364.4 53.3 366.2"/><polygon class="cls-7" points="53.4 362.8 45.7 357.3 46 356.9 53.4 361.3 53.4 362.8"/><polygon class="cls-7" points="49.7 366.4 43.7 359.1 43.3 359.4 48.1 366.3 49.7 366.4"/><polygon class="cls-7" points="53.2 336.6 53.2 338.6 45.4 345.1 44.3 344.2 51.4 336.7 53.2 336.6"/><polygon class="cls-7" points="49.7 336.5 43.8 343.8 43.4 343.5 48.1 336.6 49.7 336.5"/><polygon class="cls-7" points="53.4 340 45.7 345.7 46 346.1 53.3 341.5 53.4 340"/><polygon class="cls-7" points="37.5 330.4 39 331.8 38.3 341.6 36.9 341.8 36.2 331.7 37.5 330.4"/><polygon class="cls-7" points="34.9 332.7 36.2 341.8 35.7 341.9 33.8 333.8 34.9 332.7"/><polygon class="cls-7" points="40.2 332.7 39 341.8 39.5 341.9 41.3 333.8 40.2 332.7"/><polygon class="cls-7" points="21.7 336.8 23.8 336.8 30.6 344.2 29.8 345.2 21.8 338.6 21.7 336.8"/><polygon class="cls-7" points="21.6 340.2 29.3 345.7 29 346.1 21.7 341.7 21.6 340.2"/><polygon class="cls-7" points="25.3 336.7 31.3 343.9 31.7 343.6 26.9 336.7 25.3 336.7"/><polygon class="cls-7" points="59.6 351.4 58.2 352.8 47.8 352.2 47.6 350.9 58.3 350.2 59.6 351.4"/><polygon class="cls-7" points="57.2 349 47.6 350.2 47.5 349.7 56 348 57.2 349"/><polygon class="cls-7" points="57.2 354 47.6 352.8 47.5 353.3 56 355 57.2 354"/><polygon class="cls-6" points="481.2 401.1 481.3 401.2 526.2 327.7 526.2 828.2 481.2 828.2 481.2 401.1"/><polygon class="cls-4" points="436.4 828.2 436.4 327.2 436.4 327.2 481.2 401.1 481.2 828.2 436.4 828.2"/><polygon class="cls-7" points="476.4 389.1 480 389.3 481 392.7 482.3 389.5 485.9 389.6 483.1 387.5 484.4 384.3 481.3 386.1 478.5 383.9 479.5 387.3 476.4 389.1"/><path class="cls-7" d="m481.4,361.4c5.8,0,10.5-4.4,10.5-9.9s-4.7-9.9-10.5-9.9-10.5,4.4-10.5,9.9,4.7,9.9,10.5,9.9Z"/><polygon class="cls-7" points="459.1 351.5 460.6 350.1 470.9 350.8 471.1 352.1 460.4 352.7 459.1 351.5"/><polygon class="cls-7" points="461.5 354 471.1 352.8 471.2 353.3 462.7 355 461.5 354"/><polygon class="cls-7" points="461.6 349 471.2 350.2 471.3 349.7 462.7 348 461.6 349"/><polygon class="cls-7" points="465.7 366.4 465.7 364.4 473.5 358 474.6 358.8 467.6 366.4 465.7 366.4"/><polygon class="cls-7" points="469.3 366.5 475.1 359.2 475.6 359.5 470.9 366.5 469.3 366.5"/><polygon class="cls-7" points="465.5 363 473.2 357.3 472.9 357 465.6 361.5 465.5 363"/><polygon class="cls-7" points="481.5 372.5 480 371.1 480.7 361.3 482.1 361.1 482.8 371.2 481.5 372.5"/><polygon class="cls-7" points="484.1 370.2 482.8 361.1 483.3 361 485.2 369.1 484.1 370.2"/><polygon class="cls-7" points="478.8 370.2 480 361.1 479.5 361 477.7 369.1 478.8 370.2"/><polygon class="cls-7" points="497.1 366.2 495.1 366.2 488.2 358.8 489.1 357.8 497.1 364.4 497.1 366.2"/><polygon class="cls-7" points="497.3 362.8 489.6 357.3 489.8 356.9 497.2 361.3 497.3 362.8"/><polygon class="cls-7" points="493.5 366.4 487.6 359.1 487.1 359.4 491.9 366.3 493.5 366.4"/><polygon class="cls-7" points="497.1 336.6 497.1 338.6 489.2 345.1 488.2 344.2 495.2 336.7 497.1 336.6"/><polygon class="cls-7" points="493.5 336.5 487.6 343.8 487.2 343.5 491.9 336.6 493.5 336.5"/><polygon class="cls-7" points="497.2 340 489.6 345.7 489.9 346.1 497.2 341.5 497.2 340"/><polygon class="cls-7" points="481.4 330.4 482.8 331.8 482.1 341.6 480.8 341.8 480.1 331.7 481.4 330.4"/><polygon class="cls-7" points="478.8 332.7 480.1 341.8 479.6 341.9 477.7 333.8 478.8 332.7"/><polygon class="cls-7" points="484 332.7 482.9 341.8 483.3 341.9 485.1 333.8 484 332.7"/><polygon class="cls-7" points="465.6 336.8 467.7 336.8 474.5 344.2 473.6 345.2 465.6 338.6 465.6 336.8"/><polygon class="cls-7" points="465.4 340.2 473.1 345.7 472.9 346.1 465.5 341.7 465.4 340.2"/><polygon class="cls-7" points="469.2 336.7 475.2 343.9 475.6 343.6 470.8 336.7 469.2 336.7"/><polygon class="cls-7" points="503.5 351.4 502 352.8 491.6 352.2 491.5 350.9 502.1 350.2 503.5 351.4"/><polygon class="cls-7" points="501 349 491.4 350.2 491.4 349.7 499.9 348 501 349"/><polygon class="cls-7" points="501 354 491.4 352.8 491.3 353.3 499.9 355 501 354"/></g><path class="cls-4" d="m143.6,250.4c0-.3.2-.5.5-.5h25.7c.1,0,.2,0,.3,0l7.1,4.2c.2.1.3.3.3.5v29.3c0,.2,0,.3-.3.4l-6.9,4c-.2.1-.2.3,0,.5l6.9,3.9c.2.1.3.2.3.4v30.6c0,.4-.2.5-.5.5h-11c-.4,0-.5-.2-.5-.5v-23.8c0-.2,0-.3-.3-.4l-8.9-5c-.3-.1-.4,0-.4.3v29c0,.4-.2.5-.5.5h-11.3c-.4,0-.5-.2-.5-.5v-73.3h0Zm22.1,35.5c.2.1.4,0,.4-.2v-24.4c0-.3-.2-.5-.5-.5h-9.1c-.4,0-.5.2-.5.5v19.2c0,.2.1.4.3.5l9.4,4.9h0Z"/><path class="cls-4" d="m185.8,324.2c-.4,0-.5-.2-.5-.5v-73.3c0-.3.2-.5.5-.5h11.5c.3,0,.5.2.5.5v73.3c0,.4-.2.5-.5.5h-11.5Z"/><path class="cls-4" d="m213.6,248.6c0,0,.1,0,.2,0h17.9c.1,0,.2,0,.3,0l7.5,4.3c.1,0,.2.2.2.4v17.6c0,.4-.2.5-.5.5h-10.9c-.4,0-.5-.2-.5-.5v-10.9c0-.3-.2-.5-.5-.5h-9.4c-.4,0-.5.2-.5.5v17c0,.2.1.4.3.5l21.6,10.6c.2,0,.3.2.3.4v31.2c0,.2,0,.4-.3.4l-7.7,4c0,0-.2,0-.3,0h-17.9c0,0-.1,0-.2,0l-7.5-4.2c-.2-.1-.3-.3-.3-.5v-18.1c0-.3.2-.5.5-.5h10.7c.3,0,.5.2.5.5v11.3c0,.4.2.5.5.5h9c.3,0,.5-.2.5-.5v-18c0-.2-.1-.4-.3-.5l-21.2-10.6c-.2-.1-.3-.3-.3-.5v-30.2c0-.2,0-.3.3-.4l7.7-4h0Z"/><path class="cls-4" d="m251.9,249.8h25.4c.4,0,.5.2.5.5v9.9c0,.4-.2.5-.5.5h-16.7c-.4,0-.5.2-.5.5v19.1c0,.4.2.5.5.5h14.5c.3,0,.5.2.5.5v9.9c0,.4-.2.5-.5.5h-14.5c-.4,0-.5.2-.5.5v20.2c0,.4.2.5.5.5h16.7c.4,0,.5.2.5.5v9.9c0,.4-.2.5-.5.5h-29.2c-.4,0-.5-.2-.5-.5v-73.3c0-.3.2-.5.5-.5h3.9Z"/><path class="cls-4" d="m320.3,313.3c.3,0,.5-.2.5-.5v-62.5c0-.3.2-.5.5-.5h11.3c.3,0,.5.2.5.5v69.1c0,.2,0,.4-.3.4l-7.5,4.2c-.1,0-.2,0-.3,0h-17.9c0,0-.1,0-.2,0l-7.6-4.2c-.2,0-.3-.2-.3-.4v-69.1c0-.3.2-.5.5-.5h11.3c.3,0,.5.2.5.5v62.5c0,.4.2.5.5.5h8.2,0Z"/><path class="cls-4" d="m340.9,250.4c0-.3.2-.5.5-.5h25.7c.1,0,.2,0,.3,0l7.1,4.2c.2.1.3.3.3.5v37c0,.2,0,.4-.3.4l-8,3.9c0,0-.1,0-.2,0h-12.6c-.4,0-.5.2-.5.5v27.2c0,.4-.2.5-.5.5h-11.3c-.4,0-.5-.2-.5-.5v-73.3h0Zm21.9,34c.3,0,.5-.2.5-.5v-22.6c0-.3-.2-.5-.5-.5h-9.1c-.4,0-.5.2-.5.5v22.5c0,.4.2.5.5.5h9.1Z"/><path class="cls-4" d="m300.1,366.7v12.2h-21.8v-3.9l-6.4-6.3h-19.7l-5.3,5.5v21.2l5.5-5.5h27.7l19.9,19.8v27l-19.5,19.5h-36.3l-18.7-18.7v-70.6l18.3-18.3h36.9l19.4,18.2h0Zm-53.7,62.1l6.5,6.5h19.4l6-6v-13.1l-6-5.9h-19.2l-6.7,6.7v11.8h0Z"/><path class="cls-4" d="m309.2,177.9c.5,1.5,1,3,1.4,4.6h-3.2c-.4-1.4-.9-2.8-1.3-4.2h-1c-.2,1.4-.4,2.8-.6,4.2h-3.1c.7-3.8,1.3-7.6,2-11.4h4.7c.5,0,1.1,0,1.6.2.7.2,1.2.7,1.4,1.5,0,.3.1.7,0,1-.1.6-.2,1.3-.4,1.9-.1.7-.5,1.2-1,1.7-.2.2-.4.3-.6.5h0,0Zm-3.8-1.6s0,0,0,0c.5,0,1,0,1.5,0,.6,0,.9-.4,1.1-.9,0-.4,0-.7,0-1.1-.1-.5-.4-.7-.9-.7h-1.2s0,0-.1,0c-.1.9-.3,1.8-.4,2.7h0Z"/><path class="cls-4" d="m316.3,178.8h2.8c0,.1,0,.2,0,.3,0,.6.2,1,.8,1.2.5.1,1.1.1,1.6,0,0,0,.1,0,.2,0,.6-.3.6-1,.3-1.3-.1-.1-.2-.2-.4-.3-.4-.3-.9-.4-1.3-.5-.5-.2-1-.3-1.5-.5-.5-.2-.9-.5-1.2-.8-.5-.5-.6-1.1-.6-1.7s0-1,.2-1.5c.3-1,1-1.6,2-2,.5-.2,1.1-.4,1.7-.4.7,0,1.3-.1,2,0,.6,0,1.2.2,1.7.5.7.4,1.1.9,1.3,1.6.1.8,0,1.5-.4,2.1,0,0,0,0,0,0h-2.8c0,0,0-.1.1-.2.2-.3.3-.7.2-1,0-.3-.2-.5-.5-.6-.2-.1-.5-.1-.8-.1s-.6,0-.9.1c-.1,0-.2,0-.3.1-.6.3-.7,1.1-.1,1.6.3.3.7.4,1.1.5.5.2,1.1.3,1.6.5.5.1.9.4,1.3.7.5.5.8,1.1.8,1.8,0,.6,0,1.2-.3,1.9-.4,1-1,1.6-2,1.9-.6.2-1.2.3-1.9.4-.6,0-1.1,0-1.7,0-.6,0-1.1-.1-1.7-.4-.9-.4-1.4-1-1.5-2,0-.5,0-1,.1-1.5,0,0,0,0,0,0h0s0,0,0,0Z"/><path class="cls-4" d="m325.6,182.5c.7-3.8,1.3-7.6,2-11.4h8c-.1.8-.3,1.6-.4,2.5h-5.1c-.1.7-.2,1.4-.4,2.1h4.2c-.1.8-.3,1.7-.4,2.5h-4.2c-.1.6-.2,1.2-.3,1.9h5.1c-.1.8-.3,1.6-.4,2.5h-8Z"/><path class="cls-4" d="m336.9,171.1h2.9c0,.4-.1.7-.2,1-.2,1.2-.4,2.4-.6,3.5-.1.9-.3,1.7-.5,2.6,0,.3,0,.6,0,.9,0,.6.3,1,.9,1.1.4,0,.7,0,1.1,0,.4-.1.7-.4.9-.8.2-.4.3-.8.4-1.2.2-1.3.5-2.7.7-4,.2-1,.3-1.9.5-2.8,0,0,0-.1,0-.2h2.5c-.6.9-1.1,1.7-1.7,2.6.5,0,1,.1,1.5.2,0,0,0,.1,0,.2-.3,1.5-.5,3.1-.8,4.6-.1.5-.3,1.1-.5,1.6-.6,1.2-1.5,1.9-2.7,2.3-.8.2-1.7.3-2.5.2-.5,0-1-.1-1.5-.3-1-.4-1.6-1.1-1.7-2.2,0-.6,0-1.3.1-1.9.2-1.2.4-2.4.6-3.6.2-1.2.4-2.3.6-3.5,0,0,0,0,0-.1h0Z"/><path class="cls-4" d="m348.7,179c-.2,1.2-.4,2.3-.6,3.5h-2.9c.5-2.8,1-5.6,1.5-8.4.5,0,1,.1,1.6.2-.4-1.1-.7-2.1-1.1-3.1,0,0,.1,0,.2,0h4.9c.5,0,1,0,1.5.3.9.3,1.3,1,1.4,1.9,0,.4,0,.8,0,1.2,0,.5-.2,1-.3,1.5-.2,1-.7,1.7-1.5,2.3-.6.4-1.3.7-2,.8-.4,0-.8,0-1.1,0h-1.5Zm.4-2.5s0,0,0,0c.6,0,1.1,0,1.7,0,.6,0,1-.4,1.1-1,0-.4.1-.8.2-1.1,0-.1,0-.2,0-.4-.1-.4-.4-.5-.8-.5h-1.5s0,0,0,0c-.2,1-.3,2-.5,2.9h0Z"/><path class="cls-4" d="m314.4,182.5h-2.9c.7-3.8,1.3-7.6,2-11.4h2.9c-.7,3.8-1.3,7.6-2,11.4h0Z"/><path class="cls-4" d="m193.6,179.6s0,0,.1-.1c1.6-2.1,2.7-4.5,3.2-7.1,0-.1,0-.3,0-.4,0,0,0-.1,0-.2,0-.1.2-.2.3-.2.1,0,.3,0,.4.2,0,0,0,.1,0,.2.2.7.3,1.4.4,2.1.2,1.1.2,2.3.1,3.5,0,1.6-.4,3.2-.9,4.7-.5,1.5-1.2,3-2.1,4.3-.1.1-.2.3-.4.4-1.7,1-3.5,1.7-5.4,2.2-.8.2-1.5.3-2.3.4-.3,0-.6,0-.9,0-.1,0-.2,0-.4,0,.1,0,.3,0,.4,0,1.3.2,2.6.3,3.9.2.3,0,.6,0,.9,0,.1,0,.2,0,.4,0,.2,0,.3,0,.4.2,0,.2,0,.3-.1.4,0,0-.1,0-.2.1-1,.8-2,1.4-3.1,2-.4.2-.8.4-1.2.5-.2,0-.3,0-.5,0-.8-.1-1.5-.3-2.2-.5,0,0-.2,0-.2,0,0,0,0,0,0,0,0,0,0,0,0,.1.1.2.2.5.4.7,0,0,0,.2,0,.3,0,.2-.1.3-.3.3-.2,0-.4,0-.6.1-1,.2-1.9.3-2.9.3h-.1c-.2,0-.3,0-.4-.3,0-.1,0-.2,0-.3,0,0,0-.1,0-.2,0,0,0,.1,0,.1,0,.1,0,.3-.1.4,0,.2-.2.3-.4.3s-.4,0-.6,0c-.6,0-1.2,0-1.7-.2-.4,0-.9-.2-1.3-.2,0,0,0,0-.1,0-.2,0-.3-.3-.2-.5,0,0,0-.1,0-.2.1-.2.2-.5.4-.7-.1,0-.2,0-.2,0-.6.2-1.3.4-2,.5-.7.1-.5.1-1.1-.1-1.4-.6-2.8-1.4-4-2.4,0,0-.1,0-.1-.1-.1-.1-.1-.3,0-.4,0-.1.2-.2.4-.2s.2,0,.2,0c1,.1,1.9.1,2.9,0,.8,0,1.5-.1,2.3-.3,0,0-.1,0-.2,0-.2,0-.5,0-.8,0-1.2-.1-2.4-.3-3.5-.7-1.5-.4-3-1.1-4.4-1.9-.2-.1-.3-.3-.5-.4-1.2-1.7-2-3.6-2.5-5.6-.2-.9-.4-1.9-.5-2.8,0-.9,0-1.9,0-2.8,0-1.1.2-2.2.5-3.3,0,0,0,0,0-.1,0-.2.2-.2.4-.2.1,0,.3.1.3.3,0,.1,0,.3,0,.4.5,2.3,1.4,4.5,2.7,6.5.2.3.4.6.6.9,0,0,0,0,.1.1,0,0,0-.1,0-.2-.4-.8-.8-1.5-1.1-2.3-.6-1.4-1-2.8-1.2-4.3-.2-1.3-.3-2.6-.2-3.9,0-.4,0-.8,0-1.1,0-.2,0-.3.2-.5,2.3-3.8,5.5-6.4,9.7-7.9,0,0,.1,0,.2,0,.2,0,.3,0,.4.1,0,.1,0,.3,0,.4,0,0,0,0,0,0-1,1.1-1.8,2.3-2.4,3.6-.6,1.3-1,2.7-1.3,4.2-.3,1.5-.4,3-.3,4.5,0,1.4.3,2.8.6,4.2.4,1.4.9,2.7,1.6,3.9.5,1,1.2,1.8,2,2.6.8.8,1.6,1.4,2.6,1.8.8.4,1.7.5,2.6.6,1,0,2-.2,3-.7,1-.5,1.9-1.1,2.6-2,.9-1,1.6-2,2.2-3.2.6-1.2,1-2.6,1.4-3.9.4-1.5.5-3.1.4-4.7,0-.7,0-1.4-.2-2.1-.3-2.4-1.1-4.7-2.4-6.8-.4-.7-.9-1.3-1.5-1.9,0,0,0,0-.1-.1,0-.1,0-.3,0-.4,0-.1.2-.2.4-.2,0,0,.2,0,.2,0,1.9.6,3.7,1.6,5.3,2.8,1.8,1.4,3.3,3.1,4.4,5.1,0,.1.1.3.2.5,0,.5,0,1,.1,1.5,0,.7,0,1.5,0,2.2-.2,2.3-.8,4.4-1.8,6.5-.2.5-.5.9-.7,1.4,0,0,0,.1,0,.2,0,0,0,0,0,.2,0,0,0-.1,0-.1h0s0,0,0,0Z"/><path class="cls-4" d="m178.1,173.7c0-.1,0-.2,0-.2-.1-.4-.3-.8-.4-1.3,0,0,0,0,0-.1,0-.2,0-.3.1-.4.1-.1.3-.3.4-.4.6-.5,1.1-1,1.7-1.5,0,0,0,0,.1-.1.2-.1.3-.1.5,0,0,0,0,0,0,0,.7.6,1.4,1.2,2,1.8.2.2.3.4.2.7-.1.4-.3.8-.4,1.2,0,0,0,.1,0,.3.1-.1.2-.2.3-.2.1-.1.2-.2.4-.3.2-.2.5-.1.7.2.1.4.3.9.5,1.3,0,0,0,.1,0,.2,0,.2,0,.3-.1.4-.1,0-.2.2-.3.3-.4.3-.6.7-.9,1.1-.5.7-.8,1.5-1.1,2.3-.4,1.1-.7,2.3-1,3.4,0,.4-.1.8-.2,1.1,0,0,0,0,0,.1,0,.2-.2.3-.4.3s-.3-.1-.3-.3c0-.2,0-.4-.1-.6-.3-1.6-.7-3.1-1.3-4.6-.3-.6-.5-1.2-.9-1.8-.3-.5-.7-.9-1.1-1.3-.2-.1-.2-.3-.1-.5.2-.5.4-1,.5-1.5,0-.2.2-.3.4-.3,0,0,.1,0,.2.1.1.1.3.3.5.4,0,0,0,0,.2.1h0Z"/></svg>