<?xml version="1.0" encoding="UTF-8"?><svg id="Primary_Color" xmlns="http://www.w3.org/2000/svg" xmlns:xlink="http://www.w3.org/1999/xlink" viewBox="0 0 518.7 743.8"><defs><style>.cls-1{stroke-linecap:round;stroke-linejoin:round;}.cls-1,.cls-2,.cls-3,.cls-4,.cls-5{fill:none;}.cls-1,.cls-3{stroke:#a9a9a9;}.cls-1,.cls-4{stroke-width:3px;}.cls-6{clip-path:url(#clippath);}.cls-2,.cls-7,.cls-8,.cls-9,.cls-10{stroke-width:0px;}.cls-3{stroke-width:12px;}.cls-4,.cls-5{stroke:gray;}.cls-5{stroke-width:6px;}.cls-7{fill:gray;}.cls-8{fill:#363636;}.cls-9{fill:#d3d3d3;}.cls-10{fill:#a9a9a9;}</style><clipPath id="clippath"><path class="cls-2" d="m401.1,213.5c-35-50.2-17-135-10.9-159l-4.8-1.8-3.7-1.4-4.8-1.8c0,.4-.2.7-.3,1.1-.8-.8-1.9-1.5-3-1.9l-30.2-10.5c-5-1.8-10.3,1.9-10.6,7.3-2.3,38.6-10.8,124.8-71.6,122.1h0c0,0,0,0,0,0h0c-.2,0-.4,0-.6,0h-.1s0,0,0,0h0c0,0-.1,0-.2,0,0,0-.1,0-.2,0h-.2c-.1,0-.2,0-.3,0-.1,0-.2,0-.3,0h-.2c0,0-.1,0-.2,0,0,0-.1,0-.2,0h-.1s0,0-.1,0c-.2,0-.4,0-.6,0h-.1c-60.8,2.8-69.4-83.4-71.6-122.1-.3-5.4-5.6-9.1-10.6-7.3l-30.1,10.5c-1.2.4-2.2,1.1-3,1.9-.1-.4-.2-.8-.3-1.1l-4.8,1.8-3.7,1.4-4.8,1.8c6.1,24,24.1,108.8-10.9,159-16.7,23.9-43.6,36.9-80.1,38.6v10.8h0v447.4h45.1c53.2,2.8,398.7,0,398.7,0V252.2c-36.5-1.8-63.4-14.7-80.1-38.6h0Z"/></clipPath></defs><path class="cls-10" d="m479.1,261.9c-1.4-1.5-3.3-2.4-5.4-2.6-17.6-1-33.6-6.6-45.5-12.1-16.8-7.8-32.1-17.9-40.5-32.3-23.1-39.7-14.3-120.9-8.7-156.9.6-3.9-1.6-7.8-5.4-9.1l-30.2-10.5c-5-1.8-10.3,1.9-10.6,7.3-2.3,38.6-10.8,124.8-71.6,122.1h0c0,0,0,0,0,0h0c-.2,0-.4,0-.6,0h-.1s0,0,0,0h0c0,0-.1,0-.2,0,0,0-.1,0-.2,0h-.2c-.1,0-.2,0-.3,0-.1,0-.2,0-.3,0h-.2c0,0-.1,0-.2,0,0,0-.1,0-.2,0h-.1s0,0-.1,0c-.2,0-.4,0-.6,0h-.1c-60.8,2.8-69.4-83.4-71.6-122.1-.3-5.4-5.6-9.1-10.6-7.3l-30.1,10.5c-3.7,1.3-6,5.2-5.3,9.1,5.8,35.6,16.8,113.3-6.3,152.9-8.4,14.4-19.8,27.7-36.6,35.5-11.9,5.6-33,11.7-51.9,12.9-2.2.1-4.1,1.1-5.5,2.6l-2.1,1v447.4h45.1c53.2,2.8,398.7,0,398.7,0v-448.7l-2.2.3h0Z"/><path class="cls-7" d="m401.1,213.5c-35-50.2-17-135-10.9-159l-4.8-1.8-3.7-1.4-4.8-1.8c0,.4-.2.7-.3,1.1-.8-.8-1.9-1.5-3-1.9l-30.2-10.5c-5-1.8-10.3,1.9-10.6,7.3-2.3,38.6-10.8,124.8-71.6,122.1h0c0,0,0,0,0,0h0c-.2,0-.4,0-.6,0h-.1s0,0,0,0h0c0,0-.1,0-.2,0,0,0-.1,0-.2,0h-.2c-.1,0-.2,0-.3,0-.1,0-.2,0-.3,0h-.2c0,0-.1,0-.2,0,0,0-.1,0-.2,0h-.1s0,0-.1,0c-.2,0-.4,0-.6,0h-.1c-60.8,2.8-69.4-83.4-71.6-122.1-.3-5.4-5.6-9.1-10.6-7.3l-30.1,10.5c-1.2.4-2.2,1.1-3,1.9-.1-.4-.2-.8-.3-1.1l-4.8,1.8-3.7,1.4-4.8,1.8c6.1,24,24.1,108.8-10.9,159-16.7,23.9-43.6,36.9-80.1,38.6v10.8h0v447.4h45.1c53.2,2.8,398.7,0,398.7,0V252.2c-36.5-1.8-63.4-14.7-80.1-38.6h0Z"/><g class="cls-6"><g id="_2077132152656"><path class="cls-10" d="m291.8,191.5l107.8-62.2v17.5l-107.8,62.3v-17.5h0ZM441.4-67.2h-13.7l96.2,55.6v-7.9l-82.5-47.6h0Zm-34.9,0h-6.9v1.5l-2.6-1.5h-13.7l16.3,9.4v17.5l-46.5-26.9h-13.7l60.3,34.8V-13.8l-92.3-53.3h-13.8L399.6-5.9V12.6l-51.3-29.6c-1.6-.9-3.7-.4-4.7,1.2-1,1.6-.4,3.7,1.2,4.7l54.7,31.6v74.3l-15.9,9.2V36.2c0-1.4-.8-2.5-1.9-3.1l-114.5-66.1c-1.6-1-3.8-.4-4.7,1.2s-.4,3.7,1.2,4.7l113,65.2v69.9l-15.9,9.2V49c0-1.4-.8-2.5-1.9-3.1L222.2-33c-1.6-1-3.7-.4-4.7,1.2-1,1.6-.4,3.8,1.3,4.7l135.2,78v70.2l-15.9,9.2V61.9c0-1.4-.8-2.6-2-3.1L221.6-7.3c-1.6-.9-3.7-.4-4.7,1.3-1,1.6-.4,3.7,1.3,4.7l113,65.2v70.5l-15.9,9.2v-68.9c0-1.4-.8-2.5-1.9-3.1L157.4-18.4l84.4-48.8h-13.7l-79.1,45.7c-.1,0-.3.1-.4.2l-20.5,11.8-15.1-8.7,84.9-49h-13.7L106.1-22.1l-15.1-8.7,62.9-36.3h-13.7l-56,32.3-15.1-8.7,40.9-23.6h-13.7l-35.7,20.6c-1.6,1-2.2,3-1.3,4.7.9,1.5,2.7,2.1,4.2,1.5.1,1,.7,1.9,1.7,2.5l39.3,22.7s0,0,0,0l20.2,11.7v188.5l6.9,3.7v-86.6l16.4,9.5v86l6.9,3.7v-85.7l16.4,9.5v85.1l6.9,3.7v-84.8l15.6,9v84.2l6.9,3.7v-83.9l16.1,9.3v83.2l6.9,3.7v-83l16.1,9.3v82.3l6.9,3.7v-82.1l16.1,9.3v81.4l3.4,1.9,3.4-1.9v-81.4l15.3-8.8v82l6.9-3.7v-5.1l107.8-62.3v9.4l6.9-3.7v-5.7l5.1,2.9,7.1-3.8-12.2-7v-69.3l15.9,9.2v65.1l6.9-3.7v-57.5l15.9,9.2v39.7l6.9-3.7v-32l15.9,9.2v14.3l6.9-3.7v-6.6l5.9,3.4,7.1-3.8-14.1-8.1c-.4-.4-.9-.7-1.5-.9l-21.3-12.3c-.4-.4-.9-.7-1.5-.9l-21.2-12.3c-.4-.4-1-.8-1.6-.9l-20.2-11.6v-17.5l97.1,56.1,7.1-3.8-104.2-60.2v-18.5l117.4,67.8v-7.9l-117.4-67.8v-18.5l17.4,10.1c.1,0,.3.2.4.2l99.5,57.5v-7.9l-71.8-41.4V-26.6l71.8,41.4v-7.9l-73.2-42.3c-.2-.1-.4-.2-.6-.3l-22.2-12.9c-.2-.1-.4-.2-.6-.3l-20.8-12v-6.3h0ZM6.8-54v7.9L101.3,8.5v17.5L6.8-28.6v7.9l94.5,54.6v17.5L6.8-3.2v7.9l94.5,54.6v17.5L6.8,22.2v7.9l91.1,52.6-78.9,45.6,7.1,3.8,75.2-43.4v17.5l-59.6,34.4,7.1,3.8,52.4-30.3v17.5l-36.8,21.2,7.1,3.8,34.8-20.1c1.2-.7,1.9-2.1,1.7-3.4,0-.1,0-.3,0-.5V6.5c0-1.4-.8-2.6-2-3.1L6.8-54h0ZM150.5-14.4l157.8,91.1v70.9l-15.9,9.2v-69.2c0,0,0-.2,0-.3,0-1.1-.6-2.2-1.7-2.8L135-5.5l15.6-9h0Zm256-38.5l15.9,9.2V25.8l-15.9-9.2V-52.9Zm22.8,13.2l15.9,9.2V38.9l-15.9-9.2V-39.7h0Zm-161.7,136.3L131.5,18V.5l154,88.9v71.3l-15.9,9.2v-70.3c0-1.4-.8-2.5-2-3.1h0ZM131.5,25.9l108.2,62.5v17.5l-108.2-62.5v-17.5h0Zm115.1,66.4l16.1,9.3v68.3l-16.1-9.3v-68.3h0Zm-6.9,38.9l-108.2-62.5v-17.5l108.2,62.5v17.5Zm-108.2-54.5l108.2,62.5v17.5l-17.5-10.1c-.2-.2-.5-.3-.7-.4l-22.2-12.9c-.2-.2-.5-.3-.8-.4l-21.7-12.5c-.2-.2-.5-.3-.8-.4l-22.7-13.1c-.2-.1-.4-.2-.6-.3l-21.3-12.3v-17.5h0Zm250.1,36.4c.2,0,.4-.2.5-.3l17.4-10v18.5l-107.8,62.3v-18.5l89.9-51.9h0Zm17.9,59l-107.8,62.3v-17.5l107.8-62.2v17.5h0Z"/><polygon class="cls-8" points="523.9 130.5 266.2 269 6.8 129.6 6.8 130.9 266.2 276.9 523.9 131.8 523.9 130.5"/><polygon class="cls-8" points="523.9 146.2 266.2 284.7 6.8 145.3 6.8 146.7 266.2 292.6 523.9 147.6 523.9 146.2"/><polygon class="cls-8" points="523.9 162 266.2 300.5 6.8 161.1 6.8 162.4 266.2 308.3 523.9 163.3 523.9 162"/><polygon class="cls-8" points="523.9 177.7 266.2 316.2 6.8 176.8 6.8 178.1 266.2 324.1 523.9 179.1 523.9 177.7"/><polygon class="cls-8" points="523.9 193.5 266.2 332 6.8 192.6 6.8 193.9 266.2 339.8 523.9 194.8 523.9 193.5"/><polygon class="cls-8" points="523.9 209.2 266.2 347.7 6.8 208.3 6.8 209.6 266.2 355.6 523.9 210.6 523.9 209.2"/><polygon class="cls-8" points="523.9 224.9 266.2 363.5 6.8 224.1 6.8 225.4 266.2 371.3 523.9 226.3 523.9 224.9"/><polygon class="cls-8" points="523.9 240.7 266.2 379.2 6.8 239.8 6.8 241.1 266.2 387.1 523.9 242 523.9 240.7"/><polygon class="cls-8" points="523.9 256.4 266.2 394.9 6.8 255.6 6.8 256.9 266.2 402.8 523.9 257.8 523.9 256.4"/><polygon class="cls-8" points="523.9 272.2 266.2 410.7 6.8 271.3 6.8 272.6 266.2 418.6 523.9 273.5 523.9 272.2"/><polygon class="cls-8" points="523.9 287.9 266.2 426.4 6.8 287 6.8 288.4 266.2 434.3 523.9 289.3 523.9 287.9"/><polygon class="cls-8" points="523.9 303.7 266.2 442.2 6.8 302.8 6.8 304.1 266.2 450 523.9 305 523.9 303.7"/></g></g><path class="cls-2" d="m479.1,261.9c-1.4-1.5-3.3-2.4-5.4-2.6-17.6-1-33.6-6.6-45.5-12.1-16.8-7.8-32.1-17.9-40.5-32.3-23.1-39.7-14.3-120.9-8.7-156.9.6-3.9-1.6-7.8-5.4-9.1l-30.2-10.5c-5-1.8-10.3,1.9-10.6,7.3-2.3,38.6-10.8,124.8-71.6,122.1h0c0,0,0,0,0,0h0c-.2,0-.4,0-.6,0h-.1s0,0,0,0h0c0,0-.1,0-.2,0,0,0-.1,0-.2,0h-.2c-.1,0-.2,0-.3,0-.1,0-.2,0-.3,0h-.2c0,0-.1,0-.2,0,0,0-.1,0-.2,0h-.1s0,0-.1,0c-.2,0-.4,0-.6,0h-.1c-60.8,2.8-69.4-83.4-71.6-122.1-.3-5.4-5.6-9.1-10.6-7.3l-30.1,10.5c-3.7,1.3-6,5.2-5.3,9.1,5.8,35.6,16.8,113.3-6.3,152.9-8.4,14.4-19.8,27.7-36.6,35.5-11.9,5.6-33,11.7-51.9,12.9-2.2.1-4.1,1.1-5.5,2.6l-2.1,1v447.4h45.1c53.2,2.8,398.7,0,398.7,0v-448.7l-2.2.3h0Z"/><path class="cls-9" d="m184.7,43.9s1.7,111.4,68.2,121.2,83.1-110.8,82.5-122.3c0,0-67.6,42.2-150.7,1.1h0Z"/><path class="cls-10" d="m239.1,448.1h9v17.7h-40v-17.7h9.2v-67.6h-8.7l5.4-17.7h25.1v85.4h0Z"/><path class="cls-10" d="m286.8,415.9h-31.3v-53.2h50.9v17.7h-29.3v22.8c5.4-.5,10.9-.7,16.4-.7s10.6.5,15.2,1.6v55.7c-3.9,2.8-8.2,4.9-12.9,6.1s-9.4,1.8-14.1,1.8-9.4-.6-14-1.8c-4.6-1.2-8.9-3.3-12.8-6.1v-26.2h21.6v18.2c0,1,.6,1.4,1.7,1.4h6.9c1.1,0,1.7-.5,1.7-1.4v-35.9h0Z"/><path class="cls-3" d="m239.1,448.1h9v17.7h-40v-17.7h9.2v-67.6h-8.7l5.4-17.7h25.1v85.4h0Z"/><path class="cls-3" d="m286.8,415.9h-31.3v-53.2h50.9v17.7h-29.3v22.8c5.4-.5,10.9-.7,16.4-.7s10.6.5,15.2,1.6v55.7c-3.9,2.8-8.2,4.9-12.9,6.1s-9.4,1.8-14.1,1.8-9.4-.6-14-1.8c-4.6-1.2-8.9-3.3-12.8-6.1v-26.2h21.6v18.2c0,1,.6,1.4,1.7,1.4h6.9c1.1,0,1.7-.5,1.7-1.4v-35.9h0Z"/><path class="cls-10" d="m239.1,448.1h9v17.7h-40v-17.7h9.2v-67.6h-8.7l5.4-17.7h25.1v85.4h0Z"/><path class="cls-10" d="m286.8,415.9h-31.3v-53.2h50.9v17.7h-29.3v22.8c5.4-.5,10.9-.7,16.4-.7s10.6.5,15.2,1.6v55.7c-3.9,2.8-8.2,4.9-12.9,6.1s-9.4,1.8-14.1,1.8-9.4-.6-14-1.8c-4.6-1.2-8.9-3.3-12.8-6.1v-26.2h21.6v18.2c0,1,.6,1.4,1.7,1.4h6.9c1.1,0,1.7-.5,1.7-1.4v-35.9h0Z"/><path class="cls-4" d="m239.1,448.1h9v17.7h-40v-17.7h9.2v-67.6h-8.7l5.4-17.7h25.1v85.4h0Z"/><path class="cls-4" d="m286.8,415.9h-31.3v-53.2h50.9v17.7h-29.3v22.8c5.4-.5,10.9-.7,16.4-.7s10.6.5,15.2,1.6v55.7c-3.9,2.8-8.2,4.9-12.9,6.1s-9.4,1.8-14.1,1.8-9.4-.6-14-1.8c-4.6-1.2-8.9-3.3-12.8-6.1v-26.2h21.6v18.2c0,1,.6,1.4,1.7,1.4h6.9c1.1,0,1.7-.5,1.7-1.4v-35.9h0Z"/><path class="cls-10" d="m335.2,35.8l-3.7-1.2-4.9-1.6c-2.1,7.9-9,20.4-30.6,20.4h-74c-21.7,0-28.5-12.5-30.6-20.4l-4.9,1.6-3.7,1.2-5,1.6c.9,3.2,2.3,6.8,4.5,10.5,5.5,9.3,16.8,20.3,39.7,20.3h74c22.9,0,34.2-11.1,39.7-20.3,2.2-3.7,3.6-7.4,4.5-10.5l-5-1.6h0Z"/><path class="cls-10" d="m335.6,35.4c-.3,31.2-4.2,57.2-11.7,77.5-12.9,34.7-35.8,52.3-68,52.3s-29.3-5.9-40.3-17.6c-17.6-18.6-25.7-48.9-29.4-71.1-3-18.1-3.7-33.9-3.8-40.5l-5,1.7c.5,18.4,4.3,81.5,34.7,113.6,12,12.7,26.8,19.2,43.9,19.2s34.5-5.6,47.3-16.7c10.7-9.2,19.3-22.4,25.4-39,7.6-20.5,11.6-46.6,12.1-77.7l-5.1-1.8h0Z"/><path class="cls-10" d="m218.3,144.6c10.3,10.9,22.9,16.4,37.5,16.4,61.9,0,75.5-68.5,75.9-127l-5.1-1.8c0,31.4-3.8,57.4-11.1,77.2-11.5,31.1-31.1,46.3-59.7,46.3s-24.5-4.9-33.9-14.8c-30-31.6-30.7-102.7-30.7-107.9l-5.1,1.7c.2,12.4,2.7,78.8,32.2,110h0Z"/><path class="cls-10" d="m255.8,161c-14.6,0-27.2-5.5-37.5-16.4-29.5-31.2-32-97.6-32.2-110l-3.9,1.3c.1,6.6.8,22.4,3.8,40.5,3.7,22.1,11.8,52.4,29.4,71.1,11,11.7,24.6,17.6,40.3,17.6,32.3,0,55.2-17.6,68-52.3,7.5-20.2,11.4-46.3,11.7-77.5l-3.9-1.4c-.3,58.5-14,127-75.9,127h0Z"/><path class="cls-10" d="m177.7,328.4h-12l-9.5-26.4h-3.3v14.4h3.2v11.9h-17.6v-11.9h3.2v-40.8h-3.2v-11.9h30.1l7.1,6.8v23.8l-7.6,7.6,5.3,14.6h4.4v11.9h0Zm-24.9-38.3h11.6v-14.4h-11.6v14.4Z"/><path class="cls-10" d="m181.5,328.4v-11.9h3.2v-40.8h-3.2v-11.9h17.6v11.9h-3.2v40.8h3.2v11.9h-17.6Z"/><path class="cls-10" d="m236.6,321.6l-7.1,6.8h-19.3l-7.2-6.8v-10.4h11.2v5.2h11.3v-14.4h-15.3l-7.2-6.8v-24.8l7.2-6.8h19.3l7.1,6.8v10.4h-11.2v-5.2h-11.3v14.4h15.4l7.1,6.8v24.8h0Z"/><path class="cls-10" d="m240.4,328.4v-11.9h3.2v-40.8h-3.2v-11.9h35.4v17.2h-11.2v-5.2h-9.8v14.4h15.3v12h-15.3v14.4h9.8v-5.2h11.2v17.2h-35.4Z"/><path class="cls-10" d="m335.5,321.6l-7.3,6.8h-20.4l-7.2-6.8v-46h-3.2v-11.9h17.6v11.9h-3.2v40.8h12.5v-40.8h-3.2v-11.9h17.6v11.9h-3.2v46h0Z"/><path class="cls-10" d="m379.5,299.6l-7.2,6.9h-15.3v10h3.2v11.9h-17.6v-11.9h3.2v-40.8h-3.2v-11.9h29.7l7.2,6.8v29h0Zm-11.2-5.1v-18.9h-11.4v18.9h11.4Z"/><path class="cls-3" d="m177.7,328.4h-12l-9.5-26.4h-3.3v14.4h3.2v11.9h-17.6v-11.9h3.2v-40.8h-3.2v-11.9h30.1l7.1,6.8v23.8l-7.6,7.6,5.3,14.6h4.4v11.9h0Zm-24.9-38.3h11.6v-14.4h-11.6v14.4Z"/><path class="cls-3" d="m181.5,328.4v-11.9h3.2v-40.8h-3.2v-11.9h17.6v11.9h-3.2v40.8h3.2v11.9h-17.6Z"/><path class="cls-3" d="m236.6,321.6l-7.1,6.8h-19.3l-7.2-6.8v-10.4h11.2v5.2h11.3v-14.4h-15.3l-7.2-6.8v-24.8l7.2-6.8h19.3l7.1,6.8v10.4h-11.2v-5.2h-11.3v14.4h15.4l7.1,6.8v24.8h0Z"/><path class="cls-3" d="m240.4,328.4v-11.9h3.2v-40.8h-3.2v-11.9h35.4v17.2h-11.2v-5.2h-9.8v14.4h15.3v12h-15.3v14.4h9.8v-5.2h11.2v17.2h-35.4Z"/><path class="cls-3" d="m335.5,321.6l-7.3,6.8h-20.4l-7.2-6.8v-46h-3.2v-11.9h17.6v11.9h-3.2v40.8h12.5v-40.8h-3.2v-11.9h17.6v11.9h-3.2v46h0Z"/><path class="cls-3" d="m379.5,299.6l-7.2,6.9h-15.3v10h3.2v11.9h-17.6v-11.9h3.2v-40.8h-3.2v-11.9h29.7l7.2,6.8v29h0Zm-11.2-5.1v-18.9h-11.4v18.9h11.4Z"/><path class="cls-5" d="m177.7,328.4h-12l-9.5-26.4h-3.3v14.4h3.2v11.9h-17.6v-11.9h3.2v-40.8h-3.2v-11.9h30.1l7.1,6.8v23.8l-7.6,7.6,5.3,14.6h4.4v11.9h0Zm-24.9-38.3h11.6v-14.4h-11.6v14.4Z"/><path class="cls-5" d="m181.5,328.4v-11.9h3.2v-40.8h-3.2v-11.9h17.6v11.9h-3.2v40.8h3.2v11.9h-17.6Z"/><path class="cls-5" d="m236.6,321.6l-7.1,6.8h-19.3l-7.2-6.8v-10.4h11.2v5.2h11.3v-14.4h-15.3l-7.2-6.8v-24.8l7.2-6.8h19.3l7.1,6.8v10.4h-11.2v-5.2h-11.3v14.4h15.4l7.1,6.8v24.8h0Z"/><path class="cls-5" d="m240.4,328.4v-11.9h3.2v-40.8h-3.2v-11.9h35.4v17.2h-11.2v-5.2h-9.8v14.4h15.3v12h-15.3v14.4h9.8v-5.2h11.2v17.2h-35.4Z"/><path class="cls-5" d="m335.5,321.6l-7.3,6.8h-20.4l-7.2-6.8v-46h-3.2v-11.9h17.6v11.9h-3.2v40.8h12.5v-40.8h-3.2v-11.9h17.6v11.9h-3.2v46h0Z"/><path class="cls-5" d="m379.5,299.6l-7.2,6.9h-15.3v10h3.2v11.9h-17.6v-11.9h3.2v-40.8h-3.2v-11.9h29.7l7.2,6.8v29h0Zm-11.2-5.1v-18.9h-11.4v18.9h11.4Z"/><path class="cls-10" d="m177.7,328.4h-12l-9.5-26.4h-3.3v14.4h3.2v11.9h-17.6v-11.9h3.2v-40.8h-3.2v-11.9h30.1l7.1,6.8v23.8l-7.6,7.6,5.3,14.6h4.4v11.9h0Zm-24.9-38.3h11.6v-14.4h-11.6v14.4Z"/><path class="cls-10" d="m181.5,328.4v-11.9h3.2v-40.8h-3.2v-11.9h17.6v11.9h-3.2v40.8h3.2v11.9h-17.6Z"/><path class="cls-10" d="m236.6,321.6l-7.1,6.8h-19.3l-7.2-6.8v-10.4h11.2v5.2h11.3v-14.4h-15.3l-7.2-6.8v-24.8l7.2-6.8h19.3l7.1,6.8v10.4h-11.2v-5.2h-11.3v14.4h15.4l7.1,6.8v24.8h0Z"/><path class="cls-10" d="m240.4,328.4v-11.9h3.2v-40.8h-3.2v-11.9h35.4v17.2h-11.2v-5.2h-9.8v14.4h15.3v12h-15.3v14.4h9.8v-5.2h11.2v17.2h-35.4Z"/><path class="cls-10" d="m335.5,321.6l-7.3,6.8h-20.4l-7.2-6.8v-46h-3.2v-11.9h17.6v11.9h-3.2v40.8h12.5v-40.8h-3.2v-11.9h17.6v11.9h-3.2v46h0Z"/><path class="cls-10" d="m379.5,299.6l-7.2,6.9h-15.3v10h3.2v11.9h-17.6v-11.9h3.2v-40.8h-3.2v-11.9h29.7l7.2,6.8v29h0Zm-11.2-5.1v-18.9h-11.4v18.9h11.4Z"/><path class="cls-10" d="m309.1,179.9c.5,1.5,1,3,1.4,4.6h-3.2c-.4-1.4-.9-2.8-1.3-4.2h-1c-.2,1.4-.4,2.8-.6,4.2h-3.1c.7-3.8,1.3-7.6,2-11.4h4.7c.5,0,1.1,0,1.6.2.7.2,1.2.7,1.4,1.5,0,.3.1.7,0,1-.1.6-.2,1.3-.4,1.9-.1.7-.5,1.2-1,1.7-.2.2-.4.3-.6.5h0,0Zm-3.8-1.6s0,0,0,0c.5,0,1,0,1.5,0,.6,0,.9-.4,1.1-.9,0-.4,0-.7,0-1.1-.1-.5-.4-.7-.9-.7h-1.2s0,0-.1,0c-.1.9-.3,1.8-.4,2.7h0Z"/><path class="cls-10" d="m316.2,180.8h2.8c0,.1,0,.2,0,.3,0,.6.2,1,.8,1.2.5.1,1.1.1,1.6,0,0,0,.1,0,.2,0,.6-.3.6-1,.3-1.3-.1-.1-.2-.2-.4-.3-.4-.3-.9-.4-1.3-.5-.5-.2-1-.3-1.5-.5-.5-.2-.9-.5-1.2-.8-.5-.5-.6-1.1-.6-1.7s0-1,.2-1.5c.3-1,1-1.6,2-2,.5-.2,1.1-.4,1.7-.4.7,0,1.3-.1,2,0,.6,0,1.2.2,1.7.5.7.4,1.1.9,1.3,1.6.1.8,0,1.5-.4,2.1,0,0,0,0,0,0h-2.8c0,0,0-.1.1-.2.2-.3.3-.7.2-1,0-.3-.2-.5-.5-.6-.2-.1-.5-.1-.8-.1s-.6,0-.9.1c-.1,0-.2,0-.3.1-.6.3-.7,1.1-.1,1.6.3.3.7.4,1.1.5.5.2,1.1.3,1.6.5.5.1.9.4,1.3.7.5.5.8,1.1.8,1.8,0,.6,0,1.2-.3,1.9-.4,1-1,1.6-2,1.9-.6.2-1.2.3-1.9.4-.6,0-1.1,0-1.7,0-.6,0-1.1-.1-1.7-.4-.9-.4-1.4-1-1.5-2,0-.5,0-1,.1-1.5,0,0,0,0,0,0h0s0,0,0,0Z"/><path class="cls-10" d="m325.5,184.5c.7-3.8,1.3-7.6,2-11.4h8c-.1.8-.3,1.6-.4,2.5h-5.1c-.1.7-.2,1.4-.4,2.1h4.2c-.1.8-.3,1.7-.4,2.5h-4.2c-.1.6-.2,1.2-.3,1.9h5.1c-.1.8-.3,1.6-.4,2.5h-8Z"/><path class="cls-10" d="m336.9,173.1h2.9c0,.4-.1.7-.2,1-.2,1.2-.4,2.4-.6,3.5-.1.9-.3,1.7-.5,2.6,0,.3,0,.6,0,.9,0,.6.3,1,.9,1.1.4,0,.7,0,1.1,0,.4-.1.7-.4.9-.8.2-.4.3-.8.4-1.2.2-1.3.5-2.7.7-4,.2-1,.3-1.9.5-2.8,0,0,0-.1,0-.2h2.5c-.6.9-1.1,1.7-1.7,2.6.5,0,1,.1,1.5.2,0,0,0,.1,0,.2-.3,1.5-.5,3.1-.8,4.6-.1.5-.3,1.1-.5,1.6-.6,1.2-1.5,1.9-2.7,2.3-.8.2-1.7.3-2.5.2-.5,0-1-.1-1.5-.3-1-.4-1.6-1.1-1.7-2.2,0-.6,0-1.3.1-1.9.2-1.2.4-2.4.6-3.6.2-1.2.4-2.3.6-3.5,0,0,0,0,0-.1h0Z"/><path class="cls-10" d="m348.7,181c-.2,1.2-.4,2.3-.6,3.5h-2.9c.5-2.8,1-5.6,1.5-8.4.5,0,1,.1,1.6.2-.4-1.1-.7-2.1-1.1-3.1,0,0,.1,0,.2,0h4.9c.5,0,1,0,1.5.3.9.3,1.3,1,1.4,1.9,0,.4,0,.8,0,1.2,0,.5-.2,1-.3,1.5-.2,1-.7,1.7-1.5,2.3-.6.4-1.3.7-2,.8-.4,0-.8,0-1.1,0h-1.5Zm.4-2.5s0,0,0,0c.6,0,1.1,0,1.7,0,.6,0,1-.4,1.1-1,0-.4.1-.8.2-1.1,0-.1,0-.2,0-.4-.1-.4-.4-.5-.8-.5h-1.5s0,0,0,0c-.2,1-.3,2-.5,2.9h0Z"/><path class="cls-10" d="m314.4,184.5h-2.9c.7-3.8,1.3-7.6,2-11.4h2.9c-.7,3.8-1.3,7.6-2,11.4h0Z"/><path class="cls-1" d="m309.1,179.9c.5,1.5,1,3,1.4,4.6h-3.2c-.4-1.4-.9-2.8-1.3-4.2h-1c-.2,1.4-.4,2.8-.6,4.2h-3.1c.7-3.8,1.3-7.6,2-11.4h4.7c.5,0,1.1,0,1.6.2.7.2,1.2.7,1.4,1.5,0,.3.1.7,0,1-.1.6-.2,1.3-.4,1.9-.1.7-.5,1.2-1,1.7-.2.2-.4.3-.6.5h0,0Zm-3.8-1.6s0,0,0,0c.5,0,1,0,1.5,0,.6,0,.9-.4,1.1-.9,0-.4,0-.7,0-1.1-.1-.5-.4-.7-.9-.7h-1.2s0,0-.1,0c-.1.9-.3,1.8-.4,2.7h0Z"/><path class="cls-1" d="m316.2,180.8h2.8c0,.1,0,.2,0,.3,0,.6.2,1,.8,1.2.5.1,1.1.1,1.6,0,0,0,.1,0,.2,0,.6-.3.6-1,.3-1.3-.1-.1-.2-.2-.4-.3-.4-.3-.9-.4-1.3-.5-.5-.2-1-.3-1.5-.5-.5-.2-.9-.5-1.2-.8-.5-.5-.6-1.1-.6-1.7s0-1,.2-1.5c.3-1,1-1.6,2-2,.5-.2,1.1-.4,1.7-.4.7,0,1.3-.1,2,0,.6,0,1.2.2,1.7.5.7.4,1.1.9,1.3,1.6.1.8,0,1.5-.4,2.1,0,0,0,0,0,0h-2.8c0,0,0-.1.1-.2.2-.3.3-.7.2-1,0-.3-.2-.5-.5-.6-.2-.1-.5-.1-.8-.1s-.6,0-.9.1c-.1,0-.2,0-.3.1-.6.3-.7,1.1-.1,1.6.3.3.7.4,1.1.5.5.2,1.1.3,1.6.5.5.1.9.4,1.3.7.5.5.8,1.1.8,1.8,0,.6,0,1.2-.3,1.9-.4,1-1,1.6-2,1.9-.6.2-1.2.3-1.9.4-.6,0-1.1,0-1.7,0-.6,0-1.1-.1-1.7-.4-.9-.4-1.4-1-1.5-2,0-.5,0-1,.1-1.5,0,0,0,0,0,0h0s0,0,0,0Z"/><path class="cls-1" d="m325.5,184.5c.7-3.8,1.3-7.6,2-11.4h8c-.1.8-.3,1.6-.4,2.5h-5.1c-.1.7-.2,1.4-.4,2.1h4.2c-.1.8-.3,1.7-.4,2.5h-4.2c-.1.6-.2,1.2-.3,1.9h5.1c-.1.8-.3,1.6-.4,2.5h-8Z"/><path class="cls-1" d="m336.9,173.1h2.9c0,.4-.1.7-.2,1-.2,1.2-.4,2.4-.6,3.5-.1.9-.3,1.7-.5,2.6,0,.3,0,.6,0,.9,0,.6.3,1,.9,1.1.4,0,.7,0,1.1,0,.4-.1.7-.4.9-.8.2-.4.3-.8.4-1.2.2-1.3.5-2.7.7-4,.2-1,.3-1.9.5-2.8,0,0,0-.1,0-.2h2.5c-.6.9-1.1,1.7-1.7,2.6.5,0,1,.1,1.5.2,0,0,0,.1,0,.2-.3,1.5-.5,3.1-.8,4.6-.1.5-.3,1.1-.5,1.6-.6,1.2-1.5,1.9-2.7,2.3-.8.2-1.7.3-2.5.2-.5,0-1-.1-1.5-.3-1-.4-1.6-1.1-1.7-2.2,0-.6,0-1.3.1-1.9.2-1.2.4-2.4.6-3.6.2-1.2.4-2.3.6-3.5,0,0,0,0,0-.1h0Z"/><path class="cls-1" d="m348.7,181c-.2,1.2-.4,2.3-.6,3.5h-2.9c.5-2.8,1-5.6,1.5-8.4.5,0,1,.1,1.6.2-.4-1.1-.7-2.1-1.1-3.1,0,0,.1,0,.2,0h4.9c.5,0,1,0,1.5.3.9.3,1.3,1,1.4,1.9,0,.4,0,.8,0,1.2,0,.5-.2,1-.3,1.5-.2,1-.7,1.7-1.5,2.3-.6.4-1.3.7-2,.8-.4,0-.8,0-1.1,0h-1.5Zm.4-2.5s0,0,0,0c.6,0,1.1,0,1.7,0,.6,0,1-.4,1.1-1,0-.4.1-.8.2-1.1,0-.1,0-.2,0-.4-.1-.4-.4-.5-.8-.5h-1.5s0,0,0,0c-.2,1-.3,2-.5,2.9h0Z"/><path class="cls-1" d="m314.4,184.5h-2.9c.7-3.8,1.3-7.6,2-11.4h2.9c-.7,3.8-1.3,7.6-2,11.4h0Z"/><path class="cls-7" d="m309.1,179.9c.5,1.5,1,3,1.4,4.6h-3.2c-.4-1.4-.9-2.8-1.3-4.2h-1c-.2,1.4-.4,2.8-.6,4.2h-3.1c.7-3.8,1.3-7.6,2-11.4h4.7c.5,0,1.1,0,1.6.2.7.2,1.2.7,1.4,1.5,0,.3.1.7,0,1-.1.6-.2,1.3-.4,1.9-.1.7-.5,1.2-1,1.7-.2.2-.4.3-.6.5h0,0Zm-3.8-1.6s0,0,0,0c.5,0,1,0,1.5,0,.6,0,.9-.4,1.1-.9,0-.4,0-.7,0-1.1-.1-.5-.4-.7-.9-.7h-1.2s0,0-.1,0c-.1.9-.3,1.8-.4,2.7h0Z"/><path class="cls-7" d="m316.2,180.8h2.8c0,.1,0,.2,0,.3,0,.6.2,1,.8,1.2.5.1,1.1.1,1.6,0,0,0,.1,0,.2,0,.6-.3.6-1,.3-1.3-.1-.1-.2-.2-.4-.3-.4-.3-.9-.4-1.3-.5-.5-.2-1-.3-1.5-.5-.5-.2-.9-.5-1.2-.8-.5-.5-.6-1.1-.6-1.7s0-1,.2-1.5c.3-1,1-1.6,2-2,.5-.2,1.1-.4,1.7-.4.7,0,1.3-.1,2,0,.6,0,1.2.2,1.7.5.7.4,1.1.9,1.3,1.6.1.8,0,1.5-.4,2.1,0,0,0,0,0,0h-2.8c0,0,0-.1.1-.2.2-.3.3-.7.2-1,0-.3-.2-.5-.5-.6-.2-.1-.5-.1-.8-.1s-.6,0-.9.1c-.1,0-.2,0-.3.1-.6.3-.7,1.1-.1,1.6.3.3.7.4,1.1.5.5.2,1.1.3,1.6.5.5.1.9.4,1.3.7.5.5.8,1.1.8,1.8,0,.6,0,1.2-.3,1.9-.4,1-1,1.6-2,1.9-.6.2-1.2.3-1.9.4-.6,0-1.1,0-1.7,0-.6,0-1.1-.1-1.7-.4-.9-.4-1.4-1-1.5-2,0-.5,0-1,.1-1.5,0,0,0,0,0,0h0s0,0,0,0Z"/><path class="cls-7" d="m325.5,184.5c.7-3.8,1.3-7.6,2-11.4h8c-.1.8-.3,1.6-.4,2.5h-5.1c-.1.7-.2,1.4-.4,2.1h4.2c-.1.8-.3,1.7-.4,2.5h-4.2c-.1.6-.2,1.2-.3,1.9h5.1c-.1.8-.3,1.6-.4,2.5h-8Z"/><path class="cls-7" d="m336.9,173.1h2.9c0,.4-.1.7-.2,1-.2,1.2-.4,2.4-.6,3.5-.1.9-.3,1.7-.5,2.6,0,.3,0,.6,0,.9,0,.6.3,1,.9,1.1.4,0,.7,0,1.1,0,.4-.1.7-.4.9-.8.2-.4.3-.8.4-1.2.2-1.3.5-2.7.7-4,.2-1,.3-1.9.5-2.8,0,0,0-.1,0-.2h2.5c-.6.9-1.1,1.7-1.7,2.6.5,0,1,.1,1.5.2,0,0,0,.1,0,.2-.3,1.5-.5,3.1-.8,4.6-.1.5-.3,1.1-.5,1.6-.6,1.2-1.5,1.9-2.7,2.3-.8.2-1.7.3-2.5.2-.5,0-1-.1-1.5-.3-1-.4-1.6-1.1-1.7-2.2,0-.6,0-1.3.1-1.9.2-1.2.4-2.4.6-3.6.2-1.2.4-2.3.6-3.5,0,0,0,0,0-.1h0Z"/><path class="cls-7" d="m348.7,181c-.2,1.2-.4,2.3-.6,3.5h-2.9c.5-2.8,1-5.6,1.5-8.4.5,0,1,.1,1.6.2-.4-1.1-.7-2.1-1.1-3.1,0,0,.1,0,.2,0h4.9c.5,0,1,0,1.5.3.9.3,1.3,1,1.4,1.9,0,.4,0,.8,0,1.2,0,.5-.2,1-.3,1.5-.2,1-.7,1.7-1.5,2.3-.6.4-1.3.7-2,.8-.4,0-.8,0-1.1,0h-1.5Zm.4-2.5s0,0,0,0c.6,0,1.1,0,1.7,0,.6,0,1-.4,1.1-1,0-.4.1-.8.2-1.1,0-.1,0-.2,0-.4-.1-.4-.4-.5-.8-.5h-1.5s0,0,0,0c-.2,1-.3,2-.5,2.9h0Z"/><path class="cls-7" d="m314.4,184.5h-2.9c.7-3.8,1.3-7.6,2-11.4h2.9c-.7,3.8-1.3,7.6-2,11.4h0Z"/><path class="cls-10" d="m193.6,179.6s0,0,.1-.1c1.6-2.1,2.7-4.5,3.2-7.1,0-.1,0-.3,0-.4,0,0,0-.1,0-.2,0-.1.2-.2.3-.2.1,0,.3,0,.4.2,0,0,0,.1,0,.2.2.7.3,1.4.4,2.1.2,1.1.2,2.3.1,3.5,0,1.6-.4,3.2-.9,4.7-.5,1.5-1.2,3-2.1,4.3-.1.1-.2.3-.4.4-1.7,1-3.5,1.7-5.4,2.2-.8.2-1.5.3-2.3.4-.3,0-.6,0-.9,0-.1,0-.2,0-.4,0,.1,0,.3,0,.4,0,1.3.2,2.6.3,3.9.2.3,0,.6,0,.9,0,.1,0,.2,0,.4,0,.2,0,.3,0,.4.2,0,.2,0,.3-.1.4,0,0-.1,0-.2.1-1,.8-2,1.4-3.1,2-.4.2-.8.4-1.2.5-.2,0-.3,0-.5,0-.8-.1-1.5-.3-2.2-.5,0,0-.2,0-.2,0,0,0,0,0,0,0,0,0,0,0,0,.1.1.2.2.5.4.7,0,0,0,.2,0,.3,0,.2-.1.3-.3.3-.2,0-.4,0-.6.1-1,.2-1.9.3-2.9.3h-.1c-.2,0-.3,0-.4-.3,0-.1,0-.2,0-.3,0,0,0-.1,0-.2,0,0,0,.1,0,.1,0,.1,0,.3-.1.4,0,.2-.2.3-.4.3s-.4,0-.6,0c-.6,0-1.2,0-1.7-.2-.4,0-.9-.2-1.3-.2,0,0,0,0-.1,0-.2,0-.3-.3-.2-.5,0,0,0-.1,0-.2.1-.2.2-.5.4-.7-.1,0-.2,0-.2,0-.6.2-1.3.4-2,.5-.7.1-.5.1-1.1-.1-1.4-.6-2.8-1.4-4-2.4,0,0-.1,0-.1-.1-.1-.1-.1-.3,0-.4,0-.1.2-.2.4-.2s.2,0,.2,0c1,.1,1.9.1,2.9,0,.8,0,1.5-.1,2.3-.3,0,0-.1,0-.2,0-.2,0-.5,0-.8,0-1.2-.1-2.4-.3-3.5-.7-1.5-.4-3-1.1-4.4-1.9-.2-.1-.3-.3-.5-.4-1.2-1.7-2-3.6-2.5-5.6-.2-.9-.4-1.9-.5-2.8,0-.9,0-1.9,0-2.8,0-1.1.2-2.2.5-3.3,0,0,0,0,0-.1,0-.2.2-.2.4-.2.1,0,.3.1.3.3,0,.1,0,.3,0,.4.5,2.3,1.4,4.5,2.7,6.5.2.3.4.6.6.9,0,0,0,0,.1.1,0,0,0-.1,0-.2-.4-.8-.8-1.5-1.1-2.3-.6-1.4-1-2.8-1.2-4.3-.2-1.3-.3-2.6-.2-3.9,0-.4,0-.8,0-1.1,0-.2,0-.3.2-.5,2.3-3.8,5.5-6.4,9.7-7.9,0,0,.1,0,.2,0,.2,0,.3,0,.4.1,0,.1,0,.3,0,.4,0,0,0,0,0,0-1,1.1-1.8,2.3-2.4,3.6-.6,1.3-1,2.7-1.3,4.2-.3,1.5-.4,3-.3,4.5,0,1.4.3,2.8.6,4.2.4,1.4.9,2.7,1.6,3.9.5,1,1.2,1.8,2,2.6.8.8,1.6,1.4,2.6,1.8.8.4,1.7.5,2.6.6,1,0,2-.2,3-.7,1-.5,1.9-1.1,2.6-2,.9-1,1.6-2,2.2-3.2.6-1.2,1-2.6,1.4-3.9.4-1.5.5-3.1.4-4.7,0-.7,0-1.4-.2-2.1-.3-2.4-1.1-4.7-2.4-6.8-.4-.7-.9-1.3-1.5-1.9,0,0,0,0-.1-.1,0-.1,0-.3,0-.4,0-.1.2-.2.4-.2,0,0,.2,0,.2,0,1.9.6,3.7,1.6,5.3,2.8,1.8,1.4,3.3,3.1,4.4,5.1,0,.1.1.3.2.5,0,.5,0,1,.1,1.5,0,.7,0,1.5,0,2.2-.2,2.3-.8,4.4-1.8,6.5-.2.5-.5.9-.7,1.4,0,0,0,.1,0,.2,0,0,0,0,0,.2,0,0,0-.1,0-.1h0s0,0,0,0Z"/><path class="cls-10" d="m178.1,173.7c0-.1,0-.2,0-.2-.1-.4-.3-.8-.4-1.3,0,0,0,0,0-.1,0-.2,0-.3.1-.4.1-.1.3-.3.4-.4.6-.5,1.1-1,1.7-1.5,0,0,0,0,.1-.1.2-.1.3-.1.5,0,0,0,0,0,0,0,.7.6,1.4,1.2,2,1.8.2.2.3.4.2.7-.1.4-.3.8-.4,1.2,0,0,0,.1,0,.3.1-.1.2-.2.3-.2.1-.1.2-.2.4-.3.2-.2.5-.1.7.2.1.4.3.9.5,1.3,0,0,0,.1,0,.2,0,.2,0,.3-.1.4-.1,0-.2.2-.3.3-.4.3-.6.7-.9,1.1-.5.7-.8,1.5-1.1,2.3-.4,1.1-.7,2.3-1,3.4,0,.4-.1.8-.2,1.1,0,0,0,0,0,.1,0,.2-.2.3-.4.3s-.3-.1-.3-.3c0-.2,0-.4-.1-.6-.3-1.6-.7-3.1-1.3-4.6-.3-.6-.5-1.2-.9-1.8-.3-.5-.7-.9-1.1-1.3-.2-.1-.2-.3-.1-.5.2-.5.4-1,.5-1.5,0-.2.2-.3.4-.3,0,0,.1,0,.2.1.1.1.3.3.5.4,0,0,0,0,.2.1h0Z"/><path class="cls-1" d="m193.6,179.6s0,0,.1-.1c1.6-2.1,2.7-4.5,3.2-7.1,0-.1,0-.3,0-.4,0,0,0-.1,0-.2,0-.1.2-.2.3-.2.1,0,.3,0,.4.2,0,0,0,.1,0,.2.2.7.3,1.4.4,2.1.2,1.1.2,2.3.1,3.5,0,1.6-.4,3.2-.9,4.7-.5,1.5-1.2,3-2.1,4.3-.1.1-.2.3-.4.4-1.7,1-3.5,1.7-5.4,2.2-.8.2-1.5.3-2.3.4-.3,0-.6,0-.9,0-.1,0-.2,0-.4,0,.1,0,.3,0,.4,0,1.3.2,2.6.3,3.9.2.3,0,.6,0,.9,0,.1,0,.2,0,.4,0,.2,0,.3,0,.4.2,0,.2,0,.3-.1.4,0,0-.1,0-.2.1-1,.8-2,1.4-3.1,2-.4.2-.8.4-1.2.5-.2,0-.3,0-.5,0-.8-.1-1.5-.3-2.2-.5,0,0-.2,0-.2,0,0,0,0,0,0,0,0,0,0,0,0,.1.1.2.2.5.4.7,0,0,0,.2,0,.3,0,.2-.1.3-.3.3-.2,0-.4,0-.6.1-1,.2-1.9.3-2.9.3h-.1c-.2,0-.3,0-.4-.3,0-.1,0-.2,0-.3,0,0,0-.1,0-.2,0,0,0,.1,0,.1,0,.1,0,.3-.1.4,0,.2-.2.3-.4.3s-.4,0-.6,0c-.6,0-1.2,0-1.7-.2-.4,0-.9-.2-1.3-.2,0,0,0,0-.1,0-.2,0-.3-.3-.2-.5,0,0,0-.1,0-.2.1-.2.2-.5.4-.7-.1,0-.2,0-.2,0-.6.2-1.3.4-2,.5-.7.1-.5.1-1.1-.1-1.4-.6-2.8-1.4-4-2.4,0,0-.1,0-.1-.1-.1-.1-.1-.3,0-.4,0-.1.2-.2.4-.2s.2,0,.2,0c1,.1,1.9.1,2.9,0,.8,0,1.5-.1,2.3-.3,0,0-.1,0-.2,0-.2,0-.5,0-.8,0-1.2-.1-2.4-.3-3.5-.7-1.5-.4-3-1.1-4.4-1.9-.2-.1-.3-.3-.5-.4-1.2-1.7-2-3.6-2.5-5.6-.2-.9-.4-1.9-.5-2.8,0-.9,0-1.9,0-2.8,0-1.1.2-2.2.5-3.3,0,0,0,0,0-.1,0-.2.2-.2.4-.2.1,0,.3.1.3.3,0,.1,0,.3,0,.4.5,2.3,1.4,4.5,2.7,6.5.2.3.4.6.6.9,0,0,0,0,.1.1,0,0,0-.1,0-.2-.4-.8-.8-1.5-1.1-2.3-.6-1.4-1-2.8-1.2-4.3-.2-1.3-.3-2.6-.2-3.9,0-.4,0-.8,0-1.1,0-.2,0-.3.2-.5,2.3-3.8,5.5-6.4,9.7-7.9,0,0,.1,0,.2,0,.2,0,.3,0,.4.1,0,.1,0,.3,0,.4,0,0,0,0,0,0-1,1.1-1.8,2.3-2.4,3.6-.6,1.3-1,2.7-1.3,4.2-.3,1.5-.4,3-.3,4.5,0,1.4.3,2.8.6,4.2.4,1.4.9,2.7,1.6,3.9.5,1,1.2,1.8,2,2.6.8.8,1.6,1.4,2.6,1.8.8.4,1.7.5,2.6.6,1,0,2-.2,3-.7,1-.5,1.9-1.1,2.6-2,.9-1,1.6-2,2.2-3.2.6-1.2,1-2.6,1.4-3.9.4-1.5.5-3.1.4-4.7,0-.7,0-1.4-.2-2.1-.3-2.4-1.1-4.7-2.4-6.8-.4-.7-.9-1.3-1.5-1.9,0,0,0,0-.1-.1,0-.1,0-.3,0-.4,0-.1.2-.2.4-.2,0,0,.2,0,.2,0,1.9.6,3.7,1.6,5.3,2.8,1.8,1.4,3.3,3.1,4.4,5.1,0,.1.1.3.2.5,0,.5,0,1,.1,1.5,0,.7,0,1.5,0,2.2-.2,2.3-.8,4.4-1.8,6.5-.2.5-.5.9-.7,1.4,0,0,0,.1,0,.2,0,0,0,0,0,.2,0,0,0-.1,0-.1h0s0,0,0,0Z"/><path class="cls-1" d="m178.1,173.7c0-.1,0-.2,0-.2-.1-.4-.3-.8-.4-1.3,0,0,0,0,0-.1,0-.2,0-.3.1-.4.1-.1.3-.3.4-.4.6-.5,1.1-1,1.7-1.5,0,0,0,0,.1-.1.2-.1.3-.1.5,0,0,0,0,0,0,0,.7.6,1.4,1.2,2,1.8.2.2.3.4.2.7-.1.4-.3.8-.4,1.2,0,0,0,.1,0,.3.1-.1.2-.2.3-.2.1-.1.2-.2.4-.3.2-.2.5-.1.7.2.1.4.3.9.5,1.3,0,0,0,.1,0,.2,0,.2,0,.3-.1.4-.1,0-.2.2-.3.3-.4.3-.6.7-.9,1.1-.5.7-.8,1.5-1.1,2.3-.4,1.1-.7,2.3-1,3.4,0,.4-.1.8-.2,1.1,0,0,0,0,0,.1,0,.2-.2.3-.4.3s-.3-.1-.3-.3c0-.2,0-.4-.1-.6-.3-1.6-.7-3.1-1.3-4.6-.3-.6-.5-1.2-.9-1.8-.3-.5-.7-.9-1.1-1.3-.2-.1-.2-.3-.1-.5.2-.5.4-1,.5-1.5,0-.2.2-.3.4-.3,0,0,.1,0,.2.1.1.1.3.3.5.4,0,0,0,0,.2.1h0Z"/><path class="cls-7" d="m193.6,179.6s0,0,.1-.1c1.6-2.1,2.7-4.5,3.2-7.1,0-.1,0-.3,0-.4,0,0,0-.1,0-.2,0-.1.2-.2.3-.2.1,0,.3,0,.4.2,0,0,0,.1,0,.2.2.7.3,1.4.4,2.1.2,1.1.2,2.3.1,3.5,0,1.6-.4,3.2-.9,4.7-.5,1.5-1.2,3-2.1,4.3-.1.1-.2.3-.4.4-1.7,1-3.5,1.7-5.4,2.2-.8.2-1.5.3-2.3.4-.3,0-.6,0-.9,0-.1,0-.2,0-.4,0,.1,0,.3,0,.4,0,1.3.2,2.6.3,3.9.2.3,0,.6,0,.9,0,.1,0,.2,0,.4,0,.2,0,.3,0,.4.2,0,.2,0,.3-.1.4,0,0-.1,0-.2.1-1,.8-2,1.4-3.1,2-.4.2-.8.4-1.2.5-.2,0-.3,0-.5,0-.8-.1-1.5-.3-2.2-.5,0,0-.2,0-.2,0,0,0,0,0,0,0,0,0,0,0,0,.1.1.2.2.5.4.7,0,0,0,.2,0,.3,0,.2-.1.3-.3.3-.2,0-.4,0-.6.1-1,.2-1.9.3-2.9.3h-.1c-.2,0-.3,0-.4-.3,0-.1,0-.2,0-.3,0,0,0-.1,0-.2,0,0,0,.1,0,.1,0,.1,0,.3-.1.4,0,.2-.2.3-.4.3s-.4,0-.6,0c-.6,0-1.2,0-1.7-.2-.4,0-.9-.2-1.3-.2,0,0,0,0-.1,0-.2,0-.3-.3-.2-.5,0,0,0-.1,0-.2.1-.2.2-.5.4-.7-.1,0-.2,0-.2,0-.6.2-1.3.4-2,.5-.7.1-.5.1-1.1-.1-1.4-.6-2.8-1.4-4-2.4,0,0-.1,0-.1-.1-.1-.1-.1-.3,0-.4,0-.1.2-.2.4-.2s.2,0,.2,0c1,.1,1.9.1,2.9,0,.8,0,1.5-.1,2.3-.3,0,0-.1,0-.2,0-.2,0-.5,0-.8,0-1.2-.1-2.4-.3-3.5-.7-1.5-.4-3-1.1-4.4-1.9-.2-.1-.3-.3-.5-.4-1.2-1.7-2-3.6-2.5-5.6-.2-.9-.4-1.9-.5-2.8,0-.9,0-1.9,0-2.8,0-1.1.2-2.2.5-3.3,0,0,0,0,0-.1,0-.2.2-.2.4-.2.1,0,.3.1.3.3,0,.1,0,.3,0,.4.5,2.3,1.4,4.5,2.7,6.5.2.3.4.6.6.9,0,0,0,0,.1.1,0,0,0-.1,0-.2-.4-.8-.8-1.5-1.1-2.3-.6-1.4-1-2.8-1.2-4.3-.2-1.3-.3-2.6-.2-3.9,0-.4,0-.8,0-1.1,0-.2,0-.3.2-.5,2.3-3.8,5.5-6.4,9.7-7.9,0,0,.1,0,.2,0,.2,0,.3,0,.4.1,0,.1,0,.3,0,.4,0,0,0,0,0,0-1,1.1-1.8,2.3-2.4,3.6-.6,1.3-1,2.7-1.3,4.2-.3,1.5-.4,3-.3,4.5,0,1.4.3,2.8.6,4.2.4,1.4.9,2.7,1.6,3.9.5,1,1.2,1.8,2,2.6.8.8,1.6,1.4,2.6,1.8.8.4,1.7.5,2.6.6,1,0,2-.2,3-.7,1-.5,1.9-1.1,2.6-2,.9-1,1.6-2,2.2-3.2.6-1.2,1-2.6,1.4-3.9.4-1.5.5-3.1.4-4.7,0-.7,0-1.4-.2-2.1-.3-2.4-1.1-4.7-2.4-6.8-.4-.7-.9-1.3-1.5-1.9,0,0,0,0-.1-.1,0-.1,0-.3,0-.4,0-.1.2-.2.4-.2,0,0,.2,0,.2,0,1.9.6,3.7,1.6,5.3,2.8,1.8,1.4,3.3,3.1,4.4,5.1,0,.1.1.3.2.5,0,.5,0,1,.1,1.5,0,.7,0,1.5,0,2.2-.2,2.3-.8,4.4-1.8,6.5-.2.5-.5.9-.7,1.4,0,0,0,.1,0,.2,0,0,0,0,0,.2,0,0,0-.1,0-.1h0s0,0,0,0Z"/><path class="cls-7" d="m178.1,173.7c0-.1,0-.2,0-.2-.1-.4-.3-.8-.4-1.3,0,0,0,0,0-.1,0-.2,0-.3.1-.4.1-.1.3-.3.4-.4.6-.5,1.1-1,1.7-1.5,0,0,0,0,.1-.1.2-.1.3-.1.5,0,0,0,0,0,0,0,.7.6,1.4,1.2,2,1.8.2.2.3.4.2.7-.1.4-.3.8-.4,1.2,0,0,0,.1,0,.3.1-.1.2-.2.3-.2.1-.1.2-.2.4-.3.2-.2.5-.1.7.2.1.4.3.9.5,1.3,0,0,0,.1,0,.2,0,.2,0,.3-.1.4-.1,0-.2.2-.3.3-.4.3-.6.7-.9,1.1-.5.7-.8,1.5-1.1,2.3-.4,1.1-.7,2.3-1,3.4,0,.4-.1.8-.2,1.1,0,0,0,0,0,.1,0,.2-.2.3-.4.3s-.3-.1-.3-.3c0-.2,0-.4-.1-.6-.3-1.6-.7-3.1-1.3-4.6-.3-.6-.5-1.2-.9-1.8-.3-.5-.7-.9-1.1-1.3-.2-.1-.2-.3-.1-.5.2-.5.4-1,.5-1.5,0-.2.2-.3.4-.3,0,0,.1,0,.2.1.1.1.3.3.5.4,0,0,0,0,.2.1h0Z"/></svg>