<?xml version="1.0" encoding="UTF-8"?><svg id="Primary_Color" xmlns="http://www.w3.org/2000/svg" xmlns:xlink="http://www.w3.org/1999/xlink" viewBox="0 0 518.7 743.8"><defs><style>.cls-1{stroke-width:8px;}.cls-1,.cls-2,.cls-3,.cls-4,.cls-5{fill:none;}.cls-1,.cls-3,.cls-5{stroke:gray;}.cls-1,.cls-5{stroke-linejoin:round;}.cls-6{clip-path:url(#clippath);}.cls-2,.cls-7,.cls-8,.cls-9,.cls-10,.cls-11{stroke-width:0px;}.cls-12{clip-path:url(#clippath-1);}.cls-13{clip-path:url(#clippath-4);}.cls-14{clip-path:url(#clippath-3);}.cls-15{clip-path:url(#clippath-2);}.cls-3{stroke-width:10px;}.cls-3,.cls-4{stroke-miterlimit:10;}.cls-4{stroke:#a9a9a9;}.cls-5{stroke-width:4px;}.cls-7{fill:gray;}.cls-8{fill:#d3d3d3;}.cls-9{fill:#a9a9a9;}.cls-10{fill:#f1f2f2;}.cls-11{fill:#e5e6e7;}</style><clipPath id="clippath"><path class="cls-2" d="m-59.7,261.9c-1.4-1.5-3.3-2.4-5.4-2.6-17.6-1-33.6-6.6-45.5-12.1-16.8-7.8-32.1-17.9-40.5-32.3-23.1-39.7-14.3-120.9-8.7-156.9.6-3.9-1.6-7.8-5.4-9.1l-30.2-10.5c-5-1.8-10.3,1.9-10.6,7.3-2.3,38.6-10.8,124.8-71.6,122.1h0c0,0,0,0,0,0h0c-.2,0-.4,0-.6,0h-.1s0,0,0,0h0c0,0-.1,0-.2,0,0,0-.1,0-.2,0h-.2c-.1,0-.2,0-.3,0-.1,0-.2,0-.3,0h-.2c0,0-.1,0-.2,0,0,0-.1,0-.2,0h-.1s0,0-.1,0c-.2,0-.4,0-.6,0h-.1c-60.8,2.8-69.4-83.4-71.6-122.1-.3-5.4-5.6-9.1-10.6-7.3l-30.1,10.5c-3.7,1.3-6,5.2-5.3,9.1,5.8,35.6,16.8,113.3-6.3,152.9-8.4,14.4-19.8,27.7-36.6,35.5-11.9,5.6-33,11.7-51.9,12.9-2.2.1-4.1,1.1-5.5,2.6l-2.1,1v447.4h45.1c53.2,2.8,398.7,0,398.7,0v-448.7l-2.2.3h0Z"/></clipPath><clipPath id="clippath-1"><path class="cls-2" d="m479.1,261.9c-1.4-1.5-3.3-2.4-5.4-2.6-17.6-1-33.6-6.6-45.5-12.1-16.8-7.8-32.1-17.9-40.5-32.3-23.1-39.7-14.3-120.9-8.7-156.9.6-3.9-1.6-7.8-5.4-9.1l-30.2-10.5c-5-1.8-10.3,1.9-10.6,7.3-2.3,38.6-10.8,124.8-71.6,122.1h0c0,0,0,0,0,0h0c-.2,0-.4,0-.6,0h-.1s0,0,0,0h0c0,0-.1,0-.2,0,0,0-.1,0-.2,0h-.2c-.1,0-.2,0-.3,0-.1,0-.2,0-.3,0h-.2c0,0-.1,0-.2,0,0,0-.1,0-.2,0h-.1s0,0-.1,0c-.2,0-.4,0-.6,0h-.1c-60.8,2.8-69.4-83.4-71.6-122.1-.3-5.4-5.6-9.1-10.6-7.3l-30.1,10.5c-3.7,1.3-6,5.2-5.3,9.2,5.8,35.6,16.8,113.3-6.3,152.9-8.4,14.4-19.8,27.7-36.6,35.5-11.9,5.6-33,11.7-51.9,12.9-2.2.1-4.1,1.1-5.5,2.6l-2.1,1v447.4h45.1c53.2,2.8,398.7,0,398.7,0v-448.7l-2.2.3h0Z"/></clipPath><clipPath id="clippath-2"><rect class="cls-2" x="-.4" y="208.1" width="69.8" height="570.6"/></clipPath><clipPath id="clippath-3"><path class="cls-2" d="m39.6,261.9c1.4-1.5,3.3-2.4,5.4-2.6,17.6-1,33.6-6.6,45.5-12.1,16.8-7.8,32.1-17.9,40.5-32.3,23.1-39.7,14.3-120.9,8.7-156.9-.6-3.9,1.6-7.8,5.4-9.1l30.2-10.5c5-1.8,10.3,1.9,10.6,7.3,2.3,38.6,10.8,124.8,71.6,122.1h0c0,0,0,0,0,0h0c.2,0,.4,0,.6,0h.1s0,0,0,0h0c0,0,.1,0,.2,0,0,0,.1,0,.2,0h.2c.1,0,.2,0,.3,0,.1,0,.2,0,.3,0h.2c0,0,.1,0,.2,0,0,0,.1,0,.2,0h.1s0,0,.1,0c.2,0,.4,0,.6,0h.1c60.8,2.8,69.4-83.4,71.6-122.1.3-5.4,5.6-9.1,10.6-7.3l30.1,10.5c3.7,1.3,6,5.2,5.3,9.2-5.8,35.6-16.8,113.3,6.3,152.9,8.4,14.4,19.8,27.7,36.6,35.5,11.9,5.6,33,11.7,51.9,12.9,2.2.1,4.1,1.1,5.5,2.6l2.2,1v447.4h-45.1c-53.2,2.8-398.7,0-398.7,0v-448.7l2.2.3h0Z"/></clipPath><clipPath id="clippath-4"><rect class="cls-2" x="449.4" y="208.1" width="69.8" height="570.6"/></clipPath></defs><g class="cls-6"><polygon class="cls-10" points="27.9 25.5 33.2 14 16.5 14 23.3 25.9 9.8 46.6 25.4 71.8 41.7 46.6 27.9 25.5"/><polygon class="cls-10" points="27.9 100.1 33.2 88.6 16.5 88.6 23.3 100.5 9.8 121.2 25.4 146.4 41.7 121.2 27.9 100.1"/><polygon class="cls-10" points="27.9 174.6 33.2 163.2 16.5 163.2 23.3 175.1 9.8 195.8 25.4 220.9 41.7 195.8 27.9 174.6"/><polygon class="cls-10" points="27.9 249.2 33.2 237.8 16.5 237.8 23.3 249.6 9.8 270.4 25.4 295.5 41.7 270.4 27.9 249.2"/><polygon class="cls-10" points="27.9 323.8 33.2 312.3 16.5 312.3 23.3 324.2 9.8 345 25.4 370.1 41.7 345 27.9 323.8"/><polygon class="cls-10" points="27.9 398.4 33.2 386.9 16.5 386.9 23.3 398.8 9.8 419.6 25.4 444.7 41.7 419.6 27.9 398.4"/><polygon class="cls-10" points="27.9 473 33.2 461.5 16.5 461.5 23.3 473.4 9.8 494.1 25.4 519.3 41.7 494.1 27.9 473"/><polygon class="cls-10" points="27.9 547.5 33.2 536.1 16.5 536.1 23.3 548 9.8 568.7 25.4 593.9 41.7 568.7 27.9 547.5"/><polygon class="cls-10" points="27.9 622.1 33.2 610.7 16.5 610.7 23.3 622.5 9.8 643.3 25.4 668.4 41.7 643.3 27.9 622.1"/><polygon class="cls-10" points="27.9 696.7 33.2 685.2 16.5 685.2 23.3 697.1 9.8 717.9 25.4 743 41.7 717.9 27.9 696.7"/><rect class="cls-10" x="54.1" y="5.6" width="7.5" height="745.8"/><path class="cls-10" d="m-47.8,751.4v-2.1h0v1l18.5-16.9h0l5.7,5.2h0l-13.9,12.8h2.3l12.8-11.7,5.7,5.2h0l-7.1,6.5h2.3l5.9-5.4,5.7,5.2-.2.2H2.2V5.6h-12.3l-18.8,17.2-.6.5-.6.5-5.7,5.2h0l-.6.5h0l-.6.5-5.7,5.2-.6.5h0l-.6.5h0l-4.1,3.8v-10.5l5.3-4.8.6-.5h0l.6-.5h0l5.7-5.2.6-.5.6-.5,13-11.9h-2.3l-11.9,10.9-.6.5-.6.5-5.7,5.2-.6.5h0l-.6.5-4.1,3.8h0v-10.5l5.3-4.8.6-.5.6-.5,6.2-5.6h-2.3l-5,4.6-.6.5-.6.5-4.1,3.8V5.6h-11.7v745.8h11.7Zm38.4-12.4v11.5h0v-1l-5-4.6-.6-.5h0l-.6-.5h0l-5.7-5.2-.6-.5-.6-.5-5.7-5.2-.6-.5-.6-.5-18.5-16.9v-.8l5.3-4.8h0l33.1,30.3h0Zm0-12.6v10.5l-32-29.3h0l5.7-5.2h0l26.3,24h0Zm0-13.4v11.3l-25.1-23,5.7-5.2,19,17.3.4.4v-1h0v.3h0Zm0-48.6v11.5h0v-1l-5-4.6-.6-.5h0l-.6-.5h0l-5.7-5.2-.6-.5-.6-.5-5.7-5.2-.6-.5-.6-.5-18.5-16.9v-.8l5.3-4.8h0l33.1,30.3h0Zm0-12.6v10.5l-32-29.3h0l5.7-5.2h0l26.3,24h0Zm0-13.4v11.3l-25.1-23,5.7-5.2,19,17.3.4.4v-1h0v.3h0Zm0-48.6v11.5h0v-1l-5-4.6-.6-.5h0l-.6-.5h0l-5.7-5.2-.6-.5-.6-.5-5.7-5.2-.6-.5-.6-.5-18.5-16.9v-.8l5.3-4.8h0l33.1,30.3h0Zm0-12.6v10.5l-32-29.3h0l5.7-5.2h0l26.3,24h0Zm0-13.4v11.3l-25.1-23,5.7-5.2,19,17.3.4.4v-1h0v.3h0Zm0-48.6v11.5h0v-1l-5-4.6-.6-.5h0l-.6-.5h0l-5.7-5.2-.6-.5-.6-.5-5.7-5.2-.6-.5-.6-.5-18.5-16.9v-.8l5.3-4.8h0l33.1,30.3h0Zm0-12.6v10.5l-32-29.3h0l5.7-5.2h0l26.3,24h0Zm0-13.4v11.3l-25.1-23,5.7-5.2,19,17.3.4.4v-1h0v.3h0Zm0-48.6v11.5h0v-1l-5-4.6-.6-.5h0l-.6-.5h0l-5.7-5.2-.6-.5-.6-.5-5.7-5.2-.6-.5-.6-.5-18.5-16.9v-.8l5.3-4.8h0l33.1,30.3h0Zm0-12.6v10.5l-32-29.3h0l5.7-5.2h0l26.3,24h0Zm0-13.4v11.3l-25.1-23,5.7-5.2,19,17.3.4.4v-1h0v.3h0Zm0-48.6v11.5h0v-1l-5-4.6-.6-.5h0l-.6-.5h0l-5.7-5.2-.6-.5-.6-.5-5.7-5.2-.6-.5-.6-.5-18.5-16.9v-.8l5.3-4.8h0l33.1,30.3h0Zm0-12.6v10.5l-32-29.3h0l5.7-5.2h0l26.3,24h0Zm0-13.4v11.3l-25.1-23,5.7-5.2,19,17.3.4.4v-1h0v.3Zm0-48.6v11.5h0v-1l-5-4.6-.6-.5h0l-.6-.5h0l-5.7-5.2-.6-.5-.6-.5-5.7-5.2-.6-.5-.6-.5-18.5-16.9v-.8l5.3-4.8h0l33.1,30.3h0Zm0-12.6v10.5l-32-29.3h0l5.7-5.2h0l26.3,24h0Zm0-13.4v11.3l-25.1-23,5.7-5.2,19,17.3.4.4v-1h0v.3Zm0-48.6v11.5h0v-1l-5-4.6-.6-.5h0l-.6-.5h0l-5.7-5.2-.6-.5-.6-.5-5.7-5.2-.6-.5-.6-.5-18.5-16.9v-.8l5.3-4.8h0l33.1,30.3h0Zm0-12.6v10.5l-32-29.3h0l5.7-5.2h0l26.3,24h0Zm0-13.4v11.3l-25.1-23,5.7-5.2,19,17.3.4.4v-1h0v.3Zm0-48.6v11.6h0v-1.1l-5-4.6-.6-.5h0l-.6-.5h0l-5.7-5.2-.6-.5-.6-.5-5.7-5.2-.6-.5-.6-.5-18.5-16.9v-.8l5.3-4.8h0l33.1,30.3h0Zm0-12.6v10.5l-32-29.3h0l5.7-5.2h0l26.3,24h0Zm0-13.4v11.3l-25.1-23,5.7-5.2,19,17.3.4.4v-1.1h0v.3Zm0-48.6v11.6h0v-1.1l-5-4.6-.6-.5h0l-.6-.5h0l-5.7-5.2-.6-.5-.6-.5-5.7-5.2-.6-.5-.6-.5-18.5-16.9v-.8l5.3-4.8h0l33.1,30.3h0Zm0-12.6v10.5l-32-29.3h0l5.7-5.2h0l26.3,24h0Zm0-13.4v11.3l-25.1-23,5.7-5.2,19,17.3.4.4v-1.1h0v.3Zm-38.4,40.2v-4h0v1.1l18.5-16.9h0l5.7,5.2h0l-13.9,12.8h0l-5,4.6-.6.5-.6.5-4.1,3.8v-7.6h0Zm0,20.1v-10.5l5.3-4.8.6-.5.6-.5,6.2-5.6h0l12.8-11.7,5.7,5.2h0l-7.1,6.5h0l-11.9,10.9-.6.5-.6.5-5.7,5.2-.6.5h0l-.6.5-4.1,3.8h0Zm0,2.1l5.3-4.8.6-.5h0l.6-.5h0l5.7-5.2.6-.5.6-.5,13-11.9h0l5.9-5.4,5.7,5.2-.2.2-18.8,17.2-.6.5-.6.5-5.7,5.2h0l-.6.5h0l-.6.5-5.7,5.2-.6.5h0l-.6.5h0l-4.1,3.8v-10.5h0Zm0,52.3v-4h0v1.1l18.5-16.9h0l5.7,5.2h0l-13.9,12.8h0l-5,4.6-.6.5-.6.5-4.1,3.8v-7.6h0Zm0,20.1v-10.5l5.3-4.8.6-.5.6-.5,6.2-5.6h0l12.8-11.7,5.7,5.2h0l-7.1,6.5h0l-11.9,10.9-.6.5-.6.5-5.7,5.2-.6.5h0l-.6.5-4.1,3.8h0Zm0,2.1l5.3-4.8.6-.5h0l.6-.5h0l5.7-5.2.6-.5.6-.5,13-11.9h0l5.9-5.4,5.7,5.2-.2.2-18.8,17.2-.6.5-.6.5-5.7,5.2h0l-.6.5h0l-.6.5-5.7,5.2-.6.5h0l-.6.5h0l-4.1,3.8v-10.5h0Zm0,52.3v-4h0v1l18.5-16.9h0l5.7,5.2h0l-13.9,12.8h0l-5,4.6-.6.5-.6.5-4.1,3.8v-7.5h0Zm0,20.1v-10.5l5.3-4.8.6-.5.6-.5,6.2-5.6h0l12.8-11.7,5.7,5.2h0l-7.1,6.5h0l-11.9,10.9-.6.5-.6.5-5.7,5.2-.6.5h0l-.6.5-4.1,3.8h0Zm0,2.1l5.3-4.8.6-.5h0l.6-.5h0l5.7-5.2.6-.5.6-.5,13-11.9h0l5.9-5.4,5.7,5.2-.2.2-18.8,17.2-.6.5-.6.5-5.7,5.2h0l-.6.5h0l-.6.5-5.7,5.2-.6.5h0l-.6.5h0l-4.1,3.8v-10.5h0Zm0,52.3v-4h0v1l18.5-16.9h0l5.7,5.2h0l-13.9,12.8h0l-5,4.6-.6.5-.6.5-4.1,3.8v-7.5h0Zm0,20.1v-10.5l5.3-4.8.6-.5.6-.5,6.2-5.6h0l12.8-11.7,5.7,5.2h0l-7.1,6.5h0l-11.9,10.9-.6.5-.6.5-5.7,5.2-.6.5h0l-.6.5-4.1,3.8h0Zm0,2.1l5.3-4.8.6-.5h0l.6-.5h0l5.7-5.2.6-.5.6-.5,13-11.9h0l5.9-5.4,5.7,5.2-.2.2-18.8,17.2-.6.5-.6.5-5.7,5.2h0l-.6.5h0l-.6.5-5.7,5.2-.6.5h0l-.6.5h0l-4.1,3.8v-10.5h0Zm0,52.3v-4h0v1l18.5-16.9h0l5.7,5.2h0l-13.9,12.8h0l-5,4.6-.6.5-.6.5-4.1,3.8v-7.5h0Zm0,20.1v-10.5l5.3-4.8.6-.5.6-.5,6.2-5.6h0l12.8-11.7,5.7,5.2h0l-7.1,6.5h0l-11.9,10.9-.6.5-.6.5-5.7,5.2-.6.5h0l-.6.5-4.1,3.8h0Zm0,2.1l5.3-4.8.6-.5h0l.6-.5h0l5.7-5.2.6-.5.6-.5,13-11.9h0l5.9-5.4,5.7,5.2-.2.2-18.8,17.2-.6.5-.6.5-5.7,5.2h0l-.6.5h0l-.6.5-5.7,5.2-.6.5h0l-.6.5h0l-4.1,3.8v-10.5h0Zm0,52.3v-4h0v1l18.5-16.9h0l5.7,5.2h0l-13.9,12.8h0l-5,4.6-.6.5-.6.5-4.1,3.8v-7.5h0Zm0,20.1v-10.5l5.3-4.8.6-.5.6-.5,6.2-5.6h0l12.8-11.7,5.7,5.2h0l-7.1,6.5h0l-11.9,10.9-.6.5-.6.5-5.7,5.2-.6.5h0l-.6.5-4.1,3.8h0Zm0,2.1l5.3-4.8.6-.5h0l.6-.5h0l5.7-5.2.6-.5.6-.5,13-11.9h0l5.9-5.4,5.7,5.2-.2.2-18.8,17.2-.6.5-.6.5-5.7,5.2h0l-.6.5h0l-.6.5-5.7,5.2-.6.5h0l-.6.5h0l-4.1,3.8v-10.5h0Zm0,52.3v-4h0v1l18.5-16.9h0l5.7,5.2h0l-13.9,12.8h0l-5,4.6-.6.5-.6.5-4.1,3.8v-7.5h0Zm0,20.1v-10.5l5.3-4.8.6-.5.6-.5,6.2-5.6h0l12.8-11.7,5.7,5.2h0l-7.1,6.5h0l-11.9,10.9-.6.5-.6.5-5.7,5.2-.6.5h0l-.6.5-4.1,3.8h0Zm0,2.1l5.3-4.8.6-.5h0l.6-.5h0l5.7-5.2.6-.5.6-.5,13-11.9h0l5.9-5.4,5.7,5.2-.2.2-18.8,17.2-.6.5-.6.5-5.7,5.2h0l-.6.5h0l-.6.5-5.7,5.2-.6.5h0l-.6.5h0l-4.1,3.8v-10.5h0Zm0,52.3v-4h0v1l18.5-16.9h0l5.7,5.2h0l-13.9,12.8h0l-5,4.6-.6.5-.6.5-4.1,3.8v-7.5h0Zm0,20.1v-10.5l5.3-4.8.6-.5.6-.5,6.2-5.6h0l12.8-11.7,5.7,5.2h0l-7.1,6.5h0l-11.9,10.9-.6.5-.6.5-5.7,5.2-.6.5h0l-.6.5-4.1,3.8h0Zm0,2.1l5.3-4.8.6-.5h0l.6-.5h0l5.7-5.2.6-.5.6-.5,13-11.9h0l5.9-5.4,5.7,5.2-.2.2-18.8,17.2-.6.5-.6.5-5.7,5.2h0l-.6.5h0l-.6.5-5.7,5.2-.6.5h0l-.6.5h0l-4.1,3.8v-10.5h0Zm0,52.3v-4h0v1l18.5-16.9h0l5.7,5.2h0l-13.9,12.8h0l-5,4.6-.6.5-.6.5-4.1,3.8v-7.5h0Zm0,20.1v-10.5l5.3-4.8.6-.5.6-.5,6.2-5.6h0l12.8-11.7,5.7,5.2h0l-7.1,6.5h0l-11.9,10.9-.6.5-.6.5-5.7,5.2-.6.5h0l-.6.5-4.1,3.8h0Zm0,2.1l5.3-4.8.6-.5h0l.6-.5h0l5.7-5.2.6-.5.6-.5,13-11.9h0l5.9-5.4,5.7,5.2-.2.2-18.8,17.2-.6.5-.6.5-5.7,5.2h0l-.6.5h0l-.6.5-5.7,5.2-.6.5h0l-.6.5h0l-4.1,3.8v-10.5h0Z"/><polygon class="cls-10" points="89.5 42.9 89.5 5.6 68 24.3 89.5 42.9"/><polygon class="cls-10" points="68 61.5 89.5 80.2 89.5 42.9 68 61.5"/><polygon class="cls-10" points="68 98.8 89.5 117.5 89.5 80.2 68 98.8"/><polygon class="cls-10" points="68 136.1 89.5 154.8 89.5 117.5 68 136.1"/><polygon class="cls-10" points="68 173.4 89.5 192.1 89.5 154.8 68 173.4"/><polygon class="cls-10" points="68 210.7 89.5 229.4 89.5 192.1 68 210.7"/><polygon class="cls-10" points="68 248 89.5 266.6 89.5 229.4 68 248"/><polygon class="cls-10" points="68 285.3 89.5 303.9 89.5 266.6 68 285.3"/><polygon class="cls-10" points="68 322.6 89.5 341.2 89.5 303.9 68 322.6"/><polygon class="cls-10" points="68 359.9 89.5 378.5 89.5 341.2 68 359.9"/><polygon class="cls-10" points="68 397.2 89.5 415.8 89.5 378.5 68 397.2"/><polygon class="cls-10" points="68 434.5 89.5 453.1 89.5 415.8 68 434.5"/><polygon class="cls-10" points="68 471.7 89.5 490.4 89.5 453.1 68 471.7"/><polygon class="cls-10" points="68 509 89.5 527.7 89.5 490.4 68 509"/><polygon class="cls-10" points="68 546.3 89.5 565 89.5 527.7 68 546.3"/><polygon class="cls-10" points="68 583.6 89.5 602.3 89.5 565 68 583.6"/><polygon class="cls-10" points="68 620.9 89.5 639.5 89.5 602.3 68 620.9"/><polygon class="cls-10" points="68 658.2 89.5 676.8 89.5 639.5 68 658.2"/><polygon class="cls-10" points="68 695.5 89.5 714.1 89.5 676.8 68 695.5"/><polygon class="cls-10" points="68 732.8 89.5 751.4 89.5 714.1 68 732.8"/></g><path class="cls-8" d="m479.1,261.9c-1.4-1.5-3.3-2.4-5.4-2.6-17.6-1-33.6-6.6-45.5-12.1-16.8-7.8-32.1-17.9-40.5-32.3-23.1-39.7-14.3-120.9-8.7-156.9.6-3.9-1.6-7.8-5.4-9.1l-30.2-10.5c-5-1.8-10.3,1.9-10.6,7.3-2.3,38.6-10.8,124.8-71.6,122.1h0c0,0,0,0,0,0h0c-.2,0-.4,0-.6,0h-.1s0,0,0,0h0c0,0-.1,0-.2,0,0,0-.1,0-.2,0h-.2c-.1,0-.2,0-.3,0-.1,0-.2,0-.3,0h-.2c0,0-.1,0-.2,0,0,0-.1,0-.2,0h-.1s0,0-.1,0c-.2,0-.4,0-.6,0h-.1c-60.8,2.8-69.4-83.4-71.6-122.1-.3-5.4-5.6-9.1-10.6-7.3l-30.1,10.5c-3.7,1.3-6,5.2-5.3,9.2,5.8,35.6,16.8,113.3-6.3,152.9-8.4,14.4-19.8,27.7-36.6,35.5-11.9,5.6-33,11.7-51.9,12.9-2.2.1-4.1,1.1-5.5,2.6l-2.1,1v447.4h45.1c53.2,2.8,398.7,0,398.7,0v-448.7l-2.2.3h0Z"/><g class="cls-12"><rect class="cls-3" x="-.4" y="208.1" width="69.8" height="570.6"/><rect class="cls-9" x="-.4" y="208.1" width="69.8" height="570.6"/><g class="cls-15"><rect class="cls-4" x="-.4" y="208.1" width="69.8" height="570.6"/><path class="cls-7" d="m75.1,715H26.5l-3.3,5.2h13.4l-3.1-3.9,3.4-.2,5.3,4.1h4.8l-4-4h3l4.2,4.4h4.2l-3-4.1h3.4l4.5,4.1h4.2l-3.1-3.6h3.3l4.1,3.4h-1.3s1.5,45.7-.8,55.7v7.2l11.4-3.7-2.1-64.6h0Z"/><polygon class="cls-7" points="71.8 776.5 63.7 776.5 63.7 722 58.5 776.5 57.4 721 52.9 775.5 52.9 718.8 48.7 775.3 47.4 717.8 43.2 775.9 41.7 716.5 37.6 775.7 36 717.1 29.4 775.8 29.4 718.3 23.8 774.7 23.8 720.2 18.2 775.3 18.2 717.6 13.7 773.8 13.7 718 8.5 770.6 7.3 719.3 .3 781.4 74.1 781.4 71.8 776.5"/><polygon class="cls-7" points="72.1 714.3 41.6 708.7 72.1 703.7 33.1 699.3 64.3 694.1 35.1 690.2 72.1 685 29.8 679.4 62.4 673.4 32.1 670.2 59.8 662.8 32.2 657.9 81.4 653.7 77.9 710.9 72.1 714.3"/><polygon class="cls-7" points="53.2 571.9 9.9 581.2 45.5 584 10.6 588.1 41.7 591.3 5.2 599.3 41.8 602.5 1.8 608.6 46.9 609.8 .7 618.5 41.5 622 5.2 629.1 44.2 632.8 -.6 638.1 39.2 642.2 .9 651.4 52.3 651.7 53.2 571.9"/><polygon class="cls-7" points="45.9 563.8 77 558.7 47.6 554.1 86.2 547.1 51.1 544.3 79.2 539.1 47.6 536 87.3 528.2 51.5 523.5 81.1 517.6 46.5 515 75.2 509.3 45.7 507.2 87.3 499.7 40.5 491.6 40.5 573.9 44.3 573.9 92.3 568.6 45.9 563.8"/><path class="cls-7" d="m73.4,430.4s-46.2,3.6-34.9,5c11.3,1.4,36.6,3.5,26.4,4.7-10.2,1.2-46.7,4.2-34.6,5.3,12.2,1.1,37.1,2.9,29.1,3.9-7.9,1-27.3,5-27.3,5l36.4,3.2s-45.4,6.2-42.1,7,31.8,5.7,31.8,5.7c0,0-34.2,4.6-32.6,4.9s34.4,5.2,34.4,5.2c0,0-41.4,6.6-35.4,7.1s57.1,7.3,57.1,7.3l-8.2-64.6h0Z"/><path class="cls-7" d="m73.2,315.9s-47,5.4-37.4,6.4,31.1,2.6,22.4,3.5c-8.7.9-39.8,3.2-29.4,4s31.6,2.2,24.8,3-23.3,3.8-23.3,3.8l30.9,2.4s-38.6,4.7-35.9,5.3,27.1,4.3,27.1,4.3c0,0-29.1,3.5-27.8,3.7s29.3,3.9,29.3,3.9c0,0-35.2,5-30.1,5.4,5.1.4,48.6,5.5,48.6,5.5l.7-51.3h0Z"/><path class="cls-7" d="m74.4,289.2s-55.2,4.8-44.9,5.6,31.6,2.2,24.8,3-23.3,3.8-23.3,3.8l30.9,2.4s-38.6,4.7-35.9,5.3,27.1,4.3,27.1,4.3c0,0-29.1,3.5-27.8,3.7s47.8.6,47.8.6l1.2-28.6h0Z"/><rect class="cls-7" x="-2.2" y="431.1" width="21.6" height="65.7"/><path class="cls-7" d="m71,386.3s-3.9-10.8-4.2-8.3,1.5,52.5,1.5,52.5l6.7-1.6-4.1-42.5Z"/><path class="cls-7" d="m67.7,430.4s-2.9-24.6-3.4-32.1c-.6-7.5-2.3-21.5-3.1-18.1s0,50.2,0,50.2h6.5Z"/><path class="cls-7" d="m59.6,430.4s-2.8-53.2-3.4-51.9-1,51.9-1,51.9h4.4,0Z"/><path class="cls-7" d="m53.6,430.4s-2.6-53.5-3.8-51.9c-1.2,1.6,0,51.7,0,51.7l3.8.2h0Z"/><path class="cls-7" d="m48.1,430.4h-3.7s-1.4-51.2,0-51.4,1.9,3.8,2.1,7.2c.1,3.4,1.6,44.1,1.6,44.1h0Z"/><path class="cls-7" d="m43.1,430.4c0-.4-.4-52.5-2.8-52s-1.9,10.8-2.1,15.6c-.1,4.8.6,36.4.6,36.4h4.2Z"/><path class="cls-7" d="m36.9,430.4s-1.8-22.3-.7-33.5c1.1-11.2.4-19.2-1.2-17.9-1.6,1.3-2.8,18-2.2,25.4s1,26.3,1,26.3l3.1-.3h0Z"/><path class="cls-7" d="m32.3,430.4s-2.6-12.6-2.5-22.7.8-29.1-.6-28.1-.9,22.8-1.1,29.1c-.2,6.2,1,22,1,22l3.3-.3h0Z"/><path class="cls-7" d="m13.2,292.5s15.8,8.9,16.4,10.2c.6,1.3-.5,1.9-1.7,1.2s-18.2-10-18.6-10-6.5,0-6.5,0c0,0,26.8,14.4,27.2,14.9s0,3.7,0,3.7c0,0-11.7-7.9-17.9-11.5-6.2-3.5-13.9-6.1-14.5-6.2s-.3-1.8-.3-1.8l15.9-.4h0Z"/><polygon class="cls-7" points="-2.4 297 29.6 315.6 29.6 318.5 -2.4 300.3 -2.4 297"/><polygon class="cls-7" points="-2.4 303.6 28.2 321 28.2 324.6 -2.4 306.2 -2.4 303.6"/><path class="cls-7" d="m-2.4,309.6s15.1,8.4,19.5,11.6,9.6,6.1,9.6,6.1v3.7s-6.3-3.1-10.8-5.9c-4.5-2.8-18.3-10-18.3-10,0,0,0-5.5,0-5.5Z"/><path class="cls-7" d="m-1.9,317s16.5,9,20.7,12.1c4.2,3.1,8.9,5.2,8.9,5.2v3.6s-14.7-6.8-18.9-9.9-11.1-7.2-11.1-7.2l.4-3.8Z"/><polygon class="cls-7" points="-2 326.7 2.3 327.4 -2 329.6 -2 326.7"/><path class="cls-7" d="m4.6,329.6s1.7-.4,2.3.4-9.3,5.3-9.3,5.3v-2.2l6.9-3.5h0Z"/><path class="cls-7" d="m7.4,331.9s3.6-1.1,4.2-.2-14,7.5-14,7.5v-2.4l9.8-4.9Z"/><path class="cls-7" d="m15.6,334.8s2.4-.2,3.1,1.5l-6,2.8-2.2-1.6,5.2-2.7h0Z"/><path class="cls-7" d="m-2.4,344l3.4-1.8s2.5.6,2.2,2l-5.6,2.8v-3Z"/><path class="cls-7" d="m20,337.2s1.9-.7,2.1,1l-24.1,12.7v-1.9l22-11.8h0Z"/><path class="cls-7" d="m22.5,340.7h.2s4.5.5,4.5.5c0,0-13.5,6.6-15.9,8.7-2.4,2.1-13.7,8-13.7,8v-3s5-1.8,8.1-4.5c3.1-2.7,4.4-3.5,8-5.3s8.8-4.5,8.8-4.5h0Z"/><path class="cls-7" d="m25.8,344.6s2.5,1.3,2.4,2.5c-.1,1.2,1.2,4.4.2,3.9s-5.4-3-5-3.9,2.4-2.6,2.4-2.6h0Z"/><path class="cls-7" d="m17.8,349.5s1.4-.5,3.7.9c2.2,1.4,6.6,3.9,6.8,4.5s-.1,3.1-1,2.8-7.8-4.6-9-6.2c-1.2-1.6-.4-1.9-.4-1.9h0Z"/><path class="cls-7" d="m12.4,352.9s2.4-.1,5.2,1.5c2.9,1.7,10.4,7,10.4,7v2.6s-15.3-8.6-16.3-9.8c-1-1.2.7-1.4.7-1.4h0Z"/><path class="cls-7" d="m6.4,356s5.5,2,6.6,3.1,14.8,7.7,15,8.4c.2.7-1.8,1.7-1.8,1.7l-2.7-.3s-17.1-9.3-17.8-10.7c-.6-1.4-.5-2.5.6-2.3h0Z"/><path class="cls-7" d="m-.5,360.2s4.1.4,7.9,2.8c3.8,2.4,11.8,6.1,11.5,6.2s-7.7.1-7.7.1c0,0-11.7-6.6-12.2-7.8s.5-1.3.5-1.3h0Z"/><path class="cls-7" d="m-1.9,364.3l10.4,5.4H3l-5.5-2.7s-.6-3.2.6-2.7h0Z"/><path class="cls-7" d="m17.4,498.4s-18.8,8.8-19.4,10.1c-.7,1.3.6,1.9,2,1.2s21.5-9.9,22-9.9c.5,0,7.7,0,7.7,0,0,0-31.7,14.2-32.2,14.7s0,3.7,0,3.7c0,0,13.9-7.8,21.2-11.4s16.5-6.1,17.2-6.1.4-1.8.4-1.8l-18.9-.4h0Z"/><polygon class="cls-7" points="35.8 502.9 -2.1 521.3 -2.1 524.2 35.8 506.2 35.8 502.9"/><polygon class="cls-7" points="35.8 509.4 -.4 526.7 -.4 530.2 35.8 512 35.8 509.4"/><path class="cls-7" d="m35.8,515.4s-17.9,8.3-23.1,11.4-11.4,6.1-11.4,6.1v3.6s7.5-3.1,12.8-5.8c5.3-2.7,21.7-9.9,21.7-9.9v-5.4h0Z"/><path class="cls-7" d="m35.3,522.7s-19.5,9-24.6,12-10.5,5.2-10.5,5.2v3.5s17.4-6.7,22.4-9.8,13.2-7.2,13.2-7.2l-.5-3.8h0Z"/><polygon class="cls-7" points="35.4 532.3 30.3 533 35.4 535.1 35.4 532.3"/><path class="cls-7" d="m27.6,535.1s-2-.4-2.8.4,11,5.3,11,5.3v-2.2l-8.2-3.5Z"/><path class="cls-7" d="m24.2,537.5s-4.3-1.1-5-.2,16.5,7.4,16.5,7.4v-2.4l-11.6-4.8h0Z"/><path class="cls-7" d="m31.7,547.7s0,0,0,0l-17.1-7.3s-2.9-.2-3.7,1.5l18.3,7.8h0c0,0,6.6,2.8,6.6,2.8v-2.9l-4.1-1.8h0Z"/><path class="cls-7" d="m9.3,542.7s-2.2-.7-2.5,1l28.5,12.6v-1.9l-26-11.6h0Z"/><path class="cls-7" d="m6.3,546.2h-.2s-5.3.5-5.3.5c0,0,16,6.5,18.9,8.6s16.2,8,16.2,8v-2.9s-5.9-1.8-9.6-4.4-5.2-3.5-9.5-5.2-10.4-4.5-10.4-4.5h0Z"/><path class="cls-7" d="m2.4,550s-2.9,1.3-2.8,2.5c.1,1.2-1.4,4.3-.3,3.9s6.3-2.9,5.9-3.8-2.8-2.6-2.8-2.6Z"/><path class="cls-7" d="m11.9,554.9s-1.7-.5-4.4.9-7.8,3.9-8.1,4.4.2,3.1,1.2,2.7,9.2-4.5,10.7-6.2.5-1.9.5-1.9h0Z"/><path class="cls-7" d="m18.2,558.2s-2.8-.2-6.2,1.5c-3.4,1.7-12.3,7-12.3,7v2.6s18.1-8.5,19.3-9.7-.8-1.4-.8-1.4h0Z"/><path class="cls-7" d="m25.4,561.3s-6.5,2-7.9,3.1c-1.4,1.1-17.5,7.6-17.8,8.3s2.1,1.7,2.1,1.7l3.2-.3s20.3-9.2,21-10.6.5-2.5-.7-2.3h0Z"/><path class="cls-7" d="m33.6,565.4s-4.8.4-9.4,2.8c-4.5,2.4-14,6-13.7,6.1s9.1.1,9.1.1c0,0,13.8-6.5,14.5-7.7.7-1.2-.6-1.3-.6-1.3h0Z"/><path class="cls-7" d="m35.3,569.5l-12.3,5.4h6.5l6.5-2.7s.7-3.1-.7-2.7h0Z"/><path class="cls-7" d="m71.9,367.7l-45,1.2s-2.5-2.4,2.6-2.7,43.1-.8,43.1-.8l-.7,2.3h0Z"/><path class="cls-7" d="m71.4,277.5c-.3-.3-2.8-3.2-4.2-2.2-1.4,1-1,4.4,4.2,6.7,5.2,2.3,0-4.5,0-4.5h0Z"/><path class="cls-7" d="m71.7,284.5s-7.1-5.2-9-5.3-2.2,1.5.9,4.1c3.1,2.6,9.5,5.9,9.5,5.9l-1.5-4.8h0Z"/><polygon class="cls-7" points="68.3 288.4 57.3 281.8 55.5 283 65.3 289.4 68.3 288.4"/><polygon class="cls-7" points="57.4 288.6 52.1 284.2 51 285.3 54.9 289.2 58 289.2 57.4 288.6"/><polygon class="cls-7" points="70.5 265.4 51.3 280.9 52.9 281.8 73.4 267.4 70.5 265.4"/><polygon class="cls-7" points="48.4 282.5 40.2 288.9 43.3 288.9 50.3 284 48.4 282.5"/><path class="cls-7" d="m71.2,260.1l-35.5,25.6s-.8,1.7,1.6,1.5l35.8-26-2-1.1h0Z"/><path class="cls-7" d="m61.9,261.6s2.7,0,1.8,2.3l-36.9,25.3h-4.7l39.9-27.6h0Z"/><path class="cls-7" d="m70.5,250.3s-11.6,6.1-17.3,10.6-12.5,10.4-16.6,12.5-21.4,15.8-21.4,15.8h3.4l21.9-15.6s14.3-11.7,20.4-16,11.5-6,11.5-6l-1.9-1.3h0Z"/><path class="cls-7" d="m66.1,248.1s-15.4,9.9-21.6,13.9c-6.2,4-40.1,27.4-40.1,27.4h4.7s29.1-20.5,36.6-25.9c7.5-5.4,22.1-14,22.1-14l-1.7-1.3h0Z"/><polygon class="cls-7" points="60.7 245.6 63.3 247.1 1.4 289.4 -2.1 289.4 60.7 245.6"/><polygon class="cls-7" points="57.2 241.8 59.6 243.7 -1.6 287.5 -1.6 284 57.2 241.8"/><polygon class="cls-7" points="54.1 239 56.3 240.5 -1.6 282.1 -1.6 279.2 54.1 239"/><polygon class="cls-7" points="50.1 236.7 51.6 238.1 -2.1 277.3 -2.1 274 50.1 236.7"/><path class="cls-7" d="m-6.7,275.9c.2,0,.4,0,.6-.2l55.3-39.9c.4-.3.4-.8.1-1.1s-1-.4-1.4,0l-55.3,39.9c-.4.3-.4.8,0,1.1.2.2.5.3.7.3h0Z"/><path class="cls-7" d="m-7.2,272.2c.2,0,.4,0,.6-.2l52.4-38c.4-.3.4-.8.1-1.1-.4-.3-1-.4-1.4,0l-52.4,38c-.4.3-.4.8,0,1.1.2.2.5.3.7.3Z"/><path class="cls-7" d="m-9.9,269.6c.2,0,.4,0,.6-.2l52.8-37.2c.4-.3.5-.8.1-1.1-.3-.3-.9-.4-1.4-.1l-52.8,37.2c-.4.3-.5.8-.1,1.1.2.2.5.3.7.3Z"/><path class="cls-7" d="m-4.1,258.7c.2,0,.4,0,.6-.2l43.1-30.2c.4-.3.5-.8.1-1.1s-.9-.4-1.4-.1l-43.1,30.2c-.4.3-.5.8-.1,1.1s.5.3.7.3Z"/><path class="cls-7" d="m-5.6,254.5c.2,0,.4,0,.6-.2l38.8-27.7c.4-.3.4-.8.1-1.1-.4-.3-1-.4-1.4,0l-38.8,27.7c-.4.3-.4.8,0,1.1.2.2.5.3.7.3Z"/><path class="cls-7" d="m-9.9,251.4c.2,0,.4,0,.6-.2l40.5-26.9c.4-.3.5-.8.1-1.1-.3-.4-.9-.4-1.4-.1l-40.5,26.9c-.4.3-.5.8-.2,1.1.2.2.5.3.8.3h0Z"/><path class="cls-7" d="m-5.6,242.3c.2,0,.4,0,.6-.2l32.4-21.6c.4-.3.5-.8.1-1.1-.3-.4-.9-.4-1.4-.1l-32.4,21.6c-.4.3-.5.8-.2,1.1.2.2.5.3.8.3h0Z"/><path class="cls-7" d="m-12.7,240.6c.2,0,.4,0,.6-.2l31.8-19.8c.4-.3.5-.8.2-1.1-.3-.4-.9-.4-1.3-.2l-31.8,19.8c-.4.3-.5.8-.2,1.1.2.2.5.3.8.3Z"/><path class="cls-7" d="m-10.5,234c.2,0,.4,0,.6-.1l23.8-13.7c.4-.2.6-.8.2-1.1s-.9-.5-1.3-.2l-23.8,13.7c-.4.2-.6.8-.2,1.1.2.2.5.4.8.4h0Z"/><path class="cls-7" d="m72.3,211H29.9v8.1l44.3,32.2-1.9-7.2s-18.1-11.3-23.4-14.7c-5.3-3.4-16.4-10.1-16.4-11.1s3.4-3.1,6.4-.4,24.6,19.4,32.4,23.5,0-5.3,0-5.3c0,0-11-7.6-17.2-10.9s-12.8-7.1-12.5-8.3,3.4-1.8,9.4,2.1c6,3.9,22,16.1,22,16.1l-1.4-4.8s-7.3-5.4-11.9-8.2c-4.6-2.8-9.7-5.8-8.9-6.6s4,.1,7.1,2.4c3.1,2.3,16.8,12.5,16.8,12.5l-2.6-5.9s-14.3-7.9-14.6-9.5c-.2-1.5,2.9-1.9,7,.5,4,2.4,11.4,6.5,11.4,6.5l-4.8-4.5s-7.2-3.8-7.1-4.3,4.4-1.7,8.1.8c3.7,2.5,1.4-2.8.1-3.1h0Z"/><ellipse class="cls-7" cx="24.3" cy="214.9" rx="2.4" ry="1.4"/><ellipse class="cls-7" cx="14.1" cy="216.5" rx="3.4" ry="1.9"/><ellipse class="cls-7" cx="3.4" cy="216.4" rx="3.1" ry="1.6"/><path class="cls-7" d="m-2.1,428.9l2.9.5,6.1-1.6s14.8,2.1,16.4,1.6c1.5-.5,4.1-3,0-2.6-4.1.4-10.5.6-11.2,0s-10.2-.7-10.5-1.1-.4-2.8-.4-2.8c0,0,13.6,1.7,18.1,1.7s6.5-2.1,2.7-2.2-10.3-.9-13.4-1.2-7.3-1-7.3-1v-1.4s1.5.5,9.2,1.4,14.9.7,14-.5c-.9-1.2-6.9-.7-10.8-1s-12.2-1.6-12.2-1.6v-1.5s14,2,18.1,1.8c4.1-.2,5.7-2.8,1.7-2.5s-19.8-1.2-19.8-1.2v-2.8s8.7.3,14.5.9,8.4-2,4.3-2.3-7.9-1.7-10.8-1.7-8,0-8,0v-2s12.2,0,16.5.8,7.4-2.9,3.4-3-19.6.3-19.9-.2-.1-2.4-.1-2.4l22.1.3s2.4-2.5-3-2.5-18.9,0-18.9,0v-2.8s10.4.4,15.7.7,6.9-2.1,3.1-2.6-19,.4-19,.4v-2.5s6-1,10.6-.6c4.6.4,10.7.8,11.2,0s.2-2-4.1-1.9c-4.3.2-6.9-.5-9.7-.5s-8,0-8,0v-2s8.2-.8,12.9,0,9.5,0,8.4-1.3c-1.2-1.3-8.9-.6-10.7-1s-10.8-.3-10.8-.3v-2s9.5-.3,13.7.2c4.2.5,6.7,0,7.2-1.3s-.3-2.3-3.4-1.8c-3.1.5-17,1-17.1.7s0-3.1,0-3.1h1.4s-1-4.9.4-5.4,1.9-.2,1.9.8-.2,4.3.9,4.5,3.2-.6,2.8-1.6,2.2-5.2,2.7-2.8c.4,2.4.8,4.4,2.1,4.2s1.8-1,1.7-2.1,1.4-3.6,1.9-1.6c.5,2,1.2,3.6,2.2,3.3s.4-2.2,1.6-3.5,6.4-1.4,4,.4-2.1,3.2-1,3.3,4.9-1.1,6.7-2.6c1.8-1.5,5.9-3.5,5.5-2s-4.2,3.9-1.3,3.9,4.5-2.4,6.1-3.7,6.3-2.8,4.6-1c-1.7,1.9-3.2,4.1-1.8,4.2s3.9-1.6,5.5-3,6.9-3,4.3-.9-3.7,4.5-.8,4.3,5.1-4.5,7.4-5,4.5-.5,2.8.8c-1.7,1.3-3.9,3-1.9,3.1s3.9.6,5.3-1.2,2.1-2.3,3.6-2.3,0-6.1,0-6.1H-11.9l9.8,63.5h0Z"/><polygon class="cls-7" points="53.2 651.7 55.7 573.9 57 629.5 61.5 573.9 62.5 632.8 67.8 573.9 67.8 651.7 53.2 651.7"/><rect class="cls-9" x="2.6" y="434.4" width="5.7" height="5.1"/><rect class="cls-9" x="11" y="434.4" width="5.7" height="5.1"/><rect class="cls-9" x="2.6" y="442.1" width="5.7" height="5.1"/><rect class="cls-9" x="11" y="442.1" width="5.7" height="5.1"/><rect class="cls-9" x="2.6" y="449.8" width="5.7" height="5.1"/><rect class="cls-9" x="11" y="449.8" width="5.7" height="5.1"/><rect class="cls-9" x="2.6" y="457.5" width="5.7" height="5.1"/><rect class="cls-9" x="11" y="457.5" width="5.7" height="5.1"/><rect class="cls-9" x="2.6" y="465.2" width="5.7" height="5.1"/><rect class="cls-9" x="11" y="465.2" width="5.7" height="5.1"/><rect class="cls-9" x="2.6" y="472.9" width="5.7" height="5.1"/><rect class="cls-9" x="11" y="472.9" width="5.7" height="5.1"/><rect class="cls-9" x="2.6" y="480.6" width="5.7" height="5.1"/><rect class="cls-9" x="11" y="480.6" width="5.7" height="5.1"/><rect class="cls-9" x="2.6" y="488.3" width="5.7" height="5.1"/><rect class="cls-9" x="11" y="488.3" width="5.7" height="5.1"/><rect class="cls-7" x="2.3" y="651.5" width="27.2" height="68.5"/><rect class="cls-9" x="5.8" y="653.7" width="8.2" height="5.5" rx="2.4" ry="2.4"/><rect class="cls-9" x="18" y="653.7" width="8.2" height="5.5" rx="2.4" ry="2.4"/><rect class="cls-9" x="5.8" y="661.9" width="8.2" height="5.5" rx="2.4" ry="2.4"/><rect class="cls-9" x="18" y="661.9" width="8.2" height="5.5" rx="2.4" ry="2.4"/><rect class="cls-9" x="5.8" y="670.1" width="8.2" height="5.5" rx="2.4" ry="2.4"/><rect class="cls-9" x="18" y="670.1" width="8.2" height="5.5" rx="2.4" ry="2.4"/><rect class="cls-9" x="5.8" y="678.2" width="8.2" height="5.5" rx="2.4" ry="2.4"/><rect class="cls-9" x="18" y="678.2" width="8.2" height="5.5" rx="2.4" ry="2.4"/><rect class="cls-9" x="5.8" y="686.4" width="8.2" height="5.5" rx="2.4" ry="2.4"/><rect class="cls-9" x="18" y="686.4" width="8.2" height="5.5" rx="2.4" ry="2.4"/><rect class="cls-9" x="5.8" y="694.6" width="8.2" height="5.5" rx="2.4" ry="2.4"/><rect class="cls-9" x="18" y="694.6" width="8.2" height="5.5" rx="2.4" ry="2.4"/><rect class="cls-9" x="5.8" y="702.8" width="8.2" height="5.5" rx="2.4" ry="2.4"/><rect class="cls-9" x="18" y="702.8" width="8.2" height="5.5" rx="2.4" ry="2.4"/><rect class="cls-9" x="5.8" y="711" width="8.2" height="5.5" rx="2.4" ry="2.4"/><rect class="cls-9" x="18" y="711" width="8.2" height="5.5" rx="2.4" ry="2.4"/></g></g><g class="cls-14"><rect class="cls-3" x="449.4" y="208.1" width="69.8" height="570.6"/><rect class="cls-9" x="449.4" y="208.1" width="69.8" height="570.6"/><g class="cls-13"><rect class="cls-4" x="449.4" y="208.1" width="69.8" height="570.6"/><path class="cls-7" d="m443.7,715h48.6l3.3,5.2h-13.4l3.1-3.9-3.4-.2-5.3,4.1h-4.8l4-4h-3l-4.2,4.4h-4.2l3-4.1h-3.4l-4.5,4.1h-4.2l3-3.6h-3.3l-4.1,3.4h1.3s-1.5,45.7.8,55.7v7.2l-11.4-3.7,2.1-64.6h0Z"/><polygon class="cls-7" points="446.9 776.5 455.1 776.5 455.1 722 460.3 776.5 461.4 721 465.8 775.5 465.8 718.8 470 775.3 471.4 717.8 475.6 775.9 477 716.5 481.1 775.7 482.8 717.1 489.3 775.8 489.3 718.3 495 774.7 495 720.2 500.5 775.3 500.5 717.6 505.1 773.8 505.1 718 510.3 770.6 511.5 719.3 518.4 781.4 444.6 781.4 446.9 776.5"/><polygon class="cls-7" points="446.7 714.3 477.1 708.7 446.7 703.7 485.7 699.3 454.5 694.1 483.6 690.2 446.7 685 488.9 679.4 456.3 673.4 486.7 670.2 458.9 662.8 486.5 657.9 437.4 653.7 440.9 710.9 446.7 714.3"/><polygon class="cls-7" points="465.5 571.9 508.8 581.2 473.2 584 508.2 588.1 477 591.3 513.5 599.3 476.9 602.5 517 608.6 471.8 609.8 518 618.5 477.2 622 513.6 629.1 474.5 632.8 519.3 638.1 479.6 642.2 517.8 651.4 466.5 651.7 465.5 571.9"/><polygon class="cls-7" points="472.8 563.8 441.7 558.7 471.1 554.1 432.6 547.1 467.6 544.3 439.6 539.1 471.1 536 431.5 528.2 467.3 523.5 437.6 517.6 472.2 515 443.5 509.3 473 507.2 431.5 499.7 478.3 491.6 478.3 573.9 474.5 573.9 426.4 568.6 472.8 563.8"/><path class="cls-7" d="m445.3,430.4s46.2,3.6,34.9,5-36.6,3.5-26.4,4.7c10.2,1.2,46.7,4.2,34.6,5.3-12.2,1.1-37.1,2.9-29.2,3.9,8,1,27.3,5,27.3,5l-36.4,3.2s45.4,6.2,42.2,7-31.8,5.7-31.8,5.7c0,0,34.2,4.6,32.6,4.9s-34.5,5.2-34.5,5.2c0,0,41.4,6.6,35.4,7.1-6,.5-57.1,7.3-57.1,7.3l8.2-64.6h0Z"/><path class="cls-7" d="m445.6,315.9s47,5.4,37.4,6.4-31.2,2.6-22.4,3.5,39.8,3.2,29.4,4-31.6,2.2-24.8,3,23.3,3.8,23.3,3.8l-31,2.4s38.6,4.7,35.9,5.3-27,4.3-27,4.3c0,0,29.1,3.5,27.8,3.7s-29.3,3.9-29.3,3.9c0,0,35.2,5,30.1,5.4s-48.5,5.5-48.5,5.5l-.7-51.3h0Z"/><path class="cls-7" d="m444.4,289.2s55.2,4.8,44.8,5.6-31.6,2.2-24.8,3,23.3,3.8,23.3,3.8l-31,2.4s38.6,4.7,35.9,5.3-27,4.3-27,4.3c0,0,29.1,3.5,27.8,3.7s-47.8.6-47.8.6l-1.2-28.6h0Z"/><rect class="cls-7" x="499.3" y="431.1" width="21.6" height="65.7"/><path class="cls-7" d="m447.7,386.3s3.8-10.8,4.2-8.3-1.5,52.5-1.5,52.5l-6.7-1.6,4-42.5h0Z"/><path class="cls-7" d="m451,430.4s2.9-24.6,3.5-32.1c.6-7.5,2.3-21.5,3-18.1s0,50.2,0,50.2h-6.5Z"/><path class="cls-7" d="m459.1,430.4s2.8-53.2,3.4-51.9,1,51.9,1,51.9h-4.4,0Z"/><path class="cls-7" d="m465.2,430.4s2.6-53.5,3.8-51.9c1.2,1.6,0,51.7,0,51.7l-3.8.2h0Z"/><path class="cls-7" d="m470.7,430.4h3.7s1.5-51.2,0-51.4-1.9,3.8-2,7.2-1.6,44.1-1.6,44.1h0Z"/><path class="cls-7" d="m475.7,430.4c0-.4.4-52.5,2.8-52,2.4.5,1.9,10.8,2,15.6s-.6,36.4-.6,36.4h-4.2Z"/><path class="cls-7" d="m481.8,430.4s1.8-22.3.7-33.5c-1.1-11.2-.4-19.2,1.2-17.9,1.6,1.3,2.8,18,2.2,25.4s-1,26.3-1,26.3l-3.1-.3h0Z"/><path class="cls-7" d="m486.5,430.4s2.6-12.6,2.5-22.7-.8-29.1.6-28.1c1.5,1.1.9,22.8,1.1,29.1s-1,22-1,22l-3.3-.3h0Z"/><path class="cls-7" d="m505.6,292.5s-15.8,8.9-16.4,10.2.5,1.9,1.7,1.2,18.2-10,18.5-10,6.5,0,6.5,0c0,0-26.8,14.4-27.2,14.9s0,3.7,0,3.7c0,0,11.7-7.9,17.9-11.5,6.2-3.5,13.9-6.1,14.5-6.2s.3-1.8.3-1.8l-15.9-.4h0Z"/><polygon class="cls-7" points="521.1 297 489.1 315.6 489.1 318.5 521.1 300.3 521.1 297"/><polygon class="cls-7" points="521.1 303.6 490.5 321 490.5 324.6 521.1 306.2 521.1 303.6"/><path class="cls-7" d="m521.1,309.6s-15.1,8.4-19.5,11.6-9.6,6.1-9.6,6.1v3.7s6.3-3.1,10.8-5.9,18.3-10,18.3-10v-5.5h0Z"/><path class="cls-7" d="m520.7,317s-16.5,9-20.7,12.1c-4.2,3.1-8.9,5.2-8.9,5.2v3.6s14.7-6.8,18.9-9.9c4.2-3.1,11.1-7.2,11.1-7.2l-.4-3.8Z"/><polygon class="cls-7" points="520.7 326.7 516.5 327.4 520.7 329.6 520.7 326.7"/><path class="cls-7" d="m514.2,329.6s-1.7-.4-2.3.4,9.3,5.3,9.3,5.3v-2.2l-6.9-3.5h0Z"/><path class="cls-7" d="m511.3,331.9s-3.6-1.1-4.2-.2,14,7.5,14,7.5v-2.4l-9.8-4.9Z"/><path class="cls-7" d="m503.1,334.8s-2.4-.2-3.1,1.5l6,2.8,2.2-1.6-5.2-2.7h0Z"/><path class="cls-7" d="m521.1,344l-3.4-1.8s-2.5.6-2.2,2l5.6,2.8v-3Z"/><path class="cls-7" d="m498.8,337.2s-1.9-.7-2.1,1l24.1,12.7v-1.9l-22-11.8h0Z"/><path class="cls-7" d="m496.2,340.7h-.2s-4.5.5-4.5.5c0,0,13.5,6.6,15.9,8.7,2.4,2.1,13.7,8,13.7,8v-3s-5-1.8-8.1-4.5-4.4-3.5-8-5.3c-3.6-1.8-8.8-4.5-8.8-4.5h0Z"/><path class="cls-7" d="m492.9,344.6s-2.5,1.3-2.3,2.5c.1,1.2-1.2,4.4-.2,3.9s5.3-3,5-3.9-2.4-2.6-2.4-2.6h0Z"/><path class="cls-7" d="m500.9,349.5s-1.4-.5-3.7.9-6.6,3.9-6.8,4.5.1,3.1,1,2.8,7.8-4.6,9-6.2c1.2-1.6.4-1.9.4-1.9h0Z"/><path class="cls-7" d="m506.3,352.9s-2.4-.1-5.2,1.5-10.4,7-10.4,7v2.6s15.3-8.6,16.3-9.8-.7-1.4-.7-1.4h0Z"/><path class="cls-7" d="m512.3,356s-5.5,2-6.6,3.1-14.8,7.7-15,8.4c-.2.7,1.8,1.7,1.8,1.7l2.7-.3s17.1-9.3,17.8-10.7c.6-1.4.5-2.5-.6-2.3h0Z"/><path class="cls-7" d="m519.2,360.2s-4.1.4-7.9,2.8c-3.8,2.4-11.8,6.1-11.5,6.2s7.7.1,7.7.1c0,0,11.7-6.6,12.2-7.8.6-1.2-.5-1.3-.5-1.3h0Z"/><path class="cls-7" d="m520.7,364.3l-10.4,5.4h5.5l5.5-2.7s.6-3.2-.6-2.7h0Z"/><path class="cls-7" d="m501.4,498.4s18.8,8.8,19.4,10.1c.7,1.3-.6,1.9-2,1.2s-21.5-9.9-22-9.9-7.7,0-7.7,0c0,0,31.7,14.2,32.2,14.7s0,3.7,0,3.7c0,0-13.9-7.8-21.2-11.4s-16.5-6.1-17.2-6.1-.4-1.8-.4-1.8l18.9-.4h0Z"/><polygon class="cls-7" points="483 502.9 520.9 521.3 520.9 524.2 483 506.2 483 502.9"/><polygon class="cls-7" points="483 509.4 519.2 526.7 519.2 530.2 483 512 483 509.4"/><path class="cls-7" d="m483,515.4s17.9,8.3,23.1,11.4,11.4,6.1,11.4,6.1v3.6s-7.5-3.1-12.8-5.8-21.7-9.9-21.7-9.9v-5.4h0Z"/><path class="cls-7" d="m483.5,522.7s19.5,9,24.5,12c5,3,10.5,5.2,10.5,5.2v3.5s-17.4-6.7-22.4-9.8c-5-3-13.2-7.2-13.2-7.2l.5-3.8h0Z"/><polygon class="cls-7" points="483.4 532.3 488.4 533 483.4 535.1 483.4 532.3"/><path class="cls-7" d="m491.2,535.1s2-.4,2.8.4c.8.8-11,5.3-11,5.3v-2.2l8.2-3.5h0Z"/><path class="cls-7" d="m494.5,537.5s4.3-1.1,5-.2-16.5,7.4-16.5,7.4v-2.4l11.6-4.8h0Z"/><path class="cls-7" d="m487,547.7s0,0,0,0l17.1-7.3s2.9-.2,3.7,1.5l-18.3,7.8h0c0,0-6.7,2.8-6.7,2.8v-2.9l4.1-1.8h0Z"/><path class="cls-7" d="m509.4,542.7s2.2-.7,2.5,1l-28.5,12.6v-1.9l26-11.6h0Z"/><path class="cls-7" d="m512.5,546.2h.2s5.3.5,5.3.5c0,0-16,6.5-18.9,8.6s-16.2,8-16.2,8v-2.9s5.9-1.8,9.7-4.4c3.7-2.7,5.2-3.5,9.5-5.2s10.4-4.5,10.4-4.5h0Z"/><path class="cls-7" d="m516.4,550s2.9,1.3,2.8,2.5c-.1,1.2,1.4,4.3.3,3.9s-6.3-2.9-5.9-3.8,2.8-2.6,2.8-2.6Z"/><path class="cls-7" d="m506.9,554.9s1.7-.5,4.4.9,7.8,3.9,8,4.4c.2.5-.2,3.1-1.2,2.7s-9.2-4.5-10.7-6.2-.5-1.9-.5-1.9h0Z"/><path class="cls-7" d="m500.5,558.2s2.8-.2,6.2,1.5c3.4,1.7,12.3,7,12.3,7v2.6s-18.1-8.5-19.3-9.7.8-1.4.8-1.4h0Z"/><path class="cls-7" d="m493.4,561.3s6.5,2,7.9,3.1,17.5,7.6,17.8,8.3-2.1,1.7-2.1,1.7l-3.2-.3s-20.3-9.2-21-10.6c-.8-1.4-.5-2.5.7-2.3h0Z"/><path class="cls-7" d="m485.2,565.4s4.8.4,9.3,2.8c4.5,2.4,14,6,13.7,6.1s-9.1.1-9.1.1c0,0-13.8-6.5-14.5-7.7s.6-1.3.6-1.3h0Z"/><path class="cls-7" d="m483.5,569.5l12.3,5.4h-6.5l-6.5-2.7s-.7-3.1.7-2.7h0Z"/><path class="cls-7" d="m446.8,367.7l45,1.2s2.5-2.4-2.6-2.7-43.1-.8-43.1-.8l.7,2.3h0Z"/><path class="cls-7" d="m447.3,277.5c.3-.3,2.8-3.2,4.2-2.2s1,4.4-4.2,6.7,0-4.5,0-4.5h0Z"/><path class="cls-7" d="m447.1,284.5s7-5.2,9-5.3,2.2,1.5-.9,4.1-9.5,5.9-9.5,5.9l1.5-4.8h0Z"/><polygon class="cls-7" points="450.5 288.4 461.4 281.8 463.2 283 453.4 289.4 450.5 288.4"/><polygon class="cls-7" points="461.3 288.6 466.7 284.2 467.8 285.3 463.8 289.2 460.7 289.2 461.3 288.6"/><polygon class="cls-7" points="448.2 265.4 467.4 280.9 465.9 281.8 445.3 267.4 448.2 265.4"/><polygon class="cls-7" points="470.4 282.5 478.5 288.9 475.4 288.9 468.4 284 470.4 282.5"/><path class="cls-7" d="m447.5,260.1l35.5,25.6s.8,1.7-1.6,1.5l-35.8-26,2-1.1h0Z"/><path class="cls-7" d="m456.8,261.6s-2.7,0-1.8,2.3l36.9,25.3h4.7l-39.9-27.6h0Z"/><path class="cls-7" d="m448.3,250.3s11.6,6.1,17.3,10.6c5.7,4.6,12.5,10.4,16.6,12.5s21.4,15.8,21.4,15.8h-3.4l-21.9-15.6s-14.3-11.7-20.3-16c-6-4.2-11.5-6-11.5-6l1.9-1.3h0Z"/><path class="cls-7" d="m452.6,248.1s15.4,9.9,21.6,13.9c6.2,4,40.1,27.4,40.1,27.4h-4.7s-29.1-20.5-36.6-25.9c-7.5-5.4-22.1-14-22.1-14l1.7-1.3Z"/><polygon class="cls-7" points="458 245.6 455.5 247.1 517.4 289.4 520.9 289.4 458 245.6"/><polygon class="cls-7" points="461.6 241.8 459.2 243.7 520.4 287.5 520.4 284 461.6 241.8"/><polygon class="cls-7" points="464.6 239 462.5 240.5 520.4 282.1 520.4 279.2 464.6 239"/><polygon class="cls-7" points="468.7 236.7 467.1 238.1 520.9 277.3 520.9 274 468.7 236.7"/><path class="cls-7" d="m525.4,275.9c-.2,0-.5,0-.6-.2l-55.3-39.9c-.4-.3-.5-.8,0-1.1s1-.4,1.4,0l55.3,39.9c.4.3.5.8,0,1.1-.2.2-.5.3-.7.3Z"/><path class="cls-7" d="m525.9,272.2c-.2,0-.5,0-.6-.2l-52.5-38c-.4-.3-.5-.8,0-1.1.3-.3,1-.4,1.4,0l52.5,38c.4.3.5.8,0,1.1-.2.2-.5.3-.7.3Z"/><path class="cls-7" d="m528.6,269.6c-.2,0-.4,0-.6-.2l-52.8-37.2c-.4-.3-.5-.8-.1-1.1.3-.3,1-.4,1.4-.1l52.8,37.2c.4.3.5.8.1,1.1-.2.2-.5.3-.7.3Z"/><path class="cls-7" d="m522.9,258.7c-.2,0-.4,0-.6-.2l-43.1-30.2c-.4-.3-.5-.8-.1-1.1s1-.4,1.4-.1l43.1,30.2c.4.3.5.8.1,1.1-.2.2-.5.3-.7.3Z"/><path class="cls-7" d="m524.3,254.5c-.2,0-.5,0-.6-.2l-38.8-27.7c-.4-.3-.5-.8,0-1.1.3-.3,1-.4,1.4,0l38.8,27.7c.4.3.5.8,0,1.1-.2.2-.5.3-.7.3Z"/><path class="cls-7" d="m528.6,251.4c-.2,0-.4,0-.6-.2l-40.5-26.9c-.4-.3-.5-.8-.2-1.1.3-.4.9-.4,1.3-.1l40.5,26.9c.4.3.5.8.2,1.1-.2.2-.5.3-.8.3h0Z"/><path class="cls-7" d="m524.3,242.3c-.2,0-.4,0-.6-.2l-32.4-21.6c-.4-.3-.5-.8-.2-1.1.3-.4.9-.4,1.3-.1l32.4,21.6c.4.3.5.8.2,1.1-.2.2-.5.3-.8.3h0Z"/><path class="cls-7" d="m531.5,240.6c-.2,0-.4,0-.6-.2l-31.8-19.8c-.4-.3-.5-.8-.2-1.1.3-.4.9-.4,1.3-.2l31.8,19.8c.4.3.5.8.2,1.1-.2.2-.5.3-.8.3h0Z"/><path class="cls-7" d="m529.2,234c-.2,0-.4,0-.5-.1l-23.8-13.7c-.4-.2-.5-.8-.2-1.1s.9-.5,1.3-.2l23.8,13.7c.4.2.5.8.2,1.1-.2.2-.5.4-.8.4h0Z"/><path class="cls-7" d="m446.5,211h42.3v8.1l-44.3,32.2,1.9-7.2s18.1-11.3,23.4-14.7,16.4-10.1,16.4-11.1-3.5-3.1-6.4-.4-24.6,19.4-32.4,23.5c-7.8,4.1,0-5.3,0-5.3,0,0,11-7.6,17.2-10.9,6.2-3.3,12.8-7.1,12.5-8.3s-3.4-1.8-9.4,2.1c-6,3.9-22,16.1-22,16.1l1.5-4.8s7.3-5.4,11.9-8.2,9.7-5.8,8.9-6.6-4,.1-7,2.4c-3.1,2.3-16.8,12.5-16.8,12.5l2.6-5.9s14.3-7.9,14.6-9.5-3-1.9-7,.5c-4,2.4-11.4,6.5-11.4,6.5l4.8-4.5s7.2-3.8,7.1-4.3-4.4-1.7-8.1.8-1.5-2.8-.1-3.1h0Z"/><ellipse class="cls-7" cx="494.4" cy="214.9" rx="2.3" ry="1.4"/><ellipse class="cls-7" cx="504.7" cy="216.5" rx="3.4" ry="1.9"/><ellipse class="cls-7" cx="515.4" cy="216.4" rx="3.1" ry="1.6"/><path class="cls-7" d="m520.9,428.9l-2.9.5-6.1-1.6s-14.8,2.1-16.4,1.6-4.1-3,0-2.6c4.1.4,10.5.6,11.2,0s10.2-.7,10.5-1.1.4-2.8.4-2.8c0,0-13.6,1.7-18.1,1.7s-6.5-2.1-2.7-2.2c3.8,0,10.3-.9,13.5-1.2s7.3-1,7.3-1v-1.4s-1.5.5-9.2,1.4c-7.7.9-14.9.7-14-.5.9-1.2,7-.7,10.8-1s12.2-1.6,12.2-1.6v-1.5s-14,2-18.1,1.8c-4.1-.2-5.7-2.8-1.7-2.5s19.8-1.2,19.8-1.2v-2.8s-8.7.3-14.5.9-8.3-2-4.3-2.3,8-1.7,10.8-1.7,8,0,8,0v-2s-12.2,0-16.5.8-7.4-2.9-3.4-3,19.6.3,19.9-.2.1-2.4.1-2.4l-22.1.3s-2.4-2.5,3-2.5,18.9,0,18.9,0v-2.8s-10.4.4-15.7.7-7-2.1-3.1-2.6,19,.4,19,.4v-2.5s-6-1-10.6-.6c-4.6.4-10.7.8-11.2,0s-.2-2,4.1-1.9c4.3.2,6.9-.5,9.7-.5s8,0,8,0v-2s-8.2-.8-12.9,0-9.5,0-8.3-1.3c1.2-1.3,8.9-.6,10.7-1s10.8-.3,10.8-.3v-2s-9.5-.3-13.7.2-6.7,0-7.2-1.3.3-2.3,3.4-1.8c3.1.5,17,1,17.1.7s0-3.1,0-3.1h-1.4s1-4.9-.4-5.4-1.9-.2-1.9.8.2,4.3-.9,4.5-3.2-.6-2.8-1.6-2.2-5.2-2.7-2.8-.8,4.4-2.1,4.2-1.8-1-1.7-2.1-1.5-3.6-1.9-1.6c-.5,2-1.2,3.6-2.2,3.3s-.4-2.2-1.6-3.5-6.4-1.4-4,.4c2.4,1.7,2.1,3.2,1,3.3s-4.9-1.1-6.7-2.6c-1.8-1.5-5.9-3.5-5.5-2,.4,1.5,4.2,3.9,1.3,3.9s-4.5-2.4-6.1-3.7-6.3-2.8-4.6-1c1.7,1.9,3.2,4.1,1.8,4.2s-3.8-1.6-5.5-3-6.9-3-4.3-.9,3.7,4.5.8,4.3c-2.9-.2-5.1-4.5-7.3-5s-4.5-.5-2.8.8c1.7,1.3,4,3,2,3.1s-3.9.6-5.3-1.2-2-2.3-3.5-2.3,0-6.1,0-6.1h81.8l-9.8,63.5h0Z"/><polygon class="cls-7" points="465.5 651.7 463 573.9 461.7 629.5 457.3 573.9 456.2 632.8 450.9 573.9 450.9 651.7 465.5 651.7"/><rect class="cls-9" x="510.4" y="434.4" width="5.7" height="5.1"/><rect class="cls-9" x="502" y="434.4" width="5.7" height="5.1"/><rect class="cls-9" x="510.4" y="442.1" width="5.7" height="5.1"/><rect class="cls-9" x="502" y="442.1" width="5.7" height="5.1"/><rect class="cls-9" x="510.4" y="449.8" width="5.7" height="5.1"/><rect class="cls-9" x="502" y="449.8" width="5.7" height="5.1"/><rect class="cls-9" x="510.4" y="457.5" width="5.7" height="5.1"/><rect class="cls-9" x="502" y="457.5" width="5.7" height="5.1"/><rect class="cls-9" x="510.4" y="465.2" width="5.7" height="5.1"/><rect class="cls-9" x="502" y="465.2" width="5.7" height="5.1"/><rect class="cls-9" x="510.4" y="472.9" width="5.7" height="5.1"/><rect class="cls-9" x="502" y="472.9" width="5.7" height="5.1"/><rect class="cls-9" x="510.4" y="480.6" width="5.7" height="5.1"/><rect class="cls-9" x="502" y="480.6" width="5.7" height="5.1"/><rect class="cls-9" x="510.4" y="488.3" width="5.7" height="5.1"/><rect class="cls-9" x="502" y="488.3" width="5.7" height="5.1"/><rect class="cls-7" x="489.2" y="651.5" width="27.2" height="68.5"/><rect class="cls-9" x="504.7" y="653.7" width="8.2" height="5.5" rx="2.4" ry="2.4"/><rect class="cls-9" x="492.6" y="653.7" width="8.2" height="5.5" rx="2.4" ry="2.4"/><rect class="cls-9" x="504.7" y="661.9" width="8.2" height="5.5" rx="2.4" ry="2.4"/><rect class="cls-9" x="492.6" y="661.9" width="8.2" height="5.5" rx="2.4" ry="2.4"/><rect class="cls-9" x="504.7" y="670" width="8.2" height="5.5" rx="2.4" ry="2.4"/><rect class="cls-9" x="492.6" y="670" width="8.2" height="5.5" rx="2.4" ry="2.4"/><rect class="cls-9" x="504.7" y="678.2" width="8.2" height="5.5" rx="2.4" ry="2.4"/><rect class="cls-9" x="492.6" y="678.2" width="8.2" height="5.5" rx="2.4" ry="2.4"/><rect class="cls-9" x="504.7" y="686.4" width="8.2" height="5.5" rx="2.4" ry="2.4"/><rect class="cls-9" x="492.6" y="686.4" width="8.2" height="5.5" rx="2.4" ry="2.4"/><rect class="cls-9" x="504.7" y="694.6" width="8.2" height="5.5" rx="2.4" ry="2.4"/><rect class="cls-9" x="492.6" y="694.6" width="8.2" height="5.5" rx="2.4" ry="2.4"/><rect class="cls-9" x="504.7" y="702.8" width="8.2" height="5.5" rx="2.4" ry="2.4"/><rect class="cls-9" x="492.6" y="702.8" width="8.2" height="5.5" rx="2.4" ry="2.4"/><rect class="cls-9" x="504.7" y="711" width="8.2" height="5.5" rx="2.4" ry="2.4"/><rect class="cls-9" x="492.6" y="711" width="8.2" height="5.5" rx="2.4" ry="2.4"/></g></g><path class="cls-11" d="m184.8,43.9s1.7,111.4,68.2,121.2,83.1-110.8,82.5-122.3c0,0-67.6,42.2-150.7,1.1h0Z"/><path class="cls-8" d="m335.3,35.8l-3.7-1.2-4.9-1.6c-2.1,7.9-9,20.4-30.6,20.4h-74c-21.7,0-28.5-12.5-30.6-20.4l-4.9,1.6-3.7,1.2-5,1.6c.9,3.2,2.3,6.8,4.5,10.5,5.5,9.3,16.8,20.3,39.7,20.3h74c22.9,0,34.2-11.1,39.7-20.3,2.2-3.7,3.6-7.3,4.5-10.5,0,0-5-1.6-5-1.6Z"/><path class="cls-7" d="m335.3,35.8l-3.7-1.2-4.9-1.6c-2.1,7.9-9,20.4-30.6,20.4h-74c-21.7,0-28.5-12.5-30.6-20.4l-4.9,1.6-3.7,1.2-5,1.6c.9,3.2,2.3,6.8,4.5,10.5,5.5,9.3,16.8,20.3,39.7,20.3h74c22.9,0,34.2-11.1,39.7-20.3,2.2-3.7,3.6-7.3,4.5-10.5,0,0-5-1.6-5-1.6Z"/><path class="cls-9" d="m335.6,35.4c-.3,31.2-4.2,57.2-11.7,77.5-12.9,34.7-35.8,52.3-68,52.3s-29.3-5.9-40.3-17.6c-17.6-18.6-25.7-48.9-29.4-71.1-3-18.1-3.7-33.9-3.8-40.5l-5,1.7c.5,18.4,4.3,81.5,34.7,113.6,12,12.7,26.8,19.2,43.9,19.2s34.5-5.6,47.3-16.7c10.7-9.2,19.3-22.4,25.4-39,7.6-20.5,11.6-46.6,12.1-77.7l-5.1-1.8h0Z"/><path class="cls-7" d="m218.3,144.6c10.3,10.9,22.9,16.4,37.5,16.4,61.9,0,75.5-68.5,75.9-127l-5.1-1.8c0,31.4-3.8,57.4-11.1,77.2-11.5,31.1-31.1,46.3-59.7,46.3s-24.5-4.9-33.9-14.8c-30-31.6-30.7-102.7-30.7-107.9l-5.1,1.7c.2,12.4,2.7,78.8,32.2,110h0Z"/><path class="cls-7" d="m255.9,161c-14.6,0-27.2-5.5-37.5-16.4-29.5-31.2-32-97.6-32.2-110l-3.9,1.3c.1,6.6.8,22.4,3.8,40.5,3.7,22.1,11.8,52.4,29.4,71.1,11,11.7,24.6,17.6,40.3,17.6,32.3,0,55.2-17.6,68-52.3,7.5-20.2,11.4-46.3,11.7-77.5l-3.9-1.4c-.3,58.5-14,127-75.9,127h0Z"/><path class="cls-7" d="m121.7,216.7c22.1-31.7,23.6-76.2,21-108-2-24.8-6.8-45.9-9.4-55.9l-4.8,1.8c6.1,24,24.1,108.8-10.9,159-16.7,23.9-43.6,36.9-80.1,38.6v5.3c38.2-1.8,66.5-15.5,84.2-40.8h0Z"/><path class="cls-9" d="m151.7,107.9c-2.1-26.3-7.2-48.1-9.8-58.3l-4.8,1.8c2.6,10.1,7.5,31.6,9.6,56.9,2.7,32.5,1,78.1-21.8,110.8-18.4,26.4-47.8,40.7-87.4,42.5v5.3c41.3-1.8,72-16.8,91.5-44.7,19.1-27.3,26.7-65.8,22.7-114.4h0Z"/><path class="cls-7" d="m124.8,219.1c22.8-32.7,24.4-78.3,21.8-110.8-2.1-25.3-7-46.8-9.6-56.9l-3.7,1.4c2.6,10.1,7.4,31.1,9.4,55.9,2.6,31.8,1.1,76.4-21,108-17.7,25.3-46,39-84.2,40.8v4.1c39.6-1.8,68.9-16.1,87.4-42.5h0Z"/><path class="cls-7" d="m397.1,216.7c-22.1-31.7-23.6-76.2-21-108,2-24.8,6.8-45.9,9.4-55.9l4.8,1.8c-6.1,24-24.1,108.8,10.9,159,16.7,23.9,43.6,36.9,80.1,38.6v5.3c-38.2-1.8-66.5-15.5-84.2-40.8h0Z"/><path class="cls-9" d="m367.1,107.9c2.1-26.3,7.2-48.1,9.8-58.3l4.8,1.8c-2.6,10.1-7.5,31.6-9.6,56.9-2.7,32.5-1,78.1,21.8,110.8,18.4,26.4,47.8,40.7,87.4,42.5v5.3c-41.3-1.8-72-16.8-91.5-44.7-19.1-27.3-26.7-65.8-22.7-114.4h0Z"/><path class="cls-7" d="m393.9,219.1c-22.8-32.7-24.4-78.3-21.8-110.8,2.1-25.3,7-46.8,9.6-56.9l3.7,1.4c-2.6,10.1-7.4,31.1-9.4,55.9-2.6,31.8-1.1,76.4,21,108,17.7,25.3,46,39,84.2,40.8v4.1c-39.6-1.8-68.9-16.1-87.4-42.5h0Z"/><path class="cls-8" d="m286,379.5c-2.2,3.1-5.1,5.2-8.6,6.5,3.5,1.2,6.4,3.3,8.6,6.4,2.2,3.1,3.4,6.6,3.4,10.5v26.5c0,5-1.8,9.2-5.3,12.7-3.5,3.5-7.7,5.2-12.6,5.2h-24.3c-5,0-9.2-1.7-12.7-5.2-3.5-3.5-5.2-7.7-5.2-12.7l-.3-17.6h20.3v17.6h19.3v-34h-16.4v-17.9h16.4v-29.6h-19.3v11.7h-20v-11.7c0-5,1.7-9.2,5.2-12.7s7.7-5.2,12.7-5.2h24.3c4.9,0,9.1,1.7,12.6,5.2,3.5,3.5,5.3,7.7,5.3,12.7v21.2c0,3.8-1.1,7.2-3.4,10.3h0Z"/><path class="cls-1" d="m286,379.5c-2.2,3.1-5.1,5.2-8.6,6.5,3.5,1.2,6.4,3.3,8.6,6.4,2.2,3.1,3.4,6.6,3.4,10.5v26.5c0,5-1.8,9.2-5.3,12.7-3.5,3.5-7.7,5.2-12.6,5.2h-24.3c-5,0-9.2-1.7-12.7-5.2-3.5-3.5-5.2-7.7-5.2-12.7l-.3-17.6h20.3v17.6h19.3v-34h-16.4v-17.9h16.4v-29.6h-19.3v11.7h-20v-11.7c0-5,1.7-9.2,5.2-12.7s7.7-5.2,12.7-5.2h24.3c4.9,0,9.1,1.7,12.6,5.2,3.5,3.5,5.3,7.7,5.3,12.7v21.2c0,3.8-1.1,7.2-3.4,10.3h0Z"/><path class="cls-9" d="m286,379.5c-2.2,3.1-5.1,5.2-8.6,6.5,3.5,1.2,6.4,3.3,8.6,6.4,2.2,3.1,3.4,6.6,3.4,10.5v26.5c0,5-1.8,9.2-5.3,12.7-3.5,3.5-7.7,5.2-12.6,5.2h-24.3c-5,0-9.2-1.7-12.7-5.2-3.5-3.5-5.2-7.7-5.2-12.7l-.3-17.6h20.3v17.6h19.3v-34h-16.4v-17.9h16.4v-29.6h-19.3v11.7h-20v-11.7c0-5,1.7-9.2,5.2-12.7s7.7-5.2,12.7-5.2h24.3c4.9,0,9.1,1.7,12.6,5.2,3.5,3.5,5.3,7.7,5.3,12.7v21.2c0,3.8-1.1,7.2-3.4,10.3h0Z"/><path class="cls-8" d="m145.7,254c6.5-2.1,13.1-4,19.7-5.8,7.7-2,11.6.7,11.6,7.7v15.1c0,5.4-2,9.2-6,11.6,2.4,8,4.7,15.9,7.1,23.9-3.2.7-6.4,1.5-9.6,2.3-2.2-7.7-4.4-15.4-6.6-23.1-2,.6-4.1,1.1-6.1,1.7v24.8c-3.4,1-6.7,2-10,3.1v-61.4h0Zm10,26.5c2.2-.6,4.4-1.3,6.6-1.9,3-.8,4.5-2.7,4.5-5.6v-13.3c0-3-1.5-4.1-4.5-3.2-2.2.6-4.4,1.2-6.6,1.9v22.2Z"/><path class="cls-8" d="m185.5,304.9v-61.4c3.4-.7,6.8-1.3,10.2-1.9v61.4c-3.4.6-6.8,1.2-10.2,1.9Z"/><path class="cls-8" d="m225.1,254.3v-5.4c0-2.5-1.5-3.5-4.5-3.2-.5,0-1.1.1-1.6.2-2.9.3-4.4,1.7-4.4,4.2v10.2c0,1.1.3,1.9.9,2.2.6.3,1.5.7,2.8,1.2,3.3,1,6.5,2.1,9.8,3.3,2.2.8,3.7,1.5,4.6,1.9.9.5,1.6,1.1,2.1,1.8s.8,2.2.8,4.4v13.1c0,6.9-4.2,10.5-12.5,11.3-2.1.2-4.2.4-6.4.7-8.2.9-12.3-2.1-12.4-9.7v-3.1c3.4-.5,6.9-1,10.3-1.4v3.3c0,2.4,1.5,3.4,4.6,3.1.6,0,1.2-.1,1.8-.2,2.7-.3,4.1-1.6,4.1-4v-10.4c0-1.1-.3-1.9-.9-2.2-.6-.4-1.5-.8-2.8-1.3-3.3-1.1-6.5-2.2-9.8-3.3-2.1-.6-3.7-1.2-4.7-1.7-1-.5-1.7-1.2-2.1-2.1-.4-.9-.6-2.2-.6-3.8v-12.6c0-7,4.1-11.2,12.4-12.1,2.1-.2,4.3-.5,6.5-.7,8.3-.8,12.4,2.6,12.4,9.6v6c-3.5.2-6.9.5-10.4.8h0Z"/><path class="cls-8" d="m244.1,298v-61.4c8.6-.3,17.1-.3,25.7,0v7.5c-5.1-.2-10.2-.3-15.3-.2v18.7c4.5,0,9.1,0,13.6.2v7.4c-4.5-.1-9.1-.2-13.6-.2v20.5c5.1,0,10.2,0,15.3.2v7.5c-8.6-.3-17.1-.3-25.7,0h0Z"/><path class="cls-8" d="m327.9,243.4v49.8c0,7.8-4.1,10.8-12.4,9.4-2.9-.5-5.8-.9-8.7-1.3-8.2-1.1-12.4-5.4-12.4-13.2v-49.7c3.4.4,6.9.8,10.3,1.2v50c0,2.7,1.5,4.2,4.5,4.7,1.4.2,2.8.4,4.2.6,2.8.5,4.2-.6,4.2-3.3v-50c3.4.6,6.8,1.2,10.2,1.9h0Z"/><path class="cls-8" d="m337.5,245.5c6.2,1.4,12.3,3,18.5,4.8,8.1,2.3,12.1,7.2,12.1,14.2v18.2c0,7-4,9.1-12,6.8-2.8-.8-5.6-1.6-8.4-2.3v22.2c-3.4-.9-6.8-1.7-10.1-2.5v-61.4h0Zm10.1,34.2c2.1.6,4.3,1.1,6.4,1.7,2.7.8,4,0,4-2.5v-17.1c0-2.4-1.5-4-4.5-4.9-2-.5-3.9-1.1-5.9-1.6v24.3h0Z"/><path class="cls-5" d="m145.7,254c6.5-2.1,13.1-4,19.7-5.8,7.7-2,11.6.7,11.6,7.7v15.1c0,5.4-2,9.2-6,11.6,2.4,8,4.7,15.9,7.1,23.9-3.2.7-6.4,1.5-9.6,2.3-2.2-7.7-4.4-15.4-6.6-23.1-2,.6-4.1,1.1-6.1,1.7v24.8c-3.4,1-6.7,2-10,3.1v-61.4h0Zm10,26.5c2.2-.6,4.4-1.3,6.6-1.9,3-.8,4.5-2.7,4.5-5.6v-13.3c0-3-1.5-4.1-4.5-3.2-2.2.6-4.4,1.2-6.6,1.9v22.2Z"/><path class="cls-5" d="m185.5,304.9v-61.4c3.4-.7,6.8-1.3,10.2-1.9v61.4c-3.4.6-6.8,1.2-10.2,1.9Z"/><path class="cls-5" d="m225.1,254.3v-5.4c0-2.5-1.5-3.5-4.5-3.2-.5,0-1.1.1-1.6.2-2.9.3-4.4,1.7-4.4,4.2v10.2c0,1.1.3,1.9.9,2.2.6.3,1.5.7,2.8,1.2,3.3,1,6.5,2.1,9.8,3.3,2.2.8,3.7,1.5,4.6,1.9.9.5,1.6,1.1,2.1,1.8s.8,2.2.8,4.4v13.1c0,6.9-4.2,10.5-12.5,11.3-2.1.2-4.2.4-6.4.7-8.2.9-12.3-2.1-12.4-9.7v-3.1c3.4-.5,6.9-1,10.3-1.4v3.3c0,2.4,1.5,3.4,4.6,3.1.6,0,1.2-.1,1.8-.2,2.7-.3,4.1-1.6,4.1-4v-10.4c0-1.1-.3-1.9-.9-2.2-.6-.4-1.5-.8-2.8-1.3-3.3-1.1-6.5-2.2-9.8-3.3-2.1-.6-3.7-1.2-4.7-1.7-1-.5-1.7-1.2-2.1-2.1-.4-.9-.6-2.2-.6-3.8v-12.6c0-7,4.1-11.2,12.4-12.1,2.1-.2,4.3-.5,6.5-.7,8.3-.8,12.4,2.6,12.4,9.6v6c-3.5.2-6.9.5-10.4.8h0Z"/><path class="cls-5" d="m244.1,298v-61.4c8.6-.3,17.1-.3,25.7,0v7.5c-5.1-.2-10.2-.3-15.3-.2v18.7c4.5,0,9.1,0,13.6.2v7.4c-4.5-.1-9.1-.2-13.6-.2v20.5c5.1,0,10.2,0,15.3.2v7.5c-8.6-.3-17.1-.3-25.7,0h0Z"/><path class="cls-5" d="m327.9,243.4v49.8c0,7.8-4.1,10.8-12.4,9.4-2.9-.5-5.8-.9-8.7-1.3-8.2-1.1-12.4-5.4-12.4-13.2v-49.7c3.4.4,6.9.8,10.3,1.2v50c0,2.7,1.5,4.2,4.5,4.7,1.4.2,2.8.4,4.2.6,2.8.5,4.2-.6,4.2-3.3v-50c3.4.6,6.8,1.2,10.2,1.9h0Z"/><path class="cls-5" d="m337.5,245.5c6.2,1.4,12.3,3,18.5,4.8,8.1,2.3,12.1,7.2,12.1,14.2v18.2c0,7-4,9.1-12,6.8-2.8-.8-5.6-1.6-8.4-2.3v22.2c-3.4-.9-6.8-1.7-10.1-2.5v-61.4h0Zm10.1,34.2c2.1.6,4.3,1.1,6.4,1.7,2.7.8,4,0,4-2.5v-17.1c0-2.4-1.5-4-4.5-4.9-2-.5-3.9-1.1-5.9-1.6v24.3h0Z"/><path class="cls-9" d="m145.7,254c6.5-2.1,13.1-4,19.7-5.8,7.7-2,11.6.7,11.6,7.7v15.1c0,5.4-2,9.2-6,11.6,2.4,8,4.7,15.9,7.1,23.9-3.2.7-6.4,1.5-9.6,2.3-2.2-7.7-4.4-15.4-6.6-23.1-2,.6-4.1,1.1-6.1,1.7v24.8c-3.4,1-6.7,2-10,3.1v-61.4h0Zm10,26.5c2.2-.6,4.4-1.3,6.6-1.9,3-.8,4.5-2.7,4.5-5.6v-13.3c0-3-1.5-4.1-4.5-3.2-2.2.6-4.4,1.2-6.6,1.9v22.2Z"/><path class="cls-9" d="m185.5,304.9v-61.4c3.4-.7,6.8-1.3,10.2-1.9v61.4c-3.4.6-6.8,1.2-10.2,1.9Z"/><path class="cls-9" d="m225.1,254.3v-5.4c0-2.5-1.5-3.5-4.5-3.2-.5,0-1.1.1-1.6.2-2.9.3-4.4,1.7-4.4,4.2v10.2c0,1.1.3,1.9.9,2.2.6.3,1.5.7,2.8,1.2,3.3,1,6.5,2.1,9.8,3.3,2.2.8,3.7,1.5,4.6,1.9.9.5,1.6,1.1,2.1,1.8s.8,2.2.8,4.4v13.1c0,6.9-4.2,10.5-12.5,11.3-2.1.2-4.2.4-6.4.7-8.2.9-12.3-2.1-12.4-9.7v-3.1c3.4-.5,6.9-1,10.3-1.4v3.3c0,2.4,1.5,3.4,4.6,3.1.6,0,1.2-.1,1.8-.2,2.7-.3,4.1-1.6,4.1-4v-10.4c0-1.1-.3-1.9-.9-2.2-.6-.4-1.5-.8-2.8-1.3-3.3-1.1-6.5-2.2-9.8-3.3-2.1-.6-3.7-1.2-4.7-1.7-1-.5-1.7-1.2-2.1-2.1-.4-.9-.6-2.2-.6-3.8v-12.6c0-7,4.1-11.2,12.4-12.1,2.1-.2,4.3-.5,6.5-.7,8.3-.8,12.4,2.6,12.4,9.6v6c-3.5.2-6.9.5-10.4.8h0Z"/><path class="cls-9" d="m244.1,298v-61.4c8.6-.3,17.1-.3,25.7,0v7.5c-5.1-.2-10.2-.3-15.3-.2v18.7c4.5,0,9.1,0,13.6.2v7.4c-4.5-.1-9.1-.2-13.6-.2v20.5c5.1,0,10.2,0,15.3.2v7.5c-8.6-.3-17.1-.3-25.7,0h0Z"/><path class="cls-9" d="m327.9,243.4v49.8c0,7.8-4.1,10.8-12.4,9.4-2.9-.5-5.8-.9-8.7-1.3-8.2-1.1-12.4-5.4-12.4-13.2v-49.7c3.4.4,6.9.8,10.3,1.2v50c0,2.7,1.5,4.2,4.5,4.7,1.4.2,2.8.4,4.2.6,2.8.5,4.2-.6,4.2-3.3v-50c3.4.6,6.8,1.2,10.2,1.9h0Z"/><path class="cls-9" d="m337.5,245.5c6.2,1.4,12.3,3,18.5,4.8,8.1,2.3,12.1,7.2,12.1,14.2v18.2c0,7-4,9.1-12,6.8-2.8-.8-5.6-1.6-8.4-2.3v22.2c-3.4-.9-6.8-1.7-10.1-2.5v-61.4h0Zm10.1,34.2c2.1.6,4.3,1.1,6.4,1.7,2.7.8,4,0,4-2.5v-17.1c0-2.4-1.5-4-4.5-4.9-2-.5-3.9-1.1-5.9-1.6v24.3h0Z"/><path class="cls-9" d="m309.2,196.9c.5,1.5,1,3,1.4,4.6h-3.2c-.4-1.4-.9-2.8-1.3-4.2h-1c-.2,1.4-.4,2.8-.6,4.2h-3.1c.7-3.8,1.3-7.6,2-11.4h4.7c.5,0,1.1,0,1.6.2.7.2,1.2.7,1.4,1.5,0,.3.1.7,0,1-.1.6-.2,1.3-.4,1.9-.1.7-.5,1.2-1,1.7-.2.2-.4.3-.6.5h0,0Zm-3.8-1.6s0,0,0,0c.5,0,1,0,1.5,0,.6,0,.9-.4,1.1-.9,0-.4,0-.7,0-1.1-.1-.5-.4-.7-.9-.7h-1.2s0,0-.1,0c-.1.9-.3,1.8-.4,2.7h0Z"/><path class="cls-9" d="m316.3,197.8h2.8c0,.1,0,.2,0,.3,0,.6.2,1,.8,1.2.5.1,1.1.1,1.6,0,0,0,.1,0,.2,0,.6-.3.6-1,.3-1.3-.1-.1-.2-.2-.4-.3-.4-.3-.9-.4-1.3-.5-.5-.2-1-.3-1.5-.5-.5-.2-.9-.5-1.2-.8-.5-.5-.6-1.1-.6-1.7s0-1,.2-1.5c.3-1,1-1.6,2-2,.5-.2,1.1-.4,1.7-.4.7,0,1.3-.1,2,0,.6,0,1.2.2,1.7.5.7.4,1.1.9,1.3,1.6.1.8,0,1.5-.4,2.1,0,0,0,0,0,0h-2.8c0,0,0-.1.1-.2.2-.3.3-.7.2-1,0-.3-.2-.5-.5-.6-.2-.1-.5-.1-.8-.1s-.6,0-.9.1c-.1,0-.2,0-.3.1-.6.3-.7,1.1-.1,1.6.3.3.7.4,1.1.5.5.2,1.1.3,1.6.5.5.1.9.4,1.3.7.5.5.8,1.1.8,1.8,0,.6,0,1.2-.3,1.9-.4,1-1,1.6-2,1.9-.6.2-1.2.3-1.9.4-.6,0-1.1,0-1.7,0-.6,0-1.1-.1-1.7-.4-.9-.4-1.4-1-1.5-2,0-.5,0-1,.1-1.5,0,0,0,0,0,0h0s0,0,0,0Z"/><path class="cls-9" d="m325.6,201.5c.7-3.8,1.3-7.6,2-11.4h8c-.1.8-.3,1.6-.4,2.5h-5.1c-.1.7-.2,1.4-.4,2.1h4.2c-.1.8-.3,1.7-.4,2.5h-4.2c-.1.6-.2,1.2-.3,1.9h5.1c-.1.8-.3,1.6-.4,2.5h-8Z"/><path class="cls-9" d="m336.9,190.1h2.9c0,.4-.1.7-.2,1-.2,1.2-.4,2.4-.6,3.5-.1.9-.3,1.7-.5,2.6,0,.3,0,.6,0,.9,0,.6.3,1,.9,1.1.4,0,.7,0,1.1,0,.4-.1.7-.4.9-.8.2-.4.3-.8.4-1.2.2-1.3.5-2.7.7-4,.2-1,.3-1.9.5-2.8,0,0,0-.1,0-.2h2.5c-.6.9-1.1,1.7-1.7,2.6.5,0,1,.1,1.5.2,0,0,0,.1,0,.2-.3,1.5-.5,3.1-.8,4.6-.1.5-.3,1.1-.5,1.6-.6,1.2-1.5,1.9-2.7,2.3-.8.2-1.7.3-2.5.2-.5,0-1-.1-1.5-.3-1-.4-1.6-1.1-1.7-2.2,0-.6,0-1.3.1-1.9.2-1.2.4-2.4.6-3.6.2-1.2.4-2.3.6-3.5,0,0,0,0,0-.1h0Z"/><path class="cls-9" d="m348.7,198c-.2,1.2-.4,2.3-.6,3.5h-2.9c.5-2.8,1-5.6,1.5-8.4.5,0,1,.1,1.6.2-.4-1.1-.7-2.1-1.1-3.1,0,0,.1,0,.2,0h4.9c.5,0,1,0,1.5.3.9.3,1.3,1,1.4,1.9,0,.4,0,.8,0,1.2,0,.5-.2,1-.3,1.5-.2,1-.7,1.7-1.5,2.3-.6.4-1.3.7-2,.8-.4,0-.8,0-1.1,0h-1.5Zm.4-2.5s0,0,0,0c.6,0,1.1,0,1.7,0,.6,0,1-.4,1.1-1,0-.4.1-.8.2-1.1,0-.1,0-.2,0-.4-.1-.4-.4-.5-.8-.5h-1.5s0,0,0,0c-.2,1-.3,2-.5,2.9h0Z"/><path class="cls-9" d="m314.4,201.5h-2.9c.7-3.8,1.3-7.6,2-11.4h2.9c-.7,3.8-1.3,7.6-2,11.4h0Z"/><path class="cls-9" d="m193.6,198.6s0,0,.1-.1c1.6-2.1,2.7-4.5,3.2-7.1,0-.1,0-.3,0-.4,0,0,0-.1,0-.2,0-.1.2-.2.3-.2.1,0,.3,0,.4.2,0,0,0,.1,0,.2.2.7.3,1.4.4,2.1.2,1.1.2,2.3.1,3.5,0,1.6-.4,3.2-.9,4.7-.5,1.5-1.2,3-2.1,4.3-.1.1-.2.3-.4.4-1.7,1-3.5,1.7-5.4,2.2-.8.2-1.5.3-2.3.4-.3,0-.6,0-.9,0-.1,0-.2,0-.4,0,.1,0,.3,0,.4,0,1.3.2,2.6.3,3.9.2.3,0,.6,0,.9,0,.1,0,.2,0,.4,0,.2,0,.3,0,.4.2,0,.2,0,.3-.1.4,0,0-.1,0-.2.1-1,.8-2,1.4-3.1,2-.4.2-.8.4-1.2.5-.2,0-.3,0-.5,0-.8-.1-1.5-.3-2.2-.5,0,0-.2,0-.2,0,0,0,0,0,0,0,0,0,0,0,0,.1.1.2.2.5.4.7,0,0,0,.2,0,.3,0,.2-.1.3-.3.3-.2,0-.4,0-.6.1-1,.2-1.9.3-2.9.3h-.1c-.2,0-.3,0-.4-.3,0-.1,0-.2,0-.3,0,0,0-.1,0-.2,0,0,0,.1,0,.1,0,.1,0,.3-.1.4,0,.2-.2.3-.4.3s-.4,0-.6,0c-.6,0-1.2,0-1.7-.2-.4,0-.9-.2-1.3-.2,0,0,0,0-.1,0-.2,0-.3-.3-.2-.5,0,0,0-.1,0-.2.1-.2.2-.5.4-.7-.1,0-.2,0-.2,0-.6.2-1.3.4-2,.5-.7.1-.5.1-1.1-.1-1.4-.6-2.8-1.4-4-2.4,0,0-.1,0-.1-.1-.1-.1-.1-.3,0-.4,0-.1.2-.2.4-.2s.2,0,.2,0c1,.1,1.9.1,2.9,0,.8,0,1.5-.1,2.3-.3,0,0-.1,0-.2,0-.2,0-.5,0-.8,0-1.2-.1-2.4-.3-3.5-.7-1.5-.4-3-1.1-4.4-1.9-.2-.1-.3-.3-.5-.4-1.2-1.7-2-3.6-2.5-5.6-.2-.9-.4-1.9-.5-2.8,0-.9,0-1.9,0-2.8,0-1.1.2-2.2.5-3.3,0,0,0,0,0-.1,0-.2.2-.2.4-.2.1,0,.3.1.3.3,0,.1,0,.3,0,.4.5,2.3,1.4,4.5,2.7,6.5.2.3.4.6.6.9,0,0,0,0,.1.1,0,0,0-.1,0-.2-.4-.8-.8-1.5-1.1-2.3-.6-1.4-1-2.8-1.2-4.3-.2-1.3-.3-2.6-.2-3.9,0-.4,0-.8,0-1.1,0-.2,0-.3.2-.5,2.3-3.8,5.5-6.4,9.7-7.9,0,0,.1,0,.2,0,.2,0,.3,0,.4.1,0,.1,0,.3,0,.4,0,0,0,0,0,0-1,1.1-1.8,2.3-2.4,3.6-.6,1.3-1,2.7-1.3,4.2-.3,1.5-.4,3-.3,4.5,0,1.4.3,2.8.6,4.2.4,1.4.9,2.7,1.6,3.9.5,1,1.2,1.8,2,2.6.8.8,1.6,1.4,2.6,1.8.8.4,1.7.5,2.6.6,1,0,2-.2,3-.7,1-.5,1.9-1.1,2.6-2,.9-1,1.6-2,2.2-3.2.6-1.2,1-2.6,1.4-3.9.4-1.5.5-3.1.4-4.7,0-.7,0-1.4-.2-2.1-.3-2.4-1.1-4.7-2.4-6.8-.4-.7-.9-1.3-1.5-1.9,0,0,0,0-.1-.1,0-.1,0-.3,0-.4,0-.1.2-.2.4-.2,0,0,.2,0,.2,0,1.9.6,3.7,1.6,5.3,2.8,1.8,1.4,3.3,3.1,4.4,5.1,0,.1.1.3.2.5,0,.5,0,1,.1,1.5,0,.7,0,1.5,0,2.2-.2,2.3-.8,4.4-1.8,6.5-.2.5-.5.9-.7,1.4,0,0,0,.1,0,.2,0,0,0,0,0,.2,0,0,0-.1,0-.1h0s0,0,0,0Z"/><path class="cls-9" d="m178.1,192.7c0-.1,0-.2,0-.2-.1-.4-.3-.8-.4-1.3,0,0,0,0,0-.1,0-.2,0-.3.1-.4.1-.1.3-.3.4-.4.6-.5,1.1-1,1.7-1.5,0,0,0,0,.1-.1.2-.1.3-.1.5,0,0,0,0,0,0,0,.7.6,1.4,1.2,2,1.8.2.2.3.4.2.7-.1.4-.3.8-.4,1.2,0,0,0,.1,0,.3.1-.1.2-.2.3-.2.1-.1.2-.2.4-.3.2-.2.5-.1.7.2.1.4.3.9.5,1.3,0,0,0,.1,0,.2,0,.2,0,.3-.1.4-.1,0-.2.2-.3.3-.4.3-.6.7-.9,1.1-.5.7-.8,1.5-1.1,2.3-.4,1.1-.7,2.3-1,3.4,0,.4-.1.8-.2,1.1,0,0,0,0,0,.1,0,.2-.2.3-.4.3s-.3-.1-.3-.3c0-.2,0-.4-.1-.6-.3-1.6-.7-3.1-1.3-4.6-.3-.6-.5-1.2-.9-1.8-.3-.5-.7-.9-1.1-1.3-.2-.1-.2-.3-.1-.5.2-.5.4-1,.5-1.5,0-.2.2-.3.4-.3,0,0,.1,0,.2.1.1.1.3.3.5.4,0,0,0,0,.2.1h0Z"/></svg>