<?xml version="1.0" encoding="UTF-8"?><svg id="Primary_Color" xmlns="http://www.w3.org/2000/svg" xmlns:xlink="http://www.w3.org/1999/xlink" viewBox="0 0 518.7 743.8"><defs><style>.cls-1{clip-path:url(#clippath);}.cls-2{fill:none;}.cls-2,.cls-3,.cls-4,.cls-5,.cls-6,.cls-7{stroke-width:0px;}.cls-3{fill:gray;}.cls-4{fill:#d3d3d3;}.cls-5{fill:#a9a9a9;}.cls-6{fill:#f1f2f2;}.cls-7{fill:#fff;}</style><clipPath id="clippath"><path class="cls-2" d="m332.8,45.1c-2.3,38.6-10.8,124.9-71.6,122.1h-3.4c-60.8,2.8-69.4-83.4-71.6-122.1-.3-5.4-5.6-9.1-10.6-7.3l-30.1,10.5c-3.7,1.3-6,5.2-5.3,9.1,5.8,35.6,16.8,113.3-6.3,152.9-8.4,14.4-19.8,27.7-36.6,35.5-11.9,5.6-33,11.7-51.9,12.9-4.3.3-7.6,3.8-7.6,8.2,13.4,135.1,12.5,275.9,0,421.4,0,10.5,8,19.2,18.2,19.8,75.3,4.9,144.6,5.9,201.2-1.2h3.9c.5,0,1.1,0,1.6-.2,71.2-15.5,136.1-.9,210.9,0,4.5,0,8.1-3.7,8.1-8.2-13.4-153.6-17.2-300.8,0-431.7,0-4.4-3.3-8-7.6-8.2-17.6-1-33.6-6.6-45.5-12.1-16.8-7.8-32.1-17.9-40.5-32.3-23.1-39.7-14.3-120.9-8.7-156.9.6-3.9-1.7-7.8-5.3-9.1l-30.2-10.5c-.9-.3-1.7-.4-2.6-.4-4.1,0-7.8,3.3-8,7.8"/></clipPath></defs><path class="cls-4" d="m428.2,246.7c-16.8-7.8-32.1-17.9-40.5-32.3-23.1-39.7-14.3-120.9-8.7-156.9.6-3.9-1.7-7.8-5.3-9.1l-30.2-10.5c-5-1.8-10.3,1.9-10.6,7.3-2.3,38.6-10.8,124.8-71.6,122.1h-3.4c-60.8,2.8-69.4-83.4-71.6-122.1-.3-5.4-5.6-9.1-10.6-7.3l-30.1,10.5c-3.7,1.3-6,5.2-5.3,9.1,5.8,35.6,16.8,113.3-6.3,152.9-8.4,14.4-19.8,27.7-36.6,35.5-11.9,5.6-33,11.7-51.9,12.9-4.3.3-7.6,3.8-7.6,8.2,13.4,135.1,12.5,275.9,0,421.4,0,10.5,7.9,19.2,18.2,19.8,75.3,4.9,144.6,5.9,201.2-1.2h3.9c.5,0,1.1,0,1.6-.2,71.2-15.5,136.1-.9,210.9,0,4.5,0,8.1-3.7,8.1-8.2-13.4-153.6-17.2-300.8,0-431.7,0-4.4-3.3-8-7.6-8.2-17.6-1-33.6-6.6-45.5-12.1"/><g class="cls-1"><path class="cls-6" d="m83.2,712.1h-45c9.7-154.2,9.7-308.8,0-462.9h45c9.7,154.1,9.7,308.8,0,462.9"/><path class="cls-5" d="m42.4,629.5c14.9,1.7,29.9,3.4,44.8,5.1.5-12.9,1-25.8,1.4-38.6-15.1,4-30.3,8-45.4,12-.2,7.2-.5,14.3-.8,21.5"/><path class="cls-4" d="m43.6,596.3c15.7-22,31.2-44,46.5-66.1.2-14.5.3-29,.3-43.5-15,7.2-30,14.3-45.1,21.4-.2,29.4-.8,58.8-1.7,88.1"/><path class="cls-4" d="m84.1,697.3c.6-10.2,1.2-20.4,1.7-30.7-4.9-2.2-9.8-4.4-14.7-6.7,4.4,12.4,8.8,24.9,13,37.3"/><path class="cls-5" d="m76.5,584.2h12.5c.2-6.5.4-12.9.5-19.4-2.3-1.5-4.7-3-7-4.5-2,8-4,15.9-6,23.9"/><path class="cls-4" d="m86.4,308c-15.1-1.5-30.1-2.9-45.2-4.4,0,2.3.2,4.5.3,6.8,15.4,8.1,30.7,16.3,46.1,24.4-.4-8.9-.7-17.9-1.2-26.8"/><path class="cls-5" d="m43.7,367.8c0,3.5.2,6.9.3,10.4,6.2,4.3,12.4,8.7,18.5,13,8.7-10.1,17.4-20.2,26-30.3,0-3.4-.2-6.7-.3-10.1-2.9-2.6-5.8-5.1-8.7-7.7-11.9,8.2-23.8,16.5-35.7,24.7"/><path class="cls-5" d="m39.4,270.1c0,2.7.3,5.4.4,8.1h14.4c-4.9-2.7-9.9-5.4-14.8-8.1"/><path class="cls-4" d="m57.7,440.5c-4.2-2.1-8.4-4.1-12.5-6.2,0,4,0,8,0,11.9,1,2.3,2,4.6,3,7,3.1-4.2,6.3-8.5,9.4-12.7"/><path class="cls-5" d="m89.1,382c0-4.6-.3-9.2-.4-13.8-2.4,3-4.8,6-7.1,9,2.5,1.6,5,3.2,7.5,4.8"/><path class="cls-5" d="m44.3,390.1c0,4.2.2,8.4.3,12.6,3-2.7,5.9-5.4,8.9-8.1-3.1-1.5-6.1-3-9.2-4.5"/><path class="cls-3" d="m76.4,712.1c-11.9-13.2-23.9-26.5-35.9-39.8-.4,8.6-.9,17.2-1.4,25.8,7.1,4.7,14.1,9.3,21.1,14h16.2Z"/><path class="cls-3" d="m47.5,426.3c8.8,5.1,17.6,10.2,26.4,15.3-9.5,6.9-19,13.8-28.5,20.8v27.5c15-6.5,30-12.9,45-19.4v-.2c-12.3,2.2-24.6,4.3-36.8,6.4,12.3-4.7,24.6-9.4,36.8-14.1,0-22.2-.4-44.5-.9-66.8-4.9-3.1-9.8-6.3-14.6-9.4-9.1,13.2-18.2,26.5-27.4,39.8"/><path class="cls-3" d="m42.9,344.9c0,2.7.2,5.4.3,8.1,8.6-4.5,17.1-9,25.7-13.4-8.7,1.8-17.3,3.5-26,5.3"/><path class="cls-3" d="m41.1,249.2c14.8,12.9,29.6,25.8,44.3,38.7,0-2.5-.3-4.9-.4-7.4-4.9-10.4-9.8-20.9-14.8-31.3,0,0-29.1,0-29.1,0Z"/><path class="cls-6" d="m435.4,712.1h45c-7.4-157.2-7.4-314.6,0-471.7h-45c-7.4,157.1-7.4,314.6,0,471.7"/><path class="cls-5" d="m477.1,627.9c-15,1.7-29.9,3.5-44.8,5.2-.4-13.1-.8-26.2-1.1-39.3,15.1,4.1,30.2,8.2,45.3,12.2.2,7.3.4,14.6.6,21.9"/><path class="cls-4" d="m476.2,594c-15.5-22.4-30.9-44.9-46.1-67.3-.2-14.8-.2-29.5-.2-44.3,15,7.3,30,14.6,45.1,21.8.2,29.9.6,59.9,1.3,89.8"/><path class="cls-4" d="m434.7,697.1c-.5-10.4-.9-20.8-1.3-31.2l14.8-6.8c-4.5,12.7-9.1,25.3-13.5,38"/><path class="cls-5" d="m443.4,581.7h-12.5c-.1-6.6-.3-13.2-.4-19.7,2.3-1.5,4.7-3.1,7-4.6,1.9,8.1,3.9,16.2,5.9,24.3"/><path class="cls-4" d="m432.9,300.3c15-1.5,30.1-3,45.2-4.5,0,2.3-.2,4.6-.2,6.9-15.3,8.3-30.5,16.6-45.8,24.9.3-9.1.6-18.2.9-27.3"/><path class="cls-5" d="m476.1,361.2c0,3.5-.2,7-.2,10.6-6.2,4.4-12.3,8.9-18.4,13.3-8.8-10.3-17.5-20.6-26.2-30.9,0-3.4.2-6.8.3-10.3,2.9-2.6,5.8-5.2,8.7-7.9,12,8.4,23.9,16.8,35.9,25.2"/><path class="cls-5" d="m479.4,261.7c-.1,2.8-.2,5.5-.3,8.2h-14.4c4.9-2.8,9.8-5.5,14.7-8.2"/><path class="cls-4" d="m462.5,435.3c4.2-2.1,8.3-4.2,12.5-6.3v12.1c-1,2.4-2,4.7-3,7.1-3.2-4.3-6.3-8.6-9.5-12.9"/><path class="cls-5" d="m430.8,375.8c0-4.7.2-9.4.3-14.1,2.4,3.1,4.8,6.1,7.2,9.2-2.5,1.6-5,3.2-7.5,4.9"/><path class="cls-5" d="m475.6,384c0,4.3-.2,8.6-.2,12.9-3-2.8-6-5.5-9-8.3,3.1-1.5,6.1-3,9.2-4.6"/><path class="cls-3" d="m442.1,712.1c12.1-13.5,24.3-27,36.5-40.5.3,8.8.7,17.5,1.1,26.3-7.1,4.7-14.2,9.5-21.3,14.2h-16.3Z"/><path class="cls-3" d="m472.7,420.8c-8.8,5.2-17.6,10.4-26.4,15.6,9.5,7.1,19,14.1,28.6,21.2v28c-15-6.6-30-13.2-45-19.7v-.2c12.3,2.2,24.6,4.4,36.8,6.6-12.3-4.8-24.5-9.5-36.8-14.3,0-22.7.3-45.3.7-68,4.9-3.2,9.7-6.4,14.6-9.6,9.1,13.5,18.3,27,27.5,40.5"/><path class="cls-3" d="m476.7,338c0,2.8-.2,5.5-.2,8.2-8.6-4.6-17.2-9.1-25.8-13.7,8.7,1.8,17.4,3.6,26,5.4"/><path class="cls-3" d="m477.5,240.4c-14.7,13.1-29.2,26.3-43.8,39.4,0-2.5.2-5,.3-7.5,4.8-10.6,9.5-21.3,14.4-31.9h29.1Z"/></g><path class="cls-3" d="m121.7,216.2c22.1-31.7,23.6-76.2,21-108-2-24.8-6.8-45.9-9.4-55.9l-4.8,1.8c6.1,24,24.1,108.8-10.9,159-16.7,23.9-43.6,36.9-80.1,38.6v5.3c38.2-1.8,66.5-15.5,84.2-40.8"/><path class="cls-7" d="m151.7,107.3c-2.1-26.3-7.2-48.1-9.8-58.3l-4.8,1.8c2.6,10.1,7.5,31.6,9.6,56.9,2.7,32.5,1,78.1-21.8,110.8-18.4,26.4-47.8,40.7-87.4,42.5v5.3c41.3-1.8,72-16.8,91.5-44.7,19.1-27.3,26.7-65.8,22.7-114.4"/><path class="cls-5" d="m124.8,218.6c22.8-32.7,24.4-78.3,21.8-110.8-2.1-25.3-7-46.8-9.6-56.9l-3.7,1.4c2.6,10.1,7.4,31.1,9.4,55.9,2.6,31.8,1.1,76.4-21,108-17.7,25.3-46,39-84.2,40.8v4.1c39.6-1.8,68.9-16.1,87.4-42.5"/><path class="cls-3" d="m397.1,216.2c-22.1-31.7-23.6-76.2-21-108,2-24.8,6.8-45.9,9.4-55.9l4.8,1.8c-6.1,24-24.1,108.8,10.9,159,16.7,23.9,43.6,36.9,80.1,38.6v5.3c-38.2-1.8-66.5-15.5-84.2-40.8"/><path class="cls-7" d="m367.1,107.3c2.2-26.3,7.2-48.1,9.8-58.3l4.8,1.8c-2.6,10.1-7.5,31.6-9.6,56.9-2.7,32.5-1,78.1,21.8,110.8,18.4,26.4,47.8,40.7,87.4,42.5v5.3c-41.3-1.8-72-16.8-91.5-44.7-19.1-27.3-26.7-65.8-22.7-114.4"/><path class="cls-5" d="m393.9,218.6c-22.8-32.7-24.4-78.3-21.8-110.8,2.1-25.3,7-46.8,9.6-56.9l3.7,1.4c-2.6,10.1-7.4,31.1-9.4,55.9-2.6,31.8-1.1,76.4,21,108,17.7,25.3,46,39,84.2,40.8v4.1c-39.6-1.8-68.9-16.1-87.4-42.5"/><path class="cls-4" d="m184.8,43.4s1.7,111.4,68.2,121.2c66.5,9.7,83.1-110.8,82.5-122.3,0,0-67.6,42.2-150.7,1.1"/><path class="cls-3" d="m335.3,35.2l-3.7-1.2-4.9-1.6c-2.1,7.9-9,20.4-30.6,20.4h-74c-21.7,0-28.5-12.5-30.6-20.4l-4.9,1.6-3.7,1.2-5,1.6c.9,3.2,2.3,6.8,4.5,10.5,5.5,9.3,16.8,20.3,39.7,20.3h74c22.9,0,34.2-11.1,39.7-20.3,2.2-3.7,3.6-7.4,4.5-10.5l-5-1.6h0Z"/><path class="cls-7" d="m335.6,34.8c-.3,31.2-4.2,57.2-11.7,77.5-12.9,34.7-35.8,52.3-68,52.3s-29.3-5.9-40.3-17.6c-17.6-18.6-25.7-48.9-29.4-71.1-3-18.1-3.7-33.9-3.8-40.5l-5,1.7c.5,18.4,4.3,81.5,34.7,113.6,12,12.7,26.8,19.2,43.9,19.2s34.5-5.6,47.3-16.7c10.7-9.2,19.3-22.4,25.4-39,7.6-20.5,11.6-46.6,12.1-77.7l-5.1-1.8h0Z"/><path class="cls-3" d="m218.3,144.1c10.3,10.9,22.9,16.4,37.5,16.4,61.9,0,75.5-68.5,75.9-127l-5.1-1.8c0,31.4-3.8,57.4-11.1,77.2-11.5,31.1-31.1,46.3-59.7,46.3s-24.5-4.9-33.9-14.8c-30-31.7-30.7-102.7-30.7-107.9l-5.1,1.7c.2,12.4,2.7,78.8,32.2,110"/><path class="cls-5" d="m255.9,160.5c-14.6,0-27.2-5.5-37.5-16.4-29.5-31.2-32-97.6-32.2-110l-3.9,1.3c.1,6.6.8,22.4,3.8,40.5,3.7,22.1,11.8,52.4,29.4,71.1,11,11.7,24.6,17.6,40.3,17.6,32.3,0,55.2-17.6,68-52.3,7.5-20.2,11.4-46.3,11.7-77.5l-3.9-1.4c-.3,58.5-14,127-75.9,127"/><path class="cls-5" d="m171.1,255.4c-.4-1.9-1.7-3.5-3.9-4.6-1.8-1-3.8-1.4-5.8-1-2.1.4-4.2.8-6.5,1.4-5.1,1.4-10.2,2.8-15.2,4.4v27.1c3.9-1.2,7.8-2.4,11.6-3.5v-17.3c.5-.1,1-.3,1.4-.4,1.4-.4,2.7-.6,4-.6s2.2.8,2.7,2.4c.1.5.2.9.2,1.3v12.5c4-1,8-2,12-2.9v-12.5c0-2.3-.2-4.4-.6-6.3"/><path class="cls-6" d="m159.8,295.3v2c0,.4-.1.8-.2,1.4-.5,1.9-1.4,3.1-2.7,3.7s-2.6,1.1-4,1.5c-.5.1-1,.3-1.4.4v-25c-3.9,1.1-7.8,2.2-11.6,3.5v80.4c3.4-1,6.7-2,10.1-3,1-.3,1.4-.9,1.4-1.8,0-14.7.1-29.5.2-44.2,1.2-.3,2.3-.6,3.5-1h.2c2.5,14.2,4.9,28.4,7.4,42.6.2.7.6.9,1.3.8,3.5-.9,6.9-1.6,10.4-2.4-2.8-15.2-5.6-30.4-8.3-45.5.4-.2.9-.6,1.4-1.3,2.1-2,3.4-4.1,3.9-6.2.4-2.1.6-4.4.6-6.7v-20.2c-4,.9-8,1.8-12,2.9v18.3h0l-.2-.2Z"/><path class="cls-6" d="m183.5,352.2c3.5-.7,7.1-1.3,10.6-1.9,1-.2,1.5-.6,1.5-1.5v-79.2c-4,.6-8.1,1.3-12.1,2.1v80.4h0Z"/><path class="cls-5" d="m194.1,242.8c-3.5.6-7.1,1.2-10.6,1.9v27.1c4-.8,8-1.5,12.1-2.1v-25.9c0-.8-.5-1.2-1.5-1"/><path class="cls-5" d="m237.9,247.4c-.1-.6-.2-1.1-.3-1.6-.2-.5-.3-.9-.5-1.4-.6-1.6-1.6-2.9-2.9-3.8-1.2-.9-2.6-1.6-4-2.1s-2.8-.7-4.2-.8h-3.7c-.6,0-1.6.2-2.8.3-1.2.2-2.6.5-4,1.1-1.5.6-2.9,1.4-4.3,2.5-1.4,1.1-2.6,2.6-3.6,4.6-.3.7-.6,1.5-.8,2.4s-.3,2.4-.3,4.5v14.9c3.8-.5,7.7-.9,11.5-1.3v-13.9c0-2,.4-3.3,1.2-4s1.7-1.1,2.7-1.2c1.4-.1,2.4.1,3.1.7.6.6,1,1.5,1,2.6v15c4.1-.3,8.1-.6,12.2-.8v-15.9c0-.7,0-1.4-.2-1.9"/><path class="cls-5" d="m225.9,278.2c0,.8.5,1.2,1.5,1.1,3.6-.3,7.1-.5,10.7-.7v-13.3c-4.1.2-8.1.5-12.2.8v12.1h0Z"/><path class="cls-6" d="m206.4,283.1c0,3.9,1.4,7.2,4,10,2.7,2.7,5.7,5.3,9.1,7.8,4.6,3.4,7,8.2,7,14.4v17.7c0,2.1-.4,3.4-1.2,4s-1.8,1-2.8,1.1c-2.6.2-3.9-.9-3.9-3.5v-24.8c0-.8-.5-1.2-1.5-1.1-3.6.4-7.1.8-10.7,1.2v27.3c0,2.2.5,4,1.4,5.4s2.1,2.6,3.6,3.4c1.5.9,3.1,1.5,4.9,1.8,1.8.3,3.7.4,5.7.2.6,0,1.6-.2,3-.5s2.8-.7,4.3-1.3c1.5-.6,3-1.4,4.3-2.4,1.4-1,2.5-2.3,3.3-3.9.1-.3.3-.8.5-1.4.2-.5.4-1.2.5-2.1s.2-1.9.2-3.2v-21.1c0-3.3-.5-6.3-1.5-9s-2.9-5.4-5.5-8.1c-.8-.8-1.9-1.7-3.3-2.7s-2.9-2.2-4.4-3.5-2.7-2.7-3.8-4.2-1.6-3.3-1.6-5.3v-12.7c-3.8.4-7.7.8-11.5,1.3v15h0v.2Z"/><path class="cls-6" d="m248.7,345.4c7.8-.2,15.6,0,23.5.2.9,0,1.3-.4,1.3-1.3v-8.5c-4.2-.2-8.4-.3-12.5-.3v-40.9c3.1,0,6.3.1,9.5.2.9,0,1.3-.4,1.3-1.4v-8.5c-3.6-.1-7.2-.2-10.8-.3v-19.7h-12.2v80.4h-.1Z"/><path class="cls-5" d="m271.4,247.9c.9,0,1.3-.4,1.3-1.2v-8.7c-8-.3-16-.4-23.9-.2v27.1c4.1,0,8.1-.1,12.2,0v-17.2c3.5,0,7,.1,10.4.2"/><path class="cls-5" d="m330.3,244.7c-3.6-.7-7.2-1.3-10.8-1.9v27.1c4,.6,8,1.4,12.1,2.1v-25.9c0-.8-.4-1.3-1.3-1.5"/><path class="cls-6" d="m319.6,335.6v2.5c0,.9-.3,1.5-.7,2-.8.8-1.9,1.1-3.5.8-.2,0-.6-.1-1.2-.3s-1.2-.5-1.7-1.1c-.9-.6-1.4-1.4-1.5-2.3s-.2-1.9-.2-2.9v-65.9c-3.9-.5-7.9-1-11.8-1.5v67.1c0,1.8.2,3.6.6,5.4.4,1.9,1.3,3.6,2.9,5.4,2,2.1,4.1,3.5,6.5,4.3s4.5,1.3,6.3,1.6c1.8.3,3.9.4,6.1.3,2.2,0,4.3-.7,6.2-1.9,1-.6,1.9-1.7,2.8-3.1s1.4-3.8,1.4-7.1v-67.1c-4-.8-8-1.5-12.1-2.1v65.7h0v.2Z"/><path class="cls-5" d="m310.7,242.7c0-.8-.4-1.3-1.3-1.4-3.5-.5-7-.9-10.5-1.3v27.1c4,.4,7.9.9,11.8,1.5v-25.9h0Z"/><path class="cls-6" d="m362.3,279.2v26.9c0,.4-.1.8-.2,1.2-.5,1.5-1.4,2.2-2.6,2.2s-2.5-.2-4-.6c-.5-.1-.9-.2-1.4-.4v-31.6c-4-1-8-2-11.9-2.9v80.4c3.5.8,6.9,1.6,10.3,2.4,1,.2,1.4-.1,1.4-1,0-12.5.1-25,.2-37.5,1.2.3,2.3.6,3.5.9,2.2.6,4.3,1.1,6.4,1.5,2,.4,4,.1,5.9-.8,2.1-.9,3.3-2.3,3.7-4.2.4-1.9.5-4,.5-6.4v-26.8c-3.9-1.2-7.9-2.4-11.8-3.5"/><path class="cls-5" d="m354,259.7c.5.1.9.2,1.4.4,1.5.4,2.8.9,4,1.5s2,1.9,2.6,3.8c0,.5.2,1,.2,1.4v12.5c4,1.1,7.9,2.3,11.8,3.5v-12.5c0-2.3-.2-4.5-.5-6.6-.4-2.1-1.6-4.4-3.7-6.6-1.9-2-3.9-3.4-5.9-4.1-2.1-.7-4.2-1.4-6.4-2-5.1-1.4-10.2-2.6-15.4-3.7v27.1c4,.9,8,1.8,11.9,2.9v-17.3h0v-.3Z"/><path class="cls-7" d="m313.4,196.9c.5,1.5,1,3,1.4,4.6h-3.2c-.4-1.4-.9-2.8-1.3-4.2h-1c-.2,1.4-.4,2.8-.6,4.2h-3.1c.7-3.8,1.3-7.6,2-11.4h4.7c.5,0,1.1,0,1.6.2.7.2,1.2.7,1.4,1.5,0,.3.1.7,0,1-.1.6-.2,1.3-.4,1.9-.1.7-.5,1.2-1,1.7-.2.2-.4.3-.6.5h.1Zm-3.8-1.6h1.5c.6,0,.9-.4,1.1-.9v-1.1c-.1-.5-.4-.7-.9-.7h-1.3c-.1.9-.3,1.8-.4,2.7h0Z"/><path class="cls-7" d="m320.5,197.8h2.8v.3c0,.6.2,1,.8,1.2.5.1,1.1.1,1.6,0h.2c.6-.3.6-1,.3-1.3-.1-.1-.2-.2-.4-.3-.4-.3-.9-.4-1.3-.5-.5-.2-1-.3-1.5-.5s-.9-.5-1.2-.8c-.5-.5-.6-1.1-.6-1.7s0-1,.2-1.5c.3-1,1-1.6,2-2s1.1-.4,1.7-.4,1.3-.1,2,0c.6,0,1.2.2,1.7.5.7.4,1.1.9,1.3,1.6.1.8,0,1.5-.4,2.1h-2.8s0-.1.1-.2c.2-.3.3-.7.2-1,0-.3-.2-.5-.5-.6-.2-.1-.5-.1-.8-.1s-.6,0-.9.1c-.1,0-.2,0-.3.1-.6.3-.7,1.1-.1,1.6.3.3.7.4,1.1.5.5.2,1.1.3,1.6.5.5.1.9.4,1.3.7.5.5.8,1.1.8,1.8s0,1.2-.3,1.9c-.4,1-1,1.6-2,1.9-.6.2-1.2.3-1.9.4h-1.7c-.6,0-1.1-.1-1.7-.4-.9-.4-1.4-1-1.5-2,0-.5,0-1,.1-1.5h0v-.4Z"/><path class="cls-7" d="m329.8,201.5c.7-3.8,1.3-7.6,2-11.4h8c-.1.8-.3,1.6-.4,2.5h-5.1c-.1.7-.2,1.4-.4,2.1h4.2c-.1.8-.3,1.7-.4,2.5h-4.2c-.1.6-.2,1.2-.3,1.9h5.1c-.1.8-.3,1.6-.4,2.5h-8.1Z"/><path class="cls-7" d="m341.1,190.1h2.9c0,.4-.1.7-.2,1-.2,1.2-.4,2.4-.6,3.5-.1.9-.3,1.7-.5,2.6v.9c0,.6.3,1,.9,1.1h1.1c.4-.1.7-.4.9-.8.2-.4.3-.8.4-1.2.2-1.3.5-2.7.7-4,.2-1,.3-1.9.5-2.8v-.2h2.5c-.6.9-1.1,1.7-1.7,2.6.5,0,1,.1,1.5.2v.2c-.3,1.5-.5,3.1-.8,4.6-.1.5-.3,1.1-.5,1.6-.6,1.2-1.5,1.9-2.7,2.3-.8.2-1.7.3-2.5.2-.5,0-1-.1-1.5-.3-1-.4-1.6-1.1-1.7-2.2,0-.6,0-1.3.1-1.9.2-1.2.4-2.4.6-3.6.2-1.2.4-2.3.6-3.5h0c0-.1,0-.3,0-.3Z"/><path class="cls-7" d="m353,198c-.2,1.2-.4,2.3-.6,3.5h-2.9c.5-2.8,1-5.6,1.5-8.4.5,0,1,.1,1.6.2-.4-1.1-.7-2.1-1.1-3.1h5.1c.5,0,1,0,1.5.3.9.3,1.3,1,1.4,1.9v1.2c0,.5-.2,1-.3,1.5-.2,1-.7,1.7-1.5,2.3-.6.4-1.3.7-2,.8h-2.6v-.2Zm.4-2.5h1.7c.6,0,1-.4,1.1-1,0-.4.1-.8.2-1.1v-.4c-.2-.4-.4-.5-.8-.5h-1.5c-.2,1-.3,2-.5,2.9h-.2Z"/><path class="cls-7" d="m318.7,201.5h-2.9c.7-3.8,1.3-7.6,2-11.4h2.9c-.7,3.8-1.3,7.6-2,11.4h0Z"/><path class="cls-7" d="m197.9,198.6h.1c1.6-2.2,2.7-4.6,3.2-7.2v-.6c0-.1.2-.2.3-.2s.3,0,.4.2v.2c.2.7.3,1.4.4,2.1.2,1.1.2,2.3.1,3.5,0,1.6-.4,3.2-.9,4.7s-1.2,3-2.1,4.3c-.1.1-.2.3-.4.4-1.7,1-3.5,1.7-5.4,2.2-.8.2-1.5.3-2.3.4h-1.3.4c1.3.2,2.6.3,3.9.2h1.3c.2,0,.3,0,.4.2,0,.2,0,.3-.1.4,0,0-.1,0-.2.1-1,.8-2,1.4-3.1,2-.4.2-.8.4-1.2.5h-.5c-.8-.1-1.5-.3-2.2-.5h-.2c.1.3.2.6.4.8v.3c0,.2-.1.3-.3.3s-.4,0-.6.1c-1,.2-1.9.3-2.9.3h-.1c-.2,0-.3,0-.4-.3v-.5h0c0,.2,0,.4-.1.5,0,.2-.2.3-.4.3h-.6c-.6,0-1.2,0-1.7-.2-.4,0-.9-.2-1.3-.2h-.1c-.2,0-.3-.3-.2-.5v-.2c.1-.2.2-.5.4-.7h-.2c-.6.2-1.3.4-2,.5s-.5.1-1.1-.1c-1.4-.6-2.8-1.4-4-2.4,0,0-.1,0-.1-.1-.1-.1-.1-.3,0-.4,0-.1.2-.2.4-.2h.2c1,.1,1.9.1,2.9,0,.8,0,1.5-.1,2.3-.3h-1c-1.2-.1-2.4-.3-3.5-.7-1.5-.4-3-1.1-4.4-1.9-.2-.1-.3-.3-.5-.4-1.2-1.7-2-3.6-2.5-5.6-.2-.9-.4-1.9-.5-2.8v-2.8c0-1.1.2-2.2.5-3.3h0c0-.3.2-.3.4-.3s.3.1.3.3v.4c.5,2.3,1.4,4.5,2.7,6.5.2.3.4.6.6.9h.1c0,.1,0,0,0,0-.4-.8-.8-1.5-1.1-2.3-.6-1.4-1-2.8-1.2-4.3-.2-1.3-.3-2.6-.2-3.9v-1.1c0-.2,0-.3.2-.5,2.3-3.8,5.5-6.4,9.7-7.9h.2c.2,0,.3,0,.4.1v.4h0c-1,1-1.8,2.3-2.4,3.6-.6,1.3-1,2.7-1.3,4.2s-.4,3-.3,4.5c0,1.4.3,2.8.6,4.2.4,1.4.9,2.7,1.6,3.9.5,1,1.2,1.8,2,2.6s1.6,1.4,2.6,1.8c.8.4,1.7.5,2.6.6,1,0,2-.2,3-.7s1.9-1.1,2.6-2c.9-1,1.6-2,2.2-3.2.6-1.2,1-2.6,1.4-3.9.4-1.5.5-3.1.4-4.7,0-.7,0-1.4-.2-2.1-.3-2.4-1.1-4.7-2.4-6.8-.4-.7-.9-1.3-1.5-1.9h-.1v-.5c0-.1.2-.2.4-.2h.2c1.9.6,3.7,1.6,5.3,2.8,1.8,1.4,3.3,3.1,4.4,5.1,0,.1.1.3.2.5,0,.5,0,1,.1,1.5v2.2c-.2,2.3-.8,4.4-1.8,6.5-.2.5-.5.9-.7,1.4v.4h0c0-.1-.2-.4-.2-.4Z"/><path class="cls-7" d="m182.4,192.7v-.2c-.1-.4-.3-.8-.4-1.3h0c0-.3,0-.4.1-.5l.4-.4c.6-.5,1.1-1,1.7-1.5h.1c.2-.2.3-.2.5-.1h0c.7.6,1.4,1.2,2,1.8s.3.4.2.7c-.1.4-.3.8-.4,1.2v.3c.1-.1.2-.2.3-.2.1-.1.2-.2.4-.3.2-.2.5-.1.7.2.1.4.3.9.5,1.3v.2c0,.2,0,.3-.1.4-.1,0-.2.2-.3.3-.4.3-.6.7-.9,1.1-.5.7-.8,1.5-1.1,2.3-.4,1.1-.7,2.3-1,3.4,0,.4-.1.8-.2,1.1h0c0,.3-.2.4-.4.4s-.3-.1-.3-.3,0-.4-.1-.6c-.3-1.6-.7-3.1-1.3-4.6-.3-.6-.5-1.2-.9-1.8-.3-.5-.7-.9-1.1-1.3-.2-.1-.2-.3-.1-.5.2-.5.4-1,.5-1.5,0-.2.2-.3.4-.3,0,0,.1,0,.2.1.1.1.3.3.5.4h.2c0,.1,0,.2,0,.2Z"/><path class="cls-5" d="m208.3,450.4v25.8h25.2v-10h16.8v26.8h-58.8v-47.1l13-12.8h29v-22.9h-25.2v10.2h-16.7v-14.1l12.8-13h33l12.8,13v31.2l-12.8,13h-29.1Z"/><path class="cls-5" d="m300.9,476.2v-25.8h-19.1v-17.3h19.1v-22.9h-25.2v10.2h-16.8v-14.1l13-13h32.9l13,13v30.2l-1.2,1.4-4,4.6,4.6,4.9s.1,0,.1.1l.5.5v32.1l-12.8,13h-33l-13-13v-13.8h16.8v10h25.2-.1Z"/></svg>