<svg xmlns="http://www.w3.org/2000/svg" xmlns:xlink="http://www.w3.org/1999/xlink" width="40" zoomAndPan="magnify" viewBox="0 0 30 30.000001" height="40" preserveAspectRatio="xMidYMid meet" version="1.0"><defs><clipPath id="3dd8fe80e0"><path d="M 6.289062 5.804688 L 23.710938 5.804688 L 23.710938 23.226562 L 6.289062 23.226562 Z M 6.289062 5.804688 " clip-rule="nonzero"/></clipPath></defs><g clip-path="url(#3dd8fe80e0)"><path fill="#9CA3AF" d="M 23.667969 8.804688 C 23.667969 7.125 22.308594 5.765625 20.632812 5.765625 L 9.289062 5.765625 C 7.609375 5.765625 6.25 7.125 6.25 8.804688 L 6.25 20.148438 C 6.25 21.824219 7.609375 23.183594 9.289062 23.183594 L 20.632812 23.183594 C 22.308594 23.183594 23.667969 21.824219 23.667969 20.148438 Z M 16.378906 17.917969 L 16.378906 11.234375 C 16.378906 10.789062 16.015625 10.425781 15.566406 10.425781 C 15.1875 10.425781 14.734375 10.425781 14.351562 10.425781 C 13.90625 10.425781 13.542969 10.789062 13.542969 11.234375 L 13.542969 17.917969 L 12.730469 17.917969 L 12.730469 12.855469 L 10.707031 12.855469 C 10.492188 12.855469 10.285156 12.941406 10.132812 13.09375 C 9.980469 13.242188 9.894531 13.449219 9.894531 13.664062 C 9.894531 14.742188 9.894531 16.636719 9.894531 17.714844 C 9.894531 17.785156 9.90625 17.851562 9.921875 17.917969 L 9.691406 17.917969 C 9.359375 17.917969 9.085938 18.191406 9.085938 18.527344 C 9.085938 18.863281 9.359375 19.132812 9.691406 19.132812 L 20.226562 19.132812 C 20.5625 19.132812 20.832031 18.863281 20.832031 18.527344 C 20.832031 18.191406 20.5625 17.917969 20.226562 17.917969 L 19.996094 17.917969 C 20.015625 17.851562 20.023438 17.785156 20.023438 17.714844 C 20.023438 17.011719 20.023438 15.992188 20.023438 15.285156 C 20.023438 15.070312 19.9375 14.863281 19.785156 14.714844 C 19.632812 14.5625 19.429688 14.476562 19.214844 14.476562 C 18.375 14.476562 17.1875 14.476562 17.1875 14.476562 L 17.1875 17.917969 Z M 16.378906 17.917969 " fill-opacity="1" fill-rule="evenodd"/></g></svg>