<svg xmlns="http://www.w3.org/2000/svg" xmlns:xlink="http://www.w3.org/1999/xlink" width="40" zoomAndPan="magnify" viewBox="0 0 30 30.000001" height="40" preserveAspectRatio="xMidYMid meet" version="1.0"><defs><clipPath id="8e99be036a"><path d="M 5.125 6.070312 L 21 6.070312 L 21 22 L 5.125 22 Z M 5.125 6.070312 " clip-rule="nonzero"/></clipPath><clipPath id="1b967ee5bf"><path d="M 15 13 L 24.71875 13 L 24.71875 22.765625 L 15 22.765625 Z M 15 13 " clip-rule="nonzero"/></clipPath></defs><g clip-path="url(#8e99be036a)"><path fill="#9CA3AF" d="M 9.796875 6.144531 C 9.414062 6.144531 9.101562 6.453125 9.101562 6.839844 L 9.101562 9.203125 C 9.101562 9.589844 9.414062 9.898438 9.796875 9.898438 C 10.179688 9.898438 10.492188 9.589844 10.492188 9.203125 L 10.492188 8.398438 C 10.808594 8.621094 11 8.988281 11 9.378906 C 11 10.042969 10.460938 10.578125 9.796875 10.578125 C 9.132812 10.578125 8.59375 10.042969 8.59375 9.378906 L 8.59375 7.390625 L 7.742188 7.390625 C 7.269531 7.390625 6.820312 7.511719 6.464844 7.789062 C 6.113281 8.074219 5.886719 8.507812 5.839844 9.007812 L 5.148438 19.949219 C 5.117188 20.453125 5.226562 20.941406 5.527344 21.308594 C 5.824219 21.675781 6.296875 21.90625 6.824219 21.90625 L 16.308594 21.90625 C 16.023438 21.589844 15.769531 21.242188 15.566406 20.863281 L 6.941406 20.863281 C 6.683594 20.863281 6.527344 20.777344 6.414062 20.632812 C 6.296875 20.488281 6.234375 20.273438 6.246094 19.996094 L 6.6875 11.457031 L 19.664062 11.457031 L 19.738281 12.941406 C 19.921875 12.921875 20.109375 12.910156 20.296875 12.910156 C 20.449219 12.910156 20.605469 12.917969 20.757812 12.929688 L 20.507812 9.007812 C 20.460938 8.507812 20.238281 8.074219 19.882812 7.792969 C 19.53125 7.511719 19.082031 7.390625 18.605469 7.390625 L 17.246094 7.390625 L 17.246094 6.839844 C 17.246094 6.453125 16.9375 6.144531 16.550781 6.144531 C 16.167969 6.144531 15.859375 6.453125 15.859375 6.839844 L 15.859375 9.203125 C 15.859375 9.589844 16.167969 9.898438 16.550781 9.898438 C 16.9375 9.898438 17.246094 9.589844 17.246094 9.203125 L 17.246094 8.398438 C 17.566406 8.621094 17.753906 8.988281 17.753906 9.378906 C 17.753906 10.042969 17.21875 10.578125 16.550781 10.578125 C 15.890625 10.578125 15.351562 10.042969 15.351562 9.378906 L 15.351562 7.390625 L 10.492188 7.390625 L 10.492188 6.839844 C 10.492188 6.453125 10.179688 6.144531 9.796875 6.144531 Z M 9.796875 6.144531 " fill-opacity="1" fill-rule="evenodd"/></g><g clip-path="url(#1b967ee5bf)"><path fill="#9CA3AF" d="M 20.296875 13.738281 C 17.78125 13.738281 15.742188 15.777344 15.742188 18.300781 C 15.742188 20.816406 17.78125 22.859375 20.296875 22.859375 C 21.503906 22.859375 22.664062 22.378906 23.515625 21.523438 C 24.367188 20.667969 24.847656 19.507812 24.847656 18.300781 C 24.847656 17.089844 24.367188 15.929688 23.515625 15.074219 C 22.664062 14.21875 21.503906 13.738281 20.296875 13.738281 Z M 20.296875 14.867188 C 21.203125 14.867188 22.078125 15.226562 22.71875 15.871094 C 23.363281 16.515625 23.722656 17.386719 23.722656 18.300781 C 23.722656 19.210938 23.363281 20.082031 22.71875 20.726562 C 22.078125 21.371094 21.203125 21.730469 20.296875 21.730469 C 18.402344 21.730469 16.867188 20.195312 16.867188 18.300781 C 16.867188 16.402344 18.402344 14.867188 20.296875 14.867188 Z M 20.296875 14.867188 " fill-opacity="1" fill-rule="evenodd"/></g><path fill="#9CA3AF" d="M 8.507812 13.226562 L 10.230469 13.226562 C 10.484375 13.226562 10.691406 13.429688 10.691406 13.683594 L 10.691406 15.03125 C 10.691406 15.28125 10.484375 15.484375 10.230469 15.484375 L 8.507812 15.484375 C 8.253906 15.484375 8.050781 15.28125 8.050781 15.03125 L 8.050781 13.683594 C 8.050781 13.429688 8.253906 13.226562 8.507812 13.226562 Z M 8.507812 13.226562 " fill-opacity="1" fill-rule="evenodd"/><path fill="#9CA3AF" d="M 12.3125 13.226562 L 14.039062 13.226562 C 14.289062 13.226562 14.496094 13.429688 14.496094 13.683594 L 14.496094 15.03125 C 14.496094 15.28125 14.289062 15.484375 14.039062 15.484375 L 12.3125 15.484375 C 12.058594 15.484375 11.855469 15.28125 11.855469 15.03125 L 11.855469 13.683594 C 11.855469 13.429688 12.058594 13.226562 12.3125 13.226562 Z M 12.3125 13.226562 " fill-opacity="1" fill-rule="evenodd"/><path fill="#9CA3AF" d="M 16.117188 13.226562 C 15.863281 13.226562 15.660156 13.429688 15.660156 13.683594 L 15.660156 15.03125 C 15.660156 15.15625 15.710938 15.273438 15.796875 15.355469 C 16.371094 14.476562 17.191406 13.777344 18.160156 13.355469 C 18.078125 13.277344 17.964844 13.226562 17.84375 13.226562 Z M 16.117188 13.226562 " fill-opacity="1" fill-rule="evenodd"/><path fill="#9CA3AF" d="M 8.507812 16.835938 L 10.230469 16.835938 C 10.484375 16.835938 10.691406 17.039062 10.691406 17.292969 L 10.691406 18.636719 C 10.691406 18.890625 10.484375 19.097656 10.230469 19.097656 L 8.507812 19.097656 C 8.253906 19.097656 8.050781 18.890625 8.050781 18.636719 L 8.050781 17.292969 C 8.050781 17.039062 8.253906 16.835938 8.507812 16.835938 Z M 8.507812 16.835938 " fill-opacity="1" fill-rule="evenodd"/><path fill="#9CA3AF" d="M 12.3125 16.835938 L 14.039062 16.835938 C 14.289062 16.835938 14.496094 17.039062 14.496094 17.292969 L 14.496094 18.636719 C 14.496094 18.890625 14.289062 19.097656 14.039062 19.097656 L 12.3125 19.097656 C 12.058594 19.097656 11.855469 18.890625 11.855469 18.636719 L 11.855469 17.292969 C 11.855469 17.039062 12.058594 16.835938 12.3125 16.835938 Z M 12.3125 16.835938 " fill-opacity="1" fill-rule="evenodd"/><path fill="#9CA3AF" d="M 20.253906 15.386719 C 20.054688 15.390625 19.890625 15.554688 19.894531 15.757812 L 19.898438 18.445312 L 21.375 19.917969 C 21.519531 20.0625 21.757812 20.066406 21.902344 19.917969 C 22.042969 19.773438 22.039062 19.535156 21.890625 19.394531 L 20.628906 18.140625 L 20.628906 15.757812 C 20.628906 15.550781 20.460938 15.382812 20.253906 15.386719 Z M 20.253906 15.386719 " fill-opacity="1" fill-rule="nonzero"/></svg>