<svg xmlns="http://www.w3.org/2000/svg" xmlns:xlink="http://www.w3.org/1999/xlink" width="24" height="24" viewBox="9.195312 9.988281 11.609376 8.710938">
<defs><clipPath id="0d1388084a"><path d="M 9.195312 10 L 20.804688 10 L 20.804688 18.699219 L 9.195312 18.699219 Z M 9.195312 10 " clip-rule="nonzero"/></clipPath><clipPath id="7d89ec466d"><path d="M 9.195312 9.988281 L 20.804688 9.988281 L 20.804688 18.699219 L 9.195312 18.699219 Z M 9.195312 9.988281 " clip-rule="nonzero"/></clipPath></defs><g clip-path="url(#0d1388084a)"><path fill="#FF422E" d="M 20.589844 12.285156 L 20.589844 18.375 C 20.589844 18.4375 20.535156 18.488281 20.472656 18.488281 L 9.527344 18.488281 C 9.464844 18.488281 9.410156 18.4375 9.410156 18.375 L 9.410156 12.304688 C 9.410156 12.207031 9.535156 12.15625 9.609375 12.222656 L 11.683594 14.128906 C 11.933594 14.363281 12.34375 14.3125 12.53125 14.03125 L 15.007812 10.289062 C 15.054688 10.21875 15.167969 10.222656 15.210938 10.296875 L 17.347656 13.996094 C 17.523438 14.296875 17.945312 14.359375 18.207031 14.128906 L 20.394531 12.199219 C 20.46875 12.132812 20.589844 12.183594 20.589844 12.285156 Z M 20.589844 12.285156 " fill-opacity="1" fill-rule="nonzero"/></g><g clip-path="url(#7d89ec466d)"><path stroke-linecap="butt" transform="matrix(0.0624014, 0, 0, 0.0600555, 9.193548, 10.020361)" fill="none" stroke-linejoin="miter" d="M 182.628807 37.711698 L 182.628807 139.115301 C 182.628807 140.156005 181.752425 141.001578 180.750845 141.001578 L 5.349172 141.001578 C 4.347592 141.001578 3.47121 140.156005 3.47121 139.115301 L 3.47121 38.036918 C 3.47121 36.410818 5.47437 35.565246 6.663746 36.670994 L 39.903677 68.412469 C 43.909997 72.315109 50.482865 71.469537 53.487604 66.786368 L 93.175206 4.474212 C 93.926391 3.30342 95.741754 3.368464 96.430341 4.6043 L 130.671852 66.200972 C 133.488795 71.209361 140.249459 72.250065 144.443575 68.412469 L 179.49887 36.28073 C 180.688246 35.174982 182.628807 36.020554 182.628807 37.711698 Z M 182.628807 37.711698 " stroke="#ed1d24" stroke-width="7" stroke-opacity="1" stroke-miterlimit="4"/></g></svg>