<svg xmlns="http://www.w3.org/2000/svg" xmlns:xlink="http://www.w3.org/1999/xlink" width="40" zoomAndPan="magnify" viewBox="0 0 30 30.000001" height="40" preserveAspectRatio="xMidYMid meet" version="1.0"><defs><clipPath id="0230a2d40b"><path d="M 7.625 2.902344 L 22.140625 2.902344 L 22.140625 26.128906 L 7.625 26.128906 Z M 7.625 2.902344 " clip-rule="nonzero"/></clipPath></defs><g clip-path="url(#0230a2d40b)"><path fill="#9CA3AF" d="M 22.257812 10.207031 L 22.242188 10.199219 C 21.285156 9.777344 20.664062 8.835938 20.664062 7.796875 L 20.664062 4.007812 C 20.664062 3.589844 20.351562 3.234375 19.933594 3.179688 L 17.980469 2.917969 C 17.84375 2.902344 17.699219 2.917969 17.570312 2.96875 C 17.476562 3.003906 17.390625 3.054688 17.316406 3.121094 C 16.9375 3.449219 16.132812 4.003906 14.996094 4.003906 C 14.6875 4.003906 13.597656 3.9375 12.679688 3.121094 C 12.601562 3.054688 12.515625 3.003906 12.421875 2.96875 C 12.292969 2.917969 12.148438 2.902344 12.011719 2.921875 L 10.058594 3.179688 C 9.644531 3.234375 9.328125 3.589844 9.328125 4.007812 L 9.328125 7.789062 C 9.328125 8.832031 8.707031 9.78125 7.742188 10.203125 C 7.671875 10.238281 7.625 10.308594 7.625 10.386719 L 7.625 25.375 C 7.625 25.789062 7.96875 26.128906 8.386719 26.128906 L 21.605469 26.128906 C 22.027344 26.128906 22.367188 25.789062 22.367188 25.375 L 22.367188 10.375 C 22.367188 10.304688 22.324219 10.234375 22.257812 10.207031 Z M 14.425781 5.121094 L 15.570312 5.121094 L 15.570312 5.503906 L 14.425781 5.503906 Z M 14.054688 5.121094 L 14.054688 5.6875 C 14.054688 5.789062 14.140625 5.871094 14.242188 5.871094 L 15.753906 5.871094 C 15.855469 5.871094 15.9375 5.789062 15.9375 5.6875 L 15.9375 5.121094 L 16.925781 5.121094 C 16.855469 5.222656 16.777344 5.324219 16.695312 5.417969 C 16.226562 5.949219 15.605469 6.253906 14.996094 6.253906 C 14.390625 6.253906 13.769531 5.949219 13.300781 5.417969 C 13.214844 5.324219 13.140625 5.222656 13.070312 5.121094 Z M 10.085938 7.851562 C 10.085938 9.203125 9.253906 10.390625 7.996094 10.871094 L 7.996094 10.496094 C 9.03125 9.992188 9.699219 8.941406 9.699219 7.789062 L 9.699219 4.007812 C 9.699219 3.78125 9.863281 3.589844 10.085938 3.546875 Z M 17.265625 5.910156 C 16.648438 6.605469 15.824219 7.003906 14.996094 7.003906 C 14.171875 7.003906 13.34375 6.605469 12.730469 5.910156 C 12.101562 5.203125 11.765625 4.289062 11.777344 3.324219 L 12.058594 3.285156 C 12.09375 3.28125 12.132812 3.28125 12.167969 3.285156 C 12.152344 3.894531 12.292969 4.496094 12.578125 5.023438 C 12.703125 5.253906 12.851562 5.464844 13.023438 5.660156 C 13.5625 6.269531 14.285156 6.621094 14.996094 6.621094 C 15.710938 6.621094 16.429688 6.269531 16.972656 5.660156 C 17.144531 5.46875 17.292969 5.253906 17.414062 5.023438 C 17.699219 4.492188 17.839844 3.894531 17.828125 3.285156 C 17.863281 3.28125 17.898438 3.28125 17.933594 3.285156 L 18.214844 3.324219 C 18.226562 4.289062 17.894531 5.203125 17.265625 5.910156 Z M 22 10.871094 C 20.738281 10.390625 19.910156 9.203125 19.910156 7.851562 L 19.910156 3.546875 C 20.132812 3.589844 20.296875 3.78125 20.296875 4.007812 L 20.296875 7.796875 C 20.296875 8.949219 20.960938 9.996094 22 10.496094 Z M 22 10.871094 " fill-opacity="1" fill-rule="nonzero"/></g></svg>