<svg xmlns="http://www.w3.org/2000/svg" xmlns:xlink="http://www.w3.org/1999/xlink" width="40" zoomAndPan="magnify" viewBox="0 0 30 30.000001" height="40" preserveAspectRatio="xMidYMid meet" version="1.0"><defs><clipPath id="3232d9a51b"><path d="M 16 6.316406 L 18 6.316406 L 18 10 L 16 10 Z M 16 6.316406 " clip-rule="nonzero"/></clipPath><clipPath id="51296e3609"><path d="M 14 6.316406 L 16 6.316406 L 16 10 L 14 10 Z M 14 6.316406 " clip-rule="nonzero"/></clipPath><clipPath id="4c7288a812"><path d="M 18 6.316406 L 20 6.316406 L 20 10 L 18 10 Z M 18 6.316406 " clip-rule="nonzero"/></clipPath><clipPath id="b73db0321f"><path d="M 5.042969 11 L 24.636719 11 L 24.636719 23 L 5.042969 23 Z M 5.042969 11 " clip-rule="nonzero"/></clipPath></defs><g clip-path="url(#3232d9a51b)"><path fill="#9CA3AF" d="M 16.84375 9.261719 C 16.84375 9.410156 16.960938 9.527344 17.109375 9.527344 C 17.253906 9.527344 17.375 9.410156 17.375 9.261719 L 17.375 6.582031 C 17.375 6.4375 17.253906 6.316406 17.109375 6.316406 C 16.960938 6.316406 16.84375 6.4375 16.84375 6.582031 Z M 16.84375 9.261719 " fill-opacity="1" fill-rule="nonzero"/></g><g clip-path="url(#51296e3609)"><path fill="#9CA3AF" d="M 15.316406 9.660156 C 15.375 9.796875 15.535156 9.851562 15.667969 9.789062 C 15.800781 9.730469 15.855469 9.570312 15.792969 9.4375 L 14.660156 7.007812 C 14.597656 6.875 14.441406 6.820312 14.308594 6.882812 C 14.175781 6.941406 14.117188 7.101562 14.179688 7.234375 Z M 15.316406 9.660156 " fill-opacity="1" fill-rule="nonzero"/></g><g clip-path="url(#4c7288a812)"><path fill="#9CA3AF" d="M 19.46875 7.039062 C 19.53125 6.90625 19.6875 6.847656 19.820312 6.910156 C 19.953125 6.972656 20.011719 7.128906 19.949219 7.261719 L 18.816406 9.691406 C 18.753906 9.824219 18.59375 9.882812 18.464844 9.820312 C 18.328125 9.757812 18.273438 9.601562 18.335938 9.46875 Z M 19.46875 7.039062 " fill-opacity="1" fill-rule="nonzero"/></g><g clip-path="url(#b73db0321f)"><path fill="#9CA3AF" d="M 5.050781 17.648438 L 5.050781 18.042969 C 5.050781 19.082031 5.949219 19.929688 7.050781 19.929688 C 7.378906 19.929688 7.6875 19.851562 7.960938 19.71875 C 8.925781 21.5 10.804688 22.703125 12.96875 22.703125 C 15.835938 22.703125 18.203125 20.582031 18.597656 17.824219 C 18.601562 17.8125 18.609375 17.796875 18.617188 17.78125 C 18.617188 17.78125 20.027344 15.402344 24.949219 14.394531 L 24.949219 11.652344 C 24.949219 11.652344 21.90625 11.445312 18.097656 11.359375 L 18.097656 12.769531 L 15.765625 12.769531 L 15.765625 11.324219 C 14.894531 11.316406 14.011719 11.316406 13.136719 11.332031 C 13.078125 11.332031 13.023438 11.328125 12.96875 11.328125 C 10.246094 11.328125 7.96875 13.242188 7.414062 15.796875 C 7.296875 15.777344 7.175781 15.765625 7.050781 15.765625 C 5.949219 15.765625 5.050781 16.609375 5.050781 17.648438 Z M 10.371094 17.925781 C 10.371094 16.546875 11.488281 15.429688 12.867188 15.429688 C 14.242188 15.429688 15.359375 16.546875 15.359375 17.925781 C 15.359375 19.304688 14.242188 20.417969 12.867188 20.417969 C 11.488281 20.417969 10.371094 19.304688 10.371094 17.925781 Z M 6.226562 17.648438 C 6.226562 17.261719 6.597656 16.945312 7.050781 16.945312 C 7.132812 16.945312 7.207031 16.957031 7.28125 16.972656 C 7.28125 16.988281 7.28125 17.003906 7.28125 17.015625 C 7.28125 17.578125 7.363281 18.117188 7.511719 18.628906 C 7.382812 18.707031 7.222656 18.75 7.050781 18.75 C 6.597656 18.75 6.226562 18.433594 6.226562 18.042969 Z M 6.226562 17.648438 " fill-opacity="1" fill-rule="nonzero"/></g></svg>