<svg width="24" height="23" viewBox="0 0 24 23" fill="none" xmlns="http://www.w3.org/2000/svg">
<mask id="mask0_2109_285" style="mask-type:luminance" maskUnits="userSpaceOnUse" x="0" y="0" width="24" height="23">
<path d="M0 0H24V22.5061H0V0Z" fill="white"/>
</mask>
<g mask="url(#mask0_2109_285)">
<path fill-rule="evenodd" clip-rule="evenodd" d="M12.0002 0L15.0931 6.84792C15.2061 7.1144 15.3919 7.34051 15.6341 7.5101C15.8683 7.67968 16.1429 7.78466 16.4336 7.81696L23.9921 8.5922L18.3475 13.607C18.1294 13.8008 17.9679 14.0512 17.871 14.3257C17.7822 14.6003 17.766 14.891 17.8306 15.1736L19.4134 22.5061L12.832 18.751C12.5816 18.6057 12.2909 18.533 12.0002 18.533C11.7095 18.533 11.4188 18.6057 11.1685 18.751L4.58703 22.5061L6.16981 15.1736C6.23441 14.891 6.21826 14.6003 6.12943 14.3257C6.03253 14.0512 5.87102 13.8008 5.65298 13.607L0.00830078 8.5922L7.56684 7.81696C7.85756 7.78466 8.13212 7.67968 8.36631 7.5101C8.60857 7.34051 8.7943 7.1144 8.90736 6.84792L12.0002 0Z" fill="#FF422E"/>
</g>
</svg>
 