<svg xmlns="http://www.w3.org/2000/svg" xmlns:xlink="http://www.w3.org/1999/xlink" width="40" zoomAndPan="magnify" viewBox="0 0 30 30.000001" height="40" preserveAspectRatio="xMidYMid meet" version="1.0"><defs><clipPath id="1e5b7d649f"><path d="M 5.347656 7.46875 L 24.945312 7.46875 L 24.945312 21.257812 L 5.347656 21.257812 Z M 5.347656 7.46875 " clip-rule="nonzero"/></clipPath></defs><g clip-path="url(#1e5b7d649f)"><path fill="#9CA3AF" d="M 22.910156 10.507812 L 19.515625 10.507812 L 18.328125 8.3125 C 18.195312 8.066406 18.007812 7.871094 17.765625 7.722656 C 17.523438 7.578125 17.261719 7.507812 16.976562 7.503906 L 13.035156 7.503906 C 12.75 7.503906 12.484375 7.582031 12.238281 7.730469 C 11.992188 7.878906 11.804688 8.082031 11.671875 8.335938 L 10.539062 10.507812 L 9.785156 10.507812 C 9.78125 10.378906 9.730469 10.269531 9.636719 10.179688 C 9.542969 10.089844 9.433594 10.042969 9.300781 10.042969 L 9.042969 10.042969 C 8.992188 9.921875 8.902344 9.863281 8.773438 9.863281 L 8.066406 9.863281 C 7.9375 9.863281 7.847656 9.925781 7.800781 10.042969 L 7.546875 10.042969 C 7.417969 10.042969 7.304688 10.089844 7.210938 10.179688 C 7.117188 10.269531 7.070312 10.378906 7.066406 10.507812 C 6.835938 10.511719 6.617188 10.558594 6.40625 10.644531 C 6.195312 10.734375 6.007812 10.863281 5.847656 11.023438 C 5.6875 11.1875 5.5625 11.375 5.476562 11.585938 C 5.390625 11.796875 5.347656 12.015625 5.347656 12.246094 L 5.347656 19.789062 C 5.347656 20.019531 5.390625 20.242188 5.480469 20.453125 C 5.566406 20.667969 5.691406 20.855469 5.855469 21.015625 C 6.019531 21.179688 6.207031 21.304688 6.417969 21.394531 C 6.632812 21.480469 6.855469 21.527344 7.082031 21.527344 L 22.910156 21.527344 C 23.140625 21.527344 23.363281 21.480469 23.578125 21.394531 C 23.789062 21.304688 23.976562 21.179688 24.140625 21.015625 C 24.304688 20.855469 24.429688 20.667969 24.515625 20.453125 C 24.605469 20.242188 24.648438 20.019531 24.648438 19.789062 L 24.648438 12.234375 C 24.648438 12.007812 24.601562 11.785156 24.515625 11.574219 C 24.425781 11.363281 24.300781 11.175781 24.136719 11.015625 C 23.972656 10.851562 23.785156 10.726562 23.574219 10.640625 C 23.363281 10.550781 23.140625 10.507812 22.910156 10.507812 Z M 14.996094 20.160156 C 14.6875 20.160156 14.382812 20.128906 14.078125 20.070312 C 13.773438 20.007812 13.476562 19.917969 13.191406 19.800781 C 12.90625 19.683594 12.632812 19.539062 12.375 19.363281 C 12.117188 19.191406 11.878906 18.996094 11.660156 18.777344 C 11.441406 18.558594 11.246094 18.320312 11.074219 18.0625 C 10.902344 17.804688 10.753906 17.535156 10.636719 17.246094 C 10.519531 16.960938 10.429688 16.667969 10.367188 16.363281 C 10.308594 16.058594 10.277344 15.75 10.277344 15.441406 C 10.277344 15.132812 10.304688 14.824219 10.367188 14.519531 C 10.425781 14.21875 10.515625 13.921875 10.636719 13.636719 C 10.753906 13.347656 10.898438 13.078125 11.070312 12.820312 C 11.242188 12.5625 11.4375 12.324219 11.65625 12.105469 C 11.878906 11.882812 12.117188 11.6875 12.375 11.515625 C 12.628906 11.34375 12.902344 11.199219 13.1875 11.082031 C 13.476562 10.960938 13.769531 10.871094 14.074219 10.8125 C 14.378906 10.75 14.683594 10.722656 14.996094 10.722656 C 15.304688 10.722656 15.613281 10.75 15.914062 10.8125 C 16.21875 10.871094 16.515625 10.960938 16.800781 11.078125 C 17.085938 11.199219 17.359375 11.34375 17.617188 11.515625 C 17.875 11.6875 18.113281 11.882812 18.332031 12.101562 C 18.550781 12.320312 18.746094 12.558594 18.917969 12.816406 C 19.09375 13.074219 19.238281 13.347656 19.355469 13.632812 C 19.472656 13.921875 19.5625 14.214844 19.625 14.519531 C 19.683594 14.824219 19.714844 15.128906 19.714844 15.441406 C 19.714844 15.75 19.683594 16.058594 19.625 16.359375 C 19.5625 16.664062 19.472656 16.960938 19.355469 17.246094 C 19.238281 17.53125 19.09375 17.804688 18.921875 18.0625 C 18.75 18.320312 18.550781 18.558594 18.332031 18.777344 C 18.113281 18.996094 17.875 19.191406 17.617188 19.363281 C 17.359375 19.535156 17.089844 19.679688 16.804688 19.800781 C 16.515625 19.917969 16.222656 20.007812 15.917969 20.070312 C 15.613281 20.128906 15.308594 20.160156 14.996094 20.160156 Z M 22.863281 13.222656 C 22.644531 13.226562 22.457031 13.148438 22.304688 12.996094 C 22.148438 12.839844 22.070312 12.65625 22.070312 12.4375 C 22.070312 12.21875 22.148438 12.035156 22.300781 11.878906 C 22.457031 11.726562 22.640625 11.648438 22.859375 11.648438 C 23.078125 11.648438 23.261719 11.726562 23.417969 11.882812 C 23.570312 12.035156 23.648438 12.222656 23.648438 12.4375 C 23.648438 12.65625 23.570312 12.839844 23.417969 12.996094 C 23.261719 13.148438 23.078125 13.222656 22.863281 13.222656 Z M 22.863281 13.222656 " fill-opacity="1" fill-rule="nonzero"/></g><path fill="#9CA3AF" d="M 18.285156 15.441406 C 18.285156 15.875 18.203125 16.296875 18.035156 16.699219 C 17.871094 17.101562 17.632812 17.457031 17.324219 17.765625 C 17.015625 18.074219 16.660156 18.3125 16.257812 18.480469 C 15.851562 18.644531 15.433594 18.730469 14.996094 18.730469 C 14.5625 18.730469 14.140625 18.644531 13.738281 18.480469 C 13.335938 18.3125 12.980469 18.074219 12.671875 17.765625 C 12.363281 17.457031 12.125 17.101562 11.960938 16.699219 C 11.792969 16.296875 11.707031 15.875 11.707031 15.441406 C 11.707031 15.003906 11.792969 14.585938 11.960938 14.179688 C 12.125 13.777344 12.363281 13.421875 12.671875 13.113281 C 12.980469 12.804688 13.335938 12.570312 13.738281 12.402344 C 14.140625 12.234375 14.5625 12.152344 14.996094 12.152344 C 15.433594 12.152344 15.851562 12.234375 16.257812 12.402344 C 16.660156 12.570312 17.015625 12.804688 17.324219 13.113281 C 17.632812 13.421875 17.871094 13.777344 18.035156 14.179688 C 18.203125 14.585938 18.285156 15.003906 18.285156 15.441406 Z M 18.285156 15.441406 " fill-opacity="1" fill-rule="nonzero"/></svg>