<svg xmlns="http://www.w3.org/2000/svg" width="286" height="318" viewBox="0 0 286 318" fill="none">
<g style="mix-blend-mode:soft-light" opacity="0.2">
<path d="M280.463 112.792C272.283 161.024 242.161 204.278 200.417 229.667C246.883 193.45 272.122 132.477 264.381 73.9843C244.325 39.1858 211.991 12.6536 173.345 0C196.872 23.7042 212.371 62.7981 212.803 107.146C213.202 123.349 211.33 139.596 207.089 155.262C194.052 205.929 160.205 242.045 120.498 242.045C80.7919 242.045 46.9405 205.934 33.9076 155.262C29.667 139.596 27.7948 123.344 28.1935 107.146C28.6263 62.7981 44.1248 23.7042 67.652 0C29.0056 12.6487 -3.32855 39.1858 -23.3836 73.9843C-31.1256 132.477 -5.8865 193.45 40.5796 229.667C-1.16451 204.283 -31.286 161.024 -39.4656 112.792C-51.9247 158.051 -43.0205 209.348 -16.0551 247.599C-16.0307 247.623 -16.0064 247.643 -15.987 247.667C17.9715 268.524 60.0949 276.998 99.7431 270.974C73.3272 281.342 43.7795 285.134 15.4913 281.545C27.9261 291.618 41.8732 299.894 56.9437 306.02C67.1268 304.407 81.108 300.775 90.231 297.545C85.7717 304.61 84.1523 308.644 81.3901 313.758C92.3319 316.339 103.862 317.7 115.456 318L120.498 300.896L125.541 318C137.135 317.7 148.665 316.339 159.607 313.758C156.845 308.644 155.22 304.605 150.766 297.545C159.884 300.775 173.87 304.407 184.053 306.02C199.124 299.899 213.071 291.623 225.506 281.545C197.217 285.129 167.665 281.337 141.254 270.974C180.902 276.993 223.025 268.524 256.984 247.667C257.008 247.643 257.033 247.623 257.052 247.599C284.022 209.353 292.926 158.051 280.463 112.792Z" fill="#ffffff"/>
<path d="M148.894 126.419L133.069 140.554L141.682 112.976L120.503 94.1145L99.3248 112.976L107.937 140.554L92.113 126.419L86.7588 140.787C112.591 160.951 120.508 220.05 120.508 220.05C120.508 220.05 128.42 160.951 154.257 140.787L148.903 126.419H148.894Z" fill="#ffffff"/>
</g>
</svg>