<svg width="549" height="488" viewBox="0 0 549 488" fill="none" xmlns="http://www.w3.org/2000/svg">
<path d="M548.446 214.915V204.636L166.606 0.251007H147.401L548.446 214.915Z" fill="#E8E8E8"/>
<path d="M548.446 234.94V224.664L128.698 0.251007H109.478L548.446 234.94Z" fill="#E8E8E8"/>
<path d="M548.446 194.891V184.607L203.613 0.251007H184.377L548.446 194.891Z" fill="#E8E8E8"/>
<path d="M548.446 255.766V245.46L90.7877 0.251007H71.5535L548.446 255.766Z" fill="#E8E8E8"/>
<path d="M548.446 174.866V164.577L241.519 0.251007H222.301L548.446 174.866Z" fill="#E8E8E8"/>
<path d="M548.446 275.79V265.49L53.7881 0.251007H34.5779L548.446 275.79Z" fill="#E8E8E8"/>
<path d="M548.446 375.914V365.63L0.446289 72.3398V82.6238L548.446 375.914Z" fill="#E8E8E8"/>
<path d="M548.446 335.865V325.58L0.446289 32.2905V42.5745L548.446 335.865Z" fill="#E8E8E8"/>
<path d="M548.446 315.84V305.556L0.446289 12.2658V22.5498L548.446 315.84Z" fill="#E8E8E8"/>
<path d="M548.446 355.889V345.605L0.446289 52.3152V62.5991L548.446 355.889Z" fill="#E8E8E8"/>
<path d="M548.446 13.8678V3.58363L542.175 0.251007H522.848L548.446 13.8678Z" fill="#E8E8E8"/>
<path d="M548.446 33.8925V23.6355L504.948 0.251007H485.872L548.446 33.8925Z" fill="#E8E8E8"/>
<path d="M548.446 285.519L16.0767 0.251007H0.446289V2.1719L548.446 295.815V285.519Z" fill="#E8E8E8"/>
<path d="M548.446 154.841V144.546L279.42 0.251007H260.225L548.446 154.841Z" fill="#E8E8E8"/>
<path d="M548.446 53.9171V43.6715L467.141 0.251007H447.948L548.446 53.9171Z" fill="#E8E8E8"/>
<path d="M548.446 134.817V124.512L316.44 0.251007H297.201L548.446 134.817Z" fill="#E8E8E8"/>
<path d="M548.446 73.9418V63.6993L429.271 0.251007H410.024L548.446 73.9418Z" fill="#E8E8E8"/>
<path d="M548.446 114.792V104.476L354.336 0.251007H335.124L548.446 114.792Z" fill="#E8E8E8"/>
<path d="M548.446 94.7674V84.4392L392.222 0.251007H373.048L548.446 94.7674Z" fill="#E8E8E8"/>
<path d="M342.448 487.251H361.671L0.446289 294.213V304.486L342.448 487.251Z" fill="#E8E8E8"/>
<path d="M229.627 487.251H248.847L0.446289 354.287V364.576L229.627 487.251Z" fill="#E8E8E8"/>
<path d="M154.695 487.251H173.948L0.446289 394.337V404.647L154.695 487.251Z" fill="#E8E8E8"/>
<path d="M191.733 487.251H210.924L0.446289 374.312V384.609L191.733 487.251Z" fill="#E8E8E8"/>
<path d="M267.528 487.251H286.771L0.446289 334.263V344.544L267.528 487.251Z" fill="#E8E8E8"/>
<path d="M304.543 487.251H323.747L0.446289 314.238V324.515L304.543 487.251Z" fill="#E8E8E8"/>
<path d="M4.05956 487.251H23.2006L0.446289 475.236V485.343L4.05956 487.251Z" fill="#E8E8E8"/>
<path d="M41.8282 487.251H61.1244L0.446289 455.212V465.4L41.8282 487.251Z" fill="#E8E8E8"/>
<path d="M116.81 487.251H136.024L0.446289 414.361V424.691L116.81 487.251Z" fill="#E8E8E8"/>
<path d="M548.446 395.938V385.654L0.446289 92.3645V102.649L548.446 395.938Z" fill="#E8E8E8"/>
<path d="M78.9537 487.251H98.1002L0.446289 434.386V444.751L78.9537 487.251Z" fill="#E8E8E8"/>
<path d="M548.446 456.813V446.529L0.446289 153.24V163.524L548.446 456.813Z" fill="#E8E8E8"/>
<path d="M379.453 487.251H398.647L0.446289 273.388V283.696L379.453 487.251Z" fill="#E8E8E8"/>
<path d="M548.446 476.838V466.554L0.446289 173.264V183.544L548.446 476.838Z" fill="#E8E8E8"/>
<path d="M548.446 415.963V405.679L0.446289 112.389V122.673L548.446 415.963Z" fill="#E8E8E8"/>
<path d="M548.446 435.988V425.704L0.446289 132.414V142.698L548.446 435.988Z" fill="#E8E8E8"/>
<path d="M417.36 487.251H436.571L0.446289 253.363V263.665L417.36 487.251Z" fill="#E8E8E8"/>
<path d="M530.208 487.251H548.446V486.723L0.446289 193.289V203.574L530.208 487.251Z" fill="#E8E8E8"/>
<path d="M455.27 487.251H474.494L0.446289 233.338V243.636L455.27 487.251Z" fill="#E8E8E8"/>
<path d="M492.269 487.251H511.47L0.446289 213.314V223.607L492.269 487.251Z" fill="#E8E8E8"/>
</svg>
